<svg width="375" height="541" viewBox="0 0 375 541" fill="none" xmlns="http://www.w3.org/2000/svg">
<path d="M0 1L6.06302 15.6887C9.23963 23.3847 13.5812 30.5461 18.9354 36.9219L21.5105 39.9884C24.6815 43.7645 28.3663 47.0774 32.4571 49.8304V49.8304C39.2403 54.3953 46.9915 57.3211 55.0992 58.3772L65.9546 59.7911C74.7873 60.9416 83.7348 60.8974 92.5557 59.6597L104.91 57.9263C110.39 57.1575 115.804 55.9786 121.107 54.3996V54.3996C131.351 51.3493 141.983 49.8 152.672 49.8H153.297C162.247 49.8 171.167 50.8459 179.875 52.9163L202.973 58.4083C211.681 60.4788 220.601 61.5247 229.552 61.5247V61.5247H246.425H256.945C266.434 61.5247 275.77 63.9135 284.093 68.471V68.471C288.349 70.8018 292.288 73.6711 295.811 77.0081L304.892 85.6078V85.6078C317.603 95.0992 331.05 103.561 345.107 110.914L347.009 111.909L375 123" stroke="#DFDFDF" stroke-opacity="0.3"/>
<path d="M0 149.874L13.8622 142.813C21.1931 139.079 28.1934 134.729 34.7875 129.81V129.81C42.3179 124.192 50.3758 119.318 58.8478 115.256L91.0472 99.8206L106.323 94.4134C114.575 91.4925 123.264 90 132.017 90V90C141.696 90 151.288 91.8246 160.29 95.3784L171.544 99.8206V99.8206C182.652 104.358 194.884 105.385 206.594 102.763L219.738 99.8206L227.118 97.9529C237.079 95.4324 247.494 95.3092 257.511 97.5931V97.5931C263.986 99.0694 270.196 101.529 275.925 104.887L281.022 107.874C286.265 110.947 291.227 114.476 295.85 118.421L311.176 131.5L330.063 145.122V145.122C339.906 154.152 351.05 161.653 363.122 167.372L375 173" stroke="#DFDFDF" stroke-opacity="0.3"/>
<path d="M0 172L24.4421 123.421C28.3083 115.737 34.1771 109.239 41.4292 104.613L44.4332 102.697C55.3929 95.7063 69.0298 94.3626 81.1431 99.08V99.08C93.697 103.969 107.856 102.339 118.97 94.7244L121.903 92.7153C133.789 84.5718 148.837 82.556 162.448 87.2838V87.2838C170.519 90.0872 179.217 90.5556 187.542 88.6351L200.395 85.6702L208.094 83.8942C219.986 81.1509 232.151 79.766 244.356 79.766V79.766H254.207C266.744 79.766 279.195 77.6976 291.059 73.6443V73.6443C300.864 70.2942 310.167 65.6229 318.709 59.7592L345.823 41.1489L375 22" stroke="#DFDFDF" stroke-opacity="0.3"/>
<path d="M69.52 8.656V17H67.952V7.2H76.408V17H74.826V8.656H69.52ZM85.4553 13.892H79.4073C79.5193 14.4613 79.7946 14.928 80.2333 15.292C80.6813 15.6467 81.2086 15.824 81.8153 15.824C82.6366 15.824 83.2806 15.5207 83.7473 14.914L85.1753 15.348C84.8393 15.9173 84.3726 16.3653 83.7753 16.692C83.1873 17.0187 82.5339 17.182 81.8153 17.182C80.6953 17.182 79.7666 16.818 79.0293 16.09C78.2826 15.362 77.9093 14.452 77.9093 13.36C77.9093 12.2773 78.2686 11.3673 78.9873 10.63C79.7153 9.902 80.6206 9.538 81.7033 9.538C82.7859 9.538 83.6819 9.902 84.3913 10.63C85.1193 11.358 85.4833 12.268 85.4833 13.36C85.4833 13.3973 85.4739 13.5747 85.4553 13.892ZM79.4213 12.73H83.9853C83.8546 12.1887 83.5746 11.75 83.1453 11.414C82.7159 11.0687 82.2213 10.896 81.6613 10.896C81.1293 10.896 80.6533 11.0687 80.2333 11.414C79.8226 11.75 79.5519 12.1887 79.4213 12.73ZM88.2322 20.15H86.7762V9.72H88.2322V10.504C88.9042 9.86 89.7115 9.538 90.6542 9.538C91.6715 9.538 92.5255 9.902 93.2162 10.63C93.8975 11.3487 94.2382 12.2587 94.2382 13.36C94.2382 14.4613 93.8975 15.3713 93.2162 16.09C92.5255 16.818 91.6715 17.182 90.6542 17.182C89.7115 17.182 88.9042 16.86 88.2322 16.216V20.15ZM90.4862 10.994C89.8609 10.994 89.3335 11.2227 88.9042 11.68C88.4749 12.1187 88.2602 12.6787 88.2602 13.36C88.2602 14.032 88.4749 14.5967 88.9042 15.054C89.3335 15.502 89.8609 15.726 90.4862 15.726C91.1115 15.726 91.6435 15.502 92.0822 15.054C92.5115 14.5967 92.7262 14.032 92.7262 13.36C92.7262 12.6787 92.5115 12.1187 92.0822 11.68C91.6529 11.2227 91.1209 10.994 90.4862 10.994ZM102.873 13.892H96.8253C96.9373 14.4613 97.2126 14.928 97.6513 15.292C98.0993 15.6467 98.6266 15.824 99.2333 15.824C100.055 15.824 100.699 15.5207 101.165 14.914L102.593 15.348C102.257 15.9173 101.791 16.3653 101.193 16.692C100.605 17.0187 99.9519 17.182 99.2333 17.182C98.1133 17.182 97.1846 16.818 96.4473 16.09C95.7006 15.362 95.3273 14.452 95.3273 13.36C95.3273 12.2773 95.6866 11.3673 96.4053 10.63C97.1333 9.902 98.0386 9.538 99.1213 9.538C100.204 9.538 101.1 9.902 101.809 10.63C102.537 11.358 102.901 12.268 102.901 13.36C102.901 13.3973 102.892 13.5747 102.873 13.892ZM96.8392 12.73H101.403C101.273 12.1887 100.993 11.75 100.563 11.414C100.134 11.0687 99.6393 10.896 99.0793 10.896C98.5473 10.896 98.0713 11.0687 97.6513 11.414C97.2406 11.75 96.9699 12.1887 96.8392 12.73ZM104.194 17V9.72H105.65V14.578L109.766 9.72H110.984V17H109.528V12.17L105.412 17H104.194ZM105.188 6.668H106.406C106.406 6.98533 106.518 7.25133 106.742 7.466C106.976 7.68067 107.265 7.788 107.61 7.788C107.937 7.788 108.212 7.68067 108.436 7.466C108.67 7.25133 108.786 6.98533 108.786 6.668H110.004C110.004 7.33067 109.776 7.87667 109.318 8.306C108.861 8.73533 108.292 8.95 107.61 8.95C106.91 8.95 106.332 8.73533 105.874 8.306C105.417 7.87667 105.188 7.33067 105.188 6.668ZM114.629 17V11.12H112.053V9.72H118.661V11.12H116.085V17H114.629ZM125.046 12.17L120.93 17H119.712V9.72H121.168V14.578L125.284 9.72H126.502V17H125.046V12.17Z" fill="white" fill-opacity="0.9"/>
<path d="M151.464 13.3536C151.66 13.1583 151.66 12.8417 151.464 12.6464L148.282 9.46447C148.087 9.2692 147.77 9.2692 147.575 9.46447C147.38 9.65973 147.38 9.97631 147.575 10.1716L150.404 13L147.575 15.8284C147.38 16.0237 147.38 16.3403 147.575 16.5355C147.77 16.7308 148.087 16.7308 148.282 16.5355L151.464 13.3536ZM133 13.5H151.111V12.5H133V13.5Z" fill="white"/>
<circle cx="292.5" cy="72.5" r="2.5" fill="#F6BD11"/>
<circle cx="292.5" cy="72.5" r="2.5" fill="#F6BD11"/>
<circle cx="292.5" cy="72.5" r="2.5" fill="#004796"/>
<path d="M107.723 180.15C107.723 179.013 108.115 178.064 108.9 177.301C109.685 176.538 110.66 176.157 111.826 176.157C112.633 176.157 113.366 176.355 114.026 176.751C114.686 177.147 115.181 177.686 115.511 178.368L113.817 178.995C113.626 178.628 113.355 178.342 113.003 178.137C112.651 177.932 112.259 177.829 111.826 177.829C111.159 177.829 110.612 178.053 110.187 178.5C109.754 178.947 109.538 179.497 109.538 180.15C109.538 180.795 109.747 181.345 110.165 181.8C110.583 182.247 111.104 182.471 111.727 182.471C112.167 182.471 112.57 182.35 112.937 182.108C113.311 181.866 113.579 181.547 113.74 181.151H111.54V179.666H115.72C115.742 179.798 115.753 179.937 115.753 180.084C115.753 181.228 115.372 182.192 114.609 182.977C113.854 183.754 112.897 184.143 111.738 184.143C110.616 184.143 109.663 183.762 108.878 182.999C108.108 182.244 107.723 181.294 107.723 180.15ZM117.27 183.285C116.69 182.706 116.401 181.991 116.401 181.14C116.401 180.289 116.69 179.578 117.27 179.006C117.849 178.427 118.579 178.137 119.459 178.137C120.331 178.137 121.057 178.427 121.637 179.006C122.223 179.578 122.517 180.289 122.517 181.14C122.517 181.983 122.223 182.698 121.637 183.285C121.05 183.857 120.324 184.143 119.459 184.143C118.579 184.143 117.849 183.857 117.27 183.285ZM119.459 182.515C119.84 182.515 120.155 182.383 120.405 182.119C120.669 181.848 120.801 181.521 120.801 181.14C120.801 180.759 120.669 180.436 120.405 180.172C120.155 179.901 119.84 179.765 119.459 179.765C119.077 179.765 118.758 179.897 118.502 180.161C118.245 180.432 118.117 180.759 118.117 181.14C118.117 181.521 118.245 181.848 118.502 182.119C118.758 182.383 119.077 182.515 119.459 182.515ZM123.951 183.285C123.372 182.706 123.082 181.991 123.082 181.14C123.082 180.289 123.372 179.578 123.951 179.006C124.531 178.427 125.26 178.137 126.14 178.137C127.013 178.137 127.739 178.427 128.318 179.006C128.905 179.578 129.198 180.289 129.198 181.14C129.198 181.983 128.905 182.698 128.318 183.285C127.732 183.857 127.006 184.143 126.14 184.143C125.26 184.143 124.531 183.857 123.951 183.285ZM126.14 182.515C126.522 182.515 126.837 182.383 127.086 182.119C127.35 181.848 127.482 181.521 127.482 181.14C127.482 180.759 127.35 180.436 127.086 180.172C126.837 179.901 126.522 179.765 126.14 179.765C125.759 179.765 125.44 179.897 125.183 180.161C124.927 180.432 124.798 180.759 124.798 181.14C124.798 181.521 124.927 181.848 125.183 182.119C125.44 182.383 125.759 182.515 126.14 182.515ZM129.764 181.14C129.764 180.275 130.021 179.56 130.534 178.995C131.047 178.423 131.693 178.137 132.47 178.137C133.057 178.137 133.585 178.313 134.054 178.665V178.28H135.693V183.879C135.693 184.664 135.414 185.313 134.857 185.826C134.307 186.354 133.621 186.618 132.8 186.618C132.14 186.618 131.55 186.449 131.029 186.112C130.501 185.767 130.153 185.342 129.984 184.836L131.612 184.451C131.7 184.627 131.85 184.77 132.063 184.88C132.276 184.997 132.51 185.056 132.767 185.056C133.126 185.056 133.431 184.946 133.68 184.726C133.929 184.506 134.054 184.231 134.054 183.901V183.604C133.599 183.963 133.071 184.143 132.47 184.143C131.693 184.143 131.047 183.857 130.534 183.285C130.021 182.706 129.764 181.991 129.764 181.14ZM132.756 179.765C132.397 179.765 132.092 179.897 131.843 180.161C131.601 180.425 131.48 180.755 131.48 181.151C131.48 181.532 131.601 181.855 131.843 182.119C132.092 182.383 132.397 182.515 132.756 182.515C133.108 182.515 133.409 182.383 133.658 182.119C133.907 181.862 134.032 181.54 134.032 181.151C134.032 180.755 133.907 180.425 133.658 180.161C133.409 179.897 133.108 179.765 132.756 179.765ZM138.272 184H136.622V175.75H138.272V184ZM145.019 181.734H140.762C140.857 182.035 141.029 182.277 141.279 182.46C141.528 182.643 141.821 182.735 142.159 182.735C142.628 182.735 143.006 182.566 143.292 182.229L144.887 182.592C144.623 183.076 144.249 183.457 143.765 183.736C143.288 184.007 142.749 184.143 142.148 184.143C141.253 184.143 140.509 183.857 139.915 183.285C139.321 182.713 139.024 181.998 139.024 181.14C139.024 180.289 139.313 179.578 139.893 179.006C140.472 178.427 141.194 178.137 142.06 178.137C142.918 178.137 143.636 178.427 144.216 179.006C144.795 179.578 145.085 180.289 145.085 181.14C145.085 181.345 145.063 181.543 145.019 181.734ZM140.773 180.513H143.402C143.299 180.22 143.127 179.985 142.885 179.809C142.643 179.633 142.368 179.545 142.06 179.545C141.766 179.545 141.502 179.633 141.268 179.809C141.033 179.985 140.868 180.22 140.773 180.513ZM148.273 181.14C148.273 180.275 148.529 179.56 149.043 178.995C149.556 178.423 150.201 178.137 150.979 178.137C151.565 178.137 152.093 178.313 152.563 178.665V178.28H154.202V184H152.563V183.604C152.108 183.963 151.58 184.143 150.979 184.143C150.201 184.143 149.556 183.857 149.043 183.285C148.529 182.706 148.273 181.991 148.273 181.14ZM151.265 179.765C150.905 179.765 150.601 179.897 150.352 180.161C150.11 180.425 149.989 180.748 149.989 181.129C149.989 181.525 150.11 181.855 150.352 182.119C150.601 182.383 150.905 182.515 151.265 182.515C151.617 182.515 151.917 182.383 152.167 182.119C152.416 181.855 152.541 181.525 152.541 181.129C152.541 180.74 152.416 180.418 152.167 180.161C151.917 179.897 151.617 179.765 151.265 179.765ZM155.13 184V178.28H156.78V178.863C157.162 178.379 157.682 178.137 158.342 178.137C158.958 178.137 159.475 178.346 159.893 178.764C160.319 179.182 160.531 179.703 160.531 180.326V184H158.881V180.766C158.881 180.451 158.782 180.19 158.584 179.985C158.386 179.772 158.137 179.666 157.836 179.666C157.536 179.666 157.283 179.772 157.077 179.985C156.879 180.19 156.78 180.451 156.78 180.766V184H155.13ZM161.282 181.14C161.282 180.275 161.538 179.56 162.052 178.995C162.565 178.423 163.21 178.137 163.988 178.137C164.574 178.137 165.102 178.313 165.572 178.665V178.28H167.211V184H165.572V183.604C165.117 183.963 164.589 184.143 163.988 184.143C163.21 184.143 162.565 183.857 162.052 183.285C161.538 182.706 161.282 181.991 161.282 181.14ZM164.274 179.765C163.914 179.765 163.61 179.897 163.361 180.161C163.119 180.425 162.998 180.748 162.998 181.129C162.998 181.525 163.119 181.855 163.361 182.119C163.61 182.383 163.914 182.515 164.274 182.515C164.626 182.515 164.926 182.383 165.176 182.119C165.425 181.855 165.55 181.525 165.55 181.129C165.55 180.74 165.425 180.418 165.176 180.161C164.926 179.897 164.626 179.765 164.274 179.765ZM169.789 184H168.139V175.75H169.789V184ZM172.455 184.044L172.488 183.956L170.321 178.28H172.026L173.269 181.811L174.556 178.28H176.261L173.83 184.594C173.566 185.254 173.214 185.731 172.774 186.024C172.342 186.325 171.773 186.475 171.069 186.475H170.871V184.902H171.08C171.792 184.902 172.25 184.616 172.455 184.044ZM176.413 179.71V178.28H177.194V177.169H178.844V178.28H180.142V179.71H178.844V181.855C178.844 182.031 178.902 182.178 179.02 182.295C179.137 182.405 179.287 182.46 179.471 182.46H180.142V184H179.196C178.631 184 178.154 183.828 177.766 183.483C177.384 183.131 177.194 182.695 177.194 182.174V179.71H176.413ZM182.487 184H180.837V178.28H182.487V184ZM180.925 177.587C180.734 177.396 180.639 177.154 180.639 176.861C180.639 176.568 180.734 176.326 180.925 176.135C181.13 175.944 181.376 175.849 181.662 175.849C181.955 175.849 182.197 175.944 182.388 176.135C182.586 176.318 182.685 176.56 182.685 176.861C182.685 177.162 182.586 177.404 182.388 177.587C182.197 177.778 181.955 177.873 181.662 177.873C181.376 177.873 181.13 177.778 180.925 177.587ZM189.19 180.106L187.529 180.59C187.426 180.341 187.265 180.143 187.045 179.996C186.825 179.842 186.575 179.765 186.297 179.765C185.915 179.765 185.596 179.897 185.34 180.161C185.083 180.418 184.955 180.74 184.955 181.129C184.955 181.525 185.083 181.855 185.34 182.119C185.596 182.383 185.915 182.515 186.297 182.515C186.575 182.515 186.825 182.442 187.045 182.295C187.265 182.141 187.426 181.939 187.529 181.69L189.19 182.174C188.97 182.775 188.599 183.256 188.079 183.615C187.558 183.967 186.964 184.143 186.297 184.143C185.417 184.143 184.687 183.857 184.108 183.285C183.528 182.706 183.239 181.991 183.239 181.14C183.239 180.282 183.528 179.567 184.108 178.995C184.687 178.423 185.417 178.137 186.297 178.137C186.964 178.137 187.558 178.317 188.079 178.676C188.599 179.028 188.97 179.505 189.19 180.106ZM194.294 179.699L192.787 179.941C192.684 179.618 192.398 179.457 191.929 179.457C191.496 179.457 191.28 179.582 191.28 179.831C191.28 179.978 191.43 180.106 191.731 180.216L192.754 180.546C193.326 180.729 193.74 180.96 193.997 181.239C194.254 181.51 194.382 181.866 194.382 182.306C194.382 182.893 194.169 183.347 193.744 183.67C193.326 183.985 192.754 184.143 192.028 184.143C191.309 184.143 190.737 183.996 190.312 183.703C189.894 183.402 189.645 182.977 189.564 182.427L191.082 182.218C191.192 182.599 191.518 182.79 192.061 182.79C192.288 182.79 192.468 182.753 192.6 182.68C192.739 182.607 192.809 182.504 192.809 182.372C192.809 182.189 192.618 182.042 192.237 181.932L191.192 181.624C190.664 181.477 190.279 181.272 190.037 181.008C189.802 180.744 189.685 180.399 189.685 179.974C189.685 179.358 189.89 178.9 190.301 178.599C190.712 178.291 191.28 178.137 192.006 178.137C192.666 178.137 193.194 178.276 193.59 178.555C193.986 178.826 194.221 179.208 194.294 179.699ZM133.225 189.398L133.39 189.2H134.446L134.259 189.431C134.186 189.519 134.054 189.746 133.863 190.113C133.474 190.824 133.174 191.69 132.961 192.709C132.726 193.934 132.723 195.166 132.95 196.405C133.082 197.043 133.221 197.545 133.368 197.912C133.698 198.741 134.002 199.335 134.281 199.694L134.446 199.925H133.39L133.379 199.914C132.792 199.239 132.352 198.326 132.059 197.175C131.846 196.346 131.74 195.474 131.74 194.557C131.74 193.208 131.934 192.049 132.323 191.081C132.646 190.274 132.946 189.713 133.225 189.398ZM140.801 193.941L139.646 194.282C139.499 193.974 139.283 193.732 138.997 193.556C138.711 193.373 138.385 193.281 138.018 193.281C137.505 193.281 137.072 193.461 136.72 193.82C136.375 194.179 136.203 194.619 136.203 195.14C136.203 195.661 136.375 196.104 136.72 196.471C137.072 196.823 137.505 196.999 138.018 196.999C138.385 196.999 138.711 196.911 138.997 196.735C139.283 196.552 139.499 196.306 139.646 195.998L140.801 196.339C140.574 196.889 140.211 197.329 139.712 197.659C139.221 197.982 138.656 198.143 138.018 198.143C137.16 198.143 136.445 197.857 135.873 197.285C135.301 196.713 135.015 195.998 135.015 195.14C135.015 194.282 135.301 193.567 135.873 192.995C136.445 192.423 137.16 192.137 138.018 192.137C138.656 192.137 139.221 192.302 139.712 192.632C140.211 192.955 140.574 193.391 140.801 193.941ZM146.848 198H145.44L142.954 195.041L145.209 192.28H146.606L144.362 195.041L146.848 198ZM142.943 192.28V198H141.799V192.28H142.943ZM150.124 198.143C149.266 198.143 148.551 197.857 147.979 197.285C147.407 196.713 147.121 195.998 147.121 195.14C147.121 194.282 147.407 193.567 147.979 192.995C148.551 192.423 149.266 192.137 150.124 192.137C150.982 192.137 151.697 192.423 152.269 192.995C152.849 193.567 153.138 194.282 153.138 195.14C153.138 195.998 152.849 196.713 152.269 197.285C151.697 197.857 150.982 198.143 150.124 198.143ZM150.124 196.999C150.652 196.999 151.085 196.823 151.422 196.471C151.774 196.112 151.95 195.668 151.95 195.14C151.95 194.612 151.774 194.172 151.422 193.82C151.085 193.461 150.652 193.281 150.124 193.281C149.611 193.281 149.178 193.461 148.826 193.82C148.482 194.179 148.309 194.619 148.309 195.14C148.309 195.661 148.482 196.104 148.826 196.471C149.178 196.823 149.611 196.999 150.124 196.999ZM155.393 200.475H154.249V192.28H155.393V192.896C155.921 192.39 156.556 192.137 157.296 192.137C158.096 192.137 158.767 192.423 159.309 192.995C159.845 193.56 160.112 194.275 160.112 195.14C160.112 196.005 159.845 196.72 159.309 197.285C158.767 197.857 158.096 198.143 157.296 198.143C156.556 198.143 155.921 197.89 155.393 197.384V200.475ZM157.164 193.281C156.673 193.281 156.259 193.461 155.921 193.82C155.584 194.165 155.415 194.605 155.415 195.14C155.415 195.668 155.584 196.112 155.921 196.471C156.259 196.823 156.673 196.999 157.164 196.999C157.656 196.999 158.074 196.823 158.418 196.471C158.756 196.112 158.924 195.668 158.924 195.14C158.924 194.605 158.756 194.165 158.418 193.82C158.081 193.461 157.663 193.281 157.164 193.281ZM163.971 198.143C163.113 198.143 162.398 197.857 161.826 197.285C161.254 196.713 160.968 195.998 160.968 195.14C160.968 194.282 161.254 193.567 161.826 192.995C162.398 192.423 163.113 192.137 163.971 192.137C164.829 192.137 165.544 192.423 166.116 192.995C166.695 193.567 166.985 194.282 166.985 195.14C166.985 195.998 166.695 196.713 166.116 197.285C165.544 197.857 164.829 198.143 163.971 198.143ZM163.971 196.999C164.499 196.999 164.932 196.823 165.269 196.471C165.621 196.112 165.797 195.668 165.797 195.14C165.797 194.612 165.621 194.172 165.269 193.82C164.932 193.461 164.499 193.281 163.971 193.281C163.458 193.281 163.025 193.461 162.673 193.82C162.328 194.179 162.156 194.619 162.156 195.14C162.156 195.661 162.328 196.104 162.673 196.471C163.025 196.823 163.458 196.999 163.971 196.999ZM167.722 189.42L167.557 189.2H168.624L168.8 189.409C168.873 189.497 169.005 189.706 169.196 190.036C169.409 190.41 169.577 190.766 169.702 191.103C169.849 191.484 169.981 191.983 170.098 192.599C170.215 193.208 170.274 193.86 170.274 194.557C170.274 195.811 170.098 196.922 169.746 197.89C169.607 198.279 169.449 198.631 169.273 198.946C169.082 199.283 168.947 199.507 168.866 199.617C168.793 199.742 168.716 199.841 168.635 199.914L168.624 199.925H167.557L167.733 199.683C167.828 199.566 167.964 199.338 168.14 199.001C168.316 198.678 168.481 198.312 168.635 197.901C168.774 197.512 168.906 197.017 169.031 196.416C169.28 195.206 169.284 193.974 169.042 192.72C168.932 192.111 168.796 191.609 168.635 191.213C168.327 190.421 168.023 189.823 167.722 189.42Z" fill="white"/>
<path d="M281.5 30.8782L282.926 36.0429L283.028 36.4098H283.408H288.229L284.263 39.8003L284.021 40.0069L284.106 40.3134L285.579 45.6488L281.825 42.4396L281.5 42.1619L281.175 42.4396L277.421 45.6488L278.894 40.3134L278.979 40.0069L278.737 39.8003L274.771 36.4098H279.592H279.972L280.074 36.0429L281.5 30.8782Z" stroke="black"/>
<g clip-path="url(#clip0_112_329)">
<g filter="url(#filter0_i_112_329)">
<path d="M273.054 149H100.295C89.004 149 79.8506 157.71 79.8506 168.454V469.02C79.8506 479.764 89.004 488.474 100.295 488.474H273.054C284.345 488.474 293.499 479.764 293.499 469.02V168.454C293.499 157.71 284.345 149 273.054 149Z" fill="url(#paint0_linear_112_329)"/>
<path d="M273.054 151.432H100.295C90.4155 151.432 82.4062 159.053 82.4062 168.454V469.02C82.4062 478.421 90.4155 486.042 100.295 486.042H273.054C282.934 486.042 290.943 478.421 290.943 469.02V168.454C290.943 159.053 282.934 151.432 273.054 151.432Z" stroke="white" stroke-width="5"/>
</g>
<path d="M103.138 168.893H102.094V162.299L100 163.032V162.134L102.975 161.069H103.138V168.893ZM106.657 164.989L107.073 161.107H111.26V162.021H107.954L107.707 164.144C108.107 163.92 108.562 163.807 109.071 163.807C109.816 163.807 110.407 164.043 110.845 164.513C111.283 164.98 111.502 165.613 111.502 166.412C111.502 167.214 111.273 167.847 110.817 168.31C110.364 168.77 109.73 169 108.914 169C108.192 169 107.602 168.809 107.146 168.428C106.689 168.046 106.429 167.519 106.365 166.845H107.348C107.411 167.291 107.578 167.627 107.847 167.856C108.117 168.08 108.472 168.193 108.914 168.193C109.397 168.193 109.775 168.036 110.048 167.722C110.325 167.408 110.463 166.975 110.463 166.423C110.463 165.902 110.314 165.485 110.014 165.171C109.718 164.854 109.324 164.695 108.83 164.695C108.377 164.695 108.021 164.79 107.763 164.979L107.488 165.193L106.657 164.989ZM112.708 168.374C112.708 168.203 112.761 168.061 112.866 167.947C112.974 167.832 113.135 167.775 113.348 167.775C113.562 167.775 113.723 167.832 113.831 167.947C113.943 168.061 114 168.203 114 168.374C114 168.538 113.943 168.676 113.831 168.786C113.723 168.897 113.562 168.952 113.348 168.952C113.135 168.952 112.974 168.897 112.866 168.786C112.761 168.676 112.708 168.538 112.708 168.374ZM112.714 163.652C112.714 163.481 112.766 163.339 112.871 163.225C112.98 163.111 113.141 163.053 113.354 163.053C113.567 163.053 113.728 163.111 113.837 163.225C113.949 163.339 114.005 163.481 114.005 163.652C114.005 163.816 113.949 163.954 113.837 164.064C113.728 164.175 113.567 164.23 113.354 164.23C113.141 164.23 112.98 164.175 112.871 164.064C112.766 163.954 112.714 163.816 112.714 163.652ZM120.545 165.572C120.545 166.731 120.337 167.592 119.922 168.155C119.506 168.718 118.857 169 117.974 169C117.102 169 116.456 168.726 116.037 168.177C115.618 167.624 115.401 166.8 115.386 165.706V164.385C115.386 163.241 115.594 162.39 116.009 161.834C116.425 161.278 117.076 161 117.963 161C118.842 161 119.489 161.269 119.905 161.807C120.32 162.342 120.533 163.169 120.545 164.289V165.572ZM119.506 164.219C119.506 163.381 119.383 162.772 119.136 162.39C118.889 162.005 118.498 161.813 117.963 161.813C117.431 161.813 117.044 162.003 116.801 162.385C116.557 162.766 116.432 163.353 116.425 164.144V165.727C116.425 166.569 116.552 167.191 116.806 167.594C117.064 167.993 117.454 168.193 117.974 168.193C118.487 168.193 118.866 168.004 119.113 167.626C119.364 167.248 119.495 166.652 119.506 165.84V164.219ZM127 165.572C127 166.731 126.792 167.592 126.377 168.155C125.962 168.718 125.312 169 124.429 169C123.557 169 122.912 168.726 122.493 168.177C122.073 167.624 121.856 166.8 121.841 165.706V164.385C121.841 163.241 122.049 162.39 122.464 161.834C122.88 161.278 123.531 161 124.418 161C125.297 161 125.945 161.269 126.36 161.807C126.776 162.342 126.989 163.169 127 164.289V165.572ZM125.962 164.219C125.962 163.381 125.838 162.772 125.591 162.39C125.344 162.005 124.953 161.813 124.418 161.813C123.887 161.813 123.499 162.003 123.256 162.385C123.013 162.766 122.887 163.353 122.88 164.144V165.727C122.88 166.569 123.007 167.191 123.262 167.594C123.52 167.993 123.909 168.193 124.429 168.193C124.942 168.193 125.322 168.004 125.569 167.626C125.819 167.248 125.95 166.652 125.962 165.84V164.219Z" fill="black" fill-opacity="0.8"/>
<g filter="url(#filter1_i_112_329)">
<path d="M303.722 215.144H250.565C244.919 215.144 240.343 219.499 240.343 224.871V242.38C240.343 247.752 244.919 252.107 250.565 252.107H303.722C309.367 252.107 313.944 247.752 313.944 242.38V224.871C313.944 219.499 309.367 215.144 303.722 215.144Z" fill="#F35888"/>
</g>
<path d="M258 229.655H262.415C263.375 229.655 264.183 229.952 264.838 230.547C265.494 231.132 265.821 231.861 265.821 232.735C265.821 233.312 265.669 233.841 265.363 234.321C265.058 234.793 264.646 235.16 264.125 235.422L266.158 238.83H263.788L261.971 235.815H260.14V238.83H258V229.655ZM262.415 231.569H260.14V233.902H262.415C262.756 233.902 263.039 233.793 263.263 233.574C263.488 233.347 263.6 233.067 263.6 232.735C263.6 232.403 263.488 232.128 263.263 231.91C263.039 231.682 262.756 231.569 262.415 231.569ZM273.744 236.13H268.534C268.65 236.488 268.861 236.776 269.167 236.995C269.471 237.213 269.831 237.322 270.244 237.322C270.817 237.322 271.28 237.121 271.63 236.72L273.582 237.152C273.259 237.729 272.801 238.183 272.209 238.515C271.625 238.838 270.966 239 270.23 239C269.135 239 268.225 238.659 267.498 237.978C266.771 237.296 266.407 236.444 266.407 235.422C266.407 234.409 266.761 233.561 267.471 232.879C268.179 232.189 269.063 231.844 270.123 231.844C271.173 231.844 272.052 232.189 272.761 232.879C273.469 233.561 273.825 234.409 273.825 235.422C273.825 235.667 273.798 235.903 273.744 236.13ZM268.548 234.675H271.765C271.639 234.325 271.428 234.046 271.132 233.836C270.836 233.626 270.5 233.522 270.123 233.522C269.763 233.522 269.44 233.626 269.153 233.836C268.866 234.046 268.664 234.325 268.548 234.675ZM276.661 238.83H274.642V229H276.661V238.83ZM277.581 235.422C277.581 234.391 277.895 233.539 278.524 232.866C279.151 232.185 279.941 231.844 280.893 231.844C281.61 231.844 282.257 232.054 282.831 232.473V232.014H284.837V238.83H282.831V238.358C282.274 238.786 281.628 239 280.893 239C279.941 239 279.151 238.659 278.524 237.978C277.895 237.287 277.581 236.436 277.581 235.422ZM281.243 233.784C280.803 233.784 280.43 233.941 280.126 234.256C279.829 234.57 279.681 234.955 279.681 235.409C279.681 235.881 279.829 236.274 280.126 236.588C280.43 236.903 280.803 237.06 281.243 237.06C281.674 237.06 282.041 236.903 282.347 236.588C282.651 236.274 282.804 235.881 282.804 235.409C282.804 234.946 282.651 234.561 282.347 234.256C282.041 233.941 281.674 233.784 281.243 233.784ZM290.644 238.83L289.244 236.851L287.858 238.83H285.488L288.046 235.317L285.637 232.014H287.992L289.244 233.784L290.496 232.014H292.852L290.456 235.317L293 238.83H290.644Z" fill="white"/>
<path d="M234.039 210.238C233.829 209.507 234.503 208.831 235.233 209.038L242.295 211.041C243.006 211.243 243.238 212.134 242.717 212.657L237.682 217.714C237.161 218.238 236.269 218.008 236.066 217.298L234.039 210.238Z" fill="#F35888"/>
<g filter="url(#filter2_i_112_329)">
<path d="M122.785 230.707H44.073C38.4273 230.707 33.8506 235.062 33.8506 240.434V258.915C33.8506 264.288 38.4273 268.642 44.073 268.642H122.785C128.431 268.642 133.008 264.288 133.008 258.915V240.434C133.008 235.062 128.431 230.707 122.785 230.707Z" fill="#F6BD11"/>
</g>
<path d="M43 239.546H48.9214V241.14H44.8002V242.56H48.2647V244.154H44.8002V247.19H43V239.546ZM49.0756 244.351C49.0756 243.492 49.3398 242.782 49.8681 242.222C50.3964 241.654 51.0607 241.37 51.8608 241.37C52.4647 241.37 53.0081 241.544 53.4912 241.894V241.512H55.1781V247.19H53.4912V246.797C53.0231 247.154 52.4797 247.332 51.8608 247.332C51.0607 247.332 50.3964 247.048 49.8681 246.48C49.3398 245.905 49.0756 245.196 49.0756 244.351ZM52.1552 242.986C51.7853 242.986 51.472 243.117 51.2154 243.379C50.9664 243.641 50.8418 243.962 50.8418 244.34C50.8418 244.733 50.9664 245.061 51.2154 245.323C51.472 245.585 51.7853 245.716 52.1552 245.716C52.5175 245.716 52.827 245.585 53.0836 245.323C53.3402 245.061 53.4685 244.733 53.4685 244.34C53.4685 243.954 53.3402 243.634 53.0836 243.379C52.827 243.117 52.5175 242.986 52.1552 242.986ZM62.078 243.324L60.3683 243.805C60.2627 243.557 60.0966 243.361 59.8702 243.215C59.6437 243.062 59.3871 242.986 59.1003 242.986C58.7078 242.986 58.3795 243.117 58.1153 243.379C57.8511 243.634 57.719 243.954 57.719 244.34C57.719 244.733 57.8511 245.061 58.1153 245.323C58.3795 245.585 58.7078 245.716 59.1003 245.716C59.3871 245.716 59.6437 245.643 59.8702 245.498C60.0966 245.345 60.2627 245.144 60.3683 244.897L62.078 245.378C61.8515 245.974 61.4704 246.452 60.9344 246.808C60.3986 247.158 59.7872 247.332 59.1003 247.332C58.1945 247.332 57.4436 247.048 56.8472 246.48C56.2509 245.905 55.9528 245.196 55.9528 244.351C55.9528 243.499 56.2509 242.789 56.8472 242.222C57.4436 241.654 58.1945 241.37 59.1003 241.37C59.7872 241.37 60.3986 241.548 60.9344 241.905C61.4704 242.254 61.8515 242.728 62.078 243.324ZM68.713 244.941H64.3314C64.4295 245.239 64.6069 245.479 64.8636 245.661C65.1202 245.843 65.4221 245.934 65.7693 245.934C66.2524 245.934 66.6411 245.767 66.9355 245.432L68.5772 245.792C68.3055 246.273 67.9205 246.651 67.4223 246.928C66.9317 247.197 66.3769 247.332 65.758 247.332C64.8371 247.332 64.071 247.048 63.4596 246.48C62.8483 245.913 62.5426 245.203 62.5426 244.351C62.5426 243.506 62.8406 242.8 63.437 242.232C64.0333 241.657 64.7767 241.37 65.6674 241.37C66.5505 241.37 67.2902 241.657 67.8865 242.232C68.4828 242.8 68.781 243.506 68.781 244.351C68.781 244.555 68.7583 244.751 68.713 244.941ZM64.3428 243.729H67.0487C66.943 243.437 66.7657 243.204 66.5166 243.03C66.2675 242.855 65.9844 242.768 65.6674 242.768C65.3654 242.768 65.0937 242.855 64.8523 243.03C64.6107 243.204 64.4409 243.437 64.3428 243.729ZM69.4682 247.19V239H71.1665V241.894C71.6345 241.544 72.1742 241.37 72.7856 241.37C73.5781 241.37 74.2423 241.654 74.7782 242.222C75.3142 242.797 75.5821 243.506 75.5821 244.351C75.5821 245.188 75.3142 245.898 74.7782 246.48C74.2423 247.048 73.5781 247.332 72.7856 247.332C72.1893 247.332 71.6496 247.158 71.1665 246.808V247.19H69.4682ZM72.5025 242.986C72.1327 242.986 71.8194 243.117 71.5628 243.379C71.3137 243.641 71.1892 243.962 71.1892 244.34C71.1892 244.733 71.3137 245.061 71.5628 245.323C71.8194 245.585 72.1327 245.716 72.5025 245.716C72.8648 245.716 73.1705 245.585 73.4196 245.323C73.6762 245.061 73.8045 244.733 73.8045 244.34C73.8045 243.954 73.6762 243.634 73.4196 243.379C73.1705 243.117 72.8648 242.986 72.5025 242.986ZM77.0587 246.48C76.4624 245.905 76.1643 245.196 76.1643 244.351C76.1643 243.506 76.4624 242.8 77.0587 242.232C77.6551 241.657 78.406 241.37 79.3118 241.37C80.21 241.37 80.9573 241.657 81.5535 242.232C82.1574 242.8 82.4593 243.506 82.4593 244.351C82.4593 245.188 82.1574 245.898 81.5535 246.48C80.9497 247.048 80.2025 247.332 79.3118 247.332C78.406 247.332 77.6551 247.048 77.0587 246.48ZM79.3118 245.716C79.7043 245.716 80.0289 245.585 80.2855 245.323C80.5572 245.054 80.693 244.73 80.693 244.351C80.693 243.972 80.5572 243.652 80.2855 243.39C80.0289 243.121 79.7043 242.986 79.3118 242.986C78.9193 242.986 78.591 243.117 78.3267 243.379C78.0626 243.648 77.9305 243.972 77.9305 244.351C77.9305 244.73 78.0626 245.054 78.3267 245.323C78.591 245.585 78.9193 245.716 79.3118 245.716ZM83.936 246.48C83.3397 245.905 83.0415 245.196 83.0415 244.351C83.0415 243.506 83.3397 242.8 83.936 242.232C84.5322 241.657 85.2833 241.37 86.189 241.37C87.0873 241.37 87.8345 241.657 88.4308 242.232C89.0347 242.8 89.3366 243.506 89.3366 244.351C89.3366 245.188 89.0347 245.898 88.4308 246.48C87.8269 247.048 87.0797 247.332 86.189 247.332C85.2833 247.332 84.5322 247.048 83.936 246.48ZM86.189 245.716C86.5815 245.716 86.9061 245.585 87.1627 245.323C87.4345 245.054 87.5703 244.73 87.5703 244.351C87.5703 243.972 87.4345 243.652 87.1627 243.39C86.9061 243.121 86.5815 242.986 86.189 242.986C85.7966 242.986 85.4682 243.117 85.204 243.379C84.9398 243.648 84.8078 243.972 84.8078 244.351C84.8078 244.73 84.9398 245.054 85.204 245.323C85.4682 245.585 85.7966 245.716 86.189 245.716ZM90.0999 247.19V239H91.7982V243.739L93.4625 241.512H95.4665L93.4285 244.253L95.6816 247.19H93.6436L91.7982 244.755V247.19H90.0999ZM100.699 249.647H99.0005V241.512H100.699V241.894C101.167 241.544 101.706 241.37 102.318 241.37C103.11 241.37 103.775 241.654 104.31 242.222C104.846 242.797 105.114 243.506 105.114 244.351C105.114 245.188 104.846 245.898 104.31 246.48C103.775 247.048 103.11 247.332 102.318 247.332C101.722 247.332 101.182 247.158 100.699 246.808V249.647ZM102.035 242.986C101.665 242.986 101.352 243.117 101.095 243.379C100.846 243.641 100.721 243.969 100.721 244.362C100.721 244.74 100.846 245.061 101.095 245.323C101.352 245.585 101.665 245.716 102.035 245.716C102.397 245.716 102.703 245.585 102.952 245.323C103.208 245.068 103.337 244.748 103.337 244.362C103.337 243.969 103.208 243.641 102.952 243.379C102.703 243.117 102.397 242.986 102.035 242.986ZM107.576 247.19H105.878V241.512H107.576V247.19ZM105.968 240.824C105.772 240.634 105.674 240.394 105.674 240.103C105.674 239.812 105.772 239.572 105.968 239.382C106.18 239.193 106.432 239.098 106.727 239.098C107.029 239.098 107.278 239.193 107.474 239.382C107.678 239.564 107.78 239.804 107.78 240.103C107.78 240.401 107.678 240.642 107.474 240.824C107.278 241.013 107.029 241.108 106.727 241.108C106.432 241.108 106.18 241.013 105.968 240.824ZM112.46 247.19L111.283 245.541L110.116 247.19H108.124L110.275 244.264L108.248 241.512H110.23L111.283 242.986L112.336 241.512H114.317L112.302 244.264L114.441 247.19H112.46ZM120.546 244.941H116.165C116.263 245.239 116.44 245.479 116.697 245.661C116.954 245.843 117.256 245.934 117.603 245.934C118.086 245.934 118.475 245.767 118.769 245.432L120.411 245.792C120.139 246.273 119.754 246.651 119.256 246.928C118.765 247.197 118.21 247.332 117.591 247.332C116.671 247.332 115.904 247.048 115.293 246.48C114.682 245.913 114.376 245.203 114.376 244.351C114.376 243.506 114.674 242.8 115.27 242.232C115.867 241.657 116.61 241.37 117.501 241.37C118.384 241.37 119.124 241.657 119.72 242.232C120.316 242.8 120.614 243.506 120.614 244.351C120.614 244.555 120.592 244.751 120.546 244.941ZM116.176 243.729H118.882C118.776 243.437 118.599 243.204 118.35 243.03C118.101 242.855 117.818 242.768 117.501 242.768C117.199 242.768 116.927 242.855 116.686 243.03C116.444 243.204 116.274 243.437 116.176 243.729ZM123 247.19H121.302V239H123V247.19ZM67.6308 252.549L67.8006 252.353H68.8875L68.695 252.582C68.6195 252.669 68.4836 252.895 68.2874 253.259C67.8874 253.965 67.5779 254.825 67.359 255.836C67.1175 257.052 67.1137 258.275 67.3477 259.505C67.4836 260.139 67.627 260.637 67.778 261.002C68.1176 261.825 68.4308 262.414 68.7177 262.771L68.8875 263H67.8006L67.7893 262.989C67.1854 262.319 66.7325 261.413 66.4306 260.27C66.2117 259.447 66.1023 258.581 66.1023 257.671C66.1023 256.332 66.3023 255.181 66.7024 254.22C67.0344 253.419 67.3439 252.862 67.6308 252.549ZM75.2019 255.006L73.9451 255.367C73.8772 255.119 73.7036 254.912 73.4243 254.744C73.1451 254.569 72.8205 254.482 72.4506 254.482C72.043 254.482 71.7034 254.576 71.4317 254.766C71.1599 254.948 71.0241 255.181 71.0241 255.465C70.9788 255.712 71.1713 255.96 71.6015 256.208C71.6769 256.251 71.8241 256.31 72.043 256.382C72.3223 256.47 72.4846 256.52 72.5299 256.535L73.13 256.699C73.7262 256.852 74.232 257.048 74.6471 257.289C75.2057 257.616 75.4849 258.144 75.4849 258.872C75.4849 259.578 75.2132 260.15 74.6697 260.587C74.1188 261.016 73.4205 261.231 72.5752 261.231C71.8053 261.231 71.1448 261.06 70.5938 260.718C70.0504 260.368 69.6994 259.931 69.5409 259.407L70.7976 259.025C70.8656 259.316 71.0618 259.56 71.3864 259.757C71.7185 259.953 72.1148 260.051 72.5752 260.051C73.0432 260.051 73.4318 259.953 73.7413 259.757C74.0509 259.553 74.2055 259.291 74.2055 258.97C74.2055 258.759 74.1188 258.577 73.9451 258.424C73.7941 258.278 73.6394 258.173 73.4809 258.108C73.3224 258.035 73.0847 257.959 72.7677 257.878C71.8091 257.609 71.1751 257.398 70.8656 257.245C70.1258 256.859 69.756 256.295 69.756 255.552C69.756 254.882 70.0051 254.34 70.5033 253.925C71.0014 253.51 71.643 253.303 72.428 253.303C73.1224 253.303 73.7225 253.467 74.2282 253.794C74.7264 254.107 75.0509 254.511 75.2019 255.006ZM79.441 261.231C78.5579 261.231 77.822 260.947 77.2332 260.379C76.6445 259.811 76.3501 259.101 76.3501 258.25C76.3501 257.398 76.6445 256.688 77.2332 256.12C77.822 255.552 78.5579 255.268 79.441 255.268C80.3242 255.268 81.0601 255.552 81.6488 256.12C82.2452 256.688 82.5433 257.398 82.5433 258.25C82.5433 259.101 82.2452 259.811 81.6488 260.379C81.0601 260.947 80.3242 261.231 79.441 261.231ZM79.441 260.095C79.9845 260.095 80.4299 259.92 80.777 259.571C81.1393 259.215 81.3205 258.774 81.3205 258.25C81.3205 257.725 81.1393 257.289 80.777 256.939C80.4299 256.583 79.9845 256.404 79.441 256.404C78.9127 256.404 78.4673 256.583 78.105 256.939C77.7504 257.296 77.5729 257.732 77.5729 258.25C77.5729 258.767 77.7504 259.207 78.105 259.571C78.4673 259.92 78.9127 260.095 79.441 260.095ZM86.5173 261.231C85.6342 261.231 84.8982 260.947 84.3095 260.379C83.7207 259.811 83.4264 259.101 83.4264 258.25C83.4264 257.398 83.7207 256.688 84.3095 256.12C84.8982 255.552 85.6342 255.268 86.5173 255.268C87.4004 255.268 88.1363 255.552 88.7251 256.12C89.3214 256.688 89.6195 257.398 89.6195 258.25C89.6195 259.101 89.3214 259.811 88.7251 260.379C88.1363 260.947 87.4004 261.231 86.5173 261.231ZM86.5173 260.095C87.0607 260.095 87.5061 259.92 87.8533 259.571C88.2156 259.215 88.3967 258.774 88.3967 258.25C88.3967 257.725 88.2156 257.289 87.8533 256.939C87.5061 256.583 87.0607 256.404 86.5173 256.404C85.989 256.404 85.5436 256.583 85.1813 256.939C84.8266 257.296 84.6492 257.732 84.6492 258.25C84.6492 258.767 84.8266 259.207 85.1813 259.571C85.5436 259.92 85.989 260.095 86.5173 260.095ZM90.763 261.089V255.41H91.9405V256.24C92.3707 255.592 93.0161 255.268 93.8766 255.268C94.5559 255.268 95.1145 255.48 95.5522 255.902C95.9976 256.332 96.2202 256.863 96.2202 257.496V261.089H95.0427V257.824C95.0427 257.402 94.8994 257.052 94.6125 256.775C94.3257 256.491 93.9634 256.349 93.5256 256.349C93.0727 256.349 92.6954 256.491 92.3934 256.775C92.0915 257.059 91.9405 257.413 91.9405 257.835V261.089H90.763ZM97.2332 252.571L97.0634 252.353H98.1616L98.3428 252.56C98.4182 252.647 98.5541 252.855 98.7504 253.183C98.9693 253.554 99.1428 253.907 99.2712 254.242C99.4222 254.62 99.558 255.115 99.6788 255.727C99.7995 256.332 99.8599 256.979 99.8599 257.671C99.8599 258.916 99.6788 260.019 99.3165 260.98C99.1731 261.366 99.0108 261.715 98.8296 262.028C98.6333 262.363 98.4938 262.585 98.4107 262.694C98.3353 262.818 98.256 262.917 98.1729 262.989L98.1616 263H97.0634L97.2445 262.76C97.3426 262.644 97.4823 262.417 97.6635 262.083C97.8446 261.762 98.0144 261.399 98.1729 260.991C98.3163 260.604 98.4522 260.113 98.5805 259.516C98.8371 258.315 98.8409 257.092 98.5919 255.847C98.4786 255.243 98.339 254.744 98.1729 254.351C97.8559 253.565 97.5427 252.971 97.2332 252.571Z" fill="white"/>
<path d="M138.716 227.02C139.532 226.877 140.218 227.529 139.935 228.175L137.194 234.422C136.919 235.05 135.927 235.203 135.395 234.699L130.261 229.828C129.73 229.324 130.051 228.534 130.843 228.395L138.716 227.02Z" fill="#F6BD11"/>
<g filter="url(#filter3_i_112_329)">
<path d="M223.987 274.479H150.385C144.74 274.479 140.163 278.834 140.163 284.206V304.633C140.163 310.005 144.74 314.36 150.385 314.36H223.987C229.632 314.36 234.209 310.005 234.209 304.633V284.206C234.209 278.834 229.632 274.479 223.987 274.479Z" fill="#2D6EFD"/>
</g>
<path d="M172.283 290.967H168V282.598H172.042C172.758 282.598 173.357 282.813 173.84 283.243C174.322 283.658 174.564 284.188 174.564 284.833C174.564 285.535 174.266 286.109 173.671 286.555C174.065 286.762 174.374 287.049 174.6 287.416C174.825 287.775 174.938 288.169 174.938 288.6C174.938 289.277 174.684 289.843 174.177 290.297C173.663 290.744 173.031 290.967 172.283 290.967ZM172.283 287.261H169.351V289.723H172.283C172.637 289.723 172.935 289.608 173.176 289.377C173.417 289.138 173.538 288.843 173.538 288.492C173.538 288.141 173.417 287.85 173.176 287.619C172.935 287.38 172.637 287.261 172.283 287.261ZM172.042 283.841H169.351V286.017H172.042C172.364 286.017 172.629 285.914 172.838 285.706C173.047 285.499 173.152 285.24 173.152 284.929C173.152 284.618 173.047 284.359 172.838 284.152C172.629 283.945 172.364 283.841 172.042 283.841ZM177.466 290.967H176.211V284.75H177.466V290.967ZM176.248 283.829C176.095 283.67 176.018 283.475 176.018 283.243C176.018 283.012 176.095 282.817 176.248 282.658C176.408 282.498 176.606 282.418 176.839 282.418C177.072 282.418 177.269 282.498 177.43 282.658C177.591 282.817 177.671 283.012 177.671 283.243C177.671 283.475 177.591 283.67 177.43 283.829C177.269 283.989 177.072 284.068 176.839 284.068C176.606 284.068 176.408 283.989 176.248 283.829ZM178.956 290.967V284.75H180.211V285.658C180.67 284.949 181.357 284.594 182.274 284.594C182.998 284.594 183.593 284.826 184.06 285.288C184.534 285.758 184.772 286.34 184.772 287.033V290.967H183.517V287.392C183.517 286.93 183.364 286.547 183.058 286.244C182.753 285.933 182.367 285.778 181.9 285.778C181.418 285.778 181.015 285.933 180.694 286.244C180.372 286.555 180.211 286.942 180.211 287.404V290.967H178.956ZM189.278 291.122C188.337 291.122 187.553 290.811 186.925 290.19C186.298 289.568 185.984 288.791 185.984 287.858C185.984 286.926 186.298 286.149 186.925 285.527C187.553 284.905 188.337 284.594 189.278 284.594C190.219 284.594 191.003 284.905 191.631 285.527C192.266 286.149 192.584 286.926 192.584 287.858C192.584 288.791 192.266 289.568 191.631 290.19C191.003 290.811 190.219 291.122 189.278 291.122ZM189.278 289.879C189.857 289.879 190.332 289.688 190.702 289.305C191.088 288.914 191.281 288.432 191.281 287.858C191.281 287.284 191.088 286.806 190.702 286.424C190.332 286.033 189.857 285.838 189.278 285.838C188.715 285.838 188.24 286.033 187.854 286.424C187.476 286.814 187.287 287.292 187.287 287.858C187.287 288.424 187.476 288.906 187.854 289.305C188.24 289.688 188.715 289.879 189.278 289.879ZM193.151 286.304V284.75H194.008V283.542H195.817V284.75H197.241V286.304H195.817V288.635C195.817 288.827 195.882 288.986 196.011 289.114C196.139 289.233 196.304 289.293 196.505 289.293H197.241V290.967H196.204C195.584 290.967 195.061 290.779 194.635 290.405C194.217 290.022 194.008 289.548 194.008 288.982V286.304H193.151ZM204.386 288.504H199.717C199.821 288.831 200.01 289.094 200.284 289.293C200.557 289.492 200.879 289.592 201.249 289.592C201.764 289.592 202.178 289.409 202.492 289.042L204.241 289.436C203.952 289.963 203.541 290.377 203.01 290.68C202.488 290.975 201.896 291.122 201.237 291.122C200.256 291.122 199.439 290.811 198.788 290.19C198.136 289.568 197.81 288.791 197.81 287.858C197.81 286.934 198.128 286.161 198.763 285.539C199.399 284.909 200.191 284.594 201.14 284.594C202.081 284.594 202.87 284.909 203.505 285.539C204.141 286.161 204.458 286.934 204.458 287.858C204.458 288.081 204.434 288.297 204.386 288.504ZM199.729 287.177H202.612C202.5 286.858 202.311 286.603 202.045 286.412C201.78 286.22 201.478 286.125 201.14 286.125C200.819 286.125 200.529 286.22 200.272 286.412C200.014 286.603 199.833 286.858 199.729 287.177ZM207 290.967H205.19V282H207V290.967ZM170.995 297.558L171.176 297.343H172.334L172.129 297.594C172.049 297.69 171.904 297.937 171.695 298.335C171.269 299.109 170.939 300.049 170.706 301.157C170.448 302.488 170.444 303.827 170.694 305.174C170.838 305.868 170.991 306.414 171.152 306.812C171.514 307.713 171.848 308.358 172.153 308.749L172.334 309H171.176L171.164 308.988C170.521 308.255 170.038 307.262 169.716 306.011C169.483 305.11 169.366 304.162 169.366 303.166C169.366 301.699 169.58 300.44 170.006 299.388C170.36 298.511 170.69 297.901 170.995 297.558ZM179.064 300.248L177.725 300.643C177.652 300.372 177.467 300.145 177.17 299.961C176.872 299.77 176.526 299.675 176.132 299.675C175.698 299.675 175.336 299.778 175.046 299.985C174.757 300.185 174.612 300.44 174.612 300.751C174.564 301.022 174.769 301.293 175.227 301.564C175.308 301.611 175.464 301.675 175.698 301.755C175.995 301.85 176.168 301.906 176.216 301.922L176.856 302.102C177.491 302.269 178.03 302.484 178.473 302.747C179.068 303.106 179.365 303.684 179.365 304.481C179.365 305.254 179.076 305.88 178.497 306.358C177.91 306.828 177.166 307.063 176.265 307.063C175.444 307.063 174.74 306.876 174.153 306.501C173.574 306.119 173.2 305.64 173.031 305.067L174.37 304.648C174.443 304.967 174.652 305.234 174.998 305.449C175.352 305.664 175.774 305.772 176.265 305.772C176.763 305.772 177.178 305.664 177.507 305.449C177.837 305.226 178.002 304.939 178.002 304.588C178.002 304.357 177.91 304.158 177.725 303.991C177.564 303.831 177.399 303.716 177.23 303.644C177.061 303.564 176.808 303.48 176.47 303.393C175.448 303.098 174.773 302.867 174.443 302.699C173.655 302.277 173.26 301.659 173.26 300.846C173.26 300.113 173.526 299.519 174.057 299.065C174.588 298.61 175.271 298.383 176.108 298.383C176.848 298.383 177.487 298.563 178.026 298.921C178.557 299.264 178.903 299.706 179.064 300.248ZM183.581 307.063C182.64 307.063 181.856 306.752 181.229 306.131C180.601 305.509 180.287 304.732 180.287 303.799C180.287 302.867 180.601 302.09 181.229 301.468C181.856 300.846 182.64 300.535 183.581 300.535C184.522 300.535 185.307 300.846 185.934 301.468C186.569 302.09 186.887 302.867 186.887 303.799C186.887 304.732 186.569 305.509 185.934 306.131C185.307 306.752 184.522 307.063 183.581 307.063ZM183.581 305.82C184.16 305.82 184.635 305.628 185.005 305.246C185.391 304.855 185.584 304.373 185.584 303.799C185.584 303.225 185.391 302.747 185.005 302.365C184.635 301.974 184.16 301.779 183.581 301.779C183.018 301.779 182.544 301.974 182.158 302.365C181.78 302.755 181.591 303.233 181.591 303.799C181.591 304.365 181.78 304.847 182.158 305.246C182.544 305.628 183.018 305.82 183.581 305.82ZM191.122 307.063C190.181 307.063 189.397 306.752 188.769 306.131C188.142 305.509 187.828 304.732 187.828 303.799C187.828 302.867 188.142 302.09 188.769 301.468C189.397 300.846 190.181 300.535 191.122 300.535C192.063 300.535 192.847 300.846 193.475 301.468C194.11 302.09 194.428 302.867 194.428 303.799C194.428 304.732 194.11 305.509 193.475 306.131C192.847 306.752 192.063 307.063 191.122 307.063ZM191.122 305.82C191.701 305.82 192.176 305.628 192.546 305.246C192.932 304.855 193.125 304.373 193.125 303.799C193.125 303.225 192.932 302.747 192.546 302.365C192.176 301.974 191.701 301.779 191.122 301.779C190.559 301.779 190.084 301.974 189.698 302.365C189.32 302.755 189.131 303.233 189.131 303.799C189.131 304.365 189.32 304.847 189.698 305.246C190.084 305.628 190.559 305.82 191.122 305.82ZM195.647 306.908V300.691H196.901V301.599C197.36 300.89 198.048 300.535 198.965 300.535C199.688 300.535 200.284 300.766 200.75 301.229C201.225 301.699 201.462 302.281 201.462 302.974V306.908H200.207V303.333C200.207 302.871 200.054 302.488 199.749 302.185C199.443 301.874 199.057 301.719 198.591 301.719C198.108 301.719 197.706 301.874 197.384 302.185C197.062 302.496 196.901 302.883 196.901 303.345V306.908H195.647ZM202.541 297.582L202.36 297.343H203.53L203.723 297.57C203.804 297.666 203.948 297.893 204.158 298.252C204.391 298.658 204.576 299.045 204.713 299.412C204.873 299.826 205.018 300.368 205.147 301.037C205.276 301.699 205.34 302.408 205.34 303.166C205.34 304.529 205.147 305.736 204.761 306.788C204.608 307.211 204.435 307.593 204.242 307.936C204.033 308.303 203.884 308.546 203.796 308.665C203.715 308.801 203.631 308.908 203.542 308.988L203.53 309H202.36L202.553 308.737C202.658 308.609 202.806 308.362 202.999 307.996C203.192 307.645 203.373 307.246 203.542 306.8C203.695 306.378 203.84 305.84 203.977 305.186C204.25 303.871 204.254 302.532 203.989 301.169C203.868 300.507 203.719 299.961 203.542 299.531C203.204 298.67 202.871 298.021 202.541 297.582Z" fill="white"/>
<g filter="url(#filter4_i_112_329)">
<path d="M306.413 327.522H265.523C259.878 327.522 255.301 331.877 255.301 337.25V354.758C255.301 360.13 259.878 364.485 265.523 364.485H306.413C312.058 364.485 316.635 360.13 316.635 354.758V337.25C316.635 331.877 312.058 327.522 306.413 327.522Z" fill="#41D3ED"/>
</g>
<path d="M272.288 344.055C272.288 343.803 272.175 343.591 271.95 343.418C271.734 343.245 271.469 343.159 271.156 343.159C270.842 343.159 270.557 343.257 270.3 343.453C270.044 343.65 269.843 343.917 269.698 344.256L268 343.465C268.289 342.828 268.711 342.333 269.265 341.979C269.827 341.617 270.457 341.436 271.156 341.436C272.007 341.436 272.725 341.688 273.311 342.191C273.898 342.687 274.191 343.288 274.191 343.996C274.191 344.845 273.58 345.82 272.36 346.921L271.035 348.125H274.251V349.847H268.217V348.502L271.24 345.718C271.938 345.073 272.288 344.519 272.288 344.055ZM277.987 346.78C277.987 345.852 278.268 345.085 278.83 344.48C279.392 343.866 280.098 343.56 280.949 343.56C281.592 343.56 282.17 343.748 282.684 344.126V341H284.478V349.847H282.684V349.422C282.186 349.807 281.608 350 280.949 350C280.098 350 279.392 349.693 278.83 349.08C278.268 348.459 277.987 347.692 277.987 346.78ZM281.263 345.305C280.869 345.305 280.536 345.447 280.263 345.73C279.998 346.013 279.866 346.359 279.866 346.768C279.866 347.193 279.998 347.547 280.263 347.83C280.536 348.113 280.869 348.254 281.263 348.254C281.648 348.254 281.977 348.113 282.25 347.83C282.523 347.547 282.66 347.193 282.66 346.768C282.66 346.351 282.523 346.005 282.25 345.73C281.977 345.447 281.648 345.305 281.263 345.305ZM286.255 349.08C285.621 348.459 285.303 347.692 285.303 346.78C285.303 345.868 285.621 345.105 286.255 344.491C286.889 343.87 287.688 343.56 288.652 343.56C289.607 343.56 290.402 343.87 291.036 344.491C291.679 345.105 292 345.868 292 346.78C292 347.684 291.679 348.451 291.036 349.08C290.394 349.693 289.599 350 288.652 350C287.688 350 286.889 349.693 286.255 349.08ZM288.652 348.254C289.069 348.254 289.415 348.113 289.688 347.83C289.977 347.539 290.121 347.189 290.121 346.78C290.121 346.371 289.977 346.025 289.688 345.742C289.415 345.451 289.069 345.305 288.652 345.305C288.234 345.305 287.885 345.447 287.604 345.73C287.323 346.021 287.182 346.371 287.182 346.78C287.182 347.189 287.323 347.539 287.604 347.83C287.885 348.113 288.234 348.254 288.652 348.254Z" fill="white"/>
<path d="M302 345.295L300.046 345.859C299.925 345.568 299.736 345.338 299.477 345.167C299.218 344.987 298.925 344.897 298.597 344.897C298.148 344.897 297.773 345.051 297.471 345.359C297.169 345.658 297.018 346.034 297.018 346.487C297.018 346.949 297.169 347.333 297.471 347.641C297.773 347.949 298.148 348.103 298.597 348.103C298.925 348.103 299.218 348.017 299.477 347.846C299.736 347.667 299.925 347.432 300.046 347.141L302 347.705C301.741 348.406 301.306 348.966 300.693 349.385C300.081 349.795 299.382 350 298.597 350C297.562 350 296.704 349.667 296.022 349C295.341 348.325 295 347.491 295 346.5C295 345.5 295.341 344.667 296.022 344C296.704 343.333 297.562 343 298.597 343C299.382 343 300.081 343.209 300.693 343.628C301.306 344.038 301.741 344.594 302 345.295Z" fill="#036D78"/>
<path d="M248.043 322.238C247.81 321.508 248.558 320.831 249.37 321.038L257.218 323.041C258.006 323.243 258.265 324.134 257.685 324.657L252.092 329.714C251.512 330.238 250.522 330.008 250.295 329.298L248.043 322.238Z" fill="#41D3ED"/>
<g filter="url(#filter5_i_112_329)">
<path d="M338.477 396.067H292.476C286.831 396.067 282.254 400.422 282.254 405.794V424.275C282.254 429.647 286.831 434.002 292.476 434.002H338.477C344.123 434.002 348.7 429.647 348.7 424.275V405.794C348.7 400.422 344.123 396.067 338.477 396.067Z" fill="#2D6EFD"/>
</g>
<path d="M297.589 412.017L296.126 412.438C296.047 412.149 295.845 411.906 295.52 411.711C295.194 411.506 294.817 411.404 294.387 411.404C293.912 411.404 293.517 411.515 293.201 411.736C292.884 411.949 292.726 412.221 292.726 412.553C292.674 412.843 292.898 413.132 293.398 413.421C293.486 413.472 293.658 413.54 293.912 413.626C294.238 413.728 294.426 413.788 294.479 413.804L295.177 413.996C295.872 414.174 296.46 414.404 296.943 414.685C297.593 415.068 297.918 415.685 297.918 416.536C297.918 417.362 297.602 418.03 296.969 418.54C296.328 419.042 295.516 419.294 294.532 419.294C293.635 419.294 292.867 419.093 292.226 418.694C291.593 418.285 291.184 417.774 291 417.162L292.463 416.715C292.542 417.056 292.77 417.34 293.148 417.57C293.534 417.8 293.995 417.915 294.532 417.915C295.076 417.915 295.529 417.8 295.889 417.57C296.249 417.332 296.429 417.025 296.429 416.651C296.429 416.405 296.328 416.192 296.126 416.013C295.951 415.843 295.77 415.719 295.586 415.643C295.401 415.557 295.125 415.468 294.756 415.374C293.64 415.059 292.902 414.813 292.542 414.634C291.681 414.183 291.25 413.523 291.25 412.655C291.25 411.873 291.54 411.238 292.12 410.753C292.7 410.268 293.447 410.026 294.36 410.026C295.168 410.026 295.867 410.217 296.455 410.6C297.035 410.966 297.413 411.439 297.589 412.017ZM300.702 419.128H299.331V412.489H300.702V419.128ZM299.371 411.506C299.203 411.337 299.12 411.127 299.12 410.881C299.12 410.634 299.203 410.425 299.371 410.255C299.546 410.085 299.762 410 300.016 410C300.271 410 300.487 410.085 300.662 410.255C300.837 410.425 300.926 410.634 300.926 410.881C300.926 411.127 300.837 411.337 300.662 411.506C300.487 411.676 300.271 411.762 300.016 411.762C299.762 411.762 299.546 411.676 299.371 411.506ZM303.7 422H302.33V412.489H303.7V413.204C304.333 412.617 305.093 412.323 305.98 412.323C306.938 412.323 307.741 412.655 308.391 413.319C309.033 413.974 309.353 414.804 309.353 415.809C309.353 416.813 309.033 417.643 308.391 418.298C307.741 418.962 306.938 419.294 305.98 419.294C305.093 419.294 304.333 419 303.7 418.413V422ZM305.822 413.651C305.233 413.651 304.737 413.859 304.333 414.277C303.928 414.676 303.726 415.187 303.726 415.809C303.726 416.421 303.928 416.936 304.333 417.353C304.737 417.762 305.233 417.966 305.822 417.966C306.411 417.966 306.911 417.762 307.324 417.353C307.728 416.936 307.93 416.421 307.93 415.809C307.93 415.187 307.728 414.676 307.324 414.277C306.919 413.859 306.419 413.651 305.822 413.651ZM320.546 412.017L319.083 412.438C319.004 412.149 318.802 411.906 318.477 411.711C318.153 411.506 317.775 411.404 317.344 411.404C316.869 411.404 316.474 411.515 316.158 411.736C315.842 411.949 315.683 412.221 315.683 412.553C315.631 412.843 315.855 413.132 316.355 413.421C316.444 413.472 316.615 413.54 316.869 413.626C317.195 413.728 317.383 413.788 317.436 413.804L318.134 413.996C318.829 414.174 319.418 414.404 319.9 414.685C320.551 415.068 320.875 415.685 320.875 416.536C320.875 417.362 320.559 418.03 319.927 418.54C319.286 419.042 318.473 419.294 317.489 419.294C316.593 419.294 315.824 419.093 315.183 418.694C314.55 418.285 314.142 417.774 313.957 417.162L315.42 416.715C315.499 417.056 315.728 417.34 316.105 417.57C316.492 417.8 316.954 417.915 317.489 417.915C318.034 417.915 318.486 417.8 318.846 417.57C319.207 417.332 319.386 417.025 319.386 416.651C319.386 416.405 319.286 416.192 319.083 416.013C318.908 415.843 318.727 415.719 318.543 415.643C318.358 415.557 318.082 415.468 317.713 415.374C316.598 415.059 315.86 414.813 315.499 414.634C314.638 414.183 314.208 413.523 314.208 412.655C314.208 411.873 314.497 411.238 315.077 410.753C315.657 410.268 316.404 410.026 317.317 410.026C318.126 410.026 318.825 410.217 319.413 410.6C319.992 410.966 320.371 411.439 320.546 412.017ZM323.659 419.128H322.288V412.489H323.659V419.128ZM322.328 411.506C322.162 411.337 322.077 411.127 322.077 410.881C322.077 410.634 322.162 410.425 322.328 410.255C322.504 410.085 322.719 410 322.974 410C323.229 410 323.444 410.085 323.619 410.255C323.796 410.425 323.883 410.634 323.883 410.881C323.883 411.127 323.796 411.337 323.619 411.506C323.444 411.676 323.229 411.762 322.974 411.762C322.719 411.762 322.504 411.676 322.328 411.506ZM326.657 419.128H325.287V412.489H326.657V413.332C327.132 412.659 327.83 412.323 328.752 412.323C329.227 412.323 329.658 412.429 330.044 412.643C330.431 412.847 330.742 413.132 330.979 413.498C331.085 413.336 331.213 413.175 331.362 413.013C331.546 412.834 331.815 412.677 332.165 412.54C332.517 412.396 332.89 412.323 333.285 412.323C334.068 412.323 334.714 412.557 335.223 413.026C335.742 413.502 336 414.089 336 414.787V419.128H334.63V415.157C334.63 414.715 334.476 414.344 334.168 414.047C333.861 413.74 333.479 413.587 333.022 413.587C332.539 413.587 332.135 413.74 331.81 414.047C331.493 414.336 331.335 414.711 331.335 415.17V419.128H329.965V415.157C329.965 414.715 329.812 414.344 329.504 414.047C329.196 413.74 328.814 413.587 328.357 413.587C327.875 413.587 327.47 413.74 327.145 414.047C326.82 414.336 326.657 414.711 326.657 415.17V419.128Z" fill="white"/>
<path d="M353.665 389.062C354.392 388.8 355.133 389.411 354.98 390.144L353.496 397.234C353.347 397.947 352.459 398.243 351.886 397.771L346.347 393.207C345.773 392.735 345.938 391.842 346.644 391.588L353.665 389.062Z" fill="#2D6EFD"/>
<path d="M220.517 361.062C221.324 360.8 222.148 361.411 221.977 362.143L220.329 369.235C220.164 369.947 219.176 370.243 218.54 369.771L212.385 365.206C211.748 364.734 211.931 363.841 212.715 363.588L220.517 361.062Z" fill="#B98EE5"/>
<path d="M240.666 269.062C241.392 268.8 242.133 269.411 241.98 270.144L240.496 277.234C240.347 277.947 239.46 278.243 238.886 277.771L233.347 273.207C232.774 272.735 232.937 271.842 233.644 271.587L240.666 269.062Z" fill="#2D6EFD"/>
<g filter="url(#filter6_i_112_329)">
<path d="M204.564 365.913H109.496C103.85 365.913 99.2734 370.268 99.2734 375.64V393.149C99.2734 398.521 103.85 402.876 109.496 402.876H204.564C210.21 402.876 214.786 398.521 214.786 393.149V375.64C214.786 370.268 210.21 365.913 204.564 365.913Z" fill="#B98EE5"/>
</g>
<path d="M114.048 378.089L111 373.546H112.462L114.671 376.92L116.925 373.546H118.387L115.317 378.034V381.19H114.048V378.089ZM120.9 375.37C121.663 375.37 122.316 375.621 122.86 376.123V375.512H124.038V381.19H122.86V380.579C122.316 381.081 121.663 381.332 120.9 381.332C120.076 381.332 119.385 381.048 118.826 380.48C118.275 379.92 117.999 379.21 117.999 378.351C117.999 377.492 118.275 376.782 118.826 376.222C119.385 375.654 120.076 375.37 120.9 375.37ZM121.024 376.505C120.518 376.505 120.092 376.684 119.744 377.041C119.397 377.383 119.223 377.82 119.223 378.351C119.223 378.875 119.397 379.316 119.744 379.672C120.099 380.022 120.526 380.197 121.024 380.197C121.538 380.197 121.968 380.022 122.316 379.672C122.663 379.316 122.837 378.875 122.837 378.351C122.837 377.82 122.663 377.383 122.316 377.041C121.968 376.684 121.538 376.505 121.024 376.505ZM125.44 381.19V375.512H126.619V376.342C127.049 375.693 127.695 375.37 128.556 375.37C129.236 375.37 129.795 375.581 130.233 376.003C130.678 376.433 130.902 376.964 130.902 377.597V381.19H129.723V377.925C129.723 377.503 129.579 377.154 129.293 376.877C129.006 376.593 128.643 376.451 128.205 376.451C127.752 376.451 127.374 376.593 127.072 376.877C126.77 377.161 126.619 377.514 126.619 377.936V381.19H125.44ZM134.94 375.37C135.702 375.37 136.356 375.621 136.9 376.123V373H138.078V381.19H136.9V380.579C136.356 381.081 135.702 381.332 134.94 381.332C134.116 381.332 133.425 381.048 132.867 380.48C132.315 379.92 132.04 379.21 132.04 378.351C132.04 377.492 132.315 376.782 132.867 376.222C133.425 375.654 134.116 375.37 134.94 375.37ZM135.065 376.505C134.558 376.505 134.132 376.684 133.785 377.041C133.436 377.383 133.263 377.82 133.263 378.351C133.263 378.875 133.436 379.316 133.785 379.672C134.139 380.022 134.566 380.197 135.065 380.197C135.578 380.197 136.008 380.022 136.356 379.672C136.703 379.316 136.878 378.875 136.878 378.351C136.878 377.82 136.703 377.383 136.356 377.041C136.008 376.684 135.578 376.505 135.065 376.505ZM145.326 378.766H140.432C140.523 379.21 140.746 379.574 141.1 379.858C141.463 380.135 141.89 380.273 142.381 380.273C143.046 380.273 143.567 380.037 143.944 379.563L145.1 379.902C144.828 380.345 144.451 380.695 143.967 380.95C143.491 381.205 142.963 381.332 142.381 381.332C141.474 381.332 140.723 381.048 140.126 380.48C139.522 379.913 139.22 379.203 139.22 378.351C139.22 377.506 139.511 376.796 140.092 376.222C140.681 375.654 141.415 375.37 142.29 375.37C143.166 375.37 143.892 375.654 144.465 376.222C145.054 376.789 145.349 377.499 145.349 378.351C145.349 378.38 145.342 378.519 145.326 378.766ZM140.443 377.86H144.137C144.032 377.438 143.805 377.095 143.457 376.833C143.11 376.564 142.709 376.429 142.256 376.429C141.825 376.429 141.44 376.564 141.1 376.833C140.769 377.095 140.549 377.438 140.443 377.86ZM150.139 381.19L148.587 379.192L147.024 381.19H145.63L147.885 378.275L145.743 375.512H147.126L148.587 377.368L150.037 375.512H151.431L149.278 378.275L151.533 381.19H150.139ZM158.041 375.37C158.804 375.37 159.457 375.621 160.001 376.123V375.512H161.179V381.19H160.001V380.579C159.457 381.081 158.804 381.332 158.041 381.332C157.218 381.332 156.527 381.048 155.968 380.48C155.417 379.92 155.141 379.21 155.141 378.351C155.141 377.492 155.417 376.782 155.968 376.222C156.527 375.654 157.218 375.37 158.041 375.37ZM158.166 376.505C157.66 376.505 157.234 376.684 156.886 377.041C156.538 377.383 156.364 377.82 156.364 378.351C156.364 378.875 156.538 379.316 156.886 379.672C157.241 380.022 157.667 380.197 158.166 380.197C158.68 380.197 159.11 380.022 159.457 379.672C159.806 379.316 159.979 378.875 159.979 378.351C159.979 377.82 159.806 377.383 159.457 377.041C159.11 376.684 158.68 376.505 158.166 376.505ZM162.582 381.19V375.512H163.761V376.342C164.191 375.693 164.837 375.37 165.698 375.37C166.378 375.37 166.937 375.581 167.375 376.003C167.821 376.433 168.043 376.964 168.043 377.597V381.19H166.865V377.925C166.865 377.503 166.722 377.154 166.434 376.877C166.147 376.593 165.784 376.451 165.347 376.451C164.894 376.451 164.516 376.593 164.214 376.877C163.912 377.161 163.761 377.514 163.761 377.936V381.19H162.582ZM172.082 375.37C172.845 375.37 173.498 375.621 174.042 376.123V375.512H175.22V381.19H174.042V380.579C173.498 381.081 172.845 381.332 172.082 381.332C171.259 381.332 170.568 381.048 170.008 380.48C169.457 379.92 169.181 379.21 169.181 378.351C169.181 377.492 169.457 376.782 170.008 376.222C170.568 375.654 171.259 375.37 172.082 375.37ZM172.206 376.505C171.701 376.505 171.274 376.684 170.926 377.041C170.579 377.383 170.405 377.82 170.405 378.351C170.405 378.875 170.579 379.316 170.926 379.672C171.281 380.022 171.708 380.197 172.206 380.197C172.72 380.197 173.151 380.022 173.498 379.672C173.846 379.316 174.019 378.875 174.019 378.351C174.019 377.82 173.846 377.383 173.498 377.041C173.151 376.684 172.72 376.505 172.206 376.505ZM177.801 381.19H176.623V373H177.801V381.19ZM180.674 381.671L180.934 381.048L178.634 375.512H179.846L181.523 379.64L183.257 375.512H184.469L181.693 382.053C181.459 382.606 181.153 383.01 180.776 383.265C180.398 383.52 179.914 383.647 179.325 383.647H179.076V382.555H179.325C179.672 382.555 179.953 382.486 180.164 382.348C180.375 382.21 180.545 381.983 180.674 381.671ZM184.742 376.505V375.512H185.637V374.387H186.815V375.512H188.379V376.505H186.815V379.301C186.815 379.526 186.89 379.716 187.042 379.869C187.192 380.022 187.382 380.098 187.608 380.098H188.379V381.19H187.518C186.988 381.19 186.543 381.026 186.181 380.699C185.818 380.356 185.637 379.941 185.637 379.454V376.505H184.742ZM190.591 381.19H189.413V375.512H190.591V381.19ZM189.447 374.671C189.304 374.525 189.231 374.347 189.231 374.136C189.231 373.924 189.304 373.747 189.447 373.601C189.598 373.455 189.783 373.382 190.002 373.382C190.221 373.382 190.406 373.455 190.557 373.601C190.708 373.747 190.784 373.924 190.784 374.136C190.784 374.347 190.708 374.525 190.557 374.671C190.406 374.817 190.221 374.889 190.002 374.889C189.783 374.889 189.598 374.817 189.447 374.671ZM197.69 377.161L196.5 377.499C196.349 377.193 196.126 376.953 195.831 376.778C195.537 376.597 195.201 376.505 194.823 376.505C194.295 376.505 193.849 376.684 193.486 377.041C193.131 377.397 192.954 377.834 192.954 378.351C192.954 378.868 193.131 379.308 193.486 379.672C193.849 380.022 194.295 380.197 194.823 380.197C195.201 380.197 195.537 380.109 195.831 379.934C196.126 379.753 196.349 379.509 196.5 379.203L197.69 379.541C197.456 380.087 197.082 380.524 196.568 380.852C196.062 381.172 195.48 381.332 194.823 381.332C193.939 381.332 193.203 381.048 192.614 380.48C192.025 379.913 191.73 379.203 191.73 378.351C191.73 377.499 192.025 376.789 192.614 376.222C193.203 375.654 193.939 375.37 194.823 375.37C195.48 375.37 196.062 375.534 196.568 375.861C197.082 376.182 197.456 376.615 197.69 377.161ZM202.898 376.811L201.788 376.997C201.652 376.575 201.267 376.363 200.632 376.363C200.345 376.363 200.111 376.418 199.93 376.527C199.748 376.636 199.658 376.785 199.658 376.975C199.658 377.222 199.846 377.412 200.224 377.543L201.55 377.98C202.056 378.161 202.422 378.384 202.649 378.646C202.883 378.908 203 379.232 203 379.618C203 380.164 202.792 380.586 202.377 380.885C201.962 381.183 201.414 381.332 200.734 381.332C200.07 381.332 199.529 381.194 199.114 380.917C198.699 380.633 198.45 380.244 198.366 379.749L199.476 379.585C199.529 379.81 199.669 379.993 199.896 380.131C200.122 380.269 200.41 380.338 200.757 380.338C201.081 380.338 201.346 380.277 201.55 380.153C201.761 380.029 201.867 379.862 201.867 379.651C201.867 379.381 201.629 379.163 201.153 378.995L199.839 378.569C199.379 378.417 199.042 378.22 198.831 377.98C198.627 377.739 198.525 377.434 198.525 377.062C198.525 376.516 198.725 376.097 199.125 375.807C199.526 375.516 200.058 375.37 200.723 375.37C201.319 375.37 201.81 375.501 202.196 375.763C202.581 376.018 202.815 376.367 202.898 376.811ZM141.769 386.549L141.939 386.353H143.026L142.834 386.582C142.759 386.669 142.623 386.895 142.426 387.259C142.026 387.965 141.716 388.825 141.497 389.836C141.256 391.052 141.252 392.275 141.486 393.505C141.622 394.139 141.766 394.637 141.916 395.002C142.256 395.825 142.57 396.414 142.856 396.771L143.026 397H141.939L141.927 396.989C141.324 396.319 140.871 395.413 140.568 394.27C140.35 393.447 140.239 392.581 140.239 391.671C140.239 390.332 140.44 389.181 140.84 388.22C141.172 387.419 141.483 386.862 141.769 386.549ZM149.345 389.006L148.088 389.367C148.02 389.119 147.846 388.912 147.566 388.744C147.287 388.569 146.962 388.482 146.592 388.482C146.184 388.482 145.844 388.576 145.572 388.766C145.301 388.948 145.165 389.181 145.165 389.465C145.119 389.712 145.312 389.96 145.742 390.208C145.818 390.251 145.965 390.31 146.184 390.382C146.463 390.47 146.626 390.52 146.671 390.535L147.272 390.699C147.868 390.852 148.375 391.048 148.79 391.289C149.349 391.616 149.628 392.144 149.628 392.872C149.628 393.578 149.357 394.15 148.813 394.587C148.262 395.016 147.562 395.231 146.717 395.231C145.946 395.231 145.285 395.06 144.734 394.718C144.19 394.368 143.839 393.931 143.68 393.407L144.938 393.025C145.006 393.316 145.203 393.56 145.527 393.757C145.86 393.953 146.256 394.051 146.717 394.051C147.185 394.051 147.574 393.953 147.884 393.757C148.194 393.553 148.348 393.291 148.348 392.97C148.348 392.759 148.262 392.577 148.088 392.424C147.936 392.278 147.782 392.173 147.623 392.108C147.465 392.035 147.227 391.959 146.909 391.878C145.95 391.609 145.316 391.398 145.006 391.245C144.265 390.859 143.896 390.295 143.896 389.552C143.896 388.882 144.145 388.34 144.643 387.925C145.142 387.51 145.784 387.303 146.569 387.303C147.265 387.303 147.865 387.467 148.371 387.794C148.869 388.107 149.194 388.511 149.345 389.006ZM153.588 395.231C152.704 395.231 151.968 394.947 151.378 394.379C150.789 393.811 150.495 393.101 150.495 392.25C150.495 391.398 150.789 390.688 151.378 390.12C151.968 389.552 152.704 389.268 153.588 389.268C154.471 389.268 155.208 389.552 155.797 390.12C156.393 390.688 156.692 391.398 156.692 392.25C156.692 393.101 156.393 393.811 155.797 394.379C155.208 394.947 154.471 395.231 153.588 395.231ZM153.588 394.095C154.131 394.095 154.576 393.92 154.925 393.571C155.287 393.215 155.468 392.774 155.468 392.25C155.468 391.725 155.287 391.289 154.925 390.939C154.576 390.583 154.131 390.404 153.588 390.404C153.058 390.404 152.613 390.583 152.251 390.939C151.895 391.296 151.718 391.732 151.718 392.25C151.718 392.767 151.895 393.207 152.251 393.571C152.613 393.92 153.058 394.095 153.588 394.095ZM160.669 395.231C159.785 395.231 159.048 394.947 158.459 394.379C157.87 393.811 157.576 393.101 157.576 392.25C157.576 391.398 157.87 390.688 158.459 390.12C159.048 389.552 159.785 389.268 160.669 389.268C161.552 389.268 162.289 389.552 162.878 390.12C163.474 390.688 163.773 391.398 163.773 392.25C163.773 393.101 163.474 393.811 162.878 394.379C162.289 394.947 161.552 395.231 160.669 395.231ZM160.669 394.095C161.212 394.095 161.657 393.92 162.006 393.571C162.368 393.215 162.549 392.774 162.549 392.25C162.549 391.725 162.368 391.289 162.006 390.939C161.657 390.583 161.212 390.404 160.669 390.404C160.139 390.404 159.694 390.583 159.332 390.939C158.976 391.296 158.799 391.732 158.799 392.25C158.799 392.767 158.976 393.207 159.332 393.571C159.694 393.92 160.139 394.095 160.669 394.095ZM164.917 395.089V389.41H166.095V390.24C166.526 389.592 167.172 389.268 168.033 389.268C168.713 389.268 169.271 389.48 169.71 389.902C170.155 390.332 170.378 390.863 170.378 391.496V395.089H169.2V391.824C169.2 391.402 169.056 391.052 168.769 390.775C168.482 390.491 168.119 390.349 167.682 390.349C167.228 390.349 166.85 390.491 166.549 390.775C166.246 391.059 166.095 391.413 166.095 391.835V395.089H164.917ZM171.392 386.571L171.222 386.353H172.321L172.502 386.56C172.577 386.647 172.713 386.855 172.91 387.183C173.129 387.554 173.302 387.907 173.431 388.242C173.582 388.62 173.718 389.115 173.839 389.727C173.959 390.332 174.02 390.979 174.02 391.671C174.02 392.916 173.839 394.019 173.476 394.98C173.333 395.366 173.17 395.715 172.989 396.028C172.792 396.363 172.653 396.585 172.57 396.694C172.495 396.818 172.415 396.917 172.332 396.989L172.321 397H171.222L171.403 396.76C171.501 396.644 171.641 396.417 171.822 396.083C172.003 395.762 172.173 395.399 172.332 394.991C172.475 394.604 172.611 394.113 172.74 393.516C172.996 392.315 173 391.092 172.751 389.847C172.638 389.243 172.498 388.744 172.332 388.351C172.015 387.565 171.702 386.971 171.392 386.571Z" fill="white"/>
<g filter="url(#filter7_i_112_329)">
<path d="M118.677 441.394H51.2087C45.563 441.394 40.9863 445.749 40.9863 451.121V469.603C40.9863 474.975 45.563 479.33 51.2087 479.33H118.677C124.322 479.33 128.899 474.975 128.899 469.603V451.121C128.899 445.749 124.322 441.394 118.677 441.394Z" fill="#F35888"/>
</g>
<path d="M70 471C76.6274 471 82 465.851 82 459.5C82 453.149 76.6274 448 70 448C63.3726 448 58 453.149 58 459.5C58 465.851 63.3726 471 70 471Z" fill="#FF1446" stroke="white" stroke-width="2"/>
<path d="M71 452V467" stroke="white" stroke-width="5"/>
<path d="M78 460H63" stroke="white" stroke-width="5"/>
<path d="M91.4012 457.658L89.828 458.402L89 456.598L91.9946 455.179H93.4988V464.821H91.4012V457.658ZM95.2932 461.515V458.485C95.2932 457.493 95.652 456.667 96.3696 456.006C97.0964 455.335 97.9981 455 99.0745 455C100.169 455 101.071 455.335 101.779 456.006C102.506 456.667 102.869 457.493 102.869 458.485V461.515C102.869 462.507 102.506 463.337 101.779 464.008C101.062 464.669 100.16 465 99.0745 465C97.9981 465 97.0964 464.669 96.3696 464.008C95.652 463.337 95.2932 462.507 95.2932 461.515ZM97.3908 458.457V461.543C97.3908 461.946 97.5518 462.29 97.8738 462.576C98.1959 462.851 98.5961 462.989 99.0745 462.989C99.5528 462.989 99.953 462.851 100.275 462.576C100.597 462.29 100.758 461.946 100.758 461.543V458.457C100.758 458.044 100.597 457.7 100.275 457.424C99.953 457.149 99.5528 457.011 99.0745 457.011C98.5961 457.011 98.1959 457.149 97.8738 457.424C97.5518 457.7 97.3908 458.044 97.3908 458.457ZM108.557 457.989C108.557 457.713 108.419 457.483 108.143 457.3C107.867 457.107 107.522 457.011 107.108 457.011C106.354 457.011 105.853 457.263 105.604 457.769L103.714 456.97C104.017 456.372 104.477 455.895 105.094 455.537C105.71 455.179 106.409 455 107.191 455C108.212 455 109.059 455.279 109.73 455.84C110.402 456.4 110.738 457.103 110.738 457.948C110.738 458.709 110.42 459.329 109.786 459.807C110.595 460.331 111 461.042 111 461.942C111 462.805 110.646 463.535 109.937 464.132C109.238 464.711 108.35 465 107.274 465C106.372 465 105.595 464.788 104.942 464.366C104.279 463.934 103.833 463.375 103.603 462.686L105.604 461.997C105.678 462.29 105.862 462.53 106.156 462.713C106.46 462.896 106.819 462.989 107.233 462.989C107.693 462.989 108.07 462.883 108.364 462.672C108.659 462.461 108.806 462.194 108.806 461.873C108.806 461.552 108.659 461.29 108.364 461.088C108.07 460.877 107.702 460.771 107.26 460.771H106.529V459.022H107.012C107.453 459.022 107.821 458.926 108.116 458.733C108.41 458.54 108.557 458.292 108.557 457.989Z" fill="white"/>
<path d="M31.7805 434.133C31.5685 433.399 32.2495 432.72 32.9878 432.928L40.1275 434.939C40.8455 435.142 41.0806 436.037 40.5539 436.562L35.4636 441.639C34.9368 442.166 34.0359 441.935 33.8298 441.222L31.7805 434.133Z" fill="#F35888"/>
<path d="M207.666 168.068C208.393 167.778 209.133 168.456 208.98 169.271L207.497 177.149C207.348 177.941 206.459 178.27 205.886 177.745L200.347 172.674C199.774 172.149 199.938 171.157 200.643 170.875L207.666 168.068Z" fill="#004796"/>
<g filter="url(#filter8_i_112_329)">
<path d="M229.098 505.982H140.163C134.517 505.982 129.94 510.337 129.94 515.709V531.273C129.94 536.645 134.517 541 140.163 541H229.098C234.743 541 239.32 536.645 239.32 531.273V515.709C239.32 510.337 234.743 505.982 229.098 505.982Z" fill="#00438D"/>
</g>
<path d="M150.549 526.83H149L152.979 517.655H154.173L158.165 526.83H156.616L155.802 524.942H151.364L150.549 526.83ZM155.224 523.579L153.583 519.739L151.941 523.579H155.224ZM159.145 526.83V520.014H160.51V521.01C161.009 520.233 161.758 519.844 162.756 519.844C163.544 519.844 164.192 520.097 164.699 520.604C165.216 521.119 165.474 521.758 165.474 522.518V526.83H164.108V522.911C164.108 522.404 163.943 521.984 163.609 521.653C163.277 521.312 162.857 521.142 162.349 521.142C161.823 521.142 161.386 521.312 161.036 521.653C160.686 521.993 160.51 522.417 160.51 522.924V526.83H159.145ZM170.154 519.844C171.039 519.844 171.796 520.145 172.426 520.748V517H173.792V526.83H172.426V526.096C171.796 526.699 171.039 527 170.154 527C169.201 527 168.4 526.659 167.751 525.978C167.113 525.305 166.793 524.453 166.793 523.422C166.793 522.391 167.113 521.539 167.751 520.866C168.4 520.185 169.201 519.844 170.154 519.844ZM170.299 521.207C169.713 521.207 169.218 521.421 168.815 521.849C168.413 522.26 168.211 522.784 168.211 523.422C168.211 524.051 168.413 524.579 168.815 525.008C169.227 525.427 169.721 525.637 170.299 525.637C170.895 525.637 171.394 525.427 171.796 525.008C172.199 524.579 172.4 524.051 172.4 523.422C172.4 522.784 172.199 522.26 171.796 521.849C171.394 521.421 170.895 521.207 170.299 521.207ZM180.271 526.83H178.905V520.014H180.271V520.879C180.744 520.189 181.44 519.844 182.359 519.844C182.831 519.844 183.26 519.953 183.645 520.172C184.03 520.381 184.341 520.674 184.578 521.05C184.683 520.883 184.809 520.718 184.959 520.552C185.142 520.368 185.409 520.207 185.759 520.067C186.109 519.919 186.482 519.844 186.876 519.844C187.654 519.844 188.298 520.084 188.806 520.565C189.322 521.054 189.58 521.657 189.58 522.374V526.83H188.215V522.754C188.215 522.299 188.061 521.919 187.755 521.613C187.448 521.299 187.067 521.142 186.613 521.142C186.131 521.142 185.728 521.299 185.405 521.613C185.09 521.911 184.932 522.295 184.932 522.767V526.83H183.567V522.754C183.567 522.299 183.413 521.919 183.107 521.613C182.8 521.299 182.419 521.142 181.965 521.142C181.483 521.142 181.08 521.299 180.757 521.613C180.433 521.911 180.271 522.295 180.271 522.767V526.83ZM194.485 527C193.461 527 192.608 526.659 191.925 525.978C191.242 525.296 190.901 524.444 190.901 523.422C190.901 522.4 191.242 521.548 191.925 520.866C192.608 520.185 193.461 519.844 194.485 519.844C195.509 519.844 196.363 520.185 197.046 520.866C197.737 521.548 198.083 522.4 198.083 523.422C198.083 524.444 197.737 525.296 197.046 525.978C196.363 526.659 195.509 527 194.485 527ZM194.485 525.637C195.116 525.637 195.632 525.427 196.035 525.008C196.455 524.579 196.665 524.051 196.665 523.422C196.665 522.793 196.455 522.269 196.035 521.849C195.632 521.421 195.116 521.207 194.485 521.207C193.872 521.207 193.356 521.421 192.936 521.849C192.524 522.278 192.319 522.802 192.319 523.422C192.319 524.042 192.524 524.571 192.936 525.008C193.356 525.427 193.872 525.637 194.485 525.637ZM200.775 520.014V521.01C201.291 520.233 202.101 519.844 203.204 519.844V521.364C203.046 521.295 202.849 521.26 202.613 521.26C202.088 521.26 201.649 521.43 201.3 521.771C200.95 522.094 200.775 522.514 200.775 523.029V526.83H199.409V520.014H200.775ZM210.736 523.92H205.063C205.168 524.453 205.427 524.89 205.838 525.231C206.258 525.562 206.753 525.729 207.322 525.729C208.093 525.729 208.697 525.444 209.134 524.877L210.473 525.283C210.158 525.816 209.721 526.236 209.16 526.541C208.609 526.847 207.997 527 207.322 527C206.271 527 205.401 526.659 204.709 525.978C204.009 525.296 203.658 524.444 203.658 523.422C203.658 522.409 203.996 521.557 204.67 520.866C205.352 520.185 206.202 519.844 207.217 519.844C208.233 519.844 209.073 520.185 209.738 520.866C210.421 521.548 210.762 522.4 210.762 523.422C210.762 523.457 210.754 523.623 210.736 523.92ZM205.077 522.832H209.357C209.235 522.325 208.972 521.915 208.569 521.6C208.167 521.277 207.703 521.115 207.177 521.115C206.678 521.115 206.232 521.277 205.838 521.6C205.453 521.915 205.2 522.325 205.077 522.832ZM211.654 526.751C211.487 526.577 211.404 526.358 211.404 526.096C211.404 525.834 211.487 525.615 211.654 525.44C211.829 525.266 212.048 525.178 212.31 525.178C212.573 525.178 212.792 525.266 212.967 525.44C213.142 525.615 213.23 525.834 213.23 526.096C213.23 526.358 213.142 526.577 212.967 526.751C212.792 526.917 212.573 527 212.31 527C212.048 527 211.829 526.917 211.654 526.751ZM214.539 526.751C214.373 526.577 214.289 526.358 214.289 526.096C214.289 525.834 214.373 525.615 214.539 525.44C214.714 525.266 214.933 525.178 215.195 525.178C215.458 525.178 215.677 525.266 215.852 525.44C216.027 525.615 216.114 525.834 216.114 526.096C216.114 526.358 216.027 526.577 215.852 526.751C215.677 526.917 215.458 527 215.195 527C214.933 527 214.714 526.917 214.539 526.751ZM217.424 526.751C217.258 526.577 217.175 526.358 217.175 526.096C217.175 525.834 217.258 525.615 217.424 525.44C217.599 525.266 217.818 525.178 218.081 525.178C218.343 525.178 218.562 525.266 218.737 525.44C218.912 525.615 219 525.834 219 526.096C219 526.358 218.912 526.577 218.737 526.751C218.562 526.917 218.343 527 218.081 527C217.818 527 217.599 526.917 217.424 526.751Z" fill="white"/>
<g filter="url(#filter9_i_112_329)">
<path fill-rule="evenodd" clip-rule="evenodd" d="M101.096 175.263C95.5729 175.263 91.0957 179.74 91.0957 185.263V205.144C91.0957 210.667 95.5729 215.144 101.096 215.144H194.564C200.087 215.144 204.564 210.667 204.564 205.144V185.263C204.564 179.74 200.087 175.263 194.564 175.263H101.096ZM102.521 184.554C101.719 185.295 101.318 186.219 101.318 187.325C101.318 188.438 101.712 189.361 102.499 190.096C103.301 190.838 104.276 191.209 105.423 191.209C106.607 191.209 107.585 190.831 108.357 190.075C109.137 189.311 109.527 188.373 109.527 187.261C109.527 187.118 109.516 186.982 109.493 186.854H105.22V188.298H107.469C107.304 188.684 107.031 188.994 106.648 189.229C106.273 189.465 105.861 189.582 105.411 189.582C104.774 189.582 104.242 189.365 103.815 188.93C103.387 188.487 103.174 187.953 103.174 187.325C103.174 186.69 103.395 186.155 103.837 185.72C104.272 185.285 104.83 185.067 105.513 185.067C105.955 185.067 106.356 185.167 106.716 185.367C107.076 185.566 107.353 185.845 107.548 186.201L109.28 185.591C108.942 184.928 108.436 184.404 107.761 184.019C107.087 183.633 106.337 183.441 105.513 183.441C104.321 183.441 103.324 183.812 102.521 184.554ZM110.189 188.288C110.189 189.115 110.485 189.811 111.077 190.374C111.67 190.931 112.416 191.209 113.315 191.209C114.2 191.209 114.942 190.931 115.542 190.374C116.141 189.804 116.441 189.108 116.441 188.288C116.441 187.46 116.141 186.768 115.542 186.212C114.949 185.649 114.207 185.367 113.315 185.367C112.416 185.367 111.67 185.649 111.077 186.212C110.485 186.768 110.189 187.46 110.189 188.288ZM114.282 189.24C114.027 189.497 113.705 189.625 113.315 189.625C112.925 189.625 112.599 189.497 112.337 189.24C112.075 188.976 111.943 188.659 111.943 188.288C111.943 187.917 112.075 187.599 112.337 187.336C112.599 187.079 112.925 186.95 113.315 186.95C113.705 186.95 114.027 187.082 114.282 187.346C114.552 187.603 114.687 187.917 114.687 188.288C114.687 188.659 114.552 188.976 114.282 189.24ZM117.019 188.288C117.019 189.115 117.316 189.811 117.908 190.374C118.5 190.931 119.246 191.209 120.145 191.209C121.03 191.209 121.772 190.931 122.372 190.374C122.972 189.804 123.271 189.108 123.271 188.288C123.271 187.46 122.972 186.768 122.372 186.212C121.78 185.649 121.037 185.367 120.145 185.367C119.246 185.367 118.5 185.649 117.908 186.212C117.316 186.768 117.019 187.46 117.019 188.288ZM121.112 189.24C120.858 189.497 120.535 189.625 120.145 189.625C119.756 189.625 119.43 189.497 119.167 189.24C118.905 188.976 118.774 188.659 118.774 188.288C118.774 187.917 118.905 187.599 119.167 187.336C119.43 187.079 119.756 186.95 120.145 186.95C120.535 186.95 120.858 187.082 121.112 187.346C121.382 187.603 121.517 187.917 121.517 188.288C121.517 188.659 121.382 188.976 121.112 189.24ZM124.637 186.201C124.112 186.751 123.85 187.446 123.85 188.288C123.85 189.115 124.112 189.811 124.637 190.374C125.161 190.931 125.821 191.209 126.616 191.209C127.23 191.209 127.77 191.034 128.235 190.685V190.973C128.235 191.294 128.107 191.562 127.853 191.776C127.598 191.99 127.286 192.097 126.919 192.097C126.657 192.097 126.417 192.04 126.2 191.926C125.982 191.819 125.829 191.68 125.739 191.508L124.074 191.883C124.247 192.375 124.603 192.789 125.143 193.124C125.675 193.452 126.278 193.616 126.953 193.616C127.792 193.616 128.494 193.359 129.056 192.846C129.625 192.347 129.91 191.715 129.91 190.952V185.506H128.235V185.88C127.756 185.538 127.216 185.367 126.616 185.367C125.821 185.367 125.161 185.645 124.637 186.201ZM125.975 187.336C126.229 187.079 126.541 186.95 126.908 186.95C127.268 186.95 127.576 187.079 127.83 187.336C128.085 187.592 128.212 187.913 128.212 188.298C128.212 188.677 128.085 188.99 127.83 189.24C127.576 189.497 127.268 189.625 126.908 189.625C126.541 189.625 126.229 189.497 125.975 189.24C125.727 188.983 125.604 188.669 125.604 188.298C125.604 187.913 125.727 187.592 125.975 187.336ZM130.86 191.07H132.547V183.045H130.86V191.07ZM135.092 188.866H139.444C139.489 188.68 139.511 188.487 139.511 188.288C139.511 187.46 139.215 186.768 138.623 186.212C138.03 185.649 137.296 185.367 136.419 185.367C135.534 185.367 134.796 185.649 134.204 186.212C133.611 186.768 133.316 187.46 133.316 188.288C133.316 189.122 133.619 189.818 134.226 190.374C134.834 190.931 135.594 191.209 136.509 191.209C137.123 191.209 137.674 191.077 138.162 190.813C138.657 190.542 139.039 190.171 139.309 189.7L137.678 189.347C137.386 189.675 137 189.839 136.52 189.839C136.175 189.839 135.875 189.75 135.621 189.572C135.365 189.393 135.189 189.158 135.092 188.866ZM137.791 187.678H135.103C135.201 187.393 135.369 187.164 135.609 186.993C135.849 186.822 136.118 186.736 136.419 186.736C136.734 186.736 137.015 186.822 137.262 186.993C137.51 187.164 137.686 187.393 137.791 187.678ZM143.557 186.201C143.032 186.751 142.77 187.446 142.77 188.288C142.77 189.115 143.032 189.811 143.557 190.374C144.082 190.931 144.741 191.209 145.536 191.209C146.151 191.209 146.69 191.034 147.156 190.685V191.07H148.831V185.506H147.156V185.88C146.675 185.538 146.135 185.367 145.536 185.367C144.741 185.367 144.082 185.645 143.557 186.201ZM144.895 187.336C145.15 187.079 145.461 186.95 145.829 186.95C146.189 186.95 146.495 187.079 146.751 187.336C147.005 187.585 147.133 187.899 147.133 188.277C147.133 188.662 147.005 188.983 146.751 189.24C146.495 189.497 146.189 189.625 145.829 189.625C145.461 189.625 145.15 189.497 144.895 189.24C144.648 188.983 144.524 188.662 144.524 188.277C144.524 187.906 144.648 187.592 144.895 187.336ZM151.466 185.506H149.78V191.07H151.466V187.924C151.466 187.617 151.568 187.364 151.77 187.164C151.981 186.957 152.239 186.854 152.546 186.854C152.854 186.854 153.108 186.957 153.31 187.164C153.513 187.364 153.614 187.617 153.614 187.924V191.07H155.301V187.496C155.301 186.89 155.084 186.383 154.649 185.977C154.221 185.57 153.693 185.367 153.063 185.367C152.388 185.367 151.857 185.602 151.466 186.073V185.506ZM156.856 186.201C156.33 186.751 156.068 187.446 156.068 188.288C156.068 189.115 156.33 189.811 156.856 190.374C157.38 190.931 158.039 191.209 158.835 191.209C159.449 191.209 159.989 191.034 160.454 190.685V191.07H162.129V185.506H160.454V185.88C159.973 185.538 159.434 185.367 158.835 185.367C158.039 185.367 157.38 185.645 156.856 186.201ZM158.194 187.336C158.448 187.079 158.759 186.95 159.127 186.95C159.487 186.95 159.794 187.079 160.049 187.336C160.304 187.585 160.431 187.899 160.431 188.277C160.431 188.662 160.304 188.983 160.049 189.24C159.794 189.497 159.487 189.625 159.127 189.625C158.759 189.625 158.448 189.497 158.194 189.24C157.946 188.983 157.823 188.662 157.823 188.277C157.823 187.906 157.946 187.592 158.194 187.336ZM163.078 191.07H164.765V183.045H163.078V191.07ZM165.308 185.506L167.524 191.027L167.49 191.113C167.28 191.669 166.812 191.947 166.084 191.947H165.871V193.477H166.073C166.793 193.477 167.374 193.331 167.816 193.038C168.266 192.753 168.626 192.29 168.896 191.648L171.381 185.506H169.638L168.322 188.94L167.051 185.506H165.308ZM171.536 185.506V186.897H172.334V189.294C172.334 189.8 172.529 190.224 172.919 190.567C173.316 190.902 173.803 191.07 174.381 191.07H175.348V189.572H174.662C174.474 189.572 174.321 189.518 174.201 189.411C174.08 189.297 174.021 189.154 174.021 188.983V186.897H175.348V185.506H174.021V184.425H172.334V185.506H171.536ZM176.058 191.07H177.745V185.506H176.058V191.07ZM175.856 184.126C175.856 184.411 175.953 184.646 176.148 184.832C176.358 185.017 176.609 185.11 176.902 185.11C177.201 185.11 177.449 185.017 177.644 184.832C177.846 184.653 177.947 184.418 177.947 184.126C177.947 183.833 177.846 183.598 177.644 183.419C177.449 183.234 177.201 183.141 176.902 183.141C176.609 183.141 176.358 183.234 176.148 183.419C175.953 183.605 175.856 183.84 175.856 184.126ZM182.899 187.753L184.597 187.282C184.372 186.697 183.993 186.233 183.461 185.891C182.929 185.542 182.322 185.367 181.64 185.367C180.74 185.367 179.994 185.645 179.402 186.201C178.809 186.758 178.514 187.453 178.514 188.288C178.514 189.115 178.809 189.811 179.402 190.374C179.994 190.931 180.74 191.209 181.64 191.209C182.322 191.209 182.929 191.038 183.461 190.695C183.993 190.346 184.372 189.878 184.597 189.294L182.899 188.823C182.794 189.065 182.629 189.261 182.404 189.411C182.18 189.554 181.924 189.625 181.64 189.625C181.249 189.625 180.923 189.497 180.661 189.24C180.399 188.983 180.268 188.662 180.268 188.277C180.268 187.899 180.399 187.585 180.661 187.336C180.923 187.079 181.249 186.95 181.64 186.95C181.924 186.95 182.18 187.025 182.404 187.175C182.629 187.318 182.794 187.51 182.899 187.753ZM188.274 187.122L189.815 186.886C189.74 186.408 189.5 186.037 189.095 185.773C188.69 185.502 188.15 185.367 187.476 185.367C186.734 185.367 186.153 185.517 185.733 185.816C185.313 186.109 185.103 186.554 185.103 187.154C185.103 187.567 185.223 187.903 185.463 188.159C185.71 188.416 186.104 188.616 186.644 188.759L187.712 189.058C188.101 189.165 188.297 189.308 188.297 189.486C188.297 189.615 188.225 189.714 188.083 189.786C187.948 189.857 187.764 189.893 187.532 189.893C186.977 189.893 186.644 189.707 186.531 189.336L184.979 189.54C185.062 190.075 185.317 190.488 185.744 190.781C186.179 191.066 186.763 191.209 187.498 191.209C188.24 191.209 188.825 191.055 189.252 190.749C189.687 190.435 189.905 189.993 189.905 189.422C189.905 188.994 189.774 188.648 189.511 188.384C189.248 188.113 188.825 187.888 188.24 187.71L187.195 187.389C186.887 187.282 186.734 187.157 186.734 187.015C186.734 186.772 186.954 186.651 187.397 186.651C187.876 186.651 188.169 186.808 188.274 187.122ZM130.488 196.128L130.319 196.32C130.035 196.627 129.727 197.173 129.397 197.957C129.001 198.899 128.801 200.026 128.801 201.339C128.801 202.23 128.911 203.079 129.127 203.885C129.428 205.005 129.878 205.893 130.477 206.549L130.488 206.56H131.567L131.399 206.335C131.115 205.986 130.803 205.408 130.465 204.602C130.316 204.245 130.173 203.757 130.038 203.136C129.806 201.931 129.81 200.732 130.049 199.541C130.267 198.55 130.575 197.708 130.972 197.016C131.167 196.659 131.302 196.438 131.376 196.352L131.567 196.128H130.488ZM136.591 199.081L137.839 198.728C137.689 198.243 137.367 197.847 136.872 197.54C136.37 197.219 135.774 197.059 135.084 197.059C134.304 197.059 133.667 197.262 133.172 197.669C132.678 198.075 132.43 198.607 132.43 199.263C132.43 199.99 132.797 200.543 133.532 200.921C133.84 201.071 134.47 201.278 135.421 201.542C135.736 201.62 135.972 201.695 136.13 201.767C136.287 201.831 136.44 201.934 136.591 202.077C136.764 202.227 136.849 202.405 136.849 202.612C136.849 202.926 136.696 203.183 136.388 203.382C136.081 203.575 135.695 203.671 135.23 203.671C134.773 203.671 134.38 203.575 134.049 203.382C133.727 203.19 133.532 202.951 133.465 202.665L132.217 203.04C132.374 203.553 132.723 203.981 133.262 204.324C133.809 204.659 134.466 204.827 135.23 204.827C136.069 204.827 136.764 204.616 137.31 204.195C137.85 203.767 138.12 203.207 138.12 202.516C138.12 201.802 137.843 201.285 137.288 200.964C136.876 200.729 136.373 200.536 135.781 200.386L135.185 200.226C135.14 200.212 134.979 200.162 134.702 200.076C134.484 200.005 134.338 199.948 134.263 199.905C133.836 199.662 133.645 199.42 133.69 199.177C133.69 198.899 133.825 198.671 134.094 198.492C134.364 198.307 134.702 198.214 135.106 198.214C135.473 198.214 135.796 198.3 136.073 198.471C136.351 198.635 136.523 198.838 136.591 199.081ZM139.857 203.992C140.442 204.548 141.172 204.827 142.05 204.827C142.927 204.827 143.657 204.548 144.242 203.992C144.834 203.436 145.131 202.74 145.131 201.906C145.131 201.071 144.834 200.376 144.242 199.819C143.657 199.263 142.927 198.985 142.05 198.985C141.172 198.985 140.442 199.263 139.857 199.819C139.272 200.376 138.98 201.071 138.98 201.906C138.98 202.74 139.272 203.436 139.857 203.992ZM143.376 203.2C143.031 203.543 142.589 203.714 142.05 203.714C141.524 203.714 141.082 203.543 140.723 203.2C140.37 202.844 140.194 202.412 140.194 201.906C140.194 201.399 140.37 200.971 140.723 200.622C141.082 200.272 141.524 200.097 142.05 200.097C142.589 200.097 143.031 200.272 143.376 200.622C143.736 200.964 143.916 201.392 143.916 201.906C143.916 202.419 143.736 202.851 143.376 203.2ZM146.885 203.992C147.469 204.548 148.2 204.827 149.077 204.827C149.954 204.827 150.685 204.548 151.27 203.992C151.862 203.436 152.158 202.74 152.158 201.906C152.158 201.071 151.862 200.376 151.27 199.819C150.685 199.263 149.954 198.985 149.077 198.985C148.2 198.985 147.469 199.263 146.885 199.819C146.3 200.376 146.008 201.071 146.008 201.906C146.008 202.74 146.3 203.436 146.885 203.992ZM150.404 203.2C150.059 203.543 149.617 203.714 149.077 203.714C148.552 203.714 148.11 203.543 147.751 203.2C147.398 202.844 147.222 202.412 147.222 201.906C147.222 201.399 147.398 200.971 147.751 200.622C148.11 200.272 148.552 200.097 149.077 200.097C149.617 200.097 150.059 200.272 150.404 200.622C150.764 200.964 150.944 201.392 150.944 201.906C150.944 202.419 150.764 202.851 150.404 203.2ZM153.294 199.124V204.688H154.464V201.499C154.464 201.085 154.613 200.739 154.913 200.461C155.213 200.183 155.588 200.044 156.038 200.044C156.472 200.044 156.832 200.183 157.117 200.461C157.401 200.732 157.545 201.075 157.545 201.488V204.688H158.714V201.167C158.714 200.547 158.492 200.026 158.051 199.605C157.615 199.192 157.061 198.985 156.386 198.985C155.532 198.985 154.891 199.302 154.464 199.937V199.124H153.294ZM159.551 196.128L159.72 196.342C160.028 196.734 160.338 197.315 160.653 198.086C160.818 198.471 160.957 198.96 161.069 199.552C161.317 200.771 161.313 201.97 161.058 203.147C160.93 203.732 160.795 204.213 160.653 204.591C160.496 204.991 160.327 205.347 160.147 205.661C159.967 205.989 159.828 206.211 159.731 206.325L159.551 206.56H160.642L160.653 206.549C160.736 206.478 160.815 206.382 160.889 206.26C160.972 206.153 161.11 205.936 161.305 205.608C161.485 205.301 161.647 204.959 161.789 204.581C162.149 203.639 162.329 202.558 162.329 201.339C162.329 200.661 162.268 200.026 162.149 199.434C162.029 198.835 161.894 198.35 161.744 197.979C161.616 197.651 161.444 197.305 161.227 196.941C161.031 196.62 160.897 196.417 160.822 196.331L160.642 196.128H159.551Z" fill="#004796"/>
</g>
</g>
<defs>
<filter id="filter0_i_112_329" x="79.8506" y="148.932" width="213.648" height="343.61" filterUnits="userSpaceOnUse" color-interpolation-filters="sRGB">
<feFlood flood-opacity="0" result="BackgroundImageFix"/>
<feBlend mode="normal" in="SourceGraphic" in2="BackgroundImageFix" result="shape"/>
<feColorMatrix in="SourceAlpha" type="matrix" values="0 0 0 0 0 0 0 0 0 0 0 0 0 0 0 0 0 0 127 0" result="hardAlpha"/>
<feOffset dy="4"/>
<feGaussianBlur stdDeviation="2"/>
<feComposite in2="hardAlpha" operator="arithmetic" k2="-1" k3="1"/>
<feColorMatrix type="matrix" values="0 0 0 0 0 0 0 0 0 0 0 0 0 0 0 0 0 0 0.25 0"/>
<feBlend mode="normal" in2="shape" result="effect1_innerShadow_112_329"/>
</filter>
<filter id="filter1_i_112_329" x="240.343" y="215.144" width="73.6016" height="40.9629" filterUnits="userSpaceOnUse" color-interpolation-filters="sRGB">
<feFlood flood-opacity="0" result="BackgroundImageFix"/>
<feBlend mode="normal" in="SourceGraphic" in2="BackgroundImageFix" result="shape"/>
<feColorMatrix in="SourceAlpha" type="matrix" values="0 0 0 0 0 0 0 0 0 0 0 0 0 0 0 0 0 0 127 0" result="hardAlpha"/>
<feOffset dy="4"/>
<feGaussianBlur stdDeviation="15"/>
<feComposite in2="hardAlpha" operator="arithmetic" k2="-1" k3="1"/>
<feColorMatrix type="matrix" values="0 0 0 0 0 0 0 0 0 0 0 0 0 0 0 0 0 0 0.15 0"/>
<feBlend mode="normal" in2="shape" result="effect1_innerShadow_112_329"/>
</filter>
<filter id="filter2_i_112_329" x="33.8506" y="230.707" width="99.1572" height="41.9355" filterUnits="userSpaceOnUse" color-interpolation-filters="sRGB">
<feFlood flood-opacity="0" result="BackgroundImageFix"/>
<feBlend mode="normal" in="SourceGraphic" in2="BackgroundImageFix" result="shape"/>
<feColorMatrix in="SourceAlpha" type="matrix" values="0 0 0 0 0 0 0 0 0 0 0 0 0 0 0 0 0 0 127 0" result="hardAlpha"/>
<feOffset dy="4"/>
<feGaussianBlur stdDeviation="15"/>
<feComposite in2="hardAlpha" operator="arithmetic" k2="-1" k3="1"/>
<feColorMatrix type="matrix" values="0 0 0 0 0 0 0 0 0 0 0 0 0 0 0 0 0 0 0.15 0"/>
<feBlend mode="normal" in2="shape" result="effect1_innerShadow_112_329"/>
</filter>
<filter id="filter3_i_112_329" x="140.163" y="274.479" width="94.0459" height="43.8809" filterUnits="userSpaceOnUse" color-interpolation-filters="sRGB">
<feFlood flood-opacity="0" result="BackgroundImageFix"/>
<feBlend mode="normal" in="SourceGraphic" in2="BackgroundImageFix" result="shape"/>
<feColorMatrix in="SourceAlpha" type="matrix" values="0 0 0 0 0 0 0 0 0 0 0 0 0 0 0 0 0 0 127 0" result="hardAlpha"/>
<feOffset dy="4"/>
<feGaussianBlur stdDeviation="15"/>
<feComposite in2="hardAlpha" operator="arithmetic" k2="-1" k3="1"/>
<feColorMatrix type="matrix" values="0 0 0 0 0 0 0 0 0 0 0 0 0 0 0 0 0 0 0.15 0"/>
<feBlend mode="normal" in2="shape" result="effect1_innerShadow_112_329"/>
</filter>
<filter id="filter4_i_112_329" x="255.301" y="327.522" width="61.334" height="40.9629" filterUnits="userSpaceOnUse" color-interpolation-filters="sRGB">
<feFlood flood-opacity="0" result="BackgroundImageFix"/>
<feBlend mode="normal" in="SourceGraphic" in2="BackgroundImageFix" result="shape"/>
<feColorMatrix in="SourceAlpha" type="matrix" values="0 0 0 0 0 0 0 0 0 0 0 0 0 0 0 0 0 0 127 0" result="hardAlpha"/>
<feOffset dy="4"/>
<feGaussianBlur stdDeviation="15"/>
<feComposite in2="hardAlpha" operator="arithmetic" k2="-1" k3="1"/>
<feColorMatrix type="matrix" values="0 0 0 0 0 0 0 0 0 0 0 0 0 0 0 0 0 0 0.15 0"/>
<feBlend mode="normal" in2="shape" result="effect1_innerShadow_112_329"/>
</filter>
<filter id="filter5_i_112_329" x="282.254" y="396.067" width="66.4453" height="41.9355" filterUnits="userSpaceOnUse" color-interpolation-filters="sRGB">
<feFlood flood-opacity="0" result="BackgroundImageFix"/>
<feBlend mode="normal" in="SourceGraphic" in2="BackgroundImageFix" result="shape"/>
<feColorMatrix in="SourceAlpha" type="matrix" values="0 0 0 0 0 0 0 0 0 0 0 0 0 0 0 0 0 0 127 0" result="hardAlpha"/>
<feOffset dy="4"/>
<feGaussianBlur stdDeviation="15"/>
<feComposite in2="hardAlpha" operator="arithmetic" k2="-1" k3="1"/>
<feColorMatrix type="matrix" values="0 0 0 0 0 0 0 0 0 0 0 0 0 0 0 0 0 0 0.15 0"/>
<feBlend mode="normal" in2="shape" result="effect1_innerShadow_112_329"/>
</filter>
<filter id="filter6_i_112_329" x="99.2734" y="365.913" width="115.513" height="40.9629" filterUnits="userSpaceOnUse" color-interpolation-filters="sRGB">
<feFlood flood-opacity="0" result="BackgroundImageFix"/>
<feBlend mode="normal" in="SourceGraphic" in2="BackgroundImageFix" result="shape"/>
<feColorMatrix in="SourceAlpha" type="matrix" values="0 0 0 0 0 0 0 0 0 0 0 0 0 0 0 0 0 0 127 0" result="hardAlpha"/>
<feOffset dy="4"/>
<feGaussianBlur stdDeviation="15"/>
<feComposite in2="hardAlpha" operator="arithmetic" k2="-1" k3="1"/>
<feColorMatrix type="matrix" values="0 0 0 0 0 0 0 0 0 0 0 0 0 0 0 0 0 0 0.15 0"/>
<feBlend mode="normal" in2="shape" result="effect1_innerShadow_112_329"/>
</filter>
<filter id="filter7_i_112_329" x="40.9863" y="441.394" width="87.9121" height="41.9355" filterUnits="userSpaceOnUse" color-interpolation-filters="sRGB">
<feFlood flood-opacity="0" result="BackgroundImageFix"/>
<feBlend mode="normal" in="SourceGraphic" in2="BackgroundImageFix" result="shape"/>
<feColorMatrix in="SourceAlpha" type="matrix" values="0 0 0 0 0 0 0 0 0 0 0 0 0 0 0 0 0 0 127 0" result="hardAlpha"/>
<feOffset dy="4"/>
<feGaussianBlur stdDeviation="15"/>
<feComposite in2="hardAlpha" operator="arithmetic" k2="-1" k3="1"/>
<feColorMatrix type="matrix" values="0 0 0 0 0 0 0 0 0 0 0 0 0 0 0 0 0 0 0.15 0"/>
<feBlend mode="normal" in2="shape" result="effect1_innerShadow_112_329"/>
</filter>
<filter id="filter8_i_112_329" x="129.94" y="505.982" width="109.38" height="39.0176" filterUnits="userSpaceOnUse" color-interpolation-filters="sRGB">
<feFlood flood-opacity="0" result="BackgroundImageFix"/>
<feBlend mode="normal" in="SourceGraphic" in2="BackgroundImageFix" result="shape"/>
<feColorMatrix in="SourceAlpha" type="matrix" values="0 0 0 0 0 0 0 0 0 0 0 0 0 0 0 0 0 0 127 0" result="hardAlpha"/>
<feOffset dy="4"/>
<feGaussianBlur stdDeviation="15"/>
<feComposite in2="hardAlpha" operator="arithmetic" k2="-1" k3="1"/>
<feColorMatrix type="matrix" values="0 0 0 0 0 0 0 0 0 0 0 0 0 0 0 0 0 0 0.15 0"/>
<feBlend mode="normal" in2="shape" result="effect1_innerShadow_112_329"/>
</filter>
<filter id="filter9_i_112_329" x="91.0957" y="175.263" width="113.469" height="43.8809" filterUnits="userSpaceOnUse" color-interpolation-filters="sRGB">
<feFlood flood-opacity="0" result="BackgroundImageFix"/>
<feBlend mode="normal" in="SourceGraphic" in2="BackgroundImageFix" result="shape"/>
<feColorMatrix in="SourceAlpha" type="matrix" values="0 0 0 0 0 0 0 0 0 0 0 0 0 0 0 0 0 0 127 0" result="hardAlpha"/>
<feOffset dy="4"/>
<feGaussianBlur stdDeviation="15"/>
<feComposite in2="hardAlpha" operator="arithmetic" k2="-1" k3="1"/>
<feColorMatrix type="matrix" values="0 0 0 0 0 0 0 0 0 0 0 0 0 0 0 0 0 0 0.15 0"/>
<feBlend mode="normal" in2="shape" result="effect1_innerShadow_112_329"/>
</filter>
<linearGradient id="paint0_linear_112_329" x1="234.544" y1="133.935" x2="119.86" y2="488.702" gradientUnits="userSpaceOnUse">
<stop stop-color="#F5E2D3"/>
<stop offset="1" stop-color="white"/>
</linearGradient>
<clipPath id="clip0_112_329">
<rect width="320" height="392" fill="white" transform="translate(27 149)"/>
</clipPath>
</defs>
</svg>
