<svg width="760" height="400" viewBox="0 0 760 400" fill="none" xmlns="http://www.w3.org/2000/svg">
<path d="M0 54L12.1077 82.3581C18.6638 97.7133 27.5774 111.951 38.5264 124.555L43.3729 130.135C49.9469 137.703 57.5453 144.316 65.9482 149.783V149.783C79.5937 158.661 95.0742 164.33 111.226 166.364L133.809 169.207C151.622 171.45 169.651 171.364 187.442 168.951L212.635 165.533C223.729 164.029 234.7 161.718 245.46 158.621V158.621C266.217 152.646 287.71 149.614 309.309 149.614H310.688C328.827 149.614 346.908 151.665 364.586 155.729L411.311 166.469C428.994 170.534 447.081 172.586 465.225 172.586V172.586H499.421H521.148C540.129 172.586 558.822 177.229 575.597 186.109V186.109C584.333 190.734 592.445 196.453 599.735 203.128L617.914 219.772L631.092 229.285C648.082 241.55 666.01 252.461 684.71 261.918L703.272 271.304L760 293.035" stroke="#DFDFDF" stroke-opacity="0.3"/>
<path d="M0 345.689L28.198 331.804C42.9869 324.522 57.1404 316.014 70.5103 306.371V306.371C85.768 295.367 102.042 285.844 119.11 277.934L184.522 247.619L215.395 237.055C232.183 231.31 249.805 228.378 267.55 228.378V228.378C287.179 228.378 306.644 231.966 324.983 238.965L347.662 247.619V247.619C370.209 256.523 394.89 258.538 418.582 253.41L445.335 247.619L460.39 243.936C480.53 239.009 501.533 238.768 521.782 243.231V243.231C534.978 246.14 547.666 251.006 559.423 257.668L569.403 263.322C580.12 269.394 590.287 276.389 599.788 284.227L630.65 309.689L668.927 336.379V336.379C688.879 354.074 711.345 368.714 735.591 379.819L760 391" stroke="#DFDFDF" stroke-opacity="0.3"/>
<path d="M0 389.041L49.0411 294.811C57.1996 279.135 69.4499 265.96 84.4919 256.684L89.8705 253.367C112.274 239.552 139.813 236.893 164.445 246.167V246.167C189.986 255.782 218.589 252.552 241.341 237.483L246.772 233.886C271.124 217.757 301.554 213.763 329.243 223.061V223.061C345.61 228.558 363.169 229.476 380.021 225.718L406.134 219.895L421.677 216.428C445.824 211.043 470.488 208.326 495.227 208.326V208.326H515.524C540.724 208.326 565.762 204.298 589.691 196.395V196.395C609.691 189.788 628.72 180.539 646.271 168.893L700.868 132.664L760 95.1455" stroke="#DFDFDF" stroke-opacity="0.3"/>
<path d="M102.52 167.656V176H100.952V166.2H109.408V176H107.826V167.656H102.52ZM118.455 172.892H112.407C112.519 173.461 112.795 173.928 113.233 174.292C113.681 174.647 114.209 174.824 114.815 174.824C115.637 174.824 116.281 174.521 116.747 173.914L118.175 174.348C117.839 174.917 117.373 175.365 116.775 175.692C116.187 176.019 115.534 176.182 114.815 176.182C113.695 176.182 112.767 175.818 112.029 175.09C111.283 174.362 110.909 173.452 110.909 172.36C110.909 171.277 111.269 170.367 111.987 169.63C112.715 168.902 113.621 168.538 114.703 168.538C115.786 168.538 116.682 168.902 117.391 169.63C118.119 170.358 118.483 171.268 118.483 172.36C118.483 172.397 118.474 172.575 118.455 172.892ZM112.421 171.73H116.985C116.855 171.189 116.575 170.75 116.145 170.414C115.716 170.069 115.221 169.896 114.661 169.896C114.129 169.896 113.653 170.069 113.233 170.414C112.823 170.75 112.552 171.189 112.421 171.73ZM121.232 179.15H119.776V168.72H121.232V169.504C121.904 168.86 122.712 168.538 123.654 168.538C124.672 168.538 125.526 168.902 126.216 169.63C126.898 170.349 127.238 171.259 127.238 172.36C127.238 173.461 126.898 174.371 126.216 175.09C125.526 175.818 124.672 176.182 123.654 176.182C122.712 176.182 121.904 175.86 121.232 175.216V179.15ZM123.486 169.994C122.861 169.994 122.334 170.223 121.904 170.68C121.475 171.119 121.26 171.679 121.26 172.36C121.26 173.032 121.475 173.597 121.904 174.054C122.334 174.502 122.861 174.726 123.486 174.726C124.112 174.726 124.644 174.502 125.082 174.054C125.512 173.597 125.726 173.032 125.726 172.36C125.726 171.679 125.512 171.119 125.082 170.68C124.653 170.223 124.121 169.994 123.486 169.994ZM135.873 172.892H129.825C129.937 173.461 130.213 173.928 130.651 174.292C131.099 174.647 131.627 174.824 132.233 174.824C133.055 174.824 133.699 174.521 134.165 173.914L135.593 174.348C135.257 174.917 134.791 175.365 134.193 175.692C133.605 176.019 132.952 176.182 132.233 176.182C131.113 176.182 130.185 175.818 129.447 175.09C128.701 174.362 128.327 173.452 128.327 172.36C128.327 171.277 128.687 170.367 129.405 169.63C130.133 168.902 131.039 168.538 132.121 168.538C133.204 168.538 134.1 168.902 134.809 169.63C135.537 170.358 135.901 171.268 135.901 172.36C135.901 172.397 135.892 172.575 135.873 172.892ZM129.839 171.73H134.403C134.273 171.189 133.993 170.75 133.563 170.414C133.134 170.069 132.639 169.896 132.079 169.896C131.547 169.896 131.071 170.069 130.651 170.414C130.241 170.75 129.97 171.189 129.839 171.73ZM137.194 176V168.72H138.65V173.578L142.766 168.72H143.984V176H142.528V171.17L138.412 176H137.194ZM138.188 165.668H139.406C139.406 165.985 139.518 166.251 139.742 166.466C139.976 166.681 140.265 166.788 140.61 166.788C140.937 166.788 141.212 166.681 141.436 166.466C141.67 166.251 141.786 165.985 141.786 165.668H143.004C143.004 166.331 142.776 166.877 142.318 167.306C141.861 167.735 141.292 167.95 140.61 167.95C139.91 167.95 139.332 167.735 138.874 167.306C138.417 166.877 138.188 166.331 138.188 165.668ZM147.629 176V170.12H145.053V168.72H151.661V170.12H149.085V176H147.629ZM158.046 171.17L153.93 176H152.712V168.72H154.168V173.578L158.284 168.72H159.502V176H158.046V171.17Z" fill="white" fill-opacity="0.9"/>
<path d="M184.464 172.354C184.66 172.158 184.66 171.842 184.464 171.646L181.282 168.464C181.087 168.269 180.77 168.269 180.575 168.464C180.38 168.66 180.38 168.976 180.575 169.172L183.404 172L180.575 174.828C180.38 175.024 180.38 175.34 180.575 175.536C180.77 175.731 181.087 175.731 181.282 175.536L184.464 172.354ZM166 172.5H184.111V171.5H166V172.5Z" fill="white"/>
<circle cx="255.5" cy="228.5" r="2.5" fill="#F6BD11"/>
<circle cx="255.5" cy="228.5" r="2.5" fill="#F6BD11"/>
<circle cx="255.5" cy="228.5" r="2.5" fill="#004796"/>
<circle cx="32" cy="329" r="5" fill="#F6BD11"/>
<circle cx="32" cy="329" r="5" fill="#F6BD11"/>
<circle cx="32" cy="329" r="5" fill="#F35888"/>
<path d="M547.019 150H542.759V141.6H546.779C547.491 141.6 548.087 141.816 548.567 142.248C549.047 142.664 549.287 143.196 549.287 143.844C549.287 144.548 548.991 145.124 548.399 145.572C548.791 145.78 549.099 146.068 549.323 146.436C549.547 146.796 549.659 147.192 549.659 147.624C549.659 148.304 549.407 148.872 548.903 149.328C548.391 149.776 547.763 150 547.019 150ZM547.019 146.28H544.103V148.752H547.019C547.371 148.752 547.667 148.636 547.907 148.404C548.147 148.164 548.267 147.868 548.267 147.516C548.267 147.164 548.147 146.872 547.907 146.64C547.667 146.4 547.371 146.28 547.019 146.28ZM546.779 142.848H544.103V145.032H546.779C547.099 145.032 547.363 144.928 547.571 144.72C547.779 144.512 547.883 144.252 547.883 143.94C547.883 143.628 547.779 143.368 547.571 143.16C547.363 142.952 547.099 142.848 546.779 142.848ZM552.174 150H550.926V143.76H552.174V150ZM550.962 142.836C550.81 142.676 550.734 142.48 550.734 142.248C550.734 142.016 550.81 141.82 550.962 141.66C551.122 141.5 551.318 141.42 551.55 141.42C551.782 141.42 551.978 141.5 552.138 141.66C552.298 141.82 552.378 142.016 552.378 142.248C552.378 142.48 552.298 142.676 552.138 142.836C551.978 142.996 551.782 143.076 551.55 143.076C551.318 143.076 551.122 142.996 550.962 142.836ZM553.656 150V143.76H554.904V144.672C555.36 143.96 556.044 143.604 556.956 143.604C557.676 143.604 558.268 143.836 558.732 144.3C559.204 144.772 559.44 145.356 559.44 146.052V150H558.192V146.412C558.192 145.948 558.04 145.564 557.736 145.26C557.432 144.948 557.048 144.792 556.584 144.792C556.104 144.792 555.704 144.948 555.384 145.26C555.064 145.572 554.904 145.96 554.904 146.424V150H553.656ZM563.922 150.156C562.986 150.156 562.206 149.844 561.582 149.22C560.958 148.596 560.646 147.816 560.646 146.88C560.646 145.944 560.958 145.164 561.582 144.54C562.206 143.916 562.986 143.604 563.922 143.604C564.858 143.604 565.638 143.916 566.262 144.54C566.894 145.164 567.21 145.944 567.21 146.88C567.21 147.816 566.894 148.596 566.262 149.22C565.638 149.844 564.858 150.156 563.922 150.156ZM563.922 148.908C564.498 148.908 564.97 148.716 565.338 148.332C565.722 147.94 565.914 147.456 565.914 146.88C565.914 146.304 565.722 145.824 565.338 145.44C564.97 145.048 564.498 144.852 563.922 144.852C563.362 144.852 562.89 145.048 562.506 145.44C562.13 145.832 561.942 146.312 561.942 146.88C561.942 147.448 562.13 147.932 562.506 148.332C562.89 148.716 563.362 148.908 563.922 148.908ZM567.774 145.32V143.76H568.626V142.548H570.426V143.76H571.842V145.32H570.426V147.66C570.426 147.852 570.49 148.012 570.618 148.14C570.746 148.26 570.91 148.32 571.11 148.32H571.842V150H570.81C570.194 150 569.674 149.812 569.25 149.436C568.834 149.052 568.626 148.576 568.626 148.008V145.32H567.774ZM578.948 147.528H574.304C574.408 147.856 574.596 148.12 574.868 148.32C575.14 148.52 575.46 148.62 575.828 148.62C576.34 148.62 576.752 148.436 577.064 148.068L578.804 148.464C578.516 148.992 578.108 149.408 577.58 149.712C577.06 150.008 576.472 150.156 575.816 150.156C574.84 150.156 574.028 149.844 573.38 149.22C572.732 148.596 572.408 147.816 572.408 146.88C572.408 145.952 572.724 145.176 573.356 144.552C573.988 143.92 574.776 143.604 575.72 143.604C576.656 143.604 577.44 143.92 578.072 144.552C578.704 145.176 579.02 145.952 579.02 146.88C579.02 147.104 578.996 147.32 578.948 147.528ZM574.316 146.196H577.184C577.072 145.876 576.884 145.62 576.62 145.428C576.356 145.236 576.056 145.14 575.72 145.14C575.4 145.14 575.112 145.236 574.856 145.428C574.6 145.62 574.42 145.876 574.316 146.196ZM581.548 150H579.748V141H581.548V150ZM542.609 156.616L542.789 156.4H543.941L543.737 156.652C543.657 156.748 543.513 156.996 543.305 157.396C542.881 158.172 542.553 159.116 542.321 160.228C542.065 161.564 542.061 162.908 542.309 164.26C542.453 164.956 542.605 165.504 542.765 165.904C543.125 166.808 543.457 167.456 543.761 167.848L543.941 168.1H542.789L542.777 168.088C542.137 167.352 541.657 166.356 541.337 165.1C541.105 164.196 540.989 163.244 540.989 162.244C540.989 160.772 541.201 159.508 541.625 158.452C541.977 157.572 542.305 156.96 542.609 156.616ZM550.874 161.572L549.614 161.944C549.454 161.608 549.218 161.344 548.906 161.152C548.594 160.952 548.238 160.852 547.838 160.852C547.278 160.852 546.806 161.048 546.422 161.44C546.046 161.832 545.858 162.312 545.858 162.88C545.858 163.448 546.046 163.932 546.422 164.332C546.806 164.716 547.278 164.908 547.838 164.908C548.238 164.908 548.594 164.812 548.906 164.62C549.218 164.42 549.454 164.152 549.614 163.816L550.874 164.188C550.626 164.788 550.23 165.268 549.686 165.628C549.15 165.98 548.534 166.156 547.838 166.156C546.902 166.156 546.122 165.844 545.498 165.22C544.874 164.596 544.562 163.816 544.562 162.88C544.562 161.944 544.874 161.164 545.498 160.54C546.122 159.916 546.902 159.604 547.838 159.604C548.534 159.604 549.15 159.784 549.686 160.144C550.23 160.496 550.626 160.972 550.874 161.572ZM557.471 166H555.935L553.223 162.772L555.683 159.76H557.207L554.759 162.772L557.471 166ZM553.211 159.76V166H551.963V159.76H553.211ZM561.045 166.156C560.109 166.156 559.329 165.844 558.705 165.22C558.081 164.596 557.769 163.816 557.769 162.88C557.769 161.944 558.081 161.164 558.705 160.54C559.329 159.916 560.109 159.604 561.045 159.604C561.981 159.604 562.761 159.916 563.385 160.54C564.017 161.164 564.333 161.944 564.333 162.88C564.333 163.816 564.017 164.596 563.385 165.22C562.761 165.844 561.981 166.156 561.045 166.156ZM561.045 164.908C561.621 164.908 562.093 164.716 562.461 164.332C562.845 163.94 563.037 163.456 563.037 162.88C563.037 162.304 562.845 161.824 562.461 161.44C562.093 161.048 561.621 160.852 561.045 160.852C560.485 160.852 560.013 161.048 559.629 161.44C559.253 161.832 559.065 162.312 559.065 162.88C559.065 163.448 559.253 163.932 559.629 164.332C560.013 164.716 560.485 164.908 561.045 164.908ZM566.793 168.7H565.545V159.76H566.793V160.432C567.369 159.88 568.061 159.604 568.869 159.604C569.741 159.604 570.473 159.916 571.065 160.54C571.649 161.156 571.941 161.936 571.941 162.88C571.941 163.824 571.649 164.604 571.065 165.22C570.473 165.844 569.741 166.156 568.869 166.156C568.061 166.156 567.369 165.88 566.793 165.328V168.7ZM568.725 160.852C568.189 160.852 567.737 161.048 567.369 161.44C567.001 161.816 566.817 162.296 566.817 162.88C566.817 163.456 567.001 163.94 567.369 164.332C567.737 164.716 568.189 164.908 568.725 164.908C569.261 164.908 569.717 164.716 570.093 164.332C570.461 163.94 570.645 163.456 570.645 162.88C570.645 162.296 570.461 161.816 570.093 161.44C569.725 161.048 569.269 160.852 568.725 160.852ZM576.15 166.156C575.214 166.156 574.434 165.844 573.81 165.22C573.186 164.596 572.874 163.816 572.874 162.88C572.874 161.944 573.186 161.164 573.81 160.54C574.434 159.916 575.214 159.604 576.15 159.604C577.086 159.604 577.866 159.916 578.49 160.54C579.122 161.164 579.438 161.944 579.438 162.88C579.438 163.816 579.122 164.596 578.49 165.22C577.866 165.844 577.086 166.156 576.15 166.156ZM576.15 164.908C576.726 164.908 577.198 164.716 577.566 164.332C577.95 163.94 578.142 163.456 578.142 162.88C578.142 162.304 577.95 161.824 577.566 161.44C577.198 161.048 576.726 160.852 576.15 160.852C575.59 160.852 575.118 161.048 574.734 161.44C574.358 161.832 574.17 162.312 574.17 162.88C574.17 163.448 574.358 163.932 574.734 164.332C575.118 164.716 575.59 164.908 576.15 164.908ZM580.242 156.64L580.062 156.4H581.226L581.418 156.628C581.498 156.724 581.642 156.952 581.85 157.312C582.082 157.72 582.266 158.108 582.402 158.476C582.562 158.892 582.706 159.436 582.834 160.108C582.962 160.772 583.026 161.484 583.026 162.244C583.026 163.612 582.834 164.824 582.45 165.88C582.298 166.304 582.126 166.688 581.934 167.032C581.726 167.4 581.578 167.644 581.49 167.764C581.41 167.9 581.326 168.008 581.238 168.088L581.226 168.1H580.062L580.254 167.836C580.358 167.708 580.506 167.46 580.698 167.092C580.89 166.74 581.07 166.34 581.238 165.892C581.39 165.468 581.534 164.928 581.67 164.272C581.942 162.952 581.946 161.608 581.682 160.24C581.562 159.576 581.414 159.028 581.238 158.596C580.902 157.732 580.57 157.08 580.242 156.64Z" fill="white"/>
<path d="M739.5 1.87818L740.926 7.04294L741.028 7.40983H741.408H746.229L742.263 10.8003L742.021 11.0069L742.106 11.3134L743.579 16.6488L739.825 13.4396L739.5 13.1619L739.175 13.4396L735.421 16.6488L736.894 11.3134L736.979 11.0069L736.737 10.8003L732.771 7.40983H737.592H737.972L738.074 7.04294L739.5 1.87818Z" stroke="black"/>
<ellipse cx="390" cy="237.5" rx="3" ry="2.5" fill="#F6BD11"/>
<ellipse cx="390" cy="237.5" rx="3" ry="2.5" fill="#F6BD11"/>
<ellipse cx="390" cy="237.5" rx="3" ry="2.5" fill="#F6BD11"/>
<circle cx="722" cy="354" r="5" fill="#F6BD11"/>
<circle cx="722" cy="354" r="5" fill="#F6BD11"/>
<circle cx="722" cy="354" r="5" fill="#2BD8F5"/>
<path d="M532.319 387.396L527.223 394H525.884V384.9H527.34V391.543L532.449 384.9H533.788V394H532.319V387.396ZM539.713 394V395.95H538.361V392.7H539.414C539.743 392.345 539.908 391.595 539.908 390.451V387.24H545.381V392.7H546.603V395.95H545.251V394H539.713ZM540.857 392.7H544.029V388.54H541.26V390.529C541.26 391.43 541.126 392.154 540.857 392.7ZM548.994 396.925H547.642V387.24H548.994V387.968C549.618 387.37 550.368 387.071 551.243 387.071C552.188 387.071 552.981 387.409 553.622 388.085C554.255 388.752 554.571 389.597 554.571 390.62C554.571 391.643 554.255 392.488 553.622 393.155C552.981 393.831 552.188 394.169 551.243 394.169C550.368 394.169 549.618 393.87 548.994 393.272V396.925ZM551.087 388.423C550.506 388.423 550.017 388.635 549.618 389.06C549.219 389.467 549.02 389.987 549.02 390.62C549.02 391.244 549.219 391.768 549.618 392.193C550.017 392.609 550.506 392.817 551.087 392.817C551.668 392.817 552.162 392.609 552.569 392.193C552.968 391.768 553.167 391.244 553.167 390.62C553.167 389.987 552.968 389.467 552.569 389.06C552.17 388.635 551.676 388.423 551.087 388.423ZM557.33 394.572L557.629 393.831L554.99 387.24H556.381L558.305 392.154L560.294 387.24H561.685L558.5 395.027C558.231 395.686 557.88 396.167 557.447 396.47C557.014 396.773 556.459 396.925 555.783 396.925H555.497V395.625H555.783C556.182 395.625 556.502 395.543 556.745 395.378C556.988 395.213 557.183 394.945 557.33 394.572ZM564 388.54V394H562.648V387.24H567.029V388.54H564ZM570.963 394.169C569.949 394.169 569.104 393.831 568.428 393.155C567.752 392.479 567.414 391.634 567.414 390.62C567.414 389.606 567.752 388.761 568.428 388.085C569.104 387.409 569.949 387.071 570.963 387.071C571.977 387.071 572.822 387.409 573.498 388.085C574.183 388.761 574.525 389.606 574.525 390.62C574.525 391.634 574.183 392.479 573.498 393.155C572.822 393.831 571.977 394.169 570.963 394.169ZM570.963 392.817C571.587 392.817 572.099 392.609 572.497 392.193C572.913 391.768 573.121 391.244 573.121 390.62C573.121 389.996 572.913 389.476 572.497 389.06C572.099 388.635 571.587 388.423 570.963 388.423C570.357 388.423 569.845 388.635 569.429 389.06C569.022 389.485 568.818 390.005 568.818 390.62C568.818 391.235 569.022 391.76 569.429 392.193C569.845 392.609 570.357 392.817 570.963 392.817ZM582.546 391.114H576.93C577.034 391.643 577.29 392.076 577.697 392.414C578.113 392.743 578.603 392.908 579.166 392.908C579.929 392.908 580.527 392.626 580.96 392.063L582.286 392.466C581.974 392.995 581.541 393.411 580.986 393.714C580.44 394.017 579.834 394.169 579.166 394.169C578.126 394.169 577.264 393.831 576.579 393.155C575.886 392.479 575.539 391.634 575.539 390.62C575.539 389.615 575.873 388.77 576.54 388.085C577.216 387.409 578.057 387.071 579.062 387.071C580.068 387.071 580.9 387.409 581.558 388.085C582.234 388.761 582.572 389.606 582.572 390.62C582.572 390.655 582.564 390.819 582.546 391.114ZM576.943 390.035H581.181C581.06 389.532 580.8 389.125 580.401 388.813C580.003 388.492 579.543 388.332 579.023 388.332C578.529 388.332 578.087 388.492 577.697 388.813C577.316 389.125 577.065 389.532 576.943 390.035ZM583.455 393.922C583.29 393.749 583.208 393.532 583.208 393.272C583.208 393.012 583.29 392.795 583.455 392.622C583.628 392.449 583.845 392.362 584.105 392.362C584.365 392.362 584.581 392.449 584.755 392.622C584.928 392.795 585.015 393.012 585.015 393.272C585.015 393.532 584.928 393.749 584.755 393.922C584.581 394.087 584.365 394.169 584.105 394.169C583.845 394.169 583.628 394.087 583.455 393.922ZM586.311 393.922C586.147 393.749 586.064 393.532 586.064 393.272C586.064 393.012 586.147 392.795 586.311 392.622C586.485 392.449 586.701 392.362 586.961 392.362C587.221 392.362 587.438 392.449 587.611 392.622C587.785 392.795 587.871 393.012 587.871 393.272C587.871 393.532 587.785 393.749 587.611 393.922C587.438 394.087 587.221 394.169 586.961 394.169C586.701 394.169 586.485 394.087 586.311 393.922ZM589.168 393.922C589.003 393.749 588.921 393.532 588.921 393.272C588.921 393.012 589.003 392.795 589.168 392.622C589.341 392.449 589.558 392.362 589.818 392.362C590.078 392.362 590.294 392.449 590.468 392.622C590.641 392.795 590.728 393.012 590.728 393.272C590.728 393.532 590.641 393.749 590.468 393.922C590.294 394.087 590.078 394.169 589.818 394.169C589.558 394.169 589.341 394.087 589.168 393.922Z" fill="white"/>
<g clip-path="url(#clip0_112_327)">
<g filter="url(#filter0_i_112_327)">
<path d="M608.688 0H427.284C415.428 0 405.816 8.88765 405.816 19.8511V326.551C405.816 337.514 415.428 346.402 427.284 346.402H608.688C620.544 346.402 630.156 337.514 630.156 326.551V19.8511C630.156 8.88765 620.544 0 608.688 0Z" fill="url(#paint0_linear_112_327)"/>
<path d="M608.688 2.48145H427.284C416.91 2.48145 408.5 10.2581 408.5 19.8512V326.551C408.5 336.144 416.91 343.921 427.284 343.921H608.688C619.062 343.921 627.472 336.144 627.472 326.551V19.8512C627.472 10.2581 619.062 2.48145 608.688 2.48145Z" stroke="white" stroke-width="5"/>
</g>
<path d="M430.414 19.8511H429.341V13.2778L427.191 14.0082V13.1125L430.247 12.0517H430.414V19.8511ZM434.029 15.9594L434.455 12.089H438.756V13.0006H435.36L435.107 15.1171C435.518 14.8932 435.985 14.7812 436.508 14.7812C437.272 14.7812 437.88 15.0158 438.329 15.485C438.779 15.9505 439.004 16.5813 439.004 17.3775C439.004 18.1772 438.77 18.808 438.301 19.2701C437.836 19.7285 437.184 19.9577 436.346 19.9577C435.604 19.9577 434.999 19.7676 434.53 19.3873C434.061 19.007 433.794 18.481 433.729 17.8093H434.738C434.803 18.2536 434.974 18.5894 435.251 18.8169C435.528 19.0408 435.893 19.1527 436.346 19.1527C436.842 19.1527 437.23 18.9963 437.511 18.6836C437.795 18.3708 437.937 17.939 437.937 17.3882C437.937 16.8693 437.784 16.4534 437.476 16.1406C437.173 15.8243 436.767 15.6662 436.26 15.6662C435.795 15.6662 435.43 15.7604 435.164 15.9488L434.882 16.162L434.029 15.9594ZM440.243 19.334C440.243 19.1634 440.297 19.0212 440.405 18.9075C440.516 18.7937 440.682 18.7369 440.901 18.7369C441.12 18.7369 441.285 18.7937 441.397 18.9075C441.512 19.0212 441.57 19.1634 441.57 19.334C441.57 19.4975 441.512 19.6343 441.397 19.7445C441.285 19.8547 441.12 19.9098 440.901 19.9098C440.682 19.9098 440.516 19.8547 440.405 19.7445C440.297 19.6343 440.243 19.4975 440.243 19.334ZM440.249 14.6266C440.249 14.4561 440.303 14.3138 440.411 14.2001C440.522 14.0864 440.687 14.0296 440.907 14.0296C441.126 14.0296 441.291 14.0864 441.402 14.2001C441.518 14.3138 441.575 14.4561 441.575 14.6266C441.575 14.7901 441.518 14.9269 441.402 15.0371C441.291 15.1473 441.126 15.2024 440.907 15.2024C440.687 15.2024 440.522 15.1473 440.411 15.0371C440.303 14.9269 440.249 14.7901 440.249 14.6266ZM448.292 16.5405C448.292 17.6956 448.079 18.5538 447.652 19.1154C447.225 19.6769 446.558 19.9577 445.651 19.9577C444.756 19.9577 444.093 19.6841 443.662 19.1368C443.232 18.5859 443.009 17.7649 442.994 16.6737V15.357C442.994 14.2162 443.207 13.3685 443.633 12.8141C444.06 12.2596 444.729 11.9824 445.64 11.9824C446.543 11.9824 447.208 12.2507 447.635 12.7874C448.061 13.3205 448.28 14.145 448.292 15.261V16.5405ZM447.225 15.1918C447.225 14.3565 447.099 13.7488 446.845 13.3685C446.591 12.9846 446.189 12.7927 445.64 12.7927C445.094 12.7927 444.696 12.9828 444.446 13.3632C444.197 13.7434 444.068 14.328 444.06 15.1171V16.6951C444.06 17.5339 444.191 18.154 444.452 18.5556C444.717 18.9537 445.117 19.1527 445.651 19.1527C446.178 19.1527 446.568 18.9644 446.822 18.5877C447.079 18.2109 447.214 17.6174 447.225 16.807V15.1918ZM454.922 16.5405C454.922 17.6956 454.709 18.5538 454.282 19.1154C453.855 19.6769 453.189 19.9577 452.282 19.9577C451.386 19.9577 450.723 19.6841 450.293 19.1368C449.862 18.5859 449.639 17.7649 449.624 16.6737V15.357C449.624 14.2162 449.837 13.3685 450.264 12.8141C450.69 12.2596 451.359 11.9824 452.27 11.9824C453.173 11.9824 453.838 12.2507 454.265 12.7874C454.691 13.3205 454.91 14.145 454.922 15.261V16.5405ZM453.855 15.1918C453.855 14.3565 453.729 13.7488 453.475 13.3685C453.221 12.9846 452.82 12.7927 452.27 12.7927C451.724 12.7927 451.326 12.9828 451.077 13.3632C450.827 13.7434 450.698 14.328 450.69 15.1171V16.6951C450.69 17.5339 450.821 18.154 451.082 18.5556C451.348 18.9537 451.747 19.1527 452.282 19.1527C452.808 19.1527 453.198 18.9644 453.452 18.5877C453.709 18.2109 453.844 17.6174 453.855 16.807V15.1918Z" fill="black" fill-opacity="0.8"/>
<g filter="url(#filter1_i_112_327)">
<path d="M640.89 67.4939H585.073C579.145 67.4939 574.339 71.9377 574.339 77.4195V95.2855C574.339 100.767 579.145 105.211 585.073 105.211H640.89C646.818 105.211 651.624 100.767 651.624 95.2855V77.4195C651.624 71.9377 646.818 67.4939 640.89 67.4939Z" fill="#F35888"/>
</g>
<path d="M593.243 82.2829H597.82C598.815 82.2829 599.652 82.5754 600.332 83.1603C601.011 83.7366 601.351 84.4549 601.351 85.3151C601.351 85.8829 601.193 86.4032 600.876 86.8764C600.559 87.3409 600.132 87.7022 599.592 87.9603L601.699 91.3151H599.243L597.36 88.3474H595.462V91.3151H593.243V82.2829ZM597.82 84.1667H595.462V86.4635H597.82C598.173 86.4635 598.466 86.356 598.699 86.1409C598.932 85.9173 599.048 85.642 599.048 85.3151C599.048 84.9883 598.932 84.7173 598.699 84.5022C598.466 84.2786 598.173 84.1667 597.82 84.1667ZM609.563 88.657H604.163C604.283 89.0097 604.502 89.2936 604.819 89.5087C605.134 89.7237 605.507 89.8312 605.935 89.8312C606.53 89.8312 607.009 89.6334 607.372 89.2377L609.396 89.6635C609.061 90.2312 608.586 90.6786 607.972 91.0054C607.367 91.3237 606.683 91.4828 605.921 91.4828C604.785 91.4828 603.842 91.1474 603.088 90.4764C602.335 89.8054 601.958 88.9667 601.958 87.9603C601.958 86.9625 602.325 86.128 603.06 85.457C603.795 84.7774 604.711 84.4377 605.809 84.4377C606.898 84.4377 607.809 84.7774 608.544 85.457C609.279 86.128 609.647 86.9625 609.647 87.9603C609.647 88.2012 609.619 88.4334 609.563 88.657ZM604.177 87.2248H607.512C607.381 86.8807 607.163 86.6054 606.856 86.399C606.549 86.1925 606.2 86.0893 605.809 86.0893C605.437 86.0893 605.102 86.1925 604.805 86.399C604.506 86.6054 604.297 86.8807 604.177 87.2248ZM612.587 91.3151H610.494V81.6377H612.587V91.3151ZM613.541 87.9603C613.541 86.9452 613.866 86.1065 614.518 85.4441C615.168 84.7732 615.987 84.4377 616.974 84.4377C617.718 84.4377 618.387 84.6441 618.983 85.057V84.6054H621.062V91.3151H618.983V90.8506C618.406 91.2721 617.736 91.4828 616.974 91.4828C615.987 91.4828 615.168 91.1474 614.518 90.4764C613.866 89.7968 613.541 88.9581 613.541 87.9603ZM617.337 86.3474C616.88 86.3474 616.494 86.5022 616.178 86.8119C615.871 87.1216 615.718 87.5 615.718 87.9474C615.718 88.4119 615.871 88.799 616.178 89.1087C616.494 89.4183 616.88 89.5732 617.337 89.5732C617.783 89.5732 618.164 89.4183 618.481 89.1087C618.796 88.799 618.955 88.4119 618.955 87.9474C618.955 87.4915 618.796 87.1129 618.481 86.8119C618.164 86.5022 617.783 86.3474 617.337 86.3474ZM627.082 91.3151L625.631 89.3667L624.193 91.3151H621.738L624.389 87.857L621.891 84.6054H624.333L625.631 86.3474L626.928 84.6054H629.37L626.887 87.857L629.524 91.3151H627.082Z" fill="white"/>
<path d="M567.412 62.2283C567.179 61.4801 567.926 60.787 568.735 60.9993L576.567 63.0516C577.355 63.258 577.612 64.1709 577.035 64.7071L571.451 69.8888C570.874 70.425 569.885 70.1898 569.66 69.4623L567.412 62.2283Z" fill="#F35888"/>
<g filter="url(#filter2_i_112_327)">
<path d="M450.899 83.3748H368.248C362.319 83.3748 357.514 87.8186 357.514 93.3003V112.159C357.514 117.641 362.319 122.084 368.248 122.084H450.899C456.827 122.084 461.633 117.641 461.633 112.159V93.3003C461.633 87.8186 456.827 83.3748 450.899 83.3748Z" fill="#F6BD11"/>
</g>
<path d="M367.349 92.6055H373.524V94.1995H369.226V95.6189H372.84V97.2129H369.226V100.248H367.349V92.6055ZM373.685 97.4094C373.685 96.5506 373.961 95.8409 374.512 95.2804C375.063 94.7127 375.755 94.4288 376.59 94.4288C377.22 94.4288 377.786 94.6035 378.29 94.9529V94.5707H380.049V100.248H378.29V99.8551C377.802 100.211 377.235 100.39 376.59 100.39C375.755 100.39 375.063 100.106 374.512 99.5385C373.961 98.9635 373.685 98.2538 373.685 97.4094ZM376.897 96.0447C376.511 96.0447 376.184 96.1757 375.917 96.4377C375.657 96.6998 375.527 97.0201 375.527 97.3985C375.527 97.7916 375.657 98.1191 375.917 98.3812C376.184 98.6432 376.511 98.7742 376.897 98.7742C377.275 98.7742 377.597 98.6432 377.865 98.3812C378.133 98.1191 378.266 97.7916 378.266 97.3985C378.266 97.0127 378.133 96.6925 377.865 96.4377C377.597 96.1757 377.275 96.0447 376.897 96.0447ZM387.245 96.3831L385.462 96.8635C385.352 96.6161 385.179 96.4196 384.942 96.274C384.706 96.1211 384.439 96.0447 384.14 96.0447C383.73 96.0447 383.388 96.1757 383.112 96.4377C382.837 96.6925 382.699 97.0127 382.699 97.3985C382.699 97.7916 382.837 98.1191 383.112 98.3812C383.388 98.6432 383.73 98.7742 384.14 98.7742C384.439 98.7742 384.706 98.7015 384.942 98.5558C385.179 98.403 385.352 98.2028 385.462 97.9554L387.245 98.4358C387.009 99.0326 386.611 99.5097 386.052 99.866C385.494 100.215 384.856 100.39 384.14 100.39C383.195 100.39 382.412 100.106 381.79 99.5385C381.168 98.9635 380.857 98.2538 380.857 97.4094C380.857 96.5578 381.168 95.8482 381.79 95.2804C382.412 94.7127 383.195 94.4288 384.14 94.4288C384.856 94.4288 385.494 94.6072 386.052 94.9638C386.611 95.3132 387.009 95.7863 387.245 96.3831ZM394.164 97.999H389.595C389.697 98.2975 389.882 98.5377 390.15 98.7196C390.418 98.9016 390.732 98.9926 391.095 98.9926C391.598 98.9926 392.004 98.8251 392.311 98.4903L394.023 98.8506C393.739 99.331 393.338 99.7092 392.818 99.9861C392.307 100.255 391.728 100.39 391.083 100.39C390.122 100.39 389.323 100.106 388.686 99.5385C388.048 98.9707 387.729 98.2611 387.729 97.4094C387.729 96.5651 388.04 95.8591 388.662 95.2913C389.284 94.7163 390.059 94.4288 390.988 94.4288C391.909 94.4288 392.681 94.7163 393.303 95.2913C393.924 95.8591 394.235 96.5651 394.235 97.4094C394.235 97.6132 394.212 97.8097 394.164 97.999ZM389.607 96.7871H392.429C392.319 96.496 392.134 96.263 391.874 96.0884C391.614 95.9137 391.319 95.8263 390.988 95.8263C390.673 95.8263 390.39 95.9137 390.138 96.0884C389.886 96.263 389.709 96.496 389.607 96.7871ZM394.952 100.248V92.0596H396.723V94.9529C397.211 94.6035 397.774 94.4288 398.412 94.4288C399.238 94.4288 399.931 94.7127 400.49 95.2804C401.049 95.8554 401.328 96.5651 401.328 97.4094C401.328 98.2465 401.049 98.9562 400.49 99.5385C399.931 100.106 399.238 100.39 398.412 100.39C397.79 100.39 397.227 100.215 396.723 99.866V100.248H394.952ZM398.116 96.0447C397.731 96.0447 397.404 96.1757 397.136 96.4377C396.877 96.6998 396.747 97.0201 396.747 97.3985C396.747 97.7916 396.877 98.1191 397.136 98.3812C397.404 98.6432 397.731 98.7742 398.116 98.7742C398.494 98.7742 398.813 98.6432 399.073 98.3812C399.34 98.1191 399.474 97.7916 399.474 97.3985C399.474 97.0127 399.34 96.6925 399.073 96.4377C398.813 96.1757 398.494 96.0447 398.116 96.0447ZM402.868 99.5385C402.246 98.9635 401.935 98.2538 401.935 97.4094C401.935 96.5651 402.246 95.8591 402.868 95.2913C403.49 94.7163 404.273 94.4288 405.218 94.4288C406.154 94.4288 406.934 94.7163 407.555 95.2913C408.185 95.8591 408.5 96.5651 408.5 97.4094C408.5 98.2465 408.185 98.9562 407.555 99.5385C406.926 100.106 406.146 100.39 405.218 100.39C404.273 100.39 403.49 100.106 402.868 99.5385ZM405.218 98.7742C405.627 98.7742 405.965 98.6432 406.233 98.3812C406.516 98.1119 406.658 97.7879 406.658 97.4094C406.658 97.031 406.516 96.7107 406.233 96.4487C405.965 96.1794 405.627 96.0447 405.218 96.0447C404.808 96.0447 404.466 96.1757 404.19 96.4377C403.915 96.707 403.777 97.031 403.777 97.4094C403.777 97.7879 403.915 98.1119 404.19 98.3812C404.466 98.6432 404.808 98.7742 405.218 98.7742ZM410.04 99.5385C409.418 98.9635 409.107 98.2538 409.107 97.4094C409.107 96.5651 409.418 95.8591 410.04 95.2913C410.662 94.7163 411.445 94.4288 412.39 94.4288C413.326 94.4288 414.106 94.7163 414.727 95.2913C415.357 95.8591 415.672 96.5651 415.672 97.4094C415.672 98.2465 415.357 98.9562 414.727 99.5385C414.098 100.106 413.318 100.39 412.39 100.39C411.445 100.39 410.662 100.106 410.04 99.5385ZM412.39 98.7742C412.799 98.7742 413.137 98.6432 413.405 98.3812C413.688 98.1119 413.83 97.7879 413.83 97.4094C413.83 97.031 413.688 96.7107 413.405 96.4487C413.137 96.1794 412.799 96.0447 412.39 96.0447C411.98 96.0447 411.638 96.1757 411.362 96.4377C411.087 96.707 410.949 97.031 410.949 97.4094C410.949 97.7879 411.087 98.1119 411.362 98.3812C411.638 98.6432 411.98 98.7742 412.39 98.7742ZM416.468 100.248V92.0596H418.239V96.798L419.975 94.5707H422.065L419.939 97.3112L422.289 100.248H420.164L418.239 97.8134V100.248H416.468ZM427.521 102.705H425.75V94.5707H427.521V94.9529C428.009 94.6035 428.572 94.4288 429.21 94.4288C430.036 94.4288 430.729 94.7127 431.288 95.2804C431.847 95.8554 432.126 96.5651 432.126 97.4094C432.126 98.2465 431.847 98.9562 431.288 99.5385C430.729 100.106 430.036 100.39 429.21 100.39C428.588 100.39 428.025 100.215 427.521 99.866V102.705ZM428.915 96.0447C428.529 96.0447 428.202 96.1757 427.935 96.4377C427.675 96.6998 427.545 97.0273 427.545 97.4204C427.545 97.7988 427.675 98.1191 427.935 98.3812C428.202 98.6432 428.529 98.7742 428.915 98.7742C429.292 98.7742 429.611 98.6432 429.871 98.3812C430.139 98.1264 430.272 97.8062 430.272 97.4204C430.272 97.0273 430.139 96.6998 429.871 96.4377C429.611 96.1757 429.292 96.0447 428.915 96.0447ZM434.693 100.248H432.922V94.5707H434.693V100.248ZM433.017 93.8829C432.812 93.6936 432.71 93.4534 432.71 93.1623C432.71 92.8712 432.812 92.631 433.017 92.4417C433.237 92.2524 433.501 92.1578 433.808 92.1578C434.123 92.1578 434.382 92.2524 434.587 92.4417C434.8 92.6236 434.906 92.8638 434.906 93.1623C434.906 93.4608 434.8 93.701 434.587 93.8829C434.382 94.0722 434.123 94.1668 433.808 94.1668C433.501 94.1668 433.237 94.0722 433.017 93.8829ZM439.787 100.248L438.559 98.5995L437.343 100.248H435.265L437.508 97.3221L435.394 94.5707H437.461L438.559 96.0447L439.657 94.5707H441.723L439.622 97.3221L441.853 100.248H439.787ZM448.22 97.999H443.65C443.753 98.2975 443.938 98.5377 444.205 98.7196C444.473 98.9016 444.788 98.9926 445.15 98.9926C445.654 98.9926 446.059 98.8251 446.366 98.4903L448.078 98.8506C447.795 99.331 447.393 99.7092 446.874 99.9861C446.362 100.255 445.784 100.39 445.138 100.39C444.178 100.39 443.379 100.106 442.741 99.5385C442.104 98.9707 441.785 98.2611 441.785 97.4094C441.785 96.5651 442.096 95.8591 442.718 95.2913C443.34 94.7163 444.115 94.4288 445.044 94.4288C445.965 94.4288 446.736 94.7163 447.358 95.2913C447.98 95.8591 448.291 96.5651 448.291 97.4094C448.291 97.6132 448.267 97.8097 448.22 97.999ZM443.662 96.7871H446.484C446.374 96.496 446.189 96.263 445.929 96.0884C445.669 95.9137 445.374 95.8263 445.044 95.8263C444.729 95.8263 444.445 95.9137 444.194 96.0884C443.942 96.263 443.765 96.496 443.662 96.7871ZM450.779 100.248H449.008V92.0596H450.779V100.248ZM393.036 105.606L393.213 105.409H394.346L394.146 105.639C394.067 105.726 393.925 105.951 393.721 106.316C393.303 107.021 392.981 107.881 392.752 108.892C392.5 110.108 392.496 111.331 392.741 112.561C392.882 113.194 393.032 113.692 393.189 114.057C393.543 114.879 393.87 115.469 394.169 115.825L394.346 116.055H393.213L393.201 116.044C392.571 115.374 392.099 114.468 391.784 113.325C391.556 112.502 391.442 111.637 391.442 110.727C391.442 109.388 391.65 108.237 392.068 107.276C392.414 106.475 392.737 105.919 393.036 105.606ZM400.931 108.063L399.621 108.423C399.55 108.176 399.369 107.968 399.078 107.801C398.786 107.626 398.448 107.538 398.062 107.538C397.637 107.538 397.283 107.633 397 107.822C396.716 108.004 396.575 108.237 396.575 108.521C396.527 108.768 396.728 109.016 397.177 109.264C397.255 109.307 397.409 109.366 397.637 109.438C397.928 109.526 398.098 109.576 398.145 109.591L398.771 109.755C399.393 109.908 399.92 110.104 400.353 110.344C400.935 110.672 401.227 111.2 401.227 111.928C401.227 112.633 400.943 113.205 400.377 113.642C399.802 114.071 399.074 114.286 398.192 114.286C397.389 114.286 396.7 114.115 396.126 113.773C395.559 113.423 395.193 112.987 395.028 112.463L396.338 112.08C396.409 112.371 396.614 112.615 396.952 112.812C397.299 113.008 397.712 113.107 398.192 113.107C398.68 113.107 399.086 113.008 399.408 112.812C399.731 112.608 399.892 112.346 399.892 112.026C399.892 111.814 399.802 111.633 399.621 111.48C399.463 111.334 399.302 111.229 399.137 111.163C398.971 111.091 398.723 111.014 398.393 110.934C397.393 110.665 396.732 110.454 396.409 110.301C395.638 109.915 395.252 109.351 395.252 108.608C395.252 107.938 395.512 107.397 396.031 106.982C396.551 106.567 397.22 106.359 398.039 106.359C398.763 106.359 399.389 106.523 399.916 106.851C400.436 107.163 400.774 107.567 400.931 108.063ZM405.352 114.286C404.431 114.286 403.664 114.002 403.05 113.434C402.436 112.867 402.129 112.157 402.129 111.305C402.129 110.454 402.436 109.744 403.05 109.176C403.664 108.608 404.431 108.325 405.352 108.325C406.273 108.325 407.041 108.608 407.655 109.176C408.277 109.744 408.588 110.454 408.588 111.305C408.588 112.157 408.277 112.867 407.655 113.434C407.041 114.002 406.273 114.286 405.352 114.286ZM405.352 113.15C405.919 113.15 406.384 112.976 406.746 112.626C407.123 112.27 407.312 111.829 407.312 111.305C407.312 110.781 407.123 110.344 406.746 109.995C406.384 109.639 405.919 109.46 405.352 109.46C404.801 109.46 404.337 109.639 403.959 109.995C403.589 110.351 403.404 110.788 403.404 111.305C403.404 111.822 403.589 112.262 403.959 112.626C404.337 112.976 404.801 113.15 405.352 113.15ZM412.732 114.286C411.811 114.286 411.043 114.002 410.429 113.434C409.816 112.867 409.509 112.157 409.509 111.305C409.509 110.454 409.816 109.744 410.429 109.176C411.043 108.608 411.811 108.325 412.732 108.325C413.653 108.325 414.42 108.608 415.034 109.176C415.656 109.744 415.967 110.454 415.967 111.305C415.967 112.157 415.656 112.867 415.034 113.434C414.42 114.002 413.653 114.286 412.732 114.286ZM412.732 113.15C413.299 113.15 413.763 112.976 414.125 112.626C414.503 112.27 414.692 111.829 414.692 111.305C414.692 110.781 414.503 110.344 414.125 109.995C413.763 109.639 413.299 109.46 412.732 109.46C412.181 109.46 411.716 109.639 411.339 109.995C410.969 110.351 410.784 110.788 410.784 111.305C410.784 111.822 410.969 112.262 411.339 112.626C411.716 112.976 412.181 113.15 412.732 113.15ZM417.16 114.144V108.467H418.388V109.296C418.836 108.648 419.509 108.325 420.407 108.325C421.115 108.325 421.698 108.536 422.154 108.958C422.619 109.388 422.851 109.919 422.851 110.552V114.144H421.623V110.879C421.623 110.458 421.473 110.108 421.174 109.831C420.875 109.547 420.497 109.405 420.041 109.405C419.568 109.405 419.175 109.547 418.86 109.831C418.545 110.115 418.388 110.469 418.388 110.89V114.144H417.16ZM423.907 105.628L423.73 105.409H424.875L425.064 105.617C425.143 105.704 425.285 105.912 425.489 106.239C425.718 106.61 425.899 106.964 426.033 107.298C426.19 107.676 426.332 108.172 426.458 108.783C426.584 109.388 426.647 110.035 426.647 110.727C426.647 111.971 426.458 113.074 426.08 114.035C425.93 114.421 425.761 114.77 425.572 115.083C425.367 115.417 425.222 115.64 425.135 115.749C425.057 115.873 424.974 115.971 424.887 116.044L424.875 116.055H423.73L423.919 115.814C424.021 115.698 424.167 115.472 424.356 115.137C424.545 114.817 424.722 114.454 424.887 114.046C425.037 113.66 425.178 113.168 425.312 112.572C425.58 111.371 425.584 110.148 425.324 108.903C425.206 108.299 425.06 107.801 424.887 107.407C424.557 106.621 424.23 106.028 423.907 105.628Z" fill="white"/>
<path d="M467.353 79.2213C468.178 79.0602 468.872 79.7983 468.586 80.5302L465.814 87.6074C465.536 88.3191 464.532 88.492 463.995 87.9209L458.803 82.4025C458.266 81.8314 458.59 80.9367 459.391 80.78L467.353 79.2213Z" fill="#F6BD11"/>
<g filter="url(#filter3_i_112_327)">
<path d="M557.165 128.04H479.881C473.953 128.04 469.147 132.484 469.147 137.965V158.809C469.147 164.291 473.953 168.735 479.881 168.735H557.165C563.093 168.735 567.899 164.291 567.899 158.809V137.965C567.899 132.484 563.093 128.04 557.165 128.04Z" fill="#2D6EFD"/>
</g>
<path d="M502.442 144.913H497.87V136.576H502.185C502.949 136.576 503.589 136.79 504.104 137.219C504.619 137.632 504.877 138.16 504.877 138.803C504.877 139.502 504.559 140.074 503.924 140.518C504.344 140.725 504.675 141.011 504.915 141.376C505.156 141.733 505.276 142.126 505.276 142.555C505.276 143.23 505.006 143.794 504.465 144.246C503.915 144.691 503.241 144.913 502.442 144.913ZM502.442 141.221H499.312V143.675H502.442C502.82 143.675 503.138 143.559 503.395 143.329C503.653 143.091 503.782 142.797 503.782 142.448C503.782 142.098 503.653 141.809 503.395 141.578C503.138 141.34 502.82 141.221 502.442 141.221ZM502.185 137.814H499.312V139.982H502.185C502.528 139.982 502.812 139.879 503.035 139.673C503.258 139.466 503.37 139.208 503.37 138.898C503.37 138.589 503.258 138.331 503.035 138.124C502.812 137.918 502.528 137.814 502.185 137.814ZM507.976 144.913H506.636V138.72H507.976V144.913ZM506.675 137.803C506.512 137.644 506.43 137.449 506.43 137.219C506.43 136.989 506.512 136.794 506.675 136.635C506.846 136.477 507.057 136.397 507.306 136.397C507.555 136.397 507.765 136.477 507.937 136.635C508.109 136.794 508.195 136.989 508.195 137.219C508.195 137.449 508.109 137.644 507.937 137.803C507.765 137.961 507.555 138.041 507.306 138.041C507.057 138.041 506.846 137.961 506.675 137.803ZM509.566 144.913V138.72H510.906V139.625C511.395 138.918 512.13 138.565 513.109 138.565C513.881 138.565 514.517 138.795 515.015 139.256C515.522 139.724 515.775 140.304 515.775 140.995V144.913H514.435V141.352C514.435 140.891 514.272 140.51 513.946 140.209C513.62 139.899 513.207 139.744 512.709 139.744C512.194 139.744 511.765 139.899 511.421 140.209C511.078 140.518 510.906 140.903 510.906 141.364V144.913H509.566ZM520.586 145.068C519.581 145.068 518.744 144.758 518.074 144.139C517.404 143.52 517.069 142.745 517.069 141.816C517.069 140.887 517.404 140.113 518.074 139.494C518.744 138.875 519.581 138.565 520.586 138.565C521.591 138.565 522.428 138.875 523.098 139.494C523.776 140.113 524.115 140.887 524.115 141.816C524.115 142.745 523.776 143.52 523.098 144.139C522.428 144.758 521.591 145.068 520.586 145.068ZM520.586 143.829C521.204 143.829 521.711 143.639 522.106 143.258C522.518 142.869 522.724 142.388 522.724 141.816C522.724 141.245 522.518 140.768 522.106 140.387C521.711 139.998 521.204 139.804 520.586 139.804C519.985 139.804 519.478 139.998 519.066 140.387C518.662 140.776 518.461 141.253 518.461 141.816C518.461 142.38 518.662 142.861 519.066 143.258C519.478 143.639 519.985 143.829 520.586 143.829ZM524.721 140.268V138.72H525.635V137.517H527.567V138.72H529.087V140.268H527.567V142.591C527.567 142.781 527.636 142.94 527.773 143.067C527.911 143.186 528.087 143.246 528.301 143.246H529.087V144.913H527.979C527.318 144.913 526.76 144.727 526.305 144.353C525.858 143.972 525.635 143.5 525.635 142.936V140.268H524.721ZM536.715 142.46H531.73C531.841 142.785 532.043 143.047 532.335 143.246C532.627 143.444 532.971 143.543 533.366 143.543C533.915 143.543 534.358 143.361 534.692 142.996L536.56 143.389C536.251 143.913 535.813 144.326 535.246 144.627C534.688 144.921 534.057 145.068 533.353 145.068C532.305 145.068 531.434 144.758 530.738 144.139C530.042 143.52 529.695 142.745 529.695 141.816C529.695 140.895 530.034 140.125 530.712 139.506C531.391 138.878 532.236 138.565 533.25 138.565C534.254 138.565 535.096 138.878 535.774 139.506C536.453 140.125 536.792 140.895 536.792 141.816C536.792 142.039 536.766 142.253 536.715 142.46ZM531.743 141.138H534.821C534.701 140.82 534.499 140.566 534.216 140.375C533.932 140.185 533.61 140.089 533.25 140.089C532.906 140.089 532.597 140.185 532.322 140.375C532.048 140.566 531.854 140.82 531.743 141.138ZM539.506 144.913H537.573V135.98H539.506V144.913ZM501.067 151.48L501.26 151.266H502.497L502.278 151.516C502.192 151.611 502.038 151.857 501.814 152.254C501.359 153.024 501.007 153.961 500.758 155.065C500.483 156.391 500.479 157.725 500.745 159.067C500.9 159.758 501.063 160.302 501.235 160.699C501.621 161.596 501.978 162.239 502.304 162.628L502.497 162.878H501.26L501.248 162.867C500.561 162.136 500.045 161.147 499.702 159.901C499.453 159.004 499.328 158.059 499.328 157.066C499.328 155.605 499.556 154.35 500.011 153.302C500.389 152.429 500.741 151.821 501.067 151.48ZM509.681 154.16L508.251 154.553C508.174 154.283 507.977 154.057 507.659 153.874C507.341 153.683 506.972 153.588 506.551 153.588C506.088 153.588 505.701 153.691 505.392 153.898C505.083 154.096 504.928 154.35 504.928 154.66C504.877 154.93 505.096 155.2 505.585 155.47C505.671 155.518 505.838 155.581 506.088 155.661C506.405 155.756 506.59 155.811 506.641 155.827L507.324 156.006C508.002 156.173 508.578 156.387 509.05 156.649C509.686 157.007 510.003 157.582 510.003 158.376C510.003 159.146 509.694 159.77 509.076 160.246C508.449 160.715 507.655 160.949 506.693 160.949C505.817 160.949 505.066 160.762 504.439 160.389C503.821 160.008 503.421 159.532 503.241 158.96L504.671 158.543C504.748 158.861 504.971 159.127 505.34 159.341C505.718 159.555 506.169 159.663 506.693 159.663C507.225 159.663 507.668 159.555 508.02 159.341C508.372 159.119 508.548 158.833 508.548 158.483C508.548 158.253 508.449 158.055 508.251 157.888C508.08 157.729 507.904 157.614 507.723 157.543C507.543 157.463 507.273 157.38 506.912 157.292C505.821 156.999 505.1 156.768 504.748 156.602C503.906 156.181 503.486 155.565 503.486 154.755C503.486 154.025 503.769 153.433 504.336 152.981C504.903 152.528 505.632 152.302 506.525 152.302C507.315 152.302 507.998 152.48 508.574 152.838C509.14 153.179 509.51 153.62 509.681 154.16ZM514.504 160.949C513.499 160.949 512.662 160.639 511.992 160.02C511.322 159.401 510.988 158.626 510.988 157.697C510.988 156.768 511.322 155.994 511.992 155.375C512.662 154.755 513.499 154.446 514.504 154.446C515.509 154.446 516.346 154.755 517.016 155.375C517.694 155.994 518.033 156.768 518.033 157.697C518.033 158.626 517.694 159.401 517.016 160.02C516.346 160.639 515.509 160.949 514.504 160.949ZM514.504 159.71C515.122 159.71 515.629 159.52 516.024 159.139C516.436 158.749 516.642 158.269 516.642 157.697C516.642 157.126 516.436 156.649 516.024 156.268C515.629 155.879 515.122 155.684 514.504 155.684C513.903 155.684 513.396 155.879 512.984 156.268C512.58 156.657 512.379 157.134 512.379 157.697C512.379 158.261 512.58 158.742 512.984 159.139C513.396 159.52 513.903 159.71 514.504 159.71ZM522.554 160.949C521.55 160.949 520.713 160.639 520.043 160.02C519.373 159.401 519.038 158.626 519.038 157.697C519.038 156.768 519.373 155.994 520.043 155.375C520.713 154.755 521.55 154.446 522.554 154.446C523.559 154.446 524.396 154.755 525.066 155.375C525.745 155.994 526.084 156.768 526.084 157.697C526.084 158.626 525.745 159.401 525.066 160.02C524.396 160.639 523.559 160.949 522.554 160.949ZM522.554 159.71C523.173 159.71 523.679 159.52 524.074 159.139C524.487 158.749 524.693 158.269 524.693 157.697C524.693 157.126 524.487 156.649 524.074 156.268C523.679 155.879 523.173 155.684 522.554 155.684C521.953 155.684 521.447 155.879 521.035 156.268C520.631 156.657 520.429 157.134 520.429 157.697C520.429 158.261 520.631 158.742 521.035 159.139C521.447 159.52 521.953 159.71 522.554 159.71ZM527.385 160.794V154.601H528.724V155.506C529.214 154.799 529.948 154.446 530.927 154.446C531.7 154.446 532.335 154.676 532.833 155.137C533.34 155.605 533.593 156.185 533.593 156.876V160.794H532.254V157.233C532.254 156.772 532.091 156.391 531.764 156.089C531.438 155.78 531.026 155.625 530.528 155.625C530.012 155.625 529.583 155.78 529.24 156.089C528.896 156.399 528.724 156.784 528.724 157.245V160.794H527.385ZM534.745 151.504L534.552 151.266H535.801L536.007 151.492C536.093 151.587 536.248 151.813 536.471 152.171C536.72 152.576 536.918 152.961 537.064 153.326C537.235 153.739 537.39 154.279 537.527 154.946C537.665 155.605 537.733 156.312 537.733 157.066C537.733 158.424 537.527 159.627 537.115 160.675C536.952 161.096 536.767 161.477 536.561 161.818C536.338 162.184 536.179 162.426 536.085 162.545C535.999 162.68 535.909 162.787 535.814 162.867L535.801 162.878H534.552L534.758 162.616C534.87 162.489 535.028 162.243 535.234 161.878C535.441 161.529 535.634 161.132 535.814 160.687C535.977 160.266 536.132 159.73 536.278 159.079C536.57 157.769 536.574 156.435 536.291 155.077C536.162 154.418 536.003 153.874 535.814 153.445C535.453 152.588 535.097 151.941 534.745 151.504Z" fill="white"/>
<g filter="url(#filter4_i_112_327)">
<path d="M643.716 182.166H600.78C594.852 182.166 590.046 186.61 590.046 192.091V209.957C590.046 215.439 594.852 219.883 600.78 219.883H643.716C649.644 219.883 654.45 215.439 654.45 209.957V192.091C654.45 186.61 649.644 182.166 643.716 182.166Z" fill="#41D3ED"/>
</g>
<path d="M607.918 198.807C607.918 198.553 607.797 198.339 607.557 198.164C607.325 197.989 607.042 197.902 606.707 197.902C606.372 197.902 606.067 198.001 605.792 198.2C605.517 198.398 605.303 198.668 605.148 199.01L603.332 198.211C603.641 197.568 604.092 197.068 604.685 196.711C605.286 196.345 605.96 196.163 606.707 196.163C607.617 196.163 608.386 196.417 609.012 196.925C609.639 197.425 609.953 198.033 609.953 198.747C609.953 199.605 609.3 200.59 607.995 201.701L606.578 202.916H610.017V204.655H603.564V203.297L606.797 200.486C607.544 199.835 607.918 199.276 607.918 198.807ZM614.012 201.558C614.012 200.621 614.313 199.847 614.914 199.236C615.515 198.616 616.271 198.307 617.181 198.307C617.868 198.307 618.486 198.497 619.036 198.878V195.722H620.955V204.655H619.036V204.226C618.503 204.615 617.885 204.81 617.181 204.81C616.271 204.81 615.515 204.5 614.914 203.881C614.313 203.254 614.012 202.479 614.012 201.558ZM617.516 200.07C617.095 200.07 616.739 200.212 616.447 200.498C616.163 200.784 616.022 201.134 616.022 201.546C616.022 201.975 616.163 202.333 616.447 202.618C616.739 202.904 617.095 203.047 617.516 203.047C617.928 203.047 618.28 202.904 618.572 202.618C618.864 202.333 619.01 201.975 619.01 201.546C619.01 201.126 618.864 200.776 618.572 200.498C618.28 200.212 617.928 200.07 617.516 200.07ZM622.855 203.881C622.177 203.254 621.837 202.479 621.837 201.558C621.837 200.637 622.177 199.867 622.855 199.248C623.533 198.62 624.388 198.307 625.418 198.307C626.44 198.307 627.29 198.62 627.969 199.248C628.656 199.867 628.999 200.637 628.999 201.558C628.999 202.472 628.656 203.246 627.969 203.881C627.282 204.5 626.432 204.81 625.418 204.81C624.388 204.81 623.533 204.5 622.855 203.881ZM625.418 203.047C625.865 203.047 626.234 202.904 626.526 202.618C626.835 202.325 626.99 201.971 626.99 201.558C626.99 201.145 626.835 200.796 626.526 200.51C626.234 200.216 625.865 200.07 625.418 200.07C624.972 200.07 624.598 200.212 624.298 200.498C623.997 200.792 623.847 201.145 623.847 201.558C623.847 201.971 623.997 202.325 624.298 202.618C624.598 202.904 624.972 203.047 625.418 203.047Z" fill="white"/>
<path d="M639.217 200.439L637.272 200.963C637.151 200.693 636.962 200.478 636.705 200.32C636.447 200.153 636.155 200.069 635.829 200.069C635.382 200.069 635.009 200.212 634.708 200.498C634.408 200.776 634.257 201.125 634.257 201.546C634.257 201.975 634.408 202.332 634.708 202.618C635.009 202.904 635.382 203.047 635.829 203.047C636.155 203.047 636.447 202.968 636.705 202.809C636.962 202.642 637.151 202.424 637.272 202.154L639.217 202.678C638.959 203.329 638.525 203.849 637.916 204.238C637.306 204.619 636.61 204.81 635.829 204.81C634.798 204.81 633.944 204.5 633.266 203.881C632.587 203.254 632.248 202.479 632.248 201.558C632.248 200.629 632.587 199.855 633.266 199.236C633.944 198.616 634.798 198.307 635.829 198.307C636.61 198.307 637.306 198.501 637.916 198.89C638.525 199.271 638.959 199.788 639.217 200.439Z" fill="#036D78"/>
<path d="M582.824 176.808C582.592 176.06 583.339 175.366 584.149 175.578L591.981 177.631C592.767 177.837 593.026 178.75 592.447 179.286L586.865 184.467C586.286 185.004 585.299 184.769 585.072 184.042L582.824 176.808Z" fill="#41D3ED"/>
<g filter="url(#filter5_i_112_327)">
<path d="M677.385 252.109H629.083C623.154 252.109 618.349 256.553 618.349 262.035V280.893C618.349 286.375 623.154 290.819 629.083 290.819H677.385C683.314 290.819 688.119 286.375 688.119 280.893V262.035C688.119 256.553 683.314 252.109 677.385 252.109Z" fill="#2D6EFD"/>
</g>
<path d="M634.541 268.743L632.992 269.169C632.908 268.876 632.694 268.631 632.35 268.434C632.005 268.227 631.606 268.124 631.15 268.124C630.647 268.124 630.229 268.236 629.894 268.459C629.559 268.675 629.391 268.95 629.391 269.285C629.336 269.578 629.573 269.87 630.103 270.163C630.197 270.214 630.378 270.283 630.647 270.369C630.992 270.472 631.192 270.533 631.247 270.55L631.987 270.743C632.722 270.924 633.345 271.156 633.857 271.44C634.545 271.827 634.889 272.45 634.889 273.311C634.889 274.146 634.554 274.821 633.885 275.337C633.205 275.844 632.345 276.098 631.303 276.098C630.354 276.098 629.541 275.896 628.861 275.492C628.191 275.079 627.759 274.563 627.563 273.943L629.112 273.492C629.196 273.836 629.438 274.124 629.838 274.356C630.247 274.588 630.735 274.705 631.303 274.705C631.88 274.705 632.359 274.588 632.74 274.356C633.122 274.115 633.313 273.805 633.313 273.427C633.313 273.178 633.205 272.963 632.992 272.782C632.806 272.61 632.615 272.485 632.42 272.408C632.224 272.321 631.931 272.231 631.54 272.137C630.359 271.818 629.577 271.569 629.196 271.388C628.285 270.933 627.829 270.266 627.829 269.388C627.829 268.597 628.136 267.956 628.75 267.466C629.364 266.976 630.155 266.73 631.122 266.73C631.977 266.73 632.717 266.924 633.341 267.311C633.954 267.681 634.355 268.159 634.541 268.743ZM637.837 275.93H636.386V269.221H637.837V275.93ZM636.428 268.227C636.25 268.055 636.162 267.844 636.162 267.595C636.162 267.346 636.25 267.134 636.428 266.963C636.613 266.791 636.842 266.705 637.111 266.705C637.381 266.705 637.609 266.791 637.795 266.963C637.981 267.134 638.074 267.346 638.074 267.595C638.074 267.844 637.981 268.055 637.795 268.227C637.609 268.399 637.381 268.485 637.111 268.485C636.842 268.485 636.613 268.399 636.428 268.227ZM641.012 278.834H639.561V269.221H641.012V269.943C641.682 269.35 642.487 269.053 643.426 269.053C644.44 269.053 645.292 269.388 645.98 270.059C646.659 270.721 646.998 271.56 646.998 272.576C646.998 273.591 646.659 274.43 645.98 275.092C645.292 275.763 644.44 276.098 643.426 276.098C642.487 276.098 641.682 275.801 641.012 275.208V278.834ZM643.259 270.395C642.635 270.395 642.11 270.605 641.682 271.027C641.254 271.431 641.04 271.947 641.04 272.576C641.04 273.195 641.254 273.715 641.682 274.137C642.11 274.55 642.635 274.756 643.259 274.756C643.882 274.756 644.413 274.55 644.849 274.137C645.278 273.715 645.491 273.195 645.491 272.576C645.491 271.947 645.278 271.431 644.849 271.027C644.421 270.605 643.891 270.395 643.259 270.395ZM658.851 268.743L657.302 269.169C657.218 268.876 657.005 268.631 656.66 268.434C656.316 268.227 655.916 268.124 655.46 268.124C654.958 268.124 654.539 268.236 654.204 268.459C653.869 268.675 653.702 268.95 653.702 269.285C653.646 269.578 653.883 269.87 654.413 270.163C654.507 270.214 654.688 270.283 654.958 270.369C655.302 270.472 655.502 270.533 655.558 270.55L656.297 270.743C657.032 270.924 657.656 271.156 658.167 271.44C658.856 271.827 659.2 272.45 659.2 273.311C659.2 274.146 658.865 274.821 658.195 275.337C657.517 275.844 656.656 276.098 655.613 276.098C654.665 276.098 653.851 275.896 653.171 275.492C652.502 275.079 652.069 274.563 651.874 273.943L653.423 273.492C653.506 273.836 653.749 274.124 654.148 274.356C654.558 274.588 655.047 274.705 655.613 274.705C656.191 274.705 656.67 274.588 657.051 274.356C657.433 274.115 657.623 273.805 657.623 273.427C657.623 273.178 657.517 272.963 657.302 272.782C657.116 272.61 656.925 272.485 656.73 272.408C656.534 272.321 656.241 272.231 655.851 272.137C654.67 271.818 653.888 271.569 653.506 271.388C652.595 270.933 652.139 270.266 652.139 269.388C652.139 268.597 652.446 267.956 653.06 267.466C653.674 266.976 654.465 266.73 655.432 266.73C656.289 266.73 657.028 266.924 657.651 267.311C658.265 267.681 658.665 268.159 658.851 268.743ZM662.147 275.93H660.696V269.221H662.147V275.93ZM660.738 268.227C660.562 268.055 660.473 267.844 660.473 267.595C660.473 267.346 660.562 267.134 660.738 266.963C660.925 266.791 661.152 266.705 661.422 266.705C661.692 266.705 661.92 266.791 662.105 266.963C662.292 267.134 662.384 267.346 662.384 267.595C662.384 267.844 662.292 268.055 662.105 268.227C661.92 268.399 661.692 268.485 661.422 268.485C661.152 268.485 660.925 268.399 660.738 268.227ZM665.322 275.93H663.871V269.221H665.322V270.072C665.825 269.392 666.564 269.053 667.541 269.053C668.043 269.053 668.499 269.16 668.908 269.376C669.318 269.582 669.648 269.87 669.899 270.24C670.011 270.076 670.146 269.914 670.304 269.75C670.499 269.569 670.784 269.41 671.155 269.272C671.528 269.126 671.923 269.053 672.341 269.053C673.17 269.053 673.854 269.289 674.392 269.763C674.942 270.244 675.216 270.838 675.216 271.543V275.93H673.765V271.917C673.765 271.47 673.602 271.096 673.276 270.795C672.951 270.485 672.546 270.33 672.062 270.33C671.551 270.33 671.123 270.485 670.778 270.795C670.443 271.088 670.276 271.466 670.276 271.93V275.93H668.825V271.917C668.825 271.47 668.663 271.096 668.336 270.795C668.011 270.485 667.606 270.33 667.122 270.33C666.611 270.33 666.183 270.485 665.839 270.795C665.495 271.088 665.322 271.466 665.322 271.93V275.93Z" fill="white"/>
<path d="M693.286 245.246C694.074 244.974 694.88 245.609 694.713 246.372L693.102 253.75C692.94 254.492 691.975 254.8 691.352 254.309L685.336 249.559C684.713 249.068 684.892 248.139 685.659 247.875L693.286 245.246Z" fill="#2D6EFD"/>
<path d="M553.212 216.202C554.001 215.93 554.806 216.565 554.64 217.327L553.028 224.706C552.866 225.447 551.901 225.755 551.279 225.264L545.262 220.514C544.64 220.023 544.818 219.094 545.584 218.83L553.212 216.202Z" fill="#B98EE5"/>
<path d="M574.437 122.046C575.225 121.774 576.03 122.409 575.864 123.172L574.253 130.55C574.091 131.292 573.127 131.6 572.504 131.109L566.488 126.359C565.865 125.868 566.042 124.939 566.81 124.674L574.437 122.046Z" fill="#2D6EFD"/>
<g filter="url(#filter6_i_112_327)">
<path d="M536.771 221.34H436.945C431.017 221.34 426.211 225.784 426.211 231.265V249.131C426.211 254.613 431.017 259.057 436.945 259.057H536.771C542.699 259.057 547.505 254.613 547.505 249.131V231.265C547.505 225.784 542.699 221.34 536.771 221.34Z" fill="#B98EE5"/>
</g>
<path d="M441.967 234.12L438.791 229.578H440.314L442.616 232.952L444.966 229.578H446.489L443.289 234.065V237.221H441.967V234.12ZM449.108 231.401C449.903 231.401 450.584 231.653 451.15 232.155V231.543H452.378V237.221H451.15V236.609C450.584 237.112 449.903 237.363 449.108 237.363C448.25 237.363 447.529 237.079 446.947 236.511C446.372 235.95 446.085 235.241 446.085 234.382C446.085 233.524 446.372 232.814 446.947 232.253C447.529 231.685 448.25 231.401 449.108 231.401ZM449.238 232.537C448.71 232.537 448.265 232.716 447.903 233.072C447.541 233.414 447.36 233.851 447.36 234.382C447.36 234.906 447.541 235.347 447.903 235.703C448.273 236.053 448.718 236.227 449.238 236.227C449.773 236.227 450.222 236.053 450.584 235.703C450.946 235.347 451.127 234.906 451.127 234.382C451.127 233.851 450.946 233.414 450.584 233.072C450.222 232.716 449.773 232.537 449.238 232.537ZM453.84 237.221V231.543H455.068V232.373C455.517 231.725 456.19 231.401 457.087 231.401C457.796 231.401 458.378 231.613 458.835 232.035C459.299 232.464 459.532 232.995 459.532 233.629V237.221H458.304V233.956C458.304 233.534 458.153 233.185 457.855 232.908C457.555 232.624 457.178 232.482 456.721 232.482C456.249 232.482 455.855 232.624 455.54 232.908C455.225 233.192 455.068 233.545 455.068 233.967V237.221H453.84ZM463.74 231.401C464.535 231.401 465.216 231.653 465.783 232.155V229.032H467.011V237.221H465.783V236.609C465.216 237.112 464.535 237.363 463.74 237.363C462.882 237.363 462.161 237.079 461.58 236.511C461.004 235.95 460.718 235.241 460.718 234.382C460.718 233.524 461.004 232.814 461.58 232.253C462.161 231.685 462.882 231.401 463.74 231.401ZM463.87 232.537C463.342 232.537 462.898 232.716 462.536 233.072C462.173 233.414 461.993 233.851 461.993 234.382C461.993 234.906 462.173 235.347 462.536 235.703C462.905 236.053 463.351 236.227 463.87 236.227C464.405 236.227 464.853 236.053 465.216 235.703C465.578 235.347 465.759 234.906 465.759 234.382C465.759 233.851 465.578 233.414 465.216 233.072C464.853 232.716 464.405 232.537 463.87 232.537ZM474.564 234.797H469.464C469.558 235.241 469.791 235.605 470.16 235.889C470.538 236.166 470.984 236.304 471.494 236.304C472.188 236.304 472.731 236.067 473.124 235.594L474.328 235.932C474.045 236.376 473.652 236.726 473.148 236.981C472.652 237.236 472.101 237.363 471.494 237.363C470.55 237.363 469.767 237.079 469.145 236.511C468.516 235.943 468.2 235.234 468.2 234.382C468.2 233.537 468.504 232.828 469.109 232.253C469.723 231.685 470.488 231.401 471.4 231.401C472.313 231.401 473.069 231.685 473.667 232.253C474.281 232.821 474.588 233.53 474.588 234.382C474.588 234.411 474.58 234.55 474.564 234.797ZM469.475 233.891H473.325C473.215 233.469 472.979 233.127 472.616 232.864C472.254 232.595 471.837 232.461 471.365 232.461C470.916 232.461 470.514 232.595 470.16 232.864C469.815 233.127 469.586 233.469 469.475 233.891ZM479.58 237.221L477.963 235.223L476.333 237.221H474.881L477.231 234.306L474.999 231.543H476.44L477.963 233.399L479.474 231.543H480.926L478.683 234.306L481.033 237.221H479.58ZM487.815 231.401C488.611 231.401 489.291 231.653 489.858 232.155V231.543H491.086V237.221H489.858V236.609C489.291 237.112 488.611 237.363 487.815 237.363C486.958 237.363 486.238 237.079 485.655 236.511C485.08 235.95 484.793 235.241 484.793 234.382C484.793 233.524 485.08 232.814 485.655 232.253C486.238 231.685 486.958 231.401 487.815 231.401ZM487.945 232.537C487.418 232.537 486.974 232.716 486.611 233.072C486.249 233.414 486.068 233.851 486.068 234.382C486.068 234.906 486.249 235.347 486.611 235.703C486.981 236.053 487.426 236.227 487.945 236.227C488.481 236.227 488.93 236.053 489.291 235.703C489.654 235.347 489.834 234.906 489.834 234.382C489.834 233.851 489.654 233.414 489.291 233.072C488.93 232.716 488.481 232.537 487.945 232.537ZM492.548 237.221V231.543H493.776V232.373C494.225 231.725 494.898 231.401 495.795 231.401C496.504 231.401 497.086 231.613 497.543 232.035C498.007 232.464 498.239 232.995 498.239 233.629V237.221H497.011V233.956C497.011 233.534 496.862 233.185 496.563 232.908C496.263 232.624 495.885 232.482 495.429 232.482C494.957 232.482 494.563 232.624 494.248 232.908C493.934 233.192 493.776 233.545 493.776 233.967V237.221H492.548ZM502.448 231.401C503.243 231.401 503.924 231.653 504.491 232.155V231.543H505.719V237.221H504.491V236.609C503.924 237.112 503.243 237.363 502.448 237.363C501.59 237.363 500.87 237.079 500.287 236.511C499.713 235.95 499.425 235.241 499.425 234.382C499.425 233.524 499.713 232.814 500.287 232.253C500.87 231.685 501.59 231.401 502.448 231.401ZM502.578 232.537C502.051 232.537 501.606 232.716 501.244 233.072C500.882 233.414 500.7 233.851 500.7 234.382C500.7 234.906 500.882 235.347 501.244 235.703C501.614 236.053 502.058 236.227 502.578 236.227C503.113 236.227 503.562 236.053 503.924 235.703C504.287 235.347 504.467 234.906 504.467 234.382C504.467 233.851 504.287 233.414 503.924 233.072C503.562 232.716 503.113 232.537 502.578 232.537ZM508.409 237.221H507.181V229.032H508.409V237.221ZM511.402 237.701L511.674 237.079L509.277 231.543H510.54L512.288 235.67L514.094 231.543H515.358L512.465 238.083C512.221 238.636 511.902 239.04 511.508 239.295C511.115 239.55 510.611 239.677 509.997 239.677H509.737V238.586H509.997C510.359 238.586 510.651 238.516 510.871 238.378C511.091 238.24 511.268 238.014 511.402 237.701ZM515.642 232.537V231.543H516.575V230.419H517.803V231.543H519.432V232.537H517.803V235.332C517.803 235.557 517.881 235.747 518.039 235.9C518.196 236.053 518.393 236.129 518.629 236.129H519.432V237.221H518.535C517.983 237.221 517.519 237.057 517.142 236.729C516.764 236.387 516.575 235.972 516.575 235.485V232.537H515.642ZM521.738 237.221H520.51V231.543H521.738V237.221ZM520.545 230.703C520.396 230.557 520.321 230.379 520.321 230.168C520.321 229.956 520.396 229.779 520.545 229.633C520.703 229.487 520.895 229.414 521.124 229.414C521.353 229.414 521.545 229.487 521.703 229.633C521.86 229.779 521.939 229.956 521.939 230.168C521.939 230.379 521.86 230.557 521.703 230.703C521.545 230.849 521.353 230.921 521.124 230.921C520.895 230.921 520.703 230.849 520.545 230.703ZM529.136 233.192L527.896 233.53C527.738 233.225 527.506 232.985 527.199 232.81C526.892 232.628 526.542 232.537 526.149 232.537C525.598 232.537 525.133 232.716 524.755 233.072C524.385 233.428 524.2 233.865 524.2 234.382C524.2 234.899 524.385 235.339 524.755 235.703C525.133 236.053 525.598 236.227 526.149 236.227C526.542 236.227 526.892 236.14 527.199 235.965C527.506 235.784 527.738 235.539 527.896 235.234L529.136 235.572C528.892 236.118 528.502 236.555 527.967 236.882C527.44 237.203 526.833 237.363 526.149 237.363C525.228 237.363 524.46 237.079 523.846 236.511C523.232 235.943 522.925 235.234 522.925 234.382C522.925 233.53 523.232 232.821 523.846 232.253C524.46 231.685 525.228 231.401 526.149 231.401C526.833 231.401 527.44 231.565 527.967 231.893C528.502 232.213 528.892 232.646 529.136 233.192ZM534.564 232.843L533.407 233.028C533.265 232.606 532.864 232.395 532.202 232.395C531.903 232.395 531.659 232.45 531.47 232.559C531.281 232.668 531.187 232.817 531.187 233.006C531.187 233.254 531.383 233.443 531.777 233.574L533.159 234.011C533.686 234.193 534.068 234.415 534.304 234.677C534.548 234.939 534.67 235.262 534.67 235.649C534.67 236.195 534.453 236.616 534.021 236.915C533.588 237.214 533.017 237.363 532.309 237.363C531.616 237.363 531.053 237.225 530.62 236.948C530.188 236.664 529.928 236.275 529.841 235.78L530.998 235.616C531.053 235.841 531.199 236.024 531.435 236.162C531.671 236.3 531.971 236.369 532.332 236.369C532.67 236.369 532.946 236.308 533.159 236.184C533.379 236.06 533.489 235.893 533.489 235.681C533.489 235.412 533.241 235.194 532.746 235.026L531.376 234.6C530.896 234.448 530.545 234.251 530.325 234.011C530.113 233.771 530.006 233.465 530.006 233.094C530.006 232.548 530.215 232.129 530.632 231.838C531.05 231.547 531.605 231.401 532.297 231.401C532.918 231.401 533.43 231.532 533.832 231.795C534.233 232.05 534.477 232.399 534.564 232.843ZM470.857 242.579L471.034 242.382H472.168L471.967 242.611C471.888 242.699 471.747 242.924 471.542 243.288C471.125 243.994 470.802 244.854 470.574 245.865C470.322 247.081 470.318 248.304 470.562 249.533C470.703 250.167 470.854 250.665 471.01 251.029C471.365 251.852 471.692 252.442 471.99 252.798L472.168 253.027H471.034L471.022 253.016C470.393 252.346 469.921 251.44 469.605 250.298C469.378 249.475 469.263 248.609 469.263 247.699C469.263 246.36 469.472 245.21 469.889 244.249C470.235 243.448 470.558 242.891 470.857 242.579ZM478.753 245.035L477.442 245.395C477.371 245.148 477.19 244.941 476.899 244.773C476.608 244.598 476.269 244.511 475.884 244.511C475.459 244.511 475.104 244.605 474.821 244.795C474.538 244.977 474.396 245.21 474.396 245.494C474.349 245.741 474.549 245.989 474.998 246.236C475.076 246.28 475.23 246.338 475.459 246.411C475.749 246.498 475.919 246.549 475.966 246.564L476.592 246.728C477.214 246.88 477.742 247.077 478.174 247.317C478.757 247.645 479.048 248.173 479.048 248.9C479.048 249.606 478.765 250.178 478.198 250.614C477.624 251.044 476.895 251.259 476.013 251.259C475.211 251.259 474.521 251.088 473.947 250.745C473.38 250.396 473.014 249.959 472.849 249.435L474.16 249.053C474.231 249.344 474.436 249.588 474.774 249.785C475.12 249.981 475.534 250.079 476.013 250.079C476.502 250.079 476.907 249.981 477.23 249.785C477.553 249.581 477.714 249.319 477.714 248.998C477.714 248.787 477.624 248.605 477.442 248.453C477.284 248.307 477.123 248.201 476.958 248.136C476.793 248.063 476.545 247.987 476.214 247.907C475.215 247.638 474.554 247.426 474.231 247.273C473.459 246.887 473.073 246.324 473.073 245.581C473.073 244.911 473.333 244.369 473.853 243.954C474.372 243.539 475.041 243.332 475.86 243.332C476.585 243.332 477.21 243.496 477.737 243.823C478.257 244.136 478.595 244.54 478.753 245.035ZM483.174 251.259C482.253 251.259 481.486 250.975 480.872 250.407C480.258 249.839 479.951 249.129 479.951 248.278C479.951 247.426 480.258 246.717 480.872 246.149C481.486 245.581 482.253 245.297 483.174 245.297C484.095 245.297 484.863 245.581 485.477 246.149C486.098 246.717 486.409 247.426 486.409 248.278C486.409 249.129 486.098 249.839 485.477 250.407C484.863 250.975 484.095 251.259 483.174 251.259ZM483.174 250.123C483.741 250.123 484.205 249.948 484.567 249.599C484.945 249.243 485.134 248.802 485.134 248.278C485.134 247.754 484.945 247.317 484.567 246.968C484.205 246.611 483.741 246.433 483.174 246.433C482.622 246.433 482.159 246.611 481.781 246.968C481.411 247.324 481.226 247.761 481.226 248.278C481.226 248.795 481.411 249.235 481.781 249.599C482.159 249.948 482.622 250.123 483.174 250.123ZM490.554 251.259C489.633 251.259 488.865 250.975 488.251 250.407C487.637 249.839 487.33 249.129 487.33 248.278C487.33 247.426 487.637 246.717 488.251 246.149C488.865 245.581 489.633 245.297 490.554 245.297C491.475 245.297 492.242 245.581 492.856 246.149C493.478 246.717 493.789 247.426 493.789 248.278C493.789 249.129 493.478 249.839 492.856 250.407C492.242 250.975 491.475 251.259 490.554 251.259ZM490.554 250.123C491.12 250.123 491.584 249.948 491.947 249.599C492.325 249.243 492.514 248.802 492.514 248.278C492.514 247.754 492.325 247.317 491.947 246.968C491.584 246.611 491.12 246.433 490.554 246.433C490.002 246.433 489.538 246.611 489.16 246.968C488.79 247.324 488.605 247.761 488.605 248.278C488.605 248.795 488.79 249.235 489.16 249.599C489.538 249.948 490.002 250.123 490.554 250.123ZM494.981 251.117V245.439H496.209V246.269C496.658 245.621 497.331 245.297 498.228 245.297C498.937 245.297 499.519 245.509 499.976 245.93C500.44 246.36 500.673 246.891 500.673 247.525V251.117H499.445V247.852C499.445 247.43 499.294 247.081 498.996 246.804C498.696 246.52 498.319 246.378 497.862 246.378C497.39 246.378 496.996 246.52 496.682 246.804C496.366 247.088 496.209 247.441 496.209 247.863V251.117H494.981ZM501.729 242.6L501.552 242.382H502.697L502.886 242.59C502.964 242.677 503.106 242.884 503.311 243.212C503.54 243.583 503.72 243.936 503.854 244.271C504.012 244.649 504.154 245.144 504.279 245.756C504.405 246.36 504.468 247.007 504.468 247.699C504.468 248.944 504.279 250.047 503.901 251.007C503.752 251.394 503.583 251.743 503.394 252.056C503.189 252.39 503.044 252.612 502.957 252.722C502.878 252.846 502.796 252.944 502.709 253.016L502.697 253.027H501.552L501.741 252.787C501.843 252.671 501.989 252.445 502.177 252.11C502.366 251.79 502.543 251.426 502.709 251.018C502.858 250.632 503 250.141 503.134 249.544C503.401 248.343 503.405 247.121 503.146 245.876C503.028 245.271 502.882 244.773 502.709 244.38C502.378 243.594 502.052 243 501.729 242.6Z" fill="white"/>
<g filter="url(#filter7_i_112_327)">
<path d="M446.584 298.361H375.74C369.812 298.361 365.006 302.805 365.006 308.287V327.145C365.006 332.627 369.812 337.071 375.74 337.071H446.584C452.513 337.071 457.318 332.627 457.318 327.145V308.287C457.318 302.805 452.513 298.361 446.584 298.361Z" fill="#F35888"/>
</g>
<path d="M395.844 328.617C402.752 328.617 408.353 323.438 408.353 317.049C408.353 310.661 402.752 305.482 395.844 305.482C388.935 305.482 383.334 310.661 383.334 317.049C383.334 323.438 388.935 328.617 395.844 328.617Z" fill="#FF1446" stroke="white" stroke-width="2"/>
<path d="M396.829 309.199V324.114" stroke="white" stroke-width="5"/>
<path d="M404.332 317.175H388.203" stroke="white" stroke-width="5"/>
<path d="M417.539 314.957L415.825 315.707L414.924 313.887L418.185 312.456H419.823V322.183H417.539V314.957ZM421.777 318.848V315.791C421.777 314.79 422.168 313.956 422.949 313.289C423.74 312.612 424.722 312.275 425.894 312.275C427.087 312.275 428.068 312.612 428.84 313.289C429.631 313.956 430.027 314.79 430.027 315.791V318.848C430.027 319.848 429.631 320.686 428.84 321.363C428.058 322.03 427.076 322.363 425.894 322.363C424.722 322.363 423.74 322.03 422.949 321.363C422.168 320.686 421.777 319.848 421.777 318.848ZM424.061 315.763V318.875C424.061 319.282 424.236 319.63 424.587 319.918C424.938 320.195 425.373 320.334 425.894 320.334C426.415 320.334 426.851 320.195 427.202 319.918C427.552 319.63 427.728 319.282 427.728 318.875V315.763C427.728 315.346 427.552 314.998 427.202 314.721C426.851 314.443 426.415 314.304 425.894 314.304C425.373 314.304 424.938 314.443 424.587 314.721C424.236 314.998 424.061 315.346 424.061 315.763ZM436.221 315.29C436.221 315.012 436.07 314.78 435.77 314.595C435.469 314.401 435.094 314.304 434.643 314.304C433.821 314.304 433.275 314.558 433.005 315.068L430.946 314.262C431.277 313.66 431.778 313.178 432.449 312.817C433.12 312.456 433.881 312.275 434.733 312.275C435.845 312.275 436.767 312.557 437.498 313.123C438.229 313.687 438.595 314.396 438.595 315.249C438.595 316.017 438.249 316.642 437.558 317.125C438.44 317.653 438.881 318.37 438.881 319.278C438.881 320.149 438.495 320.885 437.723 321.488C436.962 322.071 435.995 322.363 434.823 322.363C433.841 322.363 432.995 322.15 432.284 321.724C431.562 321.288 431.076 320.724 430.826 320.029L433.005 319.334C433.085 319.63 433.285 319.871 433.606 320.057C433.937 320.241 434.327 320.334 434.778 320.334C435.279 320.334 435.69 320.227 436.01 320.015C436.331 319.801 436.491 319.532 436.491 319.209C436.491 318.884 436.331 318.62 436.01 318.417C435.69 318.203 435.289 318.097 434.808 318.097H434.012V316.332H434.538C435.019 316.332 435.419 316.235 435.74 316.041C436.06 315.846 436.221 315.596 436.221 315.29Z" fill="white"/>
<path d="M355.244 290.952C355.012 290.204 355.759 289.51 356.569 289.722L364.4 291.775C365.187 291.981 365.445 292.894 364.868 293.43L359.284 298.612C358.706 299.149 357.718 298.913 357.492 298.186L355.244 290.952Z" fill="#F35888"/>
<path d="M540.478 19.8331C541.267 19.5612 542.071 20.1965 541.905 20.9596L540.294 28.3374C540.132 29.0794 539.167 29.3873 538.545 28.8959L532.528 24.1466C531.906 23.6551 532.084 22.726 532.85 22.4616L540.478 19.8331Z" fill="#004796"/>
<g filter="url(#filter8_i_112_327)">
<path d="M562.532 364.268H469.147C463.219 364.268 458.413 368.712 458.413 374.194V390.075C458.413 395.556 463.219 400 469.147 400H562.532C568.461 400 573.266 395.556 573.266 390.075V374.194C573.266 368.712 568.461 364.268 562.532 364.268Z" fill="#00438D"/>
</g>
<path d="M479.562 385.112H477.916L482.144 376.079H483.413L487.656 385.112H486.009L485.144 383.254H480.427L479.562 385.112ZM484.53 381.912L482.786 378.131L481.041 381.912H484.53ZM488.697 385.112V378.402H490.148V379.383C490.678 378.617 491.474 378.234 492.534 378.234C493.371 378.234 494.06 378.483 494.599 378.983C495.149 379.49 495.423 380.118 495.423 380.867V385.112H493.971V381.254C493.971 380.754 493.795 380.342 493.441 380.015C493.088 379.679 492.641 379.512 492.102 379.512C491.543 379.512 491.079 379.679 490.706 380.015C490.335 380.35 490.148 380.767 490.148 381.267V385.112H488.697ZM500.397 378.234C501.337 378.234 502.141 378.531 502.811 379.125V375.434H504.262V385.112H502.811V384.389C502.141 384.983 501.337 385.28 500.397 385.28C499.383 385.28 498.532 384.944 497.843 384.273C497.165 383.611 496.824 382.772 496.824 381.757C496.824 380.742 497.165 379.903 497.843 379.241C498.532 378.57 499.383 378.234 500.397 378.234ZM500.55 379.576C499.928 379.576 499.402 379.787 498.973 380.209C498.546 380.613 498.331 381.129 498.331 381.757C498.331 382.376 498.546 382.896 498.973 383.318C499.411 383.731 499.936 383.938 500.55 383.938C501.183 383.938 501.714 383.731 502.141 383.318C502.569 382.896 502.783 382.376 502.783 381.757C502.783 381.129 502.569 380.613 502.141 380.209C501.714 379.787 501.183 379.576 500.55 379.576ZM511.148 385.112H509.697V378.402H511.148V379.254C511.65 378.574 512.39 378.234 513.367 378.234C513.869 378.234 514.324 378.342 514.734 378.557C515.143 378.763 515.474 379.051 515.725 379.421C515.836 379.258 515.971 379.095 516.129 378.931C516.325 378.75 516.608 378.592 516.981 378.454C517.352 378.308 517.748 378.234 518.167 378.234C518.994 378.234 519.678 378.471 520.218 378.944C520.767 379.425 521.041 380.019 521.041 380.725V385.112H519.59V381.099C519.59 380.651 519.427 380.277 519.102 379.976C518.775 379.667 518.371 379.512 517.888 379.512C517.376 379.512 516.947 379.667 516.604 379.976C516.269 380.269 516.102 380.647 516.102 381.112V385.112H514.65V381.099C514.65 380.651 514.487 380.277 514.162 379.976C513.836 379.667 513.431 379.512 512.948 379.512C512.436 379.512 512.008 379.667 511.664 379.976C511.32 380.269 511.148 380.647 511.148 381.112V385.112ZM526.254 385.28C525.165 385.28 524.258 384.944 523.533 384.273C522.807 383.602 522.444 382.763 522.444 381.757C522.444 380.75 522.807 379.912 523.533 379.241C524.258 378.57 525.165 378.234 526.254 378.234C527.342 378.234 528.249 378.57 528.975 379.241C529.709 379.912 530.077 380.75 530.077 381.757C530.077 382.763 529.709 383.602 528.975 384.273C528.249 384.944 527.342 385.28 526.254 385.28ZM526.254 383.938C526.923 383.938 527.472 383.731 527.9 383.318C528.347 382.896 528.57 382.376 528.57 381.757C528.57 381.138 528.347 380.621 527.9 380.209C527.472 379.787 526.923 379.576 526.254 379.576C525.602 379.576 525.054 379.787 524.607 380.209C524.169 380.63 523.951 381.147 523.951 381.757C523.951 382.367 524.169 382.888 524.607 383.318C525.054 383.731 525.602 383.938 526.254 383.938ZM532.938 378.402V379.383C533.486 378.617 534.347 378.234 535.519 378.234V379.731C535.352 379.663 535.142 379.628 534.891 379.628C534.333 379.628 533.867 379.796 533.496 380.131C533.123 380.45 532.938 380.863 532.938 381.37V385.112H531.486V378.402H532.938ZM543.524 382.247H537.495C537.607 382.772 537.882 383.202 538.319 383.538C538.765 383.864 539.291 384.028 539.895 384.028C540.714 384.028 541.356 383.748 541.821 383.189L543.244 383.589C542.91 384.114 542.445 384.527 541.849 384.828C541.263 385.129 540.612 385.28 539.895 385.28C538.779 385.28 537.854 384.944 537.119 384.273C536.375 383.602 536.002 382.763 536.002 381.757C536.002 380.759 536.361 379.921 537.077 379.241C537.802 378.57 538.705 378.234 539.784 378.234C540.864 378.234 541.757 378.57 542.463 379.241C543.189 379.912 543.551 380.75 543.551 381.757C543.551 381.792 543.543 381.954 543.524 382.247ZM537.509 381.176H542.058C541.928 380.677 541.649 380.273 541.221 379.963C540.794 379.645 540.3 379.486 539.742 379.486C539.212 379.486 538.737 379.645 538.319 379.963C537.91 380.273 537.64 380.677 537.509 381.176ZM544.499 385.034C544.322 384.863 544.234 384.647 544.234 384.389C544.234 384.131 544.322 383.916 544.499 383.744C544.685 383.572 544.918 383.486 545.197 383.486C545.476 383.486 545.709 383.572 545.895 383.744C546.08 383.916 546.174 384.131 546.174 384.389C546.174 384.647 546.08 384.863 545.895 385.034C545.709 385.198 545.476 385.28 545.197 385.28C544.918 385.28 544.685 385.198 544.499 385.034ZM547.565 385.034C547.389 384.863 547.3 384.647 547.3 384.389C547.3 384.131 547.389 383.916 547.565 383.744C547.752 383.572 547.983 383.486 548.263 383.486C548.542 383.486 548.775 383.572 548.96 383.744C549.147 383.916 549.239 384.131 549.239 384.389C549.239 384.647 549.147 384.863 548.96 385.034C548.775 385.198 548.542 385.28 548.263 385.28C547.983 385.28 547.752 385.198 547.565 385.034ZM550.632 385.034C550.454 384.863 550.366 384.647 550.366 384.389C550.366 384.131 550.454 383.916 550.632 383.744C550.817 383.572 551.05 383.486 551.329 383.486C551.608 383.486 551.84 383.572 552.027 383.744C552.213 383.916 552.306 384.131 552.306 384.389C552.306 384.647 552.213 384.863 552.027 385.034C551.84 385.198 551.608 385.28 551.329 385.28C551.05 385.28 550.817 385.198 550.632 385.034Z" fill="white"/>
<g filter="url(#filter9_i_112_327)">
<path fill-rule="evenodd" clip-rule="evenodd" d="M427.624 26.7991C422.101 26.7991 417.624 31.2762 417.624 36.7991V57.4939C417.624 63.0167 422.101 67.4939 427.624 67.4939H526.771C532.294 67.4939 536.771 63.0167 536.771 57.4939V36.7991C536.771 31.2762 532.294 26.7991 526.771 26.7991H427.624ZM429.621 36.279C428.779 37.036 428.358 37.9785 428.358 39.1068C428.358 40.2422 428.771 41.1849 429.598 41.9346C430.44 42.6916 431.463 43.07 432.668 43.07C433.911 43.07 434.939 42.6842 435.749 41.9127C436.568 41.1339 436.977 40.1767 436.977 39.0413C436.977 38.8956 436.966 38.7574 436.942 38.6264H432.455V40.1003H434.817C434.643 40.4934 434.356 40.81 433.955 41.0502C433.561 41.2904 433.128 41.4105 432.656 41.4105C431.987 41.4105 431.428 41.1884 430.979 40.7445C430.531 40.2932 430.306 39.7473 430.306 39.1068C430.306 38.4589 430.538 37.913 431.003 37.469C431.459 37.0251 432.046 36.803 432.762 36.803C433.226 36.803 433.648 36.905 434.025 37.1087C434.403 37.3125 434.695 37.5964 434.899 37.9604L436.718 37.338C436.363 36.6611 435.832 36.1261 435.124 35.7331C434.415 35.34 433.628 35.1435 432.762 35.1435C431.511 35.1435 430.464 35.5219 429.621 36.279ZM437.673 40.0894C437.673 40.9338 437.984 41.6434 438.605 42.2184C439.227 42.7862 440.011 43.07 440.955 43.07C441.884 43.07 442.663 42.7862 443.293 42.2184C443.923 41.6361 444.238 40.9264 444.238 40.0894C444.238 39.245 443.923 38.539 443.293 37.9713C442.671 37.3963 441.892 37.1087 440.955 37.1087C440.011 37.1087 439.227 37.3963 438.605 37.9713C437.984 38.539 437.673 39.245 437.673 40.0894ZM441.971 41.0611C441.703 41.3231 441.365 41.4542 440.955 41.4542C440.546 41.4542 440.203 41.3231 439.928 41.0611C439.652 40.7918 439.515 40.4679 439.515 40.0894C439.515 39.7109 439.652 39.387 439.928 39.1177C440.203 38.8556 440.546 38.7246 440.955 38.7246C441.365 38.7246 441.703 38.8593 441.971 39.1286C442.254 39.3906 442.396 39.7109 442.396 40.0894C442.396 40.4679 442.254 40.7918 441.971 41.0611ZM444.845 40.0894C444.845 40.9338 445.156 41.6434 445.778 42.2184C446.399 42.7862 447.183 43.07 448.127 43.07C449.056 43.07 449.835 42.7862 450.465 42.2184C451.095 41.6361 451.41 40.9264 451.41 40.0894C451.41 39.245 451.095 38.539 450.465 37.9713C449.843 37.3963 449.064 37.1087 448.127 37.1087C447.183 37.1087 446.399 37.3963 445.778 37.9713C445.156 38.539 444.845 39.245 444.845 40.0894ZM449.143 41.0611C448.875 41.3231 448.537 41.4542 448.127 41.4542C447.718 41.4542 447.376 41.3231 447.1 41.0611C446.824 40.7918 446.687 40.4679 446.687 40.0894C446.687 39.7109 446.824 39.387 447.1 39.1177C447.376 38.8556 447.718 38.7246 448.127 38.7246C448.537 38.7246 448.875 38.8593 449.143 39.1286C449.426 39.3906 449.568 39.7109 449.568 40.0894C449.568 40.4679 449.426 40.7918 449.143 41.0611ZM452.843 37.9604C452.292 38.5209 452.017 39.2305 452.017 40.0894C452.017 40.9338 452.292 41.6434 452.843 42.2184C453.394 42.7862 454.087 43.07 454.921 43.07C455.566 43.07 456.133 42.8917 456.622 42.535V42.8298C456.622 43.1574 456.487 43.4303 456.22 43.6487C455.953 43.8671 455.626 43.9762 455.24 43.9762C454.964 43.9762 454.713 43.918 454.485 43.8015C454.256 43.6924 454.095 43.5504 454 43.3757L452.253 43.7579C452.434 44.2601 452.808 44.6822 453.375 45.0244C453.934 45.3592 454.567 45.5266 455.276 45.5266C456.157 45.5266 456.893 45.2646 457.484 44.7405C458.081 44.231 458.381 43.5869 458.381 42.808V37.2507H456.622V37.6328C456.118 37.2834 455.551 37.1087 454.921 37.1087C454.087 37.1087 453.394 37.3926 452.843 37.9604ZM454.248 39.1177C454.516 38.8556 454.843 38.7246 455.228 38.7246C455.606 38.7246 455.929 38.8556 456.197 39.1177C456.464 39.3797 456.598 39.7073 456.598 40.1003C456.598 40.4861 456.464 40.8063 456.197 41.0611C455.929 41.3231 455.606 41.4542 455.228 41.4542C454.843 41.4542 454.516 41.3231 454.248 41.0611C453.989 40.7991 453.859 40.4788 453.859 40.1003C453.859 39.7073 453.989 39.3797 454.248 39.1177ZM459.378 42.9281H461.149V34.7395H459.378V42.9281ZM463.822 40.679H468.391C468.439 40.4897 468.462 40.2932 468.462 40.0894C468.462 39.245 468.151 38.539 467.529 37.9713C466.907 37.3963 466.136 37.1087 465.215 37.1087C464.286 37.1087 463.511 37.3963 462.889 37.9713C462.267 38.539 461.956 39.245 461.956 40.0894C461.956 40.941 462.275 41.6507 462.913 42.2184C463.55 42.7862 464.349 43.07 465.31 43.07C465.955 43.07 466.533 42.9353 467.045 42.6661C467.565 42.3894 467.966 42.011 468.25 41.5306L466.538 41.1703C466.231 41.5051 465.825 41.6725 465.321 41.6725C464.959 41.6725 464.644 41.5815 464.377 41.3996C464.109 41.2176 463.924 40.9774 463.822 40.679ZM466.656 39.4671H463.834C463.936 39.1759 464.113 38.943 464.365 38.7683C464.616 38.5936 464.9 38.5063 465.215 38.5063C465.546 38.5063 465.841 38.5936 466.101 38.7683C466.361 38.943 466.545 39.1759 466.656 39.4671ZM472.711 37.9604C472.159 38.5209 471.884 39.2305 471.884 40.0894C471.884 40.9338 472.159 41.6434 472.711 42.2184C473.261 42.7862 473.954 43.07 474.789 43.07C475.434 43.07 476.001 42.8917 476.489 42.535V42.9281H478.248V37.2507H476.489V37.6328C475.985 37.2834 475.418 37.1087 474.789 37.1087C473.954 37.1087 473.261 37.3926 472.711 37.9604ZM474.116 39.1177C474.383 38.8556 474.709 38.7246 475.096 38.7246C475.474 38.7246 475.796 38.8556 476.064 39.1177C476.331 39.3725 476.465 39.6927 476.465 40.0785C476.465 40.4715 476.331 40.7991 476.064 41.0611C475.796 41.3231 475.474 41.4542 475.096 41.4542C474.709 41.4542 474.383 41.3231 474.116 41.0611C473.856 40.7991 473.726 40.4715 473.726 40.0785C473.726 39.7 473.856 39.3797 474.116 39.1177ZM479.244 37.2507V42.9281H481.016V39.7182C481.016 39.4052 481.122 39.1468 481.334 38.943C481.556 38.7319 481.827 38.6264 482.149 38.6264C482.472 38.6264 482.739 38.7319 482.952 38.943C483.165 39.1468 483.271 39.4052 483.271 39.7182V42.9281H485.042V39.2815C485.042 38.6628 484.814 38.146 484.357 37.7311C483.908 37.3162 483.353 37.1087 482.692 37.1087C481.984 37.1087 481.426 37.3489 481.016 37.8293V37.2507H479.244ZM486.675 37.9604C486.123 38.5209 485.848 39.2305 485.848 40.0894C485.848 40.9338 486.123 41.6434 486.675 42.2184C487.225 42.7862 487.918 43.07 488.753 43.07C489.398 43.07 489.964 42.8917 490.453 42.535V42.9281H492.212V37.2507H490.453V37.6328C489.948 37.2834 489.382 37.1087 488.753 37.1087C487.918 37.1087 487.225 37.3926 486.675 37.9604ZM488.08 39.1177C488.347 38.8556 488.673 38.7246 489.06 38.7246C489.437 38.7246 489.759 38.8556 490.028 39.1177C490.295 39.3725 490.429 39.6927 490.429 40.0785C490.429 40.4715 490.295 40.7991 490.028 41.0611C489.759 41.3231 489.437 41.4542 489.06 41.4542C488.673 41.4542 488.347 41.3231 488.08 41.0611C487.82 40.7991 487.69 40.4715 487.69 40.0785C487.69 39.7 487.82 39.3797 488.08 39.1177ZM493.208 42.9281H494.979V34.7395H493.208V42.9281ZM495.55 37.2507L497.876 42.8844L497.841 42.9718C497.621 43.5395 497.129 43.8234 496.365 43.8234H496.141V45.3847H496.353C497.109 45.3847 497.72 45.2355 498.183 44.937C498.656 44.6459 499.034 44.1728 499.317 43.5177L501.926 37.2507H500.096L498.715 40.7554L497.381 37.2507H495.55ZM502.09 37.2507V38.67H502.928V41.1157C502.928 41.6325 503.132 42.0656 503.542 42.415C503.958 42.7571 504.47 42.9281 505.077 42.9281H506.092V41.3996H505.372C505.174 41.3996 505.013 41.345 504.888 41.2358C504.761 41.1194 504.699 40.9738 504.699 40.7991V38.67H506.092V37.2507H504.699V36.148H502.928V37.2507H502.09ZM506.838 42.9281H508.609V37.2507H506.838V42.9281ZM506.626 35.8422C506.626 36.1334 506.728 36.3736 506.933 36.5628C507.153 36.7521 507.417 36.8467 507.724 36.8467C508.038 36.8467 508.298 36.7521 508.503 36.5628C508.716 36.3809 508.822 36.1407 508.822 35.8422C508.822 35.5438 508.716 35.3036 508.503 35.1216C508.298 34.9324 508.038 34.8378 507.724 34.8378C507.417 34.8378 507.153 34.9324 506.933 35.1216C506.728 35.3109 506.626 35.5511 506.626 35.8422ZM514.021 39.5435L515.804 39.0631C515.568 38.4663 515.17 37.9931 514.612 37.6437C514.053 37.2871 513.415 37.1087 512.699 37.1087C511.754 37.1087 510.971 37.3926 510.349 37.9604C509.727 38.5281 509.417 39.2378 509.417 40.0894C509.417 40.9338 509.727 41.6434 510.349 42.2184C510.971 42.7862 511.754 43.07 512.699 43.07C513.415 43.07 514.053 42.8953 514.612 42.546C515.17 42.1893 515.568 41.7125 515.804 41.1157L514.021 40.6353C513.911 40.8827 513.738 41.0829 513.502 41.2358C513.266 41.3814 512.997 41.4542 512.699 41.4542C512.289 41.4542 511.947 41.3231 511.672 41.0611C511.396 40.7991 511.258 40.4715 511.258 40.0785C511.258 39.6927 511.396 39.3725 511.672 39.1177C511.947 38.8556 512.289 38.7246 512.699 38.7246C512.997 38.7246 513.266 38.8011 513.502 38.9539C513.738 39.0995 513.911 39.296 514.021 39.5435ZM519.665 38.8993L521.283 38.6591C521.205 38.1715 520.952 37.7929 520.527 37.5236C520.102 37.247 519.535 37.1087 518.827 37.1087C518.048 37.1087 517.438 37.2616 516.997 37.5673C516.556 37.8658 516.336 38.3207 516.336 38.9321C516.336 39.3542 516.461 39.6963 516.713 39.9584C516.973 40.2204 517.386 40.4242 517.953 40.5698L519.075 40.8755C519.484 40.9847 519.689 41.1303 519.689 41.3122C519.689 41.4432 519.614 41.5452 519.465 41.6179C519.323 41.6907 519.13 41.7271 518.886 41.7271C518.303 41.7271 517.953 41.5378 517.835 41.1594L516.206 41.3668C516.293 41.9127 516.56 42.3348 517.009 42.6333C517.465 42.9244 518.079 43.07 518.851 43.07C519.63 43.07 520.244 42.9135 520.693 42.6006C521.149 42.2803 521.377 41.829 521.377 41.2467C521.377 40.81 521.24 40.4569 520.964 40.1877C520.688 39.911 520.244 39.6818 519.63 39.4998L518.532 39.1723C518.209 39.0631 518.048 38.9357 518.048 38.7901C518.048 38.5427 518.28 38.4189 518.744 38.4189C519.248 38.4189 519.555 38.579 519.665 38.8993ZM458.987 48.0894L458.81 48.2859C458.512 48.5989 458.189 49.1557 457.842 49.9564C457.426 50.9172 457.216 52.0673 457.216 53.4065C457.216 54.3164 457.331 55.1825 457.559 56.005C457.874 57.1477 458.347 58.054 458.976 58.7236L458.987 58.7345H460.121L459.944 58.5053C459.645 58.1486 459.318 57.5591 458.964 56.7365C458.807 56.3726 458.657 55.874 458.515 55.2408C458.271 54.0107 458.276 52.7878 458.527 51.5723C458.756 50.5606 459.079 49.7016 459.495 48.9956C459.7 48.6316 459.842 48.406 459.92 48.3187L460.121 48.0894H458.987ZM465.396 51.1028L466.706 50.7425C466.548 50.2475 466.21 49.8435 465.691 49.5306C465.164 49.203 464.538 49.0393 463.813 49.0393C462.994 49.0393 462.326 49.2467 461.806 49.6616C461.287 50.0765 461.027 50.6187 461.027 51.2884C461.027 52.0308 461.412 52.5949 462.184 52.9807C462.507 53.1336 463.168 53.3447 464.168 53.614C464.498 53.6941 464.746 53.7705 464.911 53.8432C465.077 53.9087 465.238 54.0143 465.396 54.1599C465.577 54.3127 465.667 54.4946 465.667 54.7058C465.667 55.0261 465.506 55.2881 465.183 55.4919C464.86 55.6884 464.455 55.7867 463.967 55.7867C463.487 55.7867 463.074 55.6884 462.727 55.4919C462.389 55.2953 462.184 55.0515 462.113 54.7604L460.802 55.1425C460.968 55.6666 461.334 56.1033 461.901 56.4527C462.475 56.7948 463.164 56.9658 463.967 56.9658C464.848 56.9658 465.577 56.7511 466.151 56.3216C466.718 55.8849 467.001 55.3135 467.001 54.6075C467.001 53.8797 466.71 53.3519 466.128 53.0244C465.695 52.7842 465.167 52.5877 464.545 52.4348L463.92 52.271C463.873 52.2567 463.709 52.2075 463.429 52.1232L463.412 52.1182C463.183 52.0454 463.03 51.9872 462.951 51.9435C462.503 51.696 462.302 51.4485 462.349 51.201C462.349 50.9172 462.491 50.6842 462.774 50.5023C463.058 50.313 463.412 50.2184 463.837 50.2184C464.222 50.2184 464.562 50.3058 464.852 50.4805C465.143 50.6479 465.325 50.8553 465.396 51.1028ZM468.825 56.1142C469.439 56.6819 470.207 56.9658 471.127 56.9658C472.048 56.9658 472.816 56.6819 473.43 56.1142C474.051 55.5465 474.363 54.8368 474.363 53.9852C474.363 53.1336 474.051 52.4239 473.43 51.8561C472.816 51.2884 472.048 51.0045 471.127 51.0045C470.207 51.0045 469.439 51.2884 468.825 51.8561C468.211 52.4239 467.904 53.1336 467.904 53.9852C467.904 54.8368 468.211 55.5465 468.825 56.1142ZM472.521 55.3063C472.158 55.6556 471.694 55.8303 471.127 55.8303C470.576 55.8303 470.112 55.6556 469.734 55.3063C469.364 54.9423 469.179 54.502 469.179 53.9852C469.179 53.4683 469.364 53.0316 469.734 52.675C470.112 52.3184 470.576 52.14 471.127 52.14C471.694 52.14 472.158 52.3184 472.521 52.675C472.899 53.0244 473.087 53.4611 473.087 53.9852C473.087 54.5092 472.899 54.9496 472.521 55.3063ZM476.205 56.1142C476.819 56.6819 477.586 56.9658 478.507 56.9658C479.428 56.9658 480.196 56.6819 480.809 56.1142C481.431 55.5465 481.742 54.8368 481.742 53.9852C481.742 53.1336 481.431 52.4239 480.809 51.8561C480.196 51.2884 479.428 51.0045 478.507 51.0045C477.586 51.0045 476.819 51.2884 476.205 51.8561C475.591 52.4239 475.284 53.1336 475.284 53.9852C475.284 54.8368 475.591 55.5465 476.205 56.1142ZM479.9 55.3063C479.538 55.6556 479.074 55.8303 478.507 55.8303C477.955 55.8303 477.492 55.6556 477.114 55.3063C476.743 54.9423 476.559 54.502 476.559 53.9852C476.559 53.4683 476.743 53.0316 477.114 52.675C477.492 52.3184 477.955 52.14 478.507 52.14C479.074 52.14 479.538 52.3184 479.9 52.675C480.278 53.0244 480.467 53.4611 480.467 53.9852C480.467 54.5092 480.278 54.9496 479.9 55.3063ZM484.163 51.1465H482.935V56.8239H484.163V53.5703C484.163 53.1481 484.319 52.7951 484.635 52.5112C484.95 52.2274 485.344 52.0854 485.816 52.0854C486.272 52.0854 486.65 52.2274 486.949 52.5112C487.248 52.7878 487.398 53.1372 487.398 53.5594V56.8239H488.626V53.2318C488.626 52.5986 488.393 52.0673 487.929 51.6378C487.472 51.2156 486.89 51.0045 486.182 51.0045C485.284 51.0045 484.611 51.3284 484.163 51.9762V51.1465ZM489.505 48.0894L489.682 48.3078C490.005 48.708 490.332 49.3013 490.662 50.0874C490.835 50.4805 490.981 50.979 491.099 51.5832C491.359 52.8279 491.355 54.0507 491.087 55.2517C490.953 55.8485 490.811 56.3398 490.662 56.7256C490.497 57.1333 490.32 57.4971 490.131 57.8174C489.942 58.1522 489.796 58.3779 489.694 58.4943L489.505 58.7345H490.65L490.662 58.7236C490.749 58.6509 490.832 58.5526 490.91 58.4288C490.997 58.3197 491.142 58.0976 491.347 57.7628C491.536 57.4499 491.706 57.1005 491.855 56.7147C492.233 55.7539 492.421 54.6512 492.421 53.4065C492.421 52.715 492.358 52.0673 492.233 51.4631C492.107 50.8517 491.965 50.3567 491.807 49.9782C491.673 49.6434 491.493 49.2904 491.264 48.9192C491.059 48.5916 490.918 48.3842 490.839 48.2968L490.65 48.0894H489.505Z" fill="#004796"/>
</g>
</g>
<defs>
<filter id="filter0_i_112_327" x="405.816" y="-0.0185547" width="224.339" height="350.439" filterUnits="userSpaceOnUse" color-interpolation-filters="sRGB">
<feFlood flood-opacity="0" result="BackgroundImageFix"/>
<feBlend mode="normal" in="SourceGraphic" in2="BackgroundImageFix" result="shape"/>
<feColorMatrix in="SourceAlpha" type="matrix" values="0 0 0 0 0 0 0 0 0 0 0 0 0 0 0 0 0 0 127 0" result="hardAlpha"/>
<feOffset dy="4"/>
<feGaussianBlur stdDeviation="2"/>
<feComposite in2="hardAlpha" operator="arithmetic" k2="-1" k3="1"/>
<feColorMatrix type="matrix" values="0 0 0 0 0 0 0 0 0 0 0 0 0 0 0 0 0 0 0.25 0"/>
<feBlend mode="normal" in2="shape" result="effect1_innerShadow_112_327"/>
</filter>
<filter id="filter1_i_112_327" x="574.339" y="67.4939" width="77.2842" height="41.717" filterUnits="userSpaceOnUse" color-interpolation-filters="sRGB">
<feFlood flood-opacity="0" result="BackgroundImageFix"/>
<feBlend mode="normal" in="SourceGraphic" in2="BackgroundImageFix" result="shape"/>
<feColorMatrix in="SourceAlpha" type="matrix" values="0 0 0 0 0 0 0 0 0 0 0 0 0 0 0 0 0 0 127 0" result="hardAlpha"/>
<feOffset dy="4"/>
<feGaussianBlur stdDeviation="15"/>
<feComposite in2="hardAlpha" operator="arithmetic" k2="-1" k3="1"/>
<feColorMatrix type="matrix" values="0 0 0 0 0 0 0 0 0 0 0 0 0 0 0 0 0 0 0.15 0"/>
<feBlend mode="normal" in2="shape" result="effect1_innerShadow_112_327"/>
</filter>
<filter id="filter2_i_112_327" x="357.514" y="83.3748" width="104.119" height="42.7097" filterUnits="userSpaceOnUse" color-interpolation-filters="sRGB">
<feFlood flood-opacity="0" result="BackgroundImageFix"/>
<feBlend mode="normal" in="SourceGraphic" in2="BackgroundImageFix" result="shape"/>
<feColorMatrix in="SourceAlpha" type="matrix" values="0 0 0 0 0 0 0 0 0 0 0 0 0 0 0 0 0 0 127 0" result="hardAlpha"/>
<feOffset dy="4"/>
<feGaussianBlur stdDeviation="15"/>
<feComposite in2="hardAlpha" operator="arithmetic" k2="-1" k3="1"/>
<feColorMatrix type="matrix" values="0 0 0 0 0 0 0 0 0 0 0 0 0 0 0 0 0 0 0.15 0"/>
<feBlend mode="normal" in2="shape" result="effect1_innerShadow_112_327"/>
</filter>
<filter id="filter3_i_112_327" x="469.147" y="128.04" width="98.7524" height="44.6948" filterUnits="userSpaceOnUse" color-interpolation-filters="sRGB">
<feFlood flood-opacity="0" result="BackgroundImageFix"/>
<feBlend mode="normal" in="SourceGraphic" in2="BackgroundImageFix" result="shape"/>
<feColorMatrix in="SourceAlpha" type="matrix" values="0 0 0 0 0 0 0 0 0 0 0 0 0 0 0 0 0 0 127 0" result="hardAlpha"/>
<feOffset dy="4"/>
<feGaussianBlur stdDeviation="15"/>
<feComposite in2="hardAlpha" operator="arithmetic" k2="-1" k3="1"/>
<feColorMatrix type="matrix" values="0 0 0 0 0 0 0 0 0 0 0 0 0 0 0 0 0 0 0.15 0"/>
<feBlend mode="normal" in2="shape" result="effect1_innerShadow_112_327"/>
</filter>
<filter id="filter4_i_112_327" x="590.046" y="182.166" width="64.4038" height="41.717" filterUnits="userSpaceOnUse" color-interpolation-filters="sRGB">
<feFlood flood-opacity="0" result="BackgroundImageFix"/>
<feBlend mode="normal" in="SourceGraphic" in2="BackgroundImageFix" result="shape"/>
<feColorMatrix in="SourceAlpha" type="matrix" values="0 0 0 0 0 0 0 0 0 0 0 0 0 0 0 0 0 0 127 0" result="hardAlpha"/>
<feOffset dy="4"/>
<feGaussianBlur stdDeviation="15"/>
<feComposite in2="hardAlpha" operator="arithmetic" k2="-1" k3="1"/>
<feColorMatrix type="matrix" values="0 0 0 0 0 0 0 0 0 0 0 0 0 0 0 0 0 0 0.15 0"/>
<feBlend mode="normal" in2="shape" result="effect1_innerShadow_112_327"/>
</filter>
<filter id="filter5_i_112_327" x="618.349" y="252.109" width="69.7705" height="42.7097" filterUnits="userSpaceOnUse" color-interpolation-filters="sRGB">
<feFlood flood-opacity="0" result="BackgroundImageFix"/>
<feBlend mode="normal" in="SourceGraphic" in2="BackgroundImageFix" result="shape"/>
<feColorMatrix in="SourceAlpha" type="matrix" values="0 0 0 0 0 0 0 0 0 0 0 0 0 0 0 0 0 0 127 0" result="hardAlpha"/>
<feOffset dy="4"/>
<feGaussianBlur stdDeviation="15"/>
<feComposite in2="hardAlpha" operator="arithmetic" k2="-1" k3="1"/>
<feColorMatrix type="matrix" values="0 0 0 0 0 0 0 0 0 0 0 0 0 0 0 0 0 0 0.15 0"/>
<feBlend mode="normal" in2="shape" result="effect1_innerShadow_112_327"/>
</filter>
<filter id="filter6_i_112_327" x="426.211" y="221.34" width="121.293" height="41.717" filterUnits="userSpaceOnUse" color-interpolation-filters="sRGB">
<feFlood flood-opacity="0" result="BackgroundImageFix"/>
<feBlend mode="normal" in="SourceGraphic" in2="BackgroundImageFix" result="shape"/>
<feColorMatrix in="SourceAlpha" type="matrix" values="0 0 0 0 0 0 0 0 0 0 0 0 0 0 0 0 0 0 127 0" result="hardAlpha"/>
<feOffset dy="4"/>
<feGaussianBlur stdDeviation="15"/>
<feComposite in2="hardAlpha" operator="arithmetic" k2="-1" k3="1"/>
<feColorMatrix type="matrix" values="0 0 0 0 0 0 0 0 0 0 0 0 0 0 0 0 0 0 0.15 0"/>
<feBlend mode="normal" in2="shape" result="effect1_innerShadow_112_327"/>
</filter>
<filter id="filter7_i_112_327" x="365.006" y="298.361" width="92.312" height="42.7097" filterUnits="userSpaceOnUse" color-interpolation-filters="sRGB">
<feFlood flood-opacity="0" result="BackgroundImageFix"/>
<feBlend mode="normal" in="SourceGraphic" in2="BackgroundImageFix" result="shape"/>
<feColorMatrix in="SourceAlpha" type="matrix" values="0 0 0 0 0 0 0 0 0 0 0 0 0 0 0 0 0 0 127 0" result="hardAlpha"/>
<feOffset dy="4"/>
<feGaussianBlur stdDeviation="15"/>
<feComposite in2="hardAlpha" operator="arithmetic" k2="-1" k3="1"/>
<feColorMatrix type="matrix" values="0 0 0 0 0 0 0 0 0 0 0 0 0 0 0 0 0 0 0.15 0"/>
<feBlend mode="normal" in2="shape" result="effect1_innerShadow_112_327"/>
</filter>
<filter id="filter8_i_112_327" x="458.413" y="364.268" width="114.853" height="39.7319" filterUnits="userSpaceOnUse" color-interpolation-filters="sRGB">
<feFlood flood-opacity="0" result="BackgroundImageFix"/>
<feBlend mode="normal" in="SourceGraphic" in2="BackgroundImageFix" result="shape"/>
<feColorMatrix in="SourceAlpha" type="matrix" values="0 0 0 0 0 0 0 0 0 0 0 0 0 0 0 0 0 0 127 0" result="hardAlpha"/>
<feOffset dy="4"/>
<feGaussianBlur stdDeviation="15"/>
<feComposite in2="hardAlpha" operator="arithmetic" k2="-1" k3="1"/>
<feColorMatrix type="matrix" values="0 0 0 0 0 0 0 0 0 0 0 0 0 0 0 0 0 0 0.15 0"/>
<feBlend mode="normal" in2="shape" result="effect1_innerShadow_112_327"/>
</filter>
<filter id="filter9_i_112_327" x="417.624" y="26.7991" width="119.147" height="44.6948" filterUnits="userSpaceOnUse" color-interpolation-filters="sRGB">
<feFlood flood-opacity="0" result="BackgroundImageFix"/>
<feBlend mode="normal" in="SourceGraphic" in2="BackgroundImageFix" result="shape"/>
<feColorMatrix in="SourceAlpha" type="matrix" values="0 0 0 0 0 0 0 0 0 0 0 0 0 0 0 0 0 0 127 0" result="hardAlpha"/>
<feOffset dy="4"/>
<feGaussianBlur stdDeviation="15"/>
<feComposite in2="hardAlpha" operator="arithmetic" k2="-1" k3="1"/>
<feColorMatrix type="matrix" values="0 0 0 0 0 0 0 0 0 0 0 0 0 0 0 0 0 0 0.15 0"/>
<feBlend mode="normal" in2="shape" result="effect1_innerShadow_112_327"/>
</filter>
<linearGradient id="paint0_linear_112_327" x1="568.251" y1="-15.3729" x2="453.928" y2="348.551" gradientUnits="userSpaceOnUse">
<stop stop-color="#F5E2D3"/>
<stop offset="1" stop-color="white"/>
</linearGradient>
<clipPath id="clip0_112_327">
<rect width="351" height="400" fill="white" transform="translate(350)"/>
</clipPath>
</defs>
</svg>
