<svg width="375" height="538" viewBox="0 0 375 538" fill="none" xmlns="http://www.w3.org/2000/svg">
<path d="M0 1L6.06302 15.6887C9.23963 23.3847 13.5812 30.5461 18.9354 36.9219L21.5105 39.9884C24.6815 43.7645 28.3663 47.0774 32.4571 49.8304V49.8304C39.2403 54.3953 46.9915 57.3211 55.0992 58.3772L65.9546 59.7911C74.7873 60.9416 83.7348 60.8974 92.5557 59.6597L104.91 57.9263C110.39 57.1575 115.804 55.9786 121.107 54.3996V54.3996C131.351 51.3493 141.983 49.8 152.672 49.8H153.297C162.247 49.8 171.167 50.8459 179.875 52.9163L202.973 58.4083C211.681 60.4788 220.601 61.5247 229.552 61.5247V61.5247H246.425H256.945C266.434 61.5247 275.77 63.9135 284.093 68.471V68.471C288.349 70.8018 292.288 73.6711 295.811 77.0081L304.892 85.6078V85.6078C317.603 95.0992 331.05 103.561 345.107 110.914L347.009 111.909L375 123" stroke="#DFDFDF" stroke-opacity="0.3"/>
<path d="M0 149.874L13.8622 142.813C21.1931 139.079 28.1934 134.729 34.7875 129.81V129.81C42.3179 124.192 50.3758 119.318 58.8478 115.256L91.0472 99.8206L106.323 94.4134C114.575 91.4925 123.264 90 132.017 90V90C141.696 90 151.288 91.8246 160.29 95.3784L171.544 99.8206V99.8206C182.652 104.358 194.884 105.385 206.594 102.763L219.738 99.8206L227.118 97.9529C237.079 95.4324 247.494 95.3092 257.511 97.5931V97.5931C263.986 99.0694 270.196 101.529 275.925 104.887L281.022 107.874C286.265 110.947 291.227 114.476 295.85 118.421L311.176 131.5L330.063 145.122V145.122C339.906 154.152 351.05 161.653 363.122 167.372L375 173" stroke="#DFDFDF" stroke-opacity="0.3"/>
<path d="M0 172L24.4421 123.421C28.3083 115.737 34.1771 109.239 41.4292 104.613L44.4332 102.697C55.3929 95.7063 69.0298 94.3626 81.1431 99.08V99.08C93.697 103.969 107.856 102.339 118.97 94.7244L121.903 92.7153C133.789 84.5718 148.837 82.556 162.448 87.2838V87.2838C170.519 90.0872 179.217 90.5556 187.542 88.6351L200.395 85.6702L208.094 83.8942C219.986 81.1509 232.151 79.766 244.356 79.766V79.766H254.207C266.744 79.766 279.195 77.6976 291.059 73.6443V73.6443C300.864 70.2942 310.167 65.6229 318.709 59.7592L345.823 41.1489L375 22" stroke="#DFDFDF" stroke-opacity="0.3"/>
<path d="M69.52 8.656V17H67.952V7.2H76.408V17H74.826V8.656H69.52ZM85.4553 13.892H79.4073C79.5193 14.4613 79.7946 14.928 80.2333 15.292C80.6813 15.6467 81.2086 15.824 81.8153 15.824C82.6366 15.824 83.2806 15.5207 83.7473 14.914L85.1753 15.348C84.8393 15.9173 84.3726 16.3653 83.7753 16.692C83.1873 17.0187 82.5339 17.182 81.8153 17.182C80.6953 17.182 79.7666 16.818 79.0293 16.09C78.2826 15.362 77.9093 14.452 77.9093 13.36C77.9093 12.2773 78.2686 11.3673 78.9873 10.63C79.7153 9.902 80.6206 9.538 81.7033 9.538C82.7859 9.538 83.6819 9.902 84.3913 10.63C85.1193 11.358 85.4833 12.268 85.4833 13.36C85.4833 13.3973 85.4739 13.5747 85.4553 13.892ZM79.4213 12.73H83.9853C83.8546 12.1887 83.5746 11.75 83.1453 11.414C82.7159 11.0687 82.2213 10.896 81.6613 10.896C81.1293 10.896 80.6533 11.0687 80.2333 11.414C79.8226 11.75 79.5519 12.1887 79.4213 12.73ZM88.2322 20.15H86.7762V9.72H88.2322V10.504C88.9042 9.86 89.7115 9.538 90.6542 9.538C91.6715 9.538 92.5255 9.902 93.2162 10.63C93.8975 11.3487 94.2382 12.2587 94.2382 13.36C94.2382 14.4613 93.8975 15.3713 93.2162 16.09C92.5255 16.818 91.6715 17.182 90.6542 17.182C89.7115 17.182 88.9042 16.86 88.2322 16.216V20.15ZM90.4862 10.994C89.8609 10.994 89.3335 11.2227 88.9042 11.68C88.4749 12.1187 88.2602 12.6787 88.2602 13.36C88.2602 14.032 88.4749 14.5967 88.9042 15.054C89.3335 15.502 89.8609 15.726 90.4862 15.726C91.1115 15.726 91.6435 15.502 92.0822 15.054C92.5115 14.5967 92.7262 14.032 92.7262 13.36C92.7262 12.6787 92.5115 12.1187 92.0822 11.68C91.6529 11.2227 91.1209 10.994 90.4862 10.994ZM102.873 13.892H96.8253C96.9373 14.4613 97.2126 14.928 97.6513 15.292C98.0993 15.6467 98.6266 15.824 99.2333 15.824C100.055 15.824 100.699 15.5207 101.165 14.914L102.593 15.348C102.257 15.9173 101.791 16.3653 101.193 16.692C100.605 17.0187 99.9519 17.182 99.2333 17.182C98.1133 17.182 97.1846 16.818 96.4473 16.09C95.7006 15.362 95.3273 14.452 95.3273 13.36C95.3273 12.2773 95.6866 11.3673 96.4053 10.63C97.1333 9.902 98.0386 9.538 99.1213 9.538C100.204 9.538 101.1 9.902 101.809 10.63C102.537 11.358 102.901 12.268 102.901 13.36C102.901 13.3973 102.892 13.5747 102.873 13.892ZM96.8392 12.73H101.403C101.273 12.1887 100.993 11.75 100.563 11.414C100.134 11.0687 99.6393 10.896 99.0793 10.896C98.5473 10.896 98.0713 11.0687 97.6513 11.414C97.2406 11.75 96.9699 12.1887 96.8392 12.73ZM104.194 17V9.72H105.65V14.578L109.766 9.72H110.984V17H109.528V12.17L105.412 17H104.194ZM105.188 6.668H106.406C106.406 6.98533 106.518 7.25133 106.742 7.466C106.976 7.68067 107.265 7.788 107.61 7.788C107.937 7.788 108.212 7.68067 108.436 7.466C108.67 7.25133 108.786 6.98533 108.786 6.668H110.004C110.004 7.33067 109.776 7.87667 109.318 8.306C108.861 8.73533 108.292 8.95 107.61 8.95C106.91 8.95 106.332 8.73533 105.874 8.306C105.417 7.87667 105.188 7.33067 105.188 6.668ZM114.629 17V11.12H112.053V9.72H118.661V11.12H116.085V17H114.629ZM125.046 12.17L120.93 17H119.712V9.72H121.168V14.578L125.284 9.72H126.502V17H125.046V12.17Z" fill="white" fill-opacity="0.9"/>
<path d="M151.464 13.3536C151.66 13.1583 151.66 12.8417 151.464 12.6464L148.282 9.46447C148.087 9.2692 147.77 9.2692 147.575 9.46447C147.38 9.65973 147.38 9.97631 147.575 10.1716L150.404 13L147.575 15.8284C147.38 16.0237 147.38 16.3403 147.575 16.5355C147.77 16.7308 148.087 16.7308 148.282 16.5355L151.464 13.3536ZM133 13.5H151.111V12.5H133V13.5Z" fill="white"/>
<circle cx="292.5" cy="72.5" r="2.5" fill="#F6BD11"/>
<circle cx="292.5" cy="72.5" r="2.5" fill="#F6BD11"/>
<circle cx="292.5" cy="72.5" r="2.5" fill="#004796"/>
<g filter="url(#filter0_d_12_4579)">
<rect x="83" y="142" width="209" height="349" rx="20" fill="url(#paint0_linear_12_4579)"/>
<rect x="85.5" y="144.5" width="204" height="344" rx="17.5" stroke="white" stroke-width="5"/>
</g>
<path d="M251.147 160.035C251.147 160.59 250.697 161.04 250.142 161.04C249.586 161.04 249.137 160.59 249.137 160.035C249.137 159.479 249.586 159.03 250.142 159.03C250.697 159.03 251.147 159.479 251.147 160.035ZM247.828 158.1L248.599 158.746C249.367 157.829 250.918 157.829 251.685 158.747L252.457 158.103C251.881 157.415 251.037 157.02 250.142 157.02C249.247 157.02 248.404 157.413 247.828 158.1ZM246.417 156.661L247.162 157.336C247.923 156.496 249.008 156.015 250.142 156.015C251.274 156.015 252.36 156.496 253.12 157.334L253.864 156.659C252.913 155.611 251.557 155.01 250.142 155.01C248.726 155.01 247.368 155.613 246.417 156.661ZM245 155.233L245.734 155.919C246.871 154.703 248.477 154.005 250.142 154.005C251.831 154.005 253.395 154.684 254.547 155.917L255.282 155.23C253.957 153.813 252.083 153 250.142 153C248.199 153 246.326 153.814 245 155.233Z" fill="black" fill-opacity="0.8"/>
<path d="M263 154.169V159.829H272.434V154.169H263ZM271.868 159.15H263.566V154.848H271.868V159.15Z" fill="black" fill-opacity="0.8"/>
<path d="M264.699 155.526H264.133V158.47H264.699V155.526Z" fill="black" fill-opacity="0.8"/>
<path d="M273 155.526H272.434V158.47H273V155.526Z" fill="black" fill-opacity="0.8"/>
<path d="M187.501 445C188.997 445 190.21 443.694 190.21 442.084C190.21 440.473 188.997 439.167 187.501 439.167C186.006 439.167 184.793 440.473 184.793 442.084C184.793 443.694 186.006 445 187.501 445Z" stroke="black" stroke-opacity="0.8" stroke-width="2"/>
<path d="M190.209 446.167H190.4C190.796 446.167 191.178 446.323 191.475 446.605C191.772 446.888 191.963 447.277 192.012 447.7L192.223 449.522C192.243 449.686 192.229 449.853 192.184 450.011C192.138 450.169 192.062 450.315 191.961 450.439C191.859 450.563 191.734 450.663 191.594 450.731C191.454 450.799 191.302 450.834 191.148 450.834H183.853C183.699 450.834 183.548 450.799 183.408 450.731C183.268 450.663 183.142 450.563 183.041 450.439C182.939 450.315 182.863 450.169 182.818 450.011C182.772 449.853 182.759 449.686 182.778 449.522L182.989 447.7C183.038 447.277 183.229 446.887 183.526 446.605C183.823 446.323 184.206 446.167 184.602 446.167H184.792" stroke="black" stroke-opacity="0.8" stroke-width="2" stroke-linecap="round" stroke-linejoin="round"/>
<path d="M105.916 162H104.917V155.377L102.913 156.113V155.211L105.76 154.142H105.916V162ZM109.283 158.079L109.681 154.18H113.688V155.098H110.524L110.288 157.23C110.671 157.005 111.106 156.892 111.593 156.892C112.305 156.892 112.871 157.128 113.29 157.601C113.709 158.07 113.918 158.706 113.918 159.508C113.918 160.313 113.7 160.949 113.263 161.415C112.83 161.876 112.223 162.107 111.442 162.107C110.751 162.107 110.187 161.916 109.75 161.533C109.314 161.15 109.065 160.62 109.004 159.943H109.944C110.005 160.39 110.164 160.729 110.422 160.958C110.68 161.184 111.02 161.296 111.442 161.296C111.904 161.296 112.266 161.139 112.527 160.824C112.792 160.509 112.925 160.074 112.925 159.519C112.925 158.996 112.782 158.577 112.495 158.262C112.212 157.943 111.834 157.784 111.362 157.784C110.929 157.784 110.588 157.879 110.341 158.068L110.078 158.283L109.283 158.079ZM115.073 161.479C115.073 161.307 115.123 161.164 115.224 161.049C115.327 160.935 115.481 160.877 115.686 160.877C115.89 160.877 116.044 160.935 116.147 161.049C116.255 161.164 116.309 161.307 116.309 161.479C116.309 161.644 116.255 161.782 116.147 161.893C116.044 162.004 115.89 162.059 115.686 162.059C115.481 162.059 115.327 162.004 115.224 161.893C115.123 161.782 115.073 161.644 115.073 161.479ZM115.079 156.736C115.079 156.564 115.129 156.421 115.229 156.307C115.333 156.192 115.487 156.135 115.691 156.135C115.895 156.135 116.049 156.192 116.153 156.307C116.26 156.421 116.314 156.564 116.314 156.736C116.314 156.901 116.26 157.039 116.153 157.15C116.049 157.261 115.895 157.316 115.691 157.316C115.487 157.316 115.333 157.261 115.229 157.15C115.129 157.039 115.079 156.901 115.079 156.736ZM122.571 158.665C122.571 159.828 122.373 160.693 121.975 161.259C121.578 161.825 120.956 162.107 120.111 162.107C119.277 162.107 118.659 161.832 118.258 161.28C117.857 160.725 117.65 159.898 117.635 158.799V157.472C117.635 156.323 117.834 155.469 118.231 154.91C118.629 154.352 119.252 154.072 120.101 154.072C120.942 154.072 121.562 154.343 121.959 154.883C122.356 155.42 122.561 156.251 122.571 157.375V158.665ZM121.578 157.306C121.578 156.464 121.459 155.852 121.223 155.469C120.987 155.082 120.613 154.889 120.101 154.889C119.592 154.889 119.222 155.08 118.989 155.463C118.756 155.847 118.636 156.436 118.629 157.23V158.82C118.629 159.665 118.751 160.29 118.994 160.695C119.241 161.096 119.614 161.296 120.111 161.296C120.602 161.296 120.965 161.107 121.202 160.727C121.442 160.347 121.567 159.75 121.578 158.933V157.306ZM128.748 158.665C128.748 159.828 128.549 160.693 128.152 161.259C127.754 161.825 127.133 162.107 126.288 162.107C125.454 162.107 124.836 161.832 124.435 161.28C124.034 160.725 123.826 159.898 123.812 158.799V157.472C123.812 156.323 124.011 155.469 124.408 154.91C124.806 154.352 125.429 154.072 126.277 154.072C127.119 154.072 127.738 154.343 128.136 154.883C128.533 155.42 128.737 156.251 128.748 157.375V158.665ZM127.754 157.306C127.754 156.464 127.636 155.852 127.4 155.469C127.164 155.082 126.789 154.889 126.277 154.889C125.769 154.889 125.398 155.08 125.166 155.463C124.933 155.847 124.813 156.436 124.806 157.23V158.82C124.806 159.665 124.927 160.29 125.171 160.695C125.418 161.096 125.79 161.296 126.288 161.296C126.779 161.296 127.142 161.107 127.378 160.727C127.618 160.347 127.744 159.75 127.754 158.933V157.306Z" fill="black" fill-opacity="0.8"/>
<g filter="url(#filter1_i_12_4579)">
<rect x="240" y="210" width="72" height="38" rx="10" fill="#F35888"/>
</g>
<path d="M257.611 224.9H261.875C262.802 224.9 263.582 225.195 264.215 225.784C264.848 226.365 265.164 227.088 265.164 227.955C265.164 228.527 265.017 229.051 264.722 229.528C264.427 229.996 264.029 230.36 263.526 230.62L265.489 234H263.201L261.446 231.01H259.678V234H257.611V224.9ZM261.875 226.798H259.678V229.112H261.875C262.204 229.112 262.477 229.004 262.694 228.787C262.911 228.562 263.019 228.284 263.019 227.955C263.019 227.626 262.911 227.353 262.694 227.136C262.477 226.911 262.204 226.798 261.875 226.798ZM272.815 231.322H267.784C267.896 231.677 268.1 231.963 268.395 232.18C268.689 232.397 269.036 232.505 269.435 232.505C269.989 232.505 270.436 232.306 270.774 231.907L272.659 232.336C272.347 232.908 271.905 233.359 271.333 233.688C270.769 234.009 270.132 234.169 269.422 234.169C268.364 234.169 267.485 233.831 266.783 233.155C266.081 232.479 265.73 231.634 265.73 230.62C265.73 229.615 266.072 228.774 266.757 228.098C267.441 227.413 268.295 227.071 269.318 227.071C270.332 227.071 271.181 227.413 271.866 228.098C272.55 228.774 272.893 229.615 272.893 230.62C272.893 230.863 272.867 231.097 272.815 231.322ZM267.797 229.879H270.904C270.782 229.532 270.579 229.255 270.293 229.047C270.007 228.839 269.682 228.735 269.318 228.735C268.971 228.735 268.659 228.839 268.382 229.047C268.104 229.255 267.909 229.532 267.797 229.879ZM275.632 234H273.682V224.25H275.632V234ZM276.521 230.62C276.521 229.597 276.824 228.752 277.431 228.085C278.037 227.409 278.8 227.071 279.719 227.071C280.412 227.071 281.036 227.279 281.591 227.695V227.24H283.528V234H281.591V233.532C281.053 233.957 280.429 234.169 279.719 234.169C278.8 234.169 278.037 233.831 277.431 233.155C276.824 232.47 276.521 231.625 276.521 230.62ZM280.057 228.995C279.632 228.995 279.272 229.151 278.978 229.463C278.692 229.775 278.549 230.156 278.549 230.607C278.549 231.075 278.692 231.465 278.978 231.777C279.272 232.089 279.632 232.245 280.057 232.245C280.473 232.245 280.828 232.089 281.123 231.777C281.417 231.465 281.565 231.075 281.565 230.607C281.565 230.148 281.417 229.766 281.123 229.463C280.828 229.151 280.473 228.995 280.057 228.995ZM289.136 234L287.784 232.037L286.445 234H284.157L286.627 230.516L284.3 227.24H286.575L287.784 228.995L288.993 227.24H291.268L288.954 230.516L291.411 234H289.136Z" fill="white"/>
<path d="M233.546 204.695C233.329 203.941 234.025 203.243 234.779 203.457L242.075 205.525C242.809 205.732 243.049 206.652 242.511 207.192L237.309 212.413C236.771 212.953 235.85 212.716 235.64 211.983L233.546 204.695Z" fill="#F35888"/>
<g filter="url(#filter2_i_12_4579)">
<rect x="33" y="226" width="97" height="39" rx="10" fill="#F6BD11"/>
</g>
<path d="M42.163 235.3H47.916V236.906H43.912V238.336H47.278V239.942H43.912V243H42.163V235.3ZM48.0658 240.14C48.0658 239.275 48.3225 238.56 48.8358 237.995C49.3491 237.423 49.9945 237.137 50.7718 237.137C51.3585 237.137 51.8865 237.313 52.3558 237.665V237.28H53.9948V243H52.3558V242.604C51.9011 242.963 51.3731 243.143 50.7718 243.143C49.9945 243.143 49.3491 242.857 48.8358 242.285C48.3225 241.706 48.0658 240.991 48.0658 240.14ZM51.0578 238.765C50.6985 238.765 50.3941 238.897 50.1448 239.161C49.9028 239.425 49.7818 239.748 49.7818 240.129C49.7818 240.525 49.9028 240.855 50.1448 241.119C50.3941 241.383 50.6985 241.515 51.0578 241.515C51.4098 241.515 51.7105 241.383 51.9598 241.119C52.2091 240.855 52.3338 240.525 52.3338 240.129C52.3338 239.74 52.2091 239.418 51.9598 239.161C51.7105 238.897 51.4098 238.765 51.0578 238.765ZM60.6984 239.106L59.0374 239.59C58.9348 239.341 58.7734 239.143 58.5534 238.996C58.3334 238.842 58.0841 238.765 57.8054 238.765C57.4241 238.765 57.1051 238.897 56.8484 239.161C56.5918 239.418 56.4634 239.74 56.4634 240.129C56.4634 240.525 56.5918 240.855 56.8484 241.119C57.1051 241.383 57.4241 241.515 57.8054 241.515C58.0841 241.515 58.3334 241.442 58.5534 241.295C58.7734 241.141 58.9348 240.939 59.0374 240.69L60.6984 241.174C60.4784 241.775 60.1081 242.256 59.5874 242.615C59.0668 242.967 58.4728 243.143 57.8054 243.143C56.9254 243.143 56.1958 242.857 55.6164 242.285C55.0371 241.706 54.7474 240.991 54.7474 240.14C54.7474 239.282 55.0371 238.567 55.6164 237.995C56.1958 237.423 56.9254 237.137 57.8054 237.137C58.4728 237.137 59.0668 237.317 59.5874 237.676C60.1081 238.028 60.4784 238.505 60.6984 239.106ZM67.1448 240.734H62.8878C62.9831 241.035 63.1554 241.277 63.4048 241.46C63.6541 241.643 63.9474 241.735 64.2848 241.735C64.7541 241.735 65.1318 241.566 65.4178 241.229L67.0128 241.592C66.7488 242.076 66.3748 242.457 65.8908 242.736C65.4141 243.007 64.8751 243.143 64.2738 243.143C63.3791 243.143 62.6348 242.857 62.0408 242.285C61.4468 241.713 61.1498 240.998 61.1498 240.14C61.1498 239.289 61.4394 238.578 62.0188 238.006C62.5981 237.427 63.3204 237.137 64.1858 237.137C65.0438 237.137 65.7624 237.427 66.3418 238.006C66.9211 238.578 67.2108 239.289 67.2108 240.14C67.2108 240.345 67.1888 240.543 67.1448 240.734ZM62.8988 239.513H65.5278C65.4251 239.22 65.2528 238.985 65.0108 238.809C64.7688 238.633 64.4938 238.545 64.1858 238.545C63.8924 238.545 63.6284 238.633 63.3938 238.809C63.1591 238.985 62.9941 239.22 62.8988 239.513ZM67.8785 243V234.75H69.5285V237.665C69.9832 237.313 70.5075 237.137 71.1015 237.137C71.8715 237.137 72.5168 237.423 73.0375 237.995C73.5582 238.574 73.8185 239.289 73.8185 240.14C73.8185 240.983 73.5582 241.698 73.0375 242.285C72.5168 242.857 71.8715 243.143 71.1015 243.143C70.5222 243.143 69.9978 242.967 69.5285 242.615V243H67.8785ZM70.8265 238.765C70.4672 238.765 70.1628 238.897 69.9135 239.161C69.6715 239.425 69.5505 239.748 69.5505 240.129C69.5505 240.525 69.6715 240.855 69.9135 241.119C70.1628 241.383 70.4672 241.515 70.8265 241.515C71.1785 241.515 71.4755 241.383 71.7175 241.119C71.9668 240.855 72.0915 240.525 72.0915 240.129C72.0915 239.74 71.9668 239.418 71.7175 239.161C71.4755 238.897 71.1785 238.765 70.8265 238.765ZM75.2531 242.285C74.6738 241.706 74.3841 240.991 74.3841 240.14C74.3841 239.289 74.6738 238.578 75.2531 238.006C75.8325 237.427 76.5621 237.137 77.4421 237.137C78.3148 237.137 79.0408 237.427 79.6201 238.006C80.2068 238.578 80.5001 239.289 80.5001 240.14C80.5001 240.983 80.2068 241.698 79.6201 242.285C79.0335 242.857 78.3075 243.143 77.4421 243.143C76.5621 243.143 75.8325 242.857 75.2531 242.285ZM77.4421 241.515C77.8235 241.515 78.1388 241.383 78.3881 241.119C78.6521 240.848 78.7841 240.521 78.7841 240.14C78.7841 239.759 78.6521 239.436 78.3881 239.172C78.1388 238.901 77.8235 238.765 77.4421 238.765C77.0608 238.765 76.7418 238.897 76.4851 239.161C76.2285 239.432 76.1001 239.759 76.1001 240.14C76.1001 240.521 76.2285 240.848 76.4851 241.119C76.7418 241.383 77.0608 241.515 77.4421 241.515ZM81.9348 242.285C81.3555 241.706 81.0658 240.991 81.0658 240.14C81.0658 239.289 81.3555 238.578 81.9348 238.006C82.5141 237.427 83.2438 237.137 84.1238 237.137C84.9965 237.137 85.7225 237.427 86.3018 238.006C86.8885 238.578 87.1818 239.289 87.1818 240.14C87.1818 240.983 86.8885 241.698 86.3018 242.285C85.7151 242.857 84.9891 243.143 84.1238 243.143C83.2438 243.143 82.5141 242.857 81.9348 242.285ZM84.1238 241.515C84.5051 241.515 84.8205 241.383 85.0698 241.119C85.3338 240.848 85.4658 240.521 85.4658 240.14C85.4658 239.759 85.3338 239.436 85.0698 239.172C84.8205 238.901 84.5051 238.765 84.1238 238.765C83.7425 238.765 83.4235 238.897 83.1668 239.161C82.9101 239.432 82.7818 239.759 82.7818 240.14C82.7818 240.521 82.9101 240.848 83.1668 241.119C83.4235 241.383 83.7425 241.515 84.1238 241.515ZM87.9234 243V234.75H89.5734V239.524L91.1904 237.28H93.1374L91.1574 240.041L93.3464 243H91.3664L89.5734 240.547V243H87.9234ZM98.2209 245.475H96.5709V237.28H98.2209V237.665C98.6756 237.313 99.1999 237.137 99.7939 237.137C100.564 237.137 101.209 237.423 101.73 237.995C102.251 238.574 102.511 239.289 102.511 240.14C102.511 240.983 102.251 241.698 101.73 242.285C101.209 242.857 100.564 243.143 99.7939 243.143C99.2146 243.143 98.6902 242.967 98.2209 242.615V245.475ZM99.5189 238.765C99.1596 238.765 98.8552 238.897 98.6059 239.161C98.3639 239.425 98.2429 239.755 98.2429 240.151C98.2429 240.532 98.3639 240.855 98.6059 241.119C98.8552 241.383 99.1596 241.515 99.5189 241.515C99.8709 241.515 100.168 241.383 100.41 241.119C100.659 240.862 100.784 240.54 100.784 240.151C100.784 239.755 100.659 239.425 100.41 239.161C100.168 238.897 99.8709 238.765 99.5189 238.765ZM104.903 243H103.253V237.28H104.903V243ZM103.341 236.587C103.15 236.396 103.055 236.154 103.055 235.861C103.055 235.568 103.15 235.326 103.341 235.135C103.546 234.944 103.792 234.849 104.078 234.849C104.371 234.849 104.613 234.944 104.804 235.135C105.002 235.318 105.101 235.56 105.101 235.861C105.101 236.162 105.002 236.404 104.804 236.587C104.613 236.778 104.371 236.873 104.078 236.873C103.792 236.873 103.546 236.778 103.341 236.587ZM109.648 243L108.504 241.339L107.371 243H105.435L107.525 240.052L105.556 237.28H107.481L108.504 238.765L109.527 237.28H111.452L109.494 240.052L111.573 243H109.648ZM117.504 240.734H113.247C113.342 241.035 113.515 241.277 113.764 241.46C114.013 241.643 114.307 241.735 114.644 241.735C115.113 241.735 115.491 241.566 115.777 241.229L117.372 241.592C117.108 242.076 116.734 242.457 116.25 242.736C115.773 243.007 115.234 243.143 114.633 243.143C113.738 243.143 112.994 242.857 112.4 242.285C111.806 241.713 111.509 240.998 111.509 240.14C111.509 239.289 111.799 238.578 112.378 238.006C112.957 237.427 113.68 237.137 114.545 237.137C115.403 237.137 116.122 237.427 116.701 238.006C117.28 238.578 117.57 239.289 117.57 240.14C117.57 240.345 117.548 240.543 117.504 240.734ZM113.258 239.513H115.887C115.784 239.22 115.612 238.985 115.37 238.809C115.128 238.633 114.853 238.545 114.545 238.545C114.252 238.545 113.988 238.633 113.753 238.809C113.518 238.985 113.353 239.22 113.258 239.513ZM119.888 243H118.238V234.75H119.888V243ZM63.2251 248.398L63.3901 248.2H64.4461L64.2591 248.431C64.1858 248.519 64.0538 248.746 63.8631 249.113C63.4745 249.824 63.1738 250.69 62.9611 251.709C62.7265 252.934 62.7228 254.166 62.9501 255.405C63.0821 256.043 63.2215 256.545 63.3681 256.912C63.6981 257.741 64.0025 258.335 64.2811 258.694L64.4461 258.925H63.3901L63.3791 258.914C62.7925 258.239 62.3525 257.326 62.0591 256.175C61.8465 255.346 61.7401 254.474 61.7401 253.557C61.7401 252.208 61.9345 251.049 62.3231 250.081C62.6458 249.274 62.9465 248.713 63.2251 248.398ZM70.8009 252.941L69.6459 253.282C69.4993 252.974 69.2829 252.732 68.9969 252.556C68.7109 252.373 68.3846 252.281 68.0179 252.281C67.5046 252.281 67.0719 252.461 66.7199 252.82C66.3753 253.179 66.2029 253.619 66.2029 254.14C66.2029 254.661 66.3753 255.104 66.7199 255.471C67.0719 255.823 67.5046 255.999 68.0179 255.999C68.3846 255.999 68.7109 255.911 68.9969 255.735C69.2829 255.552 69.4993 255.306 69.6459 254.998L70.8009 255.339C70.5736 255.889 70.2106 256.329 69.7119 256.659C69.2206 256.982 68.6559 257.143 68.0179 257.143C67.1599 257.143 66.4449 256.857 65.8729 256.285C65.3009 255.713 65.0149 254.998 65.0149 254.14C65.0149 253.282 65.3009 252.567 65.8729 251.995C66.4449 251.423 67.1599 251.137 68.0179 251.137C68.6559 251.137 69.2206 251.302 69.7119 251.632C70.2106 251.955 70.5736 252.391 70.8009 252.941ZM76.8482 257H75.4402L72.9542 254.041L75.2092 251.28H76.6062L74.3622 254.041L76.8482 257ZM72.9432 251.28V257H71.7992V251.28H72.9432ZM80.1244 257.143C79.2664 257.143 78.5514 256.857 77.9794 256.285C77.4074 255.713 77.1214 254.998 77.1214 254.14C77.1214 253.282 77.4074 252.567 77.9794 251.995C78.5514 251.423 79.2664 251.137 80.1244 251.137C80.9824 251.137 81.6974 251.423 82.2694 251.995C82.8487 252.567 83.1384 253.282 83.1384 254.14C83.1384 254.998 82.8487 255.713 82.2694 256.285C81.6974 256.857 80.9824 257.143 80.1244 257.143ZM80.1244 255.999C80.6524 255.999 81.085 255.823 81.4224 255.471C81.7744 255.112 81.9504 254.668 81.9504 254.14C81.9504 253.612 81.7744 253.172 81.4224 252.82C81.085 252.461 80.6524 252.281 80.1244 252.281C79.611 252.281 79.1784 252.461 78.8264 252.82C78.4817 253.179 78.3094 253.619 78.3094 254.14C78.3094 254.661 78.4817 255.104 78.8264 255.471C79.1784 255.823 79.611 255.999 80.1244 255.999ZM85.3934 259.475H84.2494V251.28H85.3934V251.896C85.9214 251.39 86.5557 251.137 87.2964 251.137C88.0957 251.137 88.7667 251.423 89.3094 251.995C89.8447 252.56 90.1124 253.275 90.1124 254.14C90.1124 255.005 89.8447 255.72 89.3094 256.285C88.7667 256.857 88.0957 257.143 87.2964 257.143C86.5557 257.143 85.9214 256.89 85.3934 256.384V259.475ZM87.1644 252.281C86.673 252.281 86.2587 252.461 85.9214 252.82C85.584 253.165 85.4154 253.605 85.4154 254.14C85.4154 254.668 85.584 255.112 85.9214 255.471C86.2587 255.823 86.673 255.999 87.1644 255.999C87.6557 255.999 88.0737 255.823 88.4184 255.471C88.7557 255.112 88.9244 254.668 88.9244 254.14C88.9244 253.605 88.7557 253.165 88.4184 252.82C88.081 252.461 87.663 252.281 87.1644 252.281ZM93.9711 257.143C93.1131 257.143 92.3981 256.857 91.8261 256.285C91.2541 255.713 90.9681 254.998 90.9681 254.14C90.9681 253.282 91.2541 252.567 91.8261 251.995C92.3981 251.423 93.1131 251.137 93.9711 251.137C94.8291 251.137 95.5441 251.423 96.1161 251.995C96.6954 252.567 96.9851 253.282 96.9851 254.14C96.9851 254.998 96.6954 255.713 96.1161 256.285C95.5441 256.857 94.8291 257.143 93.9711 257.143ZM93.9711 255.999C94.4991 255.999 94.9317 255.823 95.2691 255.471C95.6211 255.112 95.7971 254.668 95.7971 254.14C95.7971 253.612 95.6211 253.172 95.2691 252.82C94.9317 252.461 94.4991 252.281 93.9711 252.281C93.4577 252.281 93.0251 252.461 92.6731 252.82C92.3284 253.179 92.1561 253.619 92.1561 254.14C92.1561 254.661 92.3284 255.104 92.6731 255.471C93.0251 255.823 93.4577 255.999 93.9711 255.999ZM97.7221 248.42L97.5571 248.2H98.6241L98.8001 248.409C98.8734 248.497 99.0054 248.706 99.1961 249.036C99.4087 249.41 99.5774 249.766 99.7021 250.103C99.8487 250.484 99.9807 250.983 100.098 251.599C100.215 252.208 100.274 252.86 100.274 253.557C100.274 254.811 100.098 255.922 99.7461 256.89C99.6067 257.279 99.4491 257.631 99.2731 257.946C99.0824 258.283 98.9467 258.507 98.8661 258.617C98.7927 258.742 98.7157 258.841 98.6351 258.914L98.6241 258.925H97.5571L97.7331 258.683C97.8284 258.566 97.9641 258.338 98.1401 258.001C98.3161 257.678 98.4811 257.312 98.6351 256.901C98.7744 256.512 98.9064 256.017 99.0311 255.416C99.2804 254.206 99.2841 252.974 99.0421 251.72C98.9321 251.111 98.7964 250.609 98.6351 250.213C98.3271 249.421 98.0227 248.823 97.7221 248.42Z" fill="white"/>
<path d="M136.329 221.815C137.097 221.653 137.744 222.397 137.477 223.134L134.895 230.264C134.636 230.981 133.701 231.156 133.2 230.58L128.363 225.02C127.863 224.445 128.165 223.544 128.911 223.386L136.329 221.815Z" fill="#F6BD11"/>
<g filter="url(#filter3_i_12_4579)">
<rect x="142" y="267" width="92" height="41" rx="10" fill="#2D6EFD"/>
</g>
<path d="M173.019 284H168.759V275.6H172.779C173.491 275.6 174.087 275.816 174.567 276.248C175.047 276.664 175.287 277.196 175.287 277.844C175.287 278.548 174.991 279.124 174.399 279.572C174.791 279.78 175.099 280.068 175.323 280.436C175.547 280.796 175.659 281.192 175.659 281.624C175.659 282.304 175.407 282.872 174.903 283.328C174.391 283.776 173.763 284 173.019 284ZM173.019 280.28H170.103V282.752H173.019C173.371 282.752 173.667 282.636 173.907 282.404C174.147 282.164 174.267 281.868 174.267 281.516C174.267 281.164 174.147 280.872 173.907 280.64C173.667 280.4 173.371 280.28 173.019 280.28ZM172.779 276.848H170.103V279.032H172.779C173.099 279.032 173.363 278.928 173.571 278.72C173.779 278.512 173.883 278.252 173.883 277.94C173.883 277.628 173.779 277.368 173.571 277.16C173.363 276.952 173.099 276.848 172.779 276.848ZM178.174 284H176.926V277.76H178.174V284ZM176.962 276.836C176.81 276.676 176.734 276.48 176.734 276.248C176.734 276.016 176.81 275.82 176.962 275.66C177.122 275.5 177.318 275.42 177.55 275.42C177.782 275.42 177.978 275.5 178.138 275.66C178.298 275.82 178.378 276.016 178.378 276.248C178.378 276.48 178.298 276.676 178.138 276.836C177.978 276.996 177.782 277.076 177.55 277.076C177.318 277.076 177.122 276.996 176.962 276.836ZM179.656 284V277.76H180.904V278.672C181.36 277.96 182.044 277.604 182.956 277.604C183.676 277.604 184.268 277.836 184.732 278.3C185.204 278.772 185.44 279.356 185.44 280.052V284H184.192V280.412C184.192 279.948 184.04 279.564 183.736 279.26C183.432 278.948 183.048 278.792 182.584 278.792C182.104 278.792 181.704 278.948 181.384 279.26C181.064 279.572 180.904 279.96 180.904 280.424V284H179.656ZM189.922 284.156C188.986 284.156 188.206 283.844 187.582 283.22C186.958 282.596 186.646 281.816 186.646 280.88C186.646 279.944 186.958 279.164 187.582 278.54C188.206 277.916 188.986 277.604 189.922 277.604C190.858 277.604 191.638 277.916 192.262 278.54C192.894 279.164 193.21 279.944 193.21 280.88C193.21 281.816 192.894 282.596 192.262 283.22C191.638 283.844 190.858 284.156 189.922 284.156ZM189.922 282.908C190.498 282.908 190.97 282.716 191.338 282.332C191.722 281.94 191.914 281.456 191.914 280.88C191.914 280.304 191.722 279.824 191.338 279.44C190.97 279.048 190.498 278.852 189.922 278.852C189.362 278.852 188.89 279.048 188.506 279.44C188.13 279.832 187.942 280.312 187.942 280.88C187.942 281.448 188.13 281.932 188.506 282.332C188.89 282.716 189.362 282.908 189.922 282.908ZM193.774 279.32V277.76H194.626V276.548H196.426V277.76H197.842V279.32H196.426V281.66C196.426 281.852 196.49 282.012 196.618 282.14C196.746 282.26 196.91 282.32 197.11 282.32H197.842V284H196.81C196.194 284 195.674 283.812 195.25 283.436C194.834 283.052 194.626 282.576 194.626 282.008V279.32H193.774ZM204.948 281.528H200.304C200.408 281.856 200.596 282.12 200.868 282.32C201.14 282.52 201.46 282.62 201.828 282.62C202.34 282.62 202.752 282.436 203.064 282.068L204.804 282.464C204.516 282.992 204.108 283.408 203.58 283.712C203.06 284.008 202.472 284.156 201.816 284.156C200.84 284.156 200.028 283.844 199.38 283.22C198.732 282.596 198.408 281.816 198.408 280.88C198.408 279.952 198.724 279.176 199.356 278.552C199.988 277.92 200.776 277.604 201.72 277.604C202.656 277.604 203.44 277.92 204.072 278.552C204.704 279.176 205.02 279.952 205.02 280.88C205.02 281.104 204.996 281.32 204.948 281.528ZM200.316 280.196H203.184C203.072 279.876 202.884 279.62 202.62 279.428C202.356 279.236 202.056 279.14 201.72 279.14C201.4 279.14 201.112 279.236 200.856 279.428C200.6 279.62 200.42 279.876 200.316 280.196ZM207.548 284H205.748V275H207.548V284ZM168.609 290.616L168.789 290.4H169.941L169.737 290.652C169.657 290.748 169.513 290.996 169.305 291.396C168.881 292.172 168.553 293.116 168.321 294.228C168.065 295.564 168.061 296.908 168.309 298.26C168.453 298.956 168.605 299.504 168.765 299.904C169.125 300.808 169.457 301.456 169.761 301.848L169.941 302.1H168.789L168.777 302.088C168.137 301.352 167.657 300.356 167.337 299.1C167.105 298.196 166.989 297.244 166.989 296.244C166.989 294.772 167.201 293.508 167.625 292.452C167.977 291.572 168.305 290.96 168.609 290.616ZM176.874 295.572L175.614 295.944C175.454 295.608 175.218 295.344 174.906 295.152C174.594 294.952 174.238 294.852 173.838 294.852C173.278 294.852 172.806 295.048 172.422 295.44C172.046 295.832 171.858 296.312 171.858 296.88C171.858 297.448 172.046 297.932 172.422 298.332C172.806 298.716 173.278 298.908 173.838 298.908C174.238 298.908 174.594 298.812 174.906 298.62C175.218 298.42 175.454 298.152 175.614 297.816L176.874 298.188C176.626 298.788 176.23 299.268 175.686 299.628C175.15 299.98 174.534 300.156 173.838 300.156C172.902 300.156 172.122 299.844 171.498 299.22C170.874 298.596 170.562 297.816 170.562 296.88C170.562 295.944 170.874 295.164 171.498 294.54C172.122 293.916 172.902 293.604 173.838 293.604C174.534 293.604 175.15 293.784 175.686 294.144C176.23 294.496 176.626 294.972 176.874 295.572ZM183.471 300H181.935L179.223 296.772L181.683 293.76H183.207L180.759 296.772L183.471 300ZM179.211 293.76V300H177.963V293.76H179.211ZM187.045 300.156C186.109 300.156 185.329 299.844 184.705 299.22C184.081 298.596 183.769 297.816 183.769 296.88C183.769 295.944 184.081 295.164 184.705 294.54C185.329 293.916 186.109 293.604 187.045 293.604C187.981 293.604 188.761 293.916 189.385 294.54C190.017 295.164 190.333 295.944 190.333 296.88C190.333 297.816 190.017 298.596 189.385 299.22C188.761 299.844 187.981 300.156 187.045 300.156ZM187.045 298.908C187.621 298.908 188.093 298.716 188.461 298.332C188.845 297.94 189.037 297.456 189.037 296.88C189.037 296.304 188.845 295.824 188.461 295.44C188.093 295.048 187.621 294.852 187.045 294.852C186.485 294.852 186.013 295.048 185.629 295.44C185.253 295.832 185.065 296.312 185.065 296.88C185.065 297.448 185.253 297.932 185.629 298.332C186.013 298.716 186.485 298.908 187.045 298.908ZM192.793 302.7H191.545V293.76H192.793V294.432C193.369 293.88 194.061 293.604 194.869 293.604C195.741 293.604 196.473 293.916 197.065 294.54C197.649 295.156 197.941 295.936 197.941 296.88C197.941 297.824 197.649 298.604 197.065 299.22C196.473 299.844 195.741 300.156 194.869 300.156C194.061 300.156 193.369 299.88 192.793 299.328V302.7ZM194.725 294.852C194.189 294.852 193.737 295.048 193.369 295.44C193.001 295.816 192.817 296.296 192.817 296.88C192.817 297.456 193.001 297.94 193.369 298.332C193.737 298.716 194.189 298.908 194.725 298.908C195.261 298.908 195.717 298.716 196.093 298.332C196.461 297.94 196.645 297.456 196.645 296.88C196.645 296.296 196.461 295.816 196.093 295.44C195.725 295.048 195.269 294.852 194.725 294.852ZM202.15 300.156C201.214 300.156 200.434 299.844 199.81 299.22C199.186 298.596 198.874 297.816 198.874 296.88C198.874 295.944 199.186 295.164 199.81 294.54C200.434 293.916 201.214 293.604 202.15 293.604C203.086 293.604 203.866 293.916 204.49 294.54C205.122 295.164 205.438 295.944 205.438 296.88C205.438 297.816 205.122 298.596 204.49 299.22C203.866 299.844 203.086 300.156 202.15 300.156ZM202.15 298.908C202.726 298.908 203.198 298.716 203.566 298.332C203.95 297.94 204.142 297.456 204.142 296.88C204.142 296.304 203.95 295.824 203.566 295.44C203.198 295.048 202.726 294.852 202.15 294.852C201.59 294.852 201.118 295.048 200.734 295.44C200.358 295.832 200.17 296.312 200.17 296.88C200.17 297.448 200.358 297.932 200.734 298.332C201.118 298.716 201.59 298.908 202.15 298.908ZM206.242 290.64L206.062 290.4H207.226L207.418 290.628C207.498 290.724 207.642 290.952 207.85 291.312C208.082 291.72 208.266 292.108 208.402 292.476C208.562 292.892 208.706 293.436 208.834 294.108C208.962 294.772 209.026 295.484 209.026 296.244C209.026 297.612 208.834 298.824 208.45 299.88C208.298 300.304 208.126 300.688 207.934 301.032C207.726 301.4 207.578 301.644 207.49 301.764C207.41 301.9 207.326 302.008 207.238 302.088L207.226 302.1H206.062L206.254 301.836C206.358 301.708 206.506 301.46 206.698 301.092C206.89 300.74 207.07 300.34 207.238 299.892C207.39 299.468 207.534 298.928 207.67 298.272C207.942 296.952 207.946 295.608 207.682 294.24C207.562 293.576 207.414 293.028 207.238 292.596C206.902 291.732 206.57 291.08 206.242 290.64Z" fill="white"/>
<g filter="url(#filter4_i_12_4579)">
<rect x="254.633" y="325.532" width="60" height="38" rx="10" fill="#41D3ED"/>
</g>
<path d="M271.282 342.298C271.282 342.042 271.17 341.826 270.946 341.65C270.73 341.474 270.466 341.386 270.154 341.386C269.842 341.386 269.558 341.486 269.302 341.686C269.046 341.886 268.846 342.158 268.702 342.502L267.01 341.698C267.298 341.05 267.718 340.546 268.27 340.186C268.83 339.818 269.458 339.634 270.154 339.634C271.002 339.634 271.718 339.89 272.302 340.402C272.886 340.906 273.178 341.518 273.178 342.238C273.178 343.102 272.57 344.094 271.354 345.214L270.034 346.438H273.238V348.19H267.226V346.822L270.238 343.99C270.934 343.334 271.282 342.77 271.282 342.298ZM276.96 345.07C276.96 344.126 277.24 343.346 277.8 342.73C278.36 342.106 279.064 341.794 279.912 341.794C280.552 341.794 281.128 341.986 281.64 342.37V339.19H283.428V348.19H281.64V347.758C281.144 348.15 280.568 348.346 279.912 348.346C279.064 348.346 278.36 348.034 277.8 347.41C277.24 346.778 276.96 345.998 276.96 345.07ZM280.224 343.57C279.832 343.57 279.5 343.714 279.228 344.002C278.964 344.29 278.832 344.642 278.832 345.058C278.832 345.49 278.964 345.85 279.228 346.138C279.5 346.426 279.832 346.57 280.224 346.57C280.608 346.57 280.936 346.426 281.208 346.138C281.48 345.85 281.616 345.49 281.616 345.058C281.616 344.634 281.48 344.282 281.208 344.002C280.936 343.714 280.608 343.57 280.224 343.57ZM285.198 347.41C284.566 346.778 284.25 345.998 284.25 345.07C284.25 344.142 284.566 343.366 285.198 342.742C285.83 342.11 286.626 341.794 287.586 341.794C288.538 341.794 289.33 342.11 289.962 342.742C290.602 343.366 290.922 344.142 290.922 345.07C290.922 345.99 290.602 346.77 289.962 347.41C289.322 348.034 288.53 348.346 287.586 348.346C286.626 348.346 285.83 348.034 285.198 347.41ZM287.586 346.57C288.002 346.57 288.346 346.426 288.618 346.138C288.906 345.842 289.05 345.486 289.05 345.07C289.05 344.654 288.906 344.302 288.618 344.014C288.346 343.718 288.002 343.57 287.586 343.57C287.17 343.57 286.822 343.714 286.542 344.002C286.262 344.298 286.122 344.654 286.122 345.07C286.122 345.486 286.262 345.842 286.542 346.138C286.822 346.426 287.17 346.57 287.586 346.57Z" fill="white"/>
<path d="M300.441 343.942L298.629 344.47C298.517 344.198 298.341 343.982 298.101 343.822C297.861 343.654 297.589 343.57 297.285 343.57C296.869 343.57 296.521 343.714 296.241 344.002C295.961 344.282 295.821 344.634 295.821 345.058C295.821 345.49 295.961 345.85 296.241 346.138C296.521 346.426 296.869 346.57 297.285 346.57C297.589 346.57 297.861 346.49 298.101 346.33C298.341 346.162 298.517 345.942 298.629 345.67L300.441 346.198C300.201 346.854 299.797 347.378 299.229 347.77C298.661 348.154 298.013 348.346 297.285 348.346C296.325 348.346 295.529 348.034 294.897 347.41C294.265 346.778 293.949 345.998 293.949 345.07C293.949 344.134 294.265 343.354 294.897 342.73C295.529 342.106 296.325 341.794 297.285 341.794C298.013 341.794 298.661 341.99 299.229 342.382C299.797 342.766 300.201 343.286 300.441 343.942Z" fill="#036D78"/>
<path d="M247.905 320.134C247.688 319.38 248.384 318.681 249.139 318.895L256.435 320.963C257.168 321.171 257.409 322.091 256.87 322.631L251.669 327.851C251.13 328.392 250.21 328.155 249.999 327.422L247.905 320.134Z" fill="#41D3ED"/>
<g filter="url(#filter5_i_12_4579)">
<rect x="281" y="396" width="65" height="39" rx="10" fill="#2D6EFD"/>
</g>
<path d="M296.085 412.759L294.642 413.188C294.564 412.893 294.365 412.646 294.044 412.447C293.723 412.239 293.351 412.135 292.926 412.135C292.458 412.135 292.068 412.248 291.756 412.473C291.444 412.69 291.288 412.967 291.288 413.305C291.236 413.6 291.457 413.894 291.951 414.189C292.038 414.241 292.207 414.31 292.458 414.397C292.779 414.501 292.965 414.562 293.017 414.579L293.706 414.774C294.391 414.956 294.971 415.19 295.448 415.476C296.089 415.866 296.41 416.494 296.41 417.361C296.41 418.202 296.098 418.882 295.474 419.402C294.841 419.913 294.04 420.169 293.069 420.169C292.185 420.169 291.427 419.965 290.794 419.558C290.17 419.142 289.767 418.622 289.585 417.998L291.028 417.543C291.106 417.89 291.331 418.18 291.704 418.414C292.085 418.648 292.54 418.765 293.069 418.765C293.606 418.765 294.053 418.648 294.408 418.414C294.763 418.171 294.941 417.859 294.941 417.478C294.941 417.227 294.841 417.01 294.642 416.828C294.469 416.655 294.291 416.529 294.109 416.451C293.927 416.364 293.654 416.273 293.29 416.178C292.189 415.857 291.461 415.606 291.106 415.424C290.257 414.965 289.832 414.293 289.832 413.409C289.832 412.612 290.118 411.966 290.69 411.472C291.262 410.978 291.999 410.731 292.9 410.731C293.697 410.731 294.386 410.926 294.967 411.316C295.539 411.689 295.912 412.17 296.085 412.759ZM299.156 420H297.804V413.24H299.156V420ZM297.843 412.239C297.678 412.066 297.596 411.853 297.596 411.602C297.596 411.351 297.678 411.138 297.843 410.965C298.016 410.792 298.229 410.705 298.48 410.705C298.731 410.705 298.944 410.792 299.117 410.965C299.29 411.138 299.377 411.351 299.377 411.602C299.377 411.853 299.29 412.066 299.117 412.239C298.944 412.412 298.731 412.499 298.48 412.499C298.229 412.499 298.016 412.412 297.843 412.239ZM302.114 422.925H300.762V413.24H302.114V413.968C302.738 413.37 303.488 413.071 304.363 413.071C305.308 413.071 306.101 413.409 306.742 414.085C307.375 414.752 307.691 415.597 307.691 416.62C307.691 417.643 307.375 418.488 306.742 419.155C306.101 419.831 305.308 420.169 304.363 420.169C303.488 420.169 302.738 419.87 302.114 419.272V422.925ZM304.207 414.423C303.626 414.423 303.137 414.635 302.738 415.06C302.339 415.467 302.14 415.987 302.14 416.62C302.14 417.244 302.339 417.768 302.738 418.193C303.137 418.609 303.626 418.817 304.207 418.817C304.788 418.817 305.282 418.609 305.689 418.193C306.088 417.768 306.287 417.244 306.287 416.62C306.287 415.987 306.088 415.467 305.689 415.06C305.29 414.635 304.796 414.423 304.207 414.423ZM318.733 412.759L317.29 413.188C317.212 412.893 317.013 412.646 316.692 412.447C316.372 412.239 315.999 412.135 315.574 412.135C315.106 412.135 314.716 412.248 314.404 412.473C314.092 412.69 313.936 412.967 313.936 413.305C313.884 413.6 314.105 413.894 314.599 414.189C314.686 414.241 314.855 414.31 315.106 414.397C315.427 414.501 315.613 414.562 315.665 414.579L316.354 414.774C317.039 414.956 317.62 415.19 318.096 415.476C318.738 415.866 319.058 416.494 319.058 417.361C319.058 418.202 318.746 418.882 318.122 419.402C317.49 419.913 316.688 420.169 315.717 420.169C314.833 420.169 314.075 419.965 313.442 419.558C312.818 419.142 312.415 418.622 312.233 417.998L313.676 417.543C313.754 417.89 313.98 418.18 314.352 418.414C314.734 418.648 315.189 418.765 315.717 418.765C316.255 418.765 316.701 418.648 317.056 418.414C317.412 418.171 317.589 417.859 317.589 417.478C317.589 417.227 317.49 417.01 317.29 416.828C317.117 416.655 316.939 416.529 316.757 416.451C316.575 416.364 316.302 416.273 315.938 416.178C314.838 415.857 314.11 415.606 313.754 415.424C312.905 414.965 312.48 414.293 312.48 413.409C312.48 412.612 312.766 411.966 313.338 411.472C313.91 410.978 314.647 410.731 315.548 410.731C316.346 410.731 317.035 410.926 317.615 411.316C318.187 411.689 318.56 412.17 318.733 412.759ZM321.804 420H320.452V413.24H321.804V420ZM320.491 412.239C320.327 412.066 320.244 411.853 320.244 411.602C320.244 411.351 320.327 411.138 320.491 410.965C320.665 410.792 320.877 410.705 321.128 410.705C321.38 410.705 321.592 410.792 321.765 410.965C321.939 411.138 322.025 411.351 322.025 411.602C322.025 411.853 321.939 412.066 321.765 412.239C321.592 412.412 321.38 412.499 321.128 412.499C320.877 412.499 320.665 412.412 320.491 412.239ZM324.762 420H323.41V413.24H324.762V414.098C325.23 413.413 325.919 413.071 326.829 413.071C327.297 413.071 327.722 413.179 328.103 413.396C328.485 413.604 328.792 413.894 329.026 414.267C329.13 414.102 329.256 413.938 329.403 413.773C329.585 413.591 329.85 413.431 330.196 413.292C330.543 413.145 330.911 413.071 331.301 413.071C332.073 413.071 332.71 413.309 333.212 413.786C333.724 414.271 333.979 414.869 333.979 415.58V420H332.627V415.957C332.627 415.506 332.476 415.129 332.172 414.826C331.869 414.514 331.492 414.358 331.041 414.358C330.565 414.358 330.166 414.514 329.845 414.826C329.533 415.121 329.377 415.502 329.377 415.97V420H328.025V415.957C328.025 415.506 327.874 415.129 327.57 414.826C327.267 414.514 326.89 414.358 326.439 414.358C325.963 414.358 325.564 414.514 325.243 414.826C324.923 415.121 324.762 415.502 324.762 415.97V420Z" fill="white"/>
<path d="M350.813 389.085C351.548 388.811 352.298 389.451 352.143 390.22L350.642 397.653C350.491 398.401 349.592 398.711 349.012 398.216L343.407 393.431C342.827 392.936 342.993 392 343.708 391.734L350.813 389.085Z" fill="#2D6EFD"/>
<path d="M220.317 359.823C221.052 359.549 221.802 360.189 221.647 360.957L220.146 368.391C219.995 369.138 219.096 369.448 218.516 368.953L212.911 364.168C212.331 363.673 212.497 362.737 213.211 362.471L220.317 359.823Z" fill="#B98EE5"/>
<path d="M240.091 260.961C240.825 260.687 241.575 261.327 241.42 262.096L239.919 269.529C239.768 270.277 238.87 270.587 238.29 270.092L232.685 265.307C232.105 264.812 232.27 263.876 232.985 263.609L240.091 260.961Z" fill="#2D6EFD"/>
<g filter="url(#filter6_i_12_4579)">
<rect x="102" y="365" width="113" height="38" rx="10" fill="#B98EE5"/>
</g>
<path d="M116.678 377.876L113.719 373.3H115.138L117.283 376.699L119.472 373.3H120.891L117.91 377.821V381H116.678V377.876ZM123.331 375.137C124.072 375.137 124.706 375.39 125.234 375.896V375.28H126.378V381H125.234V380.384C124.706 380.89 124.072 381.143 123.331 381.143C122.532 381.143 121.861 380.857 121.318 380.285C120.783 379.72 120.515 379.005 120.515 378.14C120.515 377.275 120.783 376.56 121.318 375.995C121.861 375.423 122.532 375.137 123.331 375.137ZM123.452 376.281C122.961 376.281 122.546 376.461 122.209 376.82C121.872 377.165 121.703 377.605 121.703 378.14C121.703 378.668 121.872 379.112 122.209 379.471C122.554 379.823 122.968 379.999 123.452 379.999C123.951 379.999 124.369 379.823 124.706 379.471C125.043 379.112 125.212 378.668 125.212 378.14C125.212 377.605 125.043 377.165 124.706 376.82C124.369 376.461 123.951 376.281 123.452 376.281ZM127.74 381V375.28H128.884V376.116C129.302 375.463 129.929 375.137 130.765 375.137C131.425 375.137 131.967 375.35 132.393 375.775C132.825 376.208 133.042 376.743 133.042 377.381V381H131.898V377.711C131.898 377.286 131.758 376.934 131.48 376.655C131.201 376.369 130.849 376.226 130.424 376.226C129.984 376.226 129.617 376.369 129.324 376.655C129.03 376.941 128.884 377.297 128.884 377.722V381H127.74ZM136.963 375.137C137.703 375.137 138.338 375.39 138.866 375.896V372.75H140.01V381H138.866V380.384C138.338 380.89 137.703 381.143 136.963 381.143C136.163 381.143 135.492 380.857 134.95 380.285C134.414 379.72 134.147 379.005 134.147 378.14C134.147 377.275 134.414 376.56 134.95 375.995C135.492 375.423 136.163 375.137 136.963 375.137ZM137.084 376.281C136.592 376.281 136.178 376.461 135.841 376.82C135.503 377.165 135.335 377.605 135.335 378.14C135.335 378.668 135.503 379.112 135.841 379.471C136.185 379.823 136.6 379.999 137.084 379.999C137.582 379.999 138 379.823 138.338 379.471C138.675 379.112 138.844 378.668 138.844 378.14C138.844 377.605 138.675 377.165 138.338 376.82C138 376.461 137.582 376.281 137.084 376.281ZM147.047 378.558H142.295C142.383 379.005 142.6 379.372 142.944 379.658C143.296 379.937 143.711 380.076 144.187 380.076C144.833 380.076 145.339 379.838 145.705 379.361L146.827 379.702C146.563 380.149 146.197 380.501 145.727 380.758C145.265 381.015 144.752 381.143 144.187 381.143C143.307 381.143 142.578 380.857 141.998 380.285C141.412 379.713 141.118 378.998 141.118 378.14C141.118 377.289 141.401 376.574 141.965 375.995C142.537 375.423 143.249 375.137 144.099 375.137C144.95 375.137 145.654 375.423 146.211 375.995C146.783 376.567 147.069 377.282 147.069 378.14C147.069 378.169 147.062 378.309 147.047 378.558ZM142.306 377.645H145.892C145.79 377.22 145.57 376.875 145.232 376.611C144.895 376.34 144.506 376.204 144.066 376.204C143.648 376.204 143.274 376.34 142.944 376.611C142.622 376.875 142.409 377.22 142.306 377.645ZM151.72 381L150.213 378.987L148.695 381H147.342L149.531 378.063L147.452 375.28H148.794L150.213 377.15L151.621 375.28H152.974L150.884 378.063L153.073 381H151.72ZM159.392 375.137C160.133 375.137 160.767 375.39 161.295 375.896V375.28H162.439V381H161.295V380.384C160.767 380.89 160.133 381.143 159.392 381.143C158.593 381.143 157.922 380.857 157.379 380.285C156.844 379.72 156.576 379.005 156.576 378.14C156.576 377.275 156.844 376.56 157.379 375.995C157.922 375.423 158.593 375.137 159.392 375.137ZM159.513 376.281C159.022 376.281 158.608 376.461 158.27 376.82C157.933 377.165 157.764 377.605 157.764 378.14C157.764 378.668 157.933 379.112 158.27 379.471C158.615 379.823 159.029 379.999 159.513 379.999C160.012 379.999 160.43 379.823 160.767 379.471C161.105 379.112 161.273 378.668 161.273 378.14C161.273 377.605 161.105 377.165 160.767 376.82C160.43 376.461 160.012 376.281 159.513 376.281ZM163.801 381V375.28H164.945V376.116C165.363 375.463 165.99 375.137 166.826 375.137C167.486 375.137 168.029 375.35 168.454 375.775C168.887 376.208 169.103 376.743 169.103 377.381V381H167.959V377.711C167.959 377.286 167.82 376.934 167.541 376.655C167.262 376.369 166.91 376.226 166.485 376.226C166.045 376.226 165.678 376.369 165.385 376.655C165.092 376.941 164.945 377.297 164.945 377.722V381H163.801ZM173.024 375.137C173.765 375.137 174.399 375.39 174.927 375.896V375.28H176.071V381H174.927V380.384C174.399 380.89 173.765 381.143 173.024 381.143C172.225 381.143 171.554 380.857 171.011 380.285C170.476 379.72 170.208 379.005 170.208 378.14C170.208 377.275 170.476 376.56 171.011 375.995C171.554 375.423 172.225 375.137 173.024 375.137ZM173.145 376.281C172.654 376.281 172.24 376.461 171.902 376.82C171.565 377.165 171.396 377.605 171.396 378.14C171.396 378.668 171.565 379.112 171.902 379.471C172.247 379.823 172.661 379.999 173.145 379.999C173.644 379.999 174.062 379.823 174.399 379.471C174.737 379.112 174.905 378.668 174.905 378.14C174.905 377.605 174.737 377.165 174.399 376.82C174.062 376.461 173.644 376.281 173.145 376.281ZM178.577 381H177.433V372.75H178.577V381ZM181.366 381.484L181.619 380.857L179.386 375.28H180.563L182.191 379.438L183.874 375.28H185.051L182.356 381.869C182.129 382.426 181.832 382.833 181.465 383.09C181.098 383.347 180.629 383.475 180.057 383.475H179.815V382.375H180.057C180.394 382.375 180.666 382.305 180.871 382.166C181.076 382.027 181.241 381.799 181.366 381.484ZM185.316 376.281V375.28H186.185V374.147H187.329V375.28H188.847V376.281H187.329V379.097C187.329 379.324 187.402 379.515 187.549 379.669C187.695 379.823 187.879 379.9 188.099 379.9H188.847V381H188.011C187.497 381 187.065 380.835 186.713 380.505C186.361 380.16 186.185 379.742 186.185 379.251V376.281H185.316ZM190.995 381H189.851V375.28H190.995V381ZM189.884 374.433C189.745 374.286 189.675 374.107 189.675 373.894C189.675 373.681 189.745 373.502 189.884 373.355C190.031 373.208 190.21 373.135 190.423 373.135C190.636 373.135 190.815 373.208 190.962 373.355C191.109 373.502 191.182 373.681 191.182 373.894C191.182 374.107 191.109 374.286 190.962 374.433C190.815 374.58 190.636 374.653 190.423 374.653C190.21 374.653 190.031 374.58 189.884 374.433ZM197.887 376.941L196.732 377.282C196.585 376.974 196.369 376.732 196.083 376.556C195.797 376.373 195.471 376.281 195.104 376.281C194.591 376.281 194.158 376.461 193.806 376.82C193.461 377.179 193.289 377.619 193.289 378.14C193.289 378.661 193.461 379.104 193.806 379.471C194.158 379.823 194.591 379.999 195.104 379.999C195.471 379.999 195.797 379.911 196.083 379.735C196.369 379.552 196.585 379.306 196.732 378.998L197.887 379.339C197.66 379.889 197.297 380.329 196.798 380.659C196.307 380.982 195.742 381.143 195.104 381.143C194.246 381.143 193.531 380.857 192.959 380.285C192.387 379.713 192.101 378.998 192.101 378.14C192.101 377.282 192.387 376.567 192.959 375.995C193.531 375.423 194.246 375.137 195.104 375.137C195.742 375.137 196.307 375.302 196.798 375.632C197.297 375.955 197.66 376.391 197.887 376.941ZM202.944 376.589L201.866 376.776C201.734 376.351 201.36 376.138 200.744 376.138C200.465 376.138 200.238 376.193 200.062 376.303C199.886 376.413 199.798 376.563 199.798 376.754C199.798 377.003 199.981 377.194 200.348 377.326L201.635 377.766C202.126 377.949 202.482 378.173 202.702 378.437C202.929 378.701 203.043 379.027 203.043 379.416C203.043 379.966 202.841 380.391 202.438 380.692C202.035 380.993 201.503 381.143 200.843 381.143C200.198 381.143 199.673 381.004 199.27 380.725C198.867 380.439 198.625 380.047 198.544 379.548L199.622 379.383C199.673 379.61 199.809 379.794 200.029 379.933C200.249 380.072 200.528 380.142 200.865 380.142C201.18 380.142 201.437 380.08 201.635 379.955C201.84 379.83 201.943 379.662 201.943 379.449C201.943 379.178 201.712 378.958 201.25 378.789L199.974 378.36C199.527 378.206 199.2 378.008 198.995 377.766C198.797 377.524 198.698 377.216 198.698 376.842C198.698 376.292 198.892 375.87 199.281 375.577C199.67 375.284 200.187 375.137 200.832 375.137C201.411 375.137 201.888 375.269 202.262 375.533C202.636 375.79 202.863 376.142 202.944 376.589ZM140.725 386.398L140.89 386.2H141.946L141.759 386.431C141.686 386.519 141.554 386.746 141.363 387.113C140.974 387.824 140.674 388.69 140.461 389.709C140.226 390.934 140.223 392.166 140.45 393.405C140.582 394.043 140.721 394.545 140.868 394.912C141.198 395.741 141.502 396.335 141.781 396.694L141.946 396.925H140.89L140.879 396.914C140.292 396.239 139.852 395.326 139.559 394.175C139.346 393.346 139.24 392.474 139.24 391.557C139.24 390.208 139.434 389.049 139.823 388.081C140.146 387.274 140.446 386.713 140.725 386.398ZM148.301 390.941L147.146 391.282C146.999 390.974 146.783 390.732 146.497 390.556C146.211 390.373 145.885 390.281 145.518 390.281C145.005 390.281 144.572 390.461 144.22 390.82C143.875 391.179 143.703 391.619 143.703 392.14C143.703 392.661 143.875 393.104 144.22 393.471C144.572 393.823 145.005 393.999 145.518 393.999C145.885 393.999 146.211 393.911 146.497 393.735C146.783 393.552 146.999 393.306 147.146 392.998L148.301 393.339C148.074 393.889 147.711 394.329 147.212 394.659C146.721 394.982 146.156 395.143 145.518 395.143C144.66 395.143 143.945 394.857 143.373 394.285C142.801 393.713 142.515 392.998 142.515 392.14C142.515 391.282 142.801 390.567 143.373 389.995C143.945 389.423 144.66 389.137 145.518 389.137C146.156 389.137 146.721 389.302 147.212 389.632C147.711 389.955 148.074 390.391 148.301 390.941ZM154.348 395H152.94L150.454 392.041L152.709 389.28H154.106L151.862 392.041L154.348 395ZM150.443 389.28V395H149.299V389.28H150.443ZM157.624 395.143C156.766 395.143 156.051 394.857 155.479 394.285C154.907 393.713 154.621 392.998 154.621 392.14C154.621 391.282 154.907 390.567 155.479 389.995C156.051 389.423 156.766 389.137 157.624 389.137C158.482 389.137 159.197 389.423 159.769 389.995C160.349 390.567 160.638 391.282 160.638 392.14C160.638 392.998 160.349 393.713 159.769 394.285C159.197 394.857 158.482 395.143 157.624 395.143ZM157.624 393.999C158.152 393.999 158.585 393.823 158.922 393.471C159.274 393.112 159.45 392.668 159.45 392.14C159.45 391.612 159.274 391.172 158.922 390.82C158.585 390.461 158.152 390.281 157.624 390.281C157.111 390.281 156.678 390.461 156.326 390.82C155.982 391.179 155.809 391.619 155.809 392.14C155.809 392.661 155.982 393.104 156.326 393.471C156.678 393.823 157.111 393.999 157.624 393.999ZM162.893 397.475H161.749V389.28H162.893V389.896C163.421 389.39 164.056 389.137 164.796 389.137C165.596 389.137 166.267 389.423 166.809 389.995C167.345 390.56 167.612 391.275 167.612 392.14C167.612 393.005 167.345 393.72 166.809 394.285C166.267 394.857 165.596 395.143 164.796 395.143C164.056 395.143 163.421 394.89 162.893 394.384V397.475ZM164.664 390.281C164.173 390.281 163.759 390.461 163.421 390.82C163.084 391.165 162.915 391.605 162.915 392.14C162.915 392.668 163.084 393.112 163.421 393.471C163.759 393.823 164.173 393.999 164.664 393.999C165.156 393.999 165.574 393.823 165.918 393.471C166.256 393.112 166.424 392.668 166.424 392.14C166.424 391.605 166.256 391.165 165.918 390.82C165.581 390.461 165.163 390.281 164.664 390.281ZM171.471 395.143C170.613 395.143 169.898 394.857 169.326 394.285C168.754 393.713 168.468 392.998 168.468 392.14C168.468 391.282 168.754 390.567 169.326 389.995C169.898 389.423 170.613 389.137 171.471 389.137C172.329 389.137 173.044 389.423 173.616 389.995C174.195 390.567 174.485 391.282 174.485 392.14C174.485 392.998 174.195 393.713 173.616 394.285C173.044 394.857 172.329 395.143 171.471 395.143ZM171.471 393.999C171.999 393.999 172.432 393.823 172.769 393.471C173.121 393.112 173.297 392.668 173.297 392.14C173.297 391.612 173.121 391.172 172.769 390.82C172.432 390.461 171.999 390.281 171.471 390.281C170.958 390.281 170.525 390.461 170.173 390.82C169.828 391.179 169.656 391.619 169.656 392.14C169.656 392.661 169.828 393.104 170.173 393.471C170.525 393.823 170.958 393.999 171.471 393.999ZM175.222 386.42L175.057 386.2H176.124L176.3 386.409C176.373 386.497 176.505 386.706 176.696 387.036C176.909 387.41 177.077 387.766 177.202 388.103C177.349 388.484 177.481 388.983 177.598 389.599C177.715 390.208 177.774 390.86 177.774 391.557C177.774 392.811 177.598 393.922 177.246 394.89C177.107 395.279 176.949 395.631 176.773 395.946C176.582 396.283 176.447 396.507 176.366 396.617C176.293 396.742 176.216 396.841 176.135 396.914L176.124 396.925H175.057L175.233 396.683C175.328 396.566 175.464 396.338 175.64 396.001C175.816 395.678 175.981 395.312 176.135 394.901C176.274 394.512 176.406 394.017 176.531 393.416C176.78 392.206 176.784 390.974 176.542 389.72C176.432 389.111 176.296 388.609 176.135 388.213C175.827 387.421 175.523 386.823 175.222 386.42Z" fill="white"/>
<g filter="url(#filter7_i_12_4579)">
<rect x="44.9805" y="442.599" width="86" height="39" rx="10" fill="#F35888"/>
</g>
<circle cx="73.7089" cy="461.427" r="11.6542" fill="#FF1446" stroke="white" stroke-width="2"/>
<line x1="74.627" y1="453.518" x2="74.627" y2="468.544" stroke="white" stroke-width="5"/>
<line x1="81.6182" y1="461.554" x2="66.5912" y2="461.554" stroke="white" stroke-width="5"/>
<path d="M93.9205 459.319L92.3245 460.075L91.4845 458.241L94.5225 456.799H96.0485V466.599H93.9205V459.319ZM97.8689 463.239V460.159C97.8689 459.151 98.2329 458.311 98.9609 457.639C99.6982 456.957 100.613 456.617 101.705 456.617C102.816 456.617 103.73 456.957 104.449 457.639C105.186 458.311 105.555 459.151 105.555 460.159V463.239C105.555 464.247 105.186 465.091 104.449 465.773C103.721 466.445 102.806 466.781 101.705 466.781C100.613 466.781 99.6982 466.445 98.9609 465.773C98.2329 465.091 97.8689 464.247 97.8689 463.239ZM99.9969 460.131V463.267C99.9969 463.677 100.16 464.027 100.487 464.317C100.814 464.597 101.22 464.737 101.705 464.737C102.19 464.737 102.596 464.597 102.923 464.317C103.25 464.027 103.413 463.677 103.413 463.267V460.131C103.413 459.711 103.25 459.361 102.923 459.081C102.596 458.801 102.19 458.661 101.705 458.661C101.22 458.661 100.814 458.801 100.487 459.081C100.16 459.361 99.9969 459.711 99.9969 460.131ZM111.325 459.655C111.325 459.375 111.185 459.141 110.905 458.955C110.625 458.759 110.275 458.661 109.855 458.661C109.09 458.661 108.581 458.917 108.329 459.431L106.411 458.619C106.719 458.012 107.186 457.527 107.811 457.163C108.437 456.799 109.146 456.617 109.939 456.617C110.975 456.617 111.834 456.901 112.515 457.471C113.197 458.04 113.537 458.754 113.537 459.613C113.537 460.387 113.215 461.017 112.571 461.503C113.393 462.035 113.803 462.758 113.803 463.673C113.803 464.55 113.444 465.292 112.725 465.899C112.016 466.487 111.115 466.781 110.023 466.781C109.109 466.781 108.32 466.566 107.657 466.137C106.985 465.698 106.533 465.129 106.299 464.429L108.329 463.729C108.404 464.027 108.591 464.27 108.889 464.457C109.197 464.643 109.561 464.737 109.981 464.737C110.448 464.737 110.831 464.629 111.129 464.415C111.428 464.2 111.577 463.929 111.577 463.603C111.577 463.276 111.428 463.01 111.129 462.805C110.831 462.59 110.457 462.483 110.009 462.483H109.267V460.705H109.757C110.205 460.705 110.579 460.607 110.877 460.411C111.176 460.215 111.325 459.963 111.325 459.655Z" fill="white"/>
<path d="M35.8855 435.134C35.6689 434.38 36.3647 433.681 37.1193 433.895L44.4151 435.963C45.1488 436.171 45.3891 437.091 44.8508 437.631L39.6492 442.851C39.1109 443.392 38.1903 443.155 37.9797 442.422L35.8855 435.134Z" fill="#F35888"/>
<g filter="url(#filter8_i_12_4579)">
<rect x="100" y="168" width="103" height="39" rx="10" fill="#004796"/>
</g>
<path d="M107.723 180.15C107.723 179.013 108.115 178.064 108.9 177.301C109.685 176.538 110.66 176.157 111.826 176.157C112.633 176.157 113.366 176.355 114.026 176.751C114.686 177.147 115.181 177.686 115.511 178.368L113.817 178.995C113.626 178.628 113.355 178.342 113.003 178.137C112.651 177.932 112.259 177.829 111.826 177.829C111.159 177.829 110.612 178.053 110.187 178.5C109.754 178.947 109.538 179.497 109.538 180.15C109.538 180.795 109.747 181.345 110.165 181.8C110.583 182.247 111.104 182.471 111.727 182.471C112.167 182.471 112.57 182.35 112.937 182.108C113.311 181.866 113.579 181.547 113.74 181.151H111.54V179.666H115.72C115.742 179.798 115.753 179.937 115.753 180.084C115.753 181.228 115.372 182.192 114.609 182.977C113.854 183.754 112.897 184.143 111.738 184.143C110.616 184.143 109.663 183.762 108.878 182.999C108.108 182.244 107.723 181.294 107.723 180.15ZM117.27 183.285C116.69 182.706 116.401 181.991 116.401 181.14C116.401 180.289 116.69 179.578 117.27 179.006C117.849 178.427 118.579 178.137 119.459 178.137C120.331 178.137 121.057 178.427 121.637 179.006C122.223 179.578 122.517 180.289 122.517 181.14C122.517 181.983 122.223 182.698 121.637 183.285C121.05 183.857 120.324 184.143 119.459 184.143C118.579 184.143 117.849 183.857 117.27 183.285ZM119.459 182.515C119.84 182.515 120.155 182.383 120.405 182.119C120.669 181.848 120.801 181.521 120.801 181.14C120.801 180.759 120.669 180.436 120.405 180.172C120.155 179.901 119.84 179.765 119.459 179.765C119.077 179.765 118.758 179.897 118.502 180.161C118.245 180.432 118.117 180.759 118.117 181.14C118.117 181.521 118.245 181.848 118.502 182.119C118.758 182.383 119.077 182.515 119.459 182.515ZM123.951 183.285C123.372 182.706 123.082 181.991 123.082 181.14C123.082 180.289 123.372 179.578 123.951 179.006C124.531 178.427 125.26 178.137 126.14 178.137C127.013 178.137 127.739 178.427 128.318 179.006C128.905 179.578 129.198 180.289 129.198 181.14C129.198 181.983 128.905 182.698 128.318 183.285C127.732 183.857 127.006 184.143 126.14 184.143C125.26 184.143 124.531 183.857 123.951 183.285ZM126.14 182.515C126.522 182.515 126.837 182.383 127.086 182.119C127.35 181.848 127.482 181.521 127.482 181.14C127.482 180.759 127.35 180.436 127.086 180.172C126.837 179.901 126.522 179.765 126.14 179.765C125.759 179.765 125.44 179.897 125.183 180.161C124.927 180.432 124.798 180.759 124.798 181.14C124.798 181.521 124.927 181.848 125.183 182.119C125.44 182.383 125.759 182.515 126.14 182.515ZM129.764 181.14C129.764 180.275 130.021 179.56 130.534 178.995C131.047 178.423 131.693 178.137 132.47 178.137C133.057 178.137 133.585 178.313 134.054 178.665V178.28H135.693V183.879C135.693 184.664 135.414 185.313 134.857 185.826C134.307 186.354 133.621 186.618 132.8 186.618C132.14 186.618 131.55 186.449 131.029 186.112C130.501 185.767 130.153 185.342 129.984 184.836L131.612 184.451C131.7 184.627 131.85 184.77 132.063 184.88C132.276 184.997 132.51 185.056 132.767 185.056C133.126 185.056 133.431 184.946 133.68 184.726C133.929 184.506 134.054 184.231 134.054 183.901V183.604C133.599 183.963 133.071 184.143 132.47 184.143C131.693 184.143 131.047 183.857 130.534 183.285C130.021 182.706 129.764 181.991 129.764 181.14ZM132.756 179.765C132.397 179.765 132.092 179.897 131.843 180.161C131.601 180.425 131.48 180.755 131.48 181.151C131.48 181.532 131.601 181.855 131.843 182.119C132.092 182.383 132.397 182.515 132.756 182.515C133.108 182.515 133.409 182.383 133.658 182.119C133.907 181.862 134.032 181.54 134.032 181.151C134.032 180.755 133.907 180.425 133.658 180.161C133.409 179.897 133.108 179.765 132.756 179.765ZM138.272 184H136.622V175.75H138.272V184ZM145.019 181.734H140.762C140.857 182.035 141.029 182.277 141.279 182.46C141.528 182.643 141.821 182.735 142.159 182.735C142.628 182.735 143.006 182.566 143.292 182.229L144.887 182.592C144.623 183.076 144.249 183.457 143.765 183.736C143.288 184.007 142.749 184.143 142.148 184.143C141.253 184.143 140.509 183.857 139.915 183.285C139.321 182.713 139.024 181.998 139.024 181.14C139.024 180.289 139.313 179.578 139.893 179.006C140.472 178.427 141.194 178.137 142.06 178.137C142.918 178.137 143.636 178.427 144.216 179.006C144.795 179.578 145.085 180.289 145.085 181.14C145.085 181.345 145.063 181.543 145.019 181.734ZM140.773 180.513H143.402C143.299 180.22 143.127 179.985 142.885 179.809C142.643 179.633 142.368 179.545 142.06 179.545C141.766 179.545 141.502 179.633 141.268 179.809C141.033 179.985 140.868 180.22 140.773 180.513ZM148.273 181.14C148.273 180.275 148.529 179.56 149.043 178.995C149.556 178.423 150.201 178.137 150.979 178.137C151.565 178.137 152.093 178.313 152.563 178.665V178.28H154.202V184H152.563V183.604C152.108 183.963 151.58 184.143 150.979 184.143C150.201 184.143 149.556 183.857 149.043 183.285C148.529 182.706 148.273 181.991 148.273 181.14ZM151.265 179.765C150.905 179.765 150.601 179.897 150.352 180.161C150.11 180.425 149.989 180.748 149.989 181.129C149.989 181.525 150.11 181.855 150.352 182.119C150.601 182.383 150.905 182.515 151.265 182.515C151.617 182.515 151.917 182.383 152.167 182.119C152.416 181.855 152.541 181.525 152.541 181.129C152.541 180.74 152.416 180.418 152.167 180.161C151.917 179.897 151.617 179.765 151.265 179.765ZM155.13 184V178.28H156.78V178.863C157.162 178.379 157.682 178.137 158.342 178.137C158.958 178.137 159.475 178.346 159.893 178.764C160.319 179.182 160.531 179.703 160.531 180.326V184H158.881V180.766C158.881 180.451 158.782 180.19 158.584 179.985C158.386 179.772 158.137 179.666 157.836 179.666C157.536 179.666 157.283 179.772 157.077 179.985C156.879 180.19 156.78 180.451 156.78 180.766V184H155.13ZM161.282 181.14C161.282 180.275 161.538 179.56 162.052 178.995C162.565 178.423 163.21 178.137 163.988 178.137C164.574 178.137 165.102 178.313 165.572 178.665V178.28H167.211V184H165.572V183.604C165.117 183.963 164.589 184.143 163.988 184.143C163.21 184.143 162.565 183.857 162.052 183.285C161.538 182.706 161.282 181.991 161.282 181.14ZM164.274 179.765C163.914 179.765 163.61 179.897 163.361 180.161C163.119 180.425 162.998 180.748 162.998 181.129C162.998 181.525 163.119 181.855 163.361 182.119C163.61 182.383 163.914 182.515 164.274 182.515C164.626 182.515 164.926 182.383 165.176 182.119C165.425 181.855 165.55 181.525 165.55 181.129C165.55 180.74 165.425 180.418 165.176 180.161C164.926 179.897 164.626 179.765 164.274 179.765ZM169.789 184H168.139V175.75H169.789V184ZM172.455 184.044L172.488 183.956L170.321 178.28H172.026L173.269 181.811L174.556 178.28H176.261L173.83 184.594C173.566 185.254 173.214 185.731 172.774 186.024C172.342 186.325 171.773 186.475 171.069 186.475H170.871V184.902H171.08C171.792 184.902 172.25 184.616 172.455 184.044ZM176.413 179.71V178.28H177.194V177.169H178.844V178.28H180.142V179.71H178.844V181.855C178.844 182.031 178.902 182.178 179.02 182.295C179.137 182.405 179.287 182.46 179.471 182.46H180.142V184H179.196C178.631 184 178.154 183.828 177.766 183.483C177.384 183.131 177.194 182.695 177.194 182.174V179.71H176.413ZM182.487 184H180.837V178.28H182.487V184ZM180.925 177.587C180.734 177.396 180.639 177.154 180.639 176.861C180.639 176.568 180.734 176.326 180.925 176.135C181.13 175.944 181.376 175.849 181.662 175.849C181.955 175.849 182.197 175.944 182.388 176.135C182.586 176.318 182.685 176.56 182.685 176.861C182.685 177.162 182.586 177.404 182.388 177.587C182.197 177.778 181.955 177.873 181.662 177.873C181.376 177.873 181.13 177.778 180.925 177.587ZM189.19 180.106L187.529 180.59C187.426 180.341 187.265 180.143 187.045 179.996C186.825 179.842 186.575 179.765 186.297 179.765C185.915 179.765 185.596 179.897 185.34 180.161C185.083 180.418 184.955 180.74 184.955 181.129C184.955 181.525 185.083 181.855 185.34 182.119C185.596 182.383 185.915 182.515 186.297 182.515C186.575 182.515 186.825 182.442 187.045 182.295C187.265 182.141 187.426 181.939 187.529 181.69L189.19 182.174C188.97 182.775 188.599 183.256 188.079 183.615C187.558 183.967 186.964 184.143 186.297 184.143C185.417 184.143 184.687 183.857 184.108 183.285C183.528 182.706 183.239 181.991 183.239 181.14C183.239 180.282 183.528 179.567 184.108 178.995C184.687 178.423 185.417 178.137 186.297 178.137C186.964 178.137 187.558 178.317 188.079 178.676C188.599 179.028 188.97 179.505 189.19 180.106ZM194.294 179.699L192.787 179.941C192.684 179.618 192.398 179.457 191.929 179.457C191.496 179.457 191.28 179.582 191.28 179.831C191.28 179.978 191.43 180.106 191.731 180.216L192.754 180.546C193.326 180.729 193.74 180.96 193.997 181.239C194.254 181.51 194.382 181.866 194.382 182.306C194.382 182.893 194.169 183.347 193.744 183.67C193.326 183.985 192.754 184.143 192.028 184.143C191.309 184.143 190.737 183.996 190.312 183.703C189.894 183.402 189.645 182.977 189.564 182.427L191.082 182.218C191.192 182.599 191.518 182.79 192.061 182.79C192.288 182.79 192.468 182.753 192.6 182.68C192.739 182.607 192.809 182.504 192.809 182.372C192.809 182.189 192.618 182.042 192.237 181.932L191.192 181.624C190.664 181.477 190.279 181.272 190.037 181.008C189.802 180.744 189.685 180.399 189.685 179.974C189.685 179.358 189.89 178.9 190.301 178.599C190.712 178.291 191.28 178.137 192.006 178.137C192.666 178.137 193.194 178.276 193.59 178.555C193.986 178.826 194.221 179.208 194.294 179.699ZM133.225 189.398L133.39 189.2H134.446L134.259 189.431C134.186 189.519 134.054 189.746 133.863 190.113C133.474 190.824 133.174 191.69 132.961 192.709C132.726 193.934 132.723 195.166 132.95 196.405C133.082 197.043 133.221 197.545 133.368 197.912C133.698 198.741 134.002 199.335 134.281 199.694L134.446 199.925H133.39L133.379 199.914C132.792 199.239 132.352 198.326 132.059 197.175C131.846 196.346 131.74 195.474 131.74 194.557C131.74 193.208 131.934 192.049 132.323 191.081C132.646 190.274 132.946 189.713 133.225 189.398ZM140.801 193.941L139.646 194.282C139.499 193.974 139.283 193.732 138.997 193.556C138.711 193.373 138.385 193.281 138.018 193.281C137.505 193.281 137.072 193.461 136.72 193.82C136.375 194.179 136.203 194.619 136.203 195.14C136.203 195.661 136.375 196.104 136.72 196.471C137.072 196.823 137.505 196.999 138.018 196.999C138.385 196.999 138.711 196.911 138.997 196.735C139.283 196.552 139.499 196.306 139.646 195.998L140.801 196.339C140.574 196.889 140.211 197.329 139.712 197.659C139.221 197.982 138.656 198.143 138.018 198.143C137.16 198.143 136.445 197.857 135.873 197.285C135.301 196.713 135.015 195.998 135.015 195.14C135.015 194.282 135.301 193.567 135.873 192.995C136.445 192.423 137.16 192.137 138.018 192.137C138.656 192.137 139.221 192.302 139.712 192.632C140.211 192.955 140.574 193.391 140.801 193.941ZM146.848 198H145.44L142.954 195.041L145.209 192.28H146.606L144.362 195.041L146.848 198ZM142.943 192.28V198H141.799V192.28H142.943ZM150.124 198.143C149.266 198.143 148.551 197.857 147.979 197.285C147.407 196.713 147.121 195.998 147.121 195.14C147.121 194.282 147.407 193.567 147.979 192.995C148.551 192.423 149.266 192.137 150.124 192.137C150.982 192.137 151.697 192.423 152.269 192.995C152.849 193.567 153.138 194.282 153.138 195.14C153.138 195.998 152.849 196.713 152.269 197.285C151.697 197.857 150.982 198.143 150.124 198.143ZM150.124 196.999C150.652 196.999 151.085 196.823 151.422 196.471C151.774 196.112 151.95 195.668 151.95 195.14C151.95 194.612 151.774 194.172 151.422 193.82C151.085 193.461 150.652 193.281 150.124 193.281C149.611 193.281 149.178 193.461 148.826 193.82C148.482 194.179 148.309 194.619 148.309 195.14C148.309 195.661 148.482 196.104 148.826 196.471C149.178 196.823 149.611 196.999 150.124 196.999ZM155.393 200.475H154.249V192.28H155.393V192.896C155.921 192.39 156.556 192.137 157.296 192.137C158.096 192.137 158.767 192.423 159.309 192.995C159.845 193.56 160.112 194.275 160.112 195.14C160.112 196.005 159.845 196.72 159.309 197.285C158.767 197.857 158.096 198.143 157.296 198.143C156.556 198.143 155.921 197.89 155.393 197.384V200.475ZM157.164 193.281C156.673 193.281 156.259 193.461 155.921 193.82C155.584 194.165 155.415 194.605 155.415 195.14C155.415 195.668 155.584 196.112 155.921 196.471C156.259 196.823 156.673 196.999 157.164 196.999C157.656 196.999 158.074 196.823 158.418 196.471C158.756 196.112 158.924 195.668 158.924 195.14C158.924 194.605 158.756 194.165 158.418 193.82C158.081 193.461 157.663 193.281 157.164 193.281ZM163.971 198.143C163.113 198.143 162.398 197.857 161.826 197.285C161.254 196.713 160.968 195.998 160.968 195.14C160.968 194.282 161.254 193.567 161.826 192.995C162.398 192.423 163.113 192.137 163.971 192.137C164.829 192.137 165.544 192.423 166.116 192.995C166.695 193.567 166.985 194.282 166.985 195.14C166.985 195.998 166.695 196.713 166.116 197.285C165.544 197.857 164.829 198.143 163.971 198.143ZM163.971 196.999C164.499 196.999 164.932 196.823 165.269 196.471C165.621 196.112 165.797 195.668 165.797 195.14C165.797 194.612 165.621 194.172 165.269 193.82C164.932 193.461 164.499 193.281 163.971 193.281C163.458 193.281 163.025 193.461 162.673 193.82C162.328 194.179 162.156 194.619 162.156 195.14C162.156 195.661 162.328 196.104 162.673 196.471C163.025 196.823 163.458 196.999 163.971 196.999ZM167.722 189.42L167.557 189.2H168.624L168.8 189.409C168.873 189.497 169.005 189.706 169.196 190.036C169.409 190.41 169.577 190.766 169.702 191.103C169.849 191.484 169.981 191.983 170.098 192.599C170.215 193.208 170.274 193.86 170.274 194.557C170.274 195.811 170.098 196.922 169.746 197.89C169.607 198.279 169.449 198.631 169.273 198.946C169.082 199.283 168.947 199.507 168.866 199.617C168.793 199.742 168.716 199.841 168.635 199.914L168.624 199.925H167.557L167.733 199.683C167.828 199.566 167.964 199.338 168.14 199.001C168.316 198.678 168.481 198.312 168.635 197.901C168.774 197.512 168.906 197.017 169.031 196.416C169.28 195.206 169.284 193.974 169.042 192.72C168.932 192.111 168.796 191.609 168.635 191.213C168.327 190.421 168.023 189.823 167.722 189.42Z" fill="white"/>
<path d="M208.454 161.982C209.189 161.708 209.938 162.348 209.783 163.117L208.283 170.55C208.132 171.297 207.233 171.608 206.653 171.112L201.048 166.328C200.468 165.832 200.634 164.896 201.348 164.63L208.454 161.982Z" fill="#004796"/>
<path d="M281.5 30.8782L282.926 36.0429L283.028 36.4098H283.408H288.229L284.263 39.8003L284.021 40.0069L284.106 40.3134L285.579 45.6488L281.825 42.4396L281.5 42.1619L281.175 42.4396L277.421 45.6488L278.894 40.3134L278.979 40.0069L278.737 39.8003L274.771 36.4098H279.592H279.972L280.074 36.0429L281.5 30.8782Z" stroke="black"/>
<g filter="url(#filter9_i_12_4579)">
<rect x="179" y="502" width="97" height="36" rx="10" fill="#00438D"/>
</g>
<path d="M200.319 518.396L195.223 525H193.884V515.9H195.34V522.543L200.449 515.9H201.788V525H200.319V518.396ZM207.713 525V526.95H206.361V523.7H207.414C207.743 523.345 207.908 522.595 207.908 521.451V518.24H213.381V523.7H214.603V526.95H213.251V525H207.713ZM208.857 523.7H212.029V519.54H209.26V521.529C209.26 522.43 209.126 523.154 208.857 523.7ZM216.994 527.925H215.642V518.24H216.994V518.968C217.618 518.37 218.368 518.071 219.243 518.071C220.188 518.071 220.981 518.409 221.622 519.085C222.255 519.752 222.571 520.597 222.571 521.62C222.571 522.643 222.255 523.488 221.622 524.155C220.981 524.831 220.188 525.169 219.243 525.169C218.368 525.169 217.618 524.87 216.994 524.272V527.925ZM219.087 519.423C218.506 519.423 218.017 519.635 217.618 520.06C217.219 520.467 217.02 520.987 217.02 521.62C217.02 522.244 217.219 522.768 217.618 523.193C218.017 523.609 218.506 523.817 219.087 523.817C219.668 523.817 220.162 523.609 220.569 523.193C220.968 522.768 221.167 522.244 221.167 521.62C221.167 520.987 220.968 520.467 220.569 520.06C220.17 519.635 219.676 519.423 219.087 519.423ZM225.33 525.572L225.629 524.831L222.99 518.24H224.381L226.305 523.154L228.294 518.24H229.685L226.5 526.027C226.231 526.686 225.88 527.167 225.447 527.47C225.014 527.773 224.459 527.925 223.783 527.925H223.497V526.625H223.783C224.182 526.625 224.502 526.543 224.745 526.378C224.988 526.213 225.183 525.945 225.33 525.572ZM232 519.54V525H230.648V518.24H235.029V519.54H232ZM238.963 525.169C237.949 525.169 237.104 524.831 236.428 524.155C235.752 523.479 235.414 522.634 235.414 521.62C235.414 520.606 235.752 519.761 236.428 519.085C237.104 518.409 237.949 518.071 238.963 518.071C239.977 518.071 240.822 518.409 241.498 519.085C242.183 519.761 242.525 520.606 242.525 521.62C242.525 522.634 242.183 523.479 241.498 524.155C240.822 524.831 239.977 525.169 238.963 525.169ZM238.963 523.817C239.587 523.817 240.099 523.609 240.497 523.193C240.913 522.768 241.121 522.244 241.121 521.62C241.121 520.996 240.913 520.476 240.497 520.06C240.099 519.635 239.587 519.423 238.963 519.423C238.357 519.423 237.845 519.635 237.429 520.06C237.022 520.485 236.818 521.005 236.818 521.62C236.818 522.235 237.022 522.76 237.429 523.193C237.845 523.609 238.357 523.817 238.963 523.817ZM250.546 522.114H244.93C245.034 522.643 245.29 523.076 245.697 523.414C246.113 523.743 246.603 523.908 247.166 523.908C247.929 523.908 248.527 523.626 248.96 523.063L250.286 523.466C249.974 523.995 249.541 524.411 248.986 524.714C248.44 525.017 247.834 525.169 247.166 525.169C246.126 525.169 245.264 524.831 244.579 524.155C243.886 523.479 243.539 522.634 243.539 521.62C243.539 520.615 243.873 519.77 244.54 519.085C245.216 518.409 246.057 518.071 247.062 518.071C248.068 518.071 248.9 518.409 249.558 519.085C250.234 519.761 250.572 520.606 250.572 521.62C250.572 521.655 250.564 521.819 250.546 522.114ZM244.943 521.035H249.181C249.06 520.532 248.8 520.125 248.401 519.813C248.003 519.492 247.543 519.332 247.023 519.332C246.529 519.332 246.087 519.492 245.697 519.813C245.316 520.125 245.065 520.532 244.943 521.035ZM251.455 524.922C251.29 524.749 251.208 524.532 251.208 524.272C251.208 524.012 251.29 523.795 251.455 523.622C251.628 523.449 251.845 523.362 252.105 523.362C252.365 523.362 252.581 523.449 252.755 523.622C252.928 523.795 253.015 524.012 253.015 524.272C253.015 524.532 252.928 524.749 252.755 524.922C252.581 525.087 252.365 525.169 252.105 525.169C251.845 525.169 251.628 525.087 251.455 524.922ZM254.311 524.922C254.147 524.749 254.064 524.532 254.064 524.272C254.064 524.012 254.147 523.795 254.311 523.622C254.485 523.449 254.701 523.362 254.961 523.362C255.221 523.362 255.438 523.449 255.611 523.622C255.785 523.795 255.871 524.012 255.871 524.272C255.871 524.532 255.785 524.749 255.611 524.922C255.438 525.087 255.221 525.169 254.961 525.169C254.701 525.169 254.485 525.087 254.311 524.922ZM257.168 524.922C257.003 524.749 256.921 524.532 256.921 524.272C256.921 524.012 257.003 523.795 257.168 523.622C257.341 523.449 257.558 523.362 257.818 523.362C258.078 523.362 258.294 523.449 258.468 523.622C258.641 523.795 258.728 524.012 258.728 524.272C258.728 524.532 258.641 524.749 258.468 524.922C258.294 525.087 258.078 525.169 257.818 525.169C257.558 525.169 257.341 525.087 257.168 524.922Z" fill="white"/>
<defs>
<filter id="filter0_d_12_4579" x="79" y="142" width="217" height="357" filterUnits="userSpaceOnUse" color-interpolation-filters="sRGB">
<feFlood flood-opacity="0" result="BackgroundImageFix"/>
<feColorMatrix in="SourceAlpha" type="matrix" values="0 0 0 0 0 0 0 0 0 0 0 0 0 0 0 0 0 0 127 0" result="hardAlpha"/>
<feOffset dy="4"/>
<feGaussianBlur stdDeviation="2"/>
<feComposite in2="hardAlpha" operator="out"/>
<feColorMatrix type="matrix" values="0 0 0 0 0 0 0 0 0 0 0 0 0 0 0 0 0 0 0.25 0"/>
<feBlend mode="normal" in2="BackgroundImageFix" result="effect1_dropShadow_12_4579"/>
<feBlend mode="normal" in="SourceGraphic" in2="effect1_dropShadow_12_4579" result="shape"/>
</filter>
<filter id="filter1_i_12_4579" x="240" y="210" width="72" height="42" filterUnits="userSpaceOnUse" color-interpolation-filters="sRGB">
<feFlood flood-opacity="0" result="BackgroundImageFix"/>
<feBlend mode="normal" in="SourceGraphic" in2="BackgroundImageFix" result="shape"/>
<feColorMatrix in="SourceAlpha" type="matrix" values="0 0 0 0 0 0 0 0 0 0 0 0 0 0 0 0 0 0 127 0" result="hardAlpha"/>
<feOffset dy="4"/>
<feGaussianBlur stdDeviation="15"/>
<feComposite in2="hardAlpha" operator="arithmetic" k2="-1" k3="1"/>
<feColorMatrix type="matrix" values="0 0 0 0 0 0 0 0 0 0 0 0 0 0 0 0 0 0 0.15 0"/>
<feBlend mode="normal" in2="shape" result="effect1_innerShadow_12_4579"/>
</filter>
<filter id="filter2_i_12_4579" x="33" y="226" width="97" height="43" filterUnits="userSpaceOnUse" color-interpolation-filters="sRGB">
<feFlood flood-opacity="0" result="BackgroundImageFix"/>
<feBlend mode="normal" in="SourceGraphic" in2="BackgroundImageFix" result="shape"/>
<feColorMatrix in="SourceAlpha" type="matrix" values="0 0 0 0 0 0 0 0 0 0 0 0 0 0 0 0 0 0 127 0" result="hardAlpha"/>
<feOffset dy="4"/>
<feGaussianBlur stdDeviation="15"/>
<feComposite in2="hardAlpha" operator="arithmetic" k2="-1" k3="1"/>
<feColorMatrix type="matrix" values="0 0 0 0 0 0 0 0 0 0 0 0 0 0 0 0 0 0 0.15 0"/>
<feBlend mode="normal" in2="shape" result="effect1_innerShadow_12_4579"/>
</filter>
<filter id="filter3_i_12_4579" x="142" y="267" width="92" height="45" filterUnits="userSpaceOnUse" color-interpolation-filters="sRGB">
<feFlood flood-opacity="0" result="BackgroundImageFix"/>
<feBlend mode="normal" in="SourceGraphic" in2="BackgroundImageFix" result="shape"/>
<feColorMatrix in="SourceAlpha" type="matrix" values="0 0 0 0 0 0 0 0 0 0 0 0 0 0 0 0 0 0 127 0" result="hardAlpha"/>
<feOffset dy="4"/>
<feGaussianBlur stdDeviation="15"/>
<feComposite in2="hardAlpha" operator="arithmetic" k2="-1" k3="1"/>
<feColorMatrix type="matrix" values="0 0 0 0 0 0 0 0 0 0 0 0 0 0 0 0 0 0 0.15 0"/>
<feBlend mode="normal" in2="shape" result="effect1_innerShadow_12_4579"/>
</filter>
<filter id="filter4_i_12_4579" x="254.633" y="325.532" width="60" height="42" filterUnits="userSpaceOnUse" color-interpolation-filters="sRGB">
<feFlood flood-opacity="0" result="BackgroundImageFix"/>
<feBlend mode="normal" in="SourceGraphic" in2="BackgroundImageFix" result="shape"/>
<feColorMatrix in="SourceAlpha" type="matrix" values="0 0 0 0 0 0 0 0 0 0 0 0 0 0 0 0 0 0 127 0" result="hardAlpha"/>
<feOffset dy="4"/>
<feGaussianBlur stdDeviation="15"/>
<feComposite in2="hardAlpha" operator="arithmetic" k2="-1" k3="1"/>
<feColorMatrix type="matrix" values="0 0 0 0 0 0 0 0 0 0 0 0 0 0 0 0 0 0 0.15 0"/>
<feBlend mode="normal" in2="shape" result="effect1_innerShadow_12_4579"/>
</filter>
<filter id="filter5_i_12_4579" x="281" y="396" width="65" height="43" filterUnits="userSpaceOnUse" color-interpolation-filters="sRGB">
<feFlood flood-opacity="0" result="BackgroundImageFix"/>
<feBlend mode="normal" in="SourceGraphic" in2="BackgroundImageFix" result="shape"/>
<feColorMatrix in="SourceAlpha" type="matrix" values="0 0 0 0 0 0 0 0 0 0 0 0 0 0 0 0 0 0 127 0" result="hardAlpha"/>
<feOffset dy="4"/>
<feGaussianBlur stdDeviation="15"/>
<feComposite in2="hardAlpha" operator="arithmetic" k2="-1" k3="1"/>
<feColorMatrix type="matrix" values="0 0 0 0 0 0 0 0 0 0 0 0 0 0 0 0 0 0 0.15 0"/>
<feBlend mode="normal" in2="shape" result="effect1_innerShadow_12_4579"/>
</filter>
<filter id="filter6_i_12_4579" x="102" y="365" width="113" height="42" filterUnits="userSpaceOnUse" color-interpolation-filters="sRGB">
<feFlood flood-opacity="0" result="BackgroundImageFix"/>
<feBlend mode="normal" in="SourceGraphic" in2="BackgroundImageFix" result="shape"/>
<feColorMatrix in="SourceAlpha" type="matrix" values="0 0 0 0 0 0 0 0 0 0 0 0 0 0 0 0 0 0 127 0" result="hardAlpha"/>
<feOffset dy="4"/>
<feGaussianBlur stdDeviation="15"/>
<feComposite in2="hardAlpha" operator="arithmetic" k2="-1" k3="1"/>
<feColorMatrix type="matrix" values="0 0 0 0 0 0 0 0 0 0 0 0 0 0 0 0 0 0 0.15 0"/>
<feBlend mode="normal" in2="shape" result="effect1_innerShadow_12_4579"/>
</filter>
<filter id="filter7_i_12_4579" x="44.9805" y="442.599" width="86" height="43" filterUnits="userSpaceOnUse" color-interpolation-filters="sRGB">
<feFlood flood-opacity="0" result="BackgroundImageFix"/>
<feBlend mode="normal" in="SourceGraphic" in2="BackgroundImageFix" result="shape"/>
<feColorMatrix in="SourceAlpha" type="matrix" values="0 0 0 0 0 0 0 0 0 0 0 0 0 0 0 0 0 0 127 0" result="hardAlpha"/>
<feOffset dy="4"/>
<feGaussianBlur stdDeviation="15"/>
<feComposite in2="hardAlpha" operator="arithmetic" k2="-1" k3="1"/>
<feColorMatrix type="matrix" values="0 0 0 0 0 0 0 0 0 0 0 0 0 0 0 0 0 0 0.15 0"/>
<feBlend mode="normal" in2="shape" result="effect1_innerShadow_12_4579"/>
</filter>
<filter id="filter8_i_12_4579" x="100" y="168" width="103" height="43" filterUnits="userSpaceOnUse" color-interpolation-filters="sRGB">
<feFlood flood-opacity="0" result="BackgroundImageFix"/>
<feBlend mode="normal" in="SourceGraphic" in2="BackgroundImageFix" result="shape"/>
<feColorMatrix in="SourceAlpha" type="matrix" values="0 0 0 0 0 0 0 0 0 0 0 0 0 0 0 0 0 0 127 0" result="hardAlpha"/>
<feOffset dy="4"/>
<feGaussianBlur stdDeviation="15"/>
<feComposite in2="hardAlpha" operator="arithmetic" k2="-1" k3="1"/>
<feColorMatrix type="matrix" values="0 0 0 0 0 0 0 0 0 0 0 0 0 0 0 0 0 0 0.15 0"/>
<feBlend mode="normal" in2="shape" result="effect1_innerShadow_12_4579"/>
</filter>
<filter id="filter9_i_12_4579" x="179" y="502" width="97" height="40" filterUnits="userSpaceOnUse" color-interpolation-filters="sRGB">
<feFlood flood-opacity="0" result="BackgroundImageFix"/>
<feBlend mode="normal" in="SourceGraphic" in2="BackgroundImageFix" result="shape"/>
<feColorMatrix in="SourceAlpha" type="matrix" values="0 0 0 0 0 0 0 0 0 0 0 0 0 0 0 0 0 0 127 0" result="hardAlpha"/>
<feOffset dy="4"/>
<feGaussianBlur stdDeviation="15"/>
<feComposite in2="hardAlpha" operator="arithmetic" k2="-1" k3="1"/>
<feColorMatrix type="matrix" values="0 0 0 0 0 0 0 0 0 0 0 0 0 0 0 0 0 0 0.15 0"/>
<feBlend mode="normal" in2="shape" result="effect1_innerShadow_12_4579"/>
</filter>
<linearGradient id="paint0_linear_12_4579" x1="234.328" y1="126.512" x2="111.634" y2="487.666" gradientUnits="userSpaceOnUse">
<stop stop-color="#F5E2D3"/>
<stop offset="1" stop-color="white"/>
</linearGradient>
</defs>
</svg>
