<svg width="1440" height="457" viewBox="0 0 1440 457" fill="none" xmlns="http://www.w3.org/2000/svg">
<path d="M1366.5 1.89896L1368.38 8.76894L1368.48 9.13729H1368.86H1375.14L1369.99 13.5973L1369.75 13.8033L1369.83 14.1071L1371.76 21.1605L1366.83 16.8964L1366.5 16.6135L1366.17 16.8964L1361.24 21.1605L1363.17 14.1071L1363.25 13.8033L1363.01 13.5973L1357.86 9.13729H1364.14H1364.52L1364.62 8.76894L1366.5 1.89896Z" stroke="black"/>
<path d="M0 142L11.7012 153.618C31.5576 173.334 54.5178 189.654 79.6646 201.926V201.926C93.8283 208.838 108.601 214.426 123.794 218.616L130.145 220.367C152.809 226.618 176.083 230.404 199.561 231.657L304.374 237.252L434.461 229.771L524.367 218.8H640.391L829.745 237.252H881.479H946.271H997.871C1027.34 237.252 1056.71 240.508 1085.46 246.96L1086.31 247.151C1105.77 251.517 1124.87 257.331 1143.46 264.546L1170.78 275.153L1244.12 297.595L1332.51 316.545L1440 334" stroke="#DFDFDF" stroke-opacity="0.5"/>
<path d="M0 375.5L95.5332 355.5L177.061 330.5L349.621 296.5L427.514 285.167C446.585 282.393 465.832 281 485.104 281H530.957C552.415 281 573.837 282.727 595.018 286.163L658.729 296.5L673.062 298.906C707.046 304.611 741.625 305.901 775.939 302.744L843.793 296.5L890.991 291.591C917.149 288.87 943.511 288.736 969.695 291.19L997.846 293.828C1016.83 295.607 1035.66 298.741 1054.2 303.206L1109.39 316.5L1194.91 346.5L1267.44 368L1292.9 377.6C1313.9 385.519 1335.53 391.657 1357.57 395.947L1440 412" stroke="#DFDFDF" stroke-opacity="0.5"/>
<path d="M0 410L67.0964 355.593C99.6811 329.171 137.546 310.033 178.145 299.468V299.468C217.346 289.266 258.234 287.281 298.239 293.637L311.45 295.736C362.307 303.817 414.309 300.824 463.903 286.962L466.221 286.314C515.332 272.587 566.755 269.194 617.244 276.349L624.56 277.386C655.568 281.78 686.985 282.518 718.165 279.583L769.517 274.75L867.801 265.5H938.326H1048.86L1174.41 248L1327.96 205L1440 175" stroke="#DFDFDF" stroke-opacity="0.5"/>
<path d="M426.039 107.637L419.469 113.007" stroke="black" stroke-width="2" stroke-linecap="round"/>
<path d="M422.164 104.014L413.918 110.709" stroke="black" stroke-width="2" stroke-linecap="round"/>
<path d="M418.906 100.809L410.001 108.505" stroke="black" stroke-width="2" stroke-linecap="round"/>
<path d="M839.78 433.64L837.728 434.612L836.648 432.254L840.554 430.4H842.516V443H839.78V433.64ZM844.857 438.68V434.72C844.857 433.424 845.325 432.344 846.261 431.48C847.209 430.604 848.385 430.166 849.789 430.166C851.217 430.166 852.393 430.604 853.317 431.48C854.265 432.344 854.739 433.424 854.739 434.72V438.68C854.739 439.976 854.265 441.062 853.317 441.938C852.381 442.802 851.205 443.234 849.789 443.234C848.385 443.234 847.209 442.802 846.261 441.938C845.325 441.062 844.857 439.976 844.857 438.68ZM847.593 434.684V438.716C847.593 439.244 847.803 439.694 848.223 440.066C848.643 440.426 849.165 440.606 849.789 440.606C850.413 440.606 850.935 440.426 851.355 440.066C851.775 439.694 851.985 439.244 851.985 438.716V434.684C851.985 434.144 851.775 433.694 851.355 433.334C850.935 432.974 850.413 432.794 849.789 432.794C849.165 432.794 848.643 432.974 848.223 433.334C847.803 433.694 847.593 434.144 847.593 434.684ZM862.158 434.072C862.158 433.712 861.978 433.412 861.618 433.172C861.258 432.92 860.808 432.794 860.268 432.794C859.284 432.794 858.63 433.124 858.306 433.784L855.84 432.74C856.236 431.96 856.836 431.336 857.64 430.868C858.444 430.4 859.356 430.166 860.376 430.166C861.708 430.166 862.812 430.532 863.688 431.264C864.564 431.996 865.002 432.914 865.002 434.018C865.002 435.014 864.588 435.824 863.76 436.448C864.816 437.132 865.344 438.062 865.344 439.238C865.344 440.366 864.882 441.32 863.958 442.1C863.046 442.856 861.888 443.234 860.484 443.234C859.308 443.234 858.294 442.958 857.442 442.406C856.578 441.842 855.996 441.11 855.696 440.21L858.306 439.31C858.402 439.694 858.642 440.006 859.026 440.246C859.422 440.486 859.89 440.606 860.43 440.606C861.03 440.606 861.522 440.468 861.906 440.192C862.29 439.916 862.482 439.568 862.482 439.148C862.482 438.728 862.29 438.386 861.906 438.122C861.522 437.846 861.042 437.708 860.466 437.708H859.512V435.422H860.142C860.718 435.422 861.198 435.296 861.582 435.044C861.966 434.792 862.158 434.468 862.158 434.072Z" fill="white"/>
<ellipse cx="806.5" cy="271" rx="3.5" ry="3" fill="#F6BD11"/>
<ellipse cx="806.5" cy="271" rx="3.5" ry="3" fill="#F6BD11"/>
<ellipse cx="806.5" cy="271" rx="3.5" ry="3" fill="#F6BD11"/>
<ellipse cx="489" cy="279" rx="6" ry="5" fill="#F6BD11"/>
<ellipse cx="489" cy="279" rx="6" ry="5" fill="#F6BD11"/>
<ellipse cx="489" cy="279" rx="6" ry="5" fill="#F35888"/>
<ellipse cx="58" cy="362" rx="6" ry="5" fill="#F6BD11"/>
<ellipse cx="58" cy="362" rx="6" ry="5" fill="#F6BD11"/>
<ellipse cx="58" cy="362" rx="6" ry="5" fill="#004796"/>
<ellipse cx="1403" cy="406.5" rx="9" ry="7.5" fill="#F6BD11"/>
<ellipse cx="1403" cy="406.5" rx="9" ry="7.5" fill="#F6BD11"/>
<ellipse cx="1403" cy="406.5" rx="9" ry="7.5" fill="#2BD8F5"/>
<path d="M158.52 267.656V276H156.952V266.2H165.408V276H163.826V267.656H158.52ZM174.455 272.892H168.407C168.519 273.461 168.795 273.928 169.233 274.292C169.681 274.647 170.209 274.824 170.815 274.824C171.637 274.824 172.281 274.521 172.747 273.914L174.175 274.348C173.839 274.917 173.373 275.365 172.775 275.692C172.187 276.019 171.534 276.182 170.815 276.182C169.695 276.182 168.767 275.818 168.029 275.09C167.283 274.362 166.909 273.452 166.909 272.36C166.909 271.277 167.269 270.367 167.987 269.63C168.715 268.902 169.621 268.538 170.703 268.538C171.786 268.538 172.682 268.902 173.391 269.63C174.119 270.358 174.483 271.268 174.483 272.36C174.483 272.397 174.474 272.575 174.455 272.892ZM168.421 271.73H172.985C172.855 271.189 172.575 270.75 172.145 270.414C171.716 270.069 171.221 269.896 170.661 269.896C170.129 269.896 169.653 270.069 169.233 270.414C168.823 270.75 168.552 271.189 168.421 271.73ZM177.232 279.15H175.776V268.72H177.232V269.504C177.904 268.86 178.712 268.538 179.654 268.538C180.672 268.538 181.526 268.902 182.216 269.63C182.898 270.349 183.238 271.259 183.238 272.36C183.238 273.461 182.898 274.371 182.216 275.09C181.526 275.818 180.672 276.182 179.654 276.182C178.712 276.182 177.904 275.86 177.232 275.216V279.15ZM179.486 269.994C178.861 269.994 178.334 270.223 177.904 270.68C177.475 271.119 177.26 271.679 177.26 272.36C177.26 273.032 177.475 273.597 177.904 274.054C178.334 274.502 178.861 274.726 179.486 274.726C180.112 274.726 180.644 274.502 181.082 274.054C181.512 273.597 181.726 273.032 181.726 272.36C181.726 271.679 181.512 271.119 181.082 270.68C180.653 270.223 180.121 269.994 179.486 269.994ZM191.873 272.892H185.825C185.937 273.461 186.213 273.928 186.651 274.292C187.099 274.647 187.627 274.824 188.233 274.824C189.055 274.824 189.699 274.521 190.165 273.914L191.593 274.348C191.257 274.917 190.791 275.365 190.193 275.692C189.605 276.019 188.952 276.182 188.233 276.182C187.113 276.182 186.185 275.818 185.447 275.09C184.701 274.362 184.327 273.452 184.327 272.36C184.327 271.277 184.687 270.367 185.405 269.63C186.133 268.902 187.039 268.538 188.121 268.538C189.204 268.538 190.1 268.902 190.809 269.63C191.537 270.358 191.901 271.268 191.901 272.36C191.901 272.397 191.892 272.575 191.873 272.892ZM185.839 271.73H190.403C190.273 271.189 189.993 270.75 189.563 270.414C189.134 270.069 188.639 269.896 188.079 269.896C187.547 269.896 187.071 270.069 186.651 270.414C186.241 270.75 185.97 271.189 185.839 271.73ZM193.194 276V268.72H194.65V273.578L198.766 268.72H199.984V276H198.528V271.17L194.412 276H193.194ZM194.188 265.668H195.406C195.406 265.985 195.518 266.251 195.742 266.466C195.976 266.681 196.265 266.788 196.61 266.788C196.937 266.788 197.212 266.681 197.436 266.466C197.67 266.251 197.786 265.985 197.786 265.668H199.004C199.004 266.331 198.776 266.877 198.318 267.306C197.861 267.735 197.292 267.95 196.61 267.95C195.91 267.95 195.332 267.735 194.874 267.306C194.417 266.877 194.188 266.331 194.188 265.668ZM203.629 276V270.12H201.053V268.72H207.661V270.12H205.085V276H203.629ZM214.046 271.17L209.93 276H208.712V268.72H210.168V273.578L214.284 268.72H215.502V276H214.046V271.17Z" fill="white" fill-opacity="0.9"/>
<path d="M240.464 272.354C240.66 272.158 240.66 271.842 240.464 271.646L237.282 268.464C237.087 268.269 236.77 268.269 236.575 268.464C236.38 268.66 236.38 268.976 236.575 269.172L239.404 272L236.575 274.828C236.38 275.024 236.38 275.34 236.575 275.536C236.77 275.731 237.087 275.731 237.282 275.536L240.464 272.354ZM222 272.5H240.111V271.5H222V272.5Z" fill="white"/>
<g filter="url(#filter0_i_112_326)">
<path d="M1089.48 0H899.807C887.41 0 877.361 10.1541 877.361 22.6799V373.084C877.361 385.61 887.41 395.764 899.807 395.764H1089.48C1101.88 395.764 1111.93 385.61 1111.93 373.084V22.6799C1111.93 10.1541 1101.88 0 1089.48 0Z" fill="url(#paint0_linear_112_326)"/>
<path d="M1089.48 2.83496H899.807C888.96 2.83496 880.167 11.7198 880.167 22.6799V373.084C880.167 384.044 888.96 392.929 899.807 392.929H1089.48C1100.33 392.929 1109.12 384.044 1109.12 373.084V22.6799C1109.12 11.7198 1100.33 2.83496 1089.48 2.83496Z" stroke="white" stroke-width="5"/>
</g>
<path d="M903.079 22.6799H901.958V15.1699L899.71 16.0044V14.9811L902.905 13.7691H903.079V22.6799ZM906.859 18.2336L907.305 13.8117H911.802V14.8532H908.252L907.986 17.2713C908.416 17.0155 908.905 16.8876 909.451 16.8876C910.251 16.8876 910.886 17.1555 911.356 17.6916C911.826 18.2234 912.061 18.9442 912.061 19.8538C912.061 20.7674 911.816 21.4882 911.326 22.0161C910.84 22.5399 910.159 22.8017 909.282 22.8017C908.507 22.8017 907.874 22.5845 907.384 22.15C906.893 21.7156 906.614 21.1145 906.546 20.3472H907.601C907.669 20.8547 907.848 21.2384 908.137 21.4983C908.426 21.7541 908.808 21.882 909.282 21.882C909.801 21.882 910.207 21.7033 910.5 21.346C910.797 20.9887 910.946 20.4954 910.946 19.866C910.946 19.2732 910.785 18.798 910.464 18.4407C910.146 18.0793 909.723 17.8986 909.192 17.8986C908.706 17.8986 908.324 18.0063 908.047 18.2215L907.751 18.4651L906.859 18.2336ZM913.357 22.0891C913.357 21.8942 913.414 21.7318 913.526 21.6018C913.643 21.4719 913.816 21.4069 914.045 21.4069C914.274 21.4069 914.447 21.4719 914.563 21.6018C914.684 21.7318 914.744 21.8942 914.744 22.0891C914.744 22.2759 914.684 22.4322 914.563 22.5581C914.447 22.684 914.274 22.7469 914.045 22.7469C913.816 22.7469 913.643 22.684 913.526 22.5581C913.414 22.4322 913.357 22.2759 913.357 22.0891ZM913.363 16.7109C913.363 16.5161 913.42 16.3536 913.532 16.2236C913.649 16.0938 913.822 16.0288 914.051 16.0288C914.28 16.0288 914.453 16.0938 914.569 16.2236C914.69 16.3536 914.75 16.5161 914.75 16.7109C914.75 16.8977 914.69 17.0541 914.569 17.1799C914.453 17.3058 914.28 17.3687 914.051 17.3687C913.822 17.3687 913.649 17.3058 913.532 17.1799C913.42 17.0541 913.363 16.8977 913.363 16.7109ZM921.773 18.8976C921.773 20.2172 921.55 21.1978 921.104 21.8394C920.657 22.4809 919.96 22.8017 919.012 22.8017C918.075 22.8017 917.382 22.4891 916.932 21.8638C916.482 21.2344 916.249 20.2964 916.233 19.0498V17.5454C916.233 16.242 916.456 15.2736 916.902 14.6401C917.348 14.0067 918.047 13.6899 919 13.6899C919.944 13.6899 920.639 13.9965 921.086 14.6096C921.532 15.2187 921.761 16.1607 921.773 17.4358V18.8976ZM920.657 17.3566C920.657 16.4023 920.525 15.708 920.26 15.2736C919.994 14.8349 919.574 14.6157 919 14.6157C918.429 14.6157 918.013 14.8329 917.752 15.2674C917.491 15.7019 917.356 16.3698 917.348 17.2713V19.0741C917.348 20.0325 917.485 20.741 917.758 21.1998C918.035 21.6547 918.453 21.882 919.012 21.882C919.562 21.882 919.97 21.6668 920.236 21.2365C920.505 20.806 920.645 20.1279 920.657 19.2021V17.3566ZM928.705 18.8976C928.705 20.2172 928.482 21.1978 928.036 21.8394C927.59 22.4809 926.893 22.8017 925.944 22.8017C925.008 22.8017 924.315 22.4891 923.864 21.8638C923.414 21.2344 923.181 20.2964 923.165 19.0498V17.5454C923.165 16.242 923.388 15.2736 923.834 14.6401C924.28 14.0067 924.98 13.6899 925.932 13.6899C926.876 13.6899 927.572 13.9965 928.018 14.6096C928.464 15.2187 928.693 16.1607 928.705 17.4358V18.8976ZM927.59 17.3566C927.59 16.4023 927.457 15.708 927.192 15.2736C926.927 14.8349 926.507 14.6157 925.932 14.6157C925.361 14.6157 924.946 14.8329 924.684 15.2674C924.423 15.7019 924.288 16.3698 924.28 17.2713V19.0741C924.28 20.0325 924.417 20.741 924.69 21.1998C924.968 21.6547 925.386 21.882 925.944 21.882C926.495 21.882 926.903 21.6668 927.168 21.2365C927.437 20.806 927.578 20.1279 927.59 19.2021V17.3566Z" fill="black" fill-opacity="0.8"/>
<g filter="url(#filter1_i_112_326)">
<path d="M1123.15 77.1118H1064.79C1058.59 77.1118 1053.57 82.1889 1053.57 88.4518V108.864C1053.57 115.127 1058.59 120.204 1064.79 120.204H1123.15C1129.35 120.204 1134.37 115.127 1134.37 108.864V88.4518C1134.37 82.1889 1129.35 77.1118 1123.15 77.1118Z" fill="#F35888"/>
</g>
<path d="M1073.33 94.0081H1078.12C1079.16 94.0081 1080.03 94.3423 1080.74 95.0105C1081.45 95.6691 1081.81 96.4896 1081.81 97.4724C1081.81 98.1211 1081.64 98.7156 1081.31 99.2562C1080.98 99.7869 1080.53 100.2 1079.97 100.495L1082.17 104.327H1079.6L1077.64 100.937H1075.65V104.327H1073.33V94.0081ZM1078.12 96.1604H1075.65V98.7845H1078.12C1078.49 98.7845 1078.79 98.6617 1079.04 98.4159C1079.28 98.1604 1079.4 97.8459 1079.4 97.4724C1079.4 97.099 1079.28 96.7894 1079.04 96.5437C1078.79 96.2882 1078.49 96.1604 1078.12 96.1604ZM1090.39 101.291H1084.75C1084.87 101.694 1085.1 102.018 1085.43 102.264C1085.76 102.509 1086.15 102.632 1086.6 102.632C1087.22 102.632 1087.72 102.406 1088.1 101.954L1090.22 102.44C1089.87 103.089 1089.37 103.6 1088.73 103.974C1088.1 104.337 1087.38 104.519 1086.59 104.519C1085.4 104.519 1084.41 104.136 1083.62 103.369C1082.84 102.603 1082.44 101.644 1082.44 100.495C1082.44 99.3545 1082.83 98.4012 1083.6 97.6346C1084.36 96.8582 1085.32 96.47 1086.47 96.47C1087.61 96.47 1088.56 96.8582 1089.33 97.6346C1090.1 98.4012 1090.48 99.3545 1090.48 100.495C1090.48 100.77 1090.45 101.035 1090.39 101.291ZM1084.76 99.6543H1088.25C1088.11 99.2611 1087.89 98.9466 1087.56 98.7108C1087.24 98.4749 1086.88 98.357 1086.47 98.357C1086.08 98.357 1085.73 98.4749 1085.42 98.7108C1085.11 98.9466 1084.89 99.2611 1084.76 99.6543ZM1093.56 104.327H1091.37V93.271H1093.56V104.327ZM1094.55 100.495C1094.55 99.3348 1094.89 98.3766 1095.58 97.6199C1096.26 96.8533 1097.11 96.47 1098.14 96.47C1098.92 96.47 1099.62 96.7059 1100.24 97.1776V96.6616H1102.42V104.327H1100.24V103.797C1099.64 104.278 1098.94 104.519 1098.14 104.519C1097.11 104.519 1096.26 104.136 1095.58 103.369C1094.89 102.593 1094.55 101.635 1094.55 100.495ZM1098.52 98.6518C1098.05 98.6518 1097.64 98.8287 1097.31 99.1825C1096.99 99.5363 1096.83 99.9687 1096.83 100.48C1096.83 101.011 1096.99 101.453 1097.31 101.807C1097.64 102.16 1098.05 102.337 1098.52 102.337C1098.99 102.337 1099.39 102.16 1099.72 101.807C1100.05 101.453 1100.22 101.011 1100.22 100.48C1100.22 99.959 1100.05 99.5264 1099.72 99.1825C1099.39 98.8287 1098.99 98.6518 1098.52 98.6518ZM1108.71 104.327L1107.19 102.101L1105.69 104.327H1103.12L1105.9 100.377L1103.28 96.6616H1105.84L1107.19 98.6518L1108.55 96.6616H1111.11L1108.51 100.377L1111.27 104.327H1108.71Z" fill="white"/>
<path d="M1046.32 71.096C1046.08 70.2412 1046.86 69.4493 1047.71 69.6918L1055.89 72.0366C1056.72 72.2724 1056.99 73.3154 1056.38 73.9281L1050.55 79.8481C1049.94 80.4607 1048.91 80.192 1048.67 79.3608L1046.32 71.096Z" fill="#F35888"/>
<g filter="url(#filter2_i_112_326)">
<path d="M924.498 95.2556H838.08C831.881 95.2556 826.856 100.333 826.856 106.596V128.141C826.856 134.404 831.881 139.481 838.08 139.481H924.498C930.697 139.481 935.722 134.404 935.722 128.141V106.596C935.722 100.333 930.697 95.2556 924.498 95.2556Z" fill="#F6BD11"/>
</g>
<path d="M837.14 105.802H843.597V107.623H839.103V109.244H842.881V111.066H839.103V114.533H837.14V105.802ZM843.765 111.29C843.765 110.309 844.053 109.498 844.629 108.858C845.205 108.209 845.93 107.885 846.802 107.885C847.46 107.885 848.053 108.084 848.58 108.484V108.047H850.419V114.533H848.58V114.084C848.069 114.491 847.477 114.696 846.802 114.696C845.93 114.696 845.205 114.371 844.629 113.723C844.053 113.066 843.765 112.255 843.765 111.29ZM847.123 109.731C846.72 109.731 846.378 109.881 846.098 110.18C845.827 110.479 845.691 110.845 845.691 111.278C845.691 111.727 845.827 112.101 846.098 112.4C846.378 112.7 846.72 112.849 847.123 112.849C847.518 112.849 847.856 112.7 848.135 112.4C848.415 112.101 848.555 111.727 848.555 111.278C848.555 110.837 848.415 110.471 848.135 110.18C847.856 109.881 847.518 109.731 847.123 109.731ZM857.943 110.118L856.079 110.667C855.964 110.384 855.782 110.159 855.535 109.993C855.289 109.818 855.009 109.731 854.696 109.731C854.268 109.731 853.91 109.881 853.622 110.18C853.334 110.471 853.19 110.837 853.19 111.278C853.19 111.727 853.334 112.101 853.622 112.4C853.91 112.7 854.268 112.849 854.696 112.849C855.009 112.849 855.289 112.766 855.535 112.6C855.782 112.425 855.964 112.197 856.079 111.914L857.943 112.463C857.696 113.145 857.28 113.69 856.696 114.097C856.112 114.496 855.445 114.696 854.696 114.696C853.708 114.696 852.889 114.371 852.239 113.723C851.589 113.066 851.264 112.255 851.264 111.29C851.264 110.317 851.589 109.506 852.239 108.858C852.889 108.209 853.708 107.885 854.696 107.885C855.445 107.885 856.112 108.089 856.696 108.496C857.28 108.895 857.696 109.436 857.943 110.118ZM865.178 111.964H860.4C860.507 112.305 860.7 112.579 860.98 112.787C861.26 112.995 861.589 113.099 861.968 113.099C862.495 113.099 862.919 112.908 863.24 112.525L865.03 112.937C864.733 113.486 864.314 113.918 863.77 114.234C863.235 114.541 862.63 114.696 861.956 114.696C860.951 114.696 860.116 114.371 859.449 113.723C858.783 113.074 858.449 112.263 858.449 111.29C858.449 110.326 858.775 109.519 859.425 108.87C860.075 108.213 860.886 107.885 861.857 107.885C862.82 107.885 863.626 108.213 864.277 108.87C864.927 109.519 865.252 110.326 865.252 111.29C865.252 111.523 865.227 111.748 865.178 111.964ZM860.412 110.579H863.363C863.248 110.247 863.054 109.98 862.783 109.781C862.511 109.581 862.203 109.481 861.857 109.481C861.528 109.481 861.231 109.581 860.968 109.781C860.705 109.98 860.519 110.247 860.412 110.579ZM866.001 114.533V105.178H867.853V108.484C868.363 108.084 868.952 107.885 869.619 107.885C870.483 107.885 871.207 108.209 871.791 108.858C872.376 109.515 872.668 110.326 872.668 111.29C872.668 112.247 872.376 113.057 871.791 113.723C871.207 114.371 870.483 114.696 869.619 114.696C868.968 114.696 868.38 114.496 867.853 114.097V114.533H866.001ZM869.31 109.731C868.907 109.731 868.565 109.881 868.285 110.18C868.014 110.479 867.878 110.845 867.878 111.278C867.878 111.727 868.014 112.101 868.285 112.4C868.565 112.7 868.907 112.849 869.31 112.849C869.705 112.849 870.038 112.7 870.31 112.4C870.59 112.101 870.73 111.727 870.73 111.278C870.73 110.837 870.59 110.471 870.31 110.18C870.038 109.881 869.705 109.731 869.31 109.731ZM874.278 113.723C873.628 113.066 873.303 112.255 873.303 111.29C873.303 110.326 873.628 109.519 874.278 108.87C874.928 108.213 875.747 107.885 876.735 107.885C877.714 107.885 878.529 108.213 879.179 108.87C879.838 109.519 880.167 110.326 880.167 111.29C880.167 112.247 879.838 113.057 879.179 113.723C878.521 114.371 877.706 114.696 876.735 114.696C875.747 114.696 874.928 114.371 874.278 113.723ZM876.735 112.849C877.163 112.849 877.517 112.7 877.796 112.4C878.093 112.093 878.241 111.723 878.241 111.29C878.241 110.858 878.093 110.492 877.796 110.193C877.517 109.885 877.163 109.731 876.735 109.731C876.307 109.731 875.949 109.881 875.661 110.18C875.373 110.488 875.229 110.858 875.229 111.29C875.229 111.723 875.373 112.093 875.661 112.4C875.949 112.7 876.307 112.849 876.735 112.849ZM881.777 113.723C881.127 113.066 880.802 112.255 880.802 111.29C880.802 110.326 881.127 109.519 881.777 108.87C882.427 108.213 883.246 107.885 884.234 107.885C885.213 107.885 886.028 108.213 886.678 108.87C887.337 109.519 887.666 110.326 887.666 111.29C887.666 112.247 887.337 113.057 886.678 113.723C886.02 114.371 885.205 114.696 884.234 114.696C883.246 114.696 882.427 114.371 881.777 113.723ZM884.234 112.849C884.662 112.849 885.016 112.7 885.295 112.4C885.592 112.093 885.74 111.723 885.74 111.29C885.74 110.858 885.592 110.492 885.295 110.193C885.016 109.885 884.662 109.731 884.234 109.731C883.806 109.731 883.448 109.881 883.16 110.18C882.872 110.488 882.728 110.858 882.728 111.29C882.728 111.723 882.872 112.093 883.16 112.4C883.448 112.7 883.806 112.849 884.234 112.849ZM888.498 114.533V105.178H890.35V110.592L892.165 108.047H894.35L892.128 111.178L894.585 114.533H892.362L890.35 111.752V114.533H888.498ZM900.055 117.34H898.203V108.047H900.055V108.484C900.566 108.084 901.154 107.885 901.821 107.885C902.685 107.885 903.409 108.209 903.994 108.858C904.578 109.515 904.87 110.326 904.87 111.29C904.87 112.247 904.578 113.057 903.994 113.723C903.409 114.371 902.685 114.696 901.821 114.696C901.171 114.696 900.582 114.496 900.055 114.097V117.34ZM901.512 109.731C901.109 109.731 900.767 109.881 900.487 110.18C900.216 110.479 900.08 110.854 900.08 111.303C900.08 111.735 900.216 112.101 900.487 112.4C900.767 112.7 901.109 112.849 901.512 112.849C901.907 112.849 902.24 112.7 902.512 112.4C902.792 112.109 902.932 111.743 902.932 111.303C902.932 110.854 902.792 110.479 902.512 110.18C902.24 109.881 901.907 109.731 901.512 109.731ZM907.554 114.533H905.702V108.047H907.554V114.533ZM905.801 107.261C905.587 107.045 905.48 106.77 905.48 106.438C905.48 106.105 905.587 105.831 905.801 105.615C906.032 105.398 906.307 105.29 906.628 105.29C906.958 105.29 907.229 105.398 907.443 105.615C907.665 105.822 907.776 106.097 907.776 106.438C907.776 106.779 907.665 107.053 907.443 107.261C907.229 107.477 906.958 107.585 906.628 107.585C906.307 107.585 906.032 107.477 905.801 107.261ZM912.88 114.533L911.596 112.65L910.324 114.533H908.152L910.497 111.19L908.287 108.047H910.448L911.596 109.731L912.744 108.047H914.905L912.707 111.19L915.04 114.533H912.88ZM921.697 111.964H916.92C917.027 112.305 917.22 112.579 917.5 112.787C917.78 112.995 918.109 113.099 918.487 113.099C919.014 113.099 919.438 112.908 919.759 112.525L921.549 112.937C921.253 113.486 920.833 113.918 920.29 114.234C919.755 114.541 919.15 114.696 918.475 114.696C917.471 114.696 916.636 114.371 915.969 113.723C915.302 113.074 914.969 112.263 914.969 111.29C914.969 110.326 915.294 109.519 915.944 108.87C916.595 108.213 917.405 107.885 918.376 107.885C919.339 107.885 920.146 108.213 920.796 108.87C921.446 109.519 921.771 110.326 921.771 111.29C921.771 111.523 921.747 111.748 921.697 111.964ZM916.932 110.579H919.882C919.767 110.247 919.574 109.98 919.302 109.781C919.031 109.581 918.722 109.481 918.376 109.481C918.047 109.481 917.751 109.581 917.487 109.781C917.224 109.98 917.039 110.247 916.932 110.579ZM924.373 114.533H922.521V105.178H924.373V114.533ZM863.998 120.655L864.183 120.43H865.368L865.158 120.692C865.076 120.792 864.928 121.049 864.714 121.466C864.277 122.272 863.94 123.254 863.701 124.409C863.438 125.799 863.434 127.196 863.689 128.601C863.837 129.324 863.994 129.893 864.158 130.31C864.529 131.25 864.87 131.923 865.183 132.33L865.368 132.592H864.183L864.171 132.58C863.512 131.814 863.018 130.779 862.689 129.474C862.45 128.534 862.331 127.545 862.331 126.505C862.331 124.975 862.549 123.661 862.985 122.563C863.347 121.648 863.685 121.012 863.998 120.655ZM872.253 123.461L870.883 123.873C870.809 123.591 870.62 123.354 870.315 123.162C870.011 122.962 869.657 122.863 869.253 122.863C868.809 122.863 868.439 122.97 868.142 123.187C867.846 123.394 867.698 123.661 867.698 123.985C867.648 124.268 867.858 124.551 868.327 124.834C868.41 124.883 868.57 124.95 868.809 125.033C869.113 125.133 869.29 125.191 869.34 125.208L869.994 125.395C870.644 125.569 871.196 125.794 871.648 126.068C872.257 126.443 872.562 127.046 872.562 127.877C872.562 128.683 872.266 129.337 871.673 129.836C871.072 130.327 870.311 130.572 869.389 130.572C868.55 130.572 867.829 130.376 867.229 129.985C866.636 129.586 866.253 129.087 866.081 128.488L867.451 128.052C867.525 128.384 867.739 128.663 868.093 128.888C868.455 129.112 868.887 129.224 869.389 129.224C869.899 129.224 870.323 129.112 870.661 128.888C870.998 128.655 871.167 128.356 871.167 127.989C871.167 127.748 871.072 127.54 870.883 127.366C870.718 127.199 870.55 127.079 870.377 127.004C870.204 126.921 869.945 126.834 869.599 126.742C868.554 126.435 867.862 126.193 867.525 126.019C866.718 125.577 866.315 124.933 866.315 124.085C866.315 123.32 866.587 122.7 867.13 122.226C867.673 121.752 868.373 121.515 869.229 121.515C869.986 121.515 870.64 121.703 871.192 122.077C871.735 122.434 872.089 122.896 872.253 123.461ZM876.876 130.572C875.913 130.572 875.11 130.247 874.468 129.599C873.826 128.95 873.505 128.139 873.505 127.166C873.505 126.193 873.826 125.382 874.468 124.734C875.11 124.085 875.913 123.761 876.876 123.761C877.839 123.761 878.641 124.085 879.283 124.734C879.933 125.382 880.258 126.193 880.258 127.166C880.258 128.139 879.933 128.95 879.283 129.599C878.641 130.247 877.839 130.572 876.876 130.572ZM876.876 129.274C877.468 129.274 877.954 129.075 878.332 128.676C878.728 128.268 878.925 127.765 878.925 127.166C878.925 126.567 878.728 126.068 878.332 125.669C877.954 125.262 877.468 125.058 876.876 125.058C876.3 125.058 875.814 125.262 875.419 125.669C875.032 126.076 874.839 126.575 874.839 127.166C874.839 127.757 875.032 128.259 875.419 128.676C875.814 129.075 876.3 129.274 876.876 129.274ZM884.592 130.572C883.629 130.572 882.826 130.247 882.184 129.599C881.542 128.95 881.221 128.139 881.221 127.166C881.221 126.193 881.542 125.382 882.184 124.734C882.826 124.085 883.629 123.761 884.592 123.761C885.555 123.761 886.357 124.085 886.999 124.734C887.649 125.382 887.974 126.193 887.974 127.166C887.974 128.139 887.649 128.95 886.999 129.599C886.357 130.247 885.555 130.572 884.592 130.572ZM884.592 129.274C885.184 129.274 885.67 129.075 886.048 128.676C886.444 128.268 886.641 127.765 886.641 127.166C886.641 126.567 886.444 126.068 886.048 125.669C885.67 125.262 885.184 125.058 884.592 125.058C884.016 125.058 883.53 125.262 883.135 125.669C882.748 126.076 882.555 126.575 882.555 127.166C882.555 127.757 882.748 128.259 883.135 128.676C883.53 129.075 884.016 129.274 884.592 129.274ZM889.221 130.409V123.923H890.505V124.871C890.974 124.13 891.678 123.761 892.616 123.761C893.357 123.761 893.966 124.002 894.443 124.484C894.929 124.975 895.172 125.582 895.172 126.305V130.409H893.888V126.68C893.888 126.198 893.732 125.799 893.419 125.482C893.106 125.158 892.711 124.996 892.234 124.996C891.74 124.996 891.328 125.158 890.999 125.482C890.67 125.806 890.505 126.21 890.505 126.692V130.409H889.221ZM896.276 120.68L896.091 120.43H897.289L897.486 120.667C897.569 120.767 897.717 121.004 897.931 121.378C898.169 121.802 898.359 122.206 898.499 122.588C898.663 123.02 898.811 123.586 898.943 124.285C899.075 124.975 899.141 125.715 899.141 126.505C899.141 127.927 898.943 129.187 898.548 130.285C898.392 130.726 898.215 131.125 898.017 131.482C897.803 131.864 897.651 132.118 897.56 132.243C897.478 132.385 897.392 132.497 897.301 132.58L897.289 132.592H896.091L896.289 132.318C896.396 132.185 896.548 131.927 896.746 131.545C896.943 131.178 897.128 130.763 897.301 130.297C897.457 129.856 897.606 129.295 897.746 128.613C898.025 127.241 898.029 125.844 897.758 124.422C897.634 123.731 897.482 123.162 897.301 122.713C896.955 121.815 896.614 121.137 896.276 120.68Z" fill="white"/>
<path d="M941.703 90.5104C942.565 90.3263 943.291 91.1696 942.991 92.0058L940.093 100.091C939.802 100.905 938.753 101.102 938.191 100.45L932.762 94.1449C932.201 93.4924 932.54 92.4702 933.377 92.2911L941.703 90.5104Z" fill="#F6BD11"/>
<g filter="url(#filter3_i_112_326)">
<path d="M1035.61 146.285H954.801C948.603 146.285 943.578 151.362 943.578 157.625V181.439C943.578 187.702 948.603 192.779 954.801 192.779H1035.61C1041.81 192.779 1046.83 187.702 1046.83 181.439V157.625C1046.83 151.362 1041.81 146.285 1035.61 146.285Z" fill="#2D6EFD"/>
</g>
<path d="M978.391 165.563H973.61V156.038H978.122C978.921 156.038 979.59 156.283 980.129 156.773C980.667 157.244 980.937 157.848 980.937 158.582C980.937 159.381 980.605 160.034 979.94 160.542C980.38 160.778 980.726 161.105 980.977 161.522C981.229 161.93 981.354 162.379 981.354 162.869C981.354 163.64 981.071 164.284 980.506 164.801C979.931 165.309 979.226 165.563 978.391 165.563ZM978.391 161.345H975.119V164.148H978.391C978.786 164.148 979.119 164.017 979.388 163.754C979.657 163.481 979.792 163.146 979.792 162.747C979.792 162.347 979.657 162.016 979.388 161.753C979.119 161.481 978.786 161.345 978.391 161.345ZM978.122 157.453H975.119V159.93H978.122C978.481 159.93 978.777 159.812 979.011 159.576C979.244 159.34 979.361 159.045 979.361 158.691C979.361 158.338 979.244 158.043 979.011 157.807C978.777 157.571 978.481 157.453 978.122 157.453ZM984.177 165.563H982.776V158.487H984.177V165.563ZM982.817 157.439C982.646 157.258 982.561 157.036 982.561 156.773C982.561 156.51 982.646 156.287 982.817 156.106C982.996 155.924 983.216 155.834 983.477 155.834C983.737 155.834 983.957 155.924 984.137 156.106C984.316 156.287 984.406 156.51 984.406 156.773C984.406 157.036 984.316 157.258 984.137 157.439C983.957 157.621 983.737 157.712 983.477 157.712C983.216 157.712 982.996 157.621 982.817 157.439ZM985.84 165.563V158.487H987.241V159.521C987.753 158.714 988.52 158.31 989.544 158.31C990.352 158.31 991.016 158.573 991.537 159.1C992.067 159.635 992.332 160.297 992.332 161.086V165.563H990.931V161.495C990.931 160.968 990.761 160.533 990.419 160.188C990.078 159.834 989.647 159.658 989.126 159.658C988.588 159.658 988.139 159.834 987.78 160.188C987.42 160.542 987.241 160.982 987.241 161.508V165.563H985.84ZM997.362 165.74C996.312 165.74 995.436 165.386 994.736 164.679C994.035 163.971 993.685 163.087 993.685 162.025C993.685 160.964 994.035 160.079 994.736 159.372C995.436 158.664 996.312 158.31 997.362 158.31C998.413 158.31 999.288 158.664 999.988 159.372C1000.7 160.079 1001.05 160.964 1001.05 162.025C1001.05 163.087 1000.7 163.971 999.988 164.679C999.288 165.386 998.413 165.74 997.362 165.74ZM997.362 164.325C998.008 164.325 998.538 164.107 998.951 163.672C999.382 163.227 999.598 162.678 999.598 162.025C999.598 161.372 999.382 160.828 998.951 160.392C998.538 159.948 998.008 159.726 997.362 159.726C996.734 159.726 996.204 159.948 995.773 160.392C995.351 160.837 995.14 161.381 995.14 162.025C995.14 162.669 995.351 163.218 995.773 163.672C996.204 164.107 996.734 164.325 997.362 164.325ZM1001.69 160.256V158.487H1002.64V157.113H1004.66V158.487H1006.25V160.256H1004.66V162.91C1004.66 163.128 1004.73 163.309 1004.88 163.454C1005.02 163.59 1005.2 163.658 1005.43 163.658H1006.25V165.563H1005.09C1004.4 165.563 1003.82 165.35 1003.34 164.924C1002.87 164.488 1002.64 163.949 1002.64 163.304V160.256H1001.69ZM1014.23 162.76H1009.01C1009.13 163.132 1009.34 163.431 1009.65 163.658C1009.95 163.885 1010.31 163.998 1010.72 163.998C1011.3 163.998 1011.76 163.79 1012.11 163.372L1014.06 163.822C1013.74 164.42 1013.28 164.892 1012.69 165.237C1012.11 165.572 1011.45 165.74 1010.71 165.74C1009.62 165.74 1008.7 165.386 1007.98 164.679C1007.25 163.971 1006.89 163.087 1006.89 162.025C1006.89 160.973 1007.24 160.093 1007.95 159.385C1008.66 158.669 1009.54 158.31 1010.6 158.31C1011.65 158.31 1012.53 158.669 1013.24 159.385C1013.95 160.093 1014.31 160.973 1014.31 162.025C1014.31 162.279 1014.28 162.524 1014.23 162.76ZM1009.03 161.25H1012.25C1012.12 160.887 1011.91 160.596 1011.61 160.379C1011.32 160.161 1010.98 160.052 1010.6 160.052C1010.24 160.052 1009.92 160.161 1009.63 160.379C1009.35 160.596 1009.14 160.887 1009.03 161.25ZM1017.14 165.563H1015.12V155.357H1017.14V165.563ZM976.954 173.066L977.156 172.821H978.449L978.22 173.107C978.13 173.216 977.968 173.497 977.735 173.95C977.259 174.83 976.891 175.901 976.63 177.162C976.343 178.677 976.339 180.201 976.617 181.734C976.779 182.523 976.949 183.145 977.129 183.598C977.533 184.624 977.905 185.358 978.247 185.803L978.449 186.089H977.156L977.142 186.075C976.424 185.24 975.885 184.111 975.526 182.687C975.266 181.662 975.136 180.582 975.136 179.448C975.136 177.779 975.373 176.345 975.849 175.148C976.244 174.15 976.613 173.456 976.954 173.066ZM985.96 176.128L984.465 176.577C984.385 176.268 984.178 176.01 983.846 175.801C983.514 175.583 983.128 175.474 982.688 175.474C982.203 175.474 981.799 175.592 981.476 175.828C981.152 176.055 980.991 176.345 980.991 176.699C980.937 177.008 981.166 177.316 981.678 177.625C981.767 177.679 981.942 177.752 982.203 177.842C982.535 177.951 982.728 178.015 982.782 178.033L983.496 178.237C984.205 178.427 984.807 178.672 985.3 178.972C985.965 179.38 986.297 180.038 986.297 180.945C986.297 181.825 985.974 182.537 985.327 183.081C984.672 183.617 983.841 183.884 982.836 183.884C981.92 183.884 981.134 183.671 980.479 183.245C979.832 182.809 979.415 182.265 979.226 181.612L980.721 181.135C980.802 181.498 981.036 181.802 981.422 182.047C981.817 182.292 982.288 182.415 982.836 182.415C983.392 182.415 983.855 182.292 984.223 182.047C984.591 181.793 984.775 181.467 984.775 181.067C984.775 180.804 984.672 180.577 984.465 180.387C984.286 180.206 984.102 180.074 983.913 179.992C983.725 179.902 983.442 179.806 983.065 179.707C981.924 179.371 981.17 179.108 980.802 178.917C979.922 178.436 979.482 177.733 979.482 176.808C979.482 175.973 979.779 175.298 980.371 174.78C980.964 174.263 981.727 174.005 982.661 174.005C983.487 174.005 984.201 174.209 984.802 174.617C985.395 175.007 985.781 175.511 985.96 176.128ZM991.003 183.884C989.952 183.884 989.077 183.53 988.377 182.823C987.676 182.115 987.326 181.231 987.326 180.169C987.326 179.108 987.676 178.223 988.377 177.516C989.077 176.808 989.952 176.454 991.003 176.454C992.053 176.454 992.929 176.808 993.629 177.516C994.338 178.223 994.693 179.108 994.693 180.169C994.693 181.231 994.338 182.115 993.629 182.823C992.929 183.53 992.053 183.884 991.003 183.884ZM991.003 182.469C991.649 182.469 992.179 182.251 992.592 181.816C993.023 181.371 993.239 180.822 993.239 180.169C993.239 179.516 993.023 178.972 992.592 178.536C992.179 178.092 991.649 177.869 991.003 177.869C990.374 177.869 989.845 178.092 989.414 178.536C988.992 178.981 988.781 179.525 988.781 180.169C988.781 180.813 988.992 181.362 989.414 181.816C989.845 182.251 990.374 182.469 991.003 182.469ZM999.42 183.884C998.37 183.884 997.494 183.53 996.794 182.823C996.094 182.115 995.744 181.231 995.744 180.169C995.744 179.108 996.094 178.223 996.794 177.516C997.494 176.808 998.37 176.454 999.42 176.454C1000.47 176.454 1001.35 176.808 1002.05 177.516C1002.76 178.223 1003.11 179.108 1003.11 180.169C1003.11 181.231 1002.76 182.115 1002.05 182.823C1001.35 183.53 1000.47 183.884 999.42 183.884ZM999.42 182.469C1000.07 182.469 1000.6 182.251 1001.01 181.816C1001.44 181.371 1001.66 180.822 1001.66 180.169C1001.66 179.516 1001.44 178.972 1001.01 178.536C1000.6 178.092 1000.07 177.869 999.42 177.869C998.792 177.869 998.262 178.092 997.831 178.536C997.409 178.981 997.198 179.525 997.198 180.169C997.198 180.813 997.409 181.362 997.831 181.816C998.262 182.251 998.792 182.469 999.42 182.469ZM1004.47 183.707V176.631H1005.87V177.665C1006.38 176.858 1007.15 176.454 1008.17 176.454C1008.98 176.454 1009.65 176.717 1010.17 177.244C1010.7 177.779 1010.96 178.441 1010.96 179.23V183.707H1009.56V179.639C1009.56 179.112 1009.39 178.677 1009.05 178.332C1008.71 177.978 1008.28 177.801 1007.76 177.801C1007.22 177.801 1006.77 177.978 1006.41 178.332C1006.05 178.686 1005.87 179.126 1005.87 179.652V183.707H1004.47ZM1012.17 173.093L1011.96 172.821H1013.27L1013.49 173.079C1013.58 173.188 1013.74 173.447 1013.97 173.855C1014.23 174.318 1014.44 174.758 1014.59 175.175C1014.77 175.647 1014.93 176.264 1015.08 177.026C1015.22 177.779 1015.29 178.586 1015.29 179.448C1015.29 180.999 1015.08 182.374 1014.64 183.571C1014.47 184.052 1014.28 184.487 1014.07 184.878C1013.83 185.295 1013.67 185.572 1013.57 185.708C1013.48 185.862 1013.38 185.984 1013.28 186.075L1013.27 186.089H1011.96L1012.18 185.789C1012.3 185.644 1012.46 185.363 1012.68 184.946C1012.89 184.546 1013.1 184.093 1013.28 183.585C1013.46 183.104 1013.62 182.492 1013.77 181.748C1014.07 180.251 1014.08 178.727 1013.78 177.175C1013.65 176.423 1013.48 175.801 1013.28 175.311C1012.91 174.331 1012.53 173.592 1012.17 173.093Z" fill="white"/>
<g filter="url(#filter4_i_112_326)">
<path d="M1126.1 208.125H1081.21C1075.01 208.125 1069.99 213.202 1069.99 219.464V239.876C1069.99 246.139 1075.01 251.216 1081.21 251.216H1126.1C1132.3 251.216 1137.33 246.139 1137.33 239.876V219.464C1137.33 213.202 1132.3 208.125 1126.1 208.125Z" fill="#41D3ED"/>
</g>
<path d="M1088.67 227.137C1088.67 226.847 1088.55 226.602 1088.3 226.402C1088.05 226.203 1087.76 226.103 1087.41 226.103C1087.06 226.103 1086.74 226.216 1086.45 226.443C1086.16 226.67 1085.94 226.978 1085.78 227.368L1083.88 226.457C1084.2 225.722 1084.67 225.15 1085.29 224.742C1085.92 224.325 1086.63 224.116 1087.41 224.116C1088.36 224.116 1089.16 224.406 1089.82 224.987C1090.47 225.558 1090.8 226.252 1090.8 227.069C1090.8 228.049 1090.12 229.174 1088.76 230.444L1087.27 231.832H1090.87V233.818H1084.12V232.267L1087.5 229.056C1088.28 228.312 1088.67 227.672 1088.67 227.137ZM1095.05 230.28C1095.05 229.21 1095.36 228.325 1095.99 227.627C1096.62 226.919 1097.41 226.565 1098.36 226.565C1099.08 226.565 1099.72 226.783 1100.3 227.219V223.613H1102.31V233.818H1100.3V233.329C1099.74 233.773 1099.1 233.995 1098.36 233.995C1097.41 233.995 1096.62 233.642 1095.99 232.934C1095.36 232.217 1095.05 231.333 1095.05 230.28ZM1098.71 228.579C1098.27 228.579 1097.9 228.743 1097.59 229.069C1097.3 229.396 1097.15 229.795 1097.15 230.267C1097.15 230.757 1097.3 231.165 1097.59 231.492C1097.9 231.818 1098.27 231.981 1098.71 231.981C1099.14 231.981 1099.51 231.818 1099.81 231.492C1100.12 231.165 1100.27 230.757 1100.27 230.267C1100.27 229.786 1100.12 229.387 1099.81 229.069C1099.51 228.743 1099.14 228.579 1098.71 228.579ZM1104.29 232.934C1103.58 232.217 1103.23 231.333 1103.23 230.28C1103.23 229.228 1103.58 228.348 1104.29 227.64C1105 226.924 1105.9 226.565 1106.97 226.565C1108.04 226.565 1108.93 226.924 1109.64 227.64C1110.36 228.348 1110.72 229.228 1110.72 230.28C1110.72 231.324 1110.36 232.208 1109.64 232.934C1108.92 233.642 1108.03 233.995 1106.97 233.995C1105.9 233.995 1105 233.642 1104.29 232.934ZM1106.97 231.981C1107.44 231.981 1107.83 231.818 1108.13 231.492C1108.45 231.156 1108.62 230.752 1108.62 230.28C1108.62 229.809 1108.45 229.41 1108.13 229.083C1107.83 228.747 1107.44 228.579 1106.97 228.579C1106.51 228.579 1106.12 228.743 1105.8 229.069C1105.49 229.405 1105.33 229.809 1105.33 230.28C1105.33 230.752 1105.49 231.156 1105.8 231.492C1106.12 231.818 1106.51 231.981 1106.97 231.981Z" fill="white"/>
<path d="M1121.4 229.001L1119.37 229.6C1119.24 229.292 1119.04 229.047 1118.77 228.865C1118.5 228.675 1118.2 228.579 1117.86 228.579C1117.39 228.579 1117 228.743 1116.69 229.069C1116.37 229.387 1116.22 229.786 1116.22 230.267C1116.22 230.757 1116.37 231.165 1116.69 231.491C1117 231.818 1117.39 231.981 1117.86 231.981C1118.2 231.981 1118.5 231.891 1118.77 231.709C1119.04 231.519 1119.24 231.269 1119.37 230.961L1121.4 231.56C1121.13 232.303 1120.68 232.898 1120.04 233.342C1119.4 233.778 1118.68 233.995 1117.86 233.995C1116.78 233.995 1115.89 233.642 1115.18 232.934C1114.47 232.217 1114.11 231.333 1114.11 230.28C1114.11 229.219 1114.47 228.334 1115.18 227.627C1115.89 226.919 1116.78 226.565 1117.86 226.565C1118.68 226.565 1119.4 226.788 1120.04 227.232C1120.68 227.668 1121.13 228.257 1121.4 229.001Z" fill="#036D78"/>
<path d="M1062.44 202.003C1062.19 201.148 1062.98 200.355 1063.82 200.598L1072.01 202.943C1072.83 203.179 1073.1 204.222 1072.5 204.835L1066.66 210.754C1066.06 211.368 1065.02 211.099 1064.79 210.268L1062.44 202.003Z" fill="#41D3ED"/>
<g filter="url(#filter5_i_112_326)">
<path d="M1161.31 288.035H1110.8C1104.61 288.035 1099.58 293.112 1099.58 299.375V320.921C1099.58 327.183 1104.61 332.26 1110.8 332.26H1161.31C1167.51 332.26 1172.53 327.183 1172.53 320.921V299.375C1172.53 293.112 1167.51 288.035 1161.31 288.035Z" fill="#2D6EFD"/>
</g>
<path d="M1116.51 307.039L1114.89 307.526C1114.8 307.191 1114.58 306.911 1114.22 306.685C1113.86 306.45 1113.44 306.332 1112.97 306.332C1112.44 306.332 1112 306.46 1111.65 306.715C1111.3 306.961 1111.13 307.275 1111.13 307.658C1111.07 307.993 1111.32 308.326 1111.87 308.661C1111.97 308.72 1112.16 308.798 1112.44 308.897C1112.8 309.015 1113.01 309.084 1113.07 309.103L1113.84 309.324C1114.61 309.531 1115.26 309.796 1115.8 310.12C1116.52 310.563 1116.88 311.275 1116.88 312.258C1116.88 313.212 1116.53 313.983 1115.83 314.572C1115.12 315.152 1114.22 315.442 1113.13 315.442C1112.13 315.442 1111.28 315.211 1110.57 314.749C1109.87 314.277 1109.42 313.688 1109.22 312.98L1110.84 312.464C1110.92 312.858 1111.18 313.187 1111.59 313.452C1112.02 313.717 1112.53 313.85 1113.13 313.85C1113.73 313.85 1114.23 313.717 1114.63 313.452C1115.03 313.176 1115.23 312.823 1115.23 312.391C1115.23 312.106 1115.12 311.86 1114.89 311.653C1114.7 311.457 1114.5 311.314 1114.29 311.226C1114.09 311.127 1113.78 311.024 1113.37 310.916C1112.14 310.552 1111.32 310.268 1110.92 310.061C1109.97 309.541 1109.49 308.779 1109.49 307.776C1109.49 306.872 1109.81 306.14 1110.46 305.58C1111.1 305.02 1111.93 304.739 1112.94 304.739C1113.83 304.739 1114.6 304.961 1115.26 305.403C1115.9 305.826 1116.32 306.371 1116.51 307.039ZM1119.96 315.25H1118.44V307.585H1119.96V315.25ZM1118.48 306.45C1118.3 306.253 1118.21 306.012 1118.21 305.727C1118.21 305.443 1118.3 305.201 1118.48 305.005C1118.68 304.809 1118.92 304.71 1119.2 304.71C1119.48 304.71 1119.72 304.809 1119.91 305.005C1120.11 305.201 1120.21 305.443 1120.21 305.727C1120.21 306.012 1120.11 306.253 1119.91 306.45C1119.72 306.646 1119.48 306.744 1119.2 306.744C1118.92 306.744 1118.68 306.646 1118.48 306.45ZM1123.28 318.567H1121.76V307.585H1123.28V308.41C1123.98 307.732 1124.82 307.393 1125.8 307.393C1126.86 307.393 1127.75 307.776 1128.47 308.543C1129.18 309.299 1129.54 310.257 1129.54 311.418C1129.54 312.578 1129.18 313.536 1128.47 314.292C1127.75 315.059 1126.86 315.442 1125.8 315.442C1124.82 315.442 1123.98 315.103 1123.28 314.425V318.567ZM1125.63 308.926C1124.97 308.926 1124.43 309.167 1123.98 309.649C1123.53 310.11 1123.31 310.7 1123.31 311.418C1123.31 312.125 1123.53 312.719 1123.98 313.201C1124.43 313.673 1124.97 313.909 1125.63 313.909C1126.28 313.909 1126.83 313.673 1127.29 313.201C1127.74 312.719 1127.96 312.125 1127.96 311.418C1127.96 310.7 1127.74 310.11 1127.29 309.649C1126.84 309.167 1126.29 308.926 1125.63 308.926ZM1141.93 307.039L1140.31 307.526C1140.22 307.191 1140 306.911 1139.64 306.685C1139.28 306.45 1138.86 306.332 1138.38 306.332C1137.86 306.332 1137.42 306.46 1137.07 306.715C1136.72 306.961 1136.55 307.275 1136.55 307.658C1136.49 307.993 1136.74 308.326 1137.29 308.661C1137.39 308.72 1137.58 308.798 1137.86 308.897C1138.22 309.015 1138.43 309.084 1138.49 309.103L1139.26 309.324C1140.03 309.531 1140.68 309.796 1141.21 310.12C1141.94 310.563 1142.29 311.275 1142.29 312.258C1142.29 313.212 1141.94 313.983 1141.24 314.572C1140.53 315.152 1139.63 315.442 1138.54 315.442C1137.55 315.442 1136.7 315.211 1135.99 314.749C1135.29 314.277 1134.84 313.688 1134.63 312.98L1136.25 312.464C1136.34 312.858 1136.6 313.187 1137.01 313.452C1137.44 313.717 1137.95 313.85 1138.54 313.85C1139.15 313.85 1139.65 313.717 1140.05 313.452C1140.45 313.176 1140.65 312.823 1140.65 312.391C1140.65 312.106 1140.53 311.86 1140.31 311.653C1140.12 311.457 1139.92 311.314 1139.71 311.226C1139.51 311.127 1139.2 311.024 1138.79 310.916C1137.56 310.552 1136.74 310.268 1136.34 310.061C1135.39 309.541 1134.91 308.779 1134.91 307.776C1134.91 306.872 1135.23 306.14 1135.87 305.58C1136.52 305.02 1137.34 304.739 1138.36 304.739C1139.25 304.739 1140.02 304.961 1140.67 305.403C1141.32 305.826 1141.74 306.371 1141.93 307.039ZM1145.38 315.25H1143.86V307.585H1145.38V315.25ZM1143.9 306.45C1143.72 306.253 1143.63 306.012 1143.63 305.727C1143.63 305.443 1143.72 305.201 1143.9 305.005C1144.1 304.809 1144.34 304.71 1144.62 304.71C1144.9 304.71 1145.14 304.809 1145.33 305.005C1145.53 305.201 1145.62 305.443 1145.62 305.727C1145.62 306.012 1145.53 306.253 1145.33 306.45C1145.14 306.646 1144.9 306.744 1144.62 306.744C1144.34 306.744 1144.1 306.646 1143.9 306.45ZM1148.7 315.25H1147.18V307.585H1148.7V308.558C1149.22 307.781 1149.99 307.393 1151.02 307.393C1151.54 307.393 1152.02 307.515 1152.45 307.762C1152.87 307.997 1153.22 308.326 1153.48 308.749C1153.6 308.562 1153.74 308.376 1153.9 308.189C1154.11 307.983 1154.41 307.801 1154.79 307.644C1155.18 307.477 1155.6 307.393 1156.04 307.393C1156.9 307.393 1157.62 307.663 1158.18 308.204C1158.75 308.754 1159.04 309.432 1159.04 310.238V315.25H1157.52V310.666C1157.52 310.154 1157.35 309.727 1157.01 309.383C1156.67 309.029 1156.25 308.852 1155.74 308.852C1155.21 308.852 1154.76 309.029 1154.4 309.383C1154.05 309.718 1153.88 310.15 1153.88 310.68V315.25H1152.36V310.666C1152.36 310.154 1152.19 309.727 1151.85 309.383C1151.51 309.029 1151.08 308.852 1150.58 308.852C1150.04 308.852 1149.6 309.029 1149.24 309.383C1148.88 309.718 1148.7 310.15 1148.7 310.68V315.25Z" fill="white"/>
<path d="M1177.93 280.193C1178.76 279.883 1179.6 280.608 1179.43 281.48L1177.74 289.909C1177.57 290.758 1176.56 291.109 1175.91 290.548L1169.62 285.122C1168.97 284.56 1169.16 283.499 1169.96 283.197L1177.93 280.193Z" fill="#2D6EFD"/>
<path d="M1031.48 247.01C1032.3 246.699 1033.14 247.425 1032.97 248.296L1031.28 256.726C1031.11 257.573 1030.1 257.925 1029.45 257.364L1023.16 251.937C1022.51 251.376 1022.7 250.315 1023.5 250.013L1031.48 247.01Z" fill="#B98EE5"/>
<path d="M1053.67 139.437C1054.49 139.126 1055.33 139.852 1055.16 140.724L1053.47 149.153C1053.31 150.002 1052.3 150.353 1051.65 149.792L1045.36 144.366C1044.71 143.804 1044.89 142.743 1045.69 142.44L1053.67 139.437Z" fill="#2D6EFD"/>
<g filter="url(#filter6_i_112_326)">
<path d="M1014.28 252.881H909.908C903.71 252.881 898.685 257.958 898.685 264.221V284.633C898.685 290.896 903.71 295.973 909.908 295.973H1014.28C1020.48 295.973 1025.51 290.896 1025.51 284.633V264.221C1025.51 257.958 1020.48 252.881 1014.28 252.881Z" fill="#B98EE5"/>
</g>
<path d="M915.159 267.482L911.838 262.293H913.43L915.838 266.148L918.294 262.293H919.887L916.541 267.42V271.025H915.159V267.482ZM922.625 264.376C923.457 264.376 924.168 264.663 924.761 265.237V264.538H926.045V271.025H924.761V270.326C924.168 270.9 923.457 271.187 922.625 271.187C921.728 271.187 920.975 270.863 920.366 270.214C919.765 269.573 919.465 268.763 919.465 267.782C919.465 266.801 919.765 265.99 920.366 265.349C920.975 264.701 921.728 264.376 922.625 264.376ZM922.761 265.674C922.21 265.674 921.745 265.878 921.366 266.285C920.987 266.676 920.798 267.175 920.798 267.782C920.798 268.38 920.987 268.884 921.366 269.291C921.753 269.69 922.218 269.89 922.761 269.89C923.321 269.89 923.79 269.69 924.168 269.291C924.547 268.884 924.736 268.38 924.736 267.782C924.736 267.175 924.547 266.676 924.168 266.285C923.79 265.878 923.321 265.674 922.761 265.674ZM927.573 271.025V264.538H928.857V265.486C929.326 264.746 930.03 264.376 930.968 264.376C931.709 264.376 932.318 264.618 932.796 265.1C933.281 265.591 933.524 266.197 933.524 266.921V271.025H932.24V267.295C932.24 266.813 932.083 266.414 931.771 266.098C931.458 265.773 931.063 265.611 930.586 265.611C930.092 265.611 929.68 265.773 929.351 266.098C929.022 266.422 928.857 266.826 928.857 267.308V271.025H927.573ZM937.925 264.376C938.755 264.376 939.468 264.663 940.061 265.237V261.669H941.345V271.025H940.061V270.326C939.468 270.9 938.755 271.187 937.925 271.187C937.027 271.187 936.274 270.863 935.666 270.214C935.064 269.573 934.764 268.763 934.764 267.782C934.764 266.801 935.064 265.99 935.666 265.349C936.274 264.701 937.027 264.376 937.925 264.376ZM938.061 265.674C937.508 265.674 937.044 265.878 936.666 266.285C936.286 266.676 936.098 267.175 936.098 267.782C936.098 268.38 936.286 268.884 936.666 269.291C937.052 269.69 937.517 269.89 938.061 269.89C938.62 269.89 939.089 269.69 939.468 269.291C939.846 268.884 940.036 268.38 940.036 267.782C940.036 267.175 939.846 266.676 939.468 266.285C939.089 265.878 938.62 265.674 938.061 265.674ZM949.242 268.256H943.909C944.008 268.763 944.251 269.179 944.637 269.503C945.033 269.819 945.498 269.977 946.033 269.977C946.758 269.977 947.325 269.707 947.736 269.166L948.995 269.553C948.699 270.06 948.288 270.459 947.761 270.75C947.242 271.042 946.667 271.187 946.033 271.187C945.045 271.187 944.227 270.863 943.576 270.214C942.918 269.565 942.588 268.755 942.588 267.782C942.588 266.817 942.906 266.006 943.539 265.349C944.181 264.701 944.98 264.376 945.934 264.376C946.889 264.376 947.679 264.701 948.304 265.349C948.946 265.998 949.267 266.809 949.267 267.782C949.267 267.815 949.259 267.973 949.242 268.256ZM943.921 267.22H947.946C947.832 266.738 947.585 266.347 947.205 266.048C946.827 265.74 946.391 265.586 945.897 265.586C945.428 265.586 945.008 265.74 944.637 266.048C944.276 266.347 944.037 266.738 943.921 267.22ZM954.487 271.025L952.796 268.742L951.092 271.025H949.573L952.03 267.694L949.697 264.538H951.203L952.796 266.659L954.376 264.538H955.894L953.549 267.694L956.005 271.025H954.487ZM963.097 264.376C963.929 264.376 964.641 264.663 965.233 265.237V264.538H966.517V271.025H965.233V270.326C964.641 270.9 963.929 271.187 963.097 271.187C962.201 271.187 961.448 270.863 960.838 270.214C960.238 269.573 959.937 268.763 959.937 267.782C959.937 266.801 960.238 265.99 960.838 265.349C961.448 264.701 962.201 264.376 963.097 264.376ZM963.233 265.674C962.682 265.674 962.218 265.878 961.838 266.285C961.46 266.676 961.27 267.175 961.27 267.782C961.27 268.38 961.46 268.884 961.838 269.291C962.225 269.69 962.69 269.89 963.233 269.89C963.793 269.89 964.262 269.69 964.641 269.291C965.02 268.884 965.209 268.38 965.209 267.782C965.209 267.175 965.02 266.676 964.641 266.285C964.262 265.878 963.793 265.674 963.233 265.674ZM968.046 271.025V264.538H969.33V265.486C969.799 264.746 970.503 264.376 971.441 264.376C972.182 264.376 972.791 264.618 973.268 265.1C973.754 265.591 973.996 266.197 973.996 266.921V271.025H972.712V267.295C972.712 266.813 972.556 266.414 972.243 266.098C971.93 265.773 971.535 265.611 971.058 265.611C970.564 265.611 970.152 265.773 969.824 266.098C969.495 266.422 969.33 266.826 969.33 267.308V271.025H968.046ZM978.397 264.376C979.229 264.376 979.94 264.663 980.533 265.237V264.538H981.817V271.025H980.533V270.326C979.94 270.9 979.229 271.187 978.397 271.187C977.5 271.187 976.747 270.863 976.138 270.214C975.537 269.573 975.237 268.763 975.237 267.782C975.237 266.801 975.537 265.99 976.138 265.349C976.747 264.701 977.5 264.376 978.397 264.376ZM978.533 265.674C977.982 265.674 977.517 265.878 977.138 266.285C976.759 266.676 976.57 267.175 976.57 267.782C976.57 268.38 976.759 268.884 977.138 269.291C977.525 269.69 977.99 269.89 978.533 269.89C979.093 269.89 979.562 269.69 979.94 269.291C980.32 268.884 980.508 268.38 980.508 267.782C980.508 267.175 980.32 266.676 979.94 266.285C979.562 265.878 979.093 265.674 978.533 265.674ZM984.629 271.025H983.345V261.669H984.629V271.025ZM987.759 271.574L988.043 270.863L985.537 264.538H986.858L988.685 269.254L990.574 264.538H991.895L988.871 272.01C988.616 272.642 988.282 273.103 987.871 273.395C987.459 273.686 986.932 273.832 986.29 273.832H986.019V272.584H986.29C986.669 272.584 986.974 272.505 987.204 272.347C987.434 272.189 987.619 271.931 987.759 271.574ZM992.193 265.674V264.538H993.168V263.254H994.452V264.538H996.156V265.674H994.452V268.867C994.452 269.124 994.534 269.341 994.699 269.516C994.863 269.69 995.069 269.777 995.316 269.777H996.156V271.025H995.217C994.64 271.025 994.156 270.838 993.76 270.464C993.365 270.072 993.168 269.598 993.168 269.042V265.674H992.193ZM998.566 271.025H997.282V264.538H998.566V271.025ZM997.319 263.578C997.163 263.411 997.085 263.208 997.085 262.967C997.085 262.725 997.163 262.522 997.319 262.355C997.484 262.189 997.685 262.106 997.924 262.106C998.163 262.106 998.364 262.189 998.529 262.355C998.694 262.522 998.776 262.725 998.776 262.967C998.776 263.208 998.694 263.411 998.529 263.578C998.364 263.745 998.163 263.827 997.924 263.827C997.685 263.827 997.484 263.745 997.319 263.578ZM1006.3 266.422L1005.01 266.809C1004.84 266.459 1004.6 266.185 1004.28 265.985C1003.96 265.778 1003.59 265.674 1003.18 265.674C1002.6 265.674 1002.12 265.878 1001.72 266.285C1001.33 266.692 1001.14 267.191 1001.14 267.782C1001.14 268.372 1001.33 268.875 1001.72 269.291C1002.12 269.69 1002.6 269.89 1003.18 269.89C1003.59 269.89 1003.96 269.79 1004.28 269.59C1004.6 269.383 1004.84 269.104 1005.01 268.755L1006.3 269.141C1006.05 269.765 1005.64 270.264 1005.08 270.638C1004.53 271.004 1003.89 271.187 1003.18 271.187C1002.21 271.187 1001.41 270.863 1000.77 270.214C1000.13 269.565 999.808 268.755 999.808 267.782C999.808 266.809 1000.13 265.998 1000.77 265.349C1001.41 264.701 1002.21 264.376 1003.18 264.376C1003.89 264.376 1004.53 264.563 1005.08 264.938C1005.64 265.304 1006.05 265.798 1006.3 266.422ZM1011.98 266.023L1010.77 266.235C1010.62 265.753 1010.2 265.511 1009.51 265.511C1009.19 265.511 1008.94 265.574 1008.74 265.699C1008.54 265.823 1008.45 265.993 1008.45 266.21C1008.45 266.492 1008.65 266.709 1009.06 266.859L1010.51 267.358C1011.06 267.565 1011.46 267.819 1011.71 268.118C1011.96 268.418 1012.09 268.788 1012.09 269.229C1012.09 269.852 1011.86 270.334 1011.41 270.676C1010.96 271.017 1010.36 271.187 1009.62 271.187C1008.9 271.187 1008.31 271.029 1007.85 270.713C1007.4 270.389 1007.13 269.944 1007.04 269.378L1008.25 269.191C1008.31 269.449 1008.46 269.657 1008.71 269.815C1008.95 269.973 1009.27 270.052 1009.64 270.052C1010 270.052 1010.29 269.982 1010.51 269.84C1010.74 269.698 1010.85 269.508 1010.85 269.266C1010.85 268.959 1010.59 268.709 1010.08 268.518L1008.64 268.031C1008.14 267.857 1007.77 267.632 1007.54 267.358C1007.32 267.083 1007.21 266.734 1007.21 266.31C1007.21 265.686 1007.43 265.207 1007.87 264.875C1008.3 264.543 1008.88 264.376 1009.61 264.376C1010.26 264.376 1010.79 264.526 1011.21 264.825C1011.63 265.117 1011.89 265.516 1011.98 266.023ZM945.366 277.146L945.551 276.922H946.736L946.526 277.184C946.444 277.283 946.296 277.541 946.082 277.957C945.646 278.763 945.309 279.745 945.07 280.901C944.807 282.29 944.802 283.687 945.057 285.092C945.205 285.816 945.362 286.385 945.526 286.801C945.897 287.741 946.239 288.415 946.551 288.822L946.736 289.084H945.551L945.539 289.071C944.881 288.306 944.387 287.27 944.057 285.965C943.819 285.025 943.699 284.036 943.699 282.996C943.699 281.467 943.918 280.152 944.354 279.055C944.716 278.14 945.054 277.503 945.366 277.146ZM953.622 279.953L952.251 280.364C952.177 280.082 951.988 279.845 951.683 279.653C951.379 279.454 951.025 279.354 950.622 279.354C950.177 279.354 949.807 279.462 949.511 279.678C949.214 279.886 949.066 280.152 949.066 280.477C949.017 280.759 949.227 281.043 949.696 281.325C949.778 281.375 949.938 281.442 950.177 281.525C950.481 281.624 950.659 281.682 950.708 281.699L951.362 281.886C952.012 282.061 952.564 282.285 953.017 282.56C953.626 282.934 953.93 283.537 953.93 284.369C953.93 285.175 953.634 285.828 953.041 286.327C952.441 286.818 951.679 287.063 950.758 287.063C949.918 287.063 949.197 286.868 948.597 286.477C948.004 286.078 947.622 285.579 947.449 284.98L948.819 284.543C948.893 284.875 949.108 285.154 949.461 285.379C949.824 285.604 950.256 285.716 950.758 285.716C951.268 285.716 951.691 285.604 952.029 285.379C952.367 285.147 952.535 284.847 952.535 284.481C952.535 284.239 952.441 284.032 952.251 283.857C952.086 283.69 951.918 283.57 951.745 283.495C951.572 283.413 951.313 283.325 950.967 283.233C949.922 282.926 949.231 282.685 948.893 282.51C948.086 282.069 947.683 281.425 947.683 280.577C947.683 279.811 947.955 279.192 948.498 278.718C949.041 278.244 949.741 278.007 950.597 278.007C951.355 278.007 952.009 278.194 952.56 278.568C953.103 278.925 953.457 279.387 953.622 279.953ZM958.245 287.063C957.282 287.063 956.479 286.739 955.837 286.09C955.195 285.441 954.874 284.631 954.874 283.658C954.874 282.685 955.195 281.874 955.837 281.225C956.479 280.577 957.282 280.252 958.245 280.252C959.207 280.252 960.01 280.577 960.652 281.225C961.302 281.874 961.627 282.685 961.627 283.658C961.627 284.631 961.302 285.441 960.652 286.09C960.01 286.739 959.207 287.063 958.245 287.063ZM958.245 285.766C958.837 285.766 959.322 285.566 959.701 285.167C960.096 284.76 960.294 284.256 960.294 283.658C960.294 283.059 960.096 282.56 959.701 282.161C959.322 281.754 958.837 281.549 958.245 281.549C957.668 281.549 957.183 281.754 956.788 282.161C956.401 282.568 956.208 283.067 956.208 283.658C956.208 284.248 956.401 284.751 956.788 285.167C957.183 285.566 957.668 285.766 958.245 285.766ZM965.96 287.063C964.998 287.063 964.195 286.739 963.553 286.09C962.911 285.441 962.59 284.631 962.59 283.658C962.59 282.685 962.911 281.874 963.553 281.225C964.195 280.577 964.998 280.252 965.96 280.252C966.923 280.252 967.726 280.577 968.368 281.225C969.018 281.874 969.343 282.685 969.343 283.658C969.343 284.631 969.018 285.441 968.368 286.09C967.726 286.739 966.923 287.063 965.96 287.063ZM965.96 285.766C966.553 285.766 967.038 285.566 967.417 285.167C967.812 284.76 968.01 284.256 968.01 283.658C968.01 283.059 967.812 282.56 967.417 282.161C967.038 281.754 966.553 281.549 965.96 281.549C965.384 281.549 964.899 281.754 964.504 282.161C964.117 282.568 963.923 283.067 963.923 283.658C963.923 284.248 964.117 284.751 964.504 285.167C964.899 285.566 965.384 285.766 965.96 285.766ZM970.59 286.901V280.414H971.874V281.362C972.343 280.622 973.047 280.252 973.985 280.252C974.726 280.252 975.334 280.494 975.812 280.976C976.297 281.467 976.541 282.073 976.541 282.797V286.901H975.257V283.171C975.257 282.689 975.1 282.29 974.788 281.974C974.474 281.649 974.079 281.487 973.602 281.487C973.109 281.487 972.697 281.649 972.368 281.974C972.038 282.298 971.874 282.702 971.874 283.184V286.901H970.59ZM977.645 277.171L977.46 276.922H978.657L978.855 277.159C978.937 277.258 979.085 277.495 979.299 277.87C979.538 278.294 979.727 278.697 979.867 279.08C980.032 279.512 980.18 280.078 980.312 280.776C980.443 281.467 980.509 282.206 980.509 282.996C980.509 284.418 980.312 285.678 979.917 286.776C979.761 287.217 979.583 287.616 979.386 287.974C979.171 288.356 979.02 288.61 978.929 288.734C978.847 288.876 978.761 288.988 978.67 289.071L978.657 289.084H977.46L977.657 288.809C977.764 288.677 977.917 288.418 978.114 288.036C978.312 287.67 978.497 287.255 978.67 286.789C978.826 286.347 978.974 285.786 979.114 285.105C979.394 283.732 979.398 282.335 979.126 280.913C979.003 280.223 978.85 279.653 978.67 279.204C978.324 278.306 977.983 277.628 977.645 277.171Z" fill="white"/>
<g filter="url(#filter7_i_112_326)">
<path d="M919.987 340.878H845.914C839.715 340.878 834.691 345.955 834.691 352.218V373.764C834.691 380.026 839.715 385.104 845.914 385.104H919.987C926.186 385.104 931.211 380.026 931.211 373.764V352.218C931.211 345.955 926.186 340.878 919.987 340.878Z" fill="#F35888"/>
</g>
<path d="M866.933 375.444C874.157 375.444 880.013 369.527 880.013 362.229C880.013 354.93 874.157 349.013 866.933 349.013C859.709 349.013 853.853 354.93 853.853 362.229C853.853 369.527 859.709 375.444 866.933 375.444Z" fill="#FF1446" stroke="white" stroke-width="2"/>
<path d="M867.964 353.26V370.3" stroke="white" stroke-width="5"/>
<path d="M875.809 362.373H858.944" stroke="white" stroke-width="5"/>
<path d="M889.617 359.838L887.826 360.696L886.883 358.616L890.293 356.981H892.006V368.094H889.617V359.838ZM894.049 364.284V360.791C894.049 359.648 894.457 358.695 895.274 357.933C896.102 357.16 897.128 356.774 898.354 356.774C899.6 356.774 900.627 357.16 901.433 357.933C902.261 358.695 902.675 359.648 902.675 360.791V364.284C902.675 365.427 902.261 366.384 901.433 367.157C900.616 367.919 899.59 368.3 898.354 368.3C897.128 368.3 896.102 367.919 895.274 367.157C894.457 366.384 894.049 365.427 894.049 364.284ZM896.437 360.759V364.315C896.437 364.78 896.62 365.177 896.987 365.506C897.354 365.823 897.809 365.982 898.354 365.982C898.899 365.982 899.354 365.823 899.721 365.506C900.087 365.177 900.271 364.78 900.271 364.315V360.759C900.271 360.283 900.087 359.886 899.721 359.568C899.354 359.251 898.899 359.092 898.354 359.092C897.809 359.092 897.354 359.251 896.987 359.568C896.62 359.886 896.437 360.283 896.437 360.759ZM909.151 360.219C909.151 359.902 908.994 359.636 908.68 359.425C908.365 359.203 907.972 359.092 907.501 359.092C906.642 359.092 906.071 359.382 905.788 359.965L903.636 359.044C903.982 358.356 904.505 357.806 905.207 357.393C905.909 356.981 906.705 356.774 907.595 356.774C908.758 356.774 909.722 357.096 910.486 357.743C911.251 358.388 911.634 359.198 911.634 360.172C911.634 361.049 911.272 361.764 910.549 362.315C911.471 362.918 911.932 363.738 911.932 364.776C911.932 365.77 911.529 366.612 910.722 367.3C909.926 367.967 908.915 368.3 907.69 368.3C906.663 368.3 905.778 368.056 905.034 367.57C904.28 367.072 903.772 366.427 903.51 365.633L905.788 364.839C905.872 365.177 906.082 365.453 906.417 365.665C906.763 365.876 907.171 365.982 907.643 365.982C908.166 365.982 908.596 365.86 908.931 365.617C909.266 365.373 909.434 365.066 909.434 364.696C909.434 364.325 909.266 364.024 908.931 363.791C908.596 363.548 908.177 363.426 907.674 363.426H906.841V361.41H907.391C907.894 361.41 908.313 361.299 908.648 361.077C908.983 360.854 909.151 360.569 909.151 360.219Z" fill="white"/>
<path d="M824.483 332.413C824.24 331.558 825.021 330.765 825.868 331.008L834.056 333.353C834.88 333.589 835.149 334.632 834.545 335.244L828.707 341.164C828.103 341.777 827.07 341.508 826.833 340.677L824.483 332.413Z" fill="#F35888"/>
<path d="M1018.16 22.6591C1018.99 22.3485 1019.83 23.0743 1019.65 23.9462L1017.97 32.3753C1017.8 33.223 1016.79 33.5748 1016.14 33.0134L1009.85 27.5873C1009.2 27.0257 1009.38 25.9642 1010.19 25.6622L1018.16 22.6591Z" fill="#004796"/>
<g filter="url(#filter8_i_112_326)">
<path d="M1041.22 416.176H943.578C937.38 416.176 932.355 421.253 932.355 427.516V445.66C932.355 451.923 937.38 457 943.578 457H1041.22C1047.42 457 1052.44 451.923 1052.44 445.66V427.516C1052.44 421.253 1047.42 416.176 1041.22 416.176Z" fill="#00438D"/>
</g>
<path d="M954.468 439.99H952.746L957.167 429.671H958.495L962.93 439.99H961.209L960.304 437.867H955.373L954.468 439.99ZM959.662 436.334L957.838 432.015L956.014 436.334H959.662ZM964.019 439.99V432.324H965.536V433.445C966.091 432.57 966.922 432.133 968.031 432.133C968.907 432.133 969.627 432.417 970.191 432.988C970.765 433.567 971.051 434.285 971.051 435.14V439.99H969.534V435.582C969.534 435.012 969.35 434.54 968.98 434.167C968.61 433.784 968.143 433.592 967.579 433.592C966.995 433.592 966.509 433.784 966.12 434.167C965.732 434.55 965.536 435.027 965.536 435.597V439.99H964.019ZM976.252 432.133C977.235 432.133 978.076 432.472 978.776 433.15V428.934H980.294V439.99H978.776V439.165C978.076 439.843 977.235 440.182 976.252 440.182C975.193 440.182 974.303 439.798 973.582 439.032C972.873 438.275 972.517 437.317 972.517 436.157C972.517 434.997 972.873 434.039 973.582 433.282C974.303 432.516 975.193 432.133 976.252 432.133ZM976.413 433.666C975.762 433.666 975.212 433.906 974.764 434.388C974.317 434.85 974.093 435.439 974.093 436.157C974.093 436.865 974.317 437.459 974.764 437.941C975.222 438.413 975.771 438.649 976.413 438.649C977.075 438.649 977.629 438.413 978.076 437.941C978.524 437.459 978.747 436.865 978.747 436.157C978.747 435.439 978.524 434.85 978.076 434.388C977.629 433.906 977.075 433.666 976.413 433.666ZM987.493 439.99H985.976V432.324H987.493V433.297C988.019 432.52 988.792 432.133 989.813 432.133C990.339 432.133 990.814 432.255 991.243 432.501C991.671 432.737 992.016 433.066 992.279 433.489C992.396 433.302 992.536 433.116 992.702 432.929C992.906 432.722 993.203 432.541 993.592 432.383C993.98 432.217 994.395 432.133 994.832 432.133C995.698 432.133 996.413 432.403 996.977 432.943C997.551 433.493 997.838 434.172 997.838 434.978V439.99H996.321V435.405C996.321 434.894 996.15 434.466 995.81 434.123C995.469 433.769 995.046 433.592 994.541 433.592C994.005 433.592 993.557 433.769 993.198 434.123C992.848 434.457 992.673 434.889 992.673 435.42V439.99H991.156V435.405C991.156 434.894 990.985 434.466 990.645 434.123C990.304 433.769 989.881 433.592 989.376 433.592C988.84 433.592 988.392 433.769 988.033 434.123C987.673 434.457 987.493 434.889 987.493 435.42V439.99ZM1003.29 440.182C1002.15 440.182 1001.2 439.798 1000.44 439.032C999.684 438.265 999.305 437.307 999.305 436.157C999.305 435.007 999.684 434.049 1000.44 433.282C1001.2 432.516 1002.15 432.133 1003.29 432.133C1004.43 432.133 1005.37 432.516 1006.13 433.282C1006.9 434.049 1007.29 435.007 1007.29 436.157C1007.29 437.307 1006.9 438.265 1006.13 439.032C1005.37 439.798 1004.43 440.182 1003.29 440.182ZM1003.29 438.649C1003.99 438.649 1004.56 438.413 1005.01 437.941C1005.48 437.459 1005.71 436.865 1005.71 436.157C1005.71 435.45 1005.48 434.86 1005.01 434.388C1004.56 433.906 1003.99 433.666 1003.29 433.666C1002.61 433.666 1002.03 433.906 1001.57 434.388C1001.11 434.87 1000.88 435.46 1000.88 436.157C1000.88 436.855 1001.11 437.45 1001.57 437.941C1002.03 438.413 1002.61 438.649 1003.29 438.649ZM1010.28 432.324V433.445C1010.85 432.57 1011.75 432.133 1012.98 432.133V433.843C1012.8 433.764 1012.58 433.725 1012.32 433.725C1011.74 433.725 1011.25 433.916 1010.86 434.3C1010.47 434.664 1010.28 435.135 1010.28 435.715V439.99H1008.76V432.324H1010.28ZM1021.34 436.717H1015.04C1015.16 437.317 1015.45 437.808 1015.9 438.192C1016.37 438.565 1016.92 438.752 1017.55 438.752C1018.41 438.752 1019.08 438.432 1019.56 437.794L1021.05 438.251C1020.7 438.85 1020.22 439.322 1019.59 439.666C1018.98 440.009 1018.3 440.182 1017.55 440.182C1016.38 440.182 1015.42 439.798 1014.65 439.032C1013.87 438.265 1013.48 437.307 1013.48 436.157C1013.48 435.017 1013.86 434.059 1014.6 433.282C1015.36 432.516 1016.31 432.133 1017.43 432.133C1018.56 432.133 1019.5 432.516 1020.24 433.282C1020.99 434.049 1021.37 435.007 1021.37 436.157C1021.37 436.197 1021.37 436.383 1021.34 436.717ZM1015.06 435.494H1019.81C1019.68 434.923 1019.39 434.462 1018.94 434.108C1018.49 433.744 1017.97 433.563 1017.39 433.563C1016.84 433.563 1016.34 433.744 1015.9 434.108C1015.48 434.462 1015.19 434.923 1015.06 435.494ZM1022.37 439.902C1022.18 439.705 1022.09 439.459 1022.09 439.165C1022.09 438.87 1022.18 438.624 1022.37 438.427C1022.56 438.231 1022.8 438.133 1023.09 438.133C1023.39 438.133 1023.63 438.231 1023.82 438.427C1024.02 438.624 1024.12 438.87 1024.12 439.165C1024.12 439.459 1024.02 439.705 1023.82 439.902C1023.63 440.089 1023.39 440.182 1023.09 440.182C1022.8 440.182 1022.56 440.089 1022.37 439.902ZM1025.57 439.902C1025.39 439.705 1025.29 439.459 1025.29 439.165C1025.29 438.87 1025.39 438.624 1025.57 438.427C1025.77 438.231 1026.01 438.133 1026.3 438.133C1026.59 438.133 1026.84 438.231 1027.03 438.427C1027.22 438.624 1027.32 438.87 1027.32 439.165C1027.32 439.459 1027.22 439.705 1027.03 439.902C1026.84 440.089 1026.59 440.182 1026.3 440.182C1026.01 440.182 1025.77 440.089 1025.57 439.902ZM1028.78 439.902C1028.59 439.705 1028.5 439.459 1028.5 439.165C1028.5 438.87 1028.59 438.624 1028.78 438.427C1028.97 438.231 1029.21 438.133 1029.51 438.133C1029.8 438.133 1030.04 438.231 1030.24 438.427C1030.43 438.624 1030.53 438.87 1030.53 439.165C1030.53 439.459 1030.43 439.705 1030.24 439.902C1030.04 440.089 1029.8 440.182 1029.51 440.182C1029.21 440.182 1028.97 440.089 1028.78 439.902Z" fill="white"/>
<g filter="url(#filter9_i_112_326)">
<path fill-rule="evenodd" clip-rule="evenodd" d="M899.706 30.6179C894.184 30.6179 889.706 35.0951 889.706 40.6179V67.1117C889.706 72.6346 894.184 77.1117 899.706 77.1117H1004.28C1009.81 77.1117 1014.28 72.6346 1014.28 67.1117V40.6179C1014.28 35.0951 1009.81 30.6179 1004.28 30.6179H899.706ZM902.251 41.4487C901.37 42.3136 900.93 43.3904 900.93 44.6795C900.93 45.9767 901.362 47.0537 902.226 47.9102C903.107 48.7751 904.177 49.2075 905.436 49.2075C906.736 49.2075 907.81 48.7667 908.658 47.8853C909.514 46.9954 909.942 45.9019 909.942 44.6046C909.942 44.4383 909.93 44.2803 909.905 44.1306H905.214V45.8146H907.683C907.502 46.2636 907.201 46.6254 906.781 46.8998C906.37 47.1742 905.917 47.3115 905.423 47.3115C904.724 47.3115 904.14 47.0578 903.67 46.5505C903.201 46.0349 902.967 45.4112 902.967 44.6795C902.967 43.9393 903.209 43.3156 903.695 42.8084C904.172 42.3011 904.786 42.0475 905.535 42.0475C906.02 42.0475 906.46 42.1639 906.856 42.3967C907.251 42.6295 907.555 42.9539 907.769 43.3697L909.67 42.6587C909.3 41.8853 908.744 41.2741 908.004 40.825C907.263 40.3759 906.44 40.1514 905.535 40.1514C904.226 40.1514 903.131 40.5838 902.251 41.4487ZM910.669 45.8021C910.669 46.7668 910.994 47.5776 911.644 48.2345C912.295 48.8832 913.113 49.2075 914.101 49.2075C915.072 49.2075 915.887 48.8832 916.545 48.2345C917.204 47.5692 917.533 46.7584 917.533 45.8021C917.533 44.8374 917.204 44.0308 916.545 43.3822C915.895 42.7252 915.08 42.3967 914.101 42.3967C913.113 42.3967 912.295 42.7252 911.644 43.3822C910.994 44.0308 910.669 44.8374 910.669 45.8021ZM915.163 46.9123C914.883 47.2117 914.529 47.3614 914.101 47.3614C913.673 47.3614 913.315 47.2117 913.027 46.9123C912.739 46.6046 912.595 46.2345 912.595 45.8021C912.595 45.3697 912.739 44.9996 913.027 44.6919C913.315 44.3926 913.673 44.2429 914.101 44.2429C914.529 44.2429 914.883 44.3968 915.163 44.7044C915.459 45.0038 915.607 45.3697 915.607 45.8021C915.607 46.2345 915.459 46.6046 915.163 46.9123ZM918.168 45.8021C918.168 46.7668 918.493 47.5776 919.143 48.2345C919.793 48.8832 920.612 49.2075 921.6 49.2075C922.571 49.2075 923.386 48.8832 924.044 48.2345C924.703 47.5692 925.032 46.7584 925.032 45.8021C925.032 44.8374 924.703 44.0308 924.044 43.3822C923.394 42.7252 922.58 42.3967 921.6 42.3967C920.612 42.3967 919.793 42.7252 919.143 43.3822C918.493 44.0308 918.168 44.8374 918.168 45.8021ZM922.662 46.9123C922.382 47.2117 922.028 47.3614 921.6 47.3614C921.172 47.3614 920.814 47.2117 920.526 46.9123C920.238 46.6046 920.094 46.2345 920.094 45.8021C920.094 45.3697 920.238 44.9996 920.526 44.6919C920.814 44.3926 921.172 44.2429 921.6 44.2429C922.028 44.2429 922.382 44.3968 922.662 44.7044C922.958 45.0038 923.106 45.3697 923.106 45.8021C923.106 46.2345 922.958 46.6046 922.662 46.9123ZM926.531 43.3697C925.955 44.0101 925.667 44.8209 925.667 45.8021C925.667 46.7668 925.955 47.5776 926.531 48.2345C927.107 48.8832 927.832 49.2075 928.704 49.2075C929.378 49.2075 929.971 49.0037 930.482 48.5963V48.9331C930.482 49.3073 930.341 49.6191 930.062 49.8686C929.782 50.1181 929.44 50.2428 929.037 50.2428C928.749 50.2428 928.486 50.1763 928.247 50.0433C928.008 49.9185 927.84 49.7564 927.741 49.5568L925.914 49.9934C926.103 50.5672 926.494 51.0494 927.087 51.4403C927.671 51.8228 928.334 52.0141 929.074 52.0141C929.996 52.0141 930.766 51.7148 931.383 51.116C932.008 50.5339 932.321 49.798 932.321 48.9081V42.5589H930.482V42.9955C929.955 42.5963 929.363 42.3967 928.704 42.3967C927.832 42.3967 927.107 42.721 926.531 43.3697ZM928 44.6919C928.28 44.3926 928.622 44.2429 929.025 44.2429C929.42 44.2429 929.758 44.3926 930.037 44.6919C930.317 44.9913 930.457 45.3655 930.457 45.8146C930.457 46.2554 930.317 46.6212 930.037 46.9123C929.758 47.2117 929.42 47.3614 929.025 47.3614C928.622 47.3614 928.28 47.2117 928 46.9123C927.729 46.6129 927.593 46.247 927.593 45.8146C927.593 45.3655 927.729 44.9913 928 44.6919ZM933.364 49.0453H935.216V39.6899H933.364V49.0453ZM938.01 46.4757H942.788C942.837 46.2595 942.862 46.0349 942.862 45.8021C942.862 44.8374 942.537 44.0308 941.887 43.3822C941.236 42.7252 940.43 42.3967 939.467 42.3967C938.495 42.3967 937.685 42.7252 937.035 43.3822C936.384 44.0308 936.06 44.8374 936.06 45.8021C936.06 46.7751 936.393 47.5859 937.06 48.2345C937.726 48.8832 938.561 49.2075 939.566 49.2075C940.24 49.2075 940.845 49.0536 941.381 48.746C941.924 48.4299 942.344 47.9975 942.64 47.4487L940.85 47.037C940.529 47.4195 940.104 47.6108 939.578 47.6108C939.199 47.6108 938.87 47.5068 938.59 47.299C938.31 47.0911 938.117 46.8167 938.01 46.4757ZM940.973 45.0911H938.023C938.129 44.7585 938.314 44.4923 938.578 44.2928C938.841 44.0932 939.137 43.9934 939.467 43.9934C939.813 43.9934 940.121 44.0932 940.393 44.2928C940.665 44.4923 940.858 44.7585 940.973 45.0911ZM947.304 43.3697C946.727 44.0101 946.44 44.8209 946.44 45.8021C946.44 46.7668 946.727 47.5776 947.304 48.2345C947.88 48.8832 948.604 49.2075 949.477 49.2075C950.152 49.2075 950.744 49.0037 951.255 48.5963V49.0453H953.094V42.5589H951.255V42.9955C950.727 42.5963 950.135 42.3967 949.477 42.3967C948.604 42.3967 947.88 42.721 947.304 43.3697ZM948.773 44.6919C949.053 44.3926 949.394 44.2429 949.798 44.2429C950.193 44.2429 950.53 44.3926 950.81 44.6919C951.09 44.983 951.23 45.3489 951.23 45.7896C951.23 46.2387 951.09 46.6129 950.81 46.9123C950.53 47.2117 950.193 47.3614 949.798 47.3614C949.394 47.3614 949.053 47.2117 948.773 46.9123C948.502 46.6129 948.366 46.2387 948.366 45.7896C948.366 45.3572 948.502 44.9913 948.773 44.6919ZM955.988 42.5589H954.136V49.0453H955.988V45.378C955.988 45.0204 956.099 44.7252 956.321 44.4923C956.552 44.2511 956.836 44.1306 957.173 44.1306C957.511 44.1306 957.79 44.2511 958.012 44.4923C958.235 44.7252 958.346 45.0204 958.346 45.378V49.0453H960.197V44.879C960.197 44.1722 959.96 43.5817 959.481 43.1077C959.012 42.6337 958.432 42.3967 957.741 42.3967C957 42.3967 956.416 42.6712 955.988 43.22V42.5589ZM961.905 43.3697C961.328 44.0101 961.04 44.8209 961.04 45.8021C961.04 46.7668 961.328 47.5776 961.905 48.2345C962.48 48.8832 963.204 49.2075 964.077 49.2075C964.752 49.2075 965.344 49.0037 965.855 48.5963V49.0453H967.695V42.5589H965.855V42.9955C965.328 42.5963 964.735 42.3967 964.077 42.3967C963.204 42.3967 962.48 42.721 961.905 43.3697ZM963.374 44.6919C963.653 44.3926 963.994 44.2429 964.398 44.2429C964.793 44.2429 965.13 44.3926 965.411 44.6919C965.69 44.983 965.83 45.3489 965.83 45.7896C965.83 46.2387 965.69 46.6129 965.411 46.9123C965.13 47.2117 964.793 47.3614 964.398 47.3614C963.994 47.3614 963.653 47.2117 963.374 46.9123C963.102 46.6129 962.966 46.2387 962.966 45.7896C962.966 45.3572 963.102 44.9913 963.374 44.6919ZM968.736 49.0453H970.588V39.6899H968.736V49.0453ZM971.185 42.5589L973.617 48.9954L973.58 49.0952C973.35 49.7439 972.836 50.0682 972.037 50.0682H971.802V51.852H972.025C972.815 51.852 973.453 51.6815 973.938 51.3405C974.432 51.0079 974.827 50.4674 975.123 49.7189L977.852 42.5589H975.938L974.494 46.563L973.099 42.5589H971.185ZM978.899 42.5589H978.022V44.1805H978.899V46.9747C978.899 47.5651 979.112 48.0599 979.541 48.4591C979.976 48.85 980.512 49.0453 981.146 49.0453H982.207V47.299H981.454C981.248 47.299 981.079 47.2366 980.948 47.1119C980.816 46.9789 980.751 46.8125 980.751 46.6129V44.1805H982.207V42.5589H980.751V41.299H978.899V42.5589ZM982.765 40.9497C982.765 41.2823 982.872 41.5568 983.086 41.773C983.316 41.9893 983.592 42.0974 983.913 42.0974C984.242 42.0974 984.514 41.9893 984.728 41.773C984.95 41.5652 985.061 41.2907 985.061 40.9497C985.061 40.6088 984.95 40.3343 984.728 40.1265C984.514 39.9102 984.242 39.8021 983.913 39.8021C983.592 39.8021 983.316 39.9102 983.086 40.1265C982.872 40.3427 982.765 40.6171 982.765 40.9497ZM990.498 45.1784L992.362 44.6296C992.115 43.9477 991.699 43.4071 991.115 43.0079C990.531 42.6005 989.864 42.3967 989.115 42.3967C988.128 42.3967 987.308 42.721 986.658 43.3697C986.008 44.0183 985.683 44.8291 985.683 45.8021C985.683 46.7668 986.008 47.5776 986.658 48.2345C987.308 48.8832 988.128 49.2075 989.115 49.2075C989.864 49.2075 990.531 49.0079 991.115 48.6088C991.699 48.2013 992.115 47.6565 992.362 46.9747L990.498 46.4258C990.382 46.7085 990.202 46.9372 989.955 47.1119C989.708 47.2782 989.427 47.3614 989.115 47.3614C988.687 47.3614 988.329 47.2117 988.041 46.9123C987.753 46.6129 987.609 46.2387 987.609 45.7896C987.609 45.3489 987.753 44.983 988.041 44.6919C988.329 44.3926 988.687 44.2429 989.115 44.2429C989.427 44.2429 989.708 44.3302 989.955 44.5048C990.202 44.6712 990.382 44.8957 990.498 45.1784ZM982.987 49.0453H984.839V42.5589H982.987V49.0453ZM996.399 44.4425L998.09 44.168C998.009 43.6109 997.745 43.1784 997.3 42.8707C996.856 42.5547 996.263 42.3967 995.523 42.3967C994.708 42.3967 994.07 42.5714 993.609 42.9206C993.148 43.2616 992.918 43.7813 992.918 44.4799C992.918 44.9622 993.049 45.353 993.313 45.6524C993.584 45.9518 994.016 46.1846 994.609 46.351L995.782 46.7002C996.209 46.825 996.424 46.9913 996.424 47.1992C996.424 47.3489 996.345 47.4653 996.189 47.5485C996.041 47.6316 995.839 47.6732 995.584 47.6732C994.975 47.6732 994.609 47.4569 994.486 47.0246L992.782 47.2616C992.873 47.8853 993.152 48.3675 993.621 48.7085C994.098 49.0411 994.74 49.2075 995.547 49.2075C996.362 49.2075 997.004 49.0287 997.473 48.6711C997.95 48.3052 998.189 47.7897 998.189 47.1243C998.189 46.6254 998.046 46.222 997.757 45.9144C997.469 45.5983 997.004 45.3364 996.362 45.1285L995.214 44.7543C994.876 44.6296 994.708 44.4841 994.708 44.3177C994.708 44.035 994.95 43.8936 995.436 43.8936C995.963 43.8936 996.284 44.0765 996.399 44.4425ZM932.955 54.9421L932.77 55.1666C932.458 55.5242 932.12 56.1604 931.758 57.0752C931.322 58.1729 931.103 59.4868 931.103 61.0169C931.103 62.0564 931.224 63.046 931.461 63.9857C931.791 65.2913 932.285 66.3266 932.943 67.0917L932.955 67.1042H934.14L933.955 66.8423C933.643 66.4348 933.301 65.7612 932.931 64.8215C932.767 64.4056 932.61 63.836 932.461 63.1125C932.207 61.7072 932.211 60.3101 932.474 58.9213C932.713 57.7654 933.051 56.7841 933.486 55.9774C933.701 55.5616 933.849 55.3039 933.931 55.2041L934.14 54.9421H932.955ZM939.656 58.3849L941.026 57.9733C940.861 57.4078 940.507 56.9462 939.964 56.5887C939.413 56.2145 938.759 56.0273 938.001 56.0273C937.145 56.0273 936.446 56.2643 935.903 56.7384C935.359 57.2124 935.088 57.8319 935.088 58.597C935.088 59.4452 935.491 60.0896 936.298 60.5304C936.635 60.7051 937.327 60.9463 938.372 61.2539C938.717 61.3454 938.977 61.4328 939.149 61.5159C939.322 61.5907 939.491 61.7113 939.656 61.8776C939.845 62.0523 939.94 62.2601 939.94 62.5013C939.94 62.8673 939.771 63.1666 939.433 63.3994C939.096 63.624 938.672 63.7362 938.162 63.7362C937.66 63.7362 937.228 63.624 936.865 63.3994C936.512 63.1749 936.298 62.8963 936.223 62.5637L934.853 63.0003C935.026 63.599 935.409 64.098 936.001 64.4971C936.602 64.888 937.322 65.0834 938.162 65.0834C939.083 65.0834 939.845 64.8381 940.446 64.3475C941.038 63.8485 941.335 63.1957 941.335 62.389C941.335 61.5575 941.03 60.9545 940.421 60.5803C939.969 60.3059 939.417 60.0814 938.767 59.9067L938.112 59.7196C938.064 59.7032 937.89 59.6463 937.593 59.5488L937.582 59.545C937.342 59.4619 937.182 59.3953 937.1 59.3454C936.631 59.0627 936.421 58.7799 936.47 58.4972C936.47 58.1729 936.619 57.9067 936.915 57.6989C937.211 57.4826 937.582 57.3745 938.026 57.3745C938.429 57.3745 938.784 57.4743 939.088 57.6739C939.392 57.8652 939.581 58.1022 939.656 58.3849ZM943.241 64.1105C943.883 64.7591 944.686 65.0834 945.649 65.0834C946.612 65.0834 947.414 64.7591 948.056 64.1105C948.706 63.4618 949.031 62.651 949.031 61.678C949.031 60.7051 948.706 59.8943 948.056 59.2456C947.414 58.597 946.612 58.2727 945.649 58.2727C944.686 58.2727 943.883 58.597 943.241 59.2456C942.599 59.8943 942.278 60.7051 942.278 61.678C942.278 62.651 942.599 63.4618 943.241 64.1105ZM947.106 63.1874C946.726 63.5866 946.241 63.7861 945.649 63.7861C945.072 63.7861 944.587 63.5866 944.192 63.1874C943.805 62.7715 943.612 62.2685 943.612 61.678C943.612 61.0876 943.805 60.5886 944.192 60.1812C944.587 59.7737 945.072 59.5699 945.649 59.5699C946.241 59.5699 946.726 59.7737 947.106 60.1812C947.501 60.5803 947.698 61.0793 947.698 61.678C947.698 62.2768 947.501 62.7799 947.106 63.1874ZM950.957 64.1105C951.599 64.7591 952.402 65.0834 953.365 65.0834C954.328 65.0834 955.13 64.7591 955.772 64.1105C956.422 63.4618 956.747 62.651 956.747 61.678C956.747 60.7051 956.422 59.8943 955.772 59.2456C955.13 58.597 954.328 58.2727 953.365 58.2727C952.402 58.2727 951.599 58.597 950.957 59.2456C950.315 59.8943 949.994 60.7051 949.994 61.678C949.994 62.651 950.315 63.4618 950.957 64.1105ZM954.822 63.1874C954.442 63.5866 953.957 63.7861 953.365 63.7861C952.788 63.7861 952.303 63.5866 951.908 63.1874C951.521 62.7715 951.328 62.2685 951.328 61.678C951.328 61.0876 951.521 60.5886 951.908 60.1812C952.303 59.7737 952.788 59.5699 953.365 59.5699C953.957 59.5699 954.442 59.7737 954.822 60.1812C955.217 60.5803 955.414 61.0793 955.414 61.678C955.414 62.2768 955.217 62.7799 954.822 63.1874ZM957.994 58.4348V64.9213H959.278V61.204C959.278 60.7217 959.442 60.3184 959.772 59.9941C960.101 59.6697 960.513 59.5076 961.007 59.5076C961.484 59.5076 961.879 59.6697 962.192 59.9941C962.504 60.3101 962.661 60.7093 962.661 61.1916V64.9213H963.945V60.8173C963.945 60.0938 963.701 59.4868 963.217 58.9961C962.738 58.5139 962.13 58.2727 961.389 58.2727C960.451 58.2727 959.747 58.6427 959.278 59.3828V58.4348H957.994ZM964.864 54.9421L965.049 55.1916C965.387 55.6489 965.728 56.3267 966.074 57.2248C966.255 57.6739 966.407 58.2435 966.531 58.9338C966.802 60.3558 966.798 61.7529 966.518 63.125C966.378 63.8069 966.23 64.3682 966.074 64.809C965.901 65.2747 965.716 65.6904 965.518 66.0564C965.321 66.4389 965.168 66.6968 965.062 66.8298L964.864 67.1042H966.062L966.074 67.0917C966.165 67.0086 966.251 66.8963 966.333 66.7549C966.424 66.6302 966.576 66.3765 966.79 65.994C966.988 65.6365 967.165 65.2373 967.321 64.7965C967.716 63.6988 967.913 62.4389 967.913 61.0169C967.913 60.2269 967.847 59.4868 967.716 58.7966C967.585 58.098 967.436 57.5325 967.271 57.1001C967.131 56.7176 966.943 56.3142 966.704 55.8901C966.489 55.5159 966.341 55.2789 966.259 55.1791L966.062 54.9421H964.864Z" fill="#004796"/>
</g>
<defs>
<filter id="filter0_i_112_326" x="877.361" y="0" width="234.566" height="399.764" filterUnits="userSpaceOnUse" color-interpolation-filters="sRGB">
<feFlood flood-opacity="0" result="BackgroundImageFix"/>
<feBlend mode="normal" in="SourceGraphic" in2="BackgroundImageFix" result="shape"/>
<feColorMatrix in="SourceAlpha" type="matrix" values="0 0 0 0 0 0 0 0 0 0 0 0 0 0 0 0 0 0 127 0" result="hardAlpha"/>
<feOffset dy="4"/>
<feGaussianBlur stdDeviation="2"/>
<feComposite in2="hardAlpha" operator="arithmetic" k2="-1" k3="1"/>
<feColorMatrix type="matrix" values="0 0 0 0 0 0 0 0 0 0 0 0 0 0 0 0 0 0 0.25 0"/>
<feBlend mode="normal" in2="shape" result="effect1_innerShadow_112_326"/>
</filter>
<filter id="filter1_i_112_326" x="1053.57" y="77.1118" width="80.8073" height="47.0918" filterUnits="userSpaceOnUse" color-interpolation-filters="sRGB">
<feFlood flood-opacity="0" result="BackgroundImageFix"/>
<feBlend mode="normal" in="SourceGraphic" in2="BackgroundImageFix" result="shape"/>
<feColorMatrix in="SourceAlpha" type="matrix" values="0 0 0 0 0 0 0 0 0 0 0 0 0 0 0 0 0 0 127 0" result="hardAlpha"/>
<feOffset dy="4"/>
<feGaussianBlur stdDeviation="15"/>
<feComposite in2="hardAlpha" operator="arithmetic" k2="-1" k3="1"/>
<feColorMatrix type="matrix" values="0 0 0 0 0 0 0 0 0 0 0 0 0 0 0 0 0 0 0.15 0"/>
<feBlend mode="normal" in2="shape" result="effect1_innerShadow_112_326"/>
</filter>
<filter id="filter2_i_112_326" x="826.856" y="95.2556" width="108.865" height="48.2258" filterUnits="userSpaceOnUse" color-interpolation-filters="sRGB">
<feFlood flood-opacity="0" result="BackgroundImageFix"/>
<feBlend mode="normal" in="SourceGraphic" in2="BackgroundImageFix" result="shape"/>
<feColorMatrix in="SourceAlpha" type="matrix" values="0 0 0 0 0 0 0 0 0 0 0 0 0 0 0 0 0 0 127 0" result="hardAlpha"/>
<feOffset dy="4"/>
<feGaussianBlur stdDeviation="15"/>
<feComposite in2="hardAlpha" operator="arithmetic" k2="-1" k3="1"/>
<feColorMatrix type="matrix" values="0 0 0 0 0 0 0 0 0 0 0 0 0 0 0 0 0 0 0.15 0"/>
<feBlend mode="normal" in2="shape" result="effect1_innerShadow_112_326"/>
</filter>
<filter id="filter3_i_112_326" x="943.578" y="146.285" width="103.254" height="50.4939" filterUnits="userSpaceOnUse" color-interpolation-filters="sRGB">
<feFlood flood-opacity="0" result="BackgroundImageFix"/>
<feBlend mode="normal" in="SourceGraphic" in2="BackgroundImageFix" result="shape"/>
<feColorMatrix in="SourceAlpha" type="matrix" values="0 0 0 0 0 0 0 0 0 0 0 0 0 0 0 0 0 0 127 0" result="hardAlpha"/>
<feOffset dy="4"/>
<feGaussianBlur stdDeviation="15"/>
<feComposite in2="hardAlpha" operator="arithmetic" k2="-1" k3="1"/>
<feColorMatrix type="matrix" values="0 0 0 0 0 0 0 0 0 0 0 0 0 0 0 0 0 0 0.15 0"/>
<feBlend mode="normal" in2="shape" result="effect1_innerShadow_112_326"/>
</filter>
<filter id="filter4_i_112_326" x="1069.99" y="208.125" width="67.3395" height="47.0918" filterUnits="userSpaceOnUse" color-interpolation-filters="sRGB">
<feFlood flood-opacity="0" result="BackgroundImageFix"/>
<feBlend mode="normal" in="SourceGraphic" in2="BackgroundImageFix" result="shape"/>
<feColorMatrix in="SourceAlpha" type="matrix" values="0 0 0 0 0 0 0 0 0 0 0 0 0 0 0 0 0 0 127 0" result="hardAlpha"/>
<feOffset dy="4"/>
<feGaussianBlur stdDeviation="15"/>
<feComposite in2="hardAlpha" operator="arithmetic" k2="-1" k3="1"/>
<feColorMatrix type="matrix" values="0 0 0 0 0 0 0 0 0 0 0 0 0 0 0 0 0 0 0.15 0"/>
<feBlend mode="normal" in2="shape" result="effect1_innerShadow_112_326"/>
</filter>
<filter id="filter5_i_112_326" x="1099.58" y="288.035" width="72.951" height="48.2258" filterUnits="userSpaceOnUse" color-interpolation-filters="sRGB">
<feFlood flood-opacity="0" result="BackgroundImageFix"/>
<feBlend mode="normal" in="SourceGraphic" in2="BackgroundImageFix" result="shape"/>
<feColorMatrix in="SourceAlpha" type="matrix" values="0 0 0 0 0 0 0 0 0 0 0 0 0 0 0 0 0 0 127 0" result="hardAlpha"/>
<feOffset dy="4"/>
<feGaussianBlur stdDeviation="15"/>
<feComposite in2="hardAlpha" operator="arithmetic" k2="-1" k3="1"/>
<feColorMatrix type="matrix" values="0 0 0 0 0 0 0 0 0 0 0 0 0 0 0 0 0 0 0.15 0"/>
<feBlend mode="normal" in2="shape" result="effect1_innerShadow_112_326"/>
</filter>
<filter id="filter6_i_112_326" x="898.685" y="252.881" width="126.823" height="47.0918" filterUnits="userSpaceOnUse" color-interpolation-filters="sRGB">
<feFlood flood-opacity="0" result="BackgroundImageFix"/>
<feBlend mode="normal" in="SourceGraphic" in2="BackgroundImageFix" result="shape"/>
<feColorMatrix in="SourceAlpha" type="matrix" values="0 0 0 0 0 0 0 0 0 0 0 0 0 0 0 0 0 0 127 0" result="hardAlpha"/>
<feOffset dy="4"/>
<feGaussianBlur stdDeviation="15"/>
<feComposite in2="hardAlpha" operator="arithmetic" k2="-1" k3="1"/>
<feColorMatrix type="matrix" values="0 0 0 0 0 0 0 0 0 0 0 0 0 0 0 0 0 0 0.15 0"/>
<feBlend mode="normal" in2="shape" result="effect1_innerShadow_112_326"/>
</filter>
<filter id="filter7_i_112_326" x="834.691" y="340.878" width="96.5199" height="48.2258" filterUnits="userSpaceOnUse" color-interpolation-filters="sRGB">
<feFlood flood-opacity="0" result="BackgroundImageFix"/>
<feBlend mode="normal" in="SourceGraphic" in2="BackgroundImageFix" result="shape"/>
<feColorMatrix in="SourceAlpha" type="matrix" values="0 0 0 0 0 0 0 0 0 0 0 0 0 0 0 0 0 0 127 0" result="hardAlpha"/>
<feOffset dy="4"/>
<feGaussianBlur stdDeviation="15"/>
<feComposite in2="hardAlpha" operator="arithmetic" k2="-1" k3="1"/>
<feColorMatrix type="matrix" values="0 0 0 0 0 0 0 0 0 0 0 0 0 0 0 0 0 0 0.15 0"/>
<feBlend mode="normal" in2="shape" result="effect1_innerShadow_112_326"/>
</filter>
<filter id="filter8_i_112_326" x="932.355" y="416.176" width="120.089" height="44.8237" filterUnits="userSpaceOnUse" color-interpolation-filters="sRGB">
<feFlood flood-opacity="0" result="BackgroundImageFix"/>
<feBlend mode="normal" in="SourceGraphic" in2="BackgroundImageFix" result="shape"/>
<feColorMatrix in="SourceAlpha" type="matrix" values="0 0 0 0 0 0 0 0 0 0 0 0 0 0 0 0 0 0 127 0" result="hardAlpha"/>
<feOffset dy="4"/>
<feGaussianBlur stdDeviation="15"/>
<feComposite in2="hardAlpha" operator="arithmetic" k2="-1" k3="1"/>
<feColorMatrix type="matrix" values="0 0 0 0 0 0 0 0 0 0 0 0 0 0 0 0 0 0 0.15 0"/>
<feBlend mode="normal" in2="shape" result="effect1_innerShadow_112_326"/>
</filter>
<filter id="filter9_i_112_326" x="889.706" y="30.6179" width="124.578" height="50.4939" filterUnits="userSpaceOnUse" color-interpolation-filters="sRGB">
<feFlood flood-opacity="0" result="BackgroundImageFix"/>
<feBlend mode="normal" in="SourceGraphic" in2="BackgroundImageFix" result="shape"/>
<feColorMatrix in="SourceAlpha" type="matrix" values="0 0 0 0 0 0 0 0 0 0 0 0 0 0 0 0 0 0 127 0" result="hardAlpha"/>
<feOffset dy="4"/>
<feGaussianBlur stdDeviation="15"/>
<feComposite in2="hardAlpha" operator="arithmetic" k2="-1" k3="1"/>
<feColorMatrix type="matrix" values="0 0 0 0 0 0 0 0 0 0 0 0 0 0 0 0 0 0 0.15 0"/>
<feBlend mode="normal" in2="shape" result="effect1_innerShadow_112_326"/>
</filter>
<linearGradient id="paint0_linear_112_326" x1="1047.2" y1="-17.5635" x2="906.923" y2="391.099" gradientUnits="userSpaceOnUse">
<stop stop-color="#F5E2D3"/>
<stop offset="1" stop-color="white"/>
</linearGradient>
</defs>
</svg>
