<svg width="1440" height="565" viewBox="0 0 1440 565" fill="none" xmlns="http://www.w3.org/2000/svg">
<path d="M1366.5 1.89896L1368.38 8.76894L1368.48 9.13729H1368.86H1375.14L1369.99 13.5973L1369.75 13.8033L1369.83 14.1071L1371.76 21.1605L1366.83 16.8964L1366.5 16.6135L1366.17 16.8964L1361.24 21.1605L1363.17 14.1071L1363.25 13.8033L1363.01 13.5973L1357.86 9.13729H1364.14H1364.52L1364.62 8.76894L1366.5 1.89896Z" stroke="black"/>
<path d="M0 142L11.7012 153.618C31.5576 173.334 54.5178 189.654 79.6646 201.926V201.926C93.8283 208.838 108.601 214.426 123.794 218.616L130.145 220.367C152.809 226.618 176.083 230.404 199.561 231.657L304.374 237.252L434.461 229.771L524.367 218.8H640.391L829.745 237.252H881.479H946.271H997.871C1027.34 237.252 1056.71 240.508 1085.46 246.96L1086.31 247.151C1105.77 251.517 1124.87 257.331 1143.46 264.546L1170.78 275.153L1244.12 297.595L1332.51 316.545L1440 334" stroke="#DFDFDF" stroke-opacity="0.5"/>
<path d="M0 375.5L95.5332 355.5L177.061 330.5L349.621 296.5L427.514 285.167C446.585 282.393 465.832 281 485.104 281H530.957C552.415 281 573.837 282.727 595.018 286.163L658.729 296.5L673.062 298.906C707.046 304.611 741.625 305.901 775.939 302.744L843.793 296.5L890.991 291.591C917.149 288.87 943.511 288.736 969.695 291.19L997.846 293.828C1016.83 295.607 1035.66 298.741 1054.2 303.206L1109.39 316.5L1194.91 346.5L1267.44 368L1292.9 377.6C1313.9 385.519 1335.53 391.657 1357.57 395.947L1440 412" stroke="#DFDFDF" stroke-opacity="0.5"/>
<path d="M0 410L67.0964 355.593C99.6811 329.171 137.546 310.033 178.145 299.468V299.468C217.346 289.266 258.234 287.281 298.239 293.637L311.45 295.736C362.307 303.817 414.309 300.824 463.903 286.962L466.221 286.314C515.332 272.587 566.755 269.194 617.244 276.349L624.56 277.386C655.568 281.78 686.985 282.518 718.165 279.583L769.517 274.75L867.801 265.5H938.326H1048.86L1174.41 248L1327.96 205L1440 175" stroke="#DFDFDF" stroke-opacity="0.5"/>
<path d="M426.039 107.637L419.469 113.007" stroke="black" stroke-width="2" stroke-linecap="round"/>
<path d="M422.164 104.014L413.918 110.709" stroke="black" stroke-width="2" stroke-linecap="round"/>
<path d="M418.906 100.809L410.001 108.505" stroke="black" stroke-width="2" stroke-linecap="round"/>
<g filter="url(#filter0_d_10_2280)">
<rect x="876" y="42" width="264" height="441" rx="20" fill="url(#paint0_linear_10_2280)"/>
<rect x="878.5" y="44.5" width="259" height="436" rx="17.5" stroke="white" stroke-width="5"/>
</g>
<path d="M1088.77 70.8949C1088.77 71.5972 1088.2 72.1654 1087.5 72.1654C1086.8 72.1654 1086.23 71.5972 1086.23 70.8949C1086.23 70.1924 1086.8 69.6242 1087.5 69.6242C1088.2 69.6242 1088.77 70.1924 1088.77 70.8949ZM1084.58 68.4489L1085.55 69.2657C1086.52 68.1053 1088.48 68.1053 1089.45 69.2667L1090.43 68.4525C1089.7 67.5817 1088.63 67.0827 1087.5 67.0827C1086.37 67.0827 1085.3 67.5804 1084.58 68.4489ZM1082.79 66.6286L1083.73 67.4824C1084.7 66.4201 1086.07 65.8121 1087.5 65.8121C1088.93 65.8121 1090.31 66.4201 1091.27 67.4799L1092.21 66.6261C1091.01 65.3008 1089.29 64.5414 1087.5 64.5414C1085.71 64.5414 1083.99 65.3033 1082.79 66.6286ZM1081 64.8232L1081.93 65.6906C1083.37 64.1529 1085.4 63.2706 1087.5 63.2706C1089.64 63.2706 1091.61 64.1295 1093.07 65.688L1094 64.8193C1092.32 63.0276 1089.96 62 1087.5 62C1085.05 62 1082.68 63.0287 1081 64.8232Z" fill="black" fill-opacity="0.8"/>
<path d="M1104 63.2256V70.7727H1116.26V63.2256H1104ZM1115.53 69.8671H1104.74V64.1312H1115.53V69.8671Z" fill="black" fill-opacity="0.8"/>
<path d="M1106.21 65.0354H1105.47V68.9599H1106.21V65.0354Z" fill="black" fill-opacity="0.8"/>
<path d="M1117 65.0354H1116.26V68.9599H1117V65.0354Z" fill="black" fill-opacity="0.8"/>
<path d="M1008.5 446.5C1010.46 446.5 1012.04 444.914 1012.04 442.958C1012.04 441.002 1010.46 439.417 1008.5 439.417C1006.54 439.417 1004.96 441.002 1004.96 442.958C1004.96 444.914 1006.54 446.5 1008.5 446.5Z" stroke="black" stroke-opacity="0.8" stroke-width="2"/>
<path d="M1012.04 447.917H1012.29C1012.81 447.917 1013.31 448.106 1013.7 448.449C1014.09 448.792 1014.34 449.264 1014.4 449.778L1014.68 451.991C1014.7 452.19 1014.68 452.393 1014.62 452.585C1014.56 452.777 1014.47 452.954 1014.33 453.104C1014.2 453.255 1014.04 453.376 1013.85 453.458C1013.67 453.541 1013.47 453.583 1013.27 453.583H1003.73C1003.53 453.583 1003.33 453.541 1003.15 453.458C1002.96 453.376 1002.8 453.255 1002.67 453.104C1002.54 452.954 1002.44 452.777 1002.38 452.585C1002.32 452.393 1002.3 452.19 1002.32 451.991L1002.6 449.778C1002.66 449.264 1002.91 448.791 1003.3 448.448C1003.69 448.106 1004.19 447.917 1004.71 447.917H1004.96" stroke="black" stroke-opacity="0.8" stroke-width="2" stroke-linecap="round" stroke-linejoin="round"/>
<path d="M903.916 70H902.917V63.3774L900.913 64.1133V63.2109L903.76 62.1421H903.916V70ZM907.283 66.0791L907.681 62.1797H911.688V63.0981H908.524L908.288 65.2305C908.671 65.0049 909.106 64.8921 909.593 64.8921C910.305 64.8921 910.871 65.1284 911.29 65.6011C911.709 66.0701 911.918 66.7057 911.918 67.5078C911.918 68.3135 911.7 68.9491 911.263 69.4146C910.83 69.8765 910.223 70.1074 909.442 70.1074C908.751 70.1074 908.187 69.9159 907.75 69.5327C907.314 69.1496 907.065 68.6196 907.004 67.9429H907.944C908.005 68.3905 908.164 68.7288 908.422 68.958C908.68 69.1836 909.02 69.2964 909.442 69.2964C909.904 69.2964 910.266 69.1388 910.527 68.8237C910.792 68.5086 910.925 68.0736 910.925 67.5186C910.925 66.9958 910.782 66.5768 910.495 66.2617C910.212 65.943 909.834 65.7837 909.362 65.7837C908.929 65.7837 908.588 65.8786 908.341 66.0684L908.078 66.2832L907.283 66.0791ZM913.073 69.479C913.073 69.3071 913.123 69.1639 913.224 69.0493C913.327 68.9347 913.481 68.8774 913.686 68.8774C913.89 68.8774 914.044 68.9347 914.147 69.0493C914.255 69.1639 914.309 69.3071 914.309 69.479C914.309 69.6437 914.255 69.7816 914.147 69.8926C914.044 70.0036 913.89 70.0591 913.686 70.0591C913.481 70.0591 913.327 70.0036 913.224 69.8926C913.123 69.7816 913.073 69.6437 913.073 69.479ZM913.079 64.7363C913.079 64.5645 913.129 64.4212 913.229 64.3066C913.333 64.1921 913.487 64.1348 913.691 64.1348C913.895 64.1348 914.049 64.1921 914.153 64.3066C914.26 64.4212 914.314 64.5645 914.314 64.7363C914.314 64.901 914.26 65.0389 914.153 65.1499C914.049 65.2609 913.895 65.3164 913.691 65.3164C913.487 65.3164 913.333 65.2609 913.229 65.1499C913.129 65.0389 913.079 64.901 913.079 64.7363ZM920.571 66.6646C920.571 67.8283 920.373 68.693 919.975 69.2588C919.578 69.8245 918.956 70.1074 918.111 70.1074C917.277 70.1074 916.659 69.8317 916.258 69.2803C915.857 68.7253 915.65 67.8981 915.635 66.7988V65.4722C915.635 64.3228 915.834 63.4688 916.231 62.9102C916.629 62.3516 917.252 62.0723 918.101 62.0723C918.942 62.0723 919.562 62.3426 919.959 62.8833C920.356 63.4204 920.561 64.2511 920.571 65.3755V66.6646ZM919.578 65.3057C919.578 64.4642 919.459 63.8519 919.223 63.4688C918.987 63.082 918.613 62.8887 918.101 62.8887C917.592 62.8887 917.222 63.0802 916.989 63.4634C916.756 63.8465 916.636 64.4355 916.629 65.2305V66.8203C916.629 67.6654 916.751 68.2902 916.994 68.6948C917.241 69.0959 917.614 69.2964 918.111 69.2964C918.602 69.2964 918.965 69.1066 919.202 68.7271C919.442 68.3475 919.567 67.7495 919.578 66.9331V65.3057ZM926.748 66.6646C926.748 67.8283 926.549 68.693 926.152 69.2588C925.754 69.8245 925.133 70.1074 924.288 70.1074C923.454 70.1074 922.836 69.8317 922.435 69.2803C922.034 68.7253 921.826 67.8981 921.812 66.7988V65.4722C921.812 64.3228 922.011 63.4688 922.408 62.9102C922.806 62.3516 923.429 62.0723 924.277 62.0723C925.119 62.0723 925.738 62.3426 926.136 62.8833C926.533 63.4204 926.737 64.2511 926.748 65.3755V66.6646ZM925.754 65.3057C925.754 64.4642 925.636 63.8519 925.4 63.4688C925.164 63.082 924.789 62.8887 924.277 62.8887C923.769 62.8887 923.398 63.0802 923.166 63.4634C922.933 63.8465 922.813 64.4355 922.806 65.2305V66.8203C922.806 67.6654 922.927 68.2902 923.171 68.6948C923.418 69.0959 923.79 69.2964 924.288 69.2964C924.779 69.2964 925.142 69.1066 925.378 68.7271C925.618 68.3475 925.744 67.7495 925.754 66.9331V65.3057Z" fill="black" fill-opacity="0.8"/>
<g filter="url(#filter1_i_10_2280)">
<rect x="1077" y="150" width="92" height="49" rx="10" fill="#F35888"/>
</g>
<path d="M1099.85 169.4H1105.75C1107.03 169.4 1108.11 169.808 1108.99 170.624C1109.87 171.428 1110.3 172.43 1110.3 173.63C1110.3 174.422 1110.1 175.148 1109.69 175.808C1109.28 176.456 1108.73 176.96 1108.04 177.32L1110.75 182H1107.59L1105.16 177.86H1102.71V182H1099.85V169.4ZM1105.75 172.028H1102.71V175.232H1105.75C1106.21 175.232 1106.58 175.082 1106.88 174.782C1107.18 174.47 1107.33 174.086 1107.33 173.63C1107.33 173.174 1107.18 172.796 1106.88 172.496C1106.58 172.184 1106.21 172.028 1105.75 172.028ZM1120.9 178.292H1113.93C1114.09 178.784 1114.37 179.18 1114.78 179.48C1115.19 179.78 1115.67 179.93 1116.22 179.93C1116.99 179.93 1117.6 179.654 1118.07 179.102L1120.68 179.696C1120.25 180.488 1119.64 181.112 1118.85 181.568C1118.07 182.012 1117.18 182.234 1116.2 182.234C1114.74 182.234 1113.52 181.766 1112.55 180.83C1111.57 179.894 1111.09 178.724 1111.09 177.32C1111.09 175.928 1111.56 174.764 1112.51 173.828C1113.46 172.88 1114.64 172.406 1116.06 172.406C1117.46 172.406 1118.64 172.88 1119.58 173.828C1120.53 174.764 1121.01 175.928 1121.01 177.32C1121.01 177.656 1120.97 177.98 1120.9 178.292ZM1113.95 176.294H1118.25C1118.08 175.814 1117.8 175.43 1117.41 175.142C1117.01 174.854 1116.56 174.71 1116.06 174.71C1115.58 174.71 1115.14 174.854 1114.76 175.142C1114.38 175.43 1114.11 175.814 1113.95 176.294ZM1124.8 182H1122.1V168.5H1124.8V182ZM1126.03 177.32C1126.03 175.904 1126.45 174.734 1127.29 173.81C1128.13 172.874 1129.18 172.406 1130.46 172.406C1131.42 172.406 1132.28 172.694 1133.05 173.27V172.64H1135.73V182H1133.05V181.352C1132.3 181.94 1131.44 182.234 1130.46 182.234C1129.18 182.234 1128.13 181.766 1127.29 180.83C1126.45 179.882 1126.03 178.712 1126.03 177.32ZM1130.92 175.07C1130.34 175.07 1129.84 175.286 1129.43 175.718C1129.03 176.15 1128.84 176.678 1128.84 177.302C1128.84 177.95 1129.03 178.49 1129.43 178.922C1129.84 179.354 1130.34 179.57 1130.92 179.57C1131.5 179.57 1131.99 179.354 1132.4 178.922C1132.81 178.49 1133.01 177.95 1133.01 177.302C1133.01 176.666 1132.81 176.138 1132.4 175.718C1131.99 175.286 1131.5 175.07 1130.92 175.07ZM1143.5 182L1141.62 179.282L1139.77 182H1136.6L1140.02 177.176L1136.8 172.64H1139.95L1141.62 175.07L1143.3 172.64H1146.45L1143.24 177.176L1146.65 182H1143.5Z" fill="white"/>
<path d="M1069.05 143.298C1068.83 142.544 1069.53 141.846 1070.28 142.06L1080.39 144.926C1081.13 145.134 1081.37 146.054 1080.83 146.594L1073.62 153.832C1073.08 154.372 1072.16 154.135 1071.95 153.402L1069.05 143.298Z" fill="#F35888"/>
<g filter="url(#filter2_i_10_2280)">
<rect x="815" y="171" width="123" height="49" rx="10" fill="#F6BD11"/>
</g>
<path d="M827.071 182.2H834.393V184.244H829.297V186.064H833.581V188.108H829.297V192H827.071V182.2ZM834.584 188.36C834.584 187.259 834.91 186.349 835.564 185.63C836.217 184.902 837.038 184.538 838.028 184.538C838.774 184.538 839.446 184.762 840.044 185.21V184.72H842.13V192H840.044V191.496C839.465 191.953 838.793 192.182 838.028 192.182C837.038 192.182 836.217 191.818 835.564 191.09C834.91 190.353 834.584 189.443 834.584 188.36ZM838.392 186.61C837.934 186.61 837.547 186.778 837.23 187.114C836.922 187.45 836.768 187.861 836.768 188.346C836.768 188.85 836.922 189.27 837.23 189.606C837.547 189.942 837.934 190.11 838.392 190.11C838.84 190.11 839.222 189.942 839.54 189.606C839.857 189.27 840.016 188.85 840.016 188.346C840.016 187.851 839.857 187.441 839.54 187.114C839.222 186.778 838.84 186.61 838.392 186.61ZM850.662 187.044L848.548 187.66C848.417 187.343 848.212 187.091 847.932 186.904C847.652 186.708 847.334 186.61 846.98 186.61C846.494 186.61 846.088 186.778 845.762 187.114C845.435 187.441 845.272 187.851 845.272 188.346C845.272 188.85 845.435 189.27 845.762 189.606C846.088 189.942 846.494 190.11 846.98 190.11C847.334 190.11 847.652 190.017 847.932 189.83C848.212 189.634 848.417 189.377 848.548 189.06L850.662 189.676C850.382 190.441 849.91 191.053 849.248 191.51C848.585 191.958 847.829 192.182 846.98 192.182C845.86 192.182 844.931 191.818 844.194 191.09C843.456 190.353 843.088 189.443 843.088 188.36C843.088 187.268 843.456 186.358 844.194 185.63C844.931 184.902 845.86 184.538 846.98 184.538C847.829 184.538 848.585 184.767 849.248 185.224C849.91 185.672 850.382 186.279 850.662 187.044ZM858.866 189.116H853.448C853.569 189.499 853.789 189.807 854.106 190.04C854.423 190.273 854.797 190.39 855.226 190.39C855.823 190.39 856.304 190.175 856.668 189.746L858.698 190.208C858.362 190.824 857.886 191.309 857.27 191.664C856.663 192.009 855.977 192.182 855.212 192.182C854.073 192.182 853.126 191.818 852.37 191.09C851.614 190.362 851.236 189.452 851.236 188.36C851.236 187.277 851.605 186.372 852.342 185.644C853.079 184.907 853.999 184.538 855.1 184.538C856.192 184.538 857.107 184.907 857.844 185.644C858.581 186.372 858.95 187.277 858.95 188.36C858.95 188.621 858.922 188.873 858.866 189.116ZM853.462 187.562H856.808C856.677 187.189 856.458 186.89 856.15 186.666C855.842 186.442 855.492 186.33 855.1 186.33C854.727 186.33 854.391 186.442 854.092 186.666C853.793 186.89 853.583 187.189 853.462 187.562ZM859.8 192V181.5H861.9V185.21C862.479 184.762 863.146 184.538 863.902 184.538C864.882 184.538 865.703 184.902 866.366 185.63C867.029 186.367 867.36 187.277 867.36 188.36C867.36 189.433 867.029 190.343 866.366 191.09C865.703 191.818 864.882 192.182 863.902 192.182C863.165 192.182 862.497 191.958 861.9 191.51V192H859.8ZM863.552 186.61C863.095 186.61 862.707 186.778 862.39 187.114C862.082 187.45 861.928 187.861 861.928 188.346C861.928 188.85 862.082 189.27 862.39 189.606C862.707 189.942 863.095 190.11 863.552 190.11C864 190.11 864.378 189.942 864.686 189.606C865.003 189.27 865.162 188.85 865.162 188.346C865.162 187.851 865.003 187.441 864.686 187.114C864.378 186.778 864 186.61 863.552 186.61ZM869.186 191.09C868.448 190.353 868.08 189.443 868.08 188.36C868.08 187.277 868.448 186.372 869.186 185.644C869.923 184.907 870.852 184.538 871.972 184.538C873.082 184.538 874.006 184.907 874.744 185.644C875.49 186.372 875.864 187.277 875.864 188.36C875.864 189.433 875.49 190.343 874.744 191.09C873.997 191.818 873.073 192.182 871.972 192.182C870.852 192.182 869.923 191.818 869.186 191.09ZM871.972 190.11C872.457 190.11 872.858 189.942 873.176 189.606C873.512 189.261 873.68 188.845 873.68 188.36C873.68 187.875 873.512 187.464 873.176 187.128C872.858 186.783 872.457 186.61 871.972 186.61C871.486 186.61 871.08 186.778 870.754 187.114C870.427 187.459 870.264 187.875 870.264 188.36C870.264 188.845 870.427 189.261 870.754 189.606C871.08 189.942 871.486 190.11 871.972 190.11ZM877.69 191.09C876.952 190.353 876.584 189.443 876.584 188.36C876.584 187.277 876.952 186.372 877.69 185.644C878.427 184.907 879.356 184.538 880.476 184.538C881.586 184.538 882.51 184.907 883.248 185.644C883.994 186.372 884.368 187.277 884.368 188.36C884.368 189.433 883.994 190.343 883.248 191.09C882.501 191.818 881.577 192.182 880.476 192.182C879.356 192.182 878.427 191.818 877.69 191.09ZM880.476 190.11C880.961 190.11 881.362 189.942 881.68 189.606C882.016 189.261 882.184 188.845 882.184 188.36C882.184 187.875 882.016 187.464 881.68 187.128C881.362 186.783 880.961 186.61 880.476 186.61C879.99 186.61 879.584 186.778 879.258 187.114C878.931 187.459 878.768 187.875 878.768 188.36C878.768 188.845 878.931 189.261 879.258 189.606C879.584 189.942 879.99 190.11 880.476 190.11ZM885.312 192V181.5H887.412V187.576L889.47 184.72H891.948L889.428 188.234L892.214 192H889.694L887.412 188.878V192H885.312ZM898.417 195.15H896.317V184.72H898.417V185.21C898.996 184.762 899.663 184.538 900.419 184.538C901.399 184.538 902.221 184.902 902.883 185.63C903.546 186.367 903.877 187.277 903.877 188.36C903.877 189.433 903.546 190.343 902.883 191.09C902.221 191.818 901.399 192.182 900.419 192.182C899.682 192.182 899.015 191.958 898.417 191.51V195.15ZM900.069 186.61C899.612 186.61 899.225 186.778 898.907 187.114C898.599 187.45 898.445 187.87 898.445 188.374C898.445 188.859 898.599 189.27 898.907 189.606C899.225 189.942 899.612 190.11 900.069 190.11C900.517 190.11 900.895 189.942 901.203 189.606C901.521 189.279 901.679 188.869 901.679 188.374C901.679 187.87 901.521 187.45 901.203 187.114C900.895 186.778 900.517 186.61 900.069 186.61ZM906.921 192H904.821V184.72H906.921V192ZM904.933 183.838C904.691 183.595 904.569 183.287 904.569 182.914C904.569 182.541 904.691 182.233 904.933 181.99C905.195 181.747 905.507 181.626 905.871 181.626C906.245 181.626 906.553 181.747 906.795 181.99C907.047 182.223 907.173 182.531 907.173 182.914C907.173 183.297 907.047 183.605 906.795 183.838C906.553 184.081 906.245 184.202 905.871 184.202C905.507 184.202 905.195 184.081 904.933 183.838ZM912.961 192L911.505 189.886L910.063 192H907.599L910.259 188.248L907.753 184.72H910.203L911.505 186.61L912.807 184.72H915.257L912.765 188.248L915.411 192H912.961ZM922.96 189.116H917.542C917.663 189.499 917.882 189.807 918.2 190.04C918.517 190.273 918.89 190.39 919.32 190.39C919.917 190.39 920.398 190.175 920.762 189.746L922.792 190.208C922.456 190.824 921.98 191.309 921.364 191.664C920.757 192.009 920.071 192.182 919.306 192.182C918.167 192.182 917.22 191.818 916.464 191.09C915.708 190.362 915.33 189.452 915.33 188.36C915.33 187.277 915.698 186.372 916.436 185.644C917.173 184.907 918.092 184.538 919.194 184.538C920.286 184.538 921.2 184.907 921.938 185.644C922.675 186.372 923.044 187.277 923.044 188.36C923.044 188.621 923.016 188.873 922.96 189.116ZM917.556 187.562H920.902C920.771 187.189 920.552 186.89 920.244 186.666C919.936 186.442 919.586 186.33 919.194 186.33C918.82 186.33 918.484 186.442 918.186 186.666C917.887 186.89 917.677 187.189 917.556 187.562ZM925.994 192H923.894V181.5H925.994V192ZM853.877 199.052L854.087 198.8H855.431L855.193 199.094C855.1 199.206 854.932 199.495 854.689 199.962C854.195 200.867 853.812 201.969 853.541 203.266C853.243 204.825 853.238 206.393 853.527 207.97C853.695 208.782 853.873 209.421 854.059 209.888C854.479 210.943 854.867 211.699 855.221 212.156L855.431 212.45H854.087L854.073 212.436C853.327 211.577 852.767 210.415 852.393 208.95C852.123 207.895 851.987 206.785 851.987 205.618C851.987 203.901 852.235 202.426 852.729 201.194C853.14 200.167 853.523 199.453 853.877 199.052ZM863.519 204.834L862.049 205.268C861.863 204.876 861.587 204.568 861.223 204.344C860.859 204.111 860.444 203.994 859.977 203.994C859.324 203.994 858.773 204.223 858.325 204.68C857.887 205.137 857.667 205.697 857.667 206.36C857.667 207.023 857.887 207.587 858.325 208.054C858.773 208.502 859.324 208.726 859.977 208.726C860.444 208.726 860.859 208.614 861.223 208.39C861.587 208.157 861.863 207.844 862.049 207.452L863.519 207.886C863.23 208.586 862.768 209.146 862.133 209.566C861.508 209.977 860.789 210.182 859.977 210.182C858.885 210.182 857.975 209.818 857.247 209.09C856.519 208.362 856.155 207.452 856.155 206.36C856.155 205.268 856.519 204.358 857.247 203.63C857.975 202.902 858.885 202.538 859.977 202.538C860.789 202.538 861.508 202.748 862.133 203.168C862.768 203.579 863.23 204.134 863.519 204.834ZM871.216 210H869.424L866.26 206.234L869.13 202.72H870.908L868.052 206.234L871.216 210ZM866.246 202.72V210H864.79V202.72H866.246ZM875.386 210.182C874.294 210.182 873.384 209.818 872.656 209.09C871.928 208.362 871.564 207.452 871.564 206.36C871.564 205.268 871.928 204.358 872.656 203.63C873.384 202.902 874.294 202.538 875.386 202.538C876.478 202.538 877.388 202.902 878.116 203.63C878.853 204.358 879.222 205.268 879.222 206.36C879.222 207.452 878.853 208.362 878.116 209.09C877.388 209.818 876.478 210.182 875.386 210.182ZM875.386 208.726C876.058 208.726 876.608 208.502 877.038 208.054C877.486 207.597 877.71 207.032 877.71 206.36C877.71 205.688 877.486 205.128 877.038 204.68C876.608 204.223 876.058 203.994 875.386 203.994C874.732 203.994 874.182 204.223 873.734 204.68C873.295 205.137 873.076 205.697 873.076 206.36C873.076 207.023 873.295 207.587 873.734 208.054C874.182 208.502 874.732 208.726 875.386 208.726ZM882.092 213.15H880.636V202.72H882.092V203.504C882.764 202.86 883.571 202.538 884.514 202.538C885.531 202.538 886.385 202.902 887.076 203.63C887.757 204.349 888.098 205.259 888.098 206.36C888.098 207.461 887.757 208.371 887.076 209.09C886.385 209.818 885.531 210.182 884.514 210.182C883.571 210.182 882.764 209.86 882.092 209.216V213.15ZM884.346 203.994C883.72 203.994 883.193 204.223 882.764 204.68C882.334 205.119 882.12 205.679 882.12 206.36C882.12 207.032 882.334 207.597 882.764 208.054C883.193 208.502 883.72 208.726 884.346 208.726C884.971 208.726 885.503 208.502 885.942 208.054C886.371 207.597 886.586 207.032 886.586 206.36C886.586 205.679 886.371 205.119 885.942 204.68C885.512 204.223 884.98 203.994 884.346 203.994ZM893.009 210.182C891.917 210.182 891.007 209.818 890.279 209.09C889.551 208.362 889.187 207.452 889.187 206.36C889.187 205.268 889.551 204.358 890.279 203.63C891.007 202.902 891.917 202.538 893.009 202.538C894.101 202.538 895.011 202.902 895.739 203.63C896.476 204.358 896.845 205.268 896.845 206.36C896.845 207.452 896.476 208.362 895.739 209.09C895.011 209.818 894.101 210.182 893.009 210.182ZM893.009 208.726C893.681 208.726 894.231 208.502 894.661 208.054C895.109 207.597 895.333 207.032 895.333 206.36C895.333 205.688 895.109 205.128 894.661 204.68C894.231 204.223 893.681 203.994 893.009 203.994C892.355 203.994 891.805 204.223 891.357 204.68C890.918 205.137 890.699 205.697 890.699 206.36C890.699 207.023 890.918 207.587 891.357 208.054C891.805 208.502 892.355 208.726 893.009 208.726ZM897.783 199.08L897.573 198.8H898.931L899.155 199.066C899.248 199.178 899.416 199.444 899.659 199.864C899.929 200.34 900.144 200.793 900.303 201.222C900.489 201.707 900.657 202.342 900.807 203.126C900.956 203.901 901.031 204.731 901.031 205.618C901.031 207.214 900.807 208.628 900.359 209.86C900.181 210.355 899.981 210.803 899.757 211.204C899.514 211.633 899.341 211.918 899.239 212.058C899.145 212.217 899.047 212.343 898.945 212.436L898.931 212.45H897.573L897.797 212.142C897.918 211.993 898.091 211.703 898.315 211.274C898.539 210.863 898.749 210.397 898.945 209.874C899.122 209.379 899.29 208.749 899.449 207.984C899.766 206.444 899.771 204.876 899.463 203.28C899.323 202.505 899.15 201.866 898.945 201.362C898.553 200.354 898.165 199.593 897.783 199.08Z" fill="white"/>
<path d="M946.721 165.304C947.488 165.141 948.135 165.885 947.868 166.623L944.289 176.508C944.03 177.225 943.095 177.399 942.595 176.824L935.888 169.116C935.388 168.54 935.69 167.639 936.436 167.481L946.721 165.304Z" fill="#F6BD11"/>
<g filter="url(#filter3_i_10_2280)">
<rect x="954" y="223" width="116" height="51" rx="10" fill="#2D6EFD"/>
</g>
<path d="M968.021 253H963.051V243.2H967.741C968.571 243.2 969.267 243.452 969.827 243.956C970.387 244.441 970.667 245.062 970.667 245.818C970.667 246.639 970.321 247.311 969.631 247.834C970.088 248.077 970.447 248.413 970.709 248.842C970.97 249.262 971.101 249.724 971.101 250.228C971.101 251.021 970.807 251.684 970.219 252.216C969.621 252.739 968.889 253 968.021 253ZM968.021 248.66H964.619V251.544H968.021C968.431 251.544 968.777 251.409 969.057 251.138C969.337 250.858 969.477 250.513 969.477 250.102C969.477 249.691 969.337 249.351 969.057 249.08C968.777 248.8 968.431 248.66 968.021 248.66ZM967.741 244.656H964.619V247.204H967.741C968.114 247.204 968.422 247.083 968.665 246.84C968.907 246.597 969.029 246.294 969.029 245.93C969.029 245.566 968.907 245.263 968.665 245.02C968.422 244.777 968.114 244.656 967.741 244.656ZM974.034 253H972.578V245.72H974.034V253ZM972.62 244.642C972.443 244.455 972.354 244.227 972.354 243.956C972.354 243.685 972.443 243.457 972.62 243.27C972.807 243.083 973.035 242.99 973.306 242.99C973.577 242.99 973.805 243.083 973.992 243.27C974.179 243.457 974.272 243.685 974.272 243.956C974.272 244.227 974.179 244.455 973.992 244.642C973.805 244.829 973.577 244.922 973.306 244.922C973.035 244.922 972.807 244.829 972.62 244.642ZM975.764 253V245.72H977.22V246.784C977.752 245.953 978.55 245.538 979.614 245.538C980.454 245.538 981.144 245.809 981.686 246.35C982.236 246.901 982.512 247.582 982.512 248.394V253H981.056V248.814C981.056 248.273 980.878 247.825 980.524 247.47C980.169 247.106 979.721 246.924 979.18 246.924C978.62 246.924 978.153 247.106 977.78 247.47C977.406 247.834 977.22 248.287 977.22 248.828V253H975.764ZM987.74 253.182C986.648 253.182 985.738 252.818 985.01 252.09C984.282 251.362 983.918 250.452 983.918 249.36C983.918 248.268 984.282 247.358 985.01 246.63C985.738 245.902 986.648 245.538 987.74 245.538C988.832 245.538 989.742 245.902 990.47 246.63C991.207 247.358 991.576 248.268 991.576 249.36C991.576 250.452 991.207 251.362 990.47 252.09C989.742 252.818 988.832 253.182 987.74 253.182ZM987.74 251.726C988.412 251.726 988.963 251.502 989.392 251.054C989.84 250.597 990.064 250.032 990.064 249.36C990.064 248.688 989.84 248.128 989.392 247.68C988.963 247.223 988.412 246.994 987.74 246.994C987.087 246.994 986.536 247.223 986.088 247.68C985.649 248.137 985.43 248.697 985.43 249.36C985.43 250.023 985.649 250.587 986.088 251.054C986.536 251.502 987.087 251.726 987.74 251.726ZM992.234 247.54V245.72H993.228V244.306H995.328V245.72H996.98V247.54H995.328V250.27C995.328 250.494 995.403 250.681 995.552 250.83C995.701 250.97 995.893 251.04 996.126 251.04H996.98V253H995.776C995.057 253 994.451 252.781 993.956 252.342C993.471 251.894 993.228 251.339 993.228 250.676V247.54H992.234ZM1005.27 250.116H999.852C999.974 250.499 1000.19 250.807 1000.51 251.04C1000.83 251.273 1001.2 251.39 1001.63 251.39C1002.23 251.39 1002.71 251.175 1003.07 250.746L1005.1 251.208C1004.77 251.824 1004.29 252.309 1003.67 252.664C1003.07 253.009 1002.38 253.182 1001.62 253.182C1000.48 253.182 999.53 252.818 998.774 252.09C998.018 251.362 997.64 250.452 997.64 249.36C997.64 248.277 998.009 247.372 998.746 246.644C999.484 245.907 1000.4 245.538 1001.5 245.538C1002.6 245.538 1003.51 245.907 1004.25 246.644C1004.99 247.372 1005.35 248.277 1005.35 249.36C1005.35 249.621 1005.33 249.873 1005.27 250.116ZM999.866 248.562H1003.21C1003.08 248.189 1002.86 247.89 1002.55 247.666C1002.25 247.442 1001.9 247.33 1001.5 247.33C1001.13 247.33 1000.8 247.442 1000.5 247.666C1000.2 247.89 999.988 248.189 999.866 248.562ZM1008.3 253H1006.2V242.5H1008.3V253ZM1015.14 242.052L1015.35 241.8H1016.69L1016.45 242.094C1016.36 242.206 1016.19 242.495 1015.95 242.962C1015.45 243.867 1015.07 244.969 1014.8 246.266C1014.5 247.825 1014.5 249.393 1014.79 250.97C1014.95 251.782 1015.13 252.421 1015.32 252.888C1015.74 253.943 1016.13 254.699 1016.48 255.156L1016.69 255.45H1015.35L1015.33 255.436C1014.59 254.577 1014.03 253.415 1013.65 251.95C1013.38 250.895 1013.25 249.785 1013.25 248.618C1013.25 246.901 1013.49 245.426 1013.99 244.194C1014.4 243.167 1014.78 242.453 1015.14 242.052ZM1024.78 247.834L1023.31 248.268C1023.12 247.876 1022.85 247.568 1022.48 247.344C1022.12 247.111 1021.7 246.994 1021.24 246.994C1020.58 246.994 1020.03 247.223 1019.58 247.68C1019.15 248.137 1018.93 248.697 1018.93 249.36C1018.93 250.023 1019.15 250.587 1019.58 251.054C1020.03 251.502 1020.58 251.726 1021.24 251.726C1021.7 251.726 1022.12 251.614 1022.48 251.39C1022.85 251.157 1023.12 250.844 1023.31 250.452L1024.78 250.886C1024.49 251.586 1024.03 252.146 1023.39 252.566C1022.77 252.977 1022.05 253.182 1021.24 253.182C1020.14 253.182 1019.23 252.818 1018.51 252.09C1017.78 251.362 1017.41 250.452 1017.41 249.36C1017.41 248.268 1017.78 247.358 1018.51 246.63C1019.23 245.902 1020.14 245.538 1021.24 245.538C1022.05 245.538 1022.77 245.748 1023.39 246.168C1024.03 246.579 1024.49 247.134 1024.78 247.834ZM1032.47 253H1030.68L1027.52 249.234L1030.39 245.72H1032.17L1029.31 249.234L1032.47 253ZM1027.5 245.72V253H1026.05V245.72H1027.5ZM1036.64 253.182C1035.55 253.182 1034.64 252.818 1033.91 252.09C1033.19 251.362 1032.82 250.452 1032.82 249.36C1032.82 248.268 1033.19 247.358 1033.91 246.63C1034.64 245.902 1035.55 245.538 1036.64 245.538C1037.74 245.538 1038.65 245.902 1039.37 246.63C1040.11 247.358 1040.48 248.268 1040.48 249.36C1040.48 250.452 1040.11 251.362 1039.37 252.09C1038.65 252.818 1037.74 253.182 1036.64 253.182ZM1036.64 251.726C1037.32 251.726 1037.87 251.502 1038.3 251.054C1038.74 250.597 1038.97 250.032 1038.97 249.36C1038.97 248.688 1038.74 248.128 1038.3 247.68C1037.87 247.223 1037.32 246.994 1036.64 246.994C1035.99 246.994 1035.44 247.223 1034.99 247.68C1034.55 248.137 1034.33 248.697 1034.33 249.36C1034.33 250.023 1034.55 250.587 1034.99 251.054C1035.44 251.502 1035.99 251.726 1036.64 251.726ZM1043.35 256.15H1041.89V245.72H1043.35V246.504C1044.02 245.86 1044.83 245.538 1045.77 245.538C1046.79 245.538 1047.64 245.902 1048.33 246.63C1049.02 247.349 1049.36 248.259 1049.36 249.36C1049.36 250.461 1049.02 251.371 1048.33 252.09C1047.64 252.818 1046.79 253.182 1045.77 253.182C1044.83 253.182 1044.02 252.86 1043.35 252.216V256.15ZM1045.6 246.994C1044.98 246.994 1044.45 247.223 1044.02 247.68C1043.59 248.119 1043.38 248.679 1043.38 249.36C1043.38 250.032 1043.59 250.597 1044.02 251.054C1044.45 251.502 1044.98 251.726 1045.6 251.726C1046.23 251.726 1046.76 251.502 1047.2 251.054C1047.63 250.597 1047.84 250.032 1047.84 249.36C1047.84 248.679 1047.63 248.119 1047.2 247.68C1046.77 247.223 1046.24 246.994 1045.6 246.994ZM1054.27 253.182C1053.18 253.182 1052.27 252.818 1051.54 252.09C1050.81 251.362 1050.45 250.452 1050.45 249.36C1050.45 248.268 1050.81 247.358 1051.54 246.63C1052.27 245.902 1053.18 245.538 1054.27 245.538C1055.36 245.538 1056.27 245.902 1057 246.63C1057.73 247.358 1058.1 248.268 1058.1 249.36C1058.1 250.452 1057.73 251.362 1057 252.09C1056.27 252.818 1055.36 253.182 1054.27 253.182ZM1054.27 251.726C1054.94 251.726 1055.49 251.502 1055.92 251.054C1056.37 250.597 1056.59 250.032 1056.59 249.36C1056.59 248.688 1056.37 248.128 1055.92 247.68C1055.49 247.223 1054.94 246.994 1054.27 246.994C1053.61 246.994 1053.06 247.223 1052.62 247.68C1052.18 248.137 1051.96 248.697 1051.96 249.36C1051.96 250.023 1052.18 250.587 1052.62 251.054C1053.06 251.502 1053.61 251.726 1054.27 251.726ZM1059.04 242.08L1058.83 241.8H1060.19L1060.41 242.066C1060.51 242.178 1060.67 242.444 1060.92 242.864C1061.19 243.34 1061.4 243.793 1061.56 244.222C1061.75 244.707 1061.92 245.342 1062.07 246.126C1062.21 246.901 1062.29 247.731 1062.29 248.618C1062.29 250.214 1062.07 251.628 1061.62 252.86C1061.44 253.355 1061.24 253.803 1061.02 254.204C1060.77 254.633 1060.6 254.918 1060.5 255.058C1060.4 255.217 1060.31 255.343 1060.2 255.436L1060.19 255.45H1058.83L1059.06 255.142C1059.18 254.993 1059.35 254.703 1059.57 254.274C1059.8 253.863 1060.01 253.397 1060.2 252.874C1060.38 252.379 1060.55 251.749 1060.71 250.984C1061.02 249.444 1061.03 247.876 1060.72 246.28C1060.58 245.505 1060.41 244.866 1060.2 244.362C1059.81 243.354 1059.42 242.593 1059.04 242.08Z" fill="white"/>
<g filter="url(#filter4_i_10_2280)">
<rect x="1218" y="270" width="75" height="49" rx="10" fill="#41D3ED"/>
</g>
<path d="M1239.8 293.162C1239.8 292.778 1239.64 292.454 1239.3 292.19C1238.98 291.926 1238.58 291.794 1238.11 291.794C1237.64 291.794 1237.22 291.944 1236.83 292.244C1236.45 292.544 1236.15 292.952 1235.93 293.468L1233.4 292.262C1233.83 291.29 1234.46 290.534 1235.29 289.994C1236.13 289.442 1237.07 289.166 1238.11 289.166C1239.38 289.166 1240.46 289.55 1241.33 290.318C1242.21 291.074 1242.65 291.992 1242.65 293.072C1242.65 294.368 1241.74 295.856 1239.91 297.536L1237.93 299.372H1242.74V302H1233.72V299.948L1238.24 295.7C1239.28 294.716 1239.8 293.87 1239.8 293.162ZM1248.32 297.32C1248.32 295.904 1248.74 294.734 1249.58 293.81C1250.42 292.874 1251.48 292.406 1252.75 292.406C1253.71 292.406 1254.57 292.694 1255.34 293.27V288.5H1258.02V302H1255.34V301.352C1254.6 301.94 1253.73 302.234 1252.75 302.234C1251.48 302.234 1250.42 301.766 1249.58 300.83C1248.74 299.882 1248.32 298.712 1248.32 297.32ZM1253.22 295.07C1252.63 295.07 1252.13 295.286 1251.72 295.718C1251.33 296.15 1251.13 296.678 1251.13 297.302C1251.13 297.95 1251.33 298.49 1251.72 298.922C1252.13 299.354 1252.63 299.57 1253.22 299.57C1253.79 299.57 1254.29 299.354 1254.69 298.922C1255.1 298.49 1255.31 297.95 1255.31 297.302C1255.31 296.666 1255.1 296.138 1254.69 295.718C1254.29 295.286 1253.79 295.07 1253.22 295.07ZM1260.68 300.83C1259.73 299.882 1259.26 298.712 1259.26 297.32C1259.26 295.928 1259.73 294.764 1260.68 293.828C1261.63 292.88 1262.82 292.406 1264.26 292.406C1265.69 292.406 1266.88 292.88 1267.82 293.828C1268.78 294.764 1269.26 295.928 1269.26 297.32C1269.26 298.7 1268.78 299.87 1267.82 300.83C1266.86 301.766 1265.68 302.234 1264.26 302.234C1262.82 302.234 1261.63 301.766 1260.68 300.83ZM1264.26 299.57C1264.88 299.57 1265.4 299.354 1265.81 298.922C1266.24 298.478 1266.46 297.944 1266.46 297.32C1266.46 296.696 1266.24 296.168 1265.81 295.736C1265.4 295.292 1264.88 295.07 1264.26 295.07C1263.64 295.07 1263.11 295.286 1262.69 295.718C1262.27 296.162 1262.06 296.696 1262.06 297.32C1262.06 297.944 1262.27 298.478 1262.69 298.922C1263.11 299.354 1263.64 299.57 1264.26 299.57Z" fill="white"/>
<path d="M1277.21 295.628L1274.49 296.42C1274.32 296.012 1274.06 295.688 1273.7 295.448C1273.34 295.196 1272.93 295.07 1272.47 295.07C1271.85 295.07 1271.33 295.286 1270.91 295.718C1270.49 296.138 1270.28 296.666 1270.28 297.302C1270.28 297.95 1270.49 298.49 1270.91 298.922C1271.33 299.354 1271.85 299.57 1272.47 299.57C1272.93 299.57 1273.34 299.45 1273.7 299.21C1274.06 298.958 1274.32 298.628 1274.49 298.22L1277.21 299.012C1276.85 299.996 1276.24 300.782 1275.39 301.37C1274.54 301.946 1273.56 302.234 1272.47 302.234C1271.03 302.234 1269.84 301.766 1268.89 300.83C1267.94 299.882 1267.47 298.712 1267.47 297.32C1267.47 295.916 1267.94 294.746 1268.89 293.81C1269.84 292.874 1271.03 292.406 1272.47 292.406C1273.56 292.406 1274.54 292.7 1275.39 293.288C1276.24 293.864 1276.85 294.644 1277.21 295.628Z" fill="#036D78"/>
<path d="M1209.05 263.298C1208.83 262.544 1209.53 261.846 1210.28 262.06L1220.39 264.926C1221.13 265.134 1221.37 266.054 1220.83 266.594L1213.62 273.832C1213.08 274.372 1212.16 274.135 1211.95 273.402L1209.05 263.298Z" fill="#41D3ED"/>
<g filter="url(#filter5_i_10_2280)">
<rect x="1129" y="386" width="82" height="49" rx="10" fill="#2D6EFD"/>
</g>
<path d="M1148.81 407.974L1146.81 408.568C1146.7 408.16 1146.43 407.818 1145.98 407.542C1145.54 407.254 1145.02 407.11 1144.44 407.11C1143.79 407.11 1143.25 407.266 1142.82 407.578C1142.38 407.878 1142.17 408.262 1142.17 408.73C1142.1 409.138 1142.4 409.546 1143.09 409.954C1143.21 410.026 1143.44 410.122 1143.79 410.242C1144.23 410.386 1144.49 410.47 1144.56 410.494L1145.52 410.764C1146.46 411.016 1147.27 411.34 1147.93 411.736C1148.82 412.276 1149.26 413.146 1149.26 414.346C1149.26 415.51 1148.83 416.452 1147.96 417.172C1147.09 417.88 1145.98 418.234 1144.63 418.234C1143.41 418.234 1142.36 417.952 1141.48 417.388C1140.62 416.812 1140.06 416.092 1139.81 415.228L1141.81 414.598C1141.92 415.078 1142.23 415.48 1142.74 415.804C1143.27 416.128 1143.9 416.29 1144.63 416.29C1145.38 416.29 1146 416.128 1146.49 415.804C1146.98 415.468 1147.23 415.036 1147.23 414.508C1147.23 414.16 1147.09 413.86 1146.81 413.608C1146.57 413.368 1146.33 413.194 1146.07 413.086C1145.82 412.966 1145.44 412.84 1144.94 412.708C1143.42 412.264 1142.41 411.916 1141.92 411.664C1140.74 411.028 1140.15 410.098 1140.15 408.874C1140.15 407.77 1140.55 406.876 1141.34 406.192C1142.13 405.508 1143.15 405.166 1144.4 405.166C1145.5 405.166 1146.46 405.436 1147.26 405.976C1148.05 406.492 1148.57 407.158 1148.81 407.974ZM1153.06 418H1151.19V408.64H1153.06V418ZM1151.24 407.254C1151.02 407.014 1150.9 406.72 1150.9 406.372C1150.9 406.024 1151.02 405.73 1151.24 405.49C1151.48 405.25 1151.78 405.13 1152.13 405.13C1152.47 405.13 1152.77 405.25 1153.01 405.49C1153.25 405.73 1153.37 406.024 1153.37 406.372C1153.37 406.72 1153.25 407.014 1153.01 407.254C1152.77 407.494 1152.47 407.614 1152.13 407.614C1151.78 407.614 1151.48 407.494 1151.24 407.254ZM1157.16 422.05H1155.29V408.64H1157.16V409.648C1158.02 408.82 1159.06 408.406 1160.27 408.406C1161.58 408.406 1162.68 408.874 1163.57 409.81C1164.44 410.734 1164.88 411.904 1164.88 413.32C1164.88 414.736 1164.44 415.906 1163.57 416.83C1162.68 417.766 1161.58 418.234 1160.27 418.234C1159.06 418.234 1158.02 417.82 1157.16 416.992V422.05ZM1160.06 410.278C1159.25 410.278 1158.57 410.572 1158.02 411.16C1157.47 411.724 1157.19 412.444 1157.19 413.32C1157.19 414.184 1157.47 414.91 1158.02 415.498C1158.57 416.074 1159.25 416.362 1160.06 416.362C1160.86 416.362 1161.54 416.074 1162.11 415.498C1162.66 414.91 1162.94 414.184 1162.94 413.32C1162.94 412.444 1162.66 411.724 1162.11 411.16C1161.56 410.572 1160.87 410.278 1160.06 410.278ZM1180.17 407.974L1178.17 408.568C1178.06 408.16 1177.79 407.818 1177.34 407.542C1176.9 407.254 1176.38 407.11 1175.8 407.11C1175.15 407.11 1174.61 407.266 1174.18 407.578C1173.74 407.878 1173.53 408.262 1173.53 408.73C1173.46 409.138 1173.76 409.546 1174.45 409.954C1174.57 410.026 1174.8 410.122 1175.15 410.242C1175.59 410.386 1175.85 410.47 1175.92 410.494L1176.88 410.764C1177.82 411.016 1178.63 411.34 1179.29 411.736C1180.18 412.276 1180.62 413.146 1180.62 414.346C1180.62 415.51 1180.19 416.452 1179.32 417.172C1178.45 417.88 1177.34 418.234 1175.99 418.234C1174.77 418.234 1173.72 417.952 1172.84 417.388C1171.98 416.812 1171.42 416.092 1171.17 415.228L1173.17 414.598C1173.28 415.078 1173.59 415.48 1174.1 415.804C1174.63 416.128 1175.26 416.29 1175.99 416.29C1176.74 416.29 1177.36 416.128 1177.85 415.804C1178.34 415.468 1178.59 415.036 1178.59 414.508C1178.59 414.16 1178.45 413.86 1178.17 413.608C1177.93 413.368 1177.69 413.194 1177.43 413.086C1177.18 412.966 1176.8 412.84 1176.3 412.708C1174.78 412.264 1173.77 411.916 1173.28 411.664C1172.1 411.028 1171.51 410.098 1171.51 408.874C1171.51 407.77 1171.91 406.876 1172.7 406.192C1173.49 405.508 1174.51 405.166 1175.76 405.166C1176.86 405.166 1177.82 405.436 1178.62 405.976C1179.41 406.492 1179.93 407.158 1180.17 407.974ZM1184.42 418H1182.55V408.64H1184.42V418ZM1182.6 407.254C1182.38 407.014 1182.26 406.72 1182.26 406.372C1182.26 406.024 1182.38 405.73 1182.6 405.49C1182.84 405.25 1183.14 405.13 1183.49 405.13C1183.83 405.13 1184.13 405.25 1184.37 405.49C1184.61 405.73 1184.73 406.024 1184.73 406.372C1184.73 406.72 1184.61 407.014 1184.37 407.254C1184.13 407.494 1183.83 407.614 1183.49 407.614C1183.14 407.614 1182.84 407.494 1182.6 407.254ZM1188.52 418H1186.65V408.64H1188.52V409.828C1189.17 408.88 1190.12 408.406 1191.38 408.406C1192.03 408.406 1192.62 408.556 1193.14 408.856C1193.67 409.144 1194.1 409.546 1194.42 410.062C1194.57 409.834 1194.74 409.606 1194.94 409.378C1195.2 409.126 1195.56 408.904 1196.04 408.712C1196.52 408.508 1197.03 408.406 1197.57 408.406C1198.64 408.406 1199.52 408.736 1200.22 409.396C1200.93 410.068 1201.28 410.896 1201.28 411.88V418H1199.41V412.402C1199.41 411.778 1199.2 411.256 1198.78 410.836C1198.36 410.404 1197.84 410.188 1197.21 410.188C1196.55 410.188 1196 410.404 1195.56 410.836C1195.12 411.244 1194.91 411.772 1194.91 412.42V418H1193.04V412.402C1193.04 411.778 1192.83 411.256 1192.41 410.836C1191.99 410.404 1191.46 410.188 1190.84 410.188C1190.18 410.188 1189.63 410.404 1189.18 410.836C1188.74 411.244 1188.52 411.772 1188.52 412.42V418Z" fill="white"/>
<path d="M1217.9 376.733C1218.63 376.459 1219.38 377.099 1219.23 377.868L1217.14 388.173C1216.99 388.92 1216.09 389.231 1215.51 388.736L1207.74 382.102C1207.16 381.607 1207.33 380.671 1208.04 380.404L1217.9 376.733Z" fill="#2D6EFD"/>
<path d="M1052.9 339.733C1053.63 339.459 1054.38 340.099 1054.23 340.868L1052.14 351.173C1051.99 351.92 1051.09 352.231 1050.51 351.736L1042.74 345.102C1042.16 344.607 1042.33 343.671 1043.04 343.404L1052.9 339.733Z" fill="#B98EE5"/>
<path d="M1077.9 214.733C1078.63 214.459 1079.38 215.099 1079.23 215.868L1077.14 226.173C1076.99 226.92 1076.09 227.231 1075.51 226.736L1067.74 220.102C1067.16 219.607 1067.33 218.671 1068.04 218.404L1077.9 214.733Z" fill="#2D6EFD"/>
<g filter="url(#filter6_i_10_2280)">
<rect x="903" y="347" width="143" height="48" rx="10" fill="#B98EE5"/>
</g>
<path d="M920.772 363.024L917.006 357.2H918.812L921.542 361.526L924.328 357.2H926.134L922.34 362.954V367H920.772V363.024ZM929.239 359.538C930.182 359.538 930.989 359.86 931.661 360.504V359.72H933.117V367H931.661V366.216C930.989 366.86 930.182 367.182 929.239 367.182C928.222 367.182 927.368 366.818 926.677 366.09C925.996 365.371 925.655 364.461 925.655 363.36C925.655 362.259 925.996 361.349 926.677 360.63C927.368 359.902 928.222 359.538 929.239 359.538ZM929.393 360.994C928.768 360.994 928.241 361.223 927.811 361.68C927.382 362.119 927.167 362.679 927.167 363.36C927.167 364.032 927.382 364.597 927.811 365.054C928.25 365.502 928.777 365.726 929.393 365.726C930.028 365.726 930.56 365.502 930.989 365.054C931.419 364.597 931.633 364.032 931.633 363.36C931.633 362.679 931.419 362.119 930.989 361.68C930.56 361.223 930.028 360.994 929.393 360.994ZM934.85 367V359.72H936.306V360.784C936.838 359.953 937.636 359.538 938.7 359.538C939.54 359.538 940.231 359.809 940.772 360.35C941.323 360.901 941.598 361.582 941.598 362.394V367H940.142V362.814C940.142 362.273 939.965 361.825 939.61 361.47C939.256 361.106 938.808 360.924 938.266 360.924C937.706 360.924 937.24 361.106 936.866 361.47C936.493 361.834 936.306 362.287 936.306 362.828V367H934.85ZM946.589 359.538C947.532 359.538 948.339 359.86 949.011 360.504V356.5H950.467V367H949.011V366.216C948.339 366.86 947.532 367.182 946.589 367.182C945.572 367.182 944.718 366.818 944.027 366.09C943.346 365.371 943.005 364.461 943.005 363.36C943.005 362.259 943.346 361.349 944.027 360.63C944.718 359.902 945.572 359.538 946.589 359.538ZM946.743 360.994C946.118 360.994 945.59 361.223 945.161 361.68C944.732 362.119 944.517 362.679 944.517 363.36C944.517 364.032 944.732 364.597 945.161 365.054C945.6 365.502 946.127 365.726 946.743 365.726C947.378 365.726 947.91 365.502 948.339 365.054C948.768 364.597 948.983 364.032 948.983 363.36C948.983 362.679 948.768 362.119 948.339 361.68C947.91 361.223 947.378 360.994 946.743 360.994ZM959.424 363.892H953.376C953.488 364.461 953.763 364.928 954.202 365.292C954.65 365.647 955.177 365.824 955.784 365.824C956.605 365.824 957.249 365.521 957.716 364.914L959.144 365.348C958.808 365.917 958.341 366.365 957.744 366.692C957.156 367.019 956.503 367.182 955.784 367.182C954.664 367.182 953.735 366.818 952.998 366.09C952.251 365.362 951.878 364.452 951.878 363.36C951.878 362.277 952.237 361.367 952.956 360.63C953.684 359.902 954.589 359.538 955.672 359.538C956.755 359.538 957.651 359.902 958.36 360.63C959.088 361.358 959.452 362.268 959.452 363.36C959.452 363.397 959.443 363.575 959.424 363.892ZM953.39 362.73H957.954C957.823 362.189 957.543 361.75 957.114 361.414C956.685 361.069 956.19 360.896 955.63 360.896C955.098 360.896 954.622 361.069 954.202 361.414C953.791 361.75 953.521 362.189 953.39 362.73ZM965.372 367L963.454 364.438L961.522 367H959.8L962.586 363.262L959.94 359.72H961.648L963.454 362.1L965.246 359.72H966.968L964.308 363.262L967.094 367H965.372ZM975.136 359.538C976.079 359.538 976.886 359.86 977.558 360.504V359.72H979.014V367H977.558V366.216C976.886 366.86 976.079 367.182 975.136 367.182C974.119 367.182 973.265 366.818 972.574 366.09C971.893 365.371 971.552 364.461 971.552 363.36C971.552 362.259 971.893 361.349 972.574 360.63C973.265 359.902 974.119 359.538 975.136 359.538ZM975.29 360.994C974.665 360.994 974.137 361.223 973.708 361.68C973.279 362.119 973.064 362.679 973.064 363.36C973.064 364.032 973.279 364.597 973.708 365.054C974.147 365.502 974.674 365.726 975.29 365.726C975.925 365.726 976.457 365.502 976.886 365.054C977.315 364.597 977.53 364.032 977.53 363.36C977.53 362.679 977.315 362.119 976.886 361.68C976.457 361.223 975.925 360.994 975.29 360.994ZM980.747 367V359.72H982.203V360.784C982.735 359.953 983.533 359.538 984.597 359.538C985.437 359.538 986.128 359.809 986.669 360.35C987.22 360.901 987.495 361.582 987.495 362.394V367H986.039V362.814C986.039 362.273 985.862 361.825 985.507 361.47C985.152 361.106 984.704 360.924 984.163 360.924C983.603 360.924 983.136 361.106 982.763 361.47C982.39 361.834 982.203 362.287 982.203 362.828V367H980.747ZM992.485 359.538C993.428 359.538 994.235 359.86 994.907 360.504V359.72H996.363V367H994.907V366.216C994.235 366.86 993.428 367.182 992.485 367.182C991.468 367.182 990.614 366.818 989.923 366.09C989.242 365.371 988.901 364.461 988.901 363.36C988.901 362.259 989.242 361.349 989.923 360.63C990.614 359.902 991.468 359.538 992.485 359.538ZM992.639 360.994C992.014 360.994 991.487 361.223 991.057 361.68C990.628 362.119 990.413 362.679 990.413 363.36C990.413 364.032 990.628 364.597 991.057 365.054C991.496 365.502 992.023 365.726 992.639 365.726C993.274 365.726 993.806 365.502 994.235 365.054C994.665 364.597 994.879 364.032 994.879 363.36C994.879 362.679 994.665 362.119 994.235 361.68C993.806 361.223 993.274 360.994 992.639 360.994ZM999.553 367H998.097V356.5H999.553V367ZM1003.1 367.616L1003.42 366.818L1000.58 359.72H1002.08L1004.15 365.012L1006.29 359.72H1007.79L1004.36 368.106C1004.07 368.815 1003.69 369.333 1003.23 369.66C1002.76 369.987 1002.16 370.15 1001.44 370.15H1001.13V368.75H1001.44C1001.87 368.75 1002.21 368.661 1002.47 368.484C1002.73 368.307 1002.94 368.017 1003.1 367.616ZM1008.13 360.994V359.72H1009.23V358.278H1010.69V359.72H1012.62V360.994H1010.69V364.578C1010.69 364.867 1010.78 365.11 1010.97 365.306C1011.16 365.502 1011.39 365.6 1011.67 365.6H1012.62V367H1011.56C1010.91 367 1010.35 366.79 1009.91 366.37C1009.46 365.931 1009.23 365.399 1009.23 364.774V360.994H1008.13ZM1015.36 367H1013.9V359.72H1015.36V367ZM1013.94 358.642C1013.77 358.455 1013.68 358.227 1013.68 357.956C1013.68 357.685 1013.77 357.457 1013.94 357.27C1014.13 357.083 1014.36 356.99 1014.63 356.99C1014.9 356.99 1015.13 357.083 1015.32 357.27C1015.5 357.457 1015.6 357.685 1015.6 357.956C1015.6 358.227 1015.5 358.455 1015.32 358.642C1015.13 358.829 1014.9 358.922 1014.63 358.922C1014.36 358.922 1014.13 358.829 1013.94 358.642ZM1024.13 361.834L1022.66 362.268C1022.47 361.876 1022.2 361.568 1021.83 361.344C1021.47 361.111 1021.05 360.994 1020.59 360.994C1019.93 360.994 1019.38 361.223 1018.93 361.68C1018.5 362.137 1018.28 362.697 1018.28 363.36C1018.28 364.023 1018.5 364.587 1018.93 365.054C1019.38 365.502 1019.93 365.726 1020.59 365.726C1021.05 365.726 1021.47 365.614 1021.83 365.39C1022.2 365.157 1022.47 364.844 1022.66 364.452L1024.13 364.886C1023.84 365.586 1023.38 366.146 1022.74 366.566C1022.12 366.977 1021.4 367.182 1020.59 367.182C1019.49 367.182 1018.58 366.818 1017.86 366.09C1017.13 365.362 1016.76 364.452 1016.76 363.36C1016.76 362.268 1017.13 361.358 1017.86 360.63C1018.58 359.902 1019.49 359.538 1020.59 359.538C1021.4 359.538 1022.12 359.748 1022.74 360.168C1023.38 360.579 1023.84 361.134 1024.13 361.834ZM1030.57 361.386L1029.19 361.624C1029.03 361.083 1028.55 360.812 1027.77 360.812C1027.41 360.812 1027.12 360.882 1026.9 361.022C1026.67 361.162 1026.56 361.353 1026.56 361.596C1026.56 361.913 1026.79 362.156 1027.26 362.324L1028.9 362.884C1029.52 363.117 1029.98 363.402 1030.26 363.738C1030.55 364.074 1030.69 364.489 1030.69 364.984C1030.69 365.684 1030.43 366.225 1029.92 366.608C1029.41 366.991 1028.73 367.182 1027.89 367.182C1027.07 367.182 1026.4 367.005 1025.89 366.65C1025.38 366.286 1025.07 365.787 1024.97 365.152L1026.34 364.942C1026.4 365.231 1026.58 365.465 1026.86 365.642C1027.14 365.819 1027.49 365.908 1027.92 365.908C1028.32 365.908 1028.65 365.829 1028.9 365.67C1029.16 365.511 1029.29 365.297 1029.29 365.026C1029.29 364.681 1029 364.401 1028.41 364.186L1026.79 363.64C1026.22 363.444 1025.8 363.192 1025.54 362.884C1025.29 362.576 1025.16 362.184 1025.16 361.708C1025.16 361.008 1025.41 360.471 1025.9 360.098C1026.4 359.725 1027.06 359.538 1027.88 359.538C1028.61 359.538 1029.22 359.706 1029.7 360.042C1030.17 360.369 1030.46 360.817 1030.57 361.386ZM951.377 374.052L951.587 373.8H952.931L952.693 374.094C952.6 374.206 952.432 374.495 952.189 374.962C951.695 375.867 951.312 376.969 951.041 378.266C950.743 379.825 950.738 381.393 951.027 382.97C951.195 383.782 951.373 384.421 951.559 384.888C951.979 385.943 952.367 386.699 952.721 387.156L952.931 387.45H951.587L951.573 387.436C950.827 386.577 950.267 385.415 949.893 383.95C949.623 382.895 949.487 381.785 949.487 380.618C949.487 378.901 949.735 377.426 950.229 376.194C950.64 375.167 951.023 374.453 951.377 374.052ZM961.019 379.834L959.549 380.268C959.363 379.876 959.087 379.568 958.723 379.344C958.359 379.111 957.944 378.994 957.477 378.994C956.824 378.994 956.273 379.223 955.825 379.68C955.387 380.137 955.167 380.697 955.167 381.36C955.167 382.023 955.387 382.587 955.825 383.054C956.273 383.502 956.824 383.726 957.477 383.726C957.944 383.726 958.359 383.614 958.723 383.39C959.087 383.157 959.363 382.844 959.549 382.452L961.019 382.886C960.73 383.586 960.268 384.146 959.633 384.566C959.008 384.977 958.289 385.182 957.477 385.182C956.385 385.182 955.475 384.818 954.747 384.09C954.019 383.362 953.655 382.452 953.655 381.36C953.655 380.268 954.019 379.358 954.747 378.63C955.475 377.902 956.385 377.538 957.477 377.538C958.289 377.538 959.008 377.748 959.633 378.168C960.268 378.579 960.73 379.134 961.019 379.834ZM968.716 385H966.924L963.76 381.234L966.63 377.72H968.408L965.552 381.234L968.716 385ZM963.746 377.72V385H962.29V377.72H963.746ZM972.886 385.182C971.794 385.182 970.884 384.818 970.156 384.09C969.428 383.362 969.064 382.452 969.064 381.36C969.064 380.268 969.428 379.358 970.156 378.63C970.884 377.902 971.794 377.538 972.886 377.538C973.978 377.538 974.888 377.902 975.616 378.63C976.353 379.358 976.722 380.268 976.722 381.36C976.722 382.452 976.353 383.362 975.616 384.09C974.888 384.818 973.978 385.182 972.886 385.182ZM972.886 383.726C973.558 383.726 974.108 383.502 974.538 383.054C974.986 382.597 975.21 382.032 975.21 381.36C975.21 380.688 974.986 380.128 974.538 379.68C974.108 379.223 973.558 378.994 972.886 378.994C972.232 378.994 971.682 379.223 971.234 379.68C970.795 380.137 970.576 380.697 970.576 381.36C970.576 382.023 970.795 382.587 971.234 383.054C971.682 383.502 972.232 383.726 972.886 383.726ZM979.592 388.15H978.136V377.72H979.592V378.504C980.264 377.86 981.071 377.538 982.014 377.538C983.031 377.538 983.885 377.902 984.576 378.63C985.257 379.349 985.598 380.259 985.598 381.36C985.598 382.461 985.257 383.371 984.576 384.09C983.885 384.818 983.031 385.182 982.014 385.182C981.071 385.182 980.264 384.86 979.592 384.216V388.15ZM981.846 378.994C981.22 378.994 980.693 379.223 980.264 379.68C979.834 380.119 979.62 380.679 979.62 381.36C979.62 382.032 979.834 382.597 980.264 383.054C980.693 383.502 981.22 383.726 981.846 383.726C982.471 383.726 983.003 383.502 983.442 383.054C983.871 382.597 984.086 382.032 984.086 381.36C984.086 380.679 983.871 380.119 983.442 379.68C983.012 379.223 982.48 378.994 981.846 378.994ZM990.509 385.182C989.417 385.182 988.507 384.818 987.779 384.09C987.051 383.362 986.687 382.452 986.687 381.36C986.687 380.268 987.051 379.358 987.779 378.63C988.507 377.902 989.417 377.538 990.509 377.538C991.601 377.538 992.511 377.902 993.239 378.63C993.976 379.358 994.345 380.268 994.345 381.36C994.345 382.452 993.976 383.362 993.239 384.09C992.511 384.818 991.601 385.182 990.509 385.182ZM990.509 383.726C991.181 383.726 991.731 383.502 992.161 383.054C992.609 382.597 992.833 382.032 992.833 381.36C992.833 380.688 992.609 380.128 992.161 379.68C991.731 379.223 991.181 378.994 990.509 378.994C989.855 378.994 989.305 379.223 988.857 379.68C988.418 380.137 988.199 380.697 988.199 381.36C988.199 382.023 988.418 382.587 988.857 383.054C989.305 383.502 989.855 383.726 990.509 383.726ZM995.283 374.08L995.073 373.8H996.431L996.655 374.066C996.748 374.178 996.916 374.444 997.159 374.864C997.429 375.34 997.644 375.793 997.803 376.222C997.989 376.707 998.157 377.342 998.307 378.126C998.456 378.901 998.531 379.731 998.531 380.618C998.531 382.214 998.307 383.628 997.859 384.86C997.681 385.355 997.481 385.803 997.257 386.204C997.014 386.633 996.841 386.918 996.739 387.058C996.645 387.217 996.547 387.343 996.445 387.436L996.431 387.45H995.073L995.297 387.142C995.418 386.993 995.591 386.703 995.815 386.274C996.039 385.863 996.249 385.397 996.445 384.874C996.622 384.379 996.79 383.749 996.949 382.984C997.266 381.444 997.271 379.876 996.963 378.28C996.823 377.505 996.65 376.866 996.445 376.362C996.053 375.354 995.665 374.593 995.283 374.08Z" fill="white"/>
<g filter="url(#filter7_i_10_2280)">
<rect x="778" y="412" width="108" height="49" rx="10" fill="#F35888"/>
</g>
<circle cx="814" cy="436" r="15" fill="#FF1446" stroke="white" stroke-width="2"/>
<line x1="814.5" y1="426" x2="814.5" y2="445" stroke="white" stroke-width="5"/>
<line x1="824" y1="435.5" x2="805" y2="435.5" stroke="white" stroke-width="5"/>
<path d="M839.78 433.64L837.728 434.612L836.648 432.254L840.554 430.4H842.516V443H839.78V433.64ZM844.857 438.68V434.72C844.857 433.424 845.325 432.344 846.261 431.48C847.209 430.604 848.385 430.166 849.789 430.166C851.217 430.166 852.393 430.604 853.317 431.48C854.265 432.344 854.739 433.424 854.739 434.72V438.68C854.739 439.976 854.265 441.062 853.317 441.938C852.381 442.802 851.205 443.234 849.789 443.234C848.385 443.234 847.209 442.802 846.261 441.938C845.325 441.062 844.857 439.976 844.857 438.68ZM847.593 434.684V438.716C847.593 439.244 847.803 439.694 848.223 440.066C848.643 440.426 849.165 440.606 849.789 440.606C850.413 440.606 850.935 440.426 851.355 440.066C851.775 439.694 851.985 439.244 851.985 438.716V434.684C851.985 434.144 851.775 433.694 851.355 433.334C850.935 432.974 850.413 432.794 849.789 432.794C849.165 432.794 848.643 432.974 848.223 433.334C847.803 433.694 847.593 434.144 847.593 434.684ZM862.158 434.072C862.158 433.712 861.978 433.412 861.618 433.172C861.258 432.92 860.808 432.794 860.268 432.794C859.284 432.794 858.63 433.124 858.306 433.784L855.84 432.74C856.236 431.96 856.836 431.336 857.64 430.868C858.444 430.4 859.356 430.166 860.376 430.166C861.708 430.166 862.812 430.532 863.688 431.264C864.564 431.996 865.002 432.914 865.002 434.018C865.002 435.014 864.588 435.824 863.76 436.448C864.816 437.132 865.344 438.062 865.344 439.238C865.344 440.366 864.882 441.32 863.958 442.1C863.046 442.856 861.888 443.234 860.484 443.234C859.308 443.234 858.294 442.958 857.442 442.406C856.578 441.842 855.996 441.11 855.696 440.21L858.306 439.31C858.402 439.694 858.642 440.006 859.026 440.246C859.422 440.486 859.89 440.606 860.43 440.606C861.03 440.606 861.522 440.468 861.906 440.192C862.29 439.916 862.482 439.568 862.482 439.148C862.482 438.728 862.29 438.386 861.906 438.122C861.522 437.846 861.042 437.708 860.466 437.708H859.512V435.422H860.142C860.718 435.422 861.198 435.296 861.582 435.044C861.966 434.792 862.158 434.468 862.158 434.072Z" fill="white"/>
<path d="M769.046 405.298C768.829 404.544 769.525 403.846 770.28 404.06L780.394 406.926C781.128 407.134 781.368 408.054 780.83 408.594L773.619 415.832C773.08 416.372 772.16 416.135 771.949 415.402L769.046 405.298Z" fill="#F35888"/>
<g filter="url(#filter8_i_10_2280)">
<rect x="939" y="516" width="137" height="49" rx="10" fill="#00438D"/>
</g>
<g filter="url(#filter9_i_10_2280)">
<rect x="900" y="89" width="131" height="49" rx="10" fill="#004796"/>
</g>
<path d="M909.92 106.1C909.92 104.653 910.419 103.445 911.418 102.474C912.417 101.503 913.658 101.018 915.142 101.018C916.169 101.018 917.102 101.27 917.942 101.774C918.782 102.278 919.412 102.964 919.832 103.832L917.676 104.63C917.433 104.163 917.088 103.799 916.64 103.538C916.192 103.277 915.693 103.146 915.142 103.146C914.293 103.146 913.597 103.431 913.056 104C912.505 104.569 912.23 105.269 912.23 106.1C912.23 106.921 912.496 107.621 913.028 108.2C913.56 108.769 914.223 109.054 915.016 109.054C915.576 109.054 916.089 108.9 916.556 108.592C917.032 108.284 917.373 107.878 917.578 107.374H914.778V105.484H920.098C920.126 105.652 920.14 105.829 920.14 106.016C920.14 107.472 919.655 108.699 918.684 109.698C917.723 110.687 916.505 111.182 915.03 111.182C913.602 111.182 912.389 110.697 911.39 109.726C910.41 108.765 909.92 107.556 909.92 106.1ZM922.071 110.09C921.333 109.353 920.965 108.443 920.965 107.36C920.965 106.277 921.333 105.372 922.071 104.644C922.808 103.907 923.737 103.538 924.857 103.538C925.967 103.538 926.891 103.907 927.629 104.644C928.375 105.372 928.749 106.277 928.749 107.36C928.749 108.433 928.375 109.343 927.629 110.09C926.882 110.818 925.958 111.182 924.857 111.182C923.737 111.182 922.808 110.818 922.071 110.09ZM924.857 109.11C925.342 109.11 925.743 108.942 926.061 108.606C926.397 108.261 926.565 107.845 926.565 107.36C926.565 106.875 926.397 106.464 926.061 106.128C925.743 105.783 925.342 105.61 924.857 105.61C924.371 105.61 923.965 105.778 923.639 106.114C923.312 106.459 923.149 106.875 923.149 107.36C923.149 107.845 923.312 108.261 923.639 108.606C923.965 108.942 924.371 109.11 924.857 109.11ZM930.574 110.09C929.837 109.353 929.468 108.443 929.468 107.36C929.468 106.277 929.837 105.372 930.574 104.644C931.312 103.907 932.24 103.538 933.36 103.538C934.471 103.538 935.395 103.907 936.132 104.644C936.879 105.372 937.252 106.277 937.252 107.36C937.252 108.433 936.879 109.343 936.132 110.09C935.386 110.818 934.462 111.182 933.36 111.182C932.24 111.182 931.312 110.818 930.574 110.09ZM933.36 109.11C933.846 109.11 934.247 108.942 934.564 108.606C934.9 108.261 935.068 107.845 935.068 107.36C935.068 106.875 934.9 106.464 934.564 106.128C934.247 105.783 933.846 105.61 933.36 105.61C932.875 105.61 932.469 105.778 932.142 106.114C931.816 106.459 931.652 106.875 931.652 107.36C931.652 107.845 931.816 108.261 932.142 108.606C932.469 108.942 932.875 109.11 933.36 109.11ZM937.972 107.36C937.972 106.259 938.299 105.349 938.952 104.63C939.606 103.902 940.427 103.538 941.416 103.538C942.163 103.538 942.835 103.762 943.432 104.21V103.72H945.518V110.846C945.518 111.845 945.164 112.671 944.454 113.324C943.754 113.996 942.882 114.332 941.836 114.332C940.996 114.332 940.245 114.117 939.582 113.688C938.91 113.249 938.467 112.708 938.252 112.064L940.324 111.574C940.436 111.798 940.628 111.98 940.898 112.12C941.169 112.269 941.468 112.344 941.794 112.344C942.252 112.344 942.639 112.204 942.956 111.924C943.274 111.644 943.432 111.294 943.432 110.874V110.496C942.854 110.953 942.182 111.182 941.416 111.182C940.427 111.182 939.606 110.818 938.952 110.09C938.299 109.353 937.972 108.443 937.972 107.36ZM941.78 105.61C941.323 105.61 940.936 105.778 940.618 106.114C940.31 106.45 940.156 106.87 940.156 107.374C940.156 107.859 940.31 108.27 940.618 108.606C940.936 108.942 941.323 109.11 941.78 109.11C942.228 109.11 942.611 108.942 942.928 108.606C943.246 108.279 943.404 107.869 943.404 107.374C943.404 106.87 943.246 106.45 942.928 106.114C942.611 105.778 942.228 105.61 941.78 105.61ZM948.8 111H946.7V100.5H948.8V111ZM957.388 108.116H951.97C952.091 108.499 952.31 108.807 952.628 109.04C952.945 109.273 953.318 109.39 953.748 109.39C954.345 109.39 954.826 109.175 955.19 108.746L957.22 109.208C956.884 109.824 956.408 110.309 955.792 110.664C955.185 111.009 954.499 111.182 953.734 111.182C952.595 111.182 951.648 110.818 950.892 110.09C950.136 109.362 949.758 108.452 949.758 107.36C949.758 106.277 950.126 105.372 950.864 104.644C951.601 103.907 952.52 103.538 953.622 103.538C954.714 103.538 955.628 103.907 956.366 104.644C957.103 105.372 957.472 106.277 957.472 107.36C957.472 107.621 957.444 107.873 957.388 108.116ZM951.984 106.562H955.33C955.199 106.189 954.98 105.89 954.672 105.666C954.364 105.442 954.014 105.33 953.622 105.33C953.248 105.33 952.912 105.442 952.614 105.666C952.315 105.89 952.105 106.189 951.984 106.562ZM961.529 107.36C961.529 106.259 961.856 105.349 962.509 104.63C963.162 103.902 963.984 103.538 964.973 103.538C965.72 103.538 966.392 103.762 966.989 104.21V103.72H969.075V111H966.989V110.496C966.41 110.953 965.738 111.182 964.973 111.182C963.984 111.182 963.162 110.818 962.509 110.09C961.856 109.353 961.529 108.443 961.529 107.36ZM965.337 105.61C964.88 105.61 964.492 105.778 964.175 106.114C963.867 106.45 963.713 106.861 963.713 107.346C963.713 107.85 963.867 108.27 964.175 108.606C964.492 108.942 964.88 109.11 965.337 109.11C965.785 109.11 966.168 108.942 966.485 108.606C966.802 108.27 966.961 107.85 966.961 107.346C966.961 106.851 966.802 106.441 966.485 106.114C966.168 105.778 965.785 105.61 965.337 105.61ZM970.257 111V103.72H972.357V104.462C972.842 103.846 973.505 103.538 974.345 103.538C975.129 103.538 975.787 103.804 976.319 104.336C976.86 104.868 977.131 105.531 977.131 106.324V111H975.031V106.884C975.031 106.483 974.905 106.151 974.653 105.89C974.401 105.619 974.084 105.484 973.701 105.484C973.318 105.484 972.996 105.619 972.735 105.89C972.483 106.151 972.357 106.483 972.357 106.884V111H970.257ZM978.086 107.36C978.086 106.259 978.412 105.349 979.066 104.63C979.719 103.902 980.54 103.538 981.53 103.538C982.276 103.538 982.948 103.762 983.546 104.21V103.72H985.632V111H983.546V110.496C982.967 110.953 982.295 111.182 981.53 111.182C980.54 111.182 979.719 110.818 979.066 110.09C978.412 109.353 978.086 108.443 978.086 107.36ZM981.894 105.61C981.436 105.61 981.049 105.778 980.732 106.114C980.424 106.45 980.27 106.861 980.27 107.346C980.27 107.85 980.424 108.27 980.732 108.606C981.049 108.942 981.436 109.11 981.894 109.11C982.342 109.11 982.724 108.942 983.042 108.606C983.359 108.27 983.518 107.85 983.518 107.346C983.518 106.851 983.359 106.441 983.042 106.114C982.724 105.778 982.342 105.61 981.894 105.61ZM988.914 111H986.814V100.5H988.914V111ZM992.307 111.056L992.349 110.944L989.591 103.72H991.761L993.343 108.214L994.981 103.72H997.151L994.057 111.756C993.721 112.596 993.273 113.203 992.713 113.576C992.162 113.959 991.439 114.15 990.543 114.15H990.291V112.148H990.557C991.462 112.148 992.046 111.784 992.307 111.056ZM997.343 105.54V103.72H998.337V102.306H1000.44V103.72H1002.09V105.54H1000.44V108.27C1000.44 108.494 1000.51 108.681 1000.66 108.83C1000.81 108.97 1001 109.04 1001.24 109.04H1002.09V111H1000.89C1000.17 111 999.56 110.781 999.065 110.342C998.58 109.894 998.337 109.339 998.337 108.676V105.54H997.343ZM1005.07 111H1002.97V103.72H1005.07V111ZM1003.09 102.838C1002.84 102.595 1002.72 102.287 1002.72 101.914C1002.72 101.541 1002.84 101.233 1003.09 100.99C1003.35 100.747 1003.66 100.626 1004.02 100.626C1004.4 100.626 1004.71 100.747 1004.95 100.99C1005.2 101.223 1005.33 101.531 1005.33 101.914C1005.33 102.297 1005.2 102.605 1004.95 102.838C1004.71 103.081 1004.4 103.202 1004.02 103.202C1003.66 103.202 1003.35 103.081 1003.09 102.838ZM1013.6 106.044L1011.49 106.66C1011.36 106.343 1011.15 106.091 1010.87 105.904C1010.59 105.708 1010.28 105.61 1009.92 105.61C1009.44 105.61 1009.03 105.778 1008.7 106.114C1008.38 106.441 1008.21 106.851 1008.21 107.346C1008.21 107.85 1008.38 108.27 1008.7 108.606C1009.03 108.942 1009.44 109.11 1009.92 109.11C1010.28 109.11 1010.59 109.017 1010.87 108.83C1011.15 108.634 1011.36 108.377 1011.49 108.06L1013.6 108.676C1013.32 109.441 1012.85 110.053 1012.19 110.51C1011.53 110.958 1010.77 111.182 1009.92 111.182C1008.8 111.182 1007.87 110.818 1007.14 110.09C1006.4 109.353 1006.03 108.443 1006.03 107.36C1006.03 106.268 1006.4 105.358 1007.14 104.63C1007.87 103.902 1008.8 103.538 1009.92 103.538C1010.77 103.538 1011.53 103.767 1012.19 104.224C1012.85 104.672 1013.32 105.279 1013.6 106.044ZM1020.1 105.526L1018.18 105.834C1018.05 105.423 1017.69 105.218 1017.09 105.218C1016.54 105.218 1016.27 105.377 1016.27 105.694C1016.27 105.881 1016.46 106.044 1016.84 106.184L1018.14 106.604C1018.87 106.837 1019.4 107.131 1019.72 107.486C1020.05 107.831 1020.21 108.284 1020.21 108.844C1020.21 109.591 1019.94 110.169 1019.4 110.58C1018.87 110.981 1018.14 111.182 1017.22 111.182C1016.3 111.182 1015.57 110.995 1015.03 110.622C1014.5 110.239 1014.18 109.698 1014.08 108.998L1016.01 108.732C1016.15 109.217 1016.57 109.46 1017.26 109.46C1017.55 109.46 1017.78 109.413 1017.95 109.32C1018.12 109.227 1018.21 109.096 1018.21 108.928C1018.21 108.695 1017.97 108.508 1017.48 108.368L1016.15 107.976C1015.48 107.789 1014.99 107.528 1014.68 107.192C1014.38 106.856 1014.24 106.417 1014.24 105.876C1014.24 105.092 1014.5 104.509 1015.02 104.126C1015.54 103.734 1016.27 103.538 1017.19 103.538C1018.03 103.538 1018.7 103.715 1019.21 104.07C1019.71 104.415 1020.01 104.901 1020.1 105.526ZM942.377 118.052L942.587 117.8H943.931L943.693 118.094C943.6 118.206 943.432 118.495 943.189 118.962C942.695 119.867 942.312 120.969 942.041 122.266C941.743 123.825 941.738 125.393 942.027 126.97C942.195 127.782 942.373 128.421 942.559 128.888C942.979 129.943 943.367 130.699 943.721 131.156L943.931 131.45H942.587L942.573 131.436C941.827 130.577 941.267 129.415 940.893 127.95C940.623 126.895 940.487 125.785 940.487 124.618C940.487 122.901 940.735 121.426 941.229 120.194C941.64 119.167 942.023 118.453 942.377 118.052ZM952.019 123.834L950.549 124.268C950.363 123.876 950.087 123.568 949.723 123.344C949.359 123.111 948.944 122.994 948.477 122.994C947.824 122.994 947.273 123.223 946.825 123.68C946.387 124.137 946.167 124.697 946.167 125.36C946.167 126.023 946.387 126.587 946.825 127.054C947.273 127.502 947.824 127.726 948.477 127.726C948.944 127.726 949.359 127.614 949.723 127.39C950.087 127.157 950.363 126.844 950.549 126.452L952.019 126.886C951.73 127.586 951.268 128.146 950.633 128.566C950.008 128.977 949.289 129.182 948.477 129.182C947.385 129.182 946.475 128.818 945.747 128.09C945.019 127.362 944.655 126.452 944.655 125.36C944.655 124.268 945.019 123.358 945.747 122.63C946.475 121.902 947.385 121.538 948.477 121.538C949.289 121.538 950.008 121.748 950.633 122.168C951.268 122.579 951.73 123.134 952.019 123.834ZM959.716 129H957.924L954.76 125.234L957.63 121.72H959.408L956.552 125.234L959.716 129ZM954.746 121.72V129H953.29V121.72H954.746ZM963.886 129.182C962.794 129.182 961.884 128.818 961.156 128.09C960.428 127.362 960.064 126.452 960.064 125.36C960.064 124.268 960.428 123.358 961.156 122.63C961.884 121.902 962.794 121.538 963.886 121.538C964.978 121.538 965.888 121.902 966.616 122.63C967.353 123.358 967.722 124.268 967.722 125.36C967.722 126.452 967.353 127.362 966.616 128.09C965.888 128.818 964.978 129.182 963.886 129.182ZM963.886 127.726C964.558 127.726 965.108 127.502 965.538 127.054C965.986 126.597 966.21 126.032 966.21 125.36C966.21 124.688 965.986 124.128 965.538 123.68C965.108 123.223 964.558 122.994 963.886 122.994C963.232 122.994 962.682 123.223 962.234 123.68C961.795 124.137 961.576 124.697 961.576 125.36C961.576 126.023 961.795 126.587 962.234 127.054C962.682 127.502 963.232 127.726 963.886 127.726ZM970.592 132.15H969.136V121.72H970.592V122.504C971.264 121.86 972.071 121.538 973.014 121.538C974.031 121.538 974.885 121.902 975.576 122.63C976.257 123.349 976.598 124.259 976.598 125.36C976.598 126.461 976.257 127.371 975.576 128.09C974.885 128.818 974.031 129.182 973.014 129.182C972.071 129.182 971.264 128.86 970.592 128.216V132.15ZM972.846 122.994C972.22 122.994 971.693 123.223 971.264 123.68C970.834 124.119 970.62 124.679 970.62 125.36C970.62 126.032 970.834 126.597 971.264 127.054C971.693 127.502 972.22 127.726 972.846 127.726C973.471 127.726 974.003 127.502 974.442 127.054C974.871 126.597 975.086 126.032 975.086 125.36C975.086 124.679 974.871 124.119 974.442 123.68C974.012 123.223 973.48 122.994 972.846 122.994ZM981.509 129.182C980.417 129.182 979.507 128.818 978.779 128.09C978.051 127.362 977.687 126.452 977.687 125.36C977.687 124.268 978.051 123.358 978.779 122.63C979.507 121.902 980.417 121.538 981.509 121.538C982.601 121.538 983.511 121.902 984.239 122.63C984.976 123.358 985.345 124.268 985.345 125.36C985.345 126.452 984.976 127.362 984.239 128.09C983.511 128.818 982.601 129.182 981.509 129.182ZM981.509 127.726C982.181 127.726 982.731 127.502 983.161 127.054C983.609 126.597 983.833 126.032 983.833 125.36C983.833 124.688 983.609 124.128 983.161 123.68C982.731 123.223 982.181 122.994 981.509 122.994C980.855 122.994 980.305 123.223 979.857 123.68C979.418 124.137 979.199 124.697 979.199 125.36C979.199 126.023 979.418 126.587 979.857 127.054C980.305 127.502 980.855 127.726 981.509 127.726ZM986.283 118.08L986.073 117.8H987.431L987.655 118.066C987.748 118.178 987.916 118.444 988.159 118.864C988.429 119.34 988.644 119.793 988.803 120.222C988.989 120.707 989.157 121.342 989.307 122.126C989.456 122.901 989.531 123.731 989.531 124.618C989.531 126.214 989.307 127.628 988.859 128.86C988.681 129.355 988.481 129.803 988.257 130.204C988.014 130.633 987.841 130.918 987.739 131.058C987.645 131.217 987.547 131.343 987.445 131.436L987.431 131.45H986.073L986.297 131.142C986.418 130.993 986.591 130.703 986.815 130.274C987.039 129.863 987.249 129.397 987.445 128.874C987.622 128.379 987.79 127.749 987.949 126.984C988.266 125.444 988.271 123.876 987.963 122.28C987.823 121.505 987.65 120.866 987.445 120.362C987.053 119.354 986.665 118.593 986.283 118.08Z" fill="white"/>
<path d="M971.134 537.856L964.078 547H962.224V534.4H964.24V543.598L971.314 534.4H973.168V547H971.134V537.856ZM981.372 547V549.7H979.5V545.2H980.958C981.414 544.708 981.642 543.67 981.642 542.086V537.64H989.22V545.2H990.912V549.7H989.04V547H981.372ZM982.956 545.2H987.348V539.44H983.514V542.194C983.514 543.442 983.328 544.444 982.956 545.2ZM994.222 551.05H992.35V537.64H994.222V538.648C995.086 537.82 996.124 537.406 997.336 537.406C998.644 537.406 999.742 537.874 1000.63 538.81C1001.51 539.734 1001.94 540.904 1001.94 542.32C1001.94 543.736 1001.51 544.906 1000.63 545.83C999.742 546.766 998.644 547.234 997.336 547.234C996.124 547.234 995.086 546.82 994.222 545.992V551.05ZM997.12 539.278C996.316 539.278 995.638 539.572 995.086 540.16C994.534 540.724 994.258 541.444 994.258 542.32C994.258 543.184 994.534 543.91 995.086 544.498C995.638 545.074 996.316 545.362 997.12 545.362C997.924 545.362 998.608 545.074 999.172 544.498C999.724 543.91 1000 543.184 1000 542.32C1000 541.444 999.724 540.724 999.172 540.16C998.62 539.572 997.936 539.278 997.12 539.278ZM1005.76 547.792L1006.18 546.766L1002.52 537.64H1004.45L1007.11 544.444L1009.87 537.64H1011.79L1007.38 548.422C1007.01 549.334 1006.53 550 1005.93 550.42C1005.33 550.84 1004.56 551.05 1003.62 551.05H1003.23V549.25H1003.62C1004.17 549.25 1004.62 549.136 1004.95 548.908C1005.29 548.68 1005.56 548.308 1005.76 547.792ZM1015 539.44V547H1013.13V537.64H1019.19V539.44H1015ZM1024.64 547.234C1023.24 547.234 1022.07 546.766 1021.13 545.83C1020.2 544.894 1019.73 543.724 1019.73 542.32C1019.73 540.916 1020.2 539.746 1021.13 538.81C1022.07 537.874 1023.24 537.406 1024.64 537.406C1026.05 537.406 1027.22 537.874 1028.15 538.81C1029.1 539.746 1029.57 540.916 1029.57 542.32C1029.57 543.724 1029.1 544.894 1028.15 545.83C1027.22 546.766 1026.05 547.234 1024.64 547.234ZM1024.64 545.362C1025.51 545.362 1026.21 545.074 1026.77 544.498C1027.34 543.91 1027.63 543.184 1027.63 542.32C1027.63 541.456 1027.34 540.736 1026.77 540.16C1026.21 539.572 1025.51 539.278 1024.64 539.278C1023.8 539.278 1023.09 539.572 1022.52 540.16C1021.95 540.748 1021.67 541.468 1021.67 542.32C1021.67 543.172 1021.95 543.898 1022.52 544.498C1023.09 545.074 1023.8 545.362 1024.64 545.362ZM1040.68 543.004H1032.9C1033.05 543.736 1033.4 544.336 1033.97 544.804C1034.54 545.26 1035.22 545.488 1036 545.488C1037.06 545.488 1037.88 545.098 1038.48 544.318L1040.32 544.876C1039.89 545.608 1039.29 546.184 1038.52 546.604C1037.76 547.024 1036.92 547.234 1036 547.234C1034.56 547.234 1033.37 546.766 1032.42 545.83C1031.46 544.894 1030.98 543.724 1030.98 542.32C1030.98 540.928 1031.44 539.758 1032.36 538.81C1033.3 537.874 1034.46 537.406 1035.86 537.406C1037.25 537.406 1038.4 537.874 1039.31 538.81C1040.25 539.746 1040.72 540.916 1040.72 542.32C1040.72 542.368 1040.7 542.596 1040.68 543.004ZM1032.92 541.51H1038.79C1038.62 540.814 1038.26 540.25 1037.71 539.818C1037.16 539.374 1036.52 539.152 1035.8 539.152C1035.12 539.152 1034.51 539.374 1033.97 539.818C1033.44 540.25 1033.09 540.814 1032.92 541.51ZM1041.94 546.892C1041.71 546.652 1041.6 546.352 1041.6 545.992C1041.6 545.632 1041.71 545.332 1041.94 545.092C1042.18 544.852 1042.48 544.732 1042.84 544.732C1043.2 544.732 1043.5 544.852 1043.74 545.092C1043.98 545.332 1044.1 545.632 1044.1 545.992C1044.1 546.352 1043.98 546.652 1043.74 546.892C1043.5 547.12 1043.2 547.234 1042.84 547.234C1042.48 547.234 1042.18 547.12 1041.94 546.892ZM1045.89 546.892C1045.66 546.652 1045.55 546.352 1045.55 545.992C1045.55 545.632 1045.66 545.332 1045.89 545.092C1046.13 544.852 1046.43 544.732 1046.79 544.732C1047.15 544.732 1047.45 544.852 1047.69 545.092C1047.93 545.332 1048.05 545.632 1048.05 545.992C1048.05 546.352 1047.93 546.652 1047.69 546.892C1047.45 547.12 1047.15 547.234 1046.79 547.234C1046.43 547.234 1046.13 547.12 1045.89 546.892ZM1049.85 546.892C1049.62 546.652 1049.51 546.352 1049.51 545.992C1049.51 545.632 1049.62 545.332 1049.85 545.092C1050.09 544.852 1050.39 544.732 1050.75 544.732C1051.11 544.732 1051.41 544.852 1051.65 545.092C1051.89 545.332 1052.01 545.632 1052.01 545.992C1052.01 546.352 1051.89 546.652 1051.65 546.892C1051.41 547.12 1051.11 547.234 1050.75 547.234C1050.39 547.234 1050.09 547.12 1049.85 546.892Z" fill="white"/>
<path d="M1037.9 80.7328C1038.63 80.4589 1039.38 81.0989 1039.23 81.8677L1037.14 92.1729C1036.99 92.9205 1036.09 93.2307 1035.51 92.7356L1027.74 86.1019C1027.16 85.6067 1027.33 84.6706 1028.04 84.4043L1037.9 80.7328Z" fill="#004796"/>
<ellipse cx="806.5" cy="271" rx="3.5" ry="3" fill="#F6BD11"/>
<ellipse cx="806.5" cy="271" rx="3.5" ry="3" fill="#F6BD11"/>
<ellipse cx="806.5" cy="271" rx="3.5" ry="3" fill="#F6BD11"/>
<ellipse cx="489" cy="279" rx="6" ry="5" fill="#F6BD11"/>
<ellipse cx="489" cy="279" rx="6" ry="5" fill="#F6BD11"/>
<ellipse cx="489" cy="279" rx="6" ry="5" fill="#F35888"/>
<ellipse cx="58" cy="362" rx="6" ry="5" fill="#F6BD11"/>
<ellipse cx="58" cy="362" rx="6" ry="5" fill="#F6BD11"/>
<ellipse cx="58" cy="362" rx="6" ry="5" fill="#004796"/>
<ellipse cx="1403" cy="406.5" rx="9" ry="7.5" fill="#F6BD11"/>
<ellipse cx="1403" cy="406.5" rx="9" ry="7.5" fill="#F6BD11"/>
<ellipse cx="1403" cy="406.5" rx="9" ry="7.5" fill="#2BD8F5"/>
<path d="M158.52 267.656V276H156.952V266.2H165.408V276H163.826V267.656H158.52ZM174.455 272.892H168.407C168.519 273.461 168.795 273.928 169.233 274.292C169.681 274.647 170.209 274.824 170.815 274.824C171.637 274.824 172.281 274.521 172.747 273.914L174.175 274.348C173.839 274.917 173.373 275.365 172.775 275.692C172.187 276.019 171.534 276.182 170.815 276.182C169.695 276.182 168.767 275.818 168.029 275.09C167.283 274.362 166.909 273.452 166.909 272.36C166.909 271.277 167.269 270.367 167.987 269.63C168.715 268.902 169.621 268.538 170.703 268.538C171.786 268.538 172.682 268.902 173.391 269.63C174.119 270.358 174.483 271.268 174.483 272.36C174.483 272.397 174.474 272.575 174.455 272.892ZM168.421 271.73H172.985C172.855 271.189 172.575 270.75 172.145 270.414C171.716 270.069 171.221 269.896 170.661 269.896C170.129 269.896 169.653 270.069 169.233 270.414C168.823 270.75 168.552 271.189 168.421 271.73ZM177.232 279.15H175.776V268.72H177.232V269.504C177.904 268.86 178.712 268.538 179.654 268.538C180.672 268.538 181.526 268.902 182.216 269.63C182.898 270.349 183.238 271.259 183.238 272.36C183.238 273.461 182.898 274.371 182.216 275.09C181.526 275.818 180.672 276.182 179.654 276.182C178.712 276.182 177.904 275.86 177.232 275.216V279.15ZM179.486 269.994C178.861 269.994 178.334 270.223 177.904 270.68C177.475 271.119 177.26 271.679 177.26 272.36C177.26 273.032 177.475 273.597 177.904 274.054C178.334 274.502 178.861 274.726 179.486 274.726C180.112 274.726 180.644 274.502 181.082 274.054C181.512 273.597 181.726 273.032 181.726 272.36C181.726 271.679 181.512 271.119 181.082 270.68C180.653 270.223 180.121 269.994 179.486 269.994ZM191.873 272.892H185.825C185.937 273.461 186.213 273.928 186.651 274.292C187.099 274.647 187.627 274.824 188.233 274.824C189.055 274.824 189.699 274.521 190.165 273.914L191.593 274.348C191.257 274.917 190.791 275.365 190.193 275.692C189.605 276.019 188.952 276.182 188.233 276.182C187.113 276.182 186.185 275.818 185.447 275.09C184.701 274.362 184.327 273.452 184.327 272.36C184.327 271.277 184.687 270.367 185.405 269.63C186.133 268.902 187.039 268.538 188.121 268.538C189.204 268.538 190.1 268.902 190.809 269.63C191.537 270.358 191.901 271.268 191.901 272.36C191.901 272.397 191.892 272.575 191.873 272.892ZM185.839 271.73H190.403C190.273 271.189 189.993 270.75 189.563 270.414C189.134 270.069 188.639 269.896 188.079 269.896C187.547 269.896 187.071 270.069 186.651 270.414C186.241 270.75 185.97 271.189 185.839 271.73ZM193.194 276V268.72H194.65V273.578L198.766 268.72H199.984V276H198.528V271.17L194.412 276H193.194ZM194.188 265.668H195.406C195.406 265.985 195.518 266.251 195.742 266.466C195.976 266.681 196.265 266.788 196.61 266.788C196.937 266.788 197.212 266.681 197.436 266.466C197.67 266.251 197.786 265.985 197.786 265.668H199.004C199.004 266.331 198.776 266.877 198.318 267.306C197.861 267.735 197.292 267.95 196.61 267.95C195.91 267.95 195.332 267.735 194.874 267.306C194.417 266.877 194.188 266.331 194.188 265.668ZM203.629 276V270.12H201.053V268.72H207.661V270.12H205.085V276H203.629ZM214.046 271.17L209.93 276H208.712V268.72H210.168V273.578L214.284 268.72H215.502V276H214.046V271.17Z" fill="white" fill-opacity="0.9"/>
<path d="M240.464 272.354C240.66 272.158 240.66 271.842 240.464 271.646L237.282 268.464C237.087 268.269 236.77 268.269 236.575 268.464C236.38 268.66 236.38 268.976 236.575 269.172L239.404 272L236.575 274.828C236.38 275.024 236.38 275.34 236.575 275.536C236.77 275.731 237.087 275.731 237.282 275.536L240.464 272.354ZM222 272.5H240.111V271.5H222V272.5Z" fill="white"/>
<defs>
<filter id="filter0_d_10_2280" x="872" y="42" width="272" height="449" filterUnits="userSpaceOnUse" color-interpolation-filters="sRGB">
<feFlood flood-opacity="0" result="BackgroundImageFix"/>
<feColorMatrix in="SourceAlpha" type="matrix" values="0 0 0 0 0 0 0 0 0 0 0 0 0 0 0 0 0 0 127 0" result="hardAlpha"/>
<feOffset dy="4"/>
<feGaussianBlur stdDeviation="2"/>
<feComposite in2="hardAlpha" operator="out"/>
<feColorMatrix type="matrix" values="0 0 0 0 0 0 0 0 0 0 0 0 0 0 0 0 0 0 0.25 0"/>
<feBlend mode="normal" in2="BackgroundImageFix" result="effect1_dropShadow_10_2280"/>
<feBlend mode="normal" in="SourceGraphic" in2="effect1_dropShadow_10_2280" result="shape"/>
</filter>
<filter id="filter1_i_10_2280" x="1077" y="150" width="92" height="53" filterUnits="userSpaceOnUse" color-interpolation-filters="sRGB">
<feFlood flood-opacity="0" result="BackgroundImageFix"/>
<feBlend mode="normal" in="SourceGraphic" in2="BackgroundImageFix" result="shape"/>
<feColorMatrix in="SourceAlpha" type="matrix" values="0 0 0 0 0 0 0 0 0 0 0 0 0 0 0 0 0 0 127 0" result="hardAlpha"/>
<feOffset dy="4"/>
<feGaussianBlur stdDeviation="15"/>
<feComposite in2="hardAlpha" operator="arithmetic" k2="-1" k3="1"/>
<feColorMatrix type="matrix" values="0 0 0 0 0 0 0 0 0 0 0 0 0 0 0 0 0 0 0.15 0"/>
<feBlend mode="normal" in2="shape" result="effect1_innerShadow_10_2280"/>
</filter>
<filter id="filter2_i_10_2280" x="815" y="171" width="123" height="53" filterUnits="userSpaceOnUse" color-interpolation-filters="sRGB">
<feFlood flood-opacity="0" result="BackgroundImageFix"/>
<feBlend mode="normal" in="SourceGraphic" in2="BackgroundImageFix" result="shape"/>
<feColorMatrix in="SourceAlpha" type="matrix" values="0 0 0 0 0 0 0 0 0 0 0 0 0 0 0 0 0 0 127 0" result="hardAlpha"/>
<feOffset dy="4"/>
<feGaussianBlur stdDeviation="15"/>
<feComposite in2="hardAlpha" operator="arithmetic" k2="-1" k3="1"/>
<feColorMatrix type="matrix" values="0 0 0 0 0 0 0 0 0 0 0 0 0 0 0 0 0 0 0.15 0"/>
<feBlend mode="normal" in2="shape" result="effect1_innerShadow_10_2280"/>
</filter>
<filter id="filter3_i_10_2280" x="954" y="223" width="116" height="55" filterUnits="userSpaceOnUse" color-interpolation-filters="sRGB">
<feFlood flood-opacity="0" result="BackgroundImageFix"/>
<feBlend mode="normal" in="SourceGraphic" in2="BackgroundImageFix" result="shape"/>
<feColorMatrix in="SourceAlpha" type="matrix" values="0 0 0 0 0 0 0 0 0 0 0 0 0 0 0 0 0 0 127 0" result="hardAlpha"/>
<feOffset dy="4"/>
<feGaussianBlur stdDeviation="15"/>
<feComposite in2="hardAlpha" operator="arithmetic" k2="-1" k3="1"/>
<feColorMatrix type="matrix" values="0 0 0 0 0 0 0 0 0 0 0 0 0 0 0 0 0 0 0.15 0"/>
<feBlend mode="normal" in2="shape" result="effect1_innerShadow_10_2280"/>
</filter>
<filter id="filter4_i_10_2280" x="1218" y="270" width="75" height="53" filterUnits="userSpaceOnUse" color-interpolation-filters="sRGB">
<feFlood flood-opacity="0" result="BackgroundImageFix"/>
<feBlend mode="normal" in="SourceGraphic" in2="BackgroundImageFix" result="shape"/>
<feColorMatrix in="SourceAlpha" type="matrix" values="0 0 0 0 0 0 0 0 0 0 0 0 0 0 0 0 0 0 127 0" result="hardAlpha"/>
<feOffset dy="4"/>
<feGaussianBlur stdDeviation="15"/>
<feComposite in2="hardAlpha" operator="arithmetic" k2="-1" k3="1"/>
<feColorMatrix type="matrix" values="0 0 0 0 0 0 0 0 0 0 0 0 0 0 0 0 0 0 0.15 0"/>
<feBlend mode="normal" in2="shape" result="effect1_innerShadow_10_2280"/>
</filter>
<filter id="filter5_i_10_2280" x="1129" y="386" width="82" height="53" filterUnits="userSpaceOnUse" color-interpolation-filters="sRGB">
<feFlood flood-opacity="0" result="BackgroundImageFix"/>
<feBlend mode="normal" in="SourceGraphic" in2="BackgroundImageFix" result="shape"/>
<feColorMatrix in="SourceAlpha" type="matrix" values="0 0 0 0 0 0 0 0 0 0 0 0 0 0 0 0 0 0 127 0" result="hardAlpha"/>
<feOffset dy="4"/>
<feGaussianBlur stdDeviation="15"/>
<feComposite in2="hardAlpha" operator="arithmetic" k2="-1" k3="1"/>
<feColorMatrix type="matrix" values="0 0 0 0 0 0 0 0 0 0 0 0 0 0 0 0 0 0 0.15 0"/>
<feBlend mode="normal" in2="shape" result="effect1_innerShadow_10_2280"/>
</filter>
<filter id="filter6_i_10_2280" x="903" y="347" width="143" height="52" filterUnits="userSpaceOnUse" color-interpolation-filters="sRGB">
<feFlood flood-opacity="0" result="BackgroundImageFix"/>
<feBlend mode="normal" in="SourceGraphic" in2="BackgroundImageFix" result="shape"/>
<feColorMatrix in="SourceAlpha" type="matrix" values="0 0 0 0 0 0 0 0 0 0 0 0 0 0 0 0 0 0 127 0" result="hardAlpha"/>
<feOffset dy="4"/>
<feGaussianBlur stdDeviation="15"/>
<feComposite in2="hardAlpha" operator="arithmetic" k2="-1" k3="1"/>
<feColorMatrix type="matrix" values="0 0 0 0 0 0 0 0 0 0 0 0 0 0 0 0 0 0 0.15 0"/>
<feBlend mode="normal" in2="shape" result="effect1_innerShadow_10_2280"/>
</filter>
<filter id="filter7_i_10_2280" x="778" y="412" width="108" height="53" filterUnits="userSpaceOnUse" color-interpolation-filters="sRGB">
<feFlood flood-opacity="0" result="BackgroundImageFix"/>
<feBlend mode="normal" in="SourceGraphic" in2="BackgroundImageFix" result="shape"/>
<feColorMatrix in="SourceAlpha" type="matrix" values="0 0 0 0 0 0 0 0 0 0 0 0 0 0 0 0 0 0 127 0" result="hardAlpha"/>
<feOffset dy="4"/>
<feGaussianBlur stdDeviation="15"/>
<feComposite in2="hardAlpha" operator="arithmetic" k2="-1" k3="1"/>
<feColorMatrix type="matrix" values="0 0 0 0 0 0 0 0 0 0 0 0 0 0 0 0 0 0 0.15 0"/>
<feBlend mode="normal" in2="shape" result="effect1_innerShadow_10_2280"/>
</filter>
<filter id="filter8_i_10_2280" x="939" y="516" width="137" height="53" filterUnits="userSpaceOnUse" color-interpolation-filters="sRGB">
<feFlood flood-opacity="0" result="BackgroundImageFix"/>
<feBlend mode="normal" in="SourceGraphic" in2="BackgroundImageFix" result="shape"/>
<feColorMatrix in="SourceAlpha" type="matrix" values="0 0 0 0 0 0 0 0 0 0 0 0 0 0 0 0 0 0 127 0" result="hardAlpha"/>
<feOffset dy="4"/>
<feGaussianBlur stdDeviation="15"/>
<feComposite in2="hardAlpha" operator="arithmetic" k2="-1" k3="1"/>
<feColorMatrix type="matrix" values="0 0 0 0 0 0 0 0 0 0 0 0 0 0 0 0 0 0 0.15 0"/>
<feBlend mode="normal" in2="shape" result="effect1_innerShadow_10_2280"/>
</filter>
<filter id="filter9_i_10_2280" x="900" y="89" width="131" height="53" filterUnits="userSpaceOnUse" color-interpolation-filters="sRGB">
<feFlood flood-opacity="0" result="BackgroundImageFix"/>
<feBlend mode="normal" in="SourceGraphic" in2="BackgroundImageFix" result="shape"/>
<feColorMatrix in="SourceAlpha" type="matrix" values="0 0 0 0 0 0 0 0 0 0 0 0 0 0 0 0 0 0 127 0" result="hardAlpha"/>
<feOffset dy="4"/>
<feGaussianBlur stdDeviation="15"/>
<feComposite in2="hardAlpha" operator="arithmetic" k2="-1" k3="1"/>
<feColorMatrix type="matrix" values="0 0 0 0 0 0 0 0 0 0 0 0 0 0 0 0 0 0 0.15 0"/>
<feBlend mode="normal" in2="shape" result="effect1_innerShadow_10_2280"/>
</filter>
<linearGradient id="paint0_linear_10_2280" x1="1067.15" y1="22.429" x2="912.07" y2="478.753" gradientUnits="userSpaceOnUse">
<stop stop-color="#F5E2D3"/>
<stop offset="1" stop-color="white"/>
</linearGradient>
</defs>
</svg>
