<svg width="760" height="407" viewBox="0 0 760 407" fill="none" xmlns="http://www.w3.org/2000/svg">
<path d="M0 54L12.1077 82.3581C18.6638 97.7133 27.5774 111.951 38.5264 124.555L43.3729 130.135C49.9469 137.703 57.5453 144.316 65.9482 149.783V149.783C79.5937 158.661 95.0742 164.33 111.226 166.364L133.809 169.207C151.622 171.45 169.651 171.364 187.442 168.951L212.635 165.533C223.729 164.029 234.7 161.718 245.46 158.621V158.621C266.217 152.646 287.71 149.614 309.309 149.614H310.688C328.827 149.614 346.908 151.665 364.586 155.729L411.311 166.469C428.994 170.534 447.081 172.586 465.225 172.586V172.586H499.421H521.148C540.129 172.586 558.822 177.229 575.597 186.109V186.109C584.333 190.734 592.445 196.453 599.735 203.128L617.914 219.772L631.092 229.285C648.082 241.55 666.01 252.461 684.71 261.918L703.272 271.304L760 293.035" stroke="#DFDFDF" stroke-opacity="0.3"/>
<path d="M0 345.689L28.198 331.804C42.9869 324.522 57.1404 316.014 70.5103 306.371V306.371C85.768 295.367 102.042 285.844 119.11 277.934L184.522 247.619L215.395 237.055C232.183 231.31 249.805 228.378 267.55 228.378V228.378C287.179 228.378 306.644 231.966 324.983 238.965L347.662 247.619V247.619C370.209 256.523 394.89 258.538 418.582 253.41L445.335 247.619L460.39 243.936C480.53 239.009 501.533 238.768 521.782 243.231V243.231C534.978 246.14 547.666 251.006 559.423 257.668L569.403 263.322C580.12 269.394 590.287 276.389 599.788 284.227L630.65 309.689L668.927 336.379V336.379C688.879 354.074 711.345 368.714 735.591 379.819L760 391" stroke="#DFDFDF" stroke-opacity="0.3"/>
<path d="M0 389.041L49.0411 294.811C57.1996 279.135 69.4499 265.96 84.4919 256.684L89.8705 253.367C112.274 239.552 139.813 236.893 164.445 246.167V246.167C189.986 255.782 218.589 252.552 241.341 237.483L246.772 233.886C271.124 217.757 301.554 213.763 329.243 223.061V223.061C345.61 228.558 363.169 229.476 380.021 225.718L406.134 219.895L421.677 216.428C445.824 211.043 470.488 208.326 495.227 208.326V208.326H515.524C540.724 208.326 565.762 204.298 589.691 196.395V196.395C609.691 189.788 628.72 180.539 646.271 168.893L700.868 132.664L760 95.1455" stroke="#DFDFDF" stroke-opacity="0.3"/>
<path d="M102.52 167.656V176H100.952V166.2H109.408V176H107.826V167.656H102.52ZM118.455 172.892H112.407C112.519 173.461 112.795 173.928 113.233 174.292C113.681 174.647 114.209 174.824 114.815 174.824C115.637 174.824 116.281 174.521 116.747 173.914L118.175 174.348C117.839 174.917 117.373 175.365 116.775 175.692C116.187 176.019 115.534 176.182 114.815 176.182C113.695 176.182 112.767 175.818 112.029 175.09C111.283 174.362 110.909 173.452 110.909 172.36C110.909 171.277 111.269 170.367 111.987 169.63C112.715 168.902 113.621 168.538 114.703 168.538C115.786 168.538 116.682 168.902 117.391 169.63C118.119 170.358 118.483 171.268 118.483 172.36C118.483 172.397 118.474 172.575 118.455 172.892ZM112.421 171.73H116.985C116.855 171.189 116.575 170.75 116.145 170.414C115.716 170.069 115.221 169.896 114.661 169.896C114.129 169.896 113.653 170.069 113.233 170.414C112.823 170.75 112.552 171.189 112.421 171.73ZM121.232 179.15H119.776V168.72H121.232V169.504C121.904 168.86 122.712 168.538 123.654 168.538C124.672 168.538 125.526 168.902 126.216 169.63C126.898 170.349 127.238 171.259 127.238 172.36C127.238 173.461 126.898 174.371 126.216 175.09C125.526 175.818 124.672 176.182 123.654 176.182C122.712 176.182 121.904 175.86 121.232 175.216V179.15ZM123.486 169.994C122.861 169.994 122.334 170.223 121.904 170.68C121.475 171.119 121.26 171.679 121.26 172.36C121.26 173.032 121.475 173.597 121.904 174.054C122.334 174.502 122.861 174.726 123.486 174.726C124.112 174.726 124.644 174.502 125.082 174.054C125.512 173.597 125.726 173.032 125.726 172.36C125.726 171.679 125.512 171.119 125.082 170.68C124.653 170.223 124.121 169.994 123.486 169.994ZM135.873 172.892H129.825C129.937 173.461 130.213 173.928 130.651 174.292C131.099 174.647 131.627 174.824 132.233 174.824C133.055 174.824 133.699 174.521 134.165 173.914L135.593 174.348C135.257 174.917 134.791 175.365 134.193 175.692C133.605 176.019 132.952 176.182 132.233 176.182C131.113 176.182 130.185 175.818 129.447 175.09C128.701 174.362 128.327 173.452 128.327 172.36C128.327 171.277 128.687 170.367 129.405 169.63C130.133 168.902 131.039 168.538 132.121 168.538C133.204 168.538 134.1 168.902 134.809 169.63C135.537 170.358 135.901 171.268 135.901 172.36C135.901 172.397 135.892 172.575 135.873 172.892ZM129.839 171.73H134.403C134.273 171.189 133.993 170.75 133.563 170.414C133.134 170.069 132.639 169.896 132.079 169.896C131.547 169.896 131.071 170.069 130.651 170.414C130.241 170.75 129.97 171.189 129.839 171.73ZM137.194 176V168.72H138.65V173.578L142.766 168.72H143.984V176H142.528V171.17L138.412 176H137.194ZM138.188 165.668H139.406C139.406 165.985 139.518 166.251 139.742 166.466C139.976 166.681 140.265 166.788 140.61 166.788C140.937 166.788 141.212 166.681 141.436 166.466C141.67 166.251 141.786 165.985 141.786 165.668H143.004C143.004 166.331 142.776 166.877 142.318 167.306C141.861 167.735 141.292 167.95 140.61 167.95C139.91 167.95 139.332 167.735 138.874 167.306C138.417 166.877 138.188 166.331 138.188 165.668ZM147.629 176V170.12H145.053V168.72H151.661V170.12H149.085V176H147.629ZM158.046 171.17L153.93 176H152.712V168.72H154.168V173.578L158.284 168.72H159.502V176H158.046V171.17Z" fill="white" fill-opacity="0.9"/>
<path d="M184.464 172.354C184.66 172.158 184.66 171.842 184.464 171.646L181.282 168.464C181.087 168.269 180.77 168.269 180.575 168.464C180.38 168.66 180.38 168.976 180.575 169.172L183.404 172L180.575 174.828C180.38 175.024 180.38 175.34 180.575 175.536C180.77 175.731 181.087 175.731 181.282 175.536L184.464 172.354ZM166 172.5H184.111V171.5H166V172.5Z" fill="white"/>
<circle cx="255.5" cy="228.5" r="2.5" fill="#F6BD11"/>
<circle cx="255.5" cy="228.5" r="2.5" fill="#F6BD11"/>
<circle cx="255.5" cy="228.5" r="2.5" fill="#004796"/>
<circle cx="32" cy="329" r="5" fill="#F6BD11"/>
<circle cx="32" cy="329" r="5" fill="#F6BD11"/>
<circle cx="32" cy="329" r="5" fill="#F35888"/>
<g filter="url(#filter0_d_12_4577)">
<rect x="457" y="4" width="209" height="349" rx="20" fill="url(#paint0_linear_12_4577)"/>
<rect x="459.5" y="6.5" width="204" height="344" rx="17.5" stroke="white" stroke-width="5"/>
</g>
<path d="M625.147 22.0349C625.147 22.5903 624.697 23.0397 624.142 23.0397C623.586 23.0397 623.137 22.5903 623.137 22.0349C623.137 21.4793 623.586 21.0299 624.142 21.0299C624.697 21.0299 625.147 21.4793 625.147 22.0349ZM621.828 20.1003L622.599 20.7464C623.367 19.8286 624.918 19.8286 625.685 20.7471L626.457 20.1032C625.881 19.4145 625.037 19.0199 624.142 19.0199C623.247 19.0199 622.404 19.4135 621.828 20.1003ZM620.417 18.6607L621.162 19.336C621.923 18.4958 623.008 18.015 624.142 18.015C625.274 18.015 626.36 18.4958 627.12 19.334L627.864 18.6587C626.913 17.6106 625.557 17.01 624.142 17.01C622.726 17.01 621.368 17.6125 620.417 18.6607ZM619 17.2328L619.734 17.9188C620.871 16.7027 622.477 16.0049 624.142 16.0049C625.831 16.0049 627.395 16.6842 628.547 17.9168L629.282 17.2297C627.957 15.8127 626.083 15 624.142 15C622.199 15 620.326 15.8136 619 17.2328Z" fill="black" fill-opacity="0.8"/>
<path d="M637 16.1692V21.8296H646.434V16.1692H637ZM645.868 21.1503H637.566V16.8484H645.868V21.1503Z" fill="black" fill-opacity="0.8"/>
<path d="M638.698 17.5266H638.132V20.47H638.698V17.5266Z" fill="black" fill-opacity="0.8"/>
<path d="M646.999 17.5266H646.433V20.47H646.999V17.5266Z" fill="black" fill-opacity="0.8"/>
<path d="M561.501 307C562.997 307 564.209 305.694 564.209 304.083C564.209 302.473 562.997 301.167 561.501 301.167C560.005 301.167 558.792 302.473 558.792 304.083C558.792 305.694 560.005 307 561.501 307Z" stroke="black" stroke-opacity="0.8" stroke-width="2"/>
<path d="M564.209 308.167H564.399C564.795 308.167 565.178 308.323 565.474 308.605C565.771 308.887 565.962 309.277 566.011 309.7L566.223 311.522C566.242 311.686 566.228 311.853 566.183 312.011C566.138 312.169 566.062 312.315 565.96 312.439C565.858 312.563 565.733 312.662 565.593 312.73C565.453 312.798 565.301 312.833 565.148 312.833H557.853C557.699 312.833 557.547 312.798 557.407 312.73C557.267 312.662 557.142 312.563 557.04 312.439C556.939 312.315 556.863 312.169 556.817 312.011C556.772 311.853 556.758 311.686 556.777 311.522L556.989 309.7C557.038 309.276 557.229 308.887 557.526 308.605C557.823 308.322 558.206 308.167 558.602 308.167H558.792" stroke="black" stroke-opacity="0.8" stroke-width="2" stroke-linecap="round" stroke-linejoin="round"/>
<path d="M479.916 24H478.917V17.3774L476.913 18.1133V17.2109L479.76 16.1421H479.916V24ZM483.283 20.0791L483.681 16.1797H487.688V17.0981H484.524L484.288 19.2305C484.671 19.0049 485.106 18.8921 485.593 18.8921C486.305 18.8921 486.871 19.1284 487.29 19.6011C487.709 20.0701 487.918 20.7057 487.918 21.5078C487.918 22.3135 487.7 22.9491 487.263 23.4146C486.83 23.8765 486.223 24.1074 485.442 24.1074C484.751 24.1074 484.187 23.9159 483.75 23.5327C483.314 23.1496 483.065 22.6196 483.004 21.9429H483.944C484.005 22.3905 484.164 22.7288 484.422 22.958C484.68 23.1836 485.02 23.2964 485.442 23.2964C485.904 23.2964 486.266 23.1388 486.527 22.8237C486.792 22.5086 486.925 22.0736 486.925 21.5186C486.925 20.9958 486.782 20.5768 486.495 20.2617C486.212 19.943 485.834 19.7837 485.362 19.7837C484.929 19.7837 484.588 19.8786 484.341 20.0684L484.078 20.2832L483.283 20.0791ZM489.073 23.479C489.073 23.3071 489.123 23.1639 489.224 23.0493C489.327 22.9347 489.481 22.8774 489.686 22.8774C489.89 22.8774 490.044 22.9347 490.147 23.0493C490.255 23.1639 490.309 23.3071 490.309 23.479C490.309 23.6437 490.255 23.7816 490.147 23.8926C490.044 24.0036 489.89 24.0591 489.686 24.0591C489.481 24.0591 489.327 24.0036 489.224 23.8926C489.123 23.7816 489.073 23.6437 489.073 23.479ZM489.079 18.7363C489.079 18.5645 489.129 18.4212 489.229 18.3066C489.333 18.1921 489.487 18.1348 489.691 18.1348C489.895 18.1348 490.049 18.1921 490.153 18.3066C490.26 18.4212 490.314 18.5645 490.314 18.7363C490.314 18.901 490.26 19.0389 490.153 19.1499C490.049 19.2609 489.895 19.3164 489.691 19.3164C489.487 19.3164 489.333 19.2609 489.229 19.1499C489.129 19.0389 489.079 18.901 489.079 18.7363ZM496.571 20.6646C496.571 21.8283 496.373 22.693 495.975 23.2588C495.578 23.8245 494.956 24.1074 494.111 24.1074C493.277 24.1074 492.659 23.8317 492.258 23.2803C491.857 22.7253 491.65 21.8981 491.635 20.7988V19.4722C491.635 18.3228 491.834 17.4688 492.231 16.9102C492.629 16.3516 493.252 16.0723 494.101 16.0723C494.942 16.0723 495.562 16.3426 495.959 16.8833C496.356 17.4204 496.561 18.2511 496.571 19.3755V20.6646ZM495.578 19.3057C495.578 18.4642 495.459 17.8519 495.223 17.4688C494.987 17.082 494.613 16.8887 494.101 16.8887C493.592 16.8887 493.222 17.0802 492.989 17.4634C492.756 17.8465 492.636 18.4355 492.629 19.2305V20.8203C492.629 21.6654 492.751 22.2902 492.994 22.6948C493.241 23.0959 493.614 23.2964 494.111 23.2964C494.602 23.2964 494.965 23.1066 495.202 22.7271C495.442 22.3475 495.567 21.7495 495.578 20.9331V19.3057ZM502.748 20.6646C502.748 21.8283 502.549 22.693 502.152 23.2588C501.754 23.8245 501.133 24.1074 500.288 24.1074C499.454 24.1074 498.836 23.8317 498.435 23.2803C498.034 22.7253 497.826 21.8981 497.812 20.7988V19.4722C497.812 18.3228 498.011 17.4688 498.408 16.9102C498.806 16.3516 499.429 16.0723 500.277 16.0723C501.119 16.0723 501.738 16.3426 502.136 16.8833C502.533 17.4204 502.737 18.2511 502.748 19.3755V20.6646ZM501.754 19.3057C501.754 18.4642 501.636 17.8519 501.4 17.4688C501.164 17.082 500.789 16.8887 500.277 16.8887C499.769 16.8887 499.398 17.0802 499.166 17.4634C498.933 17.8465 498.813 18.4355 498.806 19.2305V20.8203C498.806 21.6654 498.927 22.2902 499.171 22.6948C499.418 23.0959 499.79 23.2964 500.288 23.2964C500.779 23.2964 501.142 23.1066 501.378 22.7271C501.618 22.3475 501.744 21.7495 501.754 20.9331V19.3057Z" fill="black" fill-opacity="0.8"/>
<g filter="url(#filter1_i_12_4577)">
<rect x="614" y="72" width="72" height="38" rx="10" fill="#F35888"/>
</g>
<path d="M631.611 86.9H635.875C636.802 86.9 637.582 87.1947 638.215 87.784C638.848 88.3647 639.164 89.0883 639.164 89.955C639.164 90.527 639.017 91.0513 638.722 91.528C638.427 91.996 638.029 92.36 637.526 92.62L639.489 96H637.201L635.446 93.01H633.678V96H631.611V86.9ZM635.875 88.798H633.678V91.112H635.875C636.204 91.112 636.477 91.0037 636.694 90.787C636.911 90.5617 637.019 90.2843 637.019 89.955C637.019 89.6257 636.911 89.3527 636.694 89.136C636.477 88.9107 636.204 88.798 635.875 88.798ZM646.815 93.322H641.784C641.896 93.6773 642.1 93.9633 642.395 94.18C642.689 94.3967 643.036 94.505 643.435 94.505C643.989 94.505 644.436 94.3057 644.774 93.907L646.659 94.336C646.347 94.908 645.905 95.3587 645.333 95.688C644.769 96.0087 644.132 96.169 643.422 96.169C642.364 96.169 641.485 95.831 640.783 95.155C640.081 94.479 639.73 93.634 639.73 92.62C639.73 91.6147 640.072 90.774 640.757 90.098C641.441 89.4133 642.295 89.071 643.318 89.071C644.332 89.071 645.181 89.4133 645.866 90.098C646.55 90.774 646.893 91.6147 646.893 92.62C646.893 92.8627 646.867 93.0967 646.815 93.322ZM641.797 91.879H644.904C644.782 91.5323 644.579 91.255 644.293 91.047C644.007 90.839 643.682 90.735 643.318 90.735C642.971 90.735 642.659 90.839 642.382 91.047C642.104 91.255 641.909 91.5323 641.797 91.879ZM649.632 96H647.682V86.25H649.632V96ZM650.521 92.62C650.521 91.5973 650.824 90.7523 651.431 90.085C652.037 89.409 652.8 89.071 653.719 89.071C654.412 89.071 655.036 89.279 655.591 89.695V89.24H657.528V96H655.591V95.532C655.053 95.9567 654.429 96.169 653.719 96.169C652.8 96.169 652.037 95.831 651.431 95.155C650.824 94.4703 650.521 93.6253 650.521 92.62ZM654.057 90.995C653.632 90.995 653.272 91.151 652.978 91.463C652.692 91.775 652.549 92.1563 652.549 92.607C652.549 93.075 652.692 93.465 652.978 93.777C653.272 94.089 653.632 94.245 654.057 94.245C654.473 94.245 654.828 94.089 655.123 93.777C655.417 93.465 655.565 93.075 655.565 92.607C655.565 92.1477 655.417 91.7663 655.123 91.463C654.828 91.151 654.473 90.995 654.057 90.995ZM663.136 96L661.784 94.037L660.445 96H658.157L660.627 92.516L658.3 89.24H660.575L661.784 90.995L662.993 89.24H665.268L662.954 92.516L665.411 96H663.136Z" fill="white"/>
<path d="M607.546 66.6951C607.329 65.9413 608.025 65.243 608.779 65.4568L616.075 67.5245C616.809 67.7325 617.049 68.6522 616.511 69.1925L611.309 74.413C610.771 74.9532 609.85 74.7163 609.64 73.9833L607.546 66.6951Z" fill="#F35888"/>
<g filter="url(#filter2_i_12_4577)">
<rect x="412" y="88" width="97" height="39" rx="10" fill="#F6BD11"/>
</g>
<path d="M421.163 97.3H426.916V98.906H422.912V100.336H426.278V101.942H422.912V105H421.163V97.3ZM427.066 102.14C427.066 101.275 427.322 100.56 427.836 99.995C428.349 99.423 428.994 99.137 429.772 99.137C430.358 99.137 430.886 99.313 431.356 99.665V99.28H432.995V105H431.356V104.604C430.901 104.963 430.373 105.143 429.772 105.143C428.994 105.143 428.349 104.857 427.836 104.285C427.322 103.706 427.066 102.991 427.066 102.14ZM430.058 100.765C429.698 100.765 429.394 100.897 429.145 101.161C428.903 101.425 428.782 101.748 428.782 102.129C428.782 102.525 428.903 102.855 429.145 103.119C429.394 103.383 429.698 103.515 430.058 103.515C430.41 103.515 430.71 103.383 430.96 103.119C431.209 102.855 431.334 102.525 431.334 102.129C431.334 101.74 431.209 101.418 430.96 101.161C430.71 100.897 430.41 100.765 430.058 100.765ZM439.698 101.106L438.037 101.59C437.935 101.341 437.773 101.143 437.553 100.996C437.333 100.842 437.084 100.765 436.805 100.765C436.424 100.765 436.105 100.897 435.848 101.161C435.592 101.418 435.463 101.74 435.463 102.129C435.463 102.525 435.592 102.855 435.848 103.119C436.105 103.383 436.424 103.515 436.805 103.515C437.084 103.515 437.333 103.442 437.553 103.295C437.773 103.141 437.935 102.939 438.037 102.69L439.698 103.174C439.478 103.775 439.108 104.256 438.587 104.615C438.067 104.967 437.473 105.143 436.805 105.143C435.925 105.143 435.196 104.857 434.616 104.285C434.037 103.706 433.747 102.991 433.747 102.14C433.747 101.282 434.037 100.567 434.616 99.995C435.196 99.423 435.925 99.137 436.805 99.137C437.473 99.137 438.067 99.3167 438.587 99.676C439.108 100.028 439.478 100.505 439.698 101.106ZM446.145 102.734H441.888C441.983 103.035 442.155 103.277 442.405 103.46C442.654 103.643 442.947 103.735 443.285 103.735C443.754 103.735 444.132 103.566 444.418 103.229L446.013 103.592C445.749 104.076 445.375 104.457 444.891 104.736C444.414 105.007 443.875 105.143 443.274 105.143C442.379 105.143 441.635 104.857 441.041 104.285C440.447 103.713 440.15 102.998 440.15 102.14C440.15 101.289 440.439 100.578 441.019 100.006C441.598 99.4267 442.32 99.137 443.186 99.137C444.044 99.137 444.762 99.4267 445.342 100.006C445.921 100.578 446.211 101.289 446.211 102.14C446.211 102.345 446.189 102.543 446.145 102.734ZM441.899 101.513H444.528C444.425 101.22 444.253 100.985 444.011 100.809C443.769 100.633 443.494 100.545 443.186 100.545C442.892 100.545 442.628 100.633 442.394 100.809C442.159 100.985 441.994 101.22 441.899 101.513ZM446.879 105V96.75H448.529V99.665C448.983 99.313 449.508 99.137 450.102 99.137C450.872 99.137 451.517 99.423 452.038 99.995C452.558 100.574 452.819 101.289 452.819 102.14C452.819 102.983 452.558 103.698 452.038 104.285C451.517 104.857 450.872 105.143 450.102 105.143C449.522 105.143 448.998 104.967 448.529 104.615V105H446.879ZM449.827 100.765C449.467 100.765 449.163 100.897 448.914 101.161C448.672 101.425 448.551 101.748 448.551 102.129C448.551 102.525 448.672 102.855 448.914 103.119C449.163 103.383 449.467 103.515 449.827 103.515C450.179 103.515 450.476 103.383 450.718 103.119C450.967 102.855 451.092 102.525 451.092 102.129C451.092 101.74 450.967 101.418 450.718 101.161C450.476 100.897 450.179 100.765 449.827 100.765ZM454.253 104.285C453.674 103.706 453.384 102.991 453.384 102.14C453.384 101.289 453.674 100.578 454.253 100.006C454.832 99.4267 455.562 99.137 456.442 99.137C457.315 99.137 458.041 99.4267 458.62 100.006C459.207 100.578 459.5 101.289 459.5 102.14C459.5 102.983 459.207 103.698 458.62 104.285C458.033 104.857 457.307 105.143 456.442 105.143C455.562 105.143 454.832 104.857 454.253 104.285ZM456.442 103.515C456.823 103.515 457.139 103.383 457.388 103.119C457.652 102.848 457.784 102.521 457.784 102.14C457.784 101.759 457.652 101.436 457.388 101.172C457.139 100.901 456.823 100.765 456.442 100.765C456.061 100.765 455.742 100.897 455.485 101.161C455.228 101.432 455.1 101.759 455.1 102.14C455.1 102.521 455.228 102.848 455.485 103.119C455.742 103.383 456.061 103.515 456.442 103.515ZM460.935 104.285C460.355 103.706 460.066 102.991 460.066 102.14C460.066 101.289 460.355 100.578 460.935 100.006C461.514 99.4267 462.244 99.137 463.124 99.137C463.996 99.137 464.722 99.4267 465.302 100.006C465.888 100.578 466.182 101.289 466.182 102.14C466.182 102.983 465.888 103.698 465.302 104.285C464.715 104.857 463.989 105.143 463.124 105.143C462.244 105.143 461.514 104.857 460.935 104.285ZM463.124 103.515C463.505 103.515 463.82 103.383 464.07 103.119C464.334 102.848 464.466 102.521 464.466 102.14C464.466 101.759 464.334 101.436 464.07 101.172C463.82 100.901 463.505 100.765 463.124 100.765C462.742 100.765 462.423 100.897 462.167 101.161C461.91 101.432 461.782 101.759 461.782 102.14C461.782 102.521 461.91 102.848 462.167 103.119C462.423 103.383 462.742 103.515 463.124 103.515ZM466.923 105V96.75H468.573V101.524L470.19 99.28H472.137L470.157 102.041L472.346 105H470.366L468.573 102.547V105H466.923ZM477.221 107.475H475.571V99.28H477.221V99.665C477.676 99.313 478.2 99.137 478.794 99.137C479.564 99.137 480.209 99.423 480.73 99.995C481.251 100.574 481.511 101.289 481.511 102.14C481.511 102.983 481.251 103.698 480.73 104.285C480.209 104.857 479.564 105.143 478.794 105.143C478.215 105.143 477.69 104.967 477.221 104.615V107.475ZM478.519 100.765C478.16 100.765 477.855 100.897 477.606 101.161C477.364 101.425 477.243 101.755 477.243 102.151C477.243 102.532 477.364 102.855 477.606 103.119C477.855 103.383 478.16 103.515 478.519 103.515C478.871 103.515 479.168 103.383 479.41 103.119C479.659 102.862 479.784 102.54 479.784 102.151C479.784 101.755 479.659 101.425 479.41 101.161C479.168 100.897 478.871 100.765 478.519 100.765ZM483.903 105H482.253V99.28H483.903V105ZM482.341 98.587C482.15 98.3963 482.055 98.1543 482.055 97.861C482.055 97.5677 482.15 97.3257 482.341 97.135C482.546 96.9443 482.792 96.849 483.078 96.849C483.371 96.849 483.613 96.9443 483.804 97.135C484.002 97.3183 484.101 97.5603 484.101 97.861C484.101 98.1617 484.002 98.4037 483.804 98.587C483.613 98.7777 483.371 98.873 483.078 98.873C482.792 98.873 482.546 98.7777 482.341 98.587ZM488.648 105L487.504 103.339L486.371 105H484.435L486.525 102.052L484.556 99.28H486.481L487.504 100.765L488.527 99.28H490.452L488.494 102.052L490.573 105H488.648ZM496.504 102.734H492.247C492.342 103.035 492.515 103.277 492.764 103.46C493.013 103.643 493.307 103.735 493.644 103.735C494.113 103.735 494.491 103.566 494.777 103.229L496.372 103.592C496.108 104.076 495.734 104.457 495.25 104.736C494.773 105.007 494.234 105.143 493.633 105.143C492.738 105.143 491.994 104.857 491.4 104.285C490.806 103.713 490.509 102.998 490.509 102.14C490.509 101.289 490.799 100.578 491.378 100.006C491.957 99.4267 492.68 99.137 493.545 99.137C494.403 99.137 495.122 99.4267 495.701 100.006C496.28 100.578 496.57 101.289 496.57 102.14C496.57 102.345 496.548 102.543 496.504 102.734ZM492.258 101.513H494.887C494.784 101.22 494.612 100.985 494.37 100.809C494.128 100.633 493.853 100.545 493.545 100.545C493.252 100.545 492.988 100.633 492.753 100.809C492.518 100.985 492.353 101.22 492.258 101.513ZM498.888 105H497.238V96.75H498.888V105ZM442.225 110.398L442.39 110.2H443.446L443.259 110.431C443.186 110.519 443.054 110.746 442.863 111.113C442.474 111.824 442.174 112.69 441.961 113.709C441.726 114.934 441.723 116.166 441.95 117.405C442.082 118.043 442.221 118.545 442.368 118.912C442.698 119.741 443.002 120.335 443.281 120.694L443.446 120.925H442.39L442.379 120.914C441.792 120.239 441.352 119.326 441.059 118.175C440.846 117.346 440.74 116.474 440.74 115.557C440.74 114.208 440.934 113.049 441.323 112.081C441.646 111.274 441.946 110.713 442.225 110.398ZM449.801 114.941L448.646 115.282C448.499 114.974 448.283 114.732 447.997 114.556C447.711 114.373 447.385 114.281 447.018 114.281C446.505 114.281 446.072 114.461 445.72 114.82C445.375 115.179 445.203 115.619 445.203 116.14C445.203 116.661 445.375 117.104 445.72 117.471C446.072 117.823 446.505 117.999 447.018 117.999C447.385 117.999 447.711 117.911 447.997 117.735C448.283 117.552 448.499 117.306 448.646 116.998L449.801 117.339C449.574 117.889 449.211 118.329 448.712 118.659C448.221 118.982 447.656 119.143 447.018 119.143C446.16 119.143 445.445 118.857 444.873 118.285C444.301 117.713 444.015 116.998 444.015 116.14C444.015 115.282 444.301 114.567 444.873 113.995C445.445 113.423 446.16 113.137 447.018 113.137C447.656 113.137 448.221 113.302 448.712 113.632C449.211 113.955 449.574 114.391 449.801 114.941ZM455.848 119H454.44L451.954 116.041L454.209 113.28H455.606L453.362 116.041L455.848 119ZM451.943 113.28V119H450.799V113.28H451.943ZM459.124 119.143C458.266 119.143 457.551 118.857 456.979 118.285C456.407 117.713 456.121 116.998 456.121 116.14C456.121 115.282 456.407 114.567 456.979 113.995C457.551 113.423 458.266 113.137 459.124 113.137C459.982 113.137 460.697 113.423 461.269 113.995C461.849 114.567 462.138 115.282 462.138 116.14C462.138 116.998 461.849 117.713 461.269 118.285C460.697 118.857 459.982 119.143 459.124 119.143ZM459.124 117.999C459.652 117.999 460.085 117.823 460.422 117.471C460.774 117.112 460.95 116.668 460.95 116.14C460.95 115.612 460.774 115.172 460.422 114.82C460.085 114.461 459.652 114.281 459.124 114.281C458.611 114.281 458.178 114.461 457.826 114.82C457.482 115.179 457.309 115.619 457.309 116.14C457.309 116.661 457.482 117.104 457.826 117.471C458.178 117.823 458.611 117.999 459.124 117.999ZM464.393 121.475H463.249V113.28H464.393V113.896C464.921 113.39 465.556 113.137 466.296 113.137C467.096 113.137 467.767 113.423 468.309 113.995C468.845 114.56 469.112 115.275 469.112 116.14C469.112 117.005 468.845 117.72 468.309 118.285C467.767 118.857 467.096 119.143 466.296 119.143C465.556 119.143 464.921 118.89 464.393 118.384V121.475ZM466.164 114.281C465.673 114.281 465.259 114.461 464.921 114.82C464.584 115.165 464.415 115.605 464.415 116.14C464.415 116.668 464.584 117.112 464.921 117.471C465.259 117.823 465.673 117.999 466.164 117.999C466.656 117.999 467.074 117.823 467.418 117.471C467.756 117.112 467.924 116.668 467.924 116.14C467.924 115.605 467.756 115.165 467.418 114.82C467.081 114.461 466.663 114.281 466.164 114.281ZM472.971 119.143C472.113 119.143 471.398 118.857 470.826 118.285C470.254 117.713 469.968 116.998 469.968 116.14C469.968 115.282 470.254 114.567 470.826 113.995C471.398 113.423 472.113 113.137 472.971 113.137C473.829 113.137 474.544 113.423 475.116 113.995C475.695 114.567 475.985 115.282 475.985 116.14C475.985 116.998 475.695 117.713 475.116 118.285C474.544 118.857 473.829 119.143 472.971 119.143ZM472.971 117.999C473.499 117.999 473.932 117.823 474.269 117.471C474.621 117.112 474.797 116.668 474.797 116.14C474.797 115.612 474.621 115.172 474.269 114.82C473.932 114.461 473.499 114.281 472.971 114.281C472.458 114.281 472.025 114.461 471.673 114.82C471.328 115.179 471.156 115.619 471.156 116.14C471.156 116.661 471.328 117.104 471.673 117.471C472.025 117.823 472.458 117.999 472.971 117.999ZM476.722 110.42L476.557 110.2H477.624L477.8 110.409C477.873 110.497 478.005 110.706 478.196 111.036C478.409 111.41 478.577 111.766 478.702 112.103C478.849 112.484 478.981 112.983 479.098 113.599C479.215 114.208 479.274 114.86 479.274 115.557C479.274 116.811 479.098 117.922 478.746 118.89C478.607 119.279 478.449 119.631 478.273 119.946C478.082 120.283 477.947 120.507 477.866 120.617C477.793 120.742 477.716 120.841 477.635 120.914L477.624 120.925H476.557L476.733 120.683C476.828 120.566 476.964 120.338 477.14 120.001C477.316 119.678 477.481 119.312 477.635 118.901C477.774 118.512 477.906 118.017 478.031 117.416C478.28 116.206 478.284 114.974 478.042 113.72C477.932 113.111 477.796 112.609 477.635 112.213C477.327 111.421 477.023 110.823 476.722 110.42Z" fill="white"/>
<path d="M514.329 83.8155C515.097 83.6531 515.744 84.3968 515.477 85.1342L512.895 92.2644C512.636 92.9815 511.701 93.1557 511.2 92.5803L506.363 87.0205C505.863 86.4451 506.165 85.5437 506.911 85.3858L514.329 83.8155Z" fill="#F6BD11"/>
<g filter="url(#filter3_i_12_4577)">
<rect x="516" y="133" width="92" height="41" rx="10" fill="#2D6EFD"/>
</g>
<path d="M547.019 150H542.759V141.6H546.779C547.491 141.6 548.087 141.816 548.567 142.248C549.047 142.664 549.287 143.196 549.287 143.844C549.287 144.548 548.991 145.124 548.399 145.572C548.791 145.78 549.099 146.068 549.323 146.436C549.547 146.796 549.659 147.192 549.659 147.624C549.659 148.304 549.407 148.872 548.903 149.328C548.391 149.776 547.763 150 547.019 150ZM547.019 146.28H544.103V148.752H547.019C547.371 148.752 547.667 148.636 547.907 148.404C548.147 148.164 548.267 147.868 548.267 147.516C548.267 147.164 548.147 146.872 547.907 146.64C547.667 146.4 547.371 146.28 547.019 146.28ZM546.779 142.848H544.103V145.032H546.779C547.099 145.032 547.363 144.928 547.571 144.72C547.779 144.512 547.883 144.252 547.883 143.94C547.883 143.628 547.779 143.368 547.571 143.16C547.363 142.952 547.099 142.848 546.779 142.848ZM552.174 150H550.926V143.76H552.174V150ZM550.962 142.836C550.81 142.676 550.734 142.48 550.734 142.248C550.734 142.016 550.81 141.82 550.962 141.66C551.122 141.5 551.318 141.42 551.55 141.42C551.782 141.42 551.978 141.5 552.138 141.66C552.298 141.82 552.378 142.016 552.378 142.248C552.378 142.48 552.298 142.676 552.138 142.836C551.978 142.996 551.782 143.076 551.55 143.076C551.318 143.076 551.122 142.996 550.962 142.836ZM553.656 150V143.76H554.904V144.672C555.36 143.96 556.044 143.604 556.956 143.604C557.676 143.604 558.268 143.836 558.732 144.3C559.204 144.772 559.44 145.356 559.44 146.052V150H558.192V146.412C558.192 145.948 558.04 145.564 557.736 145.26C557.432 144.948 557.048 144.792 556.584 144.792C556.104 144.792 555.704 144.948 555.384 145.26C555.064 145.572 554.904 145.96 554.904 146.424V150H553.656ZM563.922 150.156C562.986 150.156 562.206 149.844 561.582 149.22C560.958 148.596 560.646 147.816 560.646 146.88C560.646 145.944 560.958 145.164 561.582 144.54C562.206 143.916 562.986 143.604 563.922 143.604C564.858 143.604 565.638 143.916 566.262 144.54C566.894 145.164 567.21 145.944 567.21 146.88C567.21 147.816 566.894 148.596 566.262 149.22C565.638 149.844 564.858 150.156 563.922 150.156ZM563.922 148.908C564.498 148.908 564.97 148.716 565.338 148.332C565.722 147.94 565.914 147.456 565.914 146.88C565.914 146.304 565.722 145.824 565.338 145.44C564.97 145.048 564.498 144.852 563.922 144.852C563.362 144.852 562.89 145.048 562.506 145.44C562.13 145.832 561.942 146.312 561.942 146.88C561.942 147.448 562.13 147.932 562.506 148.332C562.89 148.716 563.362 148.908 563.922 148.908ZM567.774 145.32V143.76H568.626V142.548H570.426V143.76H571.842V145.32H570.426V147.66C570.426 147.852 570.49 148.012 570.618 148.14C570.746 148.26 570.91 148.32 571.11 148.32H571.842V150H570.81C570.194 150 569.674 149.812 569.25 149.436C568.834 149.052 568.626 148.576 568.626 148.008V145.32H567.774ZM578.948 147.528H574.304C574.408 147.856 574.596 148.12 574.868 148.32C575.14 148.52 575.46 148.62 575.828 148.62C576.34 148.62 576.752 148.436 577.064 148.068L578.804 148.464C578.516 148.992 578.108 149.408 577.58 149.712C577.06 150.008 576.472 150.156 575.816 150.156C574.84 150.156 574.028 149.844 573.38 149.22C572.732 148.596 572.408 147.816 572.408 146.88C572.408 145.952 572.724 145.176 573.356 144.552C573.988 143.92 574.776 143.604 575.72 143.604C576.656 143.604 577.44 143.92 578.072 144.552C578.704 145.176 579.02 145.952 579.02 146.88C579.02 147.104 578.996 147.32 578.948 147.528ZM574.316 146.196H577.184C577.072 145.876 576.884 145.62 576.62 145.428C576.356 145.236 576.056 145.14 575.72 145.14C575.4 145.14 575.112 145.236 574.856 145.428C574.6 145.62 574.42 145.876 574.316 146.196ZM581.548 150H579.748V141H581.548V150ZM542.609 156.616L542.789 156.4H543.941L543.737 156.652C543.657 156.748 543.513 156.996 543.305 157.396C542.881 158.172 542.553 159.116 542.321 160.228C542.065 161.564 542.061 162.908 542.309 164.26C542.453 164.956 542.605 165.504 542.765 165.904C543.125 166.808 543.457 167.456 543.761 167.848L543.941 168.1H542.789L542.777 168.088C542.137 167.352 541.657 166.356 541.337 165.1C541.105 164.196 540.989 163.244 540.989 162.244C540.989 160.772 541.201 159.508 541.625 158.452C541.977 157.572 542.305 156.96 542.609 156.616ZM550.874 161.572L549.614 161.944C549.454 161.608 549.218 161.344 548.906 161.152C548.594 160.952 548.238 160.852 547.838 160.852C547.278 160.852 546.806 161.048 546.422 161.44C546.046 161.832 545.858 162.312 545.858 162.88C545.858 163.448 546.046 163.932 546.422 164.332C546.806 164.716 547.278 164.908 547.838 164.908C548.238 164.908 548.594 164.812 548.906 164.62C549.218 164.42 549.454 164.152 549.614 163.816L550.874 164.188C550.626 164.788 550.23 165.268 549.686 165.628C549.15 165.98 548.534 166.156 547.838 166.156C546.902 166.156 546.122 165.844 545.498 165.22C544.874 164.596 544.562 163.816 544.562 162.88C544.562 161.944 544.874 161.164 545.498 160.54C546.122 159.916 546.902 159.604 547.838 159.604C548.534 159.604 549.15 159.784 549.686 160.144C550.23 160.496 550.626 160.972 550.874 161.572ZM557.471 166H555.935L553.223 162.772L555.683 159.76H557.207L554.759 162.772L557.471 166ZM553.211 159.76V166H551.963V159.76H553.211ZM561.045 166.156C560.109 166.156 559.329 165.844 558.705 165.22C558.081 164.596 557.769 163.816 557.769 162.88C557.769 161.944 558.081 161.164 558.705 160.54C559.329 159.916 560.109 159.604 561.045 159.604C561.981 159.604 562.761 159.916 563.385 160.54C564.017 161.164 564.333 161.944 564.333 162.88C564.333 163.816 564.017 164.596 563.385 165.22C562.761 165.844 561.981 166.156 561.045 166.156ZM561.045 164.908C561.621 164.908 562.093 164.716 562.461 164.332C562.845 163.94 563.037 163.456 563.037 162.88C563.037 162.304 562.845 161.824 562.461 161.44C562.093 161.048 561.621 160.852 561.045 160.852C560.485 160.852 560.013 161.048 559.629 161.44C559.253 161.832 559.065 162.312 559.065 162.88C559.065 163.448 559.253 163.932 559.629 164.332C560.013 164.716 560.485 164.908 561.045 164.908ZM566.793 168.7H565.545V159.76H566.793V160.432C567.369 159.88 568.061 159.604 568.869 159.604C569.741 159.604 570.473 159.916 571.065 160.54C571.649 161.156 571.941 161.936 571.941 162.88C571.941 163.824 571.649 164.604 571.065 165.22C570.473 165.844 569.741 166.156 568.869 166.156C568.061 166.156 567.369 165.88 566.793 165.328V168.7ZM568.725 160.852C568.189 160.852 567.737 161.048 567.369 161.44C567.001 161.816 566.817 162.296 566.817 162.88C566.817 163.456 567.001 163.94 567.369 164.332C567.737 164.716 568.189 164.908 568.725 164.908C569.261 164.908 569.717 164.716 570.093 164.332C570.461 163.94 570.645 163.456 570.645 162.88C570.645 162.296 570.461 161.816 570.093 161.44C569.725 161.048 569.269 160.852 568.725 160.852ZM576.15 166.156C575.214 166.156 574.434 165.844 573.81 165.22C573.186 164.596 572.874 163.816 572.874 162.88C572.874 161.944 573.186 161.164 573.81 160.54C574.434 159.916 575.214 159.604 576.15 159.604C577.086 159.604 577.866 159.916 578.49 160.54C579.122 161.164 579.438 161.944 579.438 162.88C579.438 163.816 579.122 164.596 578.49 165.22C577.866 165.844 577.086 166.156 576.15 166.156ZM576.15 164.908C576.726 164.908 577.198 164.716 577.566 164.332C577.95 163.94 578.142 163.456 578.142 162.88C578.142 162.304 577.95 161.824 577.566 161.44C577.198 161.048 576.726 160.852 576.15 160.852C575.59 160.852 575.118 161.048 574.734 161.44C574.358 161.832 574.17 162.312 574.17 162.88C574.17 163.448 574.358 163.932 574.734 164.332C575.118 164.716 575.59 164.908 576.15 164.908ZM580.242 156.64L580.062 156.4H581.226L581.418 156.628C581.498 156.724 581.642 156.952 581.85 157.312C582.082 157.72 582.266 158.108 582.402 158.476C582.562 158.892 582.706 159.436 582.834 160.108C582.962 160.772 583.026 161.484 583.026 162.244C583.026 163.612 582.834 164.824 582.45 165.88C582.298 166.304 582.126 166.688 581.934 167.032C581.726 167.4 581.578 167.644 581.49 167.764C581.41 167.9 581.326 168.008 581.238 168.088L581.226 168.1H580.062L580.254 167.836C580.358 167.708 580.506 167.46 580.698 167.092C580.89 166.74 581.07 166.34 581.238 165.892C581.39 165.468 581.534 164.928 581.67 164.272C581.942 162.952 581.946 161.608 581.682 160.24C581.562 159.576 581.414 159.028 581.238 158.596C580.902 157.732 580.57 157.08 580.242 156.64Z" fill="white"/>
<g filter="url(#filter4_i_12_4577)">
<rect x="628.633" y="187.532" width="60" height="38" rx="10" fill="#41D3ED"/>
</g>
<path d="M645.282 204.298C645.282 204.042 645.17 203.826 644.946 203.65C644.73 203.474 644.466 203.386 644.154 203.386C643.842 203.386 643.558 203.486 643.302 203.686C643.046 203.886 642.846 204.158 642.702 204.502L641.01 203.698C641.298 203.05 641.718 202.546 642.27 202.186C642.83 201.818 643.458 201.634 644.154 201.634C645.002 201.634 645.718 201.89 646.302 202.402C646.886 202.906 647.178 203.518 647.178 204.238C647.178 205.102 646.57 206.094 645.354 207.214L644.034 208.438H647.238V210.19H641.226V208.822L644.238 205.99C644.934 205.334 645.282 204.77 645.282 204.298ZM650.96 207.07C650.96 206.126 651.24 205.346 651.8 204.73C652.36 204.106 653.064 203.794 653.912 203.794C654.552 203.794 655.128 203.986 655.64 204.37V201.19H657.428V210.19H655.64V209.758C655.144 210.15 654.568 210.346 653.912 210.346C653.064 210.346 652.36 210.034 651.8 209.41C651.24 208.778 650.96 207.998 650.96 207.07ZM654.224 205.57C653.832 205.57 653.5 205.714 653.228 206.002C652.964 206.29 652.832 206.642 652.832 207.058C652.832 207.49 652.964 207.85 653.228 208.138C653.5 208.426 653.832 208.57 654.224 208.57C654.608 208.57 654.936 208.426 655.208 208.138C655.48 207.85 655.616 207.49 655.616 207.058C655.616 206.634 655.48 206.282 655.208 206.002C654.936 205.714 654.608 205.57 654.224 205.57ZM659.198 209.41C658.566 208.778 658.25 207.998 658.25 207.07C658.25 206.142 658.566 205.366 659.198 204.742C659.83 204.11 660.626 203.794 661.586 203.794C662.538 203.794 663.33 204.11 663.962 204.742C664.602 205.366 664.922 206.142 664.922 207.07C664.922 207.99 664.602 208.77 663.962 209.41C663.322 210.034 662.53 210.346 661.586 210.346C660.626 210.346 659.83 210.034 659.198 209.41ZM661.586 208.57C662.002 208.57 662.346 208.426 662.618 208.138C662.906 207.842 663.05 207.486 663.05 207.07C663.05 206.654 662.906 206.302 662.618 206.014C662.346 205.718 662.002 205.57 661.586 205.57C661.17 205.57 660.822 205.714 660.542 206.002C660.262 206.298 660.122 206.654 660.122 207.07C660.122 207.486 660.262 207.842 660.542 208.138C660.822 208.426 661.17 208.57 661.586 208.57Z" fill="white"/>
<path d="M674.441 205.942L672.629 206.47C672.517 206.198 672.341 205.982 672.101 205.822C671.861 205.654 671.589 205.57 671.285 205.57C670.869 205.57 670.521 205.714 670.241 206.002C669.961 206.282 669.821 206.634 669.821 207.058C669.821 207.49 669.961 207.85 670.241 208.138C670.521 208.426 670.869 208.57 671.285 208.57C671.589 208.57 671.861 208.49 672.101 208.33C672.341 208.162 672.517 207.942 672.629 207.67L674.441 208.198C674.201 208.854 673.797 209.378 673.229 209.77C672.661 210.154 672.013 210.346 671.285 210.346C670.325 210.346 669.529 210.034 668.897 209.41C668.265 208.778 667.949 207.998 667.949 207.07C667.949 206.134 668.265 205.354 668.897 204.73C669.529 204.106 670.325 203.794 671.285 203.794C672.013 203.794 672.661 203.99 673.229 204.382C673.797 204.766 674.201 205.286 674.441 205.942Z" fill="#036D78"/>
<path d="M621.905 182.134C621.688 181.38 622.384 180.681 623.139 180.895L630.435 182.963C631.168 183.171 631.409 184.091 630.87 184.631L625.669 189.851C625.13 190.392 624.21 190.155 623.999 189.422L621.905 182.134Z" fill="#41D3ED"/>
<g filter="url(#filter5_i_12_4577)">
<rect x="655" y="258" width="65" height="39" rx="10" fill="#2D6EFD"/>
</g>
<path d="M670.085 274.759L668.642 275.188C668.564 274.893 668.365 274.646 668.044 274.447C667.723 274.239 667.351 274.135 666.926 274.135C666.458 274.135 666.068 274.248 665.756 274.473C665.444 274.69 665.288 274.967 665.288 275.305C665.236 275.6 665.457 275.894 665.951 276.189C666.038 276.241 666.207 276.31 666.458 276.397C666.779 276.501 666.965 276.562 667.017 276.579L667.706 276.774C668.391 276.956 668.971 277.19 669.448 277.476C670.089 277.866 670.41 278.494 670.41 279.361C670.41 280.202 670.098 280.882 669.474 281.402C668.841 281.913 668.04 282.169 667.069 282.169C666.185 282.169 665.427 281.965 664.794 281.558C664.17 281.142 663.767 280.622 663.585 279.998L665.028 279.543C665.106 279.89 665.331 280.18 665.704 280.414C666.085 280.648 666.54 280.765 667.069 280.765C667.606 280.765 668.053 280.648 668.408 280.414C668.763 280.171 668.941 279.859 668.941 279.478C668.941 279.227 668.841 279.01 668.642 278.828C668.469 278.655 668.291 278.529 668.109 278.451C667.927 278.364 667.654 278.273 667.29 278.178C666.189 277.857 665.461 277.606 665.106 277.424C664.257 276.965 663.832 276.293 663.832 275.409C663.832 274.612 664.118 273.966 664.69 273.472C665.262 272.978 665.999 272.731 666.9 272.731C667.697 272.731 668.386 272.926 668.967 273.316C669.539 273.689 669.912 274.17 670.085 274.759ZM673.156 282H671.804V275.24H673.156V282ZM671.843 274.239C671.678 274.066 671.596 273.853 671.596 273.602C671.596 273.351 671.678 273.138 671.843 272.965C672.016 272.792 672.229 272.705 672.48 272.705C672.731 272.705 672.944 272.792 673.117 272.965C673.29 273.138 673.377 273.351 673.377 273.602C673.377 273.853 673.29 274.066 673.117 274.239C672.944 274.412 672.731 274.499 672.48 274.499C672.229 274.499 672.016 274.412 671.843 274.239ZM676.114 284.925H674.762V275.24H676.114V275.968C676.738 275.37 677.488 275.071 678.363 275.071C679.308 275.071 680.101 275.409 680.742 276.085C681.375 276.752 681.691 277.597 681.691 278.62C681.691 279.643 681.375 280.488 680.742 281.155C680.101 281.831 679.308 282.169 678.363 282.169C677.488 282.169 676.738 281.87 676.114 281.272V284.925ZM678.207 276.423C677.626 276.423 677.137 276.635 676.738 277.06C676.339 277.467 676.14 277.987 676.14 278.62C676.14 279.244 676.339 279.768 676.738 280.193C677.137 280.609 677.626 280.817 678.207 280.817C678.788 280.817 679.282 280.609 679.689 280.193C680.088 279.768 680.287 279.244 680.287 278.62C680.287 277.987 680.088 277.467 679.689 277.06C679.29 276.635 678.796 276.423 678.207 276.423ZM692.733 274.759L691.29 275.188C691.212 274.893 691.013 274.646 690.692 274.447C690.372 274.239 689.999 274.135 689.574 274.135C689.106 274.135 688.716 274.248 688.404 274.473C688.092 274.69 687.936 274.967 687.936 275.305C687.884 275.6 688.105 275.894 688.599 276.189C688.686 276.241 688.855 276.31 689.106 276.397C689.427 276.501 689.613 276.562 689.665 276.579L690.354 276.774C691.039 276.956 691.62 277.19 692.096 277.476C692.738 277.866 693.058 278.494 693.058 279.361C693.058 280.202 692.746 280.882 692.122 281.402C691.49 281.913 690.688 282.169 689.717 282.169C688.833 282.169 688.075 281.965 687.442 281.558C686.818 281.142 686.415 280.622 686.233 279.998L687.676 279.543C687.754 279.89 687.98 280.18 688.352 280.414C688.734 280.648 689.189 280.765 689.717 280.765C690.255 280.765 690.701 280.648 691.056 280.414C691.412 280.171 691.589 279.859 691.589 279.478C691.589 279.227 691.49 279.01 691.29 278.828C691.117 278.655 690.939 278.529 690.757 278.451C690.575 278.364 690.302 278.273 689.938 278.178C688.838 277.857 688.11 277.606 687.754 277.424C686.905 276.965 686.48 276.293 686.48 275.409C686.48 274.612 686.766 273.966 687.338 273.472C687.91 272.978 688.647 272.731 689.548 272.731C690.346 272.731 691.035 272.926 691.615 273.316C692.187 273.689 692.56 274.17 692.733 274.759ZM695.804 282H694.452V275.24H695.804V282ZM694.491 274.239C694.327 274.066 694.244 273.853 694.244 273.602C694.244 273.351 694.327 273.138 694.491 272.965C694.665 272.792 694.877 272.705 695.128 272.705C695.38 272.705 695.592 272.792 695.765 272.965C695.939 273.138 696.025 273.351 696.025 273.602C696.025 273.853 695.939 274.066 695.765 274.239C695.592 274.412 695.38 274.499 695.128 274.499C694.877 274.499 694.665 274.412 694.491 274.239ZM698.762 282H697.41V275.24H698.762V276.098C699.23 275.413 699.919 275.071 700.829 275.071C701.297 275.071 701.722 275.179 702.103 275.396C702.485 275.604 702.792 275.894 703.026 276.267C703.13 276.102 703.256 275.938 703.403 275.773C703.585 275.591 703.85 275.431 704.196 275.292C704.543 275.145 704.911 275.071 705.301 275.071C706.073 275.071 706.71 275.309 707.212 275.786C707.724 276.271 707.979 276.869 707.979 277.58V282H706.627V277.957C706.627 277.506 706.476 277.129 706.172 276.826C705.869 276.514 705.492 276.358 705.041 276.358C704.565 276.358 704.166 276.514 703.845 276.826C703.533 277.121 703.377 277.502 703.377 277.97V282H702.025V277.957C702.025 277.506 701.874 277.129 701.57 276.826C701.267 276.514 700.89 276.358 700.439 276.358C699.963 276.358 699.564 276.514 699.243 276.826C698.923 277.121 698.762 277.502 698.762 277.97V282Z" fill="white"/>
<path d="M724.813 251.085C725.548 250.811 726.298 251.451 726.143 252.22L724.642 259.653C724.491 260.401 723.592 260.711 723.012 260.216L717.407 255.431C716.827 254.936 716.993 254 717.708 253.734L724.813 251.085Z" fill="#2D6EFD"/>
<path d="M594.317 221.823C595.052 221.549 595.802 222.189 595.647 222.957L594.146 230.391C593.995 231.138 593.096 231.448 592.516 230.953L586.911 226.168C586.331 225.673 586.497 224.737 587.211 224.471L594.317 221.823Z" fill="#B98EE5"/>
<path d="M614.091 126.961C614.825 126.687 615.575 127.327 615.42 128.096L613.919 135.529C613.768 136.277 612.87 136.587 612.29 136.092L606.685 131.307C606.105 130.812 606.27 129.876 606.985 129.609L614.091 126.961Z" fill="#2D6EFD"/>
<g filter="url(#filter6_i_12_4577)">
<rect x="476" y="227" width="113" height="38" rx="10" fill="#B98EE5"/>
</g>
<path d="M490.678 239.876L487.719 235.3H489.138L491.283 238.699L493.472 235.3H494.891L491.91 239.821V243H490.678V239.876ZM497.331 237.137C498.072 237.137 498.706 237.39 499.234 237.896V237.28H500.378V243H499.234V242.384C498.706 242.89 498.072 243.143 497.331 243.143C496.532 243.143 495.861 242.857 495.318 242.285C494.783 241.72 494.515 241.005 494.515 240.14C494.515 239.275 494.783 238.56 495.318 237.995C495.861 237.423 496.532 237.137 497.331 237.137ZM497.452 238.281C496.961 238.281 496.546 238.461 496.209 238.82C495.872 239.165 495.703 239.605 495.703 240.14C495.703 240.668 495.872 241.112 496.209 241.471C496.554 241.823 496.968 241.999 497.452 241.999C497.951 241.999 498.369 241.823 498.706 241.471C499.043 241.112 499.212 240.668 499.212 240.14C499.212 239.605 499.043 239.165 498.706 238.82C498.369 238.461 497.951 238.281 497.452 238.281ZM501.74 243V237.28H502.884V238.116C503.302 237.463 503.929 237.137 504.765 237.137C505.425 237.137 505.967 237.35 506.393 237.775C506.825 238.208 507.042 238.743 507.042 239.381V243H505.898V239.711C505.898 239.286 505.758 238.934 505.48 238.655C505.201 238.369 504.849 238.226 504.424 238.226C503.984 238.226 503.617 238.369 503.324 238.655C503.03 238.941 502.884 239.297 502.884 239.722V243H501.74ZM510.963 237.137C511.703 237.137 512.338 237.39 512.866 237.896V234.75H514.01V243H512.866V242.384C512.338 242.89 511.703 243.143 510.963 243.143C510.163 243.143 509.492 242.857 508.95 242.285C508.414 241.72 508.147 241.005 508.147 240.14C508.147 239.275 508.414 238.56 508.95 237.995C509.492 237.423 510.163 237.137 510.963 237.137ZM511.084 238.281C510.592 238.281 510.178 238.461 509.841 238.82C509.503 239.165 509.335 239.605 509.335 240.14C509.335 240.668 509.503 241.112 509.841 241.471C510.185 241.823 510.6 241.999 511.084 241.999C511.582 241.999 512 241.823 512.338 241.471C512.675 241.112 512.844 240.668 512.844 240.14C512.844 239.605 512.675 239.165 512.338 238.82C512 238.461 511.582 238.281 511.084 238.281ZM521.047 240.558H516.295C516.383 241.005 516.6 241.372 516.944 241.658C517.296 241.937 517.711 242.076 518.187 242.076C518.833 242.076 519.339 241.838 519.705 241.361L520.827 241.702C520.563 242.149 520.197 242.501 519.727 242.758C519.265 243.015 518.752 243.143 518.187 243.143C517.307 243.143 516.578 242.857 515.998 242.285C515.412 241.713 515.118 240.998 515.118 240.14C515.118 239.289 515.401 238.574 515.965 237.995C516.537 237.423 517.249 237.137 518.099 237.137C518.95 237.137 519.654 237.423 520.211 237.995C520.783 238.567 521.069 239.282 521.069 240.14C521.069 240.169 521.062 240.309 521.047 240.558ZM516.306 239.645H519.892C519.79 239.22 519.57 238.875 519.232 238.611C518.895 238.34 518.506 238.204 518.066 238.204C517.648 238.204 517.274 238.34 516.944 238.611C516.622 238.875 516.409 239.22 516.306 239.645ZM525.72 243L524.213 240.987L522.695 243H521.342L523.531 240.063L521.452 237.28H522.794L524.213 239.15L525.621 237.28H526.974L524.884 240.063L527.073 243H525.72ZM533.392 237.137C534.133 237.137 534.767 237.39 535.295 237.896V237.28H536.439V243H535.295V242.384C534.767 242.89 534.133 243.143 533.392 243.143C532.593 243.143 531.922 242.857 531.379 242.285C530.844 241.72 530.576 241.005 530.576 240.14C530.576 239.275 530.844 238.56 531.379 237.995C531.922 237.423 532.593 237.137 533.392 237.137ZM533.513 238.281C533.022 238.281 532.608 238.461 532.27 238.82C531.933 239.165 531.764 239.605 531.764 240.14C531.764 240.668 531.933 241.112 532.27 241.471C532.615 241.823 533.029 241.999 533.513 241.999C534.012 241.999 534.43 241.823 534.767 241.471C535.105 241.112 535.273 240.668 535.273 240.14C535.273 239.605 535.105 239.165 534.767 238.82C534.43 238.461 534.012 238.281 533.513 238.281ZM537.801 243V237.28H538.945V238.116C539.363 237.463 539.99 237.137 540.826 237.137C541.486 237.137 542.029 237.35 542.454 237.775C542.887 238.208 543.103 238.743 543.103 239.381V243H541.959V239.711C541.959 239.286 541.82 238.934 541.541 238.655C541.262 238.369 540.91 238.226 540.485 238.226C540.045 238.226 539.678 238.369 539.385 238.655C539.092 238.941 538.945 239.297 538.945 239.722V243H537.801ZM547.024 237.137C547.765 237.137 548.399 237.39 548.927 237.896V237.28H550.071V243H548.927V242.384C548.399 242.89 547.765 243.143 547.024 243.143C546.225 243.143 545.554 242.857 545.011 242.285C544.476 241.72 544.208 241.005 544.208 240.14C544.208 239.275 544.476 238.56 545.011 237.995C545.554 237.423 546.225 237.137 547.024 237.137ZM547.145 238.281C546.654 238.281 546.24 238.461 545.902 238.82C545.565 239.165 545.396 239.605 545.396 240.14C545.396 240.668 545.565 241.112 545.902 241.471C546.247 241.823 546.661 241.999 547.145 241.999C547.644 241.999 548.062 241.823 548.399 241.471C548.737 241.112 548.905 240.668 548.905 240.14C548.905 239.605 548.737 239.165 548.399 238.82C548.062 238.461 547.644 238.281 547.145 238.281ZM552.577 243H551.433V234.75H552.577V243ZM555.366 243.484L555.619 242.857L553.386 237.28H554.563L556.191 241.438L557.874 237.28H559.051L556.356 243.869C556.129 244.426 555.832 244.833 555.465 245.09C555.098 245.347 554.629 245.475 554.057 245.475H553.815V244.375H554.057C554.394 244.375 554.666 244.305 554.871 244.166C555.076 244.027 555.241 243.799 555.366 243.484ZM559.316 238.281V237.28H560.185V236.147H561.329V237.28H562.847V238.281H561.329V241.097C561.329 241.324 561.402 241.515 561.549 241.669C561.695 241.823 561.879 241.9 562.099 241.9H562.847V243H562.011C561.497 243 561.065 242.835 560.713 242.505C560.361 242.16 560.185 241.742 560.185 241.251V238.281H559.316ZM564.995 243H563.851V237.28H564.995V243ZM563.884 236.433C563.745 236.286 563.675 236.107 563.675 235.894C563.675 235.681 563.745 235.502 563.884 235.355C564.031 235.208 564.21 235.135 564.423 235.135C564.636 235.135 564.815 235.208 564.962 235.355C565.109 235.502 565.182 235.681 565.182 235.894C565.182 236.107 565.109 236.286 564.962 236.433C564.815 236.58 564.636 236.653 564.423 236.653C564.21 236.653 564.031 236.58 563.884 236.433ZM571.887 238.941L570.732 239.282C570.585 238.974 570.369 238.732 570.083 238.556C569.797 238.373 569.471 238.281 569.104 238.281C568.591 238.281 568.158 238.461 567.806 238.82C567.461 239.179 567.289 239.619 567.289 240.14C567.289 240.661 567.461 241.104 567.806 241.471C568.158 241.823 568.591 241.999 569.104 241.999C569.471 241.999 569.797 241.911 570.083 241.735C570.369 241.552 570.585 241.306 570.732 240.998L571.887 241.339C571.66 241.889 571.297 242.329 570.798 242.659C570.307 242.982 569.742 243.143 569.104 243.143C568.246 243.143 567.531 242.857 566.959 242.285C566.387 241.713 566.101 240.998 566.101 240.14C566.101 239.282 566.387 238.567 566.959 237.995C567.531 237.423 568.246 237.137 569.104 237.137C569.742 237.137 570.307 237.302 570.798 237.632C571.297 237.955 571.66 238.391 571.887 238.941ZM576.944 238.589L575.866 238.776C575.734 238.351 575.36 238.138 574.744 238.138C574.465 238.138 574.238 238.193 574.062 238.303C573.886 238.413 573.798 238.563 573.798 238.754C573.798 239.003 573.981 239.194 574.348 239.326L575.635 239.766C576.126 239.949 576.482 240.173 576.702 240.437C576.929 240.701 577.043 241.027 577.043 241.416C577.043 241.966 576.841 242.391 576.438 242.692C576.035 242.993 575.503 243.143 574.843 243.143C574.198 243.143 573.673 243.004 573.27 242.725C572.867 242.439 572.625 242.047 572.544 241.548L573.622 241.383C573.673 241.61 573.809 241.794 574.029 241.933C574.249 242.072 574.528 242.142 574.865 242.142C575.18 242.142 575.437 242.08 575.635 241.955C575.84 241.83 575.943 241.662 575.943 241.449C575.943 241.178 575.712 240.958 575.25 240.789L573.974 240.36C573.527 240.206 573.2 240.008 572.995 239.766C572.797 239.524 572.698 239.216 572.698 238.842C572.698 238.292 572.892 237.87 573.281 237.577C573.67 237.284 574.187 237.137 574.832 237.137C575.411 237.137 575.888 237.269 576.262 237.533C576.636 237.79 576.863 238.142 576.944 238.589ZM514.725 248.398L514.89 248.2H515.946L515.759 248.431C515.686 248.519 515.554 248.746 515.363 249.113C514.974 249.824 514.674 250.69 514.461 251.709C514.226 252.934 514.223 254.166 514.45 255.405C514.582 256.043 514.721 256.545 514.868 256.912C515.198 257.741 515.502 258.335 515.781 258.694L515.946 258.925H514.89L514.879 258.914C514.292 258.239 513.852 257.326 513.559 256.175C513.346 255.346 513.24 254.474 513.24 253.557C513.24 252.208 513.434 251.049 513.823 250.081C514.146 249.274 514.446 248.713 514.725 248.398ZM522.301 252.941L521.146 253.282C520.999 252.974 520.783 252.732 520.497 252.556C520.211 252.373 519.885 252.281 519.518 252.281C519.005 252.281 518.572 252.461 518.22 252.82C517.875 253.179 517.703 253.619 517.703 254.14C517.703 254.661 517.875 255.104 518.22 255.471C518.572 255.823 519.005 255.999 519.518 255.999C519.885 255.999 520.211 255.911 520.497 255.735C520.783 255.552 520.999 255.306 521.146 254.998L522.301 255.339C522.074 255.889 521.711 256.329 521.212 256.659C520.721 256.982 520.156 257.143 519.518 257.143C518.66 257.143 517.945 256.857 517.373 256.285C516.801 255.713 516.515 254.998 516.515 254.14C516.515 253.282 516.801 252.567 517.373 251.995C517.945 251.423 518.66 251.137 519.518 251.137C520.156 251.137 520.721 251.302 521.212 251.632C521.711 251.955 522.074 252.391 522.301 252.941ZM528.348 257H526.94L524.454 254.041L526.709 251.28H528.106L525.862 254.041L528.348 257ZM524.443 251.28V257H523.299V251.28H524.443ZM531.624 257.143C530.766 257.143 530.051 256.857 529.479 256.285C528.907 255.713 528.621 254.998 528.621 254.14C528.621 253.282 528.907 252.567 529.479 251.995C530.051 251.423 530.766 251.137 531.624 251.137C532.482 251.137 533.197 251.423 533.769 251.995C534.349 252.567 534.638 253.282 534.638 254.14C534.638 254.998 534.349 255.713 533.769 256.285C533.197 256.857 532.482 257.143 531.624 257.143ZM531.624 255.999C532.152 255.999 532.585 255.823 532.922 255.471C533.274 255.112 533.45 254.668 533.45 254.14C533.45 253.612 533.274 253.172 532.922 252.82C532.585 252.461 532.152 252.281 531.624 252.281C531.111 252.281 530.678 252.461 530.326 252.82C529.982 253.179 529.809 253.619 529.809 254.14C529.809 254.661 529.982 255.104 530.326 255.471C530.678 255.823 531.111 255.999 531.624 255.999ZM536.893 259.475H535.749V251.28H536.893V251.896C537.421 251.39 538.056 251.137 538.796 251.137C539.596 251.137 540.267 251.423 540.809 251.995C541.345 252.56 541.612 253.275 541.612 254.14C541.612 255.005 541.345 255.72 540.809 256.285C540.267 256.857 539.596 257.143 538.796 257.143C538.056 257.143 537.421 256.89 536.893 256.384V259.475ZM538.664 252.281C538.173 252.281 537.759 252.461 537.421 252.82C537.084 253.165 536.915 253.605 536.915 254.14C536.915 254.668 537.084 255.112 537.421 255.471C537.759 255.823 538.173 255.999 538.664 255.999C539.156 255.999 539.574 255.823 539.918 255.471C540.256 255.112 540.424 254.668 540.424 254.14C540.424 253.605 540.256 253.165 539.918 252.82C539.581 252.461 539.163 252.281 538.664 252.281ZM545.471 257.143C544.613 257.143 543.898 256.857 543.326 256.285C542.754 255.713 542.468 254.998 542.468 254.14C542.468 253.282 542.754 252.567 543.326 251.995C543.898 251.423 544.613 251.137 545.471 251.137C546.329 251.137 547.044 251.423 547.616 251.995C548.195 252.567 548.485 253.282 548.485 254.14C548.485 254.998 548.195 255.713 547.616 256.285C547.044 256.857 546.329 257.143 545.471 257.143ZM545.471 255.999C545.999 255.999 546.432 255.823 546.769 255.471C547.121 255.112 547.297 254.668 547.297 254.14C547.297 253.612 547.121 253.172 546.769 252.82C546.432 252.461 545.999 252.281 545.471 252.281C544.958 252.281 544.525 252.461 544.173 252.82C543.828 253.179 543.656 253.619 543.656 254.14C543.656 254.661 543.828 255.104 544.173 255.471C544.525 255.823 544.958 255.999 545.471 255.999ZM549.222 248.42L549.057 248.2H550.124L550.3 248.409C550.373 248.497 550.505 248.706 550.696 249.036C550.909 249.41 551.077 249.766 551.202 250.103C551.349 250.484 551.481 250.983 551.598 251.599C551.715 252.208 551.774 252.86 551.774 253.557C551.774 254.811 551.598 255.922 551.246 256.89C551.107 257.279 550.949 257.631 550.773 257.946C550.582 258.283 550.447 258.507 550.366 258.617C550.293 258.742 550.216 258.841 550.135 258.914L550.124 258.925H549.057L549.233 258.683C549.328 258.566 549.464 258.338 549.64 258.001C549.816 257.678 549.981 257.312 550.135 256.901C550.274 256.512 550.406 256.017 550.531 255.416C550.78 254.206 550.784 252.974 550.542 251.72C550.432 251.111 550.296 250.609 550.135 250.213C549.827 249.421 549.523 248.823 549.222 248.42Z" fill="white"/>
<g filter="url(#filter7_i_12_4577)">
<rect x="418.98" y="304.599" width="86" height="39" rx="10" fill="#F35888"/>
</g>
<circle cx="447.709" cy="323.427" r="11.6542" fill="#FF1446" stroke="white" stroke-width="2"/>
<line x1="448.627" y1="315.518" x2="448.627" y2="330.545" stroke="white" stroke-width="5"/>
<line x1="455.618" y1="323.554" x2="440.591" y2="323.554" stroke="white" stroke-width="5"/>
<path d="M467.92 321.319L466.324 322.075L465.484 320.241L468.522 318.799H470.048V328.599H467.92V321.319ZM471.869 325.239V322.159C471.869 321.151 472.233 320.311 472.961 319.639C473.698 318.957 474.613 318.617 475.705 318.617C476.816 318.617 477.73 318.957 478.449 319.639C479.186 320.311 479.555 321.151 479.555 322.159V325.239C479.555 326.247 479.186 327.091 478.449 327.773C477.721 328.445 476.806 328.781 475.705 328.781C474.613 328.781 473.698 328.445 472.961 327.773C472.233 327.091 471.869 326.247 471.869 325.239ZM473.997 322.131V325.267C473.997 325.677 474.16 326.027 474.487 326.317C474.814 326.597 475.22 326.737 475.705 326.737C476.19 326.737 476.596 326.597 476.923 326.317C477.25 326.027 477.413 325.677 477.413 325.267V322.131C477.413 321.711 477.25 321.361 476.923 321.081C476.596 320.801 476.19 320.661 475.705 320.661C475.22 320.661 474.814 320.801 474.487 321.081C474.16 321.361 473.997 321.711 473.997 322.131ZM485.325 321.655C485.325 321.375 485.185 321.141 484.905 320.955C484.625 320.759 484.275 320.661 483.855 320.661C483.09 320.661 482.581 320.917 482.329 321.431L480.411 320.619C480.719 320.012 481.186 319.527 481.811 319.163C482.437 318.799 483.146 318.617 483.939 318.617C484.975 318.617 485.834 318.901 486.515 319.471C487.197 320.04 487.537 320.754 487.537 321.613C487.537 322.387 487.215 323.017 486.571 323.503C487.393 324.035 487.803 324.758 487.803 325.673C487.803 326.55 487.444 327.292 486.725 327.899C486.016 328.487 485.115 328.781 484.023 328.781C483.109 328.781 482.32 328.566 481.657 328.137C480.985 327.698 480.533 327.129 480.299 326.429L482.329 325.729C482.404 326.027 482.591 326.27 482.889 326.457C483.197 326.643 483.561 326.737 483.981 326.737C484.448 326.737 484.831 326.629 485.129 326.415C485.428 326.2 485.577 325.929 485.577 325.603C485.577 325.276 485.428 325.01 485.129 324.805C484.831 324.59 484.457 324.483 484.009 324.483H483.267V322.705H483.757C484.205 322.705 484.579 322.607 484.877 322.411C485.176 322.215 485.325 321.963 485.325 321.655Z" fill="white"/>
<path d="M409.885 297.134C409.669 296.38 410.365 295.681 411.119 295.895L418.415 297.963C419.149 298.171 419.389 299.091 418.851 299.631L413.649 304.851C413.111 305.392 412.19 305.155 411.98 304.422L409.885 297.134Z" fill="#F35888"/>
<g filter="url(#filter8_i_12_4577)">
<rect x="474" y="30" width="103" height="39" rx="10" fill="#004796"/>
</g>
<path d="M481.723 42.15C481.723 41.0133 482.115 40.0637 482.9 39.301C483.685 38.5383 484.66 38.157 485.826 38.157C486.633 38.157 487.366 38.355 488.026 38.751C488.686 39.147 489.181 39.686 489.511 40.368L487.817 40.995C487.626 40.6283 487.355 40.3423 487.003 40.137C486.651 39.9317 486.259 39.829 485.826 39.829C485.159 39.829 484.612 40.0527 484.187 40.5C483.754 40.9473 483.538 41.4973 483.538 42.15C483.538 42.7953 483.747 43.3453 484.165 43.8C484.583 44.2473 485.104 44.471 485.727 44.471C486.167 44.471 486.57 44.35 486.937 44.108C487.311 43.866 487.579 43.547 487.74 43.151H485.54V41.666H489.72C489.742 41.798 489.753 41.9373 489.753 42.084C489.753 43.228 489.372 44.1923 488.609 44.977C487.854 45.7543 486.897 46.143 485.738 46.143C484.616 46.143 483.663 45.7617 482.878 44.999C482.108 44.2437 481.723 43.294 481.723 42.15ZM491.27 45.285C490.69 44.7057 490.401 43.9907 490.401 43.14C490.401 42.2893 490.69 41.578 491.27 41.006C491.849 40.4267 492.579 40.137 493.459 40.137C494.331 40.137 495.057 40.4267 495.637 41.006C496.223 41.578 496.517 42.2893 496.517 43.14C496.517 43.9833 496.223 44.6983 495.637 45.285C495.05 45.857 494.324 46.143 493.459 46.143C492.579 46.143 491.849 45.857 491.27 45.285ZM493.459 44.515C493.84 44.515 494.155 44.383 494.405 44.119C494.669 43.8477 494.801 43.5213 494.801 43.14C494.801 42.7587 494.669 42.436 494.405 42.172C494.155 41.9007 493.84 41.765 493.459 41.765C493.077 41.765 492.758 41.897 492.502 42.161C492.245 42.4323 492.117 42.7587 492.117 43.14C492.117 43.5213 492.245 43.8477 492.502 44.119C492.758 44.383 493.077 44.515 493.459 44.515ZM497.951 45.285C497.372 44.7057 497.082 43.9907 497.082 43.14C497.082 42.2893 497.372 41.578 497.951 41.006C498.531 40.4267 499.26 40.137 500.14 40.137C501.013 40.137 501.739 40.4267 502.318 41.006C502.905 41.578 503.198 42.2893 503.198 43.14C503.198 43.9833 502.905 44.6983 502.318 45.285C501.732 45.857 501.006 46.143 500.14 46.143C499.26 46.143 498.531 45.857 497.951 45.285ZM500.14 44.515C500.522 44.515 500.837 44.383 501.086 44.119C501.35 43.8477 501.482 43.5213 501.482 43.14C501.482 42.7587 501.35 42.436 501.086 42.172C500.837 41.9007 500.522 41.765 500.14 41.765C499.759 41.765 499.44 41.897 499.183 42.161C498.927 42.4323 498.798 42.7587 498.798 43.14C498.798 43.5213 498.927 43.8477 499.183 44.119C499.44 44.383 499.759 44.515 500.14 44.515ZM503.764 43.14C503.764 42.2747 504.021 41.5597 504.534 40.995C505.047 40.423 505.693 40.137 506.47 40.137C507.057 40.137 507.585 40.313 508.054 40.665V40.28H509.693V45.879C509.693 46.6637 509.414 47.3127 508.857 47.826C508.307 48.354 507.621 48.618 506.8 48.618C506.14 48.618 505.55 48.4493 505.029 48.112C504.501 47.7673 504.153 47.342 503.984 46.836L505.612 46.451C505.7 46.627 505.85 46.77 506.063 46.88C506.276 46.9973 506.51 47.056 506.767 47.056C507.126 47.056 507.431 46.946 507.68 46.726C507.929 46.506 508.054 46.231 508.054 45.901V45.604C507.599 45.9633 507.071 46.143 506.47 46.143C505.693 46.143 505.047 45.857 504.534 45.285C504.021 44.7057 503.764 43.9907 503.764 43.14ZM506.756 41.765C506.397 41.765 506.092 41.897 505.843 42.161C505.601 42.425 505.48 42.755 505.48 43.151C505.48 43.5323 505.601 43.855 505.843 44.119C506.092 44.383 506.397 44.515 506.756 44.515C507.108 44.515 507.409 44.383 507.658 44.119C507.907 43.8623 508.032 43.5397 508.032 43.151C508.032 42.755 507.907 42.425 507.658 42.161C507.409 41.897 507.108 41.765 506.756 41.765ZM512.272 46H510.622V37.75H512.272V46ZM519.019 43.734H514.762C514.857 44.0347 515.029 44.2767 515.279 44.46C515.528 44.6433 515.821 44.735 516.159 44.735C516.628 44.735 517.006 44.5663 517.292 44.229L518.887 44.592C518.623 45.076 518.249 45.4573 517.765 45.736C517.288 46.0073 516.749 46.143 516.148 46.143C515.253 46.143 514.509 45.857 513.915 45.285C513.321 44.713 513.024 43.998 513.024 43.14C513.024 42.2893 513.313 41.578 513.893 41.006C514.472 40.4267 515.194 40.137 516.06 40.137C516.918 40.137 517.636 40.4267 518.216 41.006C518.795 41.578 519.085 42.2893 519.085 43.14C519.085 43.3453 519.063 43.5433 519.019 43.734ZM514.773 42.513H517.402C517.299 42.2197 517.127 41.985 516.885 41.809C516.643 41.633 516.368 41.545 516.06 41.545C515.766 41.545 515.502 41.633 515.268 41.809C515.033 41.985 514.868 42.2197 514.773 42.513ZM522.273 43.14C522.273 42.2747 522.529 41.5597 523.043 40.995C523.556 40.423 524.201 40.137 524.979 40.137C525.565 40.137 526.093 40.313 526.563 40.665V40.28H528.202V46H526.563V45.604C526.108 45.9633 525.58 46.143 524.979 46.143C524.201 46.143 523.556 45.857 523.043 45.285C522.529 44.7057 522.273 43.9907 522.273 43.14ZM525.265 41.765C524.905 41.765 524.601 41.897 524.352 42.161C524.11 42.425 523.989 42.7477 523.989 43.129C523.989 43.525 524.11 43.855 524.352 44.119C524.601 44.383 524.905 44.515 525.265 44.515C525.617 44.515 525.917 44.383 526.167 44.119C526.416 43.855 526.541 43.525 526.541 43.129C526.541 42.7403 526.416 42.4177 526.167 42.161C525.917 41.897 525.617 41.765 525.265 41.765ZM529.13 46V40.28H530.78V40.863C531.162 40.379 531.682 40.137 532.342 40.137C532.958 40.137 533.475 40.346 533.893 40.764C534.319 41.182 534.531 41.7027 534.531 42.326V46H532.881V42.766C532.881 42.4507 532.782 42.1903 532.584 41.985C532.386 41.7723 532.137 41.666 531.836 41.666C531.536 41.666 531.283 41.7723 531.077 41.985C530.879 42.1903 530.78 42.4507 530.78 42.766V46H529.13ZM535.282 43.14C535.282 42.2747 535.538 41.5597 536.052 40.995C536.565 40.423 537.21 40.137 537.988 40.137C538.574 40.137 539.102 40.313 539.572 40.665V40.28H541.211V46H539.572V45.604C539.117 45.9633 538.589 46.143 537.988 46.143C537.21 46.143 536.565 45.857 536.052 45.285C535.538 44.7057 535.282 43.9907 535.282 43.14ZM538.274 41.765C537.914 41.765 537.61 41.897 537.361 42.161C537.119 42.425 536.998 42.7477 536.998 43.129C536.998 43.525 537.119 43.855 537.361 44.119C537.61 44.383 537.914 44.515 538.274 44.515C538.626 44.515 538.926 44.383 539.176 44.119C539.425 43.855 539.55 43.525 539.55 43.129C539.55 42.7403 539.425 42.4177 539.176 42.161C538.926 41.897 538.626 41.765 538.274 41.765ZM543.789 46H542.139V37.75H543.789V46ZM546.455 46.044L546.488 45.956L544.321 40.28H546.026L547.269 43.811L548.556 40.28H550.261L547.83 46.594C547.566 47.254 547.214 47.7307 546.774 48.024C546.342 48.3247 545.773 48.475 545.069 48.475H544.871V46.902H545.08C545.792 46.902 546.25 46.616 546.455 46.044ZM550.413 41.71V40.28H551.194V39.169H552.844V40.28H554.142V41.71H552.844V43.855C552.844 44.031 552.902 44.1777 553.02 44.295C553.137 44.405 553.287 44.46 553.471 44.46H554.142V46H553.196C552.631 46 552.154 45.8277 551.766 45.483C551.384 45.131 551.194 44.6947 551.194 44.174V41.71H550.413ZM556.487 46H554.837V40.28H556.487V46ZM554.925 39.587C554.734 39.3963 554.639 39.1543 554.639 38.861C554.639 38.5677 554.734 38.3257 554.925 38.135C555.13 37.9443 555.376 37.849 555.662 37.849C555.955 37.849 556.197 37.9443 556.388 38.135C556.586 38.3183 556.685 38.5603 556.685 38.861C556.685 39.1617 556.586 39.4037 556.388 39.587C556.197 39.7777 555.955 39.873 555.662 39.873C555.376 39.873 555.13 39.7777 554.925 39.587ZM563.19 42.106L561.529 42.59C561.426 42.3407 561.265 42.1427 561.045 41.996C560.825 41.842 560.575 41.765 560.297 41.765C559.915 41.765 559.596 41.897 559.34 42.161C559.083 42.4177 558.955 42.7403 558.955 43.129C558.955 43.525 559.083 43.855 559.34 44.119C559.596 44.383 559.915 44.515 560.297 44.515C560.575 44.515 560.825 44.4417 561.045 44.295C561.265 44.141 561.426 43.9393 561.529 43.69L563.19 44.174C562.97 44.7753 562.599 45.2557 562.079 45.615C561.558 45.967 560.964 46.143 560.297 46.143C559.417 46.143 558.687 45.857 558.108 45.285C557.528 44.7057 557.239 43.9907 557.239 43.14C557.239 42.282 557.528 41.567 558.108 40.995C558.687 40.423 559.417 40.137 560.297 40.137C560.964 40.137 561.558 40.3167 562.079 40.676C562.599 41.028 562.97 41.5047 563.19 42.106ZM568.294 41.699L566.787 41.941C566.684 41.6183 566.398 41.457 565.929 41.457C565.496 41.457 565.28 41.5817 565.28 41.831C565.28 41.9777 565.43 42.106 565.731 42.216L566.754 42.546C567.326 42.7293 567.74 42.9603 567.997 43.239C568.254 43.5103 568.382 43.866 568.382 44.306C568.382 44.8927 568.169 45.3473 567.744 45.67C567.326 45.9853 566.754 46.143 566.028 46.143C565.309 46.143 564.737 45.9963 564.312 45.703C563.894 45.4023 563.645 44.977 563.564 44.427L565.082 44.218C565.192 44.5993 565.518 44.79 566.061 44.79C566.288 44.79 566.468 44.7533 566.6 44.68C566.739 44.6067 566.809 44.504 566.809 44.372C566.809 44.1887 566.618 44.042 566.237 43.932L565.192 43.624C564.664 43.4773 564.279 43.272 564.037 43.008C563.802 42.744 563.685 42.3993 563.685 41.974C563.685 41.358 563.89 40.8997 564.301 40.599C564.712 40.291 565.28 40.137 566.006 40.137C566.666 40.137 567.194 40.2763 567.59 40.555C567.986 40.8263 568.221 41.2077 568.294 41.699ZM507.225 51.398L507.39 51.2H508.446L508.259 51.431C508.186 51.519 508.054 51.7463 507.863 52.113C507.474 52.8243 507.174 53.6897 506.961 54.709C506.726 55.9337 506.723 57.1657 506.95 58.405C507.082 59.043 507.221 59.5453 507.368 59.912C507.698 60.7407 508.002 61.3347 508.281 61.694L508.446 61.925H507.39L507.379 61.914C506.792 61.2393 506.352 60.3263 506.059 59.175C505.846 58.3463 505.74 57.4737 505.74 56.557C505.74 55.2077 505.934 54.049 506.323 53.081C506.646 52.2743 506.946 51.7133 507.225 51.398ZM514.801 55.941L513.646 56.282C513.499 55.974 513.283 55.732 512.997 55.556C512.711 55.3727 512.385 55.281 512.018 55.281C511.505 55.281 511.072 55.4607 510.72 55.82C510.375 56.1793 510.203 56.6193 510.203 57.14C510.203 57.6607 510.375 58.1043 510.72 58.471C511.072 58.823 511.505 58.999 512.018 58.999C512.385 58.999 512.711 58.911 512.997 58.735C513.283 58.5517 513.499 58.306 513.646 57.998L514.801 58.339C514.574 58.889 514.211 59.329 513.712 59.659C513.221 59.9817 512.656 60.143 512.018 60.143C511.16 60.143 510.445 59.857 509.873 59.285C509.301 58.713 509.015 57.998 509.015 57.14C509.015 56.282 509.301 55.567 509.873 54.995C510.445 54.423 511.16 54.137 512.018 54.137C512.656 54.137 513.221 54.302 513.712 54.632C514.211 54.9547 514.574 55.391 514.801 55.941ZM520.848 60H519.44L516.954 57.041L519.209 54.28H520.606L518.362 57.041L520.848 60ZM516.943 54.28V60H515.799V54.28H516.943ZM524.124 60.143C523.266 60.143 522.551 59.857 521.979 59.285C521.407 58.713 521.121 57.998 521.121 57.14C521.121 56.282 521.407 55.567 521.979 54.995C522.551 54.423 523.266 54.137 524.124 54.137C524.982 54.137 525.697 54.423 526.269 54.995C526.849 55.567 527.138 56.282 527.138 57.14C527.138 57.998 526.849 58.713 526.269 59.285C525.697 59.857 524.982 60.143 524.124 60.143ZM524.124 58.999C524.652 58.999 525.085 58.823 525.422 58.471C525.774 58.1117 525.95 57.668 525.95 57.14C525.95 56.612 525.774 56.172 525.422 55.82C525.085 55.4607 524.652 55.281 524.124 55.281C523.611 55.281 523.178 55.4607 522.826 55.82C522.482 56.1793 522.309 56.6193 522.309 57.14C522.309 57.6607 522.482 58.1043 522.826 58.471C523.178 58.823 523.611 58.999 524.124 58.999ZM529.393 62.475H528.249V54.28H529.393V54.896C529.921 54.39 530.556 54.137 531.296 54.137C532.096 54.137 532.767 54.423 533.309 54.995C533.845 55.5597 534.112 56.2747 534.112 57.14C534.112 58.0053 533.845 58.7203 533.309 59.285C532.767 59.857 532.096 60.143 531.296 60.143C530.556 60.143 529.921 59.89 529.393 59.384V62.475ZM531.164 55.281C530.673 55.281 530.259 55.4607 529.921 55.82C529.584 56.1647 529.415 56.6047 529.415 57.14C529.415 57.668 529.584 58.1117 529.921 58.471C530.259 58.823 530.673 58.999 531.164 58.999C531.656 58.999 532.074 58.823 532.418 58.471C532.756 58.1117 532.924 57.668 532.924 57.14C532.924 56.6047 532.756 56.1647 532.418 55.82C532.081 55.4607 531.663 55.281 531.164 55.281ZM537.971 60.143C537.113 60.143 536.398 59.857 535.826 59.285C535.254 58.713 534.968 57.998 534.968 57.14C534.968 56.282 535.254 55.567 535.826 54.995C536.398 54.423 537.113 54.137 537.971 54.137C538.829 54.137 539.544 54.423 540.116 54.995C540.695 55.567 540.985 56.282 540.985 57.14C540.985 57.998 540.695 58.713 540.116 59.285C539.544 59.857 538.829 60.143 537.971 60.143ZM537.971 58.999C538.499 58.999 538.932 58.823 539.269 58.471C539.621 58.1117 539.797 57.668 539.797 57.14C539.797 56.612 539.621 56.172 539.269 55.82C538.932 55.4607 538.499 55.281 537.971 55.281C537.458 55.281 537.025 55.4607 536.673 55.82C536.328 56.1793 536.156 56.6193 536.156 57.14C536.156 57.6607 536.328 58.1043 536.673 58.471C537.025 58.823 537.458 58.999 537.971 58.999ZM541.722 51.42L541.557 51.2H542.624L542.8 51.409C542.873 51.497 543.005 51.706 543.196 52.036C543.409 52.41 543.577 52.7657 543.702 53.103C543.849 53.4843 543.981 53.983 544.098 54.599C544.215 55.2077 544.274 55.8603 544.274 56.557C544.274 57.811 544.098 58.922 543.746 59.89C543.607 60.2787 543.449 60.6307 543.273 60.946C543.082 61.2833 542.947 61.507 542.866 61.617C542.793 61.7417 542.716 61.8407 542.635 61.914L542.624 61.925H541.557L541.733 61.683C541.828 61.5657 541.964 61.3383 542.14 61.001C542.316 60.6783 542.481 60.3117 542.635 59.901C542.774 59.5123 542.906 59.0173 543.031 58.416C543.28 57.206 543.284 55.974 543.042 54.72C542.932 54.1113 542.796 53.609 542.635 53.213C542.327 52.421 542.023 51.8233 541.722 51.42Z" fill="white"/>
<path d="M582.454 23.9817C583.189 23.7078 583.938 24.3479 583.783 25.1167L582.283 32.5498C582.132 33.2974 581.233 33.6076 580.653 33.1125L575.048 28.3276C574.468 27.8324 574.634 26.8963 575.348 26.63L582.454 23.9817Z" fill="#004796"/>
<path d="M739.5 1.87818L740.926 7.04294L741.028 7.40983H741.408H746.229L742.263 10.8003L742.021 11.0069L742.106 11.3134L743.579 16.6488L739.825 13.4396L739.5 13.1619L739.175 13.4396L735.421 16.6488L736.894 11.3134L736.979 11.0069L736.737 10.8003L732.771 7.40983H737.592H737.972L738.074 7.04294L739.5 1.87818Z" stroke="black"/>
<ellipse cx="390" cy="237.5" rx="3" ry="2.5" fill="#F6BD11"/>
<ellipse cx="390" cy="237.5" rx="3" ry="2.5" fill="#F6BD11"/>
<ellipse cx="390" cy="237.5" rx="3" ry="2.5" fill="#F6BD11"/>
<circle cx="722" cy="354" r="5" fill="#F6BD11"/>
<circle cx="722" cy="354" r="5" fill="#F6BD11"/>
<circle cx="722" cy="354" r="5" fill="#2BD8F5"/>
<g filter="url(#filter9_i_12_4577)">
<rect x="506" y="371" width="107" height="36" rx="10" fill="#00438D"/>
</g>
<path d="M532.319 387.396L527.223 394H525.884V384.9H527.34V391.543L532.449 384.9H533.788V394H532.319V387.396ZM539.713 394V395.95H538.361V392.7H539.414C539.743 392.345 539.908 391.595 539.908 390.451V387.24H545.381V392.7H546.603V395.95H545.251V394H539.713ZM540.857 392.7H544.029V388.54H541.26V390.529C541.26 391.43 541.126 392.154 540.857 392.7ZM548.994 396.925H547.642V387.24H548.994V387.968C549.618 387.37 550.368 387.071 551.243 387.071C552.188 387.071 552.981 387.409 553.622 388.085C554.255 388.752 554.571 389.597 554.571 390.62C554.571 391.643 554.255 392.488 553.622 393.155C552.981 393.831 552.188 394.169 551.243 394.169C550.368 394.169 549.618 393.87 548.994 393.272V396.925ZM551.087 388.423C550.506 388.423 550.017 388.635 549.618 389.06C549.219 389.467 549.02 389.987 549.02 390.62C549.02 391.244 549.219 391.768 549.618 392.193C550.017 392.609 550.506 392.817 551.087 392.817C551.668 392.817 552.162 392.609 552.569 392.193C552.968 391.768 553.167 391.244 553.167 390.62C553.167 389.987 552.968 389.467 552.569 389.06C552.17 388.635 551.676 388.423 551.087 388.423ZM557.33 394.572L557.629 393.831L554.99 387.24H556.381L558.305 392.154L560.294 387.24H561.685L558.5 395.027C558.231 395.686 557.88 396.167 557.447 396.47C557.014 396.773 556.459 396.925 555.783 396.925H555.497V395.625H555.783C556.182 395.625 556.502 395.543 556.745 395.378C556.988 395.213 557.183 394.945 557.33 394.572ZM564 388.54V394H562.648V387.24H567.029V388.54H564ZM570.963 394.169C569.949 394.169 569.104 393.831 568.428 393.155C567.752 392.479 567.414 391.634 567.414 390.62C567.414 389.606 567.752 388.761 568.428 388.085C569.104 387.409 569.949 387.071 570.963 387.071C571.977 387.071 572.822 387.409 573.498 388.085C574.183 388.761 574.525 389.606 574.525 390.62C574.525 391.634 574.183 392.479 573.498 393.155C572.822 393.831 571.977 394.169 570.963 394.169ZM570.963 392.817C571.587 392.817 572.099 392.609 572.497 392.193C572.913 391.768 573.121 391.244 573.121 390.62C573.121 389.996 572.913 389.476 572.497 389.06C572.099 388.635 571.587 388.423 570.963 388.423C570.357 388.423 569.845 388.635 569.429 389.06C569.022 389.485 568.818 390.005 568.818 390.62C568.818 391.235 569.022 391.76 569.429 392.193C569.845 392.609 570.357 392.817 570.963 392.817ZM582.546 391.114H576.93C577.034 391.643 577.29 392.076 577.697 392.414C578.113 392.743 578.603 392.908 579.166 392.908C579.929 392.908 580.527 392.626 580.96 392.063L582.286 392.466C581.974 392.995 581.541 393.411 580.986 393.714C580.44 394.017 579.834 394.169 579.166 394.169C578.126 394.169 577.264 393.831 576.579 393.155C575.886 392.479 575.539 391.634 575.539 390.62C575.539 389.615 575.873 388.77 576.54 388.085C577.216 387.409 578.057 387.071 579.062 387.071C580.068 387.071 580.9 387.409 581.558 388.085C582.234 388.761 582.572 389.606 582.572 390.62C582.572 390.655 582.564 390.819 582.546 391.114ZM576.943 390.035H581.181C581.06 389.532 580.8 389.125 580.401 388.813C580.003 388.492 579.543 388.332 579.023 388.332C578.529 388.332 578.087 388.492 577.697 388.813C577.316 389.125 577.065 389.532 576.943 390.035ZM583.455 393.922C583.29 393.749 583.208 393.532 583.208 393.272C583.208 393.012 583.29 392.795 583.455 392.622C583.628 392.449 583.845 392.362 584.105 392.362C584.365 392.362 584.581 392.449 584.755 392.622C584.928 392.795 585.015 393.012 585.015 393.272C585.015 393.532 584.928 393.749 584.755 393.922C584.581 394.087 584.365 394.169 584.105 394.169C583.845 394.169 583.628 394.087 583.455 393.922ZM586.311 393.922C586.147 393.749 586.064 393.532 586.064 393.272C586.064 393.012 586.147 392.795 586.311 392.622C586.485 392.449 586.701 392.362 586.961 392.362C587.221 392.362 587.438 392.449 587.611 392.622C587.785 392.795 587.871 393.012 587.871 393.272C587.871 393.532 587.785 393.749 587.611 393.922C587.438 394.087 587.221 394.169 586.961 394.169C586.701 394.169 586.485 394.087 586.311 393.922ZM589.168 393.922C589.003 393.749 588.921 393.532 588.921 393.272C588.921 393.012 589.003 392.795 589.168 392.622C589.341 392.449 589.558 392.362 589.818 392.362C590.078 392.362 590.294 392.449 590.468 392.622C590.641 392.795 590.728 393.012 590.728 393.272C590.728 393.532 590.641 393.749 590.468 393.922C590.294 394.087 590.078 394.169 589.818 394.169C589.558 394.169 589.341 394.087 589.168 393.922Z" fill="white"/>
<defs>
<filter id="filter0_d_12_4577" x="453" y="4" width="217" height="357" filterUnits="userSpaceOnUse" color-interpolation-filters="sRGB">
<feFlood flood-opacity="0" result="BackgroundImageFix"/>
<feColorMatrix in="SourceAlpha" type="matrix" values="0 0 0 0 0 0 0 0 0 0 0 0 0 0 0 0 0 0 127 0" result="hardAlpha"/>
<feOffset dy="4"/>
<feGaussianBlur stdDeviation="2"/>
<feComposite in2="hardAlpha" operator="out"/>
<feColorMatrix type="matrix" values="0 0 0 0 0 0 0 0 0 0 0 0 0 0 0 0 0 0 0.25 0"/>
<feBlend mode="normal" in2="BackgroundImageFix" result="effect1_dropShadow_12_4577"/>
<feBlend mode="normal" in="SourceGraphic" in2="effect1_dropShadow_12_4577" result="shape"/>
</filter>
<filter id="filter1_i_12_4577" x="614" y="72" width="72" height="42" filterUnits="userSpaceOnUse" color-interpolation-filters="sRGB">
<feFlood flood-opacity="0" result="BackgroundImageFix"/>
<feBlend mode="normal" in="SourceGraphic" in2="BackgroundImageFix" result="shape"/>
<feColorMatrix in="SourceAlpha" type="matrix" values="0 0 0 0 0 0 0 0 0 0 0 0 0 0 0 0 0 0 127 0" result="hardAlpha"/>
<feOffset dy="4"/>
<feGaussianBlur stdDeviation="15"/>
<feComposite in2="hardAlpha" operator="arithmetic" k2="-1" k3="1"/>
<feColorMatrix type="matrix" values="0 0 0 0 0 0 0 0 0 0 0 0 0 0 0 0 0 0 0.15 0"/>
<feBlend mode="normal" in2="shape" result="effect1_innerShadow_12_4577"/>
</filter>
<filter id="filter2_i_12_4577" x="412" y="88" width="97" height="43" filterUnits="userSpaceOnUse" color-interpolation-filters="sRGB">
<feFlood flood-opacity="0" result="BackgroundImageFix"/>
<feBlend mode="normal" in="SourceGraphic" in2="BackgroundImageFix" result="shape"/>
<feColorMatrix in="SourceAlpha" type="matrix" values="0 0 0 0 0 0 0 0 0 0 0 0 0 0 0 0 0 0 127 0" result="hardAlpha"/>
<feOffset dy="4"/>
<feGaussianBlur stdDeviation="15"/>
<feComposite in2="hardAlpha" operator="arithmetic" k2="-1" k3="1"/>
<feColorMatrix type="matrix" values="0 0 0 0 0 0 0 0 0 0 0 0 0 0 0 0 0 0 0.15 0"/>
<feBlend mode="normal" in2="shape" result="effect1_innerShadow_12_4577"/>
</filter>
<filter id="filter3_i_12_4577" x="516" y="133" width="92" height="45" filterUnits="userSpaceOnUse" color-interpolation-filters="sRGB">
<feFlood flood-opacity="0" result="BackgroundImageFix"/>
<feBlend mode="normal" in="SourceGraphic" in2="BackgroundImageFix" result="shape"/>
<feColorMatrix in="SourceAlpha" type="matrix" values="0 0 0 0 0 0 0 0 0 0 0 0 0 0 0 0 0 0 127 0" result="hardAlpha"/>
<feOffset dy="4"/>
<feGaussianBlur stdDeviation="15"/>
<feComposite in2="hardAlpha" operator="arithmetic" k2="-1" k3="1"/>
<feColorMatrix type="matrix" values="0 0 0 0 0 0 0 0 0 0 0 0 0 0 0 0 0 0 0.15 0"/>
<feBlend mode="normal" in2="shape" result="effect1_innerShadow_12_4577"/>
</filter>
<filter id="filter4_i_12_4577" x="628.633" y="187.532" width="60" height="42" filterUnits="userSpaceOnUse" color-interpolation-filters="sRGB">
<feFlood flood-opacity="0" result="BackgroundImageFix"/>
<feBlend mode="normal" in="SourceGraphic" in2="BackgroundImageFix" result="shape"/>
<feColorMatrix in="SourceAlpha" type="matrix" values="0 0 0 0 0 0 0 0 0 0 0 0 0 0 0 0 0 0 127 0" result="hardAlpha"/>
<feOffset dy="4"/>
<feGaussianBlur stdDeviation="15"/>
<feComposite in2="hardAlpha" operator="arithmetic" k2="-1" k3="1"/>
<feColorMatrix type="matrix" values="0 0 0 0 0 0 0 0 0 0 0 0 0 0 0 0 0 0 0.15 0"/>
<feBlend mode="normal" in2="shape" result="effect1_innerShadow_12_4577"/>
</filter>
<filter id="filter5_i_12_4577" x="655" y="258" width="65" height="43" filterUnits="userSpaceOnUse" color-interpolation-filters="sRGB">
<feFlood flood-opacity="0" result="BackgroundImageFix"/>
<feBlend mode="normal" in="SourceGraphic" in2="BackgroundImageFix" result="shape"/>
<feColorMatrix in="SourceAlpha" type="matrix" values="0 0 0 0 0 0 0 0 0 0 0 0 0 0 0 0 0 0 127 0" result="hardAlpha"/>
<feOffset dy="4"/>
<feGaussianBlur stdDeviation="15"/>
<feComposite in2="hardAlpha" operator="arithmetic" k2="-1" k3="1"/>
<feColorMatrix type="matrix" values="0 0 0 0 0 0 0 0 0 0 0 0 0 0 0 0 0 0 0.15 0"/>
<feBlend mode="normal" in2="shape" result="effect1_innerShadow_12_4577"/>
</filter>
<filter id="filter6_i_12_4577" x="476" y="227" width="113" height="42" filterUnits="userSpaceOnUse" color-interpolation-filters="sRGB">
<feFlood flood-opacity="0" result="BackgroundImageFix"/>
<feBlend mode="normal" in="SourceGraphic" in2="BackgroundImageFix" result="shape"/>
<feColorMatrix in="SourceAlpha" type="matrix" values="0 0 0 0 0 0 0 0 0 0 0 0 0 0 0 0 0 0 127 0" result="hardAlpha"/>
<feOffset dy="4"/>
<feGaussianBlur stdDeviation="15"/>
<feComposite in2="hardAlpha" operator="arithmetic" k2="-1" k3="1"/>
<feColorMatrix type="matrix" values="0 0 0 0 0 0 0 0 0 0 0 0 0 0 0 0 0 0 0.15 0"/>
<feBlend mode="normal" in2="shape" result="effect1_innerShadow_12_4577"/>
</filter>
<filter id="filter7_i_12_4577" x="418.98" y="304.599" width="86" height="43" filterUnits="userSpaceOnUse" color-interpolation-filters="sRGB">
<feFlood flood-opacity="0" result="BackgroundImageFix"/>
<feBlend mode="normal" in="SourceGraphic" in2="BackgroundImageFix" result="shape"/>
<feColorMatrix in="SourceAlpha" type="matrix" values="0 0 0 0 0 0 0 0 0 0 0 0 0 0 0 0 0 0 127 0" result="hardAlpha"/>
<feOffset dy="4"/>
<feGaussianBlur stdDeviation="15"/>
<feComposite in2="hardAlpha" operator="arithmetic" k2="-1" k3="1"/>
<feColorMatrix type="matrix" values="0 0 0 0 0 0 0 0 0 0 0 0 0 0 0 0 0 0 0.15 0"/>
<feBlend mode="normal" in2="shape" result="effect1_innerShadow_12_4577"/>
</filter>
<filter id="filter8_i_12_4577" x="474" y="30" width="103" height="43" filterUnits="userSpaceOnUse" color-interpolation-filters="sRGB">
<feFlood flood-opacity="0" result="BackgroundImageFix"/>
<feBlend mode="normal" in="SourceGraphic" in2="BackgroundImageFix" result="shape"/>
<feColorMatrix in="SourceAlpha" type="matrix" values="0 0 0 0 0 0 0 0 0 0 0 0 0 0 0 0 0 0 127 0" result="hardAlpha"/>
<feOffset dy="4"/>
<feGaussianBlur stdDeviation="15"/>
<feComposite in2="hardAlpha" operator="arithmetic" k2="-1" k3="1"/>
<feColorMatrix type="matrix" values="0 0 0 0 0 0 0 0 0 0 0 0 0 0 0 0 0 0 0.15 0"/>
<feBlend mode="normal" in2="shape" result="effect1_innerShadow_12_4577"/>
</filter>
<filter id="filter9_i_12_4577" x="506" y="371" width="107" height="40" filterUnits="userSpaceOnUse" color-interpolation-filters="sRGB">
<feFlood flood-opacity="0" result="BackgroundImageFix"/>
<feBlend mode="normal" in="SourceGraphic" in2="BackgroundImageFix" result="shape"/>
<feColorMatrix in="SourceAlpha" type="matrix" values="0 0 0 0 0 0 0 0 0 0 0 0 0 0 0 0 0 0 127 0" result="hardAlpha"/>
<feOffset dy="4"/>
<feGaussianBlur stdDeviation="15"/>
<feComposite in2="hardAlpha" operator="arithmetic" k2="-1" k3="1"/>
<feColorMatrix type="matrix" values="0 0 0 0 0 0 0 0 0 0 0 0 0 0 0 0 0 0 0.15 0"/>
<feBlend mode="normal" in2="shape" result="effect1_innerShadow_12_4577"/>
</filter>
<linearGradient id="paint0_linear_12_4577" x1="608.328" y1="-11.4882" x2="485.634" y2="349.666" gradientUnits="userSpaceOnUse">
<stop stop-color="#F5E2D3"/>
<stop offset="1" stop-color="white"/>
</linearGradient>
</defs>
</svg>
