<svg width="350" height="443" viewBox="0 0 350 443" fill="none" xmlns="http://www.w3.org/2000/svg">
<path d="M16.5 357.886L17.2527 360.624L17.3537 360.991H17.7348H20.381L18.1723 362.888L17.9319 363.094L18.0159 363.4L18.8168 366.313L16.8257 364.603L16.5 364.324L16.1743 364.603L14.1832 366.313L14.9841 363.4L15.0681 363.094L14.8277 362.888L12.619 360.991H15.2652H15.6463L15.7473 360.624L16.5 357.886Z" stroke="black"/>
<path d="M303 122.886L304.988 130.115L305.089 130.483H305.47H312.112L306.67 135.155L306.43 135.361L306.514 135.667L308.55 143.072L303.326 138.586L303 138.306L302.674 138.586L297.45 143.072L299.486 135.667L299.57 135.361L299.33 135.155L293.888 130.483H300.53H300.911L301.012 130.115L303 122.886Z" stroke="black"/>
<g filter="url(#filter0_d_44_24)">
<g clip-path="url(#clip0_44_24)">
<rect x="40" y="46.8983" width="197.742" height="353.11" rx="20" transform="rotate(-3.15911 40 46.8983)" fill="url(#paint0_linear_44_24)" shape-rendering="crispEdges"/>
<rect x="60.3672" y="88.8641" width="168.597" height="9" rx="4.5" transform="rotate(-3.15911 60.3672 88.8641)" fill="white"/>
<rect x="62" y="106.553" width="135.668" height="9" rx="4.5" transform="rotate(-3.15911 62 106.553)" fill="white"/>
<rect x="63" y="124.553" width="80.4455" height="9" rx="4.5" transform="rotate(-3.15911 63 124.553)" fill="white"/>
<path d="M63.8608 68.6164L62.6819 68.6815L62.2506 60.8667L59.9345 61.8655L59.8757 60.8007L63.1652 59.354L63.349 59.3439L63.8608 68.6164ZM67.5794 63.7703L67.7944 59.143L72.5226 58.8821L72.5824 59.9659L68.8493 60.1719L68.7093 62.7035C69.1467 62.4123 69.6528 62.2509 70.2274 62.2192C71.0683 62.1728 71.7513 62.4148 72.2764 62.9453C72.8013 63.4715 73.0899 64.2079 73.1421 65.1543C73.1946 66.105 72.9783 66.8693 72.4931 67.447C72.0119 68.0203 71.3108 68.3324 70.3896 68.3832C69.5741 68.4282 68.8962 68.2389 68.3557 67.8152C67.8153 67.3916 67.4871 66.7824 67.3712 65.9878L68.4803 65.9266C68.5813 66.4508 68.7914 66.8397 69.1105 67.0933C69.4295 67.3427 69.8382 67.4537 70.3368 67.4262C70.8819 67.3961 71.2984 67.1866 71.5863 66.7978C71.8785 66.4087 72.0065 65.8867 71.9703 65.2317C71.9363 64.6148 71.74 64.1298 71.3814 63.7766C71.0269 63.419 70.5707 63.2556 70.013 63.2864C69.5017 63.3146 69.1065 63.4487 68.8273 63.6887L68.5307 63.9594L67.5794 63.7703ZM74.6332 67.4052C74.622 67.2024 74.6718 67.0301 74.7827 66.8883C74.8977 66.7464 75.0757 66.6687 75.3165 66.6554C75.5574 66.6422 75.7428 66.6997 75.8728 66.8282C76.007 66.9564 76.0797 67.1219 76.0909 67.3247C76.1017 67.5191 76.0473 67.6853 75.9277 67.8232C75.8124 67.961 75.6344 68.0365 75.3935 68.0498C75.1527 68.0631 74.9674 68.0076 74.8376 67.8834C74.7121 67.759 74.6439 67.5995 74.6332 67.4052ZM74.3306 61.8084C74.3195 61.6056 74.3693 61.4333 74.4801 61.2915C74.5952 61.1496 74.7732 61.0719 75.014 61.0586C75.2548 61.0453 75.4403 61.1029 75.5703 61.2314C75.7045 61.3596 75.7772 61.5251 75.7884 61.7279C75.7991 61.9223 75.7447 62.0885 75.6252 62.2264C75.5099 62.3642 75.3318 62.4397 75.091 62.453C74.8501 62.4663 74.6648 62.4108 74.535 62.2866C74.4095 62.1621 74.3414 62.0027 74.3306 61.8084ZM83.2978 63.5957C83.3735 64.969 83.1954 66.0023 82.7632 66.6958C82.331 67.3893 81.6164 67.7636 80.6192 67.8186C79.6347 67.8729 78.8878 67.5878 78.3787 66.9632C77.8693 66.3344 77.5704 65.3719 77.4819 64.0757L77.3955 62.5102C77.3206 61.1538 77.4995 60.1331 77.9321 59.4481C78.3648 58.7631 79.0818 58.3929 80.0832 58.3376C81.0761 58.2828 81.8247 58.5615 82.329 59.1736C82.8329 59.7816 83.1279 60.7485 83.2138 62.0746L83.2978 63.5957ZM82.0367 62.0569C81.9819 61.064 81.8026 60.3491 81.4988 59.9124C81.1947 59.4715 80.7406 59.2677 80.1364 59.301C79.5364 59.3341 79.1115 59.5843 78.8618 60.0516C78.6121 60.5189 78.5089 61.2217 78.5523 62.1602L78.6558 64.0363C78.7108 65.0335 78.8952 65.7629 79.2089 66.2245C79.5265 66.6816 79.979 66.894 80.5664 66.8616C81.1452 66.8296 81.5617 66.582 81.8159 66.1187C82.0743 65.6552 82.1832 64.9414 82.1427 63.9773L82.0367 62.0569ZM86.4359 62.1701L87.3169 62.1215C87.8699 62.0825 88.2971 61.9127 88.5984 61.6121C88.8996 61.3115 89.037 60.9204 89.0104 60.4387C88.9507 59.357 88.3821 58.8459 87.3046 58.9054C86.7976 58.9334 86.4 59.1015 86.1119 59.4099C85.8277 59.7137 85.6988 60.1044 85.7252 60.5819L84.5527 60.6466C84.5123 59.9156 84.7451 59.2946 85.2509 58.7835C85.7607 58.268 86.4275 57.9875 87.2515 57.942C88.1219 57.894 88.817 58.0866 89.3368 58.5199C89.8566 58.9531 90.1391 59.5796 90.1843 60.3993C90.2065 60.8008 90.0969 61.1967 89.8557 61.5872C89.6187 61.9775 89.2814 62.278 88.8438 62.4886C89.3597 62.6212 89.7652 62.8658 90.0604 63.2225C90.3598 63.5789 90.5243 64.0254 90.5539 64.5621C90.5996 65.3902 90.3655 66.0622 89.8515 66.578C89.3374 67.0937 88.6473 67.3755 87.7811 67.4233C86.9149 67.4711 86.1964 67.2756 85.6254 66.8366C85.0587 66.3975 84.7541 65.7934 84.7116 65.0244L85.8905 64.9593C85.9173 65.4452 86.0972 65.8252 86.4302 66.0993C86.7632 66.3733 87.1959 66.4957 87.7283 66.4663C88.2945 66.435 88.7194 66.2632 89.0031 65.9509C89.2868 65.6386 89.4133 65.2056 89.3828 64.6521C89.3532 64.1155 89.1657 63.7126 88.8202 63.4435C88.4748 63.1744 87.9913 63.0527 87.3697 63.0785L86.4887 63.1272L86.4359 62.1701Z" fill="black"/>
<rect x="168" y="58.8065" width="3" height="3" transform="rotate(-3.15911 168 58.8065)" fill="black"/>
<rect x="172.773" y="54.537" width="3" height="7" transform="rotate(-3.15911 172.773 54.537)" fill="black"/>
<rect x="176.602" y="51.3212" width="4" height="10" transform="rotate(-3.15911 176.602 51.3212)" fill="black"/>
<g clip-path="url(#clip1_44_24)">
<path d="M194.75 57.6435C194.789 58.3447 194.253 58.9434 193.552 58.9821C192.85 59.0208 192.251 58.4848 192.213 57.7836C192.174 57.0822 192.71 56.4834 193.411 56.4447C194.113 56.406 194.711 56.9421 194.75 57.6435ZM190.426 55.4324L191.444 56.1943C192.35 54.9821 194.308 54.8741 195.341 55.9802L196.27 55.1135C195.494 54.2842 194.401 53.8448 193.271 53.9072C192.141 53.9695 191.104 54.5251 190.426 55.4324ZM188.544 53.7132L189.532 54.5138C190.433 53.4002 191.77 52.7175 193.201 52.6385C194.631 52.5596 196.035 53.091 197.054 54.0962L197.946 53.1918C196.672 51.9348 194.918 51.2711 193.131 51.3697C191.343 51.4684 189.672 52.3237 188.544 53.7132ZM186.656 52.0093L187.63 52.8243C188.98 51.2097 190.96 50.2168 193.061 50.1009C195.194 49.9832 197.216 50.7317 198.757 52.2076L199.636 51.289C197.864 49.5923 195.442 48.6969 192.991 48.8322C190.539 48.9675 188.231 50.1252 186.656 52.0093Z" fill="black"/>
</g>
<g clip-path="url(#clip2_44_24)">
<path d="M205.623 50.9464L206.039 58.4821L218.284 57.8062L217.869 50.2705L205.623 50.9464ZM217.5 56.9425L206.724 57.5373L206.408 51.8101L217.184 51.2154L217.5 56.9425Z" fill="black"/>
<path d="M207.927 52.6318L207.192 52.6724L207.409 56.5909L208.143 56.5504L207.927 52.6318Z" fill="black"/>
<path d="M218.703 52.0371L217.968 52.0776L218.184 55.9962L218.919 55.9556L218.703 52.0371Z" fill="black"/>
</g>
<ellipse cx="257.738" cy="129.042" rx="4.72048" ry="5.01551" transform="rotate(0.198489 257.738 129.042)" fill="#F6BD11"/>
<ellipse cx="184.178" cy="132.523" rx="3.286" ry="3.49138" transform="rotate(0.198489 184.178 132.523)" fill="#2BD8F5"/>
<circle cx="153.735" cy="363.59" r="9.38167" transform="rotate(-3.15911 153.735 363.59)" stroke="#BDBDBD"/>
<path d="M163.651 361.064C163.936 366.222 159.843 370.67 154.472 370.966C149.101 371.263 144.543 367.292 144.259 362.134C143.974 356.976 148.067 352.528 153.438 352.231C158.809 351.935 163.367 355.905 163.651 361.064Z" stroke="#BDBDBD"/>
<path d="M173.802 239.413C174.657 253.843 164.092 266.082 150.246 266.788C136.4 267.494 124.453 256.404 123.598 241.974C122.743 227.544 133.309 215.305 147.155 214.599C161 213.893 172.948 224.983 173.802 239.413Z" stroke="#BDBDBD"/>
<path d="M175.197 234.007C176.051 248.421 165.119 260.695 150.787 261.425C136.455 262.156 124.139 251.069 123.286 236.654C122.432 222.24 133.363 209.967 147.695 209.236C162.028 208.505 174.343 219.593 175.197 234.007Z" stroke="#BDBDBD"/>
<path d="M170.873 239.884C171.726 254.298 160.795 266.572 146.463 267.302C132.13 268.033 119.815 256.946 118.961 242.531C118.107 228.117 129.039 215.844 143.371 215.113C157.703 214.382 170.019 225.47 170.873 239.884Z" stroke="#BDBDBD"/>
<circle cx="94.0461" cy="250.119" r="17.1282" transform="rotate(-3.15911 94.0461 250.119)" fill="#D277B9"/>
<circle cx="94.0436" cy="250.119" r="5.429" transform="rotate(-3.15911 94.0436 250.119)" stroke="white"/>
<ellipse cx="148.199" cy="238.379" rx="17.1282" ry="18.348" transform="rotate(-3.15911 148.199 238.379)" fill="#2D6EFD"/>
<g clip-path="url(#clip3_44_24)">
<path d="M155.176 364.16L154.642 364.188L154.614 363.653L153.545 363.709L153.573 364.244L153.038 364.271L153.01 363.737C153.003 363.595 153.052 363.456 153.147 363.351C153.242 363.245 153.375 363.182 153.517 363.174L154.586 363.119C154.728 363.112 154.867 363.161 154.972 363.256C155.077 363.351 155.141 363.484 155.148 363.625L155.176 364.16Z" fill="#1D1D1D"/>
<path d="M154.038 362.879C153.879 362.888 153.722 362.849 153.585 362.768C153.449 362.686 153.339 362.566 153.271 362.423C153.203 362.28 153.179 362.119 153.201 361.962C153.224 361.805 153.293 361.658 153.399 361.54C153.506 361.422 153.645 361.338 153.799 361.299C153.952 361.26 154.114 361.268 154.264 361.321C154.414 361.374 154.544 361.47 154.639 361.598C154.734 361.725 154.789 361.877 154.798 362.036C154.809 362.249 154.735 362.457 154.592 362.615C154.45 362.773 154.25 362.868 154.038 362.879ZM153.982 361.81C153.929 361.813 153.878 361.832 153.836 361.863C153.793 361.895 153.761 361.938 153.744 361.988C153.726 362.038 153.723 362.092 153.736 362.143C153.749 362.195 153.777 362.241 153.817 362.277C153.856 362.312 153.905 362.335 153.957 362.343C154.01 362.35 154.063 362.342 154.111 362.319C154.159 362.297 154.199 362.26 154.226 362.215C154.253 362.169 154.266 362.117 154.263 362.064C154.259 361.993 154.228 361.926 154.175 361.879C154.122 361.831 154.053 361.807 153.982 361.81Z" fill="#1D1D1D"/>
<path d="M154.26 367.155L151.867 364.614C151.834 364.576 151.801 364.537 151.768 364.498C151.356 364.011 151.116 363.402 151.084 362.765C151.043 361.985 151.314 361.221 151.837 360.641C152.359 360.061 153.091 359.713 153.871 359.672C154.65 359.631 155.414 359.902 155.994 360.425C156.574 360.948 156.923 361.679 156.964 362.459C156.998 363.095 156.822 363.726 156.463 364.253L156.463 364.254C156.463 364.254 156.388 364.363 156.377 364.378L154.26 367.155ZM152.178 364.154C152.178 364.154 152.244 364.233 152.26 364.25L154.217 366.329L155.951 364.055C155.962 364.039 156.02 363.953 156.02 363.953C156.313 363.522 156.457 363.007 156.429 362.487C156.396 361.849 156.111 361.25 155.636 360.823C155.161 360.395 154.536 360.173 153.898 360.207C153.26 360.24 152.662 360.525 152.234 361C151.807 361.474 151.585 362.099 151.618 362.737C151.645 363.258 151.841 363.756 152.178 364.154L152.178 364.154Z" fill="#1D1D1D"/>
</g>
<circle cx="148.371" cy="290.007" r="14.4931" transform="rotate(-3.15911 148.371 290.007)" fill="#8247F5"/>
<g clip-path="url(#clip4_44_24)">
<path d="M148.682 289.66C149.968 289.589 150.954 288.489 150.883 287.202C150.812 285.915 149.711 284.93 148.424 285.001C147.138 285.072 146.152 286.173 146.223 287.459C146.294 288.746 147.395 289.731 148.682 289.66Z" stroke="white" stroke-width="2"/>
<path d="M151.062 290.463L151.226 290.454C151.567 290.436 151.903 290.542 152.17 290.753C152.438 290.965 152.62 291.267 152.68 291.602L152.943 293.048C152.967 293.178 152.962 293.312 152.93 293.44C152.898 293.569 152.839 293.689 152.757 293.793C152.675 293.897 152.572 293.982 152.455 294.043C152.337 294.104 152.208 294.139 152.076 294.146L145.801 294.493C145.669 294.5 145.537 294.479 145.413 294.431C145.29 294.384 145.178 294.31 145.085 294.216C144.992 294.122 144.92 294.009 144.874 293.885C144.828 293.761 144.809 293.628 144.818 293.496L144.92 292.031C144.943 291.69 145.09 291.37 145.333 291.13C145.576 290.891 145.899 290.748 146.24 290.73L146.403 290.721" stroke="white" stroke-width="2" stroke-linecap="round" stroke-linejoin="round"/>
</g>
<g filter="url(#filter1_i_44_24)">
<circle cx="128.679" cy="184.209" r="8.56411" transform="rotate(-3.15911 128.679 184.209)" fill="#8247F5"/>
</g>
<path d="M131.901 186.144L131.769 183.741C131.759 183.573 131.718 183.41 131.647 183.26C131.575 183.109 131.476 182.976 131.354 182.868L129.087 180.846C128.972 180.744 128.826 180.692 128.677 180.7C128.528 180.709 128.388 180.777 128.286 180.89L126.254 183.149C126.145 183.27 126.061 183.414 126.007 183.571C125.952 183.728 125.929 183.895 125.938 184.062L126.071 186.466C126.08 186.629 126.15 186.782 126.266 186.891C126.381 187 126.533 187.057 126.688 187.048L131.352 186.791C131.507 186.782 131.652 186.709 131.755 186.588C131.858 186.467 131.91 186.307 131.901 186.144Z" stroke="white" stroke-width="2" stroke-linecap="round" stroke-linejoin="round"/>
<ellipse cx="172.927" cy="178.619" rx="5.27022" ry="5.59961" transform="rotate(0.198489 172.927 178.619)" fill="#F6BD11"/>
<ellipse cx="93.6099" cy="194.392" rx="5.27022" ry="5.59961" transform="rotate(-3.15911 93.6099 194.392)" fill="#F6BD11"/>
<path d="M149.858 230.711C149.809 230.729 149.745 230.758 149.717 230.776C149.641 230.825 149.551 230.928 149.516 231.007C149.488 231.069 149.485 231.09 149.491 231.206C149.498 231.321 149.503 231.342 149.536 231.398C149.616 231.53 149.741 231.62 149.889 231.649C149.946 231.662 150.039 231.667 150.16 231.665C152.243 231.632 154.179 232.64 155.187 234.282C155.544 234.864 155.77 235.51 155.85 236.189C155.879 236.423 155.904 236.516 155.959 236.59C156.01 236.662 156.118 236.737 156.221 236.774C156.303 236.804 156.322 236.806 156.442 236.8C156.562 236.793 156.581 236.789 156.658 236.75C156.818 236.672 156.918 236.547 156.958 236.373C156.975 236.301 156.974 236.279 156.952 236.143C156.939 236.061 156.918 235.935 156.908 235.864C156.788 235.096 156.48 234.305 156.049 233.65C155.467 232.767 154.661 232.04 153.694 231.527C152.684 230.989 151.606 230.715 150.388 230.684C149.992 230.674 149.96 230.674 149.858 230.711Z" fill="white"/>
<path d="M149.368 232.582C149.214 232.626 149.081 232.736 149.02 232.867C148.973 232.968 148.968 233.112 149.008 233.214C149.042 233.301 149.132 233.407 149.214 233.456C149.326 233.52 149.396 233.534 149.644 233.538C149.929 233.544 150.112 233.557 150.336 233.59C152.021 233.837 153.367 234.966 153.755 236.458C153.793 236.606 153.816 236.726 153.857 237.002C153.88 237.157 153.92 237.234 154.015 237.318C154.105 237.395 154.18 237.432 154.285 237.451C154.595 237.506 154.893 237.313 154.936 237.031C154.956 236.905 154.878 236.431 154.786 236.112C154.374 234.688 153.257 233.521 151.749 232.939C151.312 232.77 150.789 232.646 150.294 232.593C149.935 232.553 149.482 232.549 149.368 232.582Z" fill="white"/>
<path d="M143.094 233.037C142.852 233.076 142.712 233.121 142.519 233.221C142.247 233.363 141.997 233.552 141.732 233.82C141.524 234.03 141.383 234.202 141.216 234.457C141.059 234.696 140.966 234.863 140.851 235.109C140.584 235.68 140.356 236.476 140.323 236.945C140.319 237.011 140.312 237.103 140.308 237.151C140.297 237.261 140.308 237.447 140.331 237.556C140.34 237.603 140.357 237.698 140.369 237.77C140.596 239.122 141.714 240.836 143.468 242.52C143.893 242.929 143.966 242.99 144.354 243.266C145.615 244.164 147.031 244.918 148.222 245.322C148.976 245.58 149.689 245.726 150.286 245.745C150.369 245.748 150.481 245.753 150.533 245.756C150.656 245.764 150.85 245.754 150.971 245.732C151.023 245.723 151.124 245.707 151.196 245.696C151.56 245.639 152.242 245.429 152.726 245.224C153.842 244.751 154.653 244.1 155.044 243.364C155.159 243.146 155.205 242.951 155.204 242.677C155.204 242.247 155.041 241.783 154.761 241.423C154.524 241.117 154.163 240.84 153.752 240.646C153.188 240.381 152.552 240.195 152.018 240.137C151.829 240.117 151.332 240.144 151.174 240.184C150.831 240.27 150.555 240.414 150.333 240.623C150.238 240.712 150.19 240.773 149.975 241.067C149.927 241.135 149.827 241.249 149.754 241.322C149.244 241.829 148.698 241.894 148.004 241.527C147.351 241.18 145.742 239.881 145.278 239.324C145.16 239.183 145.035 238.972 144.988 238.838C144.935 238.69 144.918 238.485 144.948 238.356C145.022 238.033 145.264 237.737 145.723 237.408C146.115 237.128 146.333 236.805 146.411 236.391C146.498 235.924 146.379 235.393 146.047 234.763C145.96 234.598 145.71 234.209 145.607 234.075C145.418 233.831 145.155 233.585 144.921 233.434C144.531 233.182 144.074 233.037 143.591 233.014C143.481 233.01 143.184 233.024 143.094 233.037ZM143.701 233.806C144.031 233.849 144.292 233.962 144.555 234.176C144.772 234.354 144.894 234.501 145.114 234.85C145.622 235.657 145.709 236.297 145.357 236.659C145.321 236.697 145.236 236.768 145.168 236.817C144.885 237.021 144.604 237.281 144.458 237.473C143.92 238.186 143.936 238.954 144.509 239.7C144.618 239.844 144.742 239.977 144.941 240.17C145.635 240.838 146.689 241.674 147.358 242.085C148.049 242.511 148.747 242.64 149.379 242.459C149.92 242.302 150.426 241.906 150.806 241.339C150.991 241.061 151.239 240.932 151.632 240.911C152.038 240.888 152.571 241.009 153.156 241.254C153.555 241.423 153.785 241.573 153.995 241.803C154.224 242.054 154.353 242.416 154.334 242.75C154.326 242.9 154.306 242.971 154.235 243.093C153.941 243.608 153.311 244.1 152.472 244.473C152.128 244.627 151.501 244.838 151.165 244.912C151.01 244.946 150.572 244.981 150.372 244.974C149.187 244.936 147.703 244.395 146.036 243.396C145.546 243.101 144.963 242.714 144.653 242.476C144.484 242.346 144.121 242.011 143.8 241.686C142.131 240.002 141.196 238.4 141.181 237.199C141.178 236.976 141.202 236.791 141.27 236.506C141.497 235.552 141.878 234.81 142.403 234.297C142.59 234.114 142.74 234 142.919 233.908C143.026 233.852 143.081 233.83 143.15 233.818C143.279 233.796 143.575 233.789 143.701 233.806Z" fill="white"/>
<path d="M148.761 234.518C148.368 234.641 148.26 235.101 148.566 235.347C148.669 235.43 148.778 235.467 148.941 235.472C149.447 235.49 149.745 235.546 150.11 235.69C150.463 235.828 150.745 236.004 151.005 236.249C151.395 236.613 151.667 237.099 151.752 237.584C151.764 237.652 151.781 237.745 151.79 237.792C151.835 238.034 152.053 238.201 152.318 238.2C152.602 238.197 152.823 238.025 152.866 237.77C152.874 237.721 152.871 237.666 152.854 237.552C152.722 236.677 152.276 235.927 151.556 235.362C151.329 235.185 151.193 235.096 150.965 234.975C150.454 234.705 149.91 234.551 149.31 234.505C149.062 234.486 148.847 234.492 148.761 234.518Z" fill="white"/>
<circle cx="205.448" cy="239.138" r="17.1282" transform="rotate(-3.15911 205.448 239.138)" fill="#2BD8F5"/>
<path d="M211.137 242.175L210.935 238.501C210.921 238.246 210.843 237.996 210.707 237.769C210.572 237.541 210.38 237.339 210.145 237.176L205.759 234.137C205.538 233.984 205.253 233.907 204.961 233.923C204.67 233.939 204.394 234.047 204.192 234.223L200.167 237.726C199.951 237.914 199.783 238.136 199.673 238.378C199.563 238.619 199.514 238.875 199.528 239.131L199.731 242.805C199.744 243.054 199.878 243.286 200.101 243.45C200.325 243.615 200.621 243.698 200.923 243.681L210.049 243.177C210.351 243.161 210.636 243.046 210.84 242.858C211.044 242.67 211.151 242.424 211.137 242.175Z" stroke="white" stroke-linecap="round" stroke-linejoin="round"/>
</g>
<rect x="41.5804" y="48.3134" width="194.742" height="350.11" rx="18.5" transform="rotate(-3.15911 41.5804 48.3134)" stroke="white" stroke-width="3" shape-rendering="crispEdges"/>
</g>
<path d="M183.254 336.354C182.885 336.765 182.92 337.398 183.332 337.766L190.037 343.77C190.448 344.138 191.08 344.103 191.449 343.692C191.817 343.28 191.782 342.648 191.371 342.28L185.411 336.943L190.747 330.983C191.116 330.572 191.081 329.939 190.67 329.571C190.258 329.203 189.626 329.237 189.257 329.649L183.254 336.354ZM185.175 335.955L183.944 336.022L184.054 338.019L185.286 337.951L185.175 335.955Z" fill="#6D6D6D"/>
<g filter="url(#filter2_i_44_24)">
<rect x="197.566" y="298.242" width="70.3066" height="70.3066" rx="20" transform="rotate(-3.16 197.566 298.242)" fill="url(#paint1_linear_44_24)"/>
</g>
<g filter="url(#filter3_i_44_24)">
<rect x="274.691" y="290.91" width="70.9233" height="70.3066" rx="20" transform="rotate(-3.16 274.691 290.91)" fill="url(#paint2_linear_44_24)"/>
</g>
<path d="M277.977 295.683L328.752 305.291C337.79 307.001 344.496 314.656 345.003 323.84L345.615 334.92C346.224 345.949 337.777 355.384 326.748 355.993L301.414 357.391C290.385 358 280.951 349.553 280.342 338.524L277.977 295.683Z" fill="url(#paint3_linear_44_24)" fill-opacity="0.71"/>
<rect x="284.172" y="335.781" width="1.85017" height="14.1847" rx="0.925087" transform="rotate(-3.16 284.172 335.781)" fill="#5F60BD"/>
<rect x="293.938" y="332.051" width="0.616725" height="17.885" rx="0.308362" transform="rotate(-3.16 293.938 332.051)" fill="#5F60BD" fill-opacity="0.74"/>
<rect x="298.625" y="345.609" width="0.616725" height="4.31707" rx="0.308362" transform="rotate(-3.16 298.625 345.609)" fill="#5F60BD" fill-opacity="0.74"/>
<rect x="306.988" y="334.586" width="1.23345" height="15.4181" rx="0.616725" transform="rotate(-3.16 306.988 334.586)" fill="#5F60BD" fill-opacity="0.74"/>
<rect x="319.562" y="343.195" width="0.616725" height="6.78397" rx="0.308362" transform="rotate(-3.16 319.562 343.195)" fill="#5F60BD" fill-opacity="0.74"/>
<rect x="328.828" y="343.812" width="0.616725" height="6.16725" rx="0.308362" transform="rotate(-3.16 328.828 343.812)" fill="#5F60BD" fill-opacity="0.52"/>
<rect x="333.148" y="343.812" width="0.616725" height="6.16725" rx="0.308362" transform="rotate(-3.16 333.148 343.812)" fill="#5F60BD" fill-opacity="0.52"/>
<rect x="338.098" y="344.445" width="1.23345" height="5.55052" rx="0.616725" transform="rotate(-3.16 338.098 344.445)" fill="#5F60BD"/>
<rect x="302.145" y="316.644" width="0.616725" height="33.3031" rx="0.308362" transform="rotate(-3.16 302.145 316.644)" fill="url(#paint4_linear_44_24)"/>
<rect x="323.934" y="322.859" width="0.616725" height="27.1359" rx="0.308362" transform="rotate(-3.16 323.934 322.859)" fill="url(#paint5_linear_44_24)"/>
<path d="M200.852 301.785L251.053 311.399C260.071 313.126 266.755 320.772 267.261 329.94L267.874 341.056C268.483 352.085 260.036 361.519 249.007 362.128L224.289 363.493C213.26 364.102 203.826 355.655 203.217 344.626L200.852 301.785Z" fill="url(#paint6_linear_44_24)" fill-opacity="0.71"/>
<rect x="207.352" y="352.41" width="1.23345" height="4.31707" rx="0.616725" transform="rotate(-3.16 207.352 352.41)" fill="#5F60BD"/>
<rect x="217.031" y="345.613" width="0.616725" height="11.101" rx="0.308362" transform="rotate(-3.16 217.031 345.613)" fill="#5F60BD" fill-opacity="0.74"/>
<rect x="221.109" y="336.986" width="0.616725" height="19.7352" rx="0.308362" transform="rotate(-3.16 221.109 336.986)" fill="#5F60BD" fill-opacity="0.74"/>
<rect x="229.164" y="316.035" width="0.616725" height="40.7038" rx="0.308362" transform="rotate(-3.16 229.164 316.035)" fill="url(#paint7_linear_44_24)" fill-opacity="0.74"/>
<rect x="242.965" y="346.846" width="0.616725" height="9.8676" rx="0.308362" transform="rotate(-3.16 242.965 346.846)" fill="#5F60BD" fill-opacity="0.74"/>
<rect x="255.609" y="335.754" width="0.616725" height="20.9686" rx="0.308362" transform="rotate(-3.16 255.609 335.754)" fill="#5F60BD" fill-opacity="0.52"/>
<rect x="260.016" y="338.851" width="1.23345" height="17.885" rx="0.616725" transform="rotate(-3.16 260.016 338.851)" fill="#5F60BD"/>
<rect x="211.809" y="335.137" width="0.616725" height="21.5854" rx="0.308362" transform="rotate(-3.16 211.809 335.137)" fill="#F6B499"/>
<rect x="211.809" y="335.137" width="0.616725" height="21.5854" rx="0.308362" transform="rotate(-3.16 211.809 335.137)" fill="#F6B499"/>
<rect x="211.621" y="328.359" width="0.616725" height="28.3693" rx="0.308362" transform="rotate(-3.16 211.621 328.359)" fill="#F6B499"/>
<rect x="225.176" y="327.742" width="0.616725" height="28.9861" rx="0.308362" transform="rotate(-3.16 225.176 327.742)" fill="url(#paint8_linear_44_24)"/>
<rect x="237.164" y="337.637" width="1.85017" height="19.1185" rx="0.925087" transform="rotate(-3.16 237.164 337.637)" fill="url(#paint9_linear_44_24)"/>
<path d="M168.5 265.886L169.253 268.624L169.354 268.991H169.735H172.381L170.172 270.888L169.932 271.094L170.016 271.4L170.817 274.313L168.826 272.603L168.5 272.324L168.174 272.603L166.183 274.313L166.984 271.4L167.068 271.094L166.828 270.888L164.619 268.991H167.265H167.646L167.747 268.624L168.5 265.886Z" stroke="black"/>
<defs>
<filter id="filter0_d_44_24" x="0" y="0.000976562" width="296.9" height="443.471" filterUnits="userSpaceOnUse" color-interpolation-filters="sRGB">
<feFlood flood-opacity="0" result="BackgroundImageFix"/>
<feColorMatrix in="SourceAlpha" type="matrix" values="0 0 0 0 0 0 0 0 0 0 0 0 0 0 0 0 0 0 127 0" result="hardAlpha"/>
<feOffset dy="4"/>
<feGaussianBlur stdDeviation="20"/>
<feComposite in2="hardAlpha" operator="out"/>
<feColorMatrix type="matrix" values="0 0 0 0 0 0 0 0 0 0 0 0 0 0 0 0 0 0 0.25 0"/>
<feBlend mode="normal" in2="BackgroundImageFix" result="effect1_dropShadow_44_24"/>
<feBlend mode="normal" in="SourceGraphic" in2="effect1_dropShadow_44_24" result="shape"/>
</filter>
<filter id="filter1_i_44_24" x="120.115" y="175.645" width="17.1289" height="21.1287" filterUnits="userSpaceOnUse" color-interpolation-filters="sRGB">
<feFlood flood-opacity="0" result="BackgroundImageFix"/>
<feBlend mode="normal" in="SourceGraphic" in2="BackgroundImageFix" result="shape"/>
<feColorMatrix in="SourceAlpha" type="matrix" values="0 0 0 0 0 0 0 0 0 0 0 0 0 0 0 0 0 0 127 0" result="hardAlpha"/>
<feOffset dy="4"/>
<feGaussianBlur stdDeviation="10"/>
<feComposite in2="hardAlpha" operator="arithmetic" k2="-1" k3="1"/>
<feColorMatrix type="matrix" values="0 0 0 0 0 0 0 0 0 0 0 0 0 0 0 0 0 0 0.25 0"/>
<feBlend mode="normal" in2="shape" result="effect1_innerShadow_44_24"/>
</filter>
<filter id="filter2_i_44_24" x="198.638" y="295.438" width="71.9326" height="75.9323" filterUnits="userSpaceOnUse" color-interpolation-filters="sRGB">
<feFlood flood-opacity="0" result="BackgroundImageFix"/>
<feBlend mode="normal" in="SourceGraphic" in2="BackgroundImageFix" result="shape"/>
<feColorMatrix in="SourceAlpha" type="matrix" values="0 0 0 0 0 0 0 0 0 0 0 0 0 0 0 0 0 0 127 0" result="hardAlpha"/>
<feOffset dy="4"/>
<feGaussianBlur stdDeviation="15"/>
<feComposite in2="hardAlpha" operator="arithmetic" k2="-1" k3="1"/>
<feColorMatrix type="matrix" values="0 0 0 0 0 0 0 0 0 0 0 0 0 0 0 0 0 0 0.25 0"/>
<feBlend mode="normal" in2="shape" result="effect1_innerShadow_44_24"/>
</filter>
<filter id="filter3_i_44_24" x="275.763" y="288.072" width="72.5479" height="75.9663" filterUnits="userSpaceOnUse" color-interpolation-filters="sRGB">
<feFlood flood-opacity="0" result="BackgroundImageFix"/>
<feBlend mode="normal" in="SourceGraphic" in2="BackgroundImageFix" result="shape"/>
<feColorMatrix in="SourceAlpha" type="matrix" values="0 0 0 0 0 0 0 0 0 0 0 0 0 0 0 0 0 0 127 0" result="hardAlpha"/>
<feOffset dy="4"/>
<feGaussianBlur stdDeviation="15"/>
<feComposite in2="hardAlpha" operator="arithmetic" k2="-1" k3="1"/>
<feColorMatrix type="matrix" values="0 0 0 0 0 0 0 0 0 0 0 0 0 0 0 0 0 0 0.25 0"/>
<feBlend mode="normal" in2="shape" result="effect1_innerShadow_44_24"/>
</filter>
<linearGradient id="paint0_linear_44_24" x1="40.1897" y1="43.4606" x2="223.081" y2="382.054" gradientUnits="userSpaceOnUse">
<stop stop-color="#92C0FF" stop-opacity="0.74"/>
<stop offset="1" stop-color="#F1F7FF"/>
</linearGradient>
<linearGradient id="paint1_linear_44_24" x1="203.32" y1="294.713" x2="231.983" y2="379.68" gradientUnits="userSpaceOnUse">
<stop stop-color="#D5E7FF"/>
<stop offset="1" stop-color="#9FC7FA" stop-opacity="0"/>
</linearGradient>
<linearGradient id="paint2_linear_44_24" x1="296.838" y1="291.923" x2="310.153" y2="361.217" gradientUnits="userSpaceOnUse">
<stop stop-color="#FFDE89"/>
<stop offset="1" stop-color="#FFDB80" stop-opacity="0.44"/>
</linearGradient>
<linearGradient id="paint3_linear_44_24" x1="284.527" y1="301.183" x2="310.813" y2="359.237" gradientUnits="userSpaceOnUse">
<stop stop-color="#FFF4D6" stop-opacity="0.11"/>
<stop offset="1" stop-color="#FFDF8F" stop-opacity="0.17"/>
</linearGradient>
<linearGradient id="paint4_linear_44_24" x1="302.145" y1="346.367" x2="302.145" y2="315.857" gradientUnits="userSpaceOnUse">
<stop stop-color="#F6B499"/>
<stop offset="1" stop-color="#E6D6BE" stop-opacity="0"/>
</linearGradient>
<linearGradient id="paint5_linear_44_24" x1="323.934" y1="347.077" x2="323.934" y2="322.217" gradientUnits="userSpaceOnUse">
<stop stop-color="#F6B499"/>
<stop offset="1" stop-color="#E6D6BE" stop-opacity="0"/>
</linearGradient>
<linearGradient id="paint6_linear_44_24" x1="241.355" y1="333.564" x2="229.617" y2="297.266" gradientUnits="userSpaceOnUse">
<stop stop-color="#9FC8FF" stop-opacity="0.23"/>
<stop offset="1" stop-color="#EEE5D6" stop-opacity="0"/>
<stop offset="1" stop-color="#A4CBFF" stop-opacity="0"/>
</linearGradient>
<linearGradient id="paint7_linear_44_24" x1="229.472" y1="316.035" x2="229.472" y2="356.739" gradientUnits="userSpaceOnUse">
<stop stop-color="#5F60BD" stop-opacity="0.17"/>
<stop offset="1" stop-color="#5F60BD"/>
</linearGradient>
<linearGradient id="paint8_linear_44_24" x1="225.176" y1="353.611" x2="225.176" y2="327.056" gradientUnits="userSpaceOnUse">
<stop stop-color="#F6B499"/>
<stop offset="1" stop-color="#E6D6BE" stop-opacity="0"/>
</linearGradient>
<linearGradient id="paint9_linear_44_24" x1="238.089" y1="337.637" x2="238.089" y2="356.755" gradientUnits="userSpaceOnUse">
<stop stop-color="#F6B499"/>
<stop offset="1" stop-color="#F6B499" stop-opacity="0"/>
</linearGradient>
<clipPath id="clip0_44_24">
<rect x="40" y="46.8983" width="197.742" height="353.11" rx="20" transform="rotate(-3.15911 40 46.8983)" fill="white"/>
</clipPath>
<clipPath id="clip1_44_24">
<rect width="13" height="13" fill="white" transform="translate(186.422 47.7743) rotate(-3.15911)"/>
</clipPath>
<clipPath id="clip2_44_24">
<rect width="13" height="16" fill="white" transform="translate(205.391 46.7274) rotate(-3.15911)"/>
</clipPath>
<clipPath id="clip3_44_24">
<rect width="8.56411" height="8.56411" fill="white" transform="translate(149.566 359.36) rotate(-2.98036)"/>
</clipPath>
<clipPath id="clip4_44_24">
<rect width="11.1992" height="11.1992" fill="white" transform="translate(142.781 284.378) rotate(-3.15911)"/>
</clipPath>
</defs>
</svg>
