<svg width="549" height="543" viewBox="0 0 549 543" fill="none" xmlns="http://www.w3.org/2000/svg">
<path d="M5.5 288.886L6.25272 291.624L6.35374 291.991H6.73483H9.38097L7.17227 293.888L6.93189 294.094L7.01588 294.4L7.81685 297.313L5.82572 295.603L5.5 295.324L5.17428 295.603L3.18315 297.313L3.98412 294.4L4.06811 294.094L3.82773 293.888L1.61903 291.991H4.26517H4.64626L4.74728 291.624L5.5 288.886Z" stroke="black"/>
<path d="M447.5 462.886L448.253 465.624L448.354 465.991H448.735H451.381L449.172 467.888L448.932 468.094L449.016 468.4L449.817 471.313L447.826 469.603L447.5 469.324L447.174 469.603L445.183 471.313L445.984 468.4L446.068 468.094L445.828 467.888L443.619 465.991H446.265H446.646L446.747 465.624L447.5 462.886Z" stroke="black"/>
<path d="M409 73.8859L410.988 81.1151L411.089 81.4825H411.47H418.112L412.67 86.1549L412.43 86.3612L412.514 86.6667L414.55 94.0715L409.326 89.586L409 89.3063L408.674 89.586L403.45 94.0715L405.486 86.6667L405.57 86.3612L405.33 86.1549L399.888 81.4825H406.53H406.911L407.012 81.1151L409 73.8859Z" stroke="black"/>
<g filter="url(#filter0_d_44_22)">
<g clip-path="url(#clip0_44_22)">
<rect x="55" y="49.8865" width="252" height="450" rx="20" transform="rotate(-3.15911 55 49.8865)" fill="url(#paint0_linear_44_22)" shape-rendering="crispEdges"/>
<rect x="75.3671" y="91.8523" width="168.597" height="9" rx="4.5" transform="rotate(-3.15911 75.3671 91.8523)" fill="white"/>
<rect x="77" y="109.541" width="135.668" height="9" rx="4.5" transform="rotate(-3.15911 77 109.541)" fill="white"/>
<rect x="78" y="127.541" width="80.4455" height="9" rx="4.5" transform="rotate(-3.15911 78 127.541)" fill="white"/>
<path d="M78.8606 71.6044L77.6817 71.6695L77.2504 63.8547L74.9342 64.8535L74.8755 63.7887L78.165 62.3421L78.3488 62.3319L78.8606 71.6044ZM82.5791 66.7584L82.7942 62.1311L87.5223 61.8701L87.5822 62.9539L83.8491 63.16L83.7091 65.6915C84.1465 65.4004 84.6525 65.239 85.2272 65.2072C86.068 65.1608 86.751 65.4029 87.2762 65.9333C87.8011 66.4595 88.0897 67.1959 88.1419 68.1424C88.1944 69.0931 87.978 69.8573 87.4928 70.435C87.0117 71.0083 86.3105 71.3204 85.3894 71.3712C84.5739 71.4162 83.8959 71.2269 83.3555 70.8033C82.815 70.3796 82.4869 69.7705 82.371 68.9758L83.4801 68.9146C83.5811 69.4388 83.7912 69.8277 84.1103 70.0814C84.4292 70.3308 84.838 70.4417 85.3366 70.4142C85.8816 70.3841 86.2981 70.1746 86.5861 69.7858C86.8782 69.3967 87.0062 68.8747 86.9701 68.2198C86.936 67.6029 86.7397 67.1178 86.3812 66.7647C86.0266 66.407 85.5705 66.2436 85.0127 66.2744C84.5014 66.3026 84.1062 66.4367 83.827 66.6768L83.5305 66.9474L82.5791 66.7584ZM89.633 70.3932C89.6218 70.1904 89.6716 70.0181 89.7824 69.8764C89.8975 69.7344 90.0755 69.6568 90.3163 69.6435C90.5571 69.6302 90.7426 69.6878 90.8726 69.8162C91.0068 69.9444 91.0795 70.1099 91.0907 70.3128C91.1014 70.5071 91.047 70.6733 90.9275 70.8113C90.8122 70.949 90.6341 71.0246 90.3933 71.0378C90.1524 71.0511 89.9671 70.9957 89.8374 70.8715C89.7118 70.747 89.6437 70.5876 89.633 70.3932ZM89.3304 64.7964C89.3192 64.5936 89.369 64.4213 89.4799 64.2796C89.595 64.1376 89.7729 64.06 90.0138 64.0467C90.2546 64.0334 90.44 64.091 90.57 64.2194C90.7042 64.3476 90.777 64.5131 90.7881 64.7159C90.7989 64.9103 90.7445 65.0765 90.6249 65.2145C90.5096 65.3522 90.3316 65.4277 90.0907 65.441C89.8499 65.4543 89.6646 65.3989 89.5348 65.2746C89.4093 65.1502 89.3411 64.9908 89.3304 64.7964ZM98.2975 66.5838C98.3733 67.957 98.1951 68.9904 97.763 69.6838C97.3308 70.3773 96.6161 70.7516 95.6189 70.8066C94.6344 70.861 93.8876 70.5759 93.3784 69.9513C92.8691 69.3225 92.5701 68.3599 92.4816 67.0637L92.3952 65.4982C92.3204 64.1419 92.4992 63.1212 92.9319 62.4361C93.3645 61.7511 94.0815 61.3809 95.0829 61.3257C96.0759 61.2709 96.8245 61.5495 97.3287 62.1617C97.8327 62.7696 98.1277 63.7366 98.2136 65.0626L98.2975 66.5838ZM97.0365 65.045C96.9817 64.052 96.8024 63.3372 96.4985 62.9004C96.1945 62.4595 95.7403 62.2557 95.1361 62.2891C94.5361 62.3222 94.1113 62.5724 93.8616 63.0396C93.6119 63.5069 93.5087 64.2098 93.552 65.1483L93.6556 67.0243C93.7106 68.0215 93.8949 68.7509 94.2086 69.2125C94.5263 69.6697 94.9788 69.882 95.5661 69.8496C96.145 69.8177 96.5615 69.57 96.8156 69.1068C97.074 68.6432 97.183 67.9295 97.1425 66.9654L97.0365 65.045ZM101.436 65.1582L102.317 65.1095C102.87 65.0705 103.297 64.9007 103.598 64.6002C103.899 64.2996 104.037 63.9084 104.01 63.4267C103.95 62.3451 103.382 61.8339 102.304 61.8934C101.797 61.9214 101.4 62.0896 101.112 62.3979C100.827 62.7018 100.699 63.0925 100.725 63.5699L99.5524 63.6346C99.5121 62.9037 99.7448 62.2826 100.251 61.7715C100.76 61.256 101.427 60.9755 102.251 60.93C103.122 60.882 103.817 61.0746 104.337 61.5079C104.856 61.9412 105.139 62.5677 105.184 63.3874C105.206 63.7888 105.097 64.1847 104.855 64.5753C104.618 64.9655 104.281 65.266 103.844 65.4766C104.359 65.6092 104.765 65.8538 105.06 66.2105C105.36 66.5669 105.524 67.0135 105.554 67.5501C105.599 68.3783 105.365 69.0502 104.851 69.566C104.337 70.0818 103.647 70.3635 102.781 70.4114C101.915 70.4592 101.196 70.2636 100.625 69.8247C100.058 69.3855 99.7538 68.7814 99.7114 68.0124L100.89 67.9473C100.917 68.4333 101.097 68.8132 101.43 69.0873C101.763 69.3614 102.196 69.4837 102.728 69.4543C103.294 69.4231 103.719 69.2513 104.003 68.9389C104.287 68.6266 104.413 68.1937 104.383 67.6402C104.353 67.1035 104.165 66.7007 103.82 66.4315C103.475 66.1624 102.991 66.0408 102.369 66.0666L101.488 66.1152L101.436 65.1582Z" fill="black"/>
<rect x="239.657" y="56.7207" width="3" height="3" transform="rotate(-3.15911 239.657 56.7207)" fill="black"/>
<rect x="244.429" y="52.4512" width="3" height="7" transform="rotate(-3.15911 244.429 52.4512)" fill="black"/>
<rect x="248.258" y="49.2354" width="4" height="10" transform="rotate(-3.15911 248.258 49.2354)" fill="black"/>
<g clip-path="url(#clip1_44_22)">
<path d="M266.406 55.5581C266.444 56.2593 265.908 56.858 265.207 56.8967C264.506 56.9354 263.907 56.3993 263.868 55.6981C263.829 54.9967 264.366 54.398 265.067 54.3593C265.768 54.3206 266.367 54.8567 266.406 55.5581ZM262.082 53.347L263.099 54.1089C264.005 52.8967 265.963 52.7886 266.996 53.8948L267.925 53.0281C267.15 52.1988 266.057 51.7594 264.927 51.8217C263.797 51.8841 262.76 52.4397 262.082 53.347ZM260.2 51.6278L261.187 52.4284C262.089 51.3148 263.426 50.632 264.857 50.5531C266.287 50.4741 267.691 51.0056 268.709 52.0107L269.601 51.1064C268.328 49.8493 266.573 49.1857 264.787 49.2843C262.999 49.3829 261.327 50.2382 260.2 51.6278ZM258.311 49.9239L259.286 50.7388C260.636 49.1243 262.615 48.1314 264.717 48.0154C266.849 47.8977 268.871 48.6462 270.412 50.1221L271.291 49.2036C269.519 47.5069 267.097 46.6114 264.647 46.7467C262.195 46.882 259.886 48.0398 258.311 49.9239Z" fill="black"/>
</g>
<g clip-path="url(#clip2_44_22)">
<path d="M277.281 48.8606L277.697 56.3963L289.943 55.7204L289.527 48.1847L277.281 48.8606ZM289.158 54.8567L278.382 55.4514L278.066 49.7243L288.842 49.1296L289.158 54.8567Z" fill="black"/>
<path d="M279.586 50.5461L278.851 50.5867L279.067 54.5052L279.802 54.4647L279.586 50.5461Z" fill="black"/>
<path d="M290.361 49.9514L289.626 49.9919L289.842 53.9105L290.577 53.87L290.361 49.9514Z" fill="black"/>
</g>
<path d="M260.254 352.442C259.886 352.853 259.921 353.486 260.332 353.854L267.037 359.858C267.449 360.226 268.081 360.191 268.449 359.78C268.818 359.368 268.783 358.736 268.371 358.368L262.411 353.031L267.748 347.071C268.116 346.66 268.081 346.027 267.67 345.659C267.258 345.291 266.626 345.325 266.258 345.737L260.254 352.442ZM262.941 352L260.944 352.111L261.054 354.107L263.051 353.997L262.941 352Z" fill="#6D6D6D"/>
<circle cx="203.899" cy="461.306" r="14.5" transform="rotate(-3.15911 203.899 461.306)" stroke="#BDBDBD"/>
<path d="M219.21 457.456C219.651 465.437 213.319 472.303 205.032 472.761C196.745 473.218 189.696 467.09 189.256 459.11C188.815 451.129 195.147 444.262 203.434 443.805C211.721 443.348 218.77 449.476 219.21 457.456Z" stroke="#BDBDBD"/>
<path d="M234.62 272.798C235.925 294.835 219.788 313.544 198.618 314.623C177.449 315.703 159.199 298.748 157.894 276.71C156.588 254.673 172.726 235.964 193.895 234.884C215.064 233.805 233.314 250.76 234.62 272.798Z" stroke="#BDBDBD"/>
<path d="M236.733 264.591C238.037 286.613 221.336 305.367 199.436 306.483C177.536 307.6 158.72 290.658 157.416 268.636C156.111 246.614 172.813 227.861 194.713 226.744C216.613 225.628 235.428 242.569 236.733 264.591Z" stroke="#BDBDBD"/>
<path d="M230.171 273.512C231.476 295.534 214.775 314.287 192.875 315.404C170.975 316.521 152.159 299.579 150.855 277.557C149.55 255.535 166.251 236.782 188.151 235.665C210.051 234.548 228.867 251.49 230.171 273.512Z" stroke="#BDBDBD"/>
<circle cx="113.293" cy="289.062" r="26" transform="rotate(-3.15911 113.293 289.062)" fill="#D277B9"/>
<circle cx="279.715" cy="255.84" r="26" transform="rotate(-3.15911 279.715 255.84)" fill="#2BD8F5"/>
<circle cx="113.293" cy="289.062" r="8.5" transform="rotate(-3.15911 113.293 289.062)" stroke="white"/>
<ellipse cx="195.495" cy="271.24" rx="26" ry="27.8516" transform="rotate(-3.15911 195.495 271.24)" fill="#2D6EFD"/>
<path d="M288.575 259.699L288.268 254.122C288.246 253.734 288.129 253.355 287.923 253.009C287.716 252.663 287.426 252.357 287.068 252.11L280.411 247.496C280.076 247.264 279.643 247.148 279.2 247.173C278.758 247.197 278.34 247.36 278.032 247.628L271.923 252.946C271.595 253.231 271.34 253.567 271.173 253.934C271.006 254.3 270.931 254.69 270.952 255.078L271.26 260.654C271.281 261.032 271.484 261.385 271.823 261.634C272.163 261.884 272.611 262.009 273.07 261.984L286.923 261.22C287.382 261.194 287.814 261.02 288.124 260.735C288.434 260.449 288.596 260.077 288.575 259.699Z" stroke="white" stroke-linecap="round" stroke-linejoin="round"/>
<path d="M206.085 462.171L205.274 462.213L205.231 461.401L203.609 461.486L203.651 462.297L202.839 462.34L202.797 461.528C202.786 461.313 202.861 461.102 203.005 460.942C203.149 460.782 203.351 460.686 203.566 460.675L205.189 460.59C205.404 460.579 205.615 460.654 205.775 460.798C205.935 460.942 206.031 461.144 206.043 461.359L206.085 462.171Z" fill="#1D1D1D"/>
<path d="M204.357 460.227C204.116 460.239 203.877 460.18 203.67 460.057C203.463 459.933 203.297 459.751 203.193 459.534C203.089 459.316 203.052 459.073 203.087 458.834C203.122 458.596 203.226 458.373 203.388 458.194C203.549 458.015 203.76 457.887 203.994 457.828C204.227 457.769 204.473 457.78 204.7 457.861C204.928 457.941 205.126 458.087 205.27 458.281C205.414 458.474 205.498 458.705 205.51 458.946C205.527 459.269 205.415 459.585 205.198 459.825C204.982 460.065 204.679 460.209 204.357 460.227ZM204.272 458.604C204.192 458.608 204.115 458.636 204.05 458.684C203.986 458.732 203.937 458.798 203.91 458.874C203.883 458.949 203.88 459.031 203.899 459.109C203.919 459.187 203.962 459.257 204.021 459.311C204.081 459.365 204.155 459.4 204.235 459.411C204.314 459.423 204.395 459.411 204.468 459.376C204.541 459.342 204.601 459.286 204.642 459.217C204.683 459.148 204.703 459.069 204.699 458.988C204.693 458.881 204.645 458.78 204.565 458.708C204.485 458.636 204.38 458.598 204.272 458.604Z" fill="#1D1D1D"/>
<path d="M204.695 466.718L201.062 462.86C201.011 462.802 200.961 462.743 200.911 462.684C200.286 461.944 199.922 461.02 199.873 460.053C199.811 458.87 200.222 457.71 201.016 456.83C201.809 455.949 202.92 455.42 204.103 455.358C205.287 455.297 206.446 455.708 207.327 456.501C208.207 457.294 208.737 458.405 208.798 459.589C208.85 460.555 208.583 461.512 208.039 462.312L208.039 462.313C208.039 462.313 207.925 462.479 207.908 462.502L204.695 466.718ZM201.533 462.162C201.534 462.161 201.635 462.282 201.658 462.307L204.629 465.463L207.26 462.011C207.277 461.988 207.366 461.857 207.366 461.857C207.811 461.203 208.029 460.421 207.987 459.631C207.936 458.662 207.503 457.754 206.783 457.105C206.063 456.456 205.114 456.119 204.145 456.17C203.177 456.22 202.268 456.653 201.619 457.373C200.97 458.094 200.634 459.043 200.684 460.011C200.724 460.801 201.023 461.557 201.534 462.161L201.533 462.162Z" fill="#1D1D1D"/>
<circle cx="195.755" cy="349.61" r="22" transform="rotate(-3.15911 195.755 349.61)" fill="#8247F5"/>
<path d="M196.226 349.083C198.179 348.975 199.675 347.304 199.567 345.351C199.459 343.398 197.789 341.902 195.836 342.01C193.883 342.118 192.387 343.789 192.495 345.742C192.602 347.695 194.273 349.191 196.226 349.083Z" stroke="white" stroke-width="2"/>
<path d="M199.841 350.302L200.09 350.288C200.607 350.26 201.116 350.421 201.523 350.742C201.929 351.063 202.205 351.521 202.297 352.031L202.695 354.225C202.731 354.423 202.725 354.626 202.676 354.821C202.627 355.016 202.538 355.198 202.413 355.356C202.289 355.513 202.132 355.643 201.954 355.735C201.776 355.828 201.58 355.881 201.379 355.892L191.854 356.418C191.653 356.429 191.453 356.398 191.265 356.325C191.078 356.253 190.908 356.141 190.767 355.998C190.626 355.855 190.517 355.684 190.447 355.496C190.377 355.307 190.348 355.106 190.362 354.906L190.516 352.681C190.552 352.164 190.775 351.678 191.144 351.314C191.513 350.951 192.002 350.734 192.52 350.706L192.768 350.692" stroke="white" stroke-width="2" stroke-linecap="round" stroke-linejoin="round"/>
<g filter="url(#filter1_i_44_22)">
<circle cx="165.859" cy="189.013" r="13" transform="rotate(-3.15911 165.859 189.013)" fill="#8247F5"/>
</g>
<path d="M170.755 191.95L170.554 188.301C170.54 188.048 170.477 187.799 170.369 187.571C170.26 187.343 170.109 187.141 169.925 186.976L166.483 183.908C166.309 183.753 166.087 183.674 165.861 183.686C165.634 183.699 165.422 183.802 165.267 183.975L162.183 187.403C162.018 187.587 161.89 187.805 161.807 188.044C161.725 188.282 161.69 188.536 161.704 188.79L161.905 192.438C161.919 192.686 162.025 192.918 162.201 193.083C162.376 193.249 162.607 193.335 162.842 193.322L169.922 192.931C170.156 192.918 170.376 192.808 170.532 192.624C170.689 192.44 170.769 192.197 170.755 191.95Z" stroke="white" stroke-width="2" stroke-linecap="round" stroke-linejoin="round"/>
<ellipse cx="233.029" cy="180.526" rx="8" ry="8.5" transform="rotate(0.198489 233.029 180.526)" fill="#F6BD11"/>
<ellipse cx="272.738" cy="132.031" rx="4.72048" ry="5.01551" transform="rotate(0.198489 272.738 132.031)" fill="#F6BD11"/>
<ellipse cx="199.178" cy="135.512" rx="3.286" ry="3.49138" transform="rotate(0.198489 199.178 135.512)" fill="#2BD8F5"/>
<ellipse cx="112.63" cy="204.47" rx="8" ry="8.5" transform="rotate(-3.15911 112.63 204.47)" fill="#F6BD11"/>
<path d="M198.009 259.601C197.935 259.628 197.838 259.673 197.796 259.7C197.68 259.775 197.543 259.931 197.49 260.051C197.448 260.144 197.443 260.177 197.453 260.352C197.463 260.527 197.471 260.559 197.521 260.644C197.642 260.844 197.833 260.98 198.056 261.025C198.143 261.044 198.285 261.052 198.468 261.049C201.629 260.999 204.569 262.529 206.099 265.022C206.64 265.904 206.983 266.886 207.106 267.916C207.149 268.272 207.187 268.414 207.271 268.525C207.349 268.634 207.512 268.749 207.669 268.805C207.793 268.85 207.821 268.854 208.004 268.844C208.187 268.834 208.214 268.827 208.332 268.768C208.575 268.649 208.726 268.46 208.787 268.196C208.813 268.087 208.811 268.053 208.778 267.847C208.759 267.722 208.726 267.531 208.711 267.424C208.529 266.258 208.062 265.057 207.407 264.062C206.524 262.723 205.3 261.619 203.832 260.839C202.299 260.024 200.664 259.607 198.814 259.56C198.214 259.545 198.164 259.545 198.009 259.601Z" fill="white"/>
<path d="M197.265 262.442C197.032 262.508 196.83 262.676 196.737 262.874C196.666 263.027 196.658 263.246 196.718 263.401C196.769 263.533 196.906 263.694 197.031 263.767C197.2 263.866 197.307 263.887 197.684 263.893C198.117 263.901 198.395 263.922 198.734 263.971C201.291 264.346 203.335 266.061 203.924 268.326C203.982 268.55 204.016 268.731 204.079 269.151C204.114 269.386 204.174 269.502 204.319 269.631C204.455 269.747 204.569 269.803 204.728 269.832C205.199 269.916 205.651 269.624 205.717 269.195C205.747 269.003 205.629 268.283 205.489 267.8C204.864 265.638 203.168 263.866 200.879 262.983C200.216 262.727 199.422 262.538 198.671 262.457C198.125 262.398 197.438 262.391 197.265 262.442Z" fill="white"/>
<path d="M187.742 263.132C187.375 263.191 187.164 263.259 186.869 263.411C186.457 263.626 186.078 263.914 185.676 264.32C185.359 264.639 185.146 264.9 184.892 265.287C184.653 265.649 184.512 265.903 184.337 266.277C183.933 267.143 183.587 268.352 183.537 269.064C183.53 269.163 183.52 269.304 183.514 269.376C183.498 269.544 183.513 269.826 183.548 269.991C183.562 270.062 183.588 270.207 183.606 270.316C183.95 272.368 185.648 274.97 188.31 277.527C188.956 278.148 189.066 278.24 189.655 278.659C191.57 280.022 193.719 281.166 195.526 281.78C196.672 282.171 197.754 282.393 198.66 282.421C198.786 282.427 198.956 282.434 199.036 282.438C199.222 282.451 199.516 282.435 199.699 282.402C199.778 282.388 199.932 282.364 200.041 282.347C200.594 282.261 201.628 281.942 202.364 281.631C204.058 280.913 205.289 279.925 205.883 278.807C206.058 278.477 206.127 278.181 206.126 277.765C206.126 277.112 205.878 276.408 205.453 275.862C205.093 275.397 204.545 274.976 203.921 274.682C203.064 274.279 202.1 273.997 201.289 273.909C201.002 273.878 200.247 273.92 200.007 273.98C199.486 274.111 199.068 274.329 198.731 274.647C198.587 274.783 198.514 274.875 198.188 275.321C198.114 275.424 197.963 275.597 197.853 275.707C197.079 276.478 196.249 276.576 195.196 276.019C194.205 275.493 191.763 273.52 191.059 272.675C190.879 272.461 190.688 272.141 190.617 271.937C190.537 271.712 190.512 271.402 190.557 271.205C190.67 270.715 191.037 270.266 191.733 269.767C192.329 269.341 192.659 268.851 192.778 268.223C192.91 267.514 192.73 266.708 192.225 265.752C192.093 265.501 191.714 264.91 191.557 264.707C191.27 264.337 190.871 263.963 190.515 263.733C189.924 263.352 189.231 263.132 188.498 263.097C188.33 263.09 187.879 263.111 187.742 263.132ZM188.664 264.298C189.165 264.364 189.561 264.536 189.96 264.86C190.29 265.13 190.475 265.353 190.809 265.883C191.58 267.109 191.712 268.081 191.178 268.63C191.123 268.687 190.994 268.794 190.89 268.87C190.461 269.179 190.035 269.574 189.814 269.866C188.997 270.947 189.021 272.113 189.891 273.245C190.056 273.464 190.245 273.667 190.546 273.959C191.6 274.973 193.2 276.242 194.215 276.866C195.265 277.512 196.324 277.709 197.283 277.433C198.105 277.196 198.872 276.594 199.449 275.734C199.73 275.311 200.106 275.117 200.704 275.084C201.32 275.05 202.129 275.233 203.016 275.605C203.622 275.86 203.971 276.089 204.289 276.439C204.637 276.819 204.833 277.368 204.805 277.875C204.792 278.104 204.762 278.211 204.655 278.396C204.207 279.178 203.252 279.925 201.979 280.492C201.456 280.725 200.505 281.045 199.995 281.157C199.759 281.21 199.094 281.262 198.791 281.252C196.992 281.194 194.739 280.373 192.209 278.856C191.465 278.409 190.58 277.821 190.109 277.46C189.853 277.262 189.301 276.753 188.814 276.26C186.282 273.704 184.862 271.272 184.839 269.45C184.835 269.111 184.871 268.829 184.974 268.397C185.319 266.949 185.896 265.823 186.694 265.044C186.978 264.766 187.205 264.594 187.477 264.454C187.639 264.369 187.723 264.336 187.828 264.318C188.023 264.283 188.473 264.273 188.664 264.298Z" fill="white"/>
<path d="M196.346 265.38C195.751 265.567 195.586 266.265 196.051 266.639C196.208 266.765 196.372 266.82 196.619 266.828C197.388 266.855 197.841 266.94 198.395 267.159C198.931 267.369 199.358 267.636 199.753 268.007C200.345 268.561 200.759 269.298 200.887 270.034C200.905 270.137 200.93 270.279 200.944 270.35C201.012 270.717 201.343 270.971 201.746 270.969C202.178 270.965 202.512 270.704 202.578 270.317C202.59 270.243 202.586 270.159 202.56 269.986C202.359 268.658 201.683 267.519 200.589 266.661C200.246 266.393 200.039 266.257 199.692 266.074C198.916 265.665 198.091 265.431 197.18 265.361C196.804 265.331 196.478 265.34 196.346 265.38Z" fill="white"/>
</g>
<rect x="56.5804" y="51.3015" width="249" height="447" rx="18.5" transform="rotate(-3.15911 56.5804 51.3015)" stroke="white" stroke-width="3" shape-rendering="crispEdges"/>
</g>
<path d="M548.743 330.666C549.112 330.255 549.077 329.623 548.666 329.254L541.961 323.251C541.549 322.882 540.917 322.917 540.548 323.329C540.18 323.74 540.215 324.372 540.626 324.741L546.586 330.077L541.25 336.037C540.881 336.449 540.916 337.081 541.328 337.449C541.739 337.818 542.371 337.783 542.74 337.371L548.743 330.666ZM547.055 331.053L548.054 330.998L547.943 329.001L546.945 329.056L547.055 331.053Z" fill="#6D6D6D"/>
<g filter="url(#filter2_i_44_22)">
<rect x="283" y="290.228" width="114" height="114" rx="20" transform="rotate(-3.16 283 290.228)" fill="url(#paint1_linear_44_22)"/>
</g>
<g filter="url(#filter3_i_44_22)">
<rect x="408.055" y="278.34" width="115" height="114" rx="20" transform="rotate(-3.16 408.055 278.34)" fill="url(#paint2_linear_44_22)"/>
</g>
<path d="M413.379 286.082L505.273 303.47C514.311 305.18 521.017 312.834 521.524 322.019L523.738 362.114C524.347 373.143 515.9 382.577 504.871 383.186L438.971 386.824C427.942 387.433 418.508 378.986 417.899 367.957L413.379 286.082Z" fill="url(#paint3_linear_44_22)" fill-opacity="0.71"/>
<rect x="423.422" y="351.099" width="3" height="23" rx="1.5" transform="rotate(-3.16 423.422 351.099)" fill="#5F60BD"/>
<rect x="439.258" y="345.051" width="1" height="29" rx="0.5" transform="rotate(-3.16 439.258 345.051)" fill="#5F60BD" fill-opacity="0.74"/>
<rect x="446.863" y="367.033" width="1" height="7" rx="0.5" transform="rotate(-3.16 446.863 367.033)" fill="#5F60BD" fill-opacity="0.74"/>
<rect x="460.422" y="349.156" width="2" height="25" rx="1" transform="rotate(-3.16 460.422 349.156)" fill="#5F60BD" fill-opacity="0.74"/>
<rect x="480.809" y="363.119" width="1" height="11" rx="0.5" transform="rotate(-3.16 480.809 363.119)" fill="#5F60BD" fill-opacity="0.74"/>
<rect x="495.836" y="364.117" width="1" height="10" rx="0.5" transform="rotate(-3.16 495.836 364.117)" fill="#5F60BD" fill-opacity="0.52"/>
<rect x="502.836" y="364.117" width="1" height="10" rx="0.5" transform="rotate(-3.16 502.836 364.117)" fill="#5F60BD" fill-opacity="0.52"/>
<rect x="510.863" y="365.144" width="2" height="9" rx="1" transform="rotate(-3.16 510.863 365.144)" fill="#5F60BD"/>
<rect x="452.566" y="320.068" width="1" height="54" rx="0.5" transform="rotate(-3.16 452.566 320.068)" fill="url(#paint4_linear_44_22)"/>
<rect x="487.898" y="330.144" width="1" height="44" rx="0.5" transform="rotate(-3.16 487.898 330.144)" fill="url(#paint5_linear_44_22)"/>
<path d="M288.324 295.972L379.262 313.388C388.28 315.115 394.963 322.761 395.469 331.929L397.685 372.06C398.294 383.089 389.847 392.523 378.818 393.132L313.917 396.715C302.888 397.324 293.453 388.877 292.844 377.848L288.324 295.972Z" fill="url(#paint6_linear_44_22)" fill-opacity="0.71"/>
<rect x="298.863" y="378.06" width="2" height="7" rx="1" transform="rotate(-3.16 298.863 378.06)" fill="#5F60BD"/>
<rect x="314.559" y="367.041" width="1" height="18" rx="0.5" transform="rotate(-3.16 314.559 367.041)" fill="#5F60BD" fill-opacity="0.74"/>
<rect x="321.172" y="353.051" width="1" height="32" rx="0.5" transform="rotate(-3.16 321.172 353.051)" fill="#5F60BD" fill-opacity="0.74"/>
<rect x="334.234" y="319.078" width="1" height="66" rx="0.5" transform="rotate(-3.16 334.234 319.078)" fill="url(#paint7_linear_44_22)" fill-opacity="0.74"/>
<rect x="356.613" y="369.039" width="1" height="16" rx="0.5" transform="rotate(-3.16 356.613 369.039)" fill="#5F60BD" fill-opacity="0.74"/>
<rect x="377.117" y="351.052" width="1" height="34" rx="0.5" transform="rotate(-3.16 377.117 351.052)" fill="#5F60BD" fill-opacity="0.52"/>
<rect x="384.258" y="356.078" width="2" height="29" rx="1" transform="rotate(-3.16 384.258 356.078)" fill="#5F60BD"/>
<rect x="306.09" y="350.054" width="1" height="35" rx="0.5" transform="rotate(-3.16 306.09 350.054)" fill="#F6B499"/>
<rect x="306.09" y="350.054" width="1" height="35" rx="0.5" transform="rotate(-3.16 306.09 350.054)" fill="#F6B499"/>
<rect x="305.789" y="339.062" width="1" height="46" rx="0.5" transform="rotate(-3.16 305.789 339.062)" fill="#F6B499"/>
<rect x="327.762" y="338.062" width="1" height="47" rx="0.5" transform="rotate(-3.16 327.762 338.062)" fill="url(#paint8_linear_44_22)"/>
<rect x="347.203" y="354.105" width="3" height="31" rx="1.5" transform="rotate(-3.16 347.203 354.105)" fill="url(#paint9_linear_44_22)"/>
<defs>
<filter id="filter0_d_44_22" x="15" y="-0.000976562" width="356.416" height="543.204" filterUnits="userSpaceOnUse" color-interpolation-filters="sRGB">
<feFlood flood-opacity="0" result="BackgroundImageFix"/>
<feColorMatrix in="SourceAlpha" type="matrix" values="0 0 0 0 0 0 0 0 0 0 0 0 0 0 0 0 0 0 127 0" result="hardAlpha"/>
<feOffset dy="4"/>
<feGaussianBlur stdDeviation="20"/>
<feComposite in2="hardAlpha" operator="out"/>
<feColorMatrix type="matrix" values="0 0 0 0 0 0 0 0 0 0 0 0 0 0 0 0 0 0 0.25 0"/>
<feBlend mode="normal" in2="BackgroundImageFix" result="effect1_dropShadow_44_22"/>
<feBlend mode="normal" in="SourceGraphic" in2="effect1_dropShadow_44_22" result="shape"/>
</filter>
<filter id="filter1_i_44_22" x="152.859" y="176.013" width="26.0007" height="30.0007" filterUnits="userSpaceOnUse" color-interpolation-filters="sRGB">
<feFlood flood-opacity="0" result="BackgroundImageFix"/>
<feBlend mode="normal" in="SourceGraphic" in2="BackgroundImageFix" result="shape"/>
<feColorMatrix in="SourceAlpha" type="matrix" values="0 0 0 0 0 0 0 0 0 0 0 0 0 0 0 0 0 0 127 0" result="hardAlpha"/>
<feOffset dy="4"/>
<feGaussianBlur stdDeviation="10"/>
<feComposite in2="hardAlpha" operator="arithmetic" k2="-1" k3="1"/>
<feColorMatrix type="matrix" values="0 0 0 0 0 0 0 0 0 0 0 0 0 0 0 0 0 0 0.25 0"/>
<feBlend mode="normal" in2="shape" result="effect1_innerShadow_44_22"/>
</filter>
<filter id="filter2_i_44_22" x="284.072" y="285.016" width="117.968" height="121.968" filterUnits="userSpaceOnUse" color-interpolation-filters="sRGB">
<feFlood flood-opacity="0" result="BackgroundImageFix"/>
<feBlend mode="normal" in="SourceGraphic" in2="BackgroundImageFix" result="shape"/>
<feColorMatrix in="SourceAlpha" type="matrix" values="0 0 0 0 0 0 0 0 0 0 0 0 0 0 0 0 0 0 127 0" result="hardAlpha"/>
<feOffset dy="4"/>
<feGaussianBlur stdDeviation="15"/>
<feComposite in2="hardAlpha" operator="arithmetic" k2="-1" k3="1"/>
<feColorMatrix type="matrix" values="0 0 0 0 0 0 0 0 0 0 0 0 0 0 0 0 0 0 0.25 0"/>
<feBlend mode="normal" in2="shape" result="effect1_innerShadow_44_22"/>
</filter>
<filter id="filter3_i_44_22" x="409.126" y="273.072" width="118.966" height="122.023" filterUnits="userSpaceOnUse" color-interpolation-filters="sRGB">
<feFlood flood-opacity="0" result="BackgroundImageFix"/>
<feBlend mode="normal" in="SourceGraphic" in2="BackgroundImageFix" result="shape"/>
<feColorMatrix in="SourceAlpha" type="matrix" values="0 0 0 0 0 0 0 0 0 0 0 0 0 0 0 0 0 0 127 0" result="hardAlpha"/>
<feOffset dy="4"/>
<feGaussianBlur stdDeviation="15"/>
<feComposite in2="hardAlpha" operator="arithmetic" k2="-1" k3="1"/>
<feColorMatrix type="matrix" values="0 0 0 0 0 0 0 0 0 0 0 0 0 0 0 0 0 0 0.25 0"/>
<feBlend mode="normal" in2="shape" result="effect1_innerShadow_44_22"/>
</filter>
<linearGradient id="paint0_linear_44_22" x1="55.2418" y1="45.5055" x2="288.316" y2="477.006" gradientUnits="userSpaceOnUse">
<stop stop-color="#92C0FF" stop-opacity="0.74"/>
<stop offset="1" stop-color="#F1F7FF"/>
</linearGradient>
<linearGradient id="paint1_linear_44_22" x1="292.33" y1="284.505" x2="338.806" y2="422.277" gradientUnits="userSpaceOnUse">
<stop stop-color="#D5E7FF"/>
<stop offset="1" stop-color="#9FC7FA" stop-opacity="0"/>
</linearGradient>
<linearGradient id="paint2_linear_44_22" x1="443.964" y1="279.983" x2="465.555" y2="392.34" gradientUnits="userSpaceOnUse">
<stop stop-color="#FFDE89"/>
<stop offset="1" stop-color="#FFDB80" stop-opacity="0.44"/>
</linearGradient>
<linearGradient id="paint3_linear_44_22" x1="424" y1="295" x2="466.623" y2="389.132" gradientUnits="userSpaceOnUse">
<stop stop-color="#FFF4D6" stop-opacity="0.11"/>
<stop offset="1" stop-color="#FFDF8F" stop-opacity="0.17"/>
</linearGradient>
<linearGradient id="paint4_linear_44_22" x1="452.566" y1="368.262" x2="452.566" y2="318.791" gradientUnits="userSpaceOnUse">
<stop stop-color="#F6B499"/>
<stop offset="1" stop-color="#E6D6BE" stop-opacity="0"/>
</linearGradient>
<linearGradient id="paint5_linear_44_22" x1="487.898" y1="369.413" x2="487.898" y2="329.103" gradientUnits="userSpaceOnUse">
<stop stop-color="#F6B499"/>
<stop offset="1" stop-color="#E6D6BE" stop-opacity="0"/>
</linearGradient>
<linearGradient id="paint6_linear_44_22" x1="354" y1="347.501" x2="334.967" y2="288.646" gradientUnits="userSpaceOnUse">
<stop stop-color="#9FC8FF" stop-opacity="0.23"/>
<stop offset="1" stop-color="#EEE5D6" stop-opacity="0"/>
<stop offset="1" stop-color="#A4CBFF" stop-opacity="0"/>
</linearGradient>
<linearGradient id="paint7_linear_44_22" x1="334.734" y1="319.078" x2="334.734" y2="385.078" gradientUnits="userSpaceOnUse">
<stop stop-color="#5F60BD" stop-opacity="0.17"/>
<stop offset="1" stop-color="#5F60BD"/>
</linearGradient>
<linearGradient id="paint8_linear_44_22" x1="327.762" y1="380.008" x2="327.762" y2="336.95" gradientUnits="userSpaceOnUse">
<stop stop-color="#F6B499"/>
<stop offset="1" stop-color="#E6D6BE" stop-opacity="0"/>
</linearGradient>
<linearGradient id="paint9_linear_44_22" x1="348.703" y1="354.105" x2="348.703" y2="385.105" gradientUnits="userSpaceOnUse">
<stop stop-color="#F6B499"/>
<stop offset="1" stop-color="#F6B499" stop-opacity="0"/>
</linearGradient>
<clipPath id="clip0_44_22">
<rect x="55" y="49.8865" width="252" height="450" rx="20" transform="rotate(-3.15911 55 49.8865)" fill="white"/>
</clipPath>
<clipPath id="clip1_44_22">
<rect width="13" height="13" fill="white" transform="translate(258.077 45.6887) rotate(-3.15911)"/>
</clipPath>
<clipPath id="clip2_44_22">
<rect width="13" height="16" fill="white" transform="translate(277.048 44.6416) rotate(-3.15911)"/>
</clipPath>
</defs>
</svg>
