<svg width="440" height="421" viewBox="0 0 440 421" fill="none" xmlns="http://www.w3.org/2000/svg">
<g clip-path="url(#clip0_12_2281)">
<rect width="760" height="6888" transform="translate(0 -4231)" fill="white"/>
<circle cx="431.219" cy="50.263" r="7.10183" transform="rotate(-17.3946 431.219 50.263)" fill="#006BFF"/>
<circle cx="155.84" cy="206.674" r="4.97128" transform="rotate(-17.3946 155.84 206.674)" fill="#FED403"/>
<path d="M208.867 172.621L208.422 172.856L208.432 172.875L208.443 172.893L208.867 172.621ZM20.8419 348.538L20.3884 348.345L20.3799 348.364L20.3731 348.384L20.8419 348.538ZM4.39087 396.82L3.92213 396.666L3.9121 396.696L3.90566 396.726L4.39087 396.82ZM-10.1567 463.119C-10.2146 463.392 -10.0443 463.655 -9.77628 463.707C-9.50831 463.759 -9.24415 463.58 -9.18628 463.306L-10.1567 463.119ZM43.9677 295.282L43.5142 295.089L43.9677 295.282ZM73.5621 255.992L73.2554 255.604L73.5621 255.992ZM244.758 177.813L244.908 178.289L244.758 177.813ZM272.875 192.007L272.441 191.773L272.875 192.007ZM256.4 203.953L256.397 203.449L256.4 203.953ZM271.539 194.477L271.973 194.711L271.539 194.477ZM247.301 204.239L247.298 203.735L247.301 204.239ZM219.628 190.01L220.041 189.721L219.628 190.01ZM197 148.69L197.444 148.455L197 148.69ZM198.494 78.2036L198.059 77.9717L198.494 78.2036ZM215.733 53.821L216.081 54.1706L215.733 53.821ZM200.213 74.9975L199.778 74.7656L200.213 74.9975ZM259.137 23.1271L259.317 23.5914L259.137 23.1271ZM218.817 50.6597L218.468 50.3101L218.817 50.6597ZM308.288 5.80661L308.204 5.31261L308.288 5.80661ZM278.581 14.9375L278.761 15.4018L278.581 14.9375ZM365.757 5.2224L365.629 5.71224L365.757 5.2224ZM316.115 4.24301L316.199 4.73701L316.115 4.24301ZM264 176.445L264.014 175.941L264 176.445ZM375.045 7.48464L375.172 6.99481L375.045 7.48464ZM218.173 186.92L215.952 183.277L215.104 183.822L217.325 187.465L218.173 186.92ZM211.511 175.991L209.291 172.348L208.443 172.893L210.663 176.536L211.511 175.991ZM209.311 172.385L206.345 166.403L205.455 166.873L208.422 172.856L209.311 172.385ZM200.411 154.437L197.444 148.455L196.555 148.925L199.522 154.908L200.411 154.437ZM197.444 148.455C196.781 147.116 196.158 145.759 195.578 144.385L194.664 144.801C195.252 146.193 195.883 147.569 196.555 148.925L197.444 148.455ZM192.592 135.922C191.767 133.038 191.114 130.103 190.638 127.131L189.658 127.317C190.14 130.329 190.802 133.303 191.638 136.225L192.592 135.922ZM189.742 118.139C189.682 116.634 189.667 115.123 189.696 113.609L188.704 113.614C188.674 115.148 188.69 116.68 188.75 118.206L189.742 118.139ZM189.696 113.609C189.726 112.084 189.801 110.561 189.921 109.044L188.932 108.988C188.81 110.526 188.734 112.069 188.704 113.614L189.696 113.609ZM191.184 99.9761C191.785 96.9776 192.562 94.014 193.513 91.1018L192.572 90.807C191.608 93.7581 190.82 96.7612 190.211 99.7998L191.184 99.9761ZM196.875 82.5506C197.518 81.1615 198.202 79.7891 198.928 78.4355L198.059 77.9717C197.323 79.3434 196.63 80.7341 195.978 82.1417L196.875 82.5506ZM198.928 78.4355L199.358 77.634L198.489 77.1702L198.059 77.9717L198.928 78.4355ZM200.218 76.031L200.647 75.2294L199.778 74.7656L199.348 75.5672L200.218 76.031ZM200.647 75.2294C201.681 73.3026 202.78 71.4144 203.943 69.5683L203.111 69.0413C201.934 70.908 200.823 72.8173 199.778 74.7656L200.647 75.2294ZM211.681 59.0114C213.09 57.3477 214.557 55.733 216.081 54.1706L215.385 53.4714C213.843 55.0512 212.359 56.684 210.935 58.3663L211.681 59.0114ZM216.081 54.1706L216.852 53.3803L216.156 52.6811L215.385 53.4714L216.081 54.1706ZM218.394 51.7997L219.165 51.0093L218.468 50.3101L217.697 51.1005L218.394 51.7997ZM219.165 51.0093C220.597 49.542 222.062 48.1125 223.56 46.722L222.9 45.9869C221.39 47.389 219.912 48.8305 218.468 50.3101L219.165 51.0093ZM232.947 38.8369C236.202 36.3682 239.574 34.0656 243.05 31.9381L242.553 31.0792C239.048 33.2245 235.648 35.5464 232.366 38.0358L232.947 38.8369ZM253.765 26.0965C255.594 25.2154 257.445 24.3801 259.317 23.5914L258.957 22.6627C257.069 23.4579 255.202 24.3003 253.358 25.1887L253.765 26.0965ZM259.317 23.5914L264.178 21.544L263.818 20.6153L258.957 22.6627L259.317 23.5914ZM273.9 17.4492L278.761 15.4018L278.4 14.4731L273.539 16.5205L273.9 17.4492ZM278.761 15.4018C279.957 14.8984 281.157 14.4102 282.363 13.9374L282.026 12.9992C280.812 13.475 279.604 13.9663 278.4 14.4731L278.761 15.4018ZM289.665 11.2848C292.118 10.4625 294.591 9.7026 297.079 9.00587L296.837 8.03548C294.333 8.73674 291.844 9.50158 289.375 10.3293L289.665 11.2848ZM304.588 7.10646C305.846 6.82187 307.107 6.55323 308.372 6.30062L308.204 5.31261C306.931 5.56687 305.661 5.83727 304.395 6.1237L304.588 7.10646ZM308.372 6.30062L310.328 5.90971L310.16 4.92171L308.204 5.31261L308.372 6.30062ZM314.242 5.12791L316.199 4.73701L316.031 3.74901L314.074 4.13991L314.242 5.12791ZM316.199 4.73701C317.565 4.46405 318.934 4.21606 320.306 3.99305L320.173 2.99868C318.79 3.22361 317.409 3.47371 316.031 3.74901L316.199 4.73701ZM328.574 2.95276C331.341 2.70576 334.111 2.55933 336.88 2.51338L336.889 1.50636C334.097 1.55271 331.303 1.70039 328.512 1.94951L328.574 2.95276ZM345.18 2.67714C347.94 2.83216 350.693 3.08755 353.433 3.4432L353.583 2.44414C350.82 2.08544 348.043 1.82787 345.26 1.67152L345.18 2.67714ZM361.595 4.80765C362.944 5.08435 364.289 5.38588 365.629 5.71224L365.884 4.73257C364.533 4.40343 363.176 4.09932 361.815 3.82025L361.595 4.80765ZM365.629 5.71224L367.951 6.27779L368.206 5.29814L365.884 4.73257L365.629 5.71224ZM372.596 7.40891L374.918 7.97447L375.172 6.99481L372.85 6.42925L372.596 7.40891ZM374.918 7.97447C376.658 8.39834 378.38 8.87407 380.081 9.40034L380.392 8.43634C378.672 7.90428 376.932 7.42333 375.172 6.99481L374.918 7.97447ZM390.086 13.1808C393.344 14.6462 396.503 16.3075 399.547 18.1538L400.072 17.286C396.995 15.4194 393.802 13.7398 390.507 12.2583L390.086 13.1808ZM408.328 24.2481C411.124 26.4541 413.789 28.8342 416.307 31.3773L417.016 30.6548C414.471 28.0836 411.777 25.6774 408.95 23.4472L408.328 24.2481ZM423.368 39.4403C424.46 40.8525 425.513 42.3019 426.523 43.7872L427.345 43.2009C426.323 41.6993 425.259 40.234 424.155 38.8063L423.368 39.4403ZM217.336 187.482L217.805 188.186L218.632 187.608L218.162 186.903L217.336 187.482ZM218.745 189.595L219.215 190.3L220.041 189.721L219.572 189.016L218.745 189.595ZM219.215 190.3C219.985 191.455 220.822 192.551 221.717 193.583L222.469 192.907C221.601 191.905 220.789 190.842 220.041 189.721L219.215 190.3ZM227.842 199.058C230.105 200.614 232.557 201.875 235.14 202.811L235.495 201.862C232.988 200.953 230.609 199.729 228.413 198.22L227.842 199.058ZM243.168 204.613C244.531 204.741 245.912 204.786 247.304 204.742L247.298 203.735C245.948 203.778 244.608 203.735 243.285 203.61L243.168 204.613ZM247.304 204.742L249.579 204.67L249.573 203.664L247.298 203.735L247.304 204.742ZM254.128 204.528L256.403 204.456L256.397 203.449L254.122 203.521L254.128 204.528ZM256.403 204.456C258.007 204.406 259.58 204.139 261.085 203.678L260.82 202.714C259.398 203.15 257.913 203.402 256.397 203.449L256.403 204.456ZM269.151 198.63C270.24 197.466 271.193 196.153 271.973 194.711L271.105 194.244C270.368 195.606 269.469 196.847 268.439 197.945L269.151 198.63ZM271.973 194.711L272.307 194.093L271.439 193.626L271.105 194.244L271.973 194.711ZM272.975 192.858L273.309 192.24L272.441 191.773L272.107 192.391L272.975 192.858ZM273.309 192.24C273.646 191.617 273.923 190.968 274.138 190.304L273.195 190.012C273 190.616 272.748 191.206 272.441 191.773L273.309 192.24ZM274.675 186.161C274.636 185.469 274.533 184.779 274.365 184.101L273.402 184.37C273.555 184.987 273.649 185.614 273.684 186.244L274.675 186.161ZM274.365 184.101C274.07 182.913 273.59 181.814 272.96 180.833L272.124 181.398C272.697 182.29 273.134 183.289 273.402 184.37L274.365 184.101ZM267.499 176.528C266.402 176.148 265.229 175.943 264.014 175.941L263.987 176.948C265.093 176.95 266.16 177.136 267.157 177.482L267.499 176.528ZM264.014 175.941L261.26 175.936L261.234 176.943L263.987 176.948L264.014 175.941ZM255.754 175.927L253.001 175.922L252.974 176.929L255.727 176.934L255.754 175.927ZM253.001 175.922C252.29 175.921 251.58 175.95 250.873 176.008L250.929 177.012C251.609 176.956 252.291 176.928 252.974 176.929L253.001 175.922ZM246.661 176.719C245.97 176.896 245.285 177.102 244.608 177.337L244.908 178.289C245.559 178.063 246.217 177.865 246.881 177.695L246.661 176.719ZM244.608 177.337L237.855 179.682L238.155 180.634L244.908 178.289L244.608 177.337ZM224.351 184.372L217.599 186.717L217.899 187.669L224.651 185.324L224.351 184.372ZM-9.18628 463.306L-8.01441 457.774L-8.98483 457.586L-10.1567 463.119L-9.18628 463.306ZM-5.67068 446.708L-3.32696 435.643L-4.29738 435.455L-6.64111 446.521L-5.67068 446.708ZM-0.983229 424.577L1.36049 413.512L0.390076 413.324L-1.95366 424.39L-0.983229 424.577ZM3.70422 402.447L4.87608 396.914L3.90566 396.726L2.7338 402.259L3.70422 402.447ZM4.85961 396.974L6.23053 392.95L5.29305 392.643L3.92213 396.666L4.85961 396.974ZM8.97235 384.903L11.7142 376.856L10.7767 376.549L8.03488 384.596L8.97235 384.903ZM14.456 368.809L17.1978 360.762L16.2604 360.455L13.5185 368.502L14.456 368.809ZM19.9397 352.715L21.3106 348.692L20.3731 348.384L19.0022 352.408L19.9397 352.715ZM21.2953 348.731L23.2225 344.293L22.3155 343.907L20.3884 348.345L21.2953 348.731ZM27.0768 335.417L30.9311 326.541L30.0242 326.155L26.1699 335.031L27.0768 335.417ZM34.7854 317.665L38.6397 308.789L37.7328 308.403L33.8785 317.279L34.7854 317.665ZM42.494 299.913L44.4212 295.475L43.5142 295.089L41.5871 299.527L42.494 299.913ZM44.4212 295.475C44.9193 294.328 45.438 293.19 45.9767 292.062L45.0853 291.642C44.5412 292.781 44.0174 293.931 43.5142 295.089L44.4212 295.475ZM49.4502 285.411C50.0684 284.324 50.7062 283.248 51.3633 282.183L50.5255 281.664C49.8619 282.74 49.2177 283.826 48.5933 284.924L49.4502 285.411ZM51.3633 282.183C52.1174 280.961 52.896 279.755 53.6983 278.567L52.8838 278.012C52.0735 279.212 51.2872 280.43 50.5255 281.664L51.3633 282.183ZM58.8023 271.64C60.5973 269.403 62.4829 267.241 64.454 265.16L63.7466 264.472C61.7559 266.573 59.8516 268.757 58.0387 271.016L58.8023 271.64ZM70.6129 259.174C71.6784 258.221 72.764 257.289 73.8689 256.38L73.2554 255.604C72.1394 256.523 71.043 257.464 69.9669 258.427L70.6129 259.174ZM73.8689 256.38L79.144 252.039L78.5304 251.263L73.2554 255.604L73.8689 256.38ZM89.6941 243.357L94.9692 239.016L94.3556 238.24L89.0806 242.581L89.6941 243.357ZM94.9208 239.051C96.466 238.056 98.0178 237.073 99.5762 236.102L99.0722 235.247C97.5095 236.221 95.9534 237.207 94.404 238.205L94.9208 239.051ZM109.01 230.416C112.183 228.568 115.381 226.768 118.603 225.018L118.151 224.132C114.921 225.888 111.714 227.692 108.533 229.546L109.01 230.416ZM128.344 219.912C131.616 218.259 134.91 216.656 138.226 215.104L137.829 214.191C134.504 215.748 131.2 217.355 127.92 219.013L128.344 219.912ZM148.239 210.597C151.598 209.146 154.976 207.746 158.375 206.397L158.033 205.46C154.626 206.813 151.237 208.217 147.87 209.672L148.239 210.597ZM168.623 202.506C172.055 201.262 175.506 200.069 178.974 198.929L178.69 197.971C175.212 199.115 171.752 200.311 168.31 201.559L168.623 202.506ZM189.42 195.668C191.168 195.151 192.919 194.647 194.675 194.157L194.434 193.186C192.674 193.678 190.917 194.183 189.164 194.701L189.42 195.668ZM194.675 194.157L200.474 192.537L200.233 191.566L194.434 193.186L194.675 194.157ZM212.071 189.298L217.869 187.678L217.628 186.707L211.83 188.327L212.071 189.298Z" fill="#AEAEAE" fill-opacity="0.4"/>
<path d="M63.6099 77.5751L59.6738 80.7925" stroke="black" stroke-width="2" stroke-linecap="round"/>
<path d="M61.2891 75.4042L56.3487 79.4156" stroke="black" stroke-width="2" stroke-linecap="round"/>
<path d="M59.3354 73.4846L54.0002 78.0959" stroke="black" stroke-width="2" stroke-linecap="round"/>
<rect x="66.4448" y="84.2879" width="74.0606" height="38.284" rx="19.142" fill="white" stroke="black"/>
<rect x="210.454" y="83.7879" width="119.255" height="39.284" rx="19.642" fill="#DEDEDE"/>
<rect x="124.871" y="132.893" width="204.838" height="39.284" rx="19.642" fill="#DEDEDE"/>
<rect x="65.9448" y="231.103" width="263.764" height="39.284" rx="19.642" fill="#DEDEDE"/>
<rect x="123.468" y="280.208" width="154.33" height="39.284" rx="19.642" fill="#006BFF"/>
<rect x="66.646" y="329.313" width="205.54" height="39.9855" rx="19.9928" fill="#DEDEDE"/>
<rect x="65.9448" y="181.998" width="130.479" height="39.284" rx="19.642" fill="#FBC63F"/>
<rect x="212.357" y="182.498" width="116.852" height="38.284" rx="19.142" fill="black" stroke="black"/>
<path d="M198.028 103.43C198.028 113.934 188.117 122.572 175.729 122.572C163.342 122.572 153.431 113.934 153.431 103.43C153.431 92.9254 163.342 84.2879 175.729 84.2879C188.117 84.2879 198.028 92.9254 198.028 103.43Z" fill="white" stroke="black"/>
<path d="M111.744 299.85C111.744 310.355 101.833 318.992 89.4448 318.992C77.057 318.992 67.146 310.355 67.146 299.85C67.146 289.346 77.057 280.708 89.4448 280.708C101.833 280.708 111.744 289.346 111.744 299.85Z" fill="white" stroke="black"/>
<ellipse cx="306.91" cy="350.358" rx="22.7988" ry="19.642" fill="#DEDEDE"/>
<ellipse cx="144.162" cy="300.552" rx="10.1718" ry="9.82101" fill="black"/>
<path d="M88.4342 196.437C88.3413 196.437 88.2467 196.462 88.1601 196.521L82.5744 200.171H79.9904C79.8517 200.171 79.7383 200.285 79.7383 200.423V204.961C79.7383 205.1 79.8517 205.213 79.9904 205.213H82.5744L88.1601 208.864C88.2467 208.921 88.3428 208.948 88.4342 208.948C88.6974 208.948 88.94 208.738 88.94 208.442V196.943C88.94 196.647 88.6974 196.437 88.4342 196.437ZM87.8055 207.277L83.1952 204.263L82.9116 204.079H80.8727V201.306H82.9116L83.1937 201.121L87.8055 198.107V207.277ZM93.2888 202.125H91.2719C91.1333 202.125 91.0198 202.239 91.0198 202.377V203.007C91.0198 203.146 91.1333 203.26 91.2719 203.26H93.2888C93.4274 203.26 93.5409 203.146 93.5409 203.007V202.377C93.5409 202.239 93.4274 202.125 93.2888 202.125ZM92.6286 206.25L90.8906 205.246C90.8621 205.23 90.8306 205.22 90.798 205.215C90.7653 205.211 90.7322 205.213 90.7004 205.222C90.6687 205.231 90.6389 205.246 90.6129 205.266C90.5869 205.286 90.5651 205.311 90.5487 205.339L90.2352 205.883C90.1658 206.003 90.2068 206.157 90.3266 206.227L92.0645 207.23C92.093 207.247 92.1245 207.257 92.1572 207.261C92.1898 207.265 92.223 207.263 92.2547 207.255C92.2865 207.246 92.3162 207.231 92.3422 207.211C92.3682 207.191 92.3901 207.166 92.4064 207.137L92.72 206.594C92.7893 206.474 92.7467 206.319 92.6286 206.25ZM90.5472 200.045C90.5635 200.074 90.5853 200.099 90.6113 200.119C90.6374 200.139 90.6671 200.154 90.6989 200.163C90.7306 200.171 90.7637 200.174 90.7964 200.169C90.829 200.165 90.8605 200.155 90.8891 200.138L92.627 199.135C92.7467 199.065 92.7877 198.911 92.7184 198.791L92.4064 198.249C92.3901 198.22 92.3682 198.195 92.3422 198.175C92.3162 198.155 92.2865 198.14 92.2547 198.132C92.223 198.123 92.1898 198.121 92.1572 198.125C92.1245 198.129 92.093 198.14 92.0645 198.156L90.3266 199.16C90.269 199.193 90.2271 199.248 90.21 199.313C90.1928 199.377 90.2019 199.446 90.2352 199.503L90.5472 200.045Z" fill="black"/>
<path d="M225.186 111.146L226.936 106.508C228.257 103.006 233.042 102.588 234.95 105.807V105.807C236.506 108.431 240.177 108.756 242.169 106.446L244.608 103.617C247.044 100.792 251.543 101.236 253.38 104.482V104.482C255.217 107.728 259.716 108.172 262.152 105.347L263.291 104.027C266.045 100.833 271.043 100.996 273.583 104.363L273.712 104.534C276.293 107.955 281.359 108.159 284.206 104.956L284.869 104.211C287.895 100.808 293.213 100.808 296.239 104.211L296.568 104.58C299.706 108.11 305.195 108.19 308.436 104.754L314.978 97.8179" stroke="black"/>
<rect x="144.513" y="151.132" width="165.554" height="0.701501" fill="#006BFF"/>
<rect x="87.6914" y="250.745" width="220.973" height="1.403" fill="#006BFF"/>
<rect x="80.6763" y="348.254" width="168.36" height="0.701501" fill="#006BFF"/>
<path d="M105.93 200.939V205.148" stroke="black"/>
<path d="M109.438 195.327V210.058" stroke="black"/>
<path d="M112.945 198.133V206.551" stroke="black"/>
<path d="M115.751 200.939V205.148" stroke="black"/>
<path d="M121.363 194.625V208.655" stroke="black"/>
<path d="M125.572 196.73V205.849" stroke="black"/>
<path d="M129.08 197.431V206.551" stroke="black"/>
<path d="M131.886 198.834V205.849" stroke="black"/>
<path d="M119.259 200.237V205.148" stroke="black"/>
<path d="M134.692 198.834V206.551" stroke="black"/>
<path d="M138.199 197.431V208.655" stroke="black"/>
<path d="M141.005 196.73V209.357" stroke="black"/>
<path d="M143.11 198.133V207.252" stroke="black"/>
<path d="M146.617 199.536V205.849" stroke="black"/>
<path d="M150.125 198.834V207.252" stroke="black"/>
<path d="M152.229 200.939V205.148" stroke="black"/>
<path d="M154.334 202.342V205.148" stroke="black"/>
<path d="M157.14 200.939V205.849" stroke="black"/>
<path d="M159.946 200.237V207.954" stroke="black"/>
<path d="M162.752 199.536V208.655" stroke="black"/>
<path d="M165.558 198.133V208.655" stroke="black"/>
<path d="M167.662 196.028V210.76" stroke="black"/>
<path d="M171.17 197.431V209.357" stroke="black"/>
<path d="M173.976 198.133V207.252" stroke="black"/>
<path d="M177.483 199.536V205.849" stroke="black"/>
<path d="M180.29 200.939V205.148" stroke="black"/>
<path d="M183.095 200.939V203.745" stroke="black"/>
<path d="M164.856 299.85V304.761" stroke="black"/>
<path d="M169.767 294.94V309.671" stroke="black"/>
<path d="M173.274 297.746V306.164" stroke="black"/>
<path d="M176.782 299.85V304.059" stroke="black"/>
<path d="M184.499 294.238V307.567" stroke="black"/>
<path d="M189.409 295.641V305.462" stroke="black"/>
<path d="M193.618 297.044V306.164" stroke="black"/>
<path d="M197.125 298.447V305.462" stroke="black"/>
<path d="M180.991 299.149V304.059" stroke="black"/>
<path d="M201.334 298.447V306.164" stroke="black"/>
<path d="M204.842 297.044V307.567" stroke="black"/>
<path d="M208.35 295.641V308.97" stroke="black"/>
<path d="M211.857 297.746V306.865" stroke="black"/>
<path d="M216.066 299.149V305.462" stroke="black"/>
<path d="M220.275 298.447V306.865" stroke="black"/>
<path d="M223.081 300.552V304.761" stroke="black"/>
<path d="M225.887 301.955V304.059" stroke="black"/>
<path d="M229.395 299.85V305.462" stroke="black"/>
<path d="M232.902 299.149V307.567" stroke="black"/>
<path d="M236.409 299.149V307.567" stroke="black"/>
<path d="M239.917 297.746V307.567" stroke="black"/>
<path d="M242.723 294.94V310.373" stroke="black"/>
<path d="M246.23 297.044V308.97" stroke="black"/>
<path d="M250.439 297.746V306.865" stroke="black"/>
<path d="M254.648 299.149V305.462" stroke="black"/>
<path d="M258.857 299.85V304.059" stroke="black"/>
<path d="M262.365 299.85V303.358" stroke="black"/>
<path d="M268.426 189.013V201.64M268.426 214.267V201.64M268.426 201.64L315.679 194.124M268.426 201.64L224.484 210.359M224.484 192.621L315.679 210.359" stroke="white" stroke-width="2"/>
<path d="M147.319 300.201L142.058 304.15V296.252L147.319 300.201Z" fill="white"/>
<path d="M315.276 343.343C315.276 342.791 314.828 342.343 314.276 342.343H305.276C304.724 342.343 304.276 342.791 304.276 343.343C304.276 343.896 304.724 344.343 305.276 344.343H313.276V352.343C313.276 352.896 313.724 353.343 314.276 353.343C314.828 353.343 315.276 352.896 315.276 352.343V343.343ZM300.252 358.782L314.983 344.05L313.569 342.636L298.837 357.368L300.252 358.782Z" fill="#272727"/>
<circle cx="86.9895" cy="104.131" r="11.9255" fill="black"/>
<rect x="79.9746" y="290.731" width="18.9405" height="18.9405" fill="black"/>
<path d="M182.2 98.8571C182.2 97.8329 181.348 97 180.3 97H168.9C167.852 97 167 97.8329 167 98.8571V108.143C167 109.167 167.852 110 168.9 110H180.3C181.348 110 182.2 109.167 182.2 108.143V105.048L186 108.143V98.8571L182.2 101.952V98.8571Z" fill="#006BFF"/>
</g>
<defs>
<clipPath id="clip0_12_2281">
<rect width="760" height="6888" fill="white" transform="translate(0 -4231)"/>
</clipPath>
</defs>
</svg>
