<svg width="1204" height="666" viewBox="0 0 1204 666" fill="none" xmlns="http://www.w3.org/2000/svg">
<g clip-path="url(#clip0_0_3)">
<rect width="1440" height="10130" transform="translate(-99 -6802)" fill="white"/>
<path d="M1198.5 146.886L1199.25 149.624L1199.35 149.991H1199.73H1202.38L1200.17 151.888L1199.93 152.094L1200.02 152.4L1200.82 155.313L1198.83 153.603L1198.5 153.324L1198.17 153.603L1196.18 155.313L1196.98 152.4L1197.07 152.094L1196.83 151.888L1194.62 149.991H1197.27H1197.65L1197.75 149.624L1198.5 146.886Z" stroke="black"/>
<path d="M1119.5 499.886L1120.25 502.624L1120.35 502.991H1120.73H1123.38L1121.17 504.888L1120.93 505.094L1121.02 505.4L1121.82 508.313L1119.83 506.603L1119.5 506.324L1119.17 506.603L1117.18 508.313L1117.98 505.4L1118.07 505.094L1117.83 504.888L1115.62 502.991H1118.27H1118.65L1118.75 502.624L1119.5 499.886Z" stroke="black"/>
<path d="M528.419 67.2906L528.137 72.2609L528.115 72.6418L528.477 72.7632L532.712 74.1846L528.208 76.0257L527.916 76.1451L527.898 76.4602L527.606 81.6175L525.275 77.686L525.055 77.3149L524.656 77.4782L520.425 79.2077L523.303 74.9178L523.478 74.6558L523.317 74.3843L520.836 70.199L525.071 71.6203L525.433 71.7417L525.646 71.4248L528.419 67.2906Z" stroke="black"/>
<ellipse cx="791.071" cy="82.6143" rx="9.79805" ry="9.10122" transform="rotate(-17.3946 791.071 82.6143)" fill="#006BFF"/>
<ellipse cx="483.007" cy="290.026" rx="11.0228" ry="10.2389" transform="rotate(-17.3946 483.007 290.026)" fill="#FED403"/>
<path d="M786.842 74.883C786.982 75.1202 787.289 75.1972 787.526 75.055C787.763 74.9128 787.842 74.6052 787.701 74.368L786.842 74.883ZM532.181 248.262L531.726 248.472L531.733 248.487L531.742 248.502L532.181 248.262ZM318.597 495.556L318.118 495.416L318.113 495.434L318.109 495.453L318.597 495.556ZM303.15 566.889L302.662 566.786L302.657 566.811L302.654 566.838L303.15 566.889ZM291.925 665.77C291.895 666.045 292.093 666.291 292.367 666.319C292.641 666.348 292.888 666.148 292.917 665.873L291.925 665.77ZM382.811 352.342L382.46 351.988L382.811 352.342ZM588.241 258.479L588.197 258.978L588.241 258.479ZM575.244 260.187L575.409 260.659L575.244 260.187ZM612.652 283.983L612.187 283.803L612.652 283.983ZM589.702 300.12L589.679 300.62L589.702 300.12ZM612.099 285.406L612.564 285.586L612.099 285.406ZM580.268 299.727L580.292 299.227L580.268 299.727ZM550.816 281.964L550.385 282.218L550.816 281.964ZM502.283 158.57L501.785 158.597L502.283 158.57ZM514.616 209.541L514.162 209.75L514.616 209.541ZM502.241 157.722L502.74 157.694L502.241 157.722ZM583.173 25.5264L582.969 25.0703L583.173 25.5264ZM638.487 5.89254L638.567 6.38642L638.487 5.89254ZM601.727 17.1149L601.93 17.5711L601.727 17.1149ZM639.583 5.70804L639.503 5.21416L639.583 5.70804ZM597.27 259.222L597.314 258.722L597.27 259.222ZM786.944 74.0723L787.374 73.8148L786.944 74.0723ZM544.965 270.914L541.878 265.191L541 265.672L544.086 271.395L544.965 270.914ZM535.706 253.745L532.62 248.022L531.742 248.502L534.828 254.225L535.706 253.745ZM532.635 248.053L530.44 243.213L529.531 243.632L531.726 248.472L532.635 248.053ZM526.049 233.532L521.658 223.852L520.748 224.271L525.14 233.951L526.049 233.532ZM517.266 214.171L515.071 209.331L514.162 209.75L516.357 214.59L517.266 214.171ZM515.071 209.331C514.468 208.002 513.886 206.664 513.326 205.318L512.405 205.709C512.969 207.064 513.555 208.412 514.162 209.75L515.071 209.331ZM510.219 197.137C509.268 194.375 508.405 191.586 507.63 188.772L506.667 189.044C507.448 191.878 508.317 194.687 509.275 197.468L510.219 197.137ZM505.57 180.259C504.972 177.401 504.464 174.523 504.047 171.629L503.059 171.778C503.479 174.693 503.991 177.591 504.593 180.469L505.57 180.259ZM503.067 162.918C502.949 161.462 502.854 160.003 502.782 158.542L501.785 158.597C501.858 160.069 501.953 161.538 502.072 163.004L503.067 162.918ZM502.782 158.542L502.771 158.33L501.774 158.385L501.785 158.597L502.782 158.542ZM502.751 157.906L502.74 157.694L501.743 157.75L501.753 157.961L502.751 157.906ZM502.74 157.694C502.662 156.119 502.612 154.543 502.589 152.968L501.59 152.988C501.614 154.575 501.664 156.162 501.743 157.75L502.74 157.694ZM502.778 143.511C502.951 140.36 503.233 137.216 503.624 134.087L502.633 133.968C502.24 137.12 501.956 140.287 501.781 143.462L502.778 143.511ZM505.121 124.741C505.727 121.645 506.441 118.569 507.262 115.518L506.298 115.262C505.472 118.336 504.752 121.434 504.141 124.553L505.121 124.741ZM510.037 106.464C510.551 104.973 511.092 103.489 511.658 102.014L510.727 101.658C510.156 103.145 509.612 104.639 509.094 106.141L510.037 106.464ZM511.658 102.014C512.26 100.447 512.891 98.8903 513.551 97.3463L512.634 96.9561C511.969 98.5115 511.333 100.079 510.727 101.658L511.658 102.014ZM517.847 88.2356C519.39 85.2526 521.043 82.3262 522.8 79.4639L521.951 78.9421C520.181 81.8253 518.516 84.7733 516.962 87.7782L517.847 88.2356ZM528.381 71.0782C529.362 69.7153 530.368 68.3705 531.399 67.0446L530.612 66.4316C529.574 67.7672 528.561 69.1219 527.573 70.4948L528.381 71.0782ZM531.399 67.0446C532.54 65.5751 533.711 64.1298 534.91 62.7097L534.149 62.065C532.942 63.4955 531.763 64.9513 530.612 66.4316L531.399 67.0446ZM542.44 54.4826C545.06 51.8413 547.784 49.3078 550.604 46.8886L549.957 46.1289C547.117 48.5657 544.373 51.1176 541.734 53.7781L542.44 54.4826ZM559.349 39.977C562.353 37.793 565.446 35.7299 568.618 33.7944L568.103 32.9394C564.907 34.8891 561.792 36.9672 558.766 39.1671L559.349 39.977ZM578.353 28.3848C580.01 27.5505 581.684 26.7495 583.376 25.9826L582.969 25.0703C581.265 25.8428 579.578 26.6497 577.909 27.4901L578.353 28.3848ZM583.376 25.9826L588.015 23.8797L587.608 22.9674L582.969 25.0703L583.376 25.9826ZM597.292 19.674L601.93 17.5711L601.523 16.6588L596.885 18.7616L597.292 19.674ZM601.93 17.5711C603.39 16.9094 604.859 16.2716 606.338 15.6581L605.961 14.7329C604.472 15.3505 602.993 15.9926 601.523 16.6588L601.93 17.5711ZM615.324 12.2654C618.355 11.2318 621.418 10.2969 624.508 9.46186L624.253 8.49484C621.142 9.33546 618.059 10.2768 615.008 11.3172L615.324 12.2654ZM633.849 7.25933C635.416 6.94301 636.989 6.65198 638.567 6.38642L638.407 5.39866C636.819 5.66601 635.235 5.95901 633.657 6.27746L633.849 7.25933ZM638.567 6.38642L638.841 6.34029L638.681 5.35254L638.407 5.39866L638.567 6.38642ZM639.389 6.24804L639.663 6.20192L639.503 5.21416L639.229 5.26029L639.389 6.24804ZM639.663 6.20192C641.207 5.94207 642.754 5.70772 644.302 5.49882L644.174 4.50617C642.615 4.71653 641.058 4.9525 639.503 5.21416L639.663 6.20192ZM653.632 4.54863C656.754 4.33338 659.879 4.22054 663.001 4.20964L663.003 3.20806C659.86 3.21903 656.713 3.33265 653.569 3.5494L653.632 4.54863ZM672.369 4.48327C675.487 4.67652 678.598 4.97169 681.695 5.36827L681.827 4.37472C678.708 3.97538 675.576 3.67818 672.436 3.48358L672.369 4.48327ZM690.941 6.86091C694.003 7.45853 697.046 8.15668 700.068 8.95488L700.327 7.98623C697.285 7.18248 694.22 6.47948 691.137 5.87772L690.941 6.86091ZM709.035 11.6414C710.513 12.1374 711.984 12.6581 713.448 13.2033L713.8 12.2641C712.326 11.7151 710.845 11.1908 709.357 10.6914L709.035 11.6414ZM713.448 13.2033C714.967 13.7691 716.474 14.36 717.968 14.9753L718.352 14.0484C716.847 13.4288 715.329 12.8339 713.8 12.2641L713.448 13.2033ZM726.813 18.9741C729.72 20.4092 732.572 21.9406 735.365 23.5645L735.869 22.6972C733.057 21.062 730.185 19.5201 727.258 18.0749L726.813 18.9741ZM743.586 28.7259C746.268 30.54 748.887 32.4441 751.437 34.4343L752.053 33.6424C749.485 31.6384 746.848 29.7212 744.147 27.8944L743.586 28.7259ZM758.883 40.6636C761.293 42.8228 763.63 45.0646 765.89 47.3854L766.606 46.6835C764.33 44.3465 761.977 42.0891 759.551 39.915L758.883 40.6636ZM772.426 54.5693C774.52 57.0333 776.533 59.572 778.461 62.182L779.264 61.5827C777.323 58.9546 775.296 56.3982 773.188 53.9171L772.426 54.5693ZM783.967 70.1891C784.838 71.5528 785.688 72.9332 786.514 74.3298L787.374 73.8148C786.541 72.4085 785.686 71.0186 784.809 69.6454L783.967 70.1891ZM786.514 74.3298L786.596 74.4681L787.455 73.9531L787.374 73.8148L786.514 74.3298ZM786.76 74.7447L786.842 74.883L787.701 74.368L787.619 74.2297L786.76 74.7447ZM544.094 271.409L545.666 274.111L546.529 273.603L544.957 270.9L544.094 271.409ZM548.812 279.516L550.385 282.218L551.248 281.71L549.675 279.007L548.812 279.516ZM550.385 282.218C551.154 283.539 551.999 284.801 552.913 285.998L553.707 285.386C552.818 284.222 551.996 282.995 551.248 281.71L550.385 282.218ZM559.275 292.462C561.656 294.342 564.265 295.915 567.038 297.145L567.446 296.228C564.748 295.032 562.211 293.502 559.894 291.674L559.275 292.462ZM575.723 299.755C577.208 300.005 578.718 300.164 580.245 300.227L580.292 299.227C578.806 299.165 577.338 299.01 575.893 298.767L575.723 299.755ZM580.245 300.227L582.603 300.326L582.65 299.325L580.292 299.227L580.245 300.227ZM587.32 300.522L589.679 300.62L589.726 299.619L587.367 299.521L587.32 300.522ZM589.679 300.62C592.156 300.723 594.584 300.432 596.891 299.792L596.63 298.827C594.422 299.439 592.098 299.718 589.726 299.619L589.679 300.62ZM608.912 291.894C610.422 290.027 611.663 287.909 612.564 285.586L611.634 285.227C610.771 287.451 609.583 289.479 608.138 291.266L608.912 291.894ZM612.564 285.586L612.702 285.23L611.772 284.871L611.634 285.227L612.564 285.586ZM612.979 284.518L613.117 284.162L612.187 283.803L612.049 284.159L612.979 284.518ZM613.117 284.162C613.475 283.238 613.759 282.292 613.967 281.333L612.992 281.125C612.795 282.033 612.526 282.929 612.187 283.803L613.117 284.162ZM614.304 275.457C614.206 274.482 614.032 273.512 613.781 272.556L612.815 272.817C613.053 273.721 613.218 274.64 613.31 275.563L614.304 275.457ZM613.781 272.556C613.284 270.665 612.507 268.903 611.501 267.312L610.657 267.852C611.61 269.358 612.345 271.026 612.815 272.817L613.781 272.556ZM602.864 260.057C601.126 259.341 599.259 258.882 597.314 258.722L597.227 259.721C599.068 259.872 600.835 260.306 602.481 260.984L602.864 260.057ZM597.314 258.722L595.057 258.537L594.97 259.535L597.227 259.721L597.314 258.722ZM590.542 258.165L588.284 257.979L588.197 258.978L590.455 259.163L590.542 258.165ZM588.284 257.979C587.169 257.888 586.051 257.856 584.936 257.883L584.954 258.884C586.034 258.858 587.117 258.889 588.197 258.978L588.284 257.979ZM578.296 258.756C577.21 259.018 576.136 259.338 575.079 259.715L575.409 260.659C576.433 260.293 577.473 259.983 578.524 259.729L578.296 258.756ZM575.079 259.715L571.239 261.086L571.569 262.029L575.409 260.659L575.079 259.715ZM563.559 263.828L555.88 266.57L556.21 267.513L563.89 264.771L563.559 263.828ZM548.2 269.312L544.36 270.683L544.69 271.626L548.53 270.255L548.2 269.312ZM292.917 665.873L293.454 660.926L292.461 660.823L291.925 665.77L292.917 665.873ZM294.527 651.033L295.6 641.14L294.607 641.037L293.534 650.93L294.527 651.033ZM296.673 631.246L297.745 621.353L296.753 621.25L295.68 631.144L296.673 631.246ZM298.818 611.46L299.891 601.567L298.899 601.464L297.826 611.357L298.818 611.46ZM300.964 591.674L302.037 581.78L301.044 581.678L299.972 591.571L300.964 591.674ZM303.11 571.887L303.646 566.941L302.654 566.838L302.117 571.784L303.11 571.887ZM303.638 566.993L304.603 562.535L303.628 562.327L302.662 566.786L303.638 566.993ZM306.534 553.618L308.465 544.701L307.489 544.494L305.558 553.411L306.534 553.618ZM310.396 535.785L312.327 526.868L311.351 526.661L309.42 535.577L310.396 535.785ZM314.257 517.952L316.188 509.035L315.213 508.828L313.282 517.744L314.257 517.952ZM318.119 500.118L319.084 495.66L318.109 495.453L317.143 499.911L318.119 500.118ZM319.075 495.697L320.383 491.278L319.427 490.998L318.118 495.416L319.075 495.697ZM323 482.442L325.617 473.606L324.66 473.326L322.043 482.162L323 482.442ZM328.233 464.77L330.85 455.933L329.893 455.653L327.276 464.489L328.233 464.77ZM333.467 447.097L336.083 438.261L335.126 437.98L332.51 446.817L333.467 447.097ZM338.7 429.424L341.317 420.588L340.36 420.308L337.743 429.144L338.7 429.424ZM343.933 411.752L345.242 407.333L344.285 407.053L342.976 411.471L343.933 411.752ZM345.217 407.399C345.987 405.705 346.782 404.024 347.601 402.356L346.706 401.917C345.883 403.594 345.083 405.285 344.309 406.988L345.217 407.399ZM352.818 392.496C354.656 389.26 356.59 386.082 358.616 382.966L357.781 382.422C355.743 385.555 353.799 388.751 351.951 392.004L352.818 392.496ZM364.974 373.8C367.183 370.81 369.482 367.886 371.869 365.032L371.105 364.391C368.706 367.261 366.394 370.201 364.173 373.206L364.974 373.8ZM379.276 356.695C380.55 355.343 381.846 354.01 383.163 352.696L382.46 351.988C381.137 353.309 379.834 354.65 378.552 356.008L379.276 356.695ZM383.163 352.696L387.067 348.799L386.364 348.091L382.46 351.988L383.163 352.696ZM394.875 341.005L398.779 337.108L398.077 336.4L394.173 340.297L394.875 341.005ZM398.726 337.154C400.005 336.193 401.291 335.241 402.582 334.299L401.998 333.49C400.703 334.435 399.413 335.39 398.13 336.354L398.726 337.154ZM410.409 328.746C413.044 326.931 415.703 325.151 418.383 323.41L417.844 322.57C415.155 324.317 412.49 326.101 409.847 327.922L410.409 328.746ZM426.498 318.292C429.226 316.623 431.976 314.991 434.747 313.398L434.254 312.529C431.475 314.127 428.717 315.764 425.981 317.438L426.498 318.292ZM443.125 308.73C445.939 307.212 448.773 305.733 451.626 304.292L451.181 303.398C448.32 304.843 445.478 306.326 442.656 307.848L443.125 308.73ZM460.242 300.088C463.133 298.726 466.042 297.404 468.969 296.121L468.573 295.203C465.638 296.49 462.721 297.816 459.822 299.182L460.242 300.088ZM477.799 292.393C480.758 291.191 483.733 290.029 486.725 288.907L486.38 287.969C483.38 289.094 480.396 290.259 477.428 291.465L477.799 292.393ZM495.741 285.666C498.76 284.628 501.793 283.63 504.841 282.673L504.548 281.717C501.491 282.677 498.449 283.678 495.422 284.719L495.741 285.666ZM514.018 279.929C515.553 279.493 517.091 279.067 518.633 278.651L518.379 277.684C516.833 278.101 515.29 278.528 513.751 278.966L514.018 279.929ZM518.633 278.651L525.138 276.898L524.884 275.931L518.379 277.684L518.633 278.651ZM538.147 273.391L544.652 271.638L544.398 270.671L537.893 272.424L538.147 273.391Z" fill="#AEAEAE"/>
<path d="M1591.12 -715.608C1605.55 -715.608 1619.11 -708.836 1628.14 -697.124L1702.66 -600.514C1702.66 -600.513 1702.66 -600.513 1702.66 -600.513V-600.513C1702.66 -600.513 1702.66 -600.512 1702.66 -600.511L1166.83 -124.596C1148.27 -108.111 1121.34 -108.226 1103.47 -124.867L565.84 -625.442C532.39 -656.587 554.228 -715.609 599.202 -715.609L1591.12 -715.608Z" fill="#006BFF"/>
<path d="M17.6992 77.5219L12.0883 82.1082" stroke="black" stroke-width="2" stroke-linecap="round"/>
<path d="M14.3906 74.4271L7.34805 80.1455" stroke="black" stroke-width="2" stroke-linecap="round"/>
<path d="M11.6055 71.6908L4.00002 78.2642" stroke="black" stroke-width="2" stroke-linecap="round"/>
<rect x="21.5273" y="86.8783" width="106" height="55" rx="27.5" fill="white" stroke="black"/>
<rect x="227.027" y="86.3783" width="170" height="56" rx="28" fill="#DEDEDE"/>
<rect x="105.027" y="156.378" width="292" height="56" rx="28" fill="#DEDEDE"/>
<rect x="21.0273" y="296.378" width="376" height="56" rx="28" fill="#DEDEDE"/>
<rect x="103.027" y="366.378" width="220" height="56" rx="28" fill="#006BFF"/>
<rect x="22.0273" y="436.378" width="293" height="57" rx="28.5" fill="#DEDEDE"/>
<rect x="21.0273" y="226.378" width="186" height="56" rx="28" fill="#FBC63F"/>
<rect x="229.527" y="226.878" width="167" height="55" rx="27.5" fill="black" stroke="black"/>
<path d="M209.527 114.378C209.527 129.499 195.273 141.878 177.527 141.878C159.782 141.878 145.527 129.499 145.527 114.378C145.527 99.2578 159.782 86.8783 177.527 86.8783C195.273 86.8783 209.527 99.2578 209.527 114.378Z" fill="white" stroke="black"/>
<path d="M86.5273 394.378C86.5273 409.499 72.273 421.878 54.5273 421.878C36.7817 421.878 22.5273 409.499 22.5273 394.378C22.5273 379.258 36.7817 366.878 54.5273 366.878C72.273 366.878 86.5273 379.258 86.5273 394.378Z" fill="white" stroke="black"/>
<ellipse cx="364.527" cy="466.378" rx="32.5" ry="28" fill="#DEDEDE"/>
<ellipse cx="132.527" cy="395.378" rx="14.5" ry="14" fill="black"/>
<path d="M53.0853 246.961C52.9528 246.961 52.8181 246.997 52.6945 247.08L44.7321 252.285H41.0485C40.8509 252.285 40.6891 252.446 40.6891 252.644V259.113C40.6891 259.31 40.8509 259.472 41.0485 259.472H44.7321L52.6945 264.676C52.8181 264.757 52.9551 264.795 53.0853 264.795C53.4604 264.795 53.8063 264.497 53.8063 264.074V247.682C53.8063 247.26 53.4604 246.961 53.0853 246.961ZM52.1891 262.414L45.6171 258.118L45.2128 257.855H42.3063V253.902H45.2128L45.6148 253.639L52.1891 249.342V262.414ZM60.0056 255.07H57.1306C56.9329 255.07 56.7712 255.231 56.7712 255.429V256.328C56.7712 256.525 56.9329 256.687 57.1306 256.687H60.0056C60.2032 256.687 60.3649 256.525 60.3649 256.328V255.429C60.3649 255.231 60.2032 255.07 60.0056 255.07ZM59.0644 260.95L56.587 259.519C56.5463 259.496 56.5014 259.481 56.4549 259.475C56.4084 259.469 56.3611 259.472 56.3159 259.485C56.2706 259.497 56.2282 259.518 56.1911 259.547C56.154 259.575 56.1229 259.611 56.0996 259.652L55.6526 260.427C55.5538 260.597 55.6122 260.817 55.7829 260.916L58.2603 262.347C58.301 262.37 58.3459 262.385 58.3925 262.391C58.439 262.397 58.4862 262.394 58.5315 262.382C58.5768 262.369 58.6191 262.348 58.6562 262.32C58.6934 262.291 58.7244 262.255 58.7477 262.215L59.1947 261.44C59.2935 261.269 59.2329 261.049 59.0644 260.95ZM56.0974 252.105C56.1207 252.146 56.1517 252.181 56.1888 252.21C56.226 252.239 56.2683 252.26 56.3136 252.272C56.3589 252.284 56.4061 252.288 56.4526 252.282C56.4992 252.276 56.5441 252.261 56.5848 252.237L59.0622 250.807C59.2329 250.708 59.2913 250.488 59.1925 250.317L58.7477 249.544C58.7244 249.504 58.6934 249.468 58.6562 249.439C58.6191 249.411 58.5768 249.389 58.5315 249.377C58.4862 249.365 58.439 249.362 58.3925 249.367C58.3459 249.373 58.301 249.388 58.2603 249.412L55.7829 250.843C55.7009 250.89 55.6411 250.969 55.6167 251.06C55.5923 251.152 55.6052 251.25 55.6526 251.332L56.0974 252.105Z" fill="black"/>
<path d="M248.027 125.378L250.522 118.766C252.405 113.774 259.226 113.178 261.947 117.767V117.767C264.165 121.508 269.398 121.971 272.238 118.677L275.715 114.645C279.187 110.618 285.601 111.251 288.219 115.878V115.878C290.838 120.505 297.252 121.138 300.724 117.112L302.347 115.229C306.273 110.677 313.398 110.909 317.019 115.708L317.203 115.952C320.882 120.828 328.103 121.119 332.162 116.554L333.107 115.491C337.421 110.641 345.002 110.64 349.315 115.491L349.784 116.018C354.258 121.049 362.082 121.164 366.702 116.266L376.027 106.378" stroke="black"/>
<rect x="133.027" y="182.378" width="236" height="1" fill="#006BFF"/>
<rect x="52.0273" y="324.378" width="315" height="2" fill="#006BFF"/>
<rect x="42.0273" y="463.378" width="240" height="1" fill="#006BFF"/>
<path d="M78.0273 253.378V259.378" stroke="black"/>
<path d="M83.0273 245.378V266.378" stroke="black"/>
<path d="M88.0273 249.378V261.378" stroke="black"/>
<path d="M92.0273 253.378V259.378" stroke="black"/>
<path d="M100.027 244.378V264.378" stroke="black"/>
<path d="M106.027 247.378V260.378" stroke="black"/>
<path d="M111.027 248.378V261.378" stroke="black"/>
<path d="M115.027 250.378V260.378" stroke="black"/>
<path d="M97.0273 252.378V259.378" stroke="black"/>
<path d="M119.027 250.378V261.378" stroke="black"/>
<path d="M124.027 248.378V264.378" stroke="black"/>
<path d="M128.027 247.378V265.378" stroke="black"/>
<path d="M131.027 249.378V262.378" stroke="black"/>
<path d="M136.027 251.378V260.378" stroke="black"/>
<path d="M141.027 250.378V262.378" stroke="black"/>
<path d="M144.027 253.378V259.378" stroke="black"/>
<path d="M147.027 255.378V259.378" stroke="black"/>
<path d="M151.027 253.378V260.378" stroke="black"/>
<path d="M155.027 252.378V263.378" stroke="black"/>
<path d="M159.027 251.378V264.378" stroke="black"/>
<path d="M163.027 249.378V264.378" stroke="black"/>
<path d="M166.027 246.378V267.378" stroke="black"/>
<path d="M171.027 248.378V265.378" stroke="black"/>
<path d="M175.027 249.378V262.378" stroke="black"/>
<path d="M180.027 251.378V260.378" stroke="black"/>
<path d="M184.027 253.378V259.378" stroke="black"/>
<path d="M188.027 253.378V257.378" stroke="black"/>
<path d="M162.027 394.378V401.378" stroke="black"/>
<path d="M169.027 387.378V408.378" stroke="black"/>
<path d="M174.027 391.378V403.378" stroke="black"/>
<path d="M179.027 394.378V400.378" stroke="black"/>
<path d="M190.027 386.378V405.378" stroke="black"/>
<path d="M197.027 388.378V402.378" stroke="black"/>
<path d="M203.027 390.378V403.378" stroke="black"/>
<path d="M208.027 392.378V402.378" stroke="black"/>
<path d="M185.027 393.378V400.378" stroke="black"/>
<path d="M214.027 392.378V403.378" stroke="black"/>
<path d="M219.027 390.378V405.378" stroke="black"/>
<path d="M224.027 388.378V407.378" stroke="black"/>
<path d="M229.027 391.378V404.378" stroke="black"/>
<path d="M235.027 393.378V402.378" stroke="black"/>
<path d="M241.027 392.378V404.378" stroke="black"/>
<path d="M245.027 395.378V401.378" stroke="black"/>
<path d="M249.027 397.378V400.378" stroke="black"/>
<path d="M254.027 394.378V402.378" stroke="black"/>
<path d="M259.027 393.378V405.378" stroke="black"/>
<path d="M264.027 393.378V405.378" stroke="black"/>
<path d="M269.027 391.378V405.378" stroke="black"/>
<path d="M273.027 387.378V409.378" stroke="black"/>
<path d="M278.027 390.378V407.378" stroke="black"/>
<path d="M284.027 391.378V404.378" stroke="black"/>
<path d="M290.027 393.378V402.378" stroke="black"/>
<path d="M296.027 394.378V400.378" stroke="black"/>
<path d="M301.027 394.378V399.378" stroke="black"/>
<path d="M309.668 236.378V254.378M309.668 272.378V254.378M309.668 254.378L377.027 243.664M309.668 254.378L247.027 266.807M247.027 241.521L377.027 266.807" stroke="white" stroke-width="2"/>
<path d="M137.027 394.878L129.527 400.508V389.249L137.027 394.878Z" fill="white"/>
<path d="M376.027 456.378C376.027 455.826 375.58 455.378 375.027 455.378H366.027C365.475 455.378 365.027 455.826 365.027 456.378C365.027 456.931 365.475 457.378 366.027 457.378H374.027V465.378C374.027 465.931 374.475 466.378 375.027 466.378C375.58 466.378 376.027 465.931 376.027 465.378V456.378ZM354.734 478.086L375.734 457.086L374.32 455.671L353.32 476.671L354.734 478.086Z" fill="#272727"/>
<circle cx="51.0273" cy="115.378" r="17" fill="black"/>
<rect x="41.0273" y="381.378" width="27" height="27" fill="black"/>
<path d="M186.333 108.667C186.333 107.196 185.137 106 183.667 106H167.667C166.196 106 165 107.196 165 108.667V122C165 123.471 166.196 124.667 167.667 124.667H183.667C185.137 124.667 186.333 123.471 186.333 122V117.556L191.667 122V108.667L186.333 113.111V108.667Z" fill="#006BFF"/>
<path d="M769.52 420.656V429H767.952V419.2H776.408V429H774.826V420.656H769.52ZM785.455 425.892H779.407C779.519 426.461 779.795 426.928 780.233 427.292C780.681 427.647 781.209 427.824 781.815 427.824C782.637 427.824 783.281 427.521 783.747 426.914L785.175 427.348C784.839 427.917 784.373 428.365 783.775 428.692C783.187 429.019 782.534 429.182 781.815 429.182C780.695 429.182 779.767 428.818 779.029 428.09C778.283 427.362 777.909 426.452 777.909 425.36C777.909 424.277 778.269 423.367 778.987 422.63C779.715 421.902 780.621 421.538 781.703 421.538C782.786 421.538 783.682 421.902 784.391 422.63C785.119 423.358 785.483 424.268 785.483 425.36C785.483 425.397 785.474 425.575 785.455 425.892ZM779.421 424.73H783.985C783.855 424.189 783.575 423.75 783.145 423.414C782.716 423.069 782.221 422.896 781.661 422.896C781.129 422.896 780.653 423.069 780.233 423.414C779.823 423.75 779.552 424.189 779.421 424.73ZM788.232 432.15H786.776V421.72H788.232V422.504C788.904 421.86 789.712 421.538 790.654 421.538C791.672 421.538 792.526 421.902 793.216 422.63C793.898 423.349 794.238 424.259 794.238 425.36C794.238 426.461 793.898 427.371 793.216 428.09C792.526 428.818 791.672 429.182 790.654 429.182C789.712 429.182 788.904 428.86 788.232 428.216V432.15ZM790.486 422.994C789.861 422.994 789.334 423.223 788.904 423.68C788.475 424.119 788.26 424.679 788.26 425.36C788.26 426.032 788.475 426.597 788.904 427.054C789.334 427.502 789.861 427.726 790.486 427.726C791.112 427.726 791.644 427.502 792.082 427.054C792.512 426.597 792.726 426.032 792.726 425.36C792.726 424.679 792.512 424.119 792.082 423.68C791.653 423.223 791.121 422.994 790.486 422.994ZM802.873 425.892H796.825C796.937 426.461 797.213 426.928 797.651 427.292C798.099 427.647 798.627 427.824 799.233 427.824C800.055 427.824 800.699 427.521 801.165 426.914L802.593 427.348C802.257 427.917 801.791 428.365 801.193 428.692C800.605 429.019 799.952 429.182 799.233 429.182C798.113 429.182 797.185 428.818 796.447 428.09C795.701 427.362 795.327 426.452 795.327 425.36C795.327 424.277 795.687 423.367 796.405 422.63C797.133 421.902 798.039 421.538 799.121 421.538C800.204 421.538 801.1 421.902 801.809 422.63C802.537 423.358 802.901 424.268 802.901 425.36C802.901 425.397 802.892 425.575 802.873 425.892ZM796.839 424.73H801.403C801.273 424.189 800.993 423.75 800.563 423.414C800.134 423.069 799.639 422.896 799.079 422.896C798.547 422.896 798.071 423.069 797.651 423.414C797.241 423.75 796.97 424.189 796.839 424.73ZM804.194 429V421.72H805.65V426.578L809.766 421.72H810.984V429H809.528V424.17L805.412 429H804.194ZM805.188 418.668H806.406C806.406 418.985 806.518 419.251 806.742 419.466C806.976 419.681 807.265 419.788 807.61 419.788C807.937 419.788 808.212 419.681 808.436 419.466C808.67 419.251 808.786 418.985 808.786 418.668H810.004C810.004 419.331 809.776 419.877 809.318 420.306C808.861 420.735 808.292 420.95 807.61 420.95C806.91 420.95 806.332 420.735 805.874 420.306C805.417 419.877 805.188 419.331 805.188 418.668ZM814.629 429V423.12H812.053V421.72H818.661V423.12H816.085V429H814.629ZM825.046 424.17L820.93 429H819.712V421.72H821.168V426.578L825.284 421.72H826.502V429H825.046V424.17Z" fill="white" fill-opacity="0.9"/>
<path d="M851.464 425.354C851.66 425.158 851.66 424.842 851.464 424.646L848.282 421.464C848.087 421.269 847.77 421.269 847.575 421.464C847.38 421.66 847.38 421.976 847.575 422.172L850.404 425L847.575 427.828C847.38 428.024 847.38 428.34 847.575 428.536C847.77 428.731 848.087 428.731 848.282 428.536L851.464 425.354ZM833 425.5H851.111V424.5H833V425.5Z" fill="white"/>
</g>
<defs>
<clipPath id="clip0_0_3">
<rect width="1440" height="10130" fill="white" transform="translate(-99 -6802)"/>
</clipPath>
</defs>
</svg>
