<svg width="375" height="456" viewBox="0 0 375 456" fill="none" xmlns="http://www.w3.org/2000/svg">
<g clip-path="url(#clip0_12_3442)">
<rect width="375" height="10057" transform="translate(0 -6622)" fill="white"/>
<circle cx="369.266" cy="37.2658" r="5" transform="rotate(-17.3946 369.266 37.2658)" fill="#006BFF"/>
<circle cx="175.386" cy="147.386" r="3.5" transform="rotate(-17.3946 175.386 147.386)" fill="#FED403"/>
<path d="M212.721 123.411L212.276 123.646L212.285 123.665L212.297 123.683L212.721 123.411ZM80.3429 247.265L79.8894 247.071L79.8809 247.091L79.8741 247.111L80.3429 247.265ZM68.7606 281.257L68.2919 281.104L68.2819 281.133L68.2754 281.163L68.7606 281.257ZM58.3749 327.907C58.317 328.18 58.4874 328.443 58.7553 328.495C59.0233 328.547 59.2875 328.367 59.3453 328.094L58.3749 327.907ZM96.6245 209.77L97.0779 209.963L96.6245 209.77ZM117.46 182.108L117.153 181.72L117.46 182.108ZM243.783 126.09L243.797 125.586L243.783 126.09ZM237.989 127.067L237.839 126.591L237.989 127.067ZM257.785 137.059L258.219 137.293L257.785 137.059ZM256.845 138.799L256.411 138.565L256.845 138.799ZM239.78 145.671L239.777 145.168L239.78 145.671ZM220.297 135.654L220.71 135.365L220.297 135.654ZM204.366 106.563L203.921 106.798L204.366 106.563ZM205.417 56.9371L204.983 56.7052L205.417 56.9371ZM217.555 39.7707L217.903 40.1203L217.555 39.7707ZM206.628 54.6799L206.193 54.448L206.628 54.6799ZM248.113 18.1608L248.293 18.6252L248.113 18.1608ZM219.726 37.545L219.378 37.1954L219.726 37.545ZM282.717 5.96644L282.801 6.46044L282.717 5.96644ZM261.802 12.395L261.622 11.9306L261.802 12.395ZM323.178 5.55512L323.051 6.04496L323.178 5.55512ZM288.228 4.86559L288.312 5.35959L288.228 4.86559ZM251.537 126.103L251.524 126.607L251.537 126.103ZM329.718 7.14784L329.59 7.63767L329.718 7.14784ZM219.398 133.397L217.835 130.833L216.987 131.378L218.55 133.943L219.398 133.397ZM214.708 125.703L213.145 123.138L212.297 123.683L213.86 126.248L214.708 125.703ZM213.165 123.175L211.076 118.963L210.187 119.434L212.276 123.646L213.165 123.175ZM206.899 110.539L204.81 106.327L203.921 106.798L206.01 111.01L206.899 110.539ZM204.81 106.327C203.877 104.445 203.061 102.51 202.363 100.533L201.427 100.894C202.138 102.908 202.97 104.88 203.921 106.798L204.81 106.327ZM199.624 88.2123C199.414 86.1118 199.329 83.9917 199.371 81.863L198.378 81.8686C198.336 84.0378 198.423 86.1982 198.636 88.3386L199.624 88.2123ZM199.371 81.863C199.413 79.7189 199.582 77.582 199.877 75.4639L198.894 75.3478C198.594 77.5063 198.421 79.6837 198.378 81.8686L199.371 81.863ZM203.142 63.0259C203.927 61.0284 204.832 59.0723 205.852 57.169L204.983 56.7052C203.943 58.6447 203.021 60.6379 202.221 62.6734L203.142 63.0259ZM205.852 57.169L206.155 56.6047L205.285 56.1409L204.983 56.7052L205.852 57.169ZM206.76 55.4761L207.062 54.9118L206.193 54.448L205.891 55.0123L206.76 55.4761ZM207.062 54.9118C207.788 53.5584 208.56 52.2322 209.378 50.9355L208.545 50.4084C207.715 51.7257 206.93 53.0731 206.193 54.448L207.062 54.9118ZM214.812 43.5204C215.802 42.3519 216.833 41.2177 217.903 40.1203L217.206 39.4211C216.119 40.5359 215.071 41.6882 214.066 42.8753L214.812 43.5204ZM217.903 40.1203L218.446 39.5639L217.749 38.8647L217.206 39.4211L217.903 40.1203ZM219.532 38.451L220.074 37.8946L219.378 37.1954L218.835 37.7518L219.532 38.451ZM220.074 37.8946C221.08 36.8633 222.11 35.8587 223.163 34.8814L222.503 34.1463C221.438 35.1352 220.396 36.1518 219.378 37.1954L220.074 37.8946ZM229.76 29.3398C232.048 27.6047 234.418 25.9864 236.861 24.4912L236.364 23.6323C233.892 25.1454 231.493 26.7829 229.179 28.5387L229.76 29.3398ZM244.391 20.3857C245.676 19.7665 246.978 19.1794 248.293 18.6252L247.933 17.6964C246.601 18.2573 245.285 18.8514 243.984 19.4779L244.391 20.3857ZM248.293 18.6252L251.716 17.1837L251.355 16.255L247.933 17.6964L248.293 18.6252ZM258.56 14.3008L261.983 12.8593L261.622 11.9306L258.2 13.372L258.56 14.3008ZM261.983 12.8593C263.664 12.1512 265.361 11.4861 267.071 10.8647L266.758 9.91745C265.031 10.5447 263.319 11.2159 261.622 11.9306L261.983 12.8593ZM277.494 7.66115C279.253 7.21614 281.023 6.81574 282.801 6.46044L282.633 5.47244C280.838 5.83102 279.052 6.23514 277.277 6.68426L277.494 7.66115ZM282.801 6.46044L284.179 6.18522L284.011 5.19722L282.633 5.47244L282.801 6.46044ZM286.934 5.6348L288.312 5.35959L288.144 4.37159L286.766 4.6468L286.934 5.6348ZM288.312 5.35959C289.753 5.07173 291.198 4.8234 292.647 4.61456L292.532 3.61749C291.066 3.82887 289.603 4.08023 288.144 4.37159L288.312 5.35959ZM301.386 3.83436C304.307 3.73286 307.227 3.79048 310.134 4.00694L310.231 3.00247C307.289 2.78338 304.334 2.72507 301.377 2.82779L301.386 3.83436ZM318.789 5.13032C320.217 5.3959 321.638 5.70079 323.051 6.04496L323.306 5.06529C321.875 4.71694 320.437 4.40834 318.992 4.13953L318.789 5.13032ZM323.051 6.04496L324.686 6.44314L324.94 5.46347L323.306 5.06529L323.051 6.04496ZM327.955 7.23949L329.59 7.63767L329.845 6.65801L328.21 6.25983L327.955 7.23949ZM329.59 7.63767C331.426 8.08477 333.232 8.614 335.004 9.22224L335.343 8.26736C333.544 7.6496 331.709 7.11209 329.845 6.65801L329.59 7.63767ZM345.27 13.8385C348.541 15.6884 351.636 17.8359 354.516 20.255L355.16 19.4726C352.235 17.0157 349.092 14.8346 345.77 12.9559L345.27 13.8385ZM362.447 28.2668C363.641 29.7167 364.773 31.2265 365.839 32.7932L366.661 32.2069C365.578 30.6158 364.428 29.0823 363.216 27.6098L362.447 28.2668ZM218.561 133.959L218.891 134.455L219.718 133.877L219.387 133.381L218.561 133.959ZM219.553 135.447L219.884 135.943L220.71 135.365L220.38 134.869L219.553 135.447ZM219.884 135.943C220.982 137.59 222.268 139.065 223.704 140.348L224.371 139.585C222.995 138.356 221.763 136.943 220.71 135.365L219.884 135.943ZM233.966 145.625C235.848 146.047 237.8 146.237 239.783 146.175L239.777 145.168C237.877 145.228 236.007 145.046 234.204 144.641L233.966 145.625ZM239.783 146.175L241.384 146.124L241.379 145.118L239.777 145.168L239.783 146.175ZM244.587 146.024L246.189 145.973L246.183 144.967L244.582 145.017L244.587 146.024ZM246.189 145.973C247.332 145.938 248.452 145.748 249.524 145.419L249.259 144.455C248.27 144.758 247.237 144.934 246.183 144.967L246.189 145.973ZM255.268 141.823C256.045 140.995 256.723 140.059 257.278 139.032L256.411 138.565C255.898 139.513 255.273 140.375 254.557 141.139L255.268 141.823ZM257.278 139.032L257.514 138.598L256.646 138.13L256.411 138.565L257.278 139.032ZM257.984 137.728L258.219 137.293L257.352 136.826L257.116 137.261L257.984 137.728ZM258.219 137.293C258.461 136.846 258.66 136.38 258.814 135.904L257.871 135.612C257.736 136.028 257.563 136.435 257.352 136.826L258.219 137.293ZM259.199 132.932C259.172 132.435 259.098 131.94 258.977 131.454L258.014 131.723C258.119 132.148 258.184 132.581 258.208 133.014L259.199 132.932ZM258.977 131.454C258.765 130.601 258.421 129.813 257.969 129.109L257.133 129.674C257.528 130.289 257.829 130.977 258.014 131.723L258.977 131.454ZM254.051 126.021C253.264 125.748 252.422 125.601 251.551 125.599L251.524 126.607C252.286 126.608 253.022 126.736 253.709 126.975L254.051 126.021ZM251.551 125.599L249.612 125.596L249.585 126.603L251.524 126.607L251.551 125.599ZM245.735 125.589L243.797 125.586L243.77 126.593L245.708 126.597L245.735 125.589ZM243.797 125.586C243.293 125.585 242.789 125.606 242.286 125.647L242.342 126.651C242.817 126.612 243.293 126.592 243.77 126.593L243.797 125.586ZM239.297 126.151C238.807 126.277 238.32 126.424 237.839 126.591L238.139 127.543C238.594 127.385 239.054 127.246 239.517 127.128L239.297 126.151ZM237.839 126.591L233.086 128.242L233.386 129.194L238.139 127.543L237.839 126.591ZM223.578 131.543L218.824 133.194L219.124 134.146L223.878 132.495L223.578 131.543ZM59.3453 328.094L60.5829 322.251L59.6125 322.064L58.3749 327.907L59.3453 328.094ZM63.058 310.565L65.5332 298.88L64.5627 298.692L62.0876 310.378L63.058 310.565ZM68.0083 287.194L69.2459 281.351L68.2754 281.163L67.0379 287.006L68.0083 287.194ZM69.2294 281.411L70.6772 277.162L69.7397 276.854L68.2919 281.104L69.2294 281.411ZM73.5727 268.664L76.4683 260.165L75.5308 259.858L72.6352 268.356L73.5727 268.664ZM79.3638 251.667L80.8116 247.418L79.8741 247.111L78.4263 251.36L79.3638 251.667ZM80.7963 247.458L82.8315 242.771L81.9246 242.385L79.8894 247.071L80.7963 247.458ZM86.9019 233.397L90.9723 224.024L90.0654 223.637L85.995 233.011L86.9019 233.397ZM95.0427 214.65L97.0779 209.963L96.171 209.577L94.1358 214.264L95.0427 214.65ZM97.0779 209.963C97.4279 209.157 97.7923 208.358 98.1708 207.565L97.2794 207.145C96.8955 207.949 96.526 208.759 96.171 209.577L97.0779 209.963ZM100.611 202.892C101.046 202.128 101.494 201.372 101.955 200.624L101.117 200.105C100.649 200.864 100.195 201.631 99.7543 202.406L100.611 202.892ZM101.955 200.624C103.016 198.906 104.145 197.234 105.339 195.613L104.549 195.024C103.338 196.667 102.193 198.363 101.117 200.105L101.955 200.624ZM113.273 186.517C114.714 185.116 116.213 183.775 117.767 182.496L117.153 181.72C115.578 183.017 114.057 184.378 112.596 185.798L113.273 186.517ZM117.767 182.496L121.481 179.44L120.867 178.664L117.153 181.72L117.767 182.496ZM128.909 173.327L132.623 170.271L132.009 169.495L128.295 172.551L128.909 173.327ZM132.574 170.306C133.933 169.431 135.3 168.569 136.673 167.72L136.173 166.863C134.794 167.716 133.422 168.581 132.057 169.46L132.574 170.306ZM145.006 162.782C147.814 161.188 150.649 159.648 153.51 158.162L153.075 157.268C150.203 158.759 147.357 160.306 144.538 161.906L145.006 162.782ZM162.171 153.867C165.083 152.491 168.019 151.169 170.978 149.904L170.612 148.977C167.642 150.248 164.694 151.574 161.77 152.956L162.171 153.867ZM179.918 146.277C182.917 145.125 185.938 144.03 188.978 142.992L188.683 142.039C185.631 143.081 182.598 144.18 179.587 145.336L179.918 146.277ZM198.145 140.054C199.681 139.594 201.221 139.148 202.765 138.717L202.524 137.746C200.974 138.179 199.428 138.627 197.886 139.089L198.145 140.054ZM202.765 138.717L206.847 137.576L206.606 136.606L202.524 137.746L202.765 138.717ZM215.012 135.296L219.095 134.155L218.854 133.185L214.771 134.325L215.012 135.296Z" fill="#AEAEAE" fill-opacity="0.4"/>
<path d="M50.6104 164.575L46.6743 167.792" stroke="black" stroke-width="2" stroke-linecap="round"/>
<path d="M48.2891 162.404L43.3487 166.416" stroke="black" stroke-width="2" stroke-linecap="round"/>
<path d="M46.335 160.485L40.9997 165.096" stroke="black" stroke-width="2" stroke-linecap="round"/>
<rect x="53.4443" y="171.288" width="74.0606" height="38.284" rx="19.142" fill="white" stroke="black"/>
<rect x="197.454" y="170.788" width="119.255" height="39.284" rx="19.642" fill="#DEDEDE"/>
<rect x="111.871" y="219.893" width="204.838" height="39.284" rx="19.642" fill="#DEDEDE"/>
<rect x="52.9443" y="318.103" width="263.764" height="39.284" rx="19.642" fill="#DEDEDE"/>
<rect x="110.468" y="367.208" width="154.33" height="39.284" rx="19.642" fill="#006BFF"/>
<rect x="53.6465" y="416.313" width="205.54" height="39.9855" rx="19.9928" fill="#DEDEDE"/>
<rect x="52.9443" y="268.998" width="130.479" height="39.284" rx="19.642" fill="#FBC63F"/>
<rect x="199.356" y="269.498" width="116.852" height="38.284" rx="19.142" fill="black" stroke="black"/>
<path d="M185.028 190.43C185.028 200.934 175.117 209.572 162.729 209.572C150.342 209.572 140.431 200.934 140.431 190.43C140.431 179.925 150.342 171.288 162.729 171.288C175.117 171.288 185.028 179.925 185.028 190.43Z" fill="white" stroke="black"/>
<path d="M98.744 386.85C98.744 397.355 88.8331 405.992 76.4453 405.992C64.0575 405.992 54.1465 397.355 54.1465 386.85C54.1465 376.346 64.0575 367.708 76.4453 367.708C88.8331 367.708 98.744 376.346 98.744 386.85Z" fill="white" stroke="black"/>
<ellipse cx="293.91" cy="437.358" rx="22.7988" ry="19.642" fill="#DEDEDE"/>
<ellipse cx="131.162" cy="387.552" rx="10.1718" ry="9.82101" fill="black"/>
<path d="M75.4332 283.437C75.3403 283.437 75.2457 283.462 75.1591 283.521L69.5735 287.171H66.9894C66.8508 287.171 66.7373 287.285 66.7373 287.423V291.961C66.7373 292.1 66.8508 292.213 66.9894 292.213H69.5735L75.1591 295.864C75.2457 295.921 75.3419 295.948 75.4332 295.948C75.6964 295.948 75.939 295.738 75.939 295.442V283.943C75.939 283.647 75.6964 283.437 75.4332 283.437ZM74.8046 294.277L70.1943 291.263L69.9106 291.079H67.8718V288.306H69.9106L70.1927 288.121L74.8046 285.107V294.277ZM80.2878 289.125H78.271C78.1323 289.125 78.0189 289.239 78.0189 289.377V290.007C78.0189 290.146 78.1323 290.26 78.271 290.26H80.2878C80.4264 290.26 80.5399 290.146 80.5399 290.007V289.377C80.5399 289.239 80.4264 289.125 80.2878 289.125ZM79.6276 293.25L77.8897 292.246C77.8611 292.23 77.8296 292.22 77.797 292.215C77.7643 292.211 77.7312 292.213 77.6995 292.222C77.6677 292.231 77.638 292.246 77.6119 292.266C77.5859 292.286 77.5641 292.311 77.5478 292.339L77.2342 292.883C77.1649 293.003 77.2058 293.157 77.3256 293.226L79.0635 294.23C79.0921 294.246 79.1236 294.257 79.1562 294.261C79.1888 294.265 79.222 294.263 79.2537 294.254C79.2855 294.246 79.3152 294.231 79.3412 294.211C79.3673 294.191 79.3891 294.166 79.4054 294.137L79.719 293.594C79.7883 293.474 79.7458 293.319 79.6276 293.25ZM77.5462 287.045C77.5625 287.074 77.5843 287.099 77.6104 287.119C77.6364 287.139 77.6661 287.154 77.6979 287.163C77.7296 287.171 77.7628 287.173 77.7954 287.169C77.828 287.165 77.8595 287.155 77.8881 287.138L79.626 286.135C79.7458 286.065 79.7867 285.911 79.7174 285.791L79.4054 285.249C79.3891 285.22 79.3673 285.195 79.3412 285.175C79.3152 285.155 79.2855 285.14 79.2537 285.132C79.222 285.123 79.1888 285.121 79.1562 285.125C79.1236 285.129 79.0921 285.14 79.0635 285.156L77.3256 286.16C77.268 286.193 77.2261 286.248 77.209 286.313C77.1919 286.377 77.2009 286.446 77.2342 286.503L77.5462 287.045Z" fill="black"/>
<path d="M212.186 198.146L213.936 193.508C215.257 190.006 220.042 189.588 221.95 192.807V192.807C223.506 195.431 227.177 195.756 229.169 193.446L231.608 190.617C234.044 187.792 238.543 188.236 240.38 191.482V191.482C242.217 194.728 246.716 195.172 249.152 192.347L250.291 191.027C253.045 187.833 258.043 187.996 260.583 191.363L260.712 191.534C263.293 194.955 268.359 195.159 271.206 191.956L271.869 191.211C274.895 187.808 280.213 187.808 283.239 191.211L283.568 191.58C286.706 195.11 292.195 195.19 295.436 191.754L301.978 184.818" stroke="black"/>
<rect x="131.513" y="238.132" width="165.554" height="0.701501" fill="#006BFF"/>
<rect x="74.6914" y="337.745" width="220.973" height="1.403" fill="#006BFF"/>
<rect x="67.6758" y="435.254" width="168.36" height="0.701501" fill="#006BFF"/>
<path d="M92.9307 287.939V292.148" stroke="black"/>
<path d="M96.4375 282.327V297.058" stroke="black"/>
<path d="M99.9453 285.133V293.551" stroke="black"/>
<path d="M102.751 287.939V292.148" stroke="black"/>
<path d="M108.363 281.625V295.655" stroke="black"/>
<path d="M112.572 283.73V292.849" stroke="black"/>
<path d="M116.08 284.431V293.551" stroke="black"/>
<path d="M118.886 285.834V292.849" stroke="black"/>
<path d="M106.259 287.237V292.148" stroke="black"/>
<path d="M121.691 285.834V293.551" stroke="black"/>
<path d="M125.199 284.431V295.655" stroke="black"/>
<path d="M128.005 283.73V296.357" stroke="black"/>
<path d="M130.109 285.133V294.252" stroke="black"/>
<path d="M133.617 286.536V292.849" stroke="black"/>
<path d="M137.125 285.834V294.252" stroke="black"/>
<path d="M139.229 287.939V292.148" stroke="black"/>
<path d="M141.334 289.342V292.148" stroke="black"/>
<path d="M144.14 287.939V292.849" stroke="black"/>
<path d="M146.945 287.237V294.954" stroke="black"/>
<path d="M149.752 286.536V295.655" stroke="black"/>
<path d="M152.558 285.133V295.655" stroke="black"/>
<path d="M154.662 283.028V297.76" stroke="black"/>
<path d="M158.17 284.431V296.357" stroke="black"/>
<path d="M160.976 285.133V294.252" stroke="black"/>
<path d="M164.483 286.536V292.849" stroke="black"/>
<path d="M167.289 287.939V292.148" stroke="black"/>
<path d="M170.096 287.939V290.745" stroke="black"/>
<path d="M151.856 386.85V391.761" stroke="black"/>
<path d="M156.767 381.94V396.671" stroke="black"/>
<path d="M160.274 384.746V393.164" stroke="black"/>
<path d="M163.782 386.85V391.059" stroke="black"/>
<path d="M171.498 381.238V394.567" stroke="black"/>
<path d="M176.409 382.641V392.462" stroke="black"/>
<path d="M180.618 384.044V393.164" stroke="black"/>
<path d="M184.125 385.447V392.462" stroke="black"/>
<path d="M167.991 386.149V391.059" stroke="black"/>
<path d="M188.334 385.447V393.164" stroke="black"/>
<path d="M191.842 384.044V394.567" stroke="black"/>
<path d="M195.35 382.641V395.97" stroke="black"/>
<path d="M198.856 384.746V393.865" stroke="black"/>
<path d="M203.065 386.149V392.462" stroke="black"/>
<path d="M207.274 385.447V393.865" stroke="black"/>
<path d="M210.081 387.552V391.761" stroke="black"/>
<path d="M212.887 388.955V391.059" stroke="black"/>
<path d="M216.395 386.85V392.462" stroke="black"/>
<path d="M219.902 386.149V394.567" stroke="black"/>
<path d="M223.409 386.149V394.567" stroke="black"/>
<path d="M226.917 384.746V394.567" stroke="black"/>
<path d="M229.723 381.94V397.373" stroke="black"/>
<path d="M233.23 384.044V395.97" stroke="black"/>
<path d="M237.439 384.746V393.865" stroke="black"/>
<path d="M241.648 386.149V392.462" stroke="black"/>
<path d="M245.857 386.85V391.059" stroke="black"/>
<path d="M249.365 386.85V390.358" stroke="black"/>
<path d="M255.427 276.013V288.64M255.427 301.267V288.64M255.427 288.64L302.679 281.124M255.427 288.64L211.484 297.359M211.484 279.621L302.679 297.359" stroke="white" stroke-width="2"/>
<path d="M134.318 387.201L129.057 391.15V383.252L134.318 387.201Z" fill="white"/>
<path d="M302.276 430.343C302.276 429.791 301.829 429.343 301.276 429.343H292.276C291.724 429.343 291.276 429.791 291.276 430.343C291.276 430.896 291.724 431.343 292.276 431.343H300.276V439.343C300.276 439.896 300.724 440.343 301.276 440.343C301.829 440.343 302.276 439.896 302.276 439.343V430.343ZM287.252 445.782L301.984 431.05L300.569 429.636L285.838 444.368L287.252 445.782Z" fill="#272727"/>
<circle cx="73.99" cy="191.131" r="11.9255" fill="black"/>
<rect x="66.9746" y="377.731" width="18.9405" height="18.9405" fill="black"/>
<path d="M169.2 185.857C169.2 184.833 168.348 184 167.3 184H155.9C154.852 184 154 184.833 154 185.857V195.143C154 196.167 154.852 197 155.9 197H167.3C168.348 197 169.2 196.167 169.2 195.143V192.048L173 195.143V185.857L169.2 188.952V185.857Z" fill="#006BFF"/>
</g>
<defs>
<clipPath id="clip0_12_3442">
<rect width="375" height="10057" fill="white" transform="translate(0 -6622)"/>
</clipPath>
</defs>
</svg>
