<svg width="157px" height="144px" viewBox="0 0 157 144" fill="none" xmlns="http://www.w3.org/2000/svg">
<path d="M80.5705 17.3839L84.3925 18.1986C84.5104 18.2237 84.5727 18.3538 84.5181 18.4612L83.0069 21.4359C82.4115 22.608 81.9885 23.8602 81.751 25.1537C81.3438 27.3721 81.4923 29.6578 82.1832 31.8067L82.7815 33.6675C83.1202 34.721 83.6498 35.7034 84.344 36.5657C85.8611 38.4503 88.0708 39.6479 90.477 39.8896L93.8817 40.2315C93.9464 40.238 93.9808 40.3111 93.9446 40.3649L89.5112 46.9489C88.3258 48.7092 87.5623 50.7194 87.2798 52.8238L87.0344 54.6515C86.7574 56.7143 87.2212 58.8097 88.3434 60.5652C89.4122 62.2374 91.0141 63.5006 92.8894 64.1499L93.9894 64.5308C95.6412 65.1028 97.3964 65.312 99.1352 65.1441L100.891 64.9747C102.375 64.8313 103.839 64.5243 105.255 64.0591L111.483 62.0136C111.546 61.9929 111.615 62.0175 111.651 62.0734L114.062 65.8336C115.086 67.429 116.49 68.7454 118.148 69.6642C120.17 70.7852 122.485 71.2665 124.785 71.0444L127.626 70.7702C127.689 70.7641 127.743 70.8159 127.739 70.8791L126.941 83.8902C126.501 91.0715 125.001 98.1464 122.489 104.885L121.68 107.054C119.429 113.093 116.202 118.719 112.127 123.71L110.782 125.356C107.756 129.062 104.163 132.267 100.136 134.853C95.7439 137.673 90.8975 139.716 85.8093 140.893L82.5855 141.638C78.2151 142.649 73.7421 143.154 69.2546 143.144C64.9381 143.134 60.6351 142.648 56.424 141.694L54.2199 141.194C49.127 140.04 44.1675 138.358 39.4219 136.176L38.3205 135.67C34.1013 133.73 30.1049 131.337 26.402 128.534L25.8086 128.085C22.1616 125.324 18.8547 122.141 15.9573 118.602C12.2656 114.093 9.27648 109.053 7.09142 103.653L5.32267 99.2811C4.01293 96.0441 2.98289 92.7013 2.24387 89.2894L1.78761 87.183C0.673725 82.0404 0.411704 76.7513 1.01201 71.5267C1.62992 66.149 3.1527 60.9158 5.51603 56.0482L6.75294 53.5007C10.403 45.983 15.4774 39.2463 21.6953 33.6635L22.1535 33.2521C28.1544 27.8641 35.0705 23.5912 42.5768 20.6342L42.9266 20.4964C48.5956 18.2631 54.5502 16.8329 60.6178 16.2471C67.286 15.6033 74.0153 15.9867 80.5705 17.3839Z" fill="#C98D44" stroke="black"/>
<path d="M57.75 51C57.75 53.0219 55.6783 54.75 53 54.75C50.3217 54.75 48.25 53.0219 48.25 51C48.25 48.9781 50.3217 47.25 53 47.25C55.6783 47.25 57.75 48.9781 57.75 51Z" fill="#AD7633" stroke="black" stroke-width="0.5"/>
<path d="M108.75 24C108.75 26.0442 106.876 27.75 104.5 27.75C102.124 27.75 100.25 26.0442 100.25 24C100.25 21.9558 102.124 20.25 104.5 20.25C106.876 20.25 108.75 21.9558 108.75 24Z" fill="#AD7633" stroke="black" stroke-width="0.5"/>
<path d="M124.75 51.5C124.75 52.0887 124.416 52.6452 123.83 53.0643C123.243 53.4831 122.42 53.75 121.5 53.75C120.58 53.75 119.757 53.4831 119.17 53.0643C118.584 52.6452 118.25 52.0887 118.25 51.5C118.25 50.9113 118.584 50.3548 119.17 49.9357C119.757 49.5169 120.58 49.25 121.5 49.25C122.42 49.25 123.243 49.5169 123.83 49.9357C124.416 50.3548 124.75 50.9113 124.75 51.5Z" fill="#AD7633" stroke="black" stroke-width="0.5"/>
<path d="M156.75 29C156.75 29.1304 156.638 29.3158 156.302 29.4835C155.982 29.6437 155.522 29.75 155 29.75C154.478 29.75 154.018 29.6437 153.698 29.4835C153.362 29.3158 153.25 29.1304 153.25 29C153.25 28.8696 153.362 28.6842 153.698 28.5165C154.018 28.3563 154.478 28.25 155 28.25C155.522 28.25 155.982 28.3563 156.302 28.5165C156.638 28.6842 156.75 28.8696 156.75 29Z" fill="#AD7633" stroke="black" stroke-width="0.5"/>
<circle cx="84" cy="2" r="1.75" fill="#AD7633" stroke="black" stroke-width="0.5"/>
<path d="M150.75 57.5C150.75 58.0887 150.416 58.6452 149.83 59.0643C149.243 59.4831 148.42 59.75 147.5 59.75C146.58 59.75 145.757 59.4831 145.17 59.0643C144.584 58.6452 144.25 58.0887 144.25 57.5C144.25 56.9113 144.584 56.3548 145.17 55.9357C145.757 55.5169 146.58 55.25 147.5 55.25C148.42 55.25 149.243 55.5169 149.83 55.9357C150.416 56.3548 150.75 56.9113 150.75 57.5Z" fill="#AD7633" stroke="black" stroke-width="0.5"/>
<path d="M140.75 32.5C140.75 33.7019 139.563 34.75 138 34.75C136.437 34.75 135.25 33.7019 135.25 32.5C135.25 31.2981 136.437 30.25 138 30.25C139.563 30.25 140.75 31.2981 140.75 32.5Z" fill="#AD7633" stroke="black" stroke-width="0.5"/>
<path d="M43.75 77.5C43.75 80.9194 40.5388 83.75 36.5 83.75C32.4612 83.75 29.25 80.9194 29.25 77.5C29.25 74.0806 32.4612 71.25 36.5 71.25C40.5388 71.25 43.75 74.0806 43.75 77.5Z" fill="#AD7633" stroke="black" stroke-width="0.5"/>
<path d="M83.75 79C83.75 81.0442 81.8757 82.75 79.5 82.75C77.1243 82.75 75.25 81.0442 75.25 79C75.25 76.9558 77.1243 75.25 79.5 75.25C81.8757 75.25 83.75 76.9558 83.75 79Z" fill="#AD7633" stroke="black" stroke-width="0.5"/>
<path d="M59.75 97C59.75 97.7321 59.3549 98.4139 58.6784 98.9213C58.0018 99.4288 57.0557 99.75 56 99.75C54.9443 99.75 53.9982 99.4288 53.3216 98.9213C52.6451 98.4139 52.25 97.7321 52.25 97C52.25 96.2679 52.6451 95.5861 53.3216 95.0787C53.9982 94.5712 54.9443 94.25 56 94.25C57.0557 94.25 58.0018 94.5712 58.6784 95.0787C59.3549 95.5861 59.75 96.2679 59.75 97Z" fill="#AD7633" stroke="black" stroke-width="0.5"/>
<path d="M133.687 12.2677C131.301 14.7213 127.624 14.9736 125.473 12.9182C123.321 10.8628 123.44 7.21104 125.825 4.75752C128.211 2.30401 131.888 2.05167 134.04 4.10704C136.191 6.16242 136.072 9.81423 133.687 12.2677Z" fill="#AD7633" stroke="black" stroke-width="0.5"/>
<path d="M103.75 110C103.75 113.141 100.765 115.75 97 115.75C93.2345 115.75 90.25 113.141 90.25 110C90.25 106.859 93.2345 104.25 97 104.25C100.765 104.25 103.75 106.859 103.75 110Z" fill="#AD7633" stroke="black" stroke-width="0.5"/>
</svg>
