<svg width="778" height="420" viewBox="0 0 778 420" fill="none" xmlns="http://www.w3.org/2000/svg">
<path d="M373.503 144.319C368.337 135.776 362.216 126.654 352.629 123.864C341.528 120.633 330.123 127.051 320.45 133.384C291.521 152.324 263.662 172.85 237 194.867L237.029 195.199C257.786 193.767 278.544 192.336 299.301 190.904C314.298 189.87 329.81 188.693 343.063 181.599C348.093 178.907 352.995 175.311 358.694 175.06C365.774 174.749 371.948 179.694 376.799 184.86C405.498 215.419 413.803 262.151 446 289C425.697 238.932 401.456 190.554 373.503 144.319V144.319Z" fill="#F2F2F2"/>
<path d="M550.474 402.679C547.295 398.682 545.996 397.746 542.86 393.712C517.327 360.831 493.328 326.84 470.863 291.738C455.604 267.898 441.101 243.601 427.356 218.845C420.812 207.076 414.447 195.215 408.262 183.261C403.462 173.993 398.769 164.668 394.184 155.289C392.873 152.61 391.598 149.919 390.331 147.221C387.343 140.878 384.411 134.504 381.263 128.247C377.675 121.115 373.309 113.638 366.721 108.847C363.723 106.577 360.138 105.204 356.385 104.887C351.023 104.542 346.075 106.747 341.423 109.155C307.392 126.824 275.531 148.976 246.714 174.183C217.823 199.447 191.999 227.989 169.769 259.227C169.089 260.194 167.481 259.27 168.167 258.297C170.87 254.491 173.627 250.726 176.437 247.002C211.379 200.731 254.224 160.939 303.012 129.448C311.221 124.151 319.583 119.103 328.1 114.304C332.393 111.883 336.704 109.494 341.089 107.252C345.388 105.053 349.953 103.077 354.864 103.003C371.577 102.744 380.23 121.589 386.174 134.27C388.042 138.26 389.932 142.239 391.846 146.205C399.076 161.263 406.585 176.183 414.373 190.966C419.179 200.093 424.09 209.166 429.106 218.186C444.718 246.276 461.311 273.796 478.885 300.748C502.167 336.45 525.263 367.988 551.785 401.373C552.515 402.297 551.21 403.615 550.474 402.679Z" fill="#E4E4E4"/>
<path d="M245.45 164.414C244.483 163.34 243.522 162.265 242.549 161.19C234.876 152.728 226.642 144.364 216.105 139.513C211.081 137.127 205.597 135.859 200.032 135.798C194.28 135.816 188.658 137.321 183.343 139.427C180.831 140.428 178.373 141.564 175.953 142.774C173.188 144.162 170.472 145.642 167.769 147.134C162.694 149.934 157.686 152.857 152.743 155.903C142.908 161.964 133.381 168.488 124.162 175.474C119.383 179.097 114.702 182.839 110.121 186.7C105.859 190.286 101.684 193.968 97.5948 197.747C96.7204 198.552 95.4148 197.25 96.2892 196.445C97.3669 195.444 98.4569 194.45 99.547 193.467C102.626 190.691 105.755 187.969 108.932 185.3C114.727 180.424 120.672 175.736 126.767 171.237C136.245 164.236 146.049 157.711 156.179 151.66C161.241 148.639 166.373 145.744 171.575 142.977C173.145 142.141 174.734 141.325 176.341 140.551C179.988 138.717 183.778 137.178 187.672 135.951C193.19 134.172 199.027 133.6 204.786 134.275C210.347 135.082 215.705 136.93 220.576 139.722C230.922 145.488 238.946 154.405 246.755 163.106C247.544 163.991 246.244 165.299 245.45 164.414Z" fill="#E4E4E4"/>
<path d="M458.118 252.521L482.876 243.388L495.168 238.853C499.172 237.376 503.165 235.695 507.304 234.638C510.901 233.602 514.719 233.651 518.288 234.779C521.471 235.967 524.385 237.789 526.856 240.135C529.38 242.48 531.729 245.01 533.883 247.704C536.56 250.948 539.196 254.226 541.845 257.493C552.776 270.976 563.636 284.518 574.424 298.118C585.212 311.718 595.928 325.376 606.572 339.091C617.241 352.84 627.838 366.647 638.361 380.511C639.65 382.209 640.938 383.908 642.225 385.609C642.936 386.548 644.539 385.622 643.818 384.669C633.217 370.666 622.543 356.72 611.794 342.831C601.019 328.909 590.17 315.046 579.246 301.242C568.323 287.439 557.325 273.695 546.254 260.011C543.496 256.602 540.733 253.196 537.966 249.795C535.632 246.926 533.324 244.025 530.764 241.355C526.064 236.452 520.192 232.12 513.164 232.003C509.032 231.933 505.032 233.256 501.193 234.657C497.054 236.167 492.925 237.706 488.791 239.23L463.86 248.427L457.627 250.726C456.521 251.134 456.999 252.934 458.118 252.521L458.118 252.521Z" fill="#E4E4E4"/>
<path d="M212.673 150.264C199.961 143.58 183.681 144.889 172 153.24C194.281 157.173 216.319 162.435 238 169C228.997 163.602 221.954 155.145 212.673 150.264Z" fill="#F2F2F2"/>
<path d="M171.903 153L170 155C170.644 154.3 171.313 153.644 172 153.023C171.968 153.015 171.935 153.007 171.903 153Z" fill="#F2F2F2"/>
<path d="M526.142 253.297C523.7 250.323 521.061 247.208 517.409 246L514 246.135C539.952 292.037 575.003 332.146 617 364C586.714 327.099 556.428 290.198 526.142 253.297Z" fill="#F2F2F2"/>
<path d="M313.383 228C315.028 233.801 318.733 238.851 323.844 242.255C325.82 243.561 328.158 244.814 328.834 247.04C329.189 248.459 328.97 249.956 328.222 251.223C327.474 252.473 326.565 253.626 325.516 254.652L325.42 255C320.517 252.179 315.852 248.611 313.144 243.743C310.435 238.874 310.057 232.493 313.383 228" fill="#F2F2F2"/>
<path d="M470.25 365C471.804 370.801 475.304 375.851 480.13 379.255C481.997 380.561 484.204 381.814 484.843 384.04C485.179 385.459 484.972 386.956 484.265 388.223C483.559 389.473 482.7 390.626 481.71 391.652L481.619 392C476.988 389.179 472.583 385.611 470.025 380.743C467.466 375.874 467.109 369.493 470.25 365" fill="#F2F2F2"/>
<path d="M157.25 356C158.804 361.586 162.304 366.449 167.13 369.727C168.997 370.985 171.204 372.191 171.843 374.335C172.179 375.701 171.972 377.143 171.265 378.363C170.559 379.567 169.7 380.677 168.71 381.665L168.619 382C163.988 379.284 159.583 375.848 157.025 371.159C154.466 366.471 154.109 360.327 157.25 356" fill="#F2F2F2"/>
<path d="M507.5 134C541.466 134 569 107.361 569 74.5C569 41.6391 541.466 15 507.5 15C473.534 15 446 41.6391 446 74.5C446 107.361 473.534 134 507.5 134Z" fill="#2D6EFD"/>
<path d="M579.576 44.3334C562.945 42.1381 543.959 50.9167 539.649 66.756C538.563 63.9397 536.588 61.5337 534.01 59.8853C531.432 58.237 528.384 57.4318 525.306 57.586C522.229 57.7403 519.281 58.8459 516.889 60.7433C514.498 62.6407 512.785 65.2316 512 68.1416L513.904 69.4733C549.542 76.9999 586.433 76.837 622 68.996C610.432 57.1229 596.206 46.5287 579.576 44.3334Z" fill="#F0F0F0"/>
<path d="M508.576 89.3442C491.945 87.078 472.959 96.1398 468.649 112.49C467.563 109.583 465.588 107.099 463.01 105.398C460.432 103.696 457.384 102.865 454.306 103.024C451.229 103.184 448.281 104.325 445.889 106.283C443.498 108.242 441.785 110.916 441 113.92L442.904 115.295C478.542 123.064 515.433 122.896 551 114.802C539.432 102.546 525.206 91.6103 508.576 89.3442Z" fill="#F0F0F0"/>
<path d="M653.327 98C653.258 98.0001 653.19 97.9894 653.124 97.9683C475.159 41.4609 318.308 48.8503 218.063 64.9997C204.421 67.1966 190.742 69.7341 177.407 72.5421C174.002 73.2582 170.47 74.0257 166.909 74.8249C162.656 75.7758 158.46 76.7552 154.436 77.7345C152.698 78.1477 150.994 78.5641 149.324 78.9838C146.794 79.6108 144.227 80.2641 141.476 80.9821C138.401 81.778 135.278 82.6128 132.189 83.4635C132.178 83.4675 132.167 83.4708 132.155 83.4734L132.155 83.474C128.667 84.4303 125.197 85.4143 121.841 86.3969C120.025 86.9236 118.272 87.4429 116.592 87.9557C116.404 88.0078 116.238 88.058 116.069 88.1095L115.709 88.2197C115.5 88.2837 115.293 88.3464 115.087 88.4058L115.074 88.4097L115.074 88.4104L114.528 88.5807C113.876 88.7787 113.241 88.9721 112.616 89.1648C96.0951 94.278 87.0132 97.9156 86.9235 97.9512C86.8415 97.9842 86.7537 98.0007 86.6654 97.9997C86.577 97.9986 86.4897 97.9802 86.4084 97.9453C86.3271 97.9104 86.2535 97.8597 86.1917 97.7963C86.1299 97.7328 86.0812 97.6577 86.0483 97.5754C86.0154 97.493 85.999 97.4049 86 97.3162C86.0011 97.2274 86.0195 97.1398 86.0542 97.0582C86.089 96.9766 86.1394 96.9027 86.2026 96.8406C86.2658 96.7786 86.3406 96.7297 86.4226 96.6967C86.513 96.661 95.6393 93.005 112.22 87.8726C112.847 87.6792 113.485 87.4859 114.138 87.2872L114.645 87.1288C114.663 87.1222 114.68 87.117 114.698 87.1117C114.903 87.053 115.108 86.9903 115.317 86.9269L115.678 86.8167C115.858 86.7619 116.036 86.7078 116.218 86.6576C117.886 86.1482 119.645 85.6275 121.466 85.0989C124.823 84.1156 128.296 83.1316 131.787 82.174C131.798 82.17 131.809 82.1674 131.82 82.1641V82.1634C134.919 81.3101 138.054 80.472 141.139 79.6735C143.895 78.9548 146.466 78.3002 149 77.6719C150.677 77.2528 152.384 76.8355 154.122 76.42C158.15 75.4393 162.355 74.4586 166.616 73.5057C170.183 72.7058 173.721 71.9363 177.131 71.2196C190.487 68.407 204.187 65.8656 217.85 63.6653C318.238 47.4928 475.314 40.0915 653.53 96.6801C653.683 96.7287 653.814 96.8307 653.899 96.9677C653.983 97.1048 654.017 97.2677 653.992 97.4272C653.968 97.5867 653.887 97.7321 653.765 97.8372C653.643 97.9422 653.488 98 653.327 98V98Z" fill="#CCCCCC"/>
<path d="M659.199 419.886L80.8029 420C80.6975 420 80.593 419.989 80.4956 419.966C80.3982 419.944 80.3097 419.911 80.2352 419.87C80.1606 419.829 80.1015 419.78 80.0611 419.727C80.0208 419.673 80 419.615 80 419.557C80 419.499 80.0208 419.441 80.0611 419.388C80.1015 419.334 80.1606 419.285 80.2352 419.244C80.3097 419.203 80.3982 419.17 80.4956 419.148C80.593 419.126 80.6975 419.114 80.8029 419.114L659.199 419C659.412 419 659.616 419.047 659.766 419.13C659.916 419.213 660 419.326 660 419.443C660 419.56 659.916 419.673 659.766 419.756C659.616 419.839 659.412 419.885 659.199 419.886V419.886Z" fill="#CACACA"/>
<path d="M416 1.72291L417.093 5.32748L417.201 5.68237H417.572H421.201L418.236 7.99071L417.965 8.20168L418.064 8.53036L419.179 12.2058L416.307 9.9702L416 9.73111L415.693 9.9702L412.821 12.2058L413.936 8.53036L414.035 8.20168L413.764 7.99071L410.799 5.68237H414.428H414.799L414.907 5.32748L416 1.72291Z" stroke="black"/>
<path d="M700.5 9.75161L701.256 12.2886L701.362 12.6459H701.735H704.295L702.187 14.3164L701.922 14.5266L702.019 14.8509L702.801 17.4777L700.811 15.8999L700.5 15.6538L700.189 15.8999L698.199 17.4777L698.981 14.8509L699.078 14.5266L698.813 14.3164L696.705 12.6459H699.265H699.638L699.744 12.2886L700.5 9.75161Z" stroke="black"/>
<path d="M642 137.503L643.511 142.577L643.724 143.292H644.47H649.59L645.375 146.633L644.844 147.053L645.038 147.702L646.602 152.955L642.621 149.8L642 149.308L641.379 149.8L637.398 152.955L638.962 147.702L639.156 147.053L638.625 146.633L634.41 143.292H639.53H640.276L640.489 142.577L642 137.503Z" stroke="black" stroke-width="2"/>
<path d="M9.5 281.546L10.6735 285.537L10.8845 286.255H11.6329H15.6926L12.3249 288.96L11.8028 289.379L11.9917 290.021L13.226 294.22L10.1261 291.731L9.5 291.228L8.87387 291.731L5.77398 294.22L7.00833 290.021L7.19719 289.379L6.67505 288.96L3.30737 286.255H7.36712H8.11546L8.32652 285.537L9.5 281.546Z" stroke="black" stroke-width="2"/>
<path d="M205.031 278.705L200.608 282.321" stroke="black" stroke-width="2" stroke-linecap="round"/>
<path d="M202.422 276.264L196.87 280.772" stroke="black" stroke-width="2" stroke-linecap="round"/>
<path d="M200.227 274.107L194.23 279.29" stroke="black" stroke-width="2" stroke-linecap="round"/>
<path d="M776.854 358.855L770.092 364.382" stroke="black" stroke-width="2" stroke-linecap="round"/>
<path d="M772.865 355.125L764.378 362.016" stroke="black" stroke-width="2" stroke-linecap="round"/>
<path d="M769.51 351.828L760.345 359.75" stroke="black" stroke-width="2" stroke-linecap="round"/>
<path d="M227.42 123C226.903 123.593 224.833 127.45 223.863 129.304" stroke="black" stroke-width="2" stroke-linecap="round"/>
<path d="M231.543 127.896C231.018 128.143 228.444 130.318 227.223 131.374" stroke="black" stroke-width="2" stroke-linecap="round"/>
<path d="M237.488 133.605C236.615 133.522 231.499 134.312 229.051 134.717" stroke="black" stroke-width="2" stroke-linecap="round"/>
</svg>
