<svg xmlns="http://www.w3.org/2000/svg"  viewBox="0 0 48 48" width="48px" height="48px"><path d="M31,45H17c-2.761,0-5-2.239-5-5V8c0-2.761,2.239-5,5-5h14c2.761,0,5,2.239,5,5v32C36,42.761,33.761,45,31,45z M32,24V9 c0-1.105-0.895-2-2-2H18c-1.105,0-2,0.895-2,2v15c0,1.105,0.895,2,2,2h12C31.105,26,32,25.105,32,24z M16,32.5 c0,0.83,0.67,1.5,1.5,1.5H20v-3h-2.5C16.67,31,16,31.67,16,32.5z M22,34h4v-3h-4V34z M30.5,31H28v3h2.5c0.83,0,1.5-0.67,1.5-1.5 C32,31.67,31.33,31,30.5,31z M16,38.5c0,0.83,0.67,1.5,1.5,1.5H20v-3h-2.5C16.67,37,16,37.67,16,38.5z M22,40h4v-3h-4V40z M30.5,37 H28v3h2.5c0.83,0,1.5-0.67,1.5-1.5C32,37.67,31.33,37,30.5,37z"/></svg>