<svg width="737" height="460" viewBox="0 0 737 460" fill="none" xmlns="http://www.w3.org/2000/svg">
<g clip-path="url(#clip0_0_3)">
<rect width="1440" height="10130" transform="translate(-56 -5437)" fill="white"/>
<path d="M732 373.934L733.089 378.003L733.188 378.373H733.572L737.335 378.373L734.212 381.128L733.98 381.333L734.06 381.633L735.203 385.906L732.331 383.372L732 383.08L731.669 383.372L728.797 385.906L729.94 381.633L730.02 381.333L729.788 381.128L726.665 378.373L730.428 378.373H730.812L730.911 378.003L732 373.934Z" stroke="black"/>
<path d="M124 11.9343L125.089 16.0026L125.188 16.3734H125.572L129.335 16.3734L126.212 19.1283L125.98 19.3333L126.06 19.6325L127.203 23.9061L124.331 21.3718L124 21.0799L123.669 21.3718L120.797 23.9061L121.94 19.6325L122.02 19.3333L121.788 19.1283L118.665 16.3734L122.428 16.3734H122.812L122.911 16.0026L124 11.9343Z" stroke="black"/>
<path d="M590 444.934L591.089 449.003L591.188 449.373H591.572L595.335 449.373L592.212 452.128L591.98 452.333L592.06 452.633L593.203 456.906L590.331 454.372L590 454.08L589.669 454.372L586.797 456.906L587.94 452.633L588.02 452.333L587.788 452.128L584.665 449.373L588.428 449.373H588.812L588.911 449.003L590 444.934Z" stroke="black"/>
<g filter="url(#filter0_i_0_3)">
<path d="M516.9 394.763C500.829 455.25 419.044 464.906 389.328 409.825L381.021 394.426C368.201 370.663 341.916 357.423 315.19 361.265C251.582 370.411 215.295 290.968 263.855 248.879L290.186 226.056L287.505 221.085C245.914 143.992 316.511 54.4755 401.174 76.9533L407 78.5L453.949 49.023C519.189 8.06236 604.296 53.1457 607.058 130.129L609.366 194.444C610.055 213.645 622.052 230.614 639.925 237.667C683.9 255.019 679.376 318.675 633.389 329.634L567.654 345.299C542.924 351.193 523.428 370.193 516.9 394.763Z" fill="#006BFF"/>
</g>
<path d="M333.824 224.945L335.338 223.633L334.387 221.869L331.705 216.898C291.154 141.733 359.986 54.4537 442.533 76.3696L448.358 77.9163L449.409 78.1952L450.329 77.6173L497.279 48.1403C560.888 8.20367 643.867 52.16 646.56 127.218L648.867 191.534C649.592 211.728 662.21 229.575 681.007 236.992C722.707 253.447 718.418 313.81 674.81 324.202L609.075 339.868C583.449 345.974 563.249 365.662 556.484 391.121C540.994 449.42 462.169 458.726 433.529 405.638L425.221 390.239C411.903 365.553 384.598 351.799 356.834 355.791C295.696 364.582 260.818 288.223 307.493 247.768L333.824 224.945Z" stroke="#2BD8F5" stroke-width="5"/>
<g filter="url(#filter1_i_0_3)">
<path d="M152.078 54.6221C175.269 -16.3263 275.731 -16.3263 298.922 54.6221C309.262 86.2561 338.781 107.689 372.062 107.689C446.705 107.689 477.619 203.296 417.108 246.998L372.366 279.311C400.972 366.826 300.141 439.285 225.5 385.379L179.228 418.797C118.919 462.352 38.1206 403.254 61.2339 332.543C71.5957 300.843 60.2868 266.06 33.2502 246.534C-27.0595 202.978 4.39301 107.689 78.7866 107.689C112.068 107.689 141.738 86.2561 152.078 54.6221Z" fill="#2BD8F5"/>
</g>
<path d="M41.5 447.752L42.2556 450.289L42.362 450.646H42.7348H45.295L43.1874 452.316L42.9222 452.527L43.0188 452.851L43.8011 455.478L41.8106 453.9L41.5 453.654L41.1894 453.9L39.1989 455.478L39.9812 452.851L40.0778 452.527L39.8126 452.316L37.705 450.646H40.2652H40.638L40.7444 450.289L41.5 447.752Z" stroke="#2BD8F5"/>
<g filter="url(#filter2_i_0_3)">
<rect x="47" y="74" width="425" height="279" rx="20" fill="#006BFF"/>
<g filter="url(#filter3_i_0_3)">
<rect x="96" y="198" width="87" height="77" rx="10" fill="white"/>
<rect x="96" y="198" width="87" height="77" rx="10" fill="#2BD8F5"/>
</g>
<rect width="87" height="6" rx="3" transform="matrix(1 0 0 -1 96 296)" fill="white"/>
<rect width="87" height="6" rx="3" transform="matrix(1 0 0 -1 96 296)" fill="white"/>
<rect width="87" height="6" rx="3" transform="matrix(1 0 0 -1 96 296)" fill="white"/>
<rect width="87" height="6" rx="3" transform="matrix(1 0 0 -1 96 307)" fill="white"/>
<rect width="87" height="6" rx="3" transform="matrix(1 0 0 -1 96 307)" fill="white"/>
<rect width="87" height="6" rx="3" transform="matrix(1 0 0 -1 96 307)" fill="white"/>
<rect width="103" height="3" rx="1.5" transform="matrix(1 0 0 -1 219 207)" fill="white"/>
<rect width="103" height="3" rx="1.5" transform="matrix(1 0 0 -1 219 207)" fill="white"/>
<rect width="103" height="3" rx="1.5" transform="matrix(1 0 0 -1 219 207)" fill="white"/>
<rect width="97" height="3" rx="1.5" transform="matrix(1 0 0 -1 219 218)" fill="white"/>
<rect width="97" height="3" rx="1.5" transform="matrix(1 0 0 -1 219 218)" fill="white"/>
<rect width="97" height="3" rx="1.5" transform="matrix(1 0 0 -1 219 218)" fill="white"/>
<rect width="93" height="3" rx="1.5" transform="matrix(1 0 0 -1 219 229)" fill="white"/>
<rect width="93" height="3" rx="1.5" transform="matrix(1 0 0 -1 219 229)" fill="white"/>
<rect width="93" height="3" rx="1.5" transform="matrix(1 0 0 -1 219 229)" fill="white"/>
<rect width="54" height="3" rx="1.5" transform="matrix(1 0 0 -1 219 240)" fill="white"/>
<rect width="54" height="3" rx="1.5" transform="matrix(1 0 0 -1 219 240)" fill="white"/>
<rect width="54" height="3" rx="1.5" transform="matrix(1 0 0 -1 219 240)" fill="white"/>
<rect width="103" height="3" rx="1.5" transform="matrix(1 0 0 -1 329 248)" fill="white"/>
<rect width="103" height="3" rx="1.5" transform="matrix(1 0 0 -1 329 248)" fill="white"/>
<rect width="103" height="3" rx="1.5" transform="matrix(1 0 0 -1 329 248)" fill="white"/>
<rect width="97" height="3" rx="1.5" transform="matrix(1 0 0 -1 329 259)" fill="white"/>
<rect width="97" height="3" rx="1.5" transform="matrix(1 0 0 -1 329 259)" fill="white"/>
<rect width="97" height="3" rx="1.5" transform="matrix(1 0 0 -1 329 259)" fill="white"/>
<rect width="93" height="3" rx="1.5" transform="matrix(1 0 0 -1 329 270)" fill="white"/>
<rect width="93" height="3" rx="1.5" transform="matrix(1 0 0 -1 329 270)" fill="white"/>
<rect width="93" height="3" rx="1.5" transform="matrix(1 0 0 -1 329 270)" fill="white"/>
<rect width="54" height="3" rx="1.5" transform="matrix(1 0 0 -1 329 281)" fill="white"/>
<rect width="54" height="3" rx="1.5" transform="matrix(1 0 0 -1 329 281)" fill="white"/>
<rect width="54" height="3" rx="1.5" transform="matrix(1 0 0 -1 329 281)" fill="white"/>
<rect x="89" y="99" width="340" height="78" rx="10" fill="white"/>
<g filter="url(#filter4_i_0_3)">
<rect x="139" y="126" width="29" height="29" rx="14.5" fill="white"/>
<rect x="139" y="126" width="29" height="29" rx="14.5" fill="white"/>
<rect x="139" y="126" width="29" height="29" rx="14.5" fill="url(#paint0_linear_0_3)"/>
</g>
<g filter="url(#filter5_i_0_3)">
<rect x="216" y="126" width="29" height="29" rx="14.5" fill="white"/>
<rect x="216" y="126" width="29" height="29" rx="14.5" fill="url(#paint1_linear_0_3)"/>
</g>
<g filter="url(#filter6_d_0_3)">
<path d="M224 313C224 307.477 228.477 303 234 303H422C427.523 303 432 307.477 432 313V328H224V313Z" fill="#2AD0EC"/>
</g>
<path d="M332.753 140.753C332.616 140.889 332.616 141.111 332.753 141.247L334.98 143.475C335.117 143.612 335.338 143.612 335.475 143.475C335.612 143.338 335.612 143.117 335.475 142.98L333.495 141L335.475 139.02C335.612 138.883 335.612 138.662 335.475 138.525C335.338 138.388 335.117 138.388 334.98 138.525L332.753 140.753ZM371.247 141.247C371.384 141.111 371.384 140.889 371.247 140.753L369.02 138.525C368.883 138.388 368.662 138.388 368.525 138.525C368.388 138.662 368.388 138.883 368.525 139.02L370.505 141L368.525 142.98C368.388 143.117 368.388 143.338 368.525 143.475C368.662 143.612 368.883 143.612 369.02 143.475L371.247 141.247ZM333 141.35H371V140.65H333V141.35Z" fill="#0C31D8"/>
<path d="M200.25 130H183.75C182.229 130 181 131.229 181 132.75V143.75C181 145.271 182.229 146.5 183.75 146.5H189.25L187.415 152L195.665 146.5H200.25C201.771 146.5 203 145.271 203 143.75V132.75C203 131.229 201.771 130 200.25 130ZM186.5 140.085C185.486 140.085 184.665 139.264 184.665 138.25C184.665 137.236 185.486 136.415 186.5 136.415C187.514 136.415 188.335 137.236 188.335 138.25C188.335 139.264 187.514 140.085 186.5 140.085ZM192 140.085C190.986 140.085 190.165 139.264 190.165 138.25C190.165 137.236 190.986 136.415 192 136.415C193.014 136.415 193.835 137.236 193.835 138.25C193.835 139.264 193.014 140.085 192 140.085ZM197.5 140.085C196.486 140.085 195.665 139.264 195.665 138.25C195.665 137.236 196.486 136.415 197.5 136.415C198.514 136.415 199.335 137.236 199.335 138.25C199.335 139.264 198.514 140.085 197.5 140.085Z" fill="#2BD8F5"/>
<path d="M154.138 139.438C153.713 139.331 153.288 139.119 152.969 138.8C152.65 138.694 152.544 138.375 152.544 138.163C152.544 137.95 152.65 137.631 152.862 137.525C153.181 137.312 153.5 137.1 153.819 137.206C154.456 137.206 154.988 137.525 155.306 137.95L156.263 136.675C155.944 136.356 155.625 136.144 155.306 135.931C154.988 135.719 154.563 135.613 154.138 135.613V134.125H152.862V135.613C152.331 135.719 151.8 136.037 151.375 136.462C150.95 136.994 150.631 137.631 150.738 138.269C150.738 138.906 150.95 139.544 151.375 139.969C151.906 140.5 152.65 140.819 153.288 141.138C153.606 141.244 154.031 141.456 154.35 141.669C154.562 141.881 154.669 142.2 154.669 142.519C154.669 142.837 154.562 143.156 154.35 143.475C154.031 143.794 153.606 143.9 153.288 143.9C152.863 143.9 152.331 143.794 152.013 143.475C151.694 143.263 151.375 142.944 151.163 142.625L150.1 143.794C150.419 144.219 150.738 144.538 151.163 144.856C151.694 145.175 152.331 145.494 152.969 145.494V146.875H154.138V145.281C154.775 145.175 155.306 144.856 155.731 144.431C156.263 143.9 156.581 143.05 156.581 142.306C156.581 141.669 156.369 140.925 155.837 140.5C155.306 139.969 154.775 139.65 154.138 139.438ZM153.5 132C148.825 132 145 135.825 145 140.5C145 145.175 148.825 149 153.5 149C158.175 149 162 145.175 162 140.5C162 135.825 158.175 132 153.5 132ZM153.5 147.831C149.463 147.831 146.169 144.538 146.169 140.5C146.169 136.463 149.463 133.169 153.5 133.169C157.538 133.169 160.831 136.463 160.831 140.5C160.831 144.538 157.538 147.831 153.5 147.831Z" fill="white"/>
<path d="M224 137.429C224 137.05 224.151 136.686 224.418 136.418C224.686 136.151 225.05 136 225.429 136H236.857C237.236 136 237.599 136.151 237.867 136.418C238.135 136.686 238.286 137.05 238.286 137.429V144.571C238.286 144.95 238.135 145.314 237.867 145.582C237.599 145.849 237.236 146 236.857 146H225.429C225.05 146 224.686 145.849 224.418 145.582C224.151 145.314 224 144.95 224 144.571V137.429Z" stroke="white" stroke-width="2" stroke-linecap="round" stroke-linejoin="round"/>
<path d="M231.143 143.143C232.326 143.143 233.286 142.183 233.286 141C233.286 139.816 232.326 138.857 231.143 138.857C229.959 138.857 229 139.816 229 141C229 142.183 229.959 143.143 231.143 143.143Z" stroke="white" stroke-width="2" stroke-linecap="round" stroke-linejoin="round"/>
<path d="M224 138.857C224.758 138.857 225.484 138.556 226.02 138.02C226.556 137.484 226.857 136.758 226.857 136" stroke="white" stroke-width="2" stroke-linecap="round" stroke-linejoin="round"/>
<path d="M235.428 146C235.428 145.243 235.729 144.516 236.264 143.98C236.8 143.444 237.527 143.143 238.285 143.143" stroke="white" stroke-width="2" stroke-linecap="round" stroke-linejoin="round"/>
</g>
<path d="M1634.12 649.392C1648.55 649.392 1662.11 656.164 1671.14 667.876L1745.66 764.486C1745.66 764.487 1745.66 764.487 1745.66 764.487C1745.66 764.487 1745.66 764.488 1745.66 764.489L1209.83 1240.4C1191.27 1256.89 1164.34 1256.77 1146.47 1240.13L608.84 739.558C575.39 708.413 597.228 649.391 642.202 649.391L1634.12 649.392Z" fill="#006BFF"/>
</g>
<defs>
<filter id="filter0_i_0_3" x="241.417" y="33.5716" width="429.103" height="416.554" filterUnits="userSpaceOnUse" color-interpolation-filters="sRGB">
<feFlood flood-opacity="0" result="BackgroundImageFix"/>
<feBlend mode="normal" in="SourceGraphic" in2="BackgroundImageFix" result="shape"/>
<feColorMatrix in="SourceAlpha" type="matrix" values="0 0 0 0 0 0 0 0 0 0 0 0 0 0 0 0 0 0 127 0" result="hardAlpha"/>
<feOffset dy="4"/>
<feGaussianBlur stdDeviation="15"/>
<feComposite in2="hardAlpha" operator="arithmetic" k2="-1" k3="1"/>
<feColorMatrix type="matrix" values="0 0 0 0 0 0 0 0 0 0 0 0 0 0 0 0 0 0 0.1 0"/>
<feBlend mode="normal" in2="shape" result="effect1_innerShadow_0_3"/>
</filter>
<filter id="filter1_i_0_3" x="1.51178" y="1.4108" width="447.635" height="436.268" filterUnits="userSpaceOnUse" color-interpolation-filters="sRGB">
<feFlood flood-opacity="0" result="BackgroundImageFix"/>
<feBlend mode="normal" in="SourceGraphic" in2="BackgroundImageFix" result="shape"/>
<feColorMatrix in="SourceAlpha" type="matrix" values="0 0 0 0 0 0 0 0 0 0 0 0 0 0 0 0 0 0 127 0" result="hardAlpha"/>
<feOffset dy="4"/>
<feGaussianBlur stdDeviation="15"/>
<feComposite in2="hardAlpha" operator="arithmetic" k2="-1" k3="1"/>
<feColorMatrix type="matrix" values="0 0 0 0 0 0 0 0 0 0 0 0 0 0 0 0 0 0 0.15 0"/>
<feBlend mode="normal" in2="shape" result="effect1_innerShadow_0_3"/>
</filter>
<filter id="filter2_i_0_3" x="47" y="74" width="425" height="283" filterUnits="userSpaceOnUse" color-interpolation-filters="sRGB">
<feFlood flood-opacity="0" result="BackgroundImageFix"/>
<feBlend mode="normal" in="SourceGraphic" in2="BackgroundImageFix" result="shape"/>
<feColorMatrix in="SourceAlpha" type="matrix" values="0 0 0 0 0 0 0 0 0 0 0 0 0 0 0 0 0 0 127 0" result="hardAlpha"/>
<feOffset dy="4"/>
<feGaussianBlur stdDeviation="25"/>
<feComposite in2="hardAlpha" operator="arithmetic" k2="-1" k3="1"/>
<feColorMatrix type="matrix" values="0 0 0 0 0 0 0 0 0 0 0 0 0 0 0 0 0 0 0.25 0"/>
<feBlend mode="normal" in2="shape" result="effect1_innerShadow_0_3"/>
</filter>
<filter id="filter3_i_0_3" x="96" y="198" width="88" height="83" filterUnits="userSpaceOnUse" color-interpolation-filters="sRGB">
<feFlood flood-opacity="0" result="BackgroundImageFix"/>
<feBlend mode="normal" in="SourceGraphic" in2="BackgroundImageFix" result="shape"/>
<feColorMatrix in="SourceAlpha" type="matrix" values="0 0 0 0 0 0 0 0 0 0 0 0 0 0 0 0 0 0 127 0" result="hardAlpha"/>
<feOffset dx="1" dy="6"/>
<feGaussianBlur stdDeviation="5"/>
<feComposite in2="hardAlpha" operator="arithmetic" k2="-1" k3="1"/>
<feColorMatrix type="matrix" values="0 0 0 0 0 0 0 0 0 0 0 0 0 0 0 0 0 0 0.15 0"/>
<feBlend mode="normal" in2="shape" result="effect1_innerShadow_0_3"/>
</filter>
<filter id="filter4_i_0_3" x="139" y="126" width="29" height="33" filterUnits="userSpaceOnUse" color-interpolation-filters="sRGB">
<feFlood flood-opacity="0" result="BackgroundImageFix"/>
<feBlend mode="normal" in="SourceGraphic" in2="BackgroundImageFix" result="shape"/>
<feColorMatrix in="SourceAlpha" type="matrix" values="0 0 0 0 0 0 0 0 0 0 0 0 0 0 0 0 0 0 127 0" result="hardAlpha"/>
<feOffset dy="4"/>
<feGaussianBlur stdDeviation="2"/>
<feComposite in2="hardAlpha" operator="arithmetic" k2="-1" k3="1"/>
<feColorMatrix type="matrix" values="0 0 0 0 0 0 0 0 0 0 0 0 0 0 0 0 0 0 0.25 0"/>
<feBlend mode="normal" in2="shape" result="effect1_innerShadow_0_3"/>
</filter>
<filter id="filter5_i_0_3" x="216" y="126" width="29" height="33" filterUnits="userSpaceOnUse" color-interpolation-filters="sRGB">
<feFlood flood-opacity="0" result="BackgroundImageFix"/>
<feBlend mode="normal" in="SourceGraphic" in2="BackgroundImageFix" result="shape"/>
<feColorMatrix in="SourceAlpha" type="matrix" values="0 0 0 0 0 0 0 0 0 0 0 0 0 0 0 0 0 0 127 0" result="hardAlpha"/>
<feOffset dy="4"/>
<feGaussianBlur stdDeviation="2"/>
<feComposite in2="hardAlpha" operator="arithmetic" k2="-1" k3="1"/>
<feColorMatrix type="matrix" values="0 0 0 0 0 0 0 0 0 0 0 0 0 0 0 0 0 0 0.25 0"/>
<feBlend mode="normal" in2="shape" result="effect1_innerShadow_0_3"/>
</filter>
<filter id="filter6_d_0_3" x="220" y="303" width="216" height="33" filterUnits="userSpaceOnUse" color-interpolation-filters="sRGB">
<feFlood flood-opacity="0" result="BackgroundImageFix"/>
<feColorMatrix in="SourceAlpha" type="matrix" values="0 0 0 0 0 0 0 0 0 0 0 0 0 0 0 0 0 0 127 0" result="hardAlpha"/>
<feOffset dy="4"/>
<feGaussianBlur stdDeviation="2"/>
<feComposite in2="hardAlpha" operator="out"/>
<feColorMatrix type="matrix" values="0 0 0 0 0 0 0 0 0 0 0 0 0 0 0 0 0 0 0.25 0"/>
<feBlend mode="normal" in2="BackgroundImageFix" result="effect1_dropShadow_0_3"/>
<feBlend mode="normal" in="SourceGraphic" in2="effect1_dropShadow_0_3" result="shape"/>
</filter>
<linearGradient id="paint0_linear_0_3" x1="141.5" y1="126" x2="153.5" y2="155" gradientUnits="userSpaceOnUse">
<stop stop-color="#BA8FE7"/>
<stop offset="1" stop-color="#B166FF"/>
</linearGradient>
<linearGradient id="paint1_linear_0_3" x1="218.5" y1="126" x2="236" y2="155" gradientUnits="userSpaceOnUse">
<stop stop-color="#2D6EFD"/>
<stop offset="1" stop-color="#5489FF"/>
</linearGradient>
<clipPath id="clip0_0_3">
<rect width="1440" height="10130" fill="white" transform="translate(-56 -5437)"/>
</clipPath>
</defs>
</svg>
