<svg width="408" height="361" viewBox="0 0 408 361" fill="none" xmlns="http://www.w3.org/2000/svg">
<g clip-path="url(#clip0_12_2281)">
<rect width="760" height="6888" transform="translate(0 -3432)" fill="white"/>
<g filter="url(#filter0_i_12_2281)">
<path d="M300.377 283.247C295.469 331.942 233.52 349.539 203.746 310.695L195.422 299.836C182.577 283.078 160.641 276.115 140.482 282.396C92.5041 297.345 54.635 240.506 86.9094 201.987L104.41 181.1C61.7191 125.406 106.483 45.6618 176.305 52.686L195.864 35.535C246.947 -9.25758 327.363 18.0984 340.534 84.749L346.93 117.113C349.843 131.853 361.211 143.467 375.885 146.696C411.99 154.641 416.391 204.351 382.243 218.515L333.431 238.762C315.067 246.379 302.371 263.466 300.377 283.247Z" fill="#006BFF"/>
</g>
<path d="M338.475 240.845L336.472 240.894L336.083 242.86L335.575 245.428C322.818 309.962 240.123 329.631 199.677 277.751L199.083 276.99L198.132 276.825L174.749 272.777C112.281 261.961 83.632 188.675 122.203 138.361L142.471 111.921C151.769 99.7923 152.999 83.3077 145.605 69.9331C129.777 41.3051 160.225 9.32308 189.596 23.7271L234.717 45.8556C252.518 54.5858 273.676 52.8338 289.799 41.2945C325.806 15.5234 374.784 47.0817 366.197 90.5208L363.674 103.286C359.577 124.013 368.847 145.096 386.891 156.087C425.576 179.65 409.664 239.12 364.382 240.218L338.475 240.845Z" stroke="#2BD8F5" stroke-width="5"/>
<g filter="url(#filter1_i_12_2281)">
<path d="M30.3466 43.5979C49.6073 -13.1569 130.262 -12.2173 148.196 44.9709C156.197 70.487 179.709 87.983 206.449 88.2945C266.378 88.9927 290.327 166.028 241.357 200.581L205.03 226.213C227.161 296.788 145.599 354.115 86.1746 310.077L48.8906 336.384C0.0463498 370.848 -64.3558 322.654 -45.1448 266.046C-36.5373 240.682 -45.2902 212.65 -66.8094 196.703C-114.838 161.11 -88.7689 84.8552 -28.9935 85.5516C-2.2541 85.8631 21.7529 68.9207 30.3466 43.5979Z" fill="#2BD8F5"/>
</g>
<g filter="url(#filter2_i_12_2281)">
<rect x="28" y="34" width="297" height="248" rx="20" fill="#006BFF"/>
<g filter="url(#filter3_i_12_2281)">
<rect x="39" y="135" width="80" height="71" rx="10" fill="white"/>
<rect x="39" y="135" width="80" height="71" rx="10" fill="#2BD8F5"/>
</g>
<rect width="80" height="6" rx="3" transform="matrix(1 0 0 -1 39 225)" fill="white"/>
<rect width="80" height="6" rx="3" transform="matrix(1 0 0 -1 39 225)" fill="white"/>
<rect width="80" height="6" rx="3" transform="matrix(1 0 0 -1 39 225)" fill="white"/>
<rect width="80" height="6" rx="3" transform="matrix(1 0 0 -1 39 235)" fill="white"/>
<rect width="80" height="6" rx="3" transform="matrix(1 0 0 -1 39 235)" fill="white"/>
<rect width="80" height="6" rx="3" transform="matrix(1 0 0 -1 39 235)" fill="white"/>
<rect width="79" height="3" rx="1.5" transform="matrix(1 0 0 -1 139 144)" fill="white"/>
<rect width="79" height="3" rx="1.5" transform="matrix(1 0 0 -1 139 144)" fill="white"/>
<rect width="79" height="3" rx="1.5" transform="matrix(1 0 0 -1 139 144)" fill="white"/>
<rect width="74" height="3" rx="1.5" transform="matrix(1 0 0 -1 139 155)" fill="white"/>
<rect width="74" height="3" rx="1.5" transform="matrix(1 0 0 -1 139 155)" fill="white"/>
<rect width="74" height="3" rx="1.5" transform="matrix(1 0 0 -1 139 155)" fill="white"/>
<rect width="71" height="3" rx="1.5" transform="matrix(1 0 0 -1 139 166)" fill="white"/>
<rect width="71" height="3" rx="1.5" transform="matrix(1 0 0 -1 139 166)" fill="white"/>
<rect width="71" height="3" rx="1.5" transform="matrix(1 0 0 -1 139 166)" fill="white"/>
<rect width="41" height="3" rx="1.5" transform="matrix(1 0 0 -1 139 177)" fill="white"/>
<rect width="41" height="3" rx="1.5" transform="matrix(1 0 0 -1 139 177)" fill="white"/>
<rect width="41" height="3" rx="1.5" transform="matrix(1 0 0 -1 139 177)" fill="white"/>
<rect width="83" height="3" rx="1.5" transform="matrix(1 0 0 -1 230 185)" fill="white"/>
<rect width="83" height="3" rx="1.5" transform="matrix(1 0 0 -1 230 185)" fill="white"/>
<rect width="83" height="3" rx="1.5" transform="matrix(1 0 0 -1 230 185)" fill="white"/>
<rect width="78" height="3" rx="1.5" transform="matrix(1 0 0 -1 230 196)" fill="white"/>
<rect width="78" height="3" rx="1.5" transform="matrix(1 0 0 -1 230 196)" fill="white"/>
<rect width="78" height="3" rx="1.5" transform="matrix(1 0 0 -1 230 196)" fill="white"/>
<rect width="75" height="3" rx="1.5" transform="matrix(1 0 0 -1 230 207)" fill="white"/>
<rect width="75" height="3" rx="1.5" transform="matrix(1 0 0 -1 230 207)" fill="white"/>
<rect width="75" height="3" rx="1.5" transform="matrix(1 0 0 -1 230 207)" fill="white"/>
<rect width="44" height="3" rx="1.5" transform="matrix(1 0 0 -1 230 218)" fill="white"/>
<rect width="44" height="3" rx="1.5" transform="matrix(1 0 0 -1 230 218)" fill="white"/>
<rect width="44" height="3" rx="1.5" transform="matrix(1 0 0 -1 230 218)" fill="white"/>
<rect x="37" y="47" width="278" height="73" rx="10" fill="white"/>
<g filter="url(#filter4_i_12_2281)">
<rect x="60" y="71" width="29" height="29" rx="14.5" fill="white"/>
<rect x="60" y="71" width="29" height="29" rx="14.5" fill="white"/>
<rect x="60" y="71" width="29" height="29" rx="14.5" fill="url(#paint0_linear_12_2281)"/>
</g>
<g filter="url(#filter5_i_12_2281)">
<rect x="137" y="71" width="29" height="29" rx="14.5" fill="white"/>
<rect x="137" y="71" width="29" height="29" rx="14.5" fill="url(#paint1_linear_12_2281)"/>
</g>
<g filter="url(#filter6_d_12_2281)">
<path d="M139 251C139 245.477 143.477 241 149 241H221C226.523 241 231 245.477 231 251V266H139V251Z" fill="#2AD0EC"/>
</g>
<path d="M227.753 88.7525C227.616 88.8892 227.616 89.1108 227.753 89.2475L229.98 91.4749C230.117 91.6116 230.338 91.6116 230.475 91.4749C230.612 91.3382 230.612 91.1166 230.475 90.9799L228.495 89L230.475 87.0201C230.612 86.8834 230.612 86.6618 230.475 86.5251C230.338 86.3884 230.117 86.3884 229.98 86.5251L227.753 88.7525ZM266.247 89.2475C266.384 89.1108 266.384 88.8892 266.247 88.7525L264.02 86.5251C263.883 86.3884 263.662 86.3884 263.525 86.5251C263.388 86.6618 263.388 86.8834 263.525 87.0201L265.505 89L263.525 90.9799C263.388 91.1166 263.388 91.3382 263.525 91.4749C263.662 91.6116 263.883 91.6116 264.02 91.4749L266.247 89.2475ZM228 89.35H266V88.65H228V89.35Z" fill="#0C31D8"/>
<path d="M121.25 75H104.75C103.229 75 102 76.2289 102 77.75V88.75C102 90.2711 103.229 91.5 104.75 91.5H110.25L108.415 97L116.665 91.5H121.25C122.771 91.5 124 90.2711 124 88.75V77.75C124 76.2289 122.771 75 121.25 75ZM107.5 85.0848C106.486 85.0848 105.665 84.2641 105.665 83.25C105.665 82.2359 106.486 81.4152 107.5 81.4152C108.514 81.4152 109.335 82.2359 109.335 83.25C109.335 84.2641 108.514 85.0848 107.5 85.0848ZM113 85.0848C111.986 85.0848 111.165 84.2641 111.165 83.25C111.165 82.2359 111.986 81.4152 113 81.4152C114.014 81.4152 114.835 82.2359 114.835 83.25C114.835 84.2641 114.014 85.0848 113 85.0848ZM118.5 85.0848C117.486 85.0848 116.665 84.2641 116.665 83.25C116.665 82.2359 117.486 81.4152 118.5 81.4152C119.514 81.4152 120.335 82.2359 120.335 83.25C120.335 84.2641 119.514 85.0848 118.5 85.0848Z" fill="#2BD8F5"/>
<path d="M74.8508 84.5549C74.4736 84.4613 74.0965 84.2741 73.8136 83.9933C73.5308 83.8998 73.4365 83.619 73.4365 83.4318C73.4365 83.2447 73.5308 82.9639 73.7193 82.8703C74.0022 82.6832 74.285 82.496 74.5679 82.5896C75.1336 82.5896 75.6051 82.8703 75.8879 83.2447L76.7365 82.1216C76.4536 81.8409 76.1708 81.6537 75.8879 81.4665C75.6051 81.2794 75.2279 81.1858 74.8508 81.1858V79.8756H73.7193V81.1858C73.2479 81.2794 72.7765 81.5601 72.3993 81.9345C72.0222 82.4024 71.7393 82.9639 71.8336 83.5254C71.8336 84.0869 72.0222 84.6484 72.3993 85.0228C72.8708 85.4907 73.5308 85.7715 74.0965 86.0522C74.3793 86.1458 74.7565 86.333 75.0393 86.5201C75.2279 86.7073 75.3222 86.9881 75.3222 87.2688C75.3222 87.5496 75.2279 87.8303 75.0393 88.1111C74.7565 88.3918 74.3793 88.4854 74.0965 88.4854C73.7193 88.4854 73.2479 88.3918 72.965 88.1111C72.6822 87.9239 72.3993 87.6432 72.2108 87.3624L71.2679 88.3918C71.5508 88.7662 71.8336 89.0469 72.2108 89.3277C72.6822 89.6084 73.2479 89.8892 73.8136 89.8892V91.1058H74.8508V89.702C75.4165 89.6084 75.8879 89.3277 76.2651 88.9533C76.7365 88.4854 77.0193 87.7367 77.0193 87.0816C77.0193 86.5201 76.8308 85.865 76.3593 85.4907C75.8879 85.0228 75.4165 84.742 74.8508 84.5549ZM74.285 78.0039C70.1365 78.0039 66.7422 81.373 66.7422 85.4907C66.7422 89.6084 70.1365 92.9775 74.285 92.9775C78.4336 92.9775 81.8279 89.6084 81.8279 85.4907C81.8279 81.373 78.4336 78.0039 74.285 78.0039ZM74.285 91.9481C70.7022 91.9481 67.7793 89.0469 67.7793 85.4907C67.7793 81.9345 70.7022 79.0333 74.285 79.0333C77.8679 79.0333 80.7908 81.9345 80.7908 85.4907C80.7908 89.0469 77.8679 91.9481 74.285 91.9481Z" fill="white"/>
<path d="M145.742 81.5504C145.742 81.1402 145.87 80.7469 146.098 80.4569C146.326 80.1668 146.636 80.0039 146.958 80.0039H156.684C157.007 80.0039 157.316 80.1668 157.544 80.4569C157.772 80.7469 157.9 81.1402 157.9 81.5504V89.2826C157.9 89.6928 157.772 90.0861 157.544 90.3762C157.316 90.6662 157.007 90.8291 156.684 90.8291H146.958C146.636 90.8291 146.326 90.6662 146.098 90.3762C145.87 90.0861 145.742 89.6928 145.742 89.2826V81.5504Z" stroke="white" stroke-width="2" stroke-linecap="round" stroke-linejoin="round"/>
<path d="M151.822 87.7354C152.829 87.7354 153.645 86.6969 153.645 85.4158C153.645 84.1346 152.829 83.0961 151.822 83.0961C150.815 83.0961 149.998 84.1346 149.998 85.4158C149.998 86.6969 150.815 87.7354 151.822 87.7354Z" stroke="white" stroke-width="2" stroke-linecap="round" stroke-linejoin="round"/>
<path d="M145.742 83.0968C146.387 83.0968 147.006 82.771 147.462 82.1909C147.918 81.6109 148.174 80.8242 148.174 80.0039" stroke="white" stroke-width="2" stroke-linecap="round" stroke-linejoin="round"/>
<path d="M155.467 90.8296C155.467 90.0093 155.723 89.2226 156.179 88.6426C156.635 88.0626 157.253 87.7367 157.898 87.7367" stroke="white" stroke-width="2" stroke-linecap="round" stroke-linejoin="round"/>
</g>
<path d="M878.707 410.256C893.731 410.256 907.995 417.006 917.555 428.639L948.25 465.989C948.25 465.989 948.25 465.989 948.251 465.989C948.251 465.989 948.252 465.99 948.251 465.99L687.85 683.051C669.005 698.759 641.453 698.377 622.883 682.15L411.904 497.792C377.083 467.364 398.316 410.256 444.45 410.256L878.707 410.256Z" fill="#006BFF"/>
<path d="M371.5 282.886L372.253 285.624L372.354 285.991H372.735H375.381L373.172 287.888L372.932 288.094L373.016 288.4L373.817 291.313L371.826 289.603L371.5 289.324L371.174 289.603L369.183 291.313L369.984 288.4L370.068 288.094L369.828 287.888L367.619 285.991H370.265H370.646L370.747 285.624L371.5 282.886Z" stroke="black"/>
<path d="M181.5 349.886L182.253 352.624L182.354 352.991H182.735H185.381L183.172 354.888L182.932 355.094L183.016 355.4L183.817 358.313L181.826 356.603L181.5 356.324L181.174 356.603L179.183 358.313L179.984 355.4L180.068 355.094L179.828 354.888L177.619 352.991H180.265H180.646L180.747 352.624L181.5 349.886Z" stroke="black"/>
</g>
<defs>
<filter id="filter0_i_12_2281" x="74.9048" y="13.5737" width="330.658" height="322.347" filterUnits="userSpaceOnUse" color-interpolation-filters="sRGB">
<feFlood flood-opacity="0" result="BackgroundImageFix"/>
<feBlend mode="normal" in="SourceGraphic" in2="BackgroundImageFix" result="shape"/>
<feColorMatrix in="SourceAlpha" type="matrix" values="0 0 0 0 0 0 0 0 0 0 0 0 0 0 0 0 0 0 127 0" result="hardAlpha"/>
<feOffset dy="4"/>
<feGaussianBlur stdDeviation="15"/>
<feComposite in2="hardAlpha" operator="arithmetic" k2="-1" k3="1"/>
<feColorMatrix type="matrix" values="0 0 0 0 0 0 0 0 0 0 0 0 0 0 0 0 0 0 0.1 0"/>
<feBlend mode="normal" in2="shape" result="effect1_innerShadow_12_2281"/>
</filter>
<filter id="filter1_i_12_2281" x="-91.7554" y="1.55139" width="359.393" height="350.4" filterUnits="userSpaceOnUse" color-interpolation-filters="sRGB">
<feFlood flood-opacity="0" result="BackgroundImageFix"/>
<feBlend mode="normal" in="SourceGraphic" in2="BackgroundImageFix" result="shape"/>
<feColorMatrix in="SourceAlpha" type="matrix" values="0 0 0 0 0 0 0 0 0 0 0 0 0 0 0 0 0 0 127 0" result="hardAlpha"/>
<feOffset dy="4"/>
<feGaussianBlur stdDeviation="15"/>
<feComposite in2="hardAlpha" operator="arithmetic" k2="-1" k3="1"/>
<feColorMatrix type="matrix" values="0 0 0 0 0 0 0 0 0 0 0 0 0 0 0 0 0 0 0.15 0"/>
<feBlend mode="normal" in2="shape" result="effect1_innerShadow_12_2281"/>
</filter>
<filter id="filter2_i_12_2281" x="28" y="34" width="297" height="252" filterUnits="userSpaceOnUse" color-interpolation-filters="sRGB">
<feFlood flood-opacity="0" result="BackgroundImageFix"/>
<feBlend mode="normal" in="SourceGraphic" in2="BackgroundImageFix" result="shape"/>
<feColorMatrix in="SourceAlpha" type="matrix" values="0 0 0 0 0 0 0 0 0 0 0 0 0 0 0 0 0 0 127 0" result="hardAlpha"/>
<feOffset dy="4"/>
<feGaussianBlur stdDeviation="25"/>
<feComposite in2="hardAlpha" operator="arithmetic" k2="-1" k3="1"/>
<feColorMatrix type="matrix" values="0 0 0 0 0 0 0 0 0 0 0 0 0 0 0 0 0 0 0.25 0"/>
<feBlend mode="normal" in2="shape" result="effect1_innerShadow_12_2281"/>
</filter>
<filter id="filter3_i_12_2281" x="39" y="135" width="81" height="77" filterUnits="userSpaceOnUse" color-interpolation-filters="sRGB">
<feFlood flood-opacity="0" result="BackgroundImageFix"/>
<feBlend mode="normal" in="SourceGraphic" in2="BackgroundImageFix" result="shape"/>
<feColorMatrix in="SourceAlpha" type="matrix" values="0 0 0 0 0 0 0 0 0 0 0 0 0 0 0 0 0 0 127 0" result="hardAlpha"/>
<feOffset dx="1" dy="6"/>
<feGaussianBlur stdDeviation="5"/>
<feComposite in2="hardAlpha" operator="arithmetic" k2="-1" k3="1"/>
<feColorMatrix type="matrix" values="0 0 0 0 0 0 0 0 0 0 0 0 0 0 0 0 0 0 0.15 0"/>
<feBlend mode="normal" in2="shape" result="effect1_innerShadow_12_2281"/>
</filter>
<filter id="filter4_i_12_2281" x="60" y="71" width="29" height="33" filterUnits="userSpaceOnUse" color-interpolation-filters="sRGB">
<feFlood flood-opacity="0" result="BackgroundImageFix"/>
<feBlend mode="normal" in="SourceGraphic" in2="BackgroundImageFix" result="shape"/>
<feColorMatrix in="SourceAlpha" type="matrix" values="0 0 0 0 0 0 0 0 0 0 0 0 0 0 0 0 0 0 127 0" result="hardAlpha"/>
<feOffset dy="4"/>
<feGaussianBlur stdDeviation="2"/>
<feComposite in2="hardAlpha" operator="arithmetic" k2="-1" k3="1"/>
<feColorMatrix type="matrix" values="0 0 0 0 0 0 0 0 0 0 0 0 0 0 0 0 0 0 0.25 0"/>
<feBlend mode="normal" in2="shape" result="effect1_innerShadow_12_2281"/>
</filter>
<filter id="filter5_i_12_2281" x="137" y="71" width="29" height="33" filterUnits="userSpaceOnUse" color-interpolation-filters="sRGB">
<feFlood flood-opacity="0" result="BackgroundImageFix"/>
<feBlend mode="normal" in="SourceGraphic" in2="BackgroundImageFix" result="shape"/>
<feColorMatrix in="SourceAlpha" type="matrix" values="0 0 0 0 0 0 0 0 0 0 0 0 0 0 0 0 0 0 127 0" result="hardAlpha"/>
<feOffset dy="4"/>
<feGaussianBlur stdDeviation="2"/>
<feComposite in2="hardAlpha" operator="arithmetic" k2="-1" k3="1"/>
<feColorMatrix type="matrix" values="0 0 0 0 0 0 0 0 0 0 0 0 0 0 0 0 0 0 0.25 0"/>
<feBlend mode="normal" in2="shape" result="effect1_innerShadow_12_2281"/>
</filter>
<filter id="filter6_d_12_2281" x="135" y="241" width="100" height="33" filterUnits="userSpaceOnUse" color-interpolation-filters="sRGB">
<feFlood flood-opacity="0" result="BackgroundImageFix"/>
<feColorMatrix in="SourceAlpha" type="matrix" values="0 0 0 0 0 0 0 0 0 0 0 0 0 0 0 0 0 0 127 0" result="hardAlpha"/>
<feOffset dy="4"/>
<feGaussianBlur stdDeviation="2"/>
<feComposite in2="hardAlpha" operator="out"/>
<feColorMatrix type="matrix" values="0 0 0 0 0 0 0 0 0 0 0 0 0 0 0 0 0 0 0.25 0"/>
<feBlend mode="normal" in2="BackgroundImageFix" result="effect1_dropShadow_12_2281"/>
<feBlend mode="normal" in="SourceGraphic" in2="effect1_dropShadow_12_2281" result="shape"/>
</filter>
<linearGradient id="paint0_linear_12_2281" x1="62.5" y1="71" x2="74.5" y2="100" gradientUnits="userSpaceOnUse">
<stop stop-color="#BA8FE7"/>
<stop offset="1" stop-color="#B166FF"/>
</linearGradient>
<linearGradient id="paint1_linear_12_2281" x1="139.5" y1="71" x2="157" y2="100" gradientUnits="userSpaceOnUse">
<stop stop-color="#2D6EFD"/>
<stop offset="1" stop-color="#5489FF"/>
</linearGradient>
<clipPath id="clip0_12_2281">
<rect width="760" height="6888" fill="white" transform="translate(0 -3432)"/>
</clipPath>
</defs>
</svg>
