<svg width="647" height="552" viewBox="0 0 647 552" fill="none" xmlns="http://www.w3.org/2000/svg">
<path d="M7 494.934L8.08859 499.003L8.1878 499.373H8.5716L12.3349 499.373L9.21211 502.128L8.97982 502.333L9.05989 502.633L10.2034 506.906L7.33078 504.372L7 504.08L6.66922 504.372L3.79659 506.906L4.94011 502.633L5.02018 502.333L4.78789 502.128L1.66513 499.373L5.4284 499.373H5.8122L5.91141 499.003L7 494.934Z" stroke="black"/>
<path d="M597.147 10.7572L597.241 11.1373H597.633H603.288L598.606 15.614L598.396 15.8141L598.466 16.0953L600.186 23.0628L595.846 18.9132L595.5 18.5829L595.154 18.9132L590.814 23.0628L592.534 16.0953L592.604 15.8141L592.394 15.614L587.712 11.1373H593.367H593.759L593.853 10.7572L595.5 4.08561L597.147 10.7572Z" stroke="black"/>
<path d="M639.147 518.757L639.241 519.137H639.633H645.288L640.606 523.614L640.396 523.814L640.466 524.095L642.186 531.063L637.846 526.913L637.5 526.583L637.154 526.913L632.814 531.063L634.534 524.095L634.604 523.814L634.394 523.614L629.712 519.137H635.367H635.759L635.853 518.757L637.5 512.086L639.147 518.757Z" stroke="black"/>
<g filter="url(#filter0_d_26_8)">
<g clip-path="url(#clip0_26_8)">
<rect x="213.273" y="36" width="252" height="450" rx="20" transform="rotate(6.02125 213.273 36)" fill="white"/>
<rect x="271.131" y="192.935" width="48" height="20" rx="10" transform="rotate(6.02125 271.131 192.935)" fill="#BA8FE7"/>
<rect x="327.816" y="198.914" width="48" height="20" rx="10" transform="rotate(6.02125 327.816 198.914)" fill="#2BD8F5"/>
<rect x="251.156" y="96.3065" width="109" height="9" rx="4.5" transform="rotate(6.02125 251.156 96.3065)" fill="#D6D6D6"/>
<rect x="228.435" y="121.06" width="155" height="9" rx="4.5" transform="rotate(6.02125 228.435 121.06)" fill="#D6D6D6"/>
<rect x="197.805" y="411.449" width="155" height="9" rx="4.5" transform="rotate(6.02125 197.805 411.449)" fill="#D6D6D6"/>
<path d="M234.338 52.005L233.363 61.2467L232.196 61.1235L233.017 53.34L230.571 53.9502L230.683 52.896L234.155 51.9857L234.338 52.005ZM238.736 57.39L237.827 57.0516L238.771 52.5236L243.486 53.021L243.372 54.1004L239.648 53.7076L239.106 56.1781C239.285 56.099 239.507 56.031 239.773 55.9739C240.042 55.9172 240.346 55.9067 240.682 55.9422C241.107 55.987 241.481 56.1008 241.802 56.2836C242.123 56.4622 242.388 56.6986 242.595 56.9928C242.806 57.2875 242.955 57.6308 243.042 58.0229C243.128 58.415 243.146 58.8446 243.097 59.3117C243.051 59.7536 242.947 60.1533 242.786 60.5108C242.629 60.8687 242.416 61.1738 242.146 61.4263C241.878 61.6745 241.552 61.8551 241.17 61.968C240.792 62.0813 240.357 62.112 239.865 62.0601C239.494 62.021 239.148 61.9335 238.827 61.7974C238.509 61.6575 238.231 61.4687 237.993 61.2307C237.759 60.989 237.576 60.7017 237.445 60.3687C237.319 60.032 237.258 59.6468 237.261 59.2131L238.372 59.3303C238.386 59.6807 238.456 59.9818 238.583 60.2334C238.71 60.4851 238.889 60.6848 239.12 60.8326C239.356 60.9766 239.638 61.0659 239.966 61.1006C240.244 61.1299 240.495 61.1074 240.72 61.0333C240.945 60.9591 241.14 60.8393 241.307 60.6739C241.473 60.5085 241.608 60.3014 241.71 60.0527C241.818 59.8044 241.888 59.5203 241.922 59.2005C241.952 58.9101 241.941 58.6366 241.887 58.3798C241.833 58.1231 241.736 57.8937 241.596 57.6917C241.46 57.4901 241.283 57.3268 241.067 57.2018C240.85 57.0726 240.595 56.9925 240.3 56.9614C239.909 56.9202 239.607 56.9415 239.394 57.0254C239.185 57.1097 238.966 57.2313 238.736 57.39ZM244.211 61.7653C244.232 61.5675 244.31 61.4077 244.446 61.2859C244.587 61.1604 244.776 61.11 245.011 61.1349C245.247 61.1597 245.418 61.248 245.526 61.3998C245.638 61.5478 245.683 61.7207 245.663 61.9185C245.642 62.112 245.562 62.2695 245.421 62.3909C245.285 62.5127 245.099 62.5611 244.863 62.5363C244.628 62.5114 244.454 62.425 244.342 62.277C244.234 62.1295 244.19 61.9589 244.211 61.7653ZM244.805 56.1919C244.826 55.9941 244.904 55.8343 245.041 55.7125C245.181 55.587 245.37 55.5366 245.605 55.5615C245.841 55.5863 246.013 55.6746 246.12 55.8264C246.232 55.9744 246.278 56.1473 246.257 56.3451C246.236 56.5386 246.156 56.6961 246.015 56.8175C245.879 56.9393 245.693 56.9877 245.458 56.9629C245.222 56.938 245.048 56.8516 244.936 56.7036C244.828 56.5561 244.784 56.3855 244.805 56.1919ZM253.532 57.9869L253.385 59.3883C253.305 60.1417 253.171 60.77 252.982 61.2735C252.792 61.7769 252.555 62.1731 252.269 62.4621C251.983 62.7511 251.654 62.9483 251.281 63.0536C250.913 63.1552 250.506 63.1825 250.06 63.1354C249.706 63.0981 249.385 63.0196 249.095 62.8997C248.806 62.7798 248.551 62.6104 248.332 62.3915C248.117 62.1688 247.942 61.8908 247.807 61.5574C247.672 61.224 247.584 60.8275 247.543 60.3679C247.502 59.9083 247.514 59.3776 247.577 58.7758L247.725 57.3744C247.804 56.6211 247.938 55.9969 248.127 55.5019C248.319 55.0073 248.558 54.6197 248.843 54.3391C249.128 54.0544 249.455 53.8633 249.822 53.7659C250.194 53.669 250.601 53.6438 251.043 53.6904C251.401 53.7281 251.724 53.8069 252.014 53.9268C252.308 54.043 252.563 54.2081 252.779 54.4224C252.995 54.6324 253.169 54.9018 253.3 55.2305C253.436 55.5555 253.524 55.9457 253.566 56.4011C253.607 56.8565 253.596 57.3851 253.532 57.9869ZM252.19 59.4539L252.379 57.6674C252.422 57.255 252.435 56.8904 252.418 56.5736C252.405 56.2531 252.364 55.9765 252.295 55.7436C252.226 55.5108 252.127 55.3174 251.998 55.1635C251.874 55.0099 251.723 54.8919 251.544 54.8092C251.37 54.7228 251.17 54.6676 250.943 54.6436C250.665 54.6143 250.413 54.6409 250.187 54.7235C249.962 54.8019 249.764 54.9448 249.593 55.1523C249.427 55.3603 249.286 55.6412 249.172 55.9952C249.058 56.3491 248.974 56.7849 248.92 57.3025L248.731 59.089C248.688 59.5014 248.672 59.8679 248.685 60.1884C248.703 60.5094 248.747 60.7907 248.82 61.0323C248.893 61.2698 248.991 61.4695 249.114 61.6315C249.237 61.7934 249.386 61.9197 249.559 62.0103C249.737 62.0972 249.938 62.1524 250.161 62.1759C250.447 62.2061 250.703 62.1778 250.929 62.091C251.156 62.0042 251.352 61.8527 251.52 61.6363C251.692 61.4162 251.833 61.1268 251.943 60.7682C252.054 60.4054 252.136 59.9673 252.19 59.4539ZM260.805 58.754L260.657 60.1554C260.577 60.9087 260.443 61.5371 260.254 62.0405C260.064 62.5439 259.827 62.9402 259.541 63.2292C259.255 63.5182 258.926 63.7153 258.553 63.8207C258.185 63.9223 257.778 63.9495 257.332 63.9025C256.978 63.8652 256.657 63.7866 256.367 63.6667C256.078 63.5468 255.823 63.3774 255.604 63.1585C255.389 62.9359 255.214 62.6579 255.079 62.3245C254.944 61.9911 254.856 61.5946 254.815 61.135C254.774 60.6753 254.786 60.1446 254.849 59.5428L254.997 58.1414C255.076 57.3881 255.21 56.764 255.399 56.2689C255.591 55.7744 255.83 55.3868 256.115 55.1062C256.4 54.8214 256.727 54.6303 257.095 54.533C257.466 54.436 257.873 54.4108 258.315 54.4575C258.673 54.4952 258.997 54.574 259.286 54.6939C259.58 54.81 259.835 54.9752 260.051 55.1894C260.267 55.3995 260.441 55.6689 260.572 55.9976C260.708 56.3226 260.797 56.7128 260.838 57.1682C260.879 57.6236 260.868 58.1522 260.805 58.754ZM259.463 60.2209L259.651 58.4345C259.695 58.022 259.708 57.6574 259.69 57.3407C259.677 57.0202 259.636 56.7435 259.567 56.5107C259.498 56.2779 259.399 56.0845 259.271 55.9305C259.146 55.777 258.995 55.6589 258.816 55.5763C258.643 55.4898 258.442 55.4346 258.215 55.4107C257.937 55.3814 257.685 55.408 257.46 55.4906C257.234 55.5689 257.036 55.7119 256.865 55.9194C256.699 56.1273 256.558 56.4083 256.445 56.7622C256.331 57.1162 256.246 57.5519 256.192 58.0696L256.003 59.8561C255.96 60.2685 255.945 60.6349 255.958 60.9555C255.975 61.2764 256.02 61.5577 256.092 61.7994C256.165 62.0369 256.263 62.2366 256.386 62.3985C256.51 62.5605 256.658 62.6868 256.831 62.7774C257.009 62.8643 257.21 62.9194 257.433 62.943C257.719 62.9732 257.975 62.9449 258.202 62.8581C258.428 62.7713 258.625 62.6197 258.792 62.4034C258.964 62.1832 259.105 61.8939 259.216 61.5353C259.326 61.1725 259.408 60.7344 259.463 60.2209Z" fill="black"/>
<rect x="394.475" y="72.2073" width="3" height="3" transform="rotate(6.02125 394.475 72.2073)" fill="black"/>
<rect x="399.867" y="68.7539" width="3" height="7" transform="rotate(6.02125 399.867 68.7539)" fill="black"/>
<rect x="404.16" y="66.19" width="4" height="10" transform="rotate(6.02125 404.16 66.19)" fill="black"/>
<g clip-path="url(#clip1_26_8)">
<rect width="13" height="13" transform="translate(414.419 64.2555) rotate(6.02125)" fill="white"/>
<path d="M421.066 75.3271C420.993 76.0254 420.368 76.531 419.669 76.4573C418.971 76.3836 418.465 75.7589 418.539 75.0605C418.613 74.3619 419.238 73.8564 419.936 73.9301C420.634 74.0037 421.14 74.6285 421.066 75.3271ZM417.15 72.4544L418.034 73.3689C419.122 72.3168 421.071 72.5225 421.915 73.7793L422.97 73.0719C422.337 72.1295 421.328 71.5214 420.203 71.4026C419.077 71.2839 417.965 71.667 417.15 72.4544ZM415.567 70.457L416.414 71.4049C417.482 70.4494 418.91 69.9887 420.336 70.1391C421.76 70.2893 423.061 71.0379 423.906 72.1927L424.931 71.4423C423.874 69.9981 422.248 69.063 420.469 68.8754C418.688 68.6875 416.902 69.2652 415.567 70.457ZM413.974 68.4736L414.806 69.4336C416.397 68.0551 418.509 67.3908 420.602 67.6116C422.726 67.8356 424.603 68.8972 425.889 70.6L426.903 69.8334C425.425 67.8758 423.177 66.6054 420.736 66.3479C418.293 66.0903 415.83 66.8649 413.974 68.4736Z" fill="black"/>
</g>
<g clip-path="url(#clip2_26_8)">
<path d="M432.871 70.4507L432.079 77.9562L444.276 79.2427L445.068 71.7372L432.871 70.4507ZM443.639 78.2649L432.906 77.1328L433.508 71.4286L444.241 72.5607L443.639 78.2649Z" fill="black"/>
<path d="M434.877 72.4822L434.145 72.405L433.734 76.3079L434.466 76.3851L434.877 72.4822Z" fill="black"/>
<path d="M445.609 73.6142L444.877 73.537L444.466 77.4399L445.197 77.5171L445.609 73.6142Z" fill="black"/>
</g>
<path d="M224.146 97.7742C223.717 98.1216 223.651 98.7513 223.998 99.1807L229.659 106.177C230.007 106.606 230.636 106.673 231.066 106.325C231.495 105.978 231.561 105.348 231.214 104.919L226.182 98.7L232.401 93.6677C232.83 93.3203 232.897 92.6906 232.549 92.2613C232.202 91.832 231.572 91.7655 231.143 92.113L224.146 97.7742ZM226.869 97.7669L224.88 97.5571L224.67 99.5461L226.659 99.7559L226.869 97.7669Z" fill="#6D6D6D"/>
<circle cx="240.935" cy="164.611" r="15" transform="rotate(6.02125 240.935 164.611)" fill="#2D6EFD"/>
<circle cx="282.703" cy="169.017" r="15" transform="rotate(6.02125 282.703 169.017)" fill="#2D6EFD"/>
<path d="M284.241 165.828L286.661 169.101L280.038 174.954L277.569 174.99C277.238 174.995 276.994 174.665 277.068 174.313L277.62 171.679L284.241 165.828V165.828ZM288.715 165.851L287.578 164.315C287.224 163.835 286.574 163.767 286.127 164.161L284.78 165.352L287.2 168.625L288.548 167.434C288.994 167.039 289.069 166.33 288.715 165.851V165.851Z" fill="white"/>
<rect x="219.829" y="221.712" width="186" height="30" rx="15" transform="rotate(6.02125 219.829 221.712)" fill="#BA8FE7"/>
<path d="M390.102 254.69L385.987 250.388C385.957 250.357 385.921 250.331 385.88 250.311C385.839 250.292 385.794 250.279 385.748 250.274C385.702 250.269 385.656 250.272 385.612 250.283C385.568 250.293 385.527 250.311 385.491 250.335L380.569 253.684C380.426 253.782 380.335 253.926 380.319 254.084C380.284 254.412 380.571 254.712 380.958 254.752L381.434 254.803L381.146 257.532C381.129 257.697 381.272 257.846 381.466 257.867L384.207 258.156L384.427 256.074L385.655 256.204L385.436 258.286L388.353 258.593C388.547 258.614 388.718 258.497 388.735 258.333L389.023 255.603L389.499 255.653C389.686 255.673 389.871 255.63 390.014 255.531C390.312 255.328 390.352 254.951 390.102 254.69V254.69Z" fill="white"/>
<rect x="233.219" y="266.363" width="169" height="30" rx="15" transform="rotate(6.02125 233.219 266.363)" fill="#2BD8F5"/>
<path d="M386.586 297.557L382.471 293.255C382.441 293.224 382.405 293.198 382.364 293.179C382.323 293.159 382.278 293.147 382.232 293.142C382.186 293.137 382.14 293.14 382.096 293.15C382.052 293.161 382.011 293.179 381.975 293.203L377.053 296.552C376.91 296.65 376.819 296.793 376.803 296.951C376.768 297.279 377.055 297.579 377.442 297.62L377.918 297.67L377.63 300.4C377.613 300.565 377.756 300.714 377.95 300.735L380.691 301.024L380.911 298.942L382.139 299.071L381.92 301.153L384.837 301.461C385.031 301.482 385.202 301.365 385.219 301.201L385.507 298.471L385.983 298.521C386.169 298.541 386.355 298.497 386.498 298.399C386.796 298.195 386.836 297.819 386.586 297.557V297.557Z" fill="white"/>
<rect x="222.742" y="308.497" width="165" height="30" rx="15" transform="rotate(6.02125 222.742 308.497)" fill="#F6BD11"/>
<path d="M373.104 339.374L368.538 335.024C368.505 334.993 368.465 334.966 368.419 334.946C368.374 334.927 368.325 334.914 368.274 334.908C368.223 334.903 368.173 334.905 368.124 334.915C368.076 334.925 368.031 334.943 367.992 334.967L362.618 338.268C362.462 338.364 362.364 338.507 362.347 338.665C362.313 338.993 362.631 339.296 363.057 339.341L363.58 339.397L363.292 342.126C363.275 342.291 363.434 342.442 363.647 342.465L366.663 342.783L366.882 340.701L368.234 340.843L368.014 342.925L371.223 343.264C371.436 343.286 371.623 343.171 371.64 343.007L371.928 340.277L372.452 340.332C372.657 340.354 372.86 340.312 373.017 340.215C373.342 340.015 373.382 339.638 373.104 339.374V339.374Z" fill="white"/>
<circle cx="294.626" cy="465.905" r="14.5" transform="rotate(6.02125 294.626 465.905)" stroke="#BDBDBD"/>
<path d="M310.356 464.548C309.517 472.497 302.171 478.265 293.917 477.394C285.663 476.524 279.683 469.35 280.521 461.401C281.359 453.452 288.705 447.684 296.959 448.554C305.213 449.425 311.194 456.599 310.356 464.548Z" stroke="#BDBDBD"/>
<circle cx="373.261" cy="387.723" r="9" transform="rotate(6.02125 373.261 387.723)" fill="#2D6EFD"/>
<circle cx="401.107" cy="390.66" r="9" transform="rotate(6.02125 401.107 390.66)" fill="#2D6EFD"/>
<circle cx="373.261" cy="387.723" r="2.5" transform="rotate(6.02125 373.261 387.723)" stroke="white"/>
<path d="M403.932 392.472L404.135 390.551C404.149 390.417 404.13 390.281 404.079 390.151C404.027 390.022 403.945 389.901 403.837 389.797L401.817 387.854C401.716 387.756 401.574 387.692 401.422 387.676C401.269 387.66 401.117 387.693 400.997 387.767L398.617 389.246C398.49 389.326 398.384 389.427 398.307 389.543C398.229 389.659 398.182 389.787 398.168 389.921L397.965 391.843C397.952 391.973 398.001 392.105 398.104 392.209C398.206 392.313 398.352 392.38 398.51 392.397L403.284 392.901C403.442 392.917 403.599 392.882 403.721 392.801C403.843 392.721 403.919 392.603 403.932 392.472Z" stroke="white" stroke-linecap="round" stroke-linejoin="round"/>
<path d="M240.697 165.349C242.298 165.523 243.737 164.366 243.911 162.765C244.085 161.163 242.928 159.724 241.327 159.55C239.725 159.376 238.286 160.533 238.112 162.135C237.938 163.736 239.095 165.175 240.697 165.349Z" stroke="white" stroke-width="2"/>
<path d="M243.471 166.824L243.675 166.847C244.099 166.893 244.491 167.092 244.779 167.407C245.066 167.722 245.228 168.132 245.235 168.558L245.265 170.394C245.268 170.56 245.235 170.724 245.169 170.876C245.104 171.028 245.007 171.164 244.884 171.275C244.762 171.387 244.618 171.471 244.46 171.522C244.303 171.574 244.137 171.591 243.972 171.573L236.162 170.724C235.997 170.707 235.839 170.654 235.696 170.57C235.553 170.486 235.43 170.373 235.335 170.238C235.239 170.103 235.174 169.949 235.142 169.786C235.111 169.624 235.114 169.457 235.152 169.296L235.575 167.509C235.674 167.093 235.92 166.728 236.269 166.482C236.617 166.236 237.044 166.126 237.468 166.172L237.671 166.194" stroke="white" stroke-width="2" stroke-linecap="round" stroke-linejoin="round"/>
<path d="M296.646 467.108L295.838 467.02L295.926 466.212L294.311 466.037L294.223 466.844L293.415 466.757L293.503 465.949C293.526 465.735 293.634 465.539 293.802 465.404C293.97 465.269 294.184 465.206 294.398 465.229L296.014 465.404C296.228 465.428 296.424 465.535 296.559 465.703C296.694 465.871 296.757 466.086 296.734 466.3L296.646 467.108Z" fill="#1D1D1D"/>
<path d="M295.25 464.913C295.01 464.887 294.784 464.79 294.599 464.636C294.414 464.481 294.28 464.275 294.212 464.043C294.144 463.812 294.147 463.566 294.219 463.336C294.291 463.106 294.43 462.902 294.618 462.751C294.806 462.6 295.034 462.508 295.274 462.487C295.515 462.466 295.756 462.516 295.967 462.632C296.178 462.748 296.351 462.924 296.462 463.138C296.574 463.351 296.619 463.593 296.593 463.833C296.558 464.154 296.397 464.448 296.145 464.651C295.893 464.853 295.571 464.947 295.25 464.913ZM295.426 463.297C295.346 463.289 295.265 463.304 295.194 463.341C295.123 463.378 295.064 463.436 295.025 463.506C294.987 463.577 294.97 463.657 294.977 463.737C294.984 463.817 295.015 463.893 295.065 463.956C295.115 464.018 295.183 464.065 295.26 464.089C295.337 464.113 295.419 464.114 295.496 464.091C295.573 464.069 295.642 464.024 295.693 463.962C295.745 463.901 295.777 463.825 295.786 463.745C295.797 463.638 295.766 463.531 295.698 463.447C295.631 463.363 295.533 463.309 295.426 463.297Z" fill="#1D1D1D"/>
<path d="M294.548 471.375L291.578 466.987C291.537 466.921 291.496 466.855 291.457 466.789C290.958 465.959 290.745 464.989 290.851 464.026C290.979 462.848 291.57 461.769 292.494 461.026C293.417 460.284 294.598 459.938 295.777 460.066C296.955 460.194 298.034 460.785 298.777 461.709C299.519 462.633 299.865 463.813 299.737 464.992C299.633 465.954 299.218 466.856 298.553 467.559L298.552 467.56C298.552 467.56 298.414 467.706 298.393 467.725L294.548 471.375ZM292.154 466.373C292.155 466.373 292.235 466.507 292.254 466.536L294.684 470.126L297.832 467.138C297.852 467.117 297.96 467.002 297.961 467.002C298.504 466.427 298.844 465.69 298.929 464.904C299.034 463.94 298.751 462.974 298.143 462.218C297.536 461.462 296.653 460.979 295.689 460.874C294.725 460.769 293.759 461.052 293.003 461.66C292.247 462.267 291.764 463.15 291.659 464.114C291.573 464.901 291.747 465.694 292.155 466.373L292.154 466.373Z" fill="#1D1D1D"/>
</g>
<rect x="214.608" y="37.6491" width="249" height="447" rx="18.5" transform="rotate(6.02125 214.608 37.6491)" stroke="white" stroke-width="3"/>
</g>
<g filter="url(#filter1_i_26_8)">
<circle cx="504" cy="322.557" r="22" fill="#2D6EFD"/>
</g>
<ellipse cx="526" cy="423.057" rx="8" ry="8.5" fill="#F6BD11"/>
<ellipse cx="83" cy="314.057" rx="8" ry="8.5" fill="#F6BD11"/>
<g filter="url(#filter2_i_26_8)">
<circle cx="114" cy="173.557" r="22" fill="#8247F5"/>
</g>
<rect x="312.125" y="157.037" width="169" height="30" rx="15" transform="rotate(6.02125 312.125 157.037)" fill="#2D6EFD"/>
<path d="M465.492 188.233L461.377 183.93C461.348 183.899 461.311 183.873 461.27 183.854C461.229 183.834 461.185 183.822 461.139 183.817C461.092 183.812 461.046 183.815 461.002 183.826C460.958 183.836 460.917 183.854 460.881 183.878L455.959 187.227C455.816 187.325 455.725 187.468 455.709 187.626C455.674 187.954 455.961 188.254 456.348 188.295L456.824 188.345L456.536 191.075C456.519 191.24 456.662 191.389 456.856 191.41L459.597 191.699L459.817 189.617L461.045 189.746L460.826 191.828L463.743 192.136C463.937 192.157 464.108 192.04 464.125 191.876L464.413 189.146L464.889 189.196C465.076 189.216 465.261 189.172 465.405 189.074C465.702 188.87 465.742 188.494 465.492 188.233V188.233Z" fill="white"/>
<rect x="144.012" y="349.465" width="200" height="30" rx="15" transform="rotate(6.02125 144.012 349.465)" fill="#8247F5"/>
<path d="M325.203 383.592L320.636 379.243C320.603 379.211 320.563 379.185 320.518 379.165C320.472 379.145 320.423 379.132 320.372 379.127C320.322 379.121 320.271 379.124 320.222 379.134C320.174 379.144 320.129 379.161 320.091 379.185L314.717 382.486C314.56 382.583 314.462 382.726 314.445 382.884C314.411 383.212 314.729 383.515 315.155 383.56L315.679 383.615L315.391 386.345C315.373 386.509 315.532 386.661 315.745 386.683L318.761 387.001L318.981 384.919L320.332 385.062L320.112 387.144L323.321 387.482C323.535 387.505 323.721 387.39 323.739 387.225L324.026 384.496L324.55 384.551C324.755 384.572 324.959 384.531 325.115 384.434C325.44 384.233 325.48 383.857 325.203 383.592V383.592Z" fill="white"/>
<path d="M122 178.976V172.792C122 172.362 121.917 171.936 121.755 171.541C121.594 171.146 121.357 170.79 121.06 170.495L115.53 164.989C115.252 164.711 114.883 164.557 114.5 164.557C114.117 164.557 113.748 164.711 113.47 164.989L107.94 170.495C107.643 170.79 107.406 171.146 107.245 171.541C107.083 171.936 107 172.362 107 172.792V178.976C107 179.395 107.158 179.797 107.439 180.094C107.721 180.39 108.102 180.557 108.5 180.557H120.5C120.898 180.557 121.279 180.39 121.561 180.094C121.842 179.797 122 179.395 122 178.976Z" stroke="white" stroke-width="2" stroke-linecap="round" stroke-linejoin="round"/>
<path d="M504.187 323.083C506.143 323.083 507.728 321.498 507.728 319.542C507.728 317.586 506.143 316 504.187 316C502.231 316 500.645 317.586 500.645 319.542C500.645 321.498 502.231 323.083 504.187 323.083Z" stroke="white" stroke-width="2"/>
<path d="M507.729 324.5H507.978C508.496 324.5 508.996 324.689 509.384 325.032C509.772 325.375 510.022 325.848 510.086 326.362L510.363 328.574C510.388 328.774 510.37 328.976 510.311 329.168C510.251 329.36 510.152 329.537 510.019 329.688C509.886 329.838 509.723 329.959 509.539 330.041C509.356 330.124 509.158 330.167 508.957 330.167H499.417C499.216 330.167 499.017 330.124 498.834 330.041C498.651 329.959 498.488 329.838 498.355 329.688C498.222 329.537 498.122 329.36 498.063 329.168C498.004 328.976 497.986 328.774 498.011 328.574L498.287 326.362C498.351 325.847 498.601 325.374 498.99 325.032C499.378 324.689 499.879 324.5 500.397 324.5H500.645" stroke="white" stroke-width="2" stroke-linecap="round" stroke-linejoin="round"/>
<g filter="url(#filter3_d_26_8)">
<g clip-path="url(#clip3_26_8)">
<rect x="213.204" y="36" width="252" height="450" rx="20" transform="rotate(6.02125 213.204 36)" fill="white"/>
<rect x="271.061" y="192.935" width="48" height="20" rx="10" transform="rotate(6.02125 271.061 192.935)" fill="#BA8FE7"/>
<rect x="327.746" y="198.914" width="48" height="20" rx="10" transform="rotate(6.02125 327.746 198.914)" fill="#2BD8F5"/>
<rect x="251.087" y="96.3065" width="109" height="9" rx="4.5" transform="rotate(6.02125 251.087 96.3065)" fill="#D6D6D6"/>
<rect x="228.365" y="121.06" width="155" height="9" rx="4.5" transform="rotate(6.02125 228.365 121.06)" fill="#D6D6D6"/>
<rect x="197.735" y="411.449" width="155" height="9" rx="4.5" transform="rotate(6.02125 197.735 411.449)" fill="#D6D6D6"/>
<path d="M233.294 61.2467L232.12 61.1228L232.941 53.3393L230.495 53.9558L230.607 52.8953L234.085 51.992L234.268 52.0113L233.294 61.2467ZM237.738 57.0559L238.688 52.5222L243.398 53.019L243.284 54.0984L239.566 53.7062L239.023 56.1831C239.502 55.9654 240.027 55.8868 240.599 55.9472C241.437 56.0355 242.073 56.3834 242.506 56.9908C242.941 57.5941 243.108 58.367 243.009 59.3097C242.909 60.2566 242.573 60.9765 242.002 61.4695C241.436 61.9587 240.694 62.1549 239.776 62.0581C238.964 61.9724 238.325 61.6773 237.859 61.1729C237.393 60.6684 237.166 60.0147 237.179 59.2118L238.283 59.3283C238.299 59.8619 238.445 60.2794 238.719 60.5807C238.994 60.8778 239.38 61.0525 239.877 61.1049C240.42 61.1621 240.864 61.0218 241.21 60.6839C241.561 60.3464 241.771 59.8515 241.839 59.1992C241.904 58.5847 241.788 58.0746 241.49 57.6687C241.197 57.2591 240.773 57.025 240.217 56.9664C239.708 56.9127 239.297 56.9821 238.983 57.1745L238.647 57.3944L237.738 57.0559ZM244.121 61.7696C244.143 61.5676 244.219 61.4055 244.351 61.2833C244.488 61.1615 244.676 61.1132 244.916 61.1385C245.155 61.1638 245.329 61.2502 245.437 61.3978C245.549 61.5458 245.595 61.7208 245.573 61.9228C245.553 62.1164 245.473 62.2717 245.333 62.3889C245.197 62.5065 245.009 62.5526 244.769 62.5273C244.529 62.502 244.355 62.4177 244.247 62.2743C244.143 62.1314 244.101 61.9632 244.121 61.7696ZM244.716 56.1962C244.737 55.9942 244.814 55.8321 244.946 55.7099C245.082 55.5881 245.27 55.5398 245.51 55.5651C245.75 55.5904 245.924 55.6768 246.031 55.8244C246.143 55.9724 246.189 56.1474 246.168 56.3494C246.147 56.543 246.067 56.6983 245.927 56.8155C245.791 56.9331 245.603 56.9792 245.363 56.9539C245.123 56.9286 244.949 56.8443 244.841 56.7009C244.737 56.5581 244.695 56.3898 244.716 56.1962ZM253.283 59.3913C253.138 60.7591 252.798 61.7508 252.26 62.3664C251.723 62.9821 250.958 63.2375 249.965 63.1328C248.984 63.0293 248.292 62.6287 247.889 61.9309C247.487 61.2289 247.345 60.231 247.465 58.9372L247.629 57.378C247.772 56.0271 248.111 55.048 248.648 54.4408C249.184 53.8335 249.951 53.5825 250.948 53.6877C251.937 53.7921 252.632 54.1866 253.032 54.8713C253.432 55.5519 253.569 56.5535 253.443 57.8763L253.283 59.3913ZM252.283 57.6711C252.388 56.6821 252.325 55.9478 252.094 55.4682C251.865 54.9844 251.449 54.7107 250.847 54.6473C250.249 54.5842 249.79 54.7634 249.469 55.1849C249.148 55.6063 248.934 56.2837 248.827 57.2171L248.63 59.0857C248.525 60.0788 248.591 60.8283 248.827 61.334C249.067 61.836 249.48 62.1179 250.065 62.1796C250.642 62.2404 251.092 62.0624 251.417 61.6456C251.746 61.2292 251.968 60.542 252.082 59.5838L252.283 57.6711ZM260.542 60.1571C260.398 61.5248 260.057 62.5165 259.52 63.1322C258.983 63.7478 258.217 64.0033 257.224 63.8985C256.244 63.7951 255.552 63.3944 255.149 62.6966C254.746 61.9946 254.605 60.9967 254.724 59.703L254.889 58.1437C255.031 56.7928 255.371 55.8138 255.907 55.2065C256.443 54.5993 257.21 54.3483 258.208 54.4535C259.197 54.5578 259.891 54.9523 260.291 55.6371C260.692 56.3176 260.829 57.3193 260.702 58.642L260.542 60.1571ZM259.543 58.4368C259.647 57.4478 259.584 56.7135 259.354 56.2339C259.124 55.7501 258.708 55.4765 258.107 55.413C257.509 55.35 257.05 55.5292 256.729 55.9506C256.408 56.3721 256.194 57.0495 256.087 57.9829L255.889 59.8514C255.785 60.8446 255.85 61.594 256.086 62.0998C256.327 62.6018 256.74 62.8836 257.325 62.9453C257.901 63.0061 258.352 62.8281 258.677 62.4113C259.006 61.995 259.227 61.3077 259.341 60.3495L259.543 58.4368Z" fill="black"/>
<rect x="394.405" y="72.2073" width="3" height="3" transform="rotate(6.02125 394.405 72.2073)" fill="black"/>
<rect x="399.797" y="68.7539" width="3" height="7" transform="rotate(6.02125 399.797 68.7539)" fill="black"/>
<rect x="404.09" y="66.19" width="4" height="10" transform="rotate(6.02125 404.09 66.19)" fill="black"/>
<g clip-path="url(#clip4_26_8)">
<rect width="13" height="13" transform="translate(414.35 64.2555) rotate(6.02125)" fill="white"/>
<path d="M420.997 75.3271C420.923 76.0254 420.298 76.531 419.6 76.4573C418.901 76.3836 418.396 75.7589 418.469 75.0605C418.543 74.3619 419.168 73.8564 419.866 73.9301C420.565 74.0037 421.07 74.6285 420.997 75.3271ZM417.081 72.4544L417.964 73.3689C419.052 72.3168 421.002 72.5225 421.845 73.7793L422.9 73.0719C422.267 72.1295 421.258 71.5214 420.133 71.4026C419.007 71.2839 417.895 71.667 417.081 72.4544ZM415.497 70.457L416.344 71.4049C417.412 70.4494 418.841 69.9887 420.266 70.1391C421.69 70.2893 422.992 71.0379 423.837 72.1927L424.862 71.4423C423.805 69.9981 422.179 69.063 420.4 68.8754C418.619 68.6875 416.832 69.2652 415.497 70.457ZM413.905 68.4736L414.737 69.4336C416.327 68.0551 418.44 67.3908 420.533 67.6116C422.657 67.8356 424.534 68.8972 425.819 70.6L426.833 69.8334C425.355 67.8758 423.107 66.6054 420.666 66.3479C418.224 66.0903 415.76 66.8649 413.905 68.4736Z" fill="black"/>
</g>
<g clip-path="url(#clip5_26_8)">
<path d="M432.801 70.4507L432.01 77.9562L444.206 79.2427L444.998 71.7372L432.801 70.4507ZM443.57 78.2649L432.837 77.1328L433.438 71.4286L444.171 72.5607L443.57 78.2649Z" fill="black"/>
<path d="M434.808 72.4822L434.076 72.405L433.664 76.3079L434.396 76.3851L434.808 72.4822Z" fill="black"/>
<path d="M445.539 73.6142L444.808 73.537L444.396 77.4399L445.128 77.5171L445.539 73.6142Z" fill="black"/>
</g>
<path d="M224.077 97.7742C223.647 98.1216 223.581 98.7513 223.928 99.1807L229.59 106.177C229.937 106.606 230.567 106.673 230.996 106.325C231.425 105.978 231.492 105.348 231.144 104.919L226.112 98.7L232.331 93.6677C232.761 93.3203 232.827 92.6906 232.48 92.2613C232.132 91.832 231.502 91.7655 231.073 92.113L224.077 97.7742ZM226.8 97.7669L224.811 97.5571L224.601 99.5461L226.59 99.7559L226.8 97.7669Z" fill="#6D6D6D"/>
<circle cx="240.865" cy="164.611" r="15" transform="rotate(6.02125 240.865 164.611)" fill="#2D6EFD"/>
<circle cx="282.634" cy="169.017" r="15" transform="rotate(6.02125 282.634 169.017)" fill="#2D6EFD"/>
<path d="M284.171 165.828L286.592 169.101L279.969 174.954L277.499 174.99C277.168 174.995 276.924 174.665 276.998 174.313L277.55 171.679L284.171 165.828V165.828ZM288.645 165.851L287.508 164.315C287.154 163.835 286.504 163.767 286.057 164.161L284.71 165.352L287.131 168.625L288.478 167.434C288.925 167.039 288.999 166.33 288.645 165.851V165.851Z" fill="white"/>
<rect x="219.759" y="221.712" width="186" height="30" rx="15" transform="rotate(6.02125 219.759 221.712)" fill="#BA8FE7"/>
<path d="M390.032 254.69L385.917 250.388C385.888 250.357 385.851 250.331 385.811 250.311C385.77 250.292 385.725 250.279 385.679 250.274C385.633 250.269 385.586 250.272 385.542 250.283C385.498 250.293 385.457 250.311 385.422 250.335L380.5 253.684C380.356 253.782 380.266 253.926 380.249 254.084C380.214 254.412 380.501 254.712 380.888 254.752L381.364 254.803L381.076 257.532C381.059 257.697 381.202 257.846 381.396 257.867L384.137 258.156L384.357 256.074L385.586 256.204L385.366 258.286L388.283 258.593C388.477 258.614 388.648 258.497 388.665 258.333L388.953 255.603L389.429 255.653C389.616 255.673 389.801 255.63 389.945 255.531C390.242 255.328 390.282 254.951 390.032 254.69V254.69Z" fill="white"/>
<rect x="233.149" y="266.363" width="169" height="30" rx="15" transform="rotate(6.02125 233.149 266.363)" fill="#2BD8F5"/>
<path d="M386.516 297.557L382.401 293.255C382.372 293.224 382.335 293.198 382.294 293.179C382.253 293.159 382.209 293.147 382.163 293.142C382.117 293.137 382.07 293.14 382.026 293.15C381.982 293.161 381.941 293.179 381.906 293.203L376.984 296.552C376.84 296.65 376.75 296.793 376.733 296.951C376.698 297.279 376.985 297.579 377.372 297.62L377.848 297.67L377.56 300.4C377.543 300.565 377.686 300.714 377.88 300.735L380.621 301.024L380.841 298.942L382.07 299.071L381.85 301.153L384.767 301.461C384.961 301.482 385.132 301.365 385.149 301.201L385.437 298.471L385.913 298.521C386.1 298.541 386.285 298.497 386.429 298.399C386.726 298.195 386.766 297.819 386.516 297.557V297.557Z" fill="white"/>
<rect x="222.672" y="308.497" width="165" height="30" rx="15" transform="rotate(6.02125 222.672 308.497)" fill="#F6BD11"/>
<path d="M373.035 339.374L368.468 335.024C368.435 334.993 368.395 334.966 368.35 334.946C368.304 334.927 368.255 334.914 368.204 334.908C368.154 334.903 368.103 334.905 368.054 334.915C368.006 334.925 367.961 334.943 367.923 334.967L362.549 338.268C362.392 338.364 362.294 338.507 362.277 338.665C362.243 338.993 362.561 339.296 362.987 339.341L363.511 339.397L363.223 342.126C363.205 342.291 363.364 342.442 363.578 342.465L366.593 342.783L366.813 340.701L368.164 340.843L367.945 342.925L371.153 343.264C371.367 343.286 371.553 343.171 371.571 343.007L371.859 340.277L372.382 340.332C372.587 340.354 372.791 340.312 372.947 340.215C373.272 340.015 373.312 339.638 373.035 339.374V339.374Z" fill="white"/>
<circle cx="294.557" cy="465.905" r="14.5" transform="rotate(6.02125 294.557 465.905)" stroke="#BDBDBD"/>
<path d="M310.286 464.548C309.447 472.497 302.102 478.265 293.848 477.394C285.594 476.524 279.613 469.35 280.451 461.401C281.29 453.452 288.636 447.684 296.89 448.554C305.144 449.425 311.124 456.599 310.286 464.548Z" stroke="#BDBDBD"/>
<circle cx="373.192" cy="387.723" r="9" transform="rotate(6.02125 373.192 387.723)" fill="#2D6EFD"/>
<circle cx="401.037" cy="390.66" r="9" transform="rotate(6.02125 401.037 390.66)" fill="#2D6EFD"/>
<circle cx="373.192" cy="387.723" r="2.5" transform="rotate(6.02125 373.192 387.723)" stroke="white"/>
<path d="M403.863 392.472L404.065 390.551C404.079 390.417 404.06 390.281 404.009 390.151C403.958 390.022 403.875 389.901 403.767 389.797L401.748 387.854C401.646 387.756 401.504 387.692 401.352 387.676C401.199 387.66 401.048 387.693 400.928 387.767L398.548 389.246C398.42 389.326 398.314 389.427 398.237 389.543C398.16 389.659 398.113 389.787 398.098 389.921L397.896 391.843C397.882 391.973 397.932 392.105 398.034 392.209C398.136 392.313 398.282 392.38 398.441 392.397L403.214 392.901C403.372 392.917 403.53 392.882 403.651 392.801C403.773 392.721 403.849 392.603 403.863 392.472Z" stroke="white" stroke-linecap="round" stroke-linejoin="round"/>
<path d="M240.627 165.349C242.229 165.523 243.668 164.366 243.842 162.765C244.016 161.163 242.859 159.724 241.257 159.55C239.656 159.376 238.217 160.533 238.043 162.135C237.869 163.736 239.026 165.175 240.627 165.349Z" stroke="white" stroke-width="2"/>
<path d="M243.401 166.824L243.605 166.847C244.029 166.893 244.422 167.092 244.709 167.407C244.996 167.722 245.158 168.132 245.165 168.558L245.195 170.394C245.198 170.56 245.165 170.724 245.1 170.876C245.034 171.028 244.937 171.164 244.815 171.275C244.693 171.387 244.548 171.471 244.391 171.522C244.233 171.574 244.067 171.591 243.903 171.573L236.092 170.724C235.928 170.707 235.769 170.654 235.626 170.57C235.484 170.486 235.361 170.373 235.265 170.238C235.17 170.103 235.104 169.949 235.073 169.786C235.041 169.624 235.045 169.457 235.083 169.296L235.506 167.509C235.604 167.093 235.851 166.728 236.199 166.482C236.548 166.236 236.974 166.126 237.398 166.172L237.602 166.194" stroke="white" stroke-width="2" stroke-linecap="round" stroke-linejoin="round"/>
<path d="M296.577 467.108L295.769 467.02L295.857 466.212L294.241 466.037L294.153 466.844L293.346 466.757L293.433 465.949C293.457 465.735 293.564 465.539 293.732 465.404C293.9 465.269 294.115 465.206 294.329 465.229L295.944 465.404C296.158 465.428 296.355 465.535 296.489 465.703C296.624 465.871 296.687 466.086 296.664 466.3L296.577 467.108Z" fill="#1D1D1D"/>
<path d="M295.18 464.913C294.941 464.887 294.714 464.79 294.529 464.636C294.345 464.481 294.21 464.275 294.142 464.043C294.075 463.812 294.077 463.566 294.149 463.336C294.222 463.106 294.36 462.902 294.548 462.751C294.736 462.6 294.965 462.508 295.205 462.487C295.445 462.466 295.686 462.516 295.897 462.632C296.109 462.748 296.281 462.924 296.393 463.138C296.504 463.351 296.55 463.593 296.524 463.833C296.488 464.154 296.327 464.448 296.075 464.651C295.824 464.853 295.502 464.947 295.18 464.913ZM295.356 463.297C295.276 463.289 295.195 463.304 295.124 463.341C295.053 463.378 294.994 463.436 294.956 463.506C294.917 463.577 294.9 463.657 294.907 463.737C294.914 463.817 294.945 463.893 294.995 463.956C295.046 464.018 295.114 464.065 295.19 464.089C295.267 464.113 295.349 464.114 295.426 464.091C295.503 464.069 295.572 464.024 295.623 463.962C295.675 463.901 295.707 463.825 295.716 463.745C295.727 463.638 295.696 463.531 295.628 463.447C295.561 463.363 295.463 463.309 295.356 463.297Z" fill="#1D1D1D"/>
<path d="M294.478 471.375L291.508 466.987C291.467 466.921 291.427 466.855 291.387 466.789C290.888 465.959 290.676 464.989 290.782 464.026C290.91 462.848 291.5 461.769 292.424 461.026C293.348 460.284 294.529 459.938 295.707 460.066C296.885 460.194 297.964 460.785 298.707 461.709C299.45 462.633 299.795 463.813 299.667 464.992C299.564 465.954 299.148 466.856 298.483 467.559L298.482 467.56C298.482 467.56 298.344 467.706 298.323 467.725L294.478 471.375ZM292.085 466.373C292.085 466.373 292.166 466.507 292.184 466.536L294.614 470.126L297.762 467.138C297.783 467.117 297.891 467.002 297.891 467.002C298.435 466.427 298.775 465.69 298.859 464.904C298.964 463.94 298.681 462.974 298.074 462.218C297.466 461.462 296.583 460.979 295.619 460.874C294.655 460.769 293.689 461.052 292.933 461.66C292.178 462.267 291.694 463.15 291.589 464.114C291.503 464.901 291.677 465.694 292.085 466.373L292.085 466.373Z" fill="#1D1D1D"/>
</g>
<rect x="214.538" y="37.6491" width="249" height="447" rx="18.5" transform="rotate(6.02125 214.538 37.6491)" stroke="white" stroke-width="3"/>
</g>
<g filter="url(#filter4_i_26_8)">
<circle cx="504" cy="322.557" r="22" fill="#2D6EFD"/>
</g>
<ellipse cx="526" cy="423.057" rx="8" ry="8.5" fill="#F6BD11"/>
<ellipse cx="83" cy="314.057" rx="8" ry="8.5" fill="#F6BD11"/>
<g filter="url(#filter5_i_26_8)">
<circle cx="114" cy="173.557" r="22" fill="#8247F5"/>
</g>
<rect x="312.125" y="157.037" width="169" height="30" rx="15" transform="rotate(6.02125 312.125 157.037)" fill="#2D6EFD"/>
<path d="M465.492 188.233L461.377 183.93C461.348 183.899 461.311 183.873 461.27 183.854C461.229 183.834 461.185 183.822 461.139 183.817C461.092 183.812 461.046 183.815 461.002 183.826C460.958 183.836 460.917 183.854 460.881 183.878L455.959 187.227C455.816 187.325 455.725 187.468 455.709 187.626C455.674 187.954 455.961 188.254 456.348 188.295L456.824 188.345L456.536 191.075C456.519 191.24 456.662 191.389 456.856 191.41L459.597 191.699L459.817 189.617L461.045 189.746L460.826 191.828L463.743 192.136C463.937 192.157 464.108 192.04 464.125 191.876L464.413 189.146L464.889 189.196C465.076 189.216 465.261 189.172 465.405 189.074C465.702 188.87 465.742 188.494 465.492 188.233V188.233Z" fill="white"/>
<rect x="144.012" y="349.465" width="200" height="30" rx="15" transform="rotate(6.02125 144.012 349.465)" fill="#8247F5"/>
<path d="M325.203 383.592L320.636 379.243C320.603 379.211 320.563 379.185 320.518 379.165C320.472 379.145 320.423 379.132 320.372 379.127C320.322 379.121 320.271 379.124 320.222 379.134C320.174 379.144 320.129 379.161 320.091 379.185L314.717 382.486C314.56 382.583 314.462 382.726 314.445 382.884C314.411 383.212 314.729 383.515 315.155 383.56L315.679 383.615L315.391 386.345C315.373 386.509 315.532 386.661 315.745 386.683L318.761 387.001L318.981 384.919L320.332 385.062L320.112 387.144L323.321 387.482C323.535 387.505 323.721 387.39 323.739 387.225L324.026 384.496L324.55 384.551C324.755 384.572 324.959 384.531 325.115 384.434C325.44 384.233 325.48 383.857 325.203 383.592V383.592Z" fill="white"/>
<path d="M122 178.976V172.792C122 172.362 121.917 171.936 121.755 171.541C121.594 171.146 121.357 170.79 121.06 170.495L115.53 164.989C115.252 164.711 114.883 164.557 114.5 164.557C114.117 164.557 113.748 164.711 113.47 164.989L107.94 170.495C107.643 170.79 107.406 171.146 107.245 171.541C107.083 171.936 107 172.362 107 172.792V178.976C107 179.395 107.158 179.797 107.439 180.094C107.721 180.39 108.102 180.557 108.5 180.557H120.5C120.898 180.557 121.279 180.39 121.561 180.094C121.842 179.797 122 179.395 122 178.976Z" stroke="white" stroke-width="2" stroke-linecap="round" stroke-linejoin="round"/>
<path d="M504.187 323.083C506.143 323.083 507.728 321.498 507.728 319.542C507.728 317.586 506.143 316 504.187 316C502.231 316 500.645 317.586 500.645 319.542C500.645 321.498 502.231 323.083 504.187 323.083Z" stroke="white" stroke-width="2"/>
<path d="M507.729 324.5H507.978C508.496 324.5 508.996 324.689 509.384 325.032C509.772 325.375 510.022 325.848 510.086 326.362L510.363 328.574C510.388 328.774 510.37 328.976 510.311 329.168C510.251 329.36 510.152 329.537 510.019 329.688C509.886 329.838 509.723 329.959 509.539 330.041C509.356 330.124 509.158 330.167 508.957 330.167H499.417C499.216 330.167 499.017 330.124 498.834 330.041C498.651 329.959 498.488 329.838 498.355 329.688C498.222 329.537 498.122 329.36 498.063 329.168C498.004 328.976 497.986 328.774 498.011 328.574L498.287 326.362C498.351 325.847 498.601 325.374 498.99 325.032C499.378 324.689 499.879 324.5 500.397 324.5H500.645" stroke="white" stroke-width="2" stroke-linecap="round" stroke-linejoin="round"/>
<defs>
<filter id="filter0_d_26_8" x="126.07" y="0" width="377.814" height="553.951" filterUnits="userSpaceOnUse" color-interpolation-filters="sRGB">
<feFlood flood-opacity="0" result="BackgroundImageFix"/>
<feColorMatrix in="SourceAlpha" type="matrix" values="0 0 0 0 0 0 0 0 0 0 0 0 0 0 0 0 0 0 127 0" result="hardAlpha"/>
<feOffset dy="4"/>
<feGaussianBlur stdDeviation="20"/>
<feComposite in2="hardAlpha" operator="out"/>
<feColorMatrix type="matrix" values="0 0 0 0 0 0 0 0 0 0 0 0 0 0 0 0 0 0 0.25 0"/>
<feBlend mode="normal" in2="BackgroundImageFix" result="effect1_dropShadow_26_8"/>
<feBlend mode="normal" in="SourceGraphic" in2="effect1_dropShadow_26_8" result="shape"/>
</filter>
<filter id="filter1_i_26_8" x="482" y="300.557" width="44" height="48" filterUnits="userSpaceOnUse" color-interpolation-filters="sRGB">
<feFlood flood-opacity="0" result="BackgroundImageFix"/>
<feBlend mode="normal" in="SourceGraphic" in2="BackgroundImageFix" result="shape"/>
<feColorMatrix in="SourceAlpha" type="matrix" values="0 0 0 0 0 0 0 0 0 0 0 0 0 0 0 0 0 0 127 0" result="hardAlpha"/>
<feOffset dy="4"/>
<feGaussianBlur stdDeviation="10"/>
<feComposite in2="hardAlpha" operator="arithmetic" k2="-1" k3="1"/>
<feColorMatrix type="matrix" values="0 0 0 0 0 0 0 0 0 0 0 0 0 0 0 0 0 0 0.25 0"/>
<feBlend mode="normal" in2="shape" result="effect1_innerShadow_26_8"/>
</filter>
<filter id="filter2_i_26_8" x="92" y="151.557" width="44" height="48" filterUnits="userSpaceOnUse" color-interpolation-filters="sRGB">
<feFlood flood-opacity="0" result="BackgroundImageFix"/>
<feBlend mode="normal" in="SourceGraphic" in2="BackgroundImageFix" result="shape"/>
<feColorMatrix in="SourceAlpha" type="matrix" values="0 0 0 0 0 0 0 0 0 0 0 0 0 0 0 0 0 0 127 0" result="hardAlpha"/>
<feOffset dy="4"/>
<feGaussianBlur stdDeviation="10"/>
<feComposite in2="hardAlpha" operator="arithmetic" k2="-1" k3="1"/>
<feColorMatrix type="matrix" values="0 0 0 0 0 0 0 0 0 0 0 0 0 0 0 0 0 0 0.25 0"/>
<feBlend mode="normal" in2="shape" result="effect1_innerShadow_26_8"/>
</filter>
<filter id="filter3_d_26_8" x="126" y="0" width="377.814" height="553.951" filterUnits="userSpaceOnUse" color-interpolation-filters="sRGB">
<feFlood flood-opacity="0" result="BackgroundImageFix"/>
<feColorMatrix in="SourceAlpha" type="matrix" values="0 0 0 0 0 0 0 0 0 0 0 0 0 0 0 0 0 0 127 0" result="hardAlpha"/>
<feOffset dy="4"/>
<feGaussianBlur stdDeviation="20"/>
<feComposite in2="hardAlpha" operator="out"/>
<feColorMatrix type="matrix" values="0 0 0 0 0 0 0 0 0 0 0 0 0 0 0 0 0 0 0.25 0"/>
<feBlend mode="normal" in2="BackgroundImageFix" result="effect1_dropShadow_26_8"/>
<feBlend mode="normal" in="SourceGraphic" in2="effect1_dropShadow_26_8" result="shape"/>
</filter>
<filter id="filter4_i_26_8" x="482" y="300.557" width="44" height="48" filterUnits="userSpaceOnUse" color-interpolation-filters="sRGB">
<feFlood flood-opacity="0" result="BackgroundImageFix"/>
<feBlend mode="normal" in="SourceGraphic" in2="BackgroundImageFix" result="shape"/>
<feColorMatrix in="SourceAlpha" type="matrix" values="0 0 0 0 0 0 0 0 0 0 0 0 0 0 0 0 0 0 127 0" result="hardAlpha"/>
<feOffset dy="4"/>
<feGaussianBlur stdDeviation="10"/>
<feComposite in2="hardAlpha" operator="arithmetic" k2="-1" k3="1"/>
<feColorMatrix type="matrix" values="0 0 0 0 0 0 0 0 0 0 0 0 0 0 0 0 0 0 0.25 0"/>
<feBlend mode="normal" in2="shape" result="effect1_innerShadow_26_8"/>
</filter>
<filter id="filter5_i_26_8" x="92" y="151.557" width="44" height="48" filterUnits="userSpaceOnUse" color-interpolation-filters="sRGB">
<feFlood flood-opacity="0" result="BackgroundImageFix"/>
<feBlend mode="normal" in="SourceGraphic" in2="BackgroundImageFix" result="shape"/>
<feColorMatrix in="SourceAlpha" type="matrix" values="0 0 0 0 0 0 0 0 0 0 0 0 0 0 0 0 0 0 127 0" result="hardAlpha"/>
<feOffset dy="4"/>
<feGaussianBlur stdDeviation="10"/>
<feComposite in2="hardAlpha" operator="arithmetic" k2="-1" k3="1"/>
<feColorMatrix type="matrix" values="0 0 0 0 0 0 0 0 0 0 0 0 0 0 0 0 0 0 0.25 0"/>
<feBlend mode="normal" in2="shape" result="effect1_innerShadow_26_8"/>
</filter>
<clipPath id="clip0_26_8">
<rect x="213.273" y="36" width="252" height="450" rx="20" transform="rotate(6.02125 213.273 36)" fill="white"/>
</clipPath>
<clipPath id="clip1_26_8">
<rect width="13" height="13" fill="white" transform="translate(414.419 64.2555) rotate(6.02125)"/>
</clipPath>
<clipPath id="clip2_26_8">
<rect width="13" height="16" fill="white" transform="translate(433.314 66.2486) rotate(6.02125)"/>
</clipPath>
<clipPath id="clip3_26_8">
<rect x="213.204" y="36" width="252" height="450" rx="20" transform="rotate(6.02125 213.204 36)" fill="white"/>
</clipPath>
<clipPath id="clip4_26_8">
<rect width="13" height="13" fill="white" transform="translate(414.35 64.2555) rotate(6.02125)"/>
</clipPath>
<clipPath id="clip5_26_8">
<rect width="13" height="16" fill="white" transform="translate(433.245 66.2486) rotate(6.02125)"/>
</clipPath>
</defs>
</svg>
