<svg width="355" height="445" viewBox="0 0 355 445" fill="none" xmlns="http://www.w3.org/2000/svg">
<g filter="url(#filter0_d_29_9)">
<g clip-path="url(#clip0_29_9)">
<rect x="106.949" y="36" width="194.899" height="348.034" rx="20" transform="rotate(6.02125 106.949 36)" fill="white"/>
<rect x="140.098" y="162" width="48" height="20" rx="10" transform="rotate(6.02125 140.098 162)" fill="#BA8FE7"/>
<rect x="196.785" y="167.979" width="48" height="20" rx="10" transform="rotate(6.02125 196.785 167.979)" fill="#2BD8F5"/>
<rect x="144.832" y="86.3066" width="109" height="9" rx="4.5" transform="rotate(6.02125 144.832 86.3066)" fill="#D6D6D6"/>
<rect x="122.109" y="108.06" width="155" height="9" rx="4.5" transform="rotate(6.02125 122.109 108.06)" fill="#D6D6D6"/>
<rect x="90.9453" y="339" width="155" height="9" rx="4.5" transform="rotate(6.02125 90.9453 339)" fill="#D6D6D6"/>
<path d="M127.039 61.2466L125.865 61.1227L126.686 53.3393L124.24 53.9557L124.352 52.8952L127.831 51.9919L128.014 52.0112L127.039 61.2466ZM131.484 57.0559L132.434 52.5222L137.143 53.0189L137.029 54.0983L133.311 53.7062L132.769 56.183C133.247 55.9653 133.773 55.8867 134.345 55.9471C135.183 56.0354 135.818 56.3833 136.252 56.9908C136.686 57.594 136.854 58.367 136.754 59.3097C136.654 60.2565 136.319 60.9765 135.748 61.4694C135.181 61.9586 134.439 62.1548 133.522 62.058C132.71 61.9723 132.071 61.6773 131.605 61.1728C131.139 60.6684 130.912 60.0147 130.924 59.2117L132.029 59.3282C132.045 59.8618 132.19 60.2793 132.465 60.5806C132.74 60.8777 133.126 61.0524 133.622 61.1048C134.165 61.1621 134.61 61.0217 134.956 60.6838C135.307 60.3463 135.516 59.8514 135.585 59.1991C135.65 58.5847 135.533 58.0745 135.236 57.6687C134.943 57.2591 134.519 57.0249 133.963 56.9663C133.454 56.9126 133.042 56.982 132.728 57.1744L132.392 57.3943L131.484 57.0559ZM137.867 61.7695C137.888 61.5675 137.965 61.4054 138.097 61.2832C138.233 61.1614 138.421 61.1131 138.661 61.1384C138.901 61.1637 139.075 61.2502 139.183 61.3977C139.295 61.5457 139.34 61.7207 139.319 61.9227C139.299 62.1163 139.218 62.2716 139.078 62.3888C138.943 62.5064 138.755 62.5525 138.515 62.5272C138.275 62.5019 138.101 62.4176 137.993 62.2743C137.888 62.1314 137.847 61.9631 137.867 61.7695ZM138.461 56.1962C138.483 55.9942 138.559 55.832 138.691 55.7098C138.828 55.588 139.016 55.5397 139.256 55.565C139.495 55.5903 139.669 55.6768 139.777 55.8243C139.889 55.9723 139.935 56.1473 139.913 56.3493C139.893 56.5429 139.813 56.6983 139.673 56.8154C139.537 56.933 139.349 56.9791 139.109 56.9538C138.869 56.9285 138.695 56.8442 138.587 56.7009C138.483 56.558 138.441 56.3897 138.461 56.1962ZM147.028 59.3913C146.884 60.759 146.543 61.7507 146.006 62.3663C145.469 62.982 144.704 63.2375 143.71 63.1327C142.73 63.0293 142.038 62.6286 141.635 61.9308C141.233 61.2288 141.091 60.2309 141.21 58.9372L141.375 57.3779C141.517 56.027 141.857 55.048 142.393 54.4407C142.93 53.8335 143.697 53.5825 144.694 53.6877C145.683 53.792 146.377 54.1865 146.778 54.8713C147.178 55.5518 147.315 56.5534 147.188 57.8762L147.028 59.3913ZM146.029 57.671C146.133 56.682 146.07 55.9477 145.84 55.4681C145.61 54.9843 145.194 54.7107 144.593 54.6472C143.995 54.5841 143.536 54.7634 143.215 55.1848C142.894 55.6062 142.68 56.2837 142.573 57.217L142.376 59.0856C142.271 60.0788 142.336 60.8282 142.573 61.334C142.813 61.8359 143.226 62.1178 143.811 62.1795C144.388 62.2403 144.838 62.0623 145.163 61.6455C145.492 61.2292 145.713 60.5419 145.827 59.5837L146.029 57.671ZM154.288 60.157C154.144 61.5247 153.803 62.5164 153.266 63.1321C152.728 63.7477 151.963 64.0032 150.97 63.8984C149.989 63.795 149.298 63.3944 148.895 62.6966C148.492 61.9945 148.351 60.9966 148.47 59.7029L148.634 58.1437C148.777 56.7928 149.116 55.8137 149.653 55.2064C150.189 54.5992 150.956 54.3482 151.953 54.4534C152.942 54.5577 153.637 54.9522 154.037 55.637C154.438 56.3175 154.575 57.3192 154.448 58.642L154.288 60.157ZM153.289 58.4367C153.393 57.4477 153.33 56.7134 153.1 56.2338C152.87 55.75 152.454 55.4764 151.852 55.4129C151.255 55.3499 150.795 55.5291 150.474 55.9505C150.153 56.372 149.939 57.0494 149.832 57.9828L149.635 59.8513C149.53 60.8445 149.596 61.594 149.832 62.0997C150.073 62.6017 150.486 62.8835 151.07 62.9452C151.647 63.006 152.098 62.828 152.423 62.4112C152.752 61.9949 152.973 61.3076 153.087 60.3494L153.289 58.4367Z" fill="black"/>
<rect x="237.316" y="70.9512" width="3" height="3" transform="rotate(6.02125 237.316 70.9512)" fill="black"/>
<rect x="242.707" y="67.498" width="3" height="7" transform="rotate(6.02125 242.707 67.498)" fill="black"/>
<rect x="247" y="64.9346" width="4" height="10" transform="rotate(6.02125 247 64.9346)" fill="black"/>
<g clip-path="url(#clip1_29_9)">
<rect width="13" height="13" transform="translate(257.258 63) rotate(6.02125)" fill="white"/>
<path d="M263.905 74.0715C263.832 74.7698 263.207 75.2754 262.508 75.2017C261.81 75.128 261.304 74.5033 261.378 73.8049C261.452 73.1063 262.076 72.6008 262.775 72.6745C263.473 72.7481 263.979 73.3729 263.905 74.0715ZM259.989 71.1988L260.872 72.1133C261.96 71.0612 263.91 71.2669 264.754 72.5237L265.809 71.8163C265.176 70.8739 264.167 70.2658 263.041 70.147C261.916 70.0283 260.804 70.4114 259.989 71.1988ZM258.406 69.2014L259.253 70.1493C260.321 69.1938 261.749 68.7331 263.175 68.8835C264.599 69.0337 265.9 69.7823 266.745 70.9371L267.77 70.1867C266.713 68.7425 265.087 67.8074 263.308 67.6198C261.527 67.4319 259.741 68.0096 258.406 69.2014ZM256.813 67.218L257.645 68.178C259.236 66.7995 261.348 66.1352 263.441 66.356C265.565 66.58 267.442 67.6416 268.728 69.3444L269.742 68.5778C268.264 66.6202 266.016 65.3498 263.575 65.0923C261.132 64.8347 258.669 65.6093 256.813 67.218Z" fill="black"/>
</g>
<g clip-path="url(#clip2_29_9)">
<path d="M275.709 69.1953L274.917 76.7008L287.114 77.9873L287.905 70.4818L275.709 69.1953ZM286.477 77.0095L275.744 75.8774L276.346 70.1732L287.079 71.3053L286.477 77.0095Z" fill="black"/>
<path d="M277.715 71.2268L276.983 71.1497L276.572 75.0525L277.304 75.1297L277.715 71.2268Z" fill="black"/>
<path d="M288.447 72.3587L287.715 72.2815L287.303 76.1844L288.035 76.2616L288.447 72.3587Z" fill="black"/>
</g>
<path d="M117.823 89.7745C117.394 90.1219 117.328 90.7516 117.675 91.181L123.336 98.1774C123.684 98.6067 124.313 98.6731 124.743 98.3257C125.172 97.9783 125.239 97.3486 124.891 96.9193L119.859 90.7003L126.078 85.668C126.507 85.3206 126.574 84.6909 126.226 84.2616C125.879 83.8323 125.249 83.7659 124.82 84.1133L117.823 89.7745ZM120.546 89.7672L118.557 89.5574L118.348 91.5464L120.337 91.7562L120.546 89.7672Z" fill="#6D6D6D"/>
<circle cx="128.841" cy="135.842" r="13.5" transform="rotate(6.02125 128.841 135.842)" fill="#2D6EFD"/>
<circle cx="161.841" cy="138.842" r="13.5" transform="rotate(6.02125 161.841 138.842)" fill="#2D6EFD"/>
<path d="M161.836 136.41L163.708 138.941L158.586 143.468L156.676 143.496C156.42 143.5 156.231 143.245 156.289 142.972L156.716 140.935L161.836 136.41ZM165.296 136.428L164.417 135.24C164.143 134.869 163.641 134.816 163.295 135.121L162.253 136.042L164.125 138.573L165.167 137.652C165.513 137.347 165.571 136.799 165.296 136.428Z" fill="white"/>
<rect x="111.762" y="191" width="163.14" height="26.3128" rx="13.1564" transform="rotate(6.02125 111.762 191)" fill="#BA8FE7"/>
<rect x="137.172" y="227.061" width="139.815" height="30" rx="15" transform="rotate(6.02125 137.172 227.061)" fill="#2BD8F5"/>
<path d="M260.475 218.091L256.234 213.657C256.203 213.625 256.166 213.599 256.124 213.578C256.082 213.558 256.035 213.546 255.988 213.541C255.94 213.536 255.893 213.539 255.847 213.549C255.802 213.56 255.759 213.578 255.723 213.603L250.65 217.055C250.503 217.155 250.409 217.303 250.392 217.466C250.357 217.804 250.652 218.114 251.051 218.156L251.542 218.207L251.245 221.021C251.227 221.19 251.374 221.344 251.574 221.365L254.4 221.663L254.626 219.518L255.892 219.651L255.666 221.797L258.672 222.114C258.872 222.135 259.048 222.015 259.066 221.846L259.363 219.032L259.853 219.084C260.045 219.104 260.237 219.06 260.384 218.958C260.691 218.748 260.732 218.36 260.475 218.091Z" fill="white"/>
<path d="M259.475 254.091L255.234 249.657C255.203 249.625 255.166 249.599 255.124 249.578C255.082 249.558 255.035 249.546 254.988 249.541C254.94 249.536 254.893 249.539 254.847 249.549C254.802 249.56 254.759 249.578 254.723 249.603L249.65 253.055C249.503 253.155 249.409 253.303 249.392 253.466C249.357 253.804 249.652 254.114 250.051 254.156L250.542 254.207L250.245 257.021C250.227 257.19 250.374 257.344 250.574 257.365L253.4 257.663L253.626 255.518L254.892 255.651L254.666 257.797L257.672 258.114C257.872 258.135 258.048 258.015 258.066 257.846L258.363 255.032L258.853 255.084C259.045 255.104 259.237 255.06 259.384 254.958C259.691 254.748 259.732 254.36 259.475 254.091Z" fill="white"/>
<rect x="106.148" y="260" width="165" height="30" rx="15" transform="rotate(6.02125 106.148 260)" fill="#F6BD11"/>
<path d="M255.475 291.091L251.234 286.657C251.203 286.625 251.166 286.599 251.124 286.578C251.082 286.558 251.035 286.546 250.988 286.541C250.94 286.536 250.893 286.539 250.847 286.549C250.802 286.56 250.759 286.578 250.723 286.603L245.65 290.055C245.503 290.155 245.409 290.303 245.392 290.466C245.357 290.804 245.652 291.114 246.051 291.156L246.542 291.207L246.245 294.021C246.227 294.19 246.374 294.344 246.574 294.365L249.4 294.663L249.626 292.518L250.892 292.651L250.666 294.797L253.672 295.114C253.872 295.135 254.048 295.015 254.066 294.846L254.363 292.032L254.853 292.084C255.045 292.104 255.237 292.06 255.384 291.958C255.691 291.748 255.732 291.36 255.475 291.091Z" fill="white"/>
<circle cx="173.929" cy="375.906" r="9.44077" transform="rotate(6.02125 173.929 375.906)" stroke="#BDBDBD"/>
<path d="M184.188 374.989C183.642 380.158 178.862 383.92 173.479 383.352C168.097 382.784 164.206 378.108 164.751 372.938C165.297 367.768 170.077 364.007 175.46 364.575C180.843 365.143 184.733 369.819 184.188 374.989Z" stroke="#BDBDBD"/>
<circle cx="226.893" cy="325.894" r="9" transform="rotate(6.02125 226.893 325.894)" fill="#2D6EFD"/>
<circle cx="254.741" cy="328.832" r="9" transform="rotate(6.02125 254.741 328.832)" fill="#2D6EFD"/>
<circle cx="226.895" cy="325.895" r="2.5" transform="rotate(6.02125 226.895 325.895)" stroke="white"/>
<path d="M258.6 331.452L258.856 329.026C258.874 328.857 258.85 328.686 258.785 328.522C258.72 328.358 258.616 328.206 258.479 328.074L255.93 325.621C255.802 325.498 255.623 325.418 255.431 325.397C255.238 325.377 255.047 325.418 254.895 325.512L251.89 327.379C251.729 327.48 251.595 327.607 251.498 327.753C251.4 327.9 251.341 328.062 251.323 328.231L251.067 330.657C251.05 330.822 251.113 330.988 251.242 331.119C251.371 331.25 251.555 331.336 251.755 331.357L257.782 331.993C257.981 332.014 258.18 331.969 258.333 331.867C258.487 331.766 258.583 331.616 258.6 331.452Z" stroke="white" stroke-linecap="round" stroke-linejoin="round"/>
<path d="M128.159 136.04C129.397 136.174 130.51 135.279 130.645 134.041C130.779 132.802 129.884 131.689 128.646 131.555C127.407 131.42 126.294 132.315 126.16 133.554C126.025 134.792 126.92 135.905 128.159 136.04Z" stroke="white" stroke-width="2"/>
<path d="M130.304 137.181L130.462 137.198C130.789 137.234 131.093 137.388 131.315 137.632C131.537 137.875 131.663 138.192 131.668 138.522L131.691 139.942C131.693 140.07 131.668 140.197 131.618 140.314C131.567 140.432 131.492 140.537 131.397 140.623C131.303 140.709 131.191 140.774 131.069 140.814C130.947 140.854 130.819 140.867 130.692 140.853L124.651 140.197C124.524 140.183 124.401 140.143 124.291 140.078C124.18 140.013 124.085 139.925 124.011 139.821C123.937 139.716 123.887 139.597 123.862 139.472C123.838 139.346 123.841 139.217 123.87 139.092L124.197 137.71C124.273 137.389 124.464 137.107 124.734 136.916C125.003 136.726 125.333 136.641 125.661 136.676L125.819 136.693" stroke="white" stroke-width="2" stroke-linecap="round" stroke-linejoin="round"/>
<path d="M175.27 376.702L174.735 376.644L174.793 376.109L173.722 375.992L173.664 376.528L173.129 376.469L173.187 375.934C173.203 375.792 173.274 375.662 173.385 375.573C173.496 375.483 173.638 375.442 173.78 375.457L174.851 375.573C174.993 375.589 175.123 375.66 175.212 375.771C175.302 375.883 175.343 376.025 175.328 376.167L175.27 376.702Z" fill="#1D1D1D"/>
<path d="M174.344 375.247C174.186 375.23 174.035 375.166 173.913 375.064C173.79 374.961 173.701 374.824 173.656 374.671C173.611 374.518 173.613 374.355 173.661 374.202C173.709 374.05 173.801 373.915 173.925 373.815C174.05 373.715 174.201 373.654 174.36 373.64C174.52 373.626 174.679 373.659 174.819 373.736C174.96 373.813 175.074 373.929 175.148 374.071C175.222 374.212 175.252 374.373 175.235 374.532C175.211 374.744 175.104 374.939 174.937 375.074C174.771 375.208 174.557 375.27 174.344 375.247ZM174.461 374.177C174.408 374.171 174.354 374.181 174.307 374.206C174.26 374.23 174.221 374.268 174.195 374.315C174.17 374.362 174.159 374.415 174.163 374.468C174.168 374.521 174.188 374.572 174.222 374.613C174.255 374.655 174.3 374.685 174.351 374.701C174.402 374.717 174.456 374.718 174.507 374.703C174.558 374.688 174.604 374.658 174.638 374.617C174.672 374.576 174.693 374.526 174.699 374.473C174.707 374.402 174.686 374.331 174.641 374.276C174.597 374.22 174.532 374.185 174.461 374.177Z" fill="#1D1D1D"/>
<path d="M173.879 379.53L171.91 376.622C171.883 376.578 171.857 376.535 171.83 376.491C171.5 375.941 171.359 375.298 171.429 374.66C171.514 373.879 171.906 373.164 172.518 372.672C173.13 372.18 173.912 371.951 174.693 372.036C175.474 372.12 176.189 372.512 176.681 373.124C177.174 373.736 177.402 374.519 177.318 375.3C177.249 375.937 176.974 376.535 176.533 377.001L176.533 377.002C176.533 377.002 176.441 377.099 176.427 377.111L173.879 379.53ZM172.293 376.215C172.293 376.215 172.346 376.304 172.359 376.323L173.969 378.702L176.055 376.722C176.069 376.708 176.14 376.632 176.141 376.632C176.501 376.251 176.726 375.763 176.782 375.242C176.852 374.603 176.664 373.962 176.262 373.462C175.859 372.961 175.274 372.64 174.635 372.571C173.996 372.502 173.356 372.689 172.855 373.091C172.354 373.494 172.034 374.079 171.964 374.718C171.907 375.24 172.023 375.765 172.293 376.215L172.293 376.215Z" fill="#1D1D1D"/>
</g>
<rect x="108.284" y="37.6491" width="191.899" height="345.034" rx="18.5" transform="rotate(6.02125 108.284 37.6491)" stroke="white" stroke-width="3"/>
</g>
<g filter="url(#filter1_i_29_9)">
<circle cx="332" cy="258" r="17" fill="#2D6EFD"/>
</g>
<ellipse cx="349" cy="335.5" rx="6" ry="6.5" fill="#F6BD11"/>
<ellipse cx="6" cy="251" rx="6" ry="7" fill="#F6BD11"/>
<g filter="url(#filter2_i_29_9)">
<circle cx="30" cy="142" r="17" fill="#8247F5"/>
</g>
<rect x="183.398" y="129.611" width="130.706" height="23.2022" rx="11.6011" transform="rotate(6.02125 183.398 129.611)" fill="#2D6EFD"/>
<path d="M301.41 154.62L297.574 150.61C297.547 150.581 297.513 150.556 297.475 150.538C297.437 150.52 297.395 150.509 297.352 150.504C297.309 150.5 297.266 150.502 297.225 150.512C297.183 150.522 297.145 150.538 297.112 150.561L292.524 153.683C292.391 153.774 292.306 153.907 292.291 154.055C292.258 154.361 292.526 154.64 292.887 154.678L293.33 154.725L293.062 157.269C293.046 157.423 293.179 157.562 293.36 157.581L295.915 157.851L296.12 155.91L297.265 156.031L297.06 157.972L299.779 158.258C299.96 158.277 300.12 158.169 300.136 158.016L300.404 155.471L300.848 155.518C301.022 155.536 301.195 155.496 301.328 155.404C301.606 155.214 301.643 154.863 301.41 154.62Z" fill="white"/>
<rect x="47.4336" y="294" width="154.682" height="23.2022" rx="11.6011" transform="rotate(6.02125 47.4336 294)" fill="#8247F5"/>
<path d="M189.835 321.683L185.554 317.606C185.523 317.576 185.486 317.551 185.443 317.533C185.401 317.514 185.354 317.502 185.307 317.497C185.26 317.492 185.212 317.494 185.166 317.504C185.121 317.513 185.079 317.529 185.043 317.552L180.005 320.646C179.859 320.736 179.767 320.87 179.751 321.018C179.719 321.326 180.017 321.61 180.416 321.652L180.907 321.704L180.637 324.263C180.621 324.417 180.77 324.559 180.97 324.58L183.796 324.878L184.002 322.927L185.269 323.06L185.063 325.012L188.071 325.329C188.271 325.35 188.446 325.243 188.462 325.088L188.732 322.53L189.223 322.581C189.415 322.602 189.606 322.563 189.753 322.472C190.057 322.283 190.095 321.931 189.835 321.683Z" fill="white"/>
<path d="M36.355 146.579V141.796C36.3551 141.464 36.2906 141.134 36.1656 140.829C36.0407 140.523 35.8578 140.248 35.6282 140.019L31.3515 135.761C31.1361 135.546 30.8509 135.427 30.5545 135.427C30.258 135.427 29.9729 135.546 29.7575 135.761L25.4807 140.019C25.2511 140.248 25.0683 140.523 24.9433 140.829C24.8183 141.134 24.7539 141.464 24.7539 141.796V146.579C24.7539 146.903 24.8761 147.214 25.0937 147.443C25.3113 147.673 25.6063 147.801 25.914 147.801H35.1949C35.5026 147.801 35.7977 147.673 36.0152 147.443C36.2328 147.214 36.355 146.903 36.355 146.579Z" stroke="white" stroke-width="2" stroke-linecap="round" stroke-linejoin="round"/>
<path d="M331.94 258.033C333.453 258.033 334.679 256.807 334.679 255.294C334.679 253.781 333.453 252.555 331.94 252.555C330.428 252.555 329.201 253.781 329.201 255.294C329.201 256.807 330.428 258.033 331.94 258.033Z" stroke="white" stroke-width="2"/>
<path d="M334.68 259.129H334.873C335.274 259.129 335.66 259.275 335.961 259.54C336.261 259.805 336.454 260.171 336.504 260.568L336.718 262.28C336.737 262.434 336.723 262.59 336.677 262.739C336.632 262.887 336.555 263.024 336.452 263.141C336.349 263.257 336.223 263.351 336.081 263.414C335.939 263.478 335.786 263.511 335.63 263.511H328.252C328.097 263.511 327.943 263.478 327.802 263.414C327.66 263.351 327.533 263.257 327.431 263.141C327.328 263.024 327.251 262.887 327.205 262.739C327.159 262.59 327.145 262.434 327.165 262.28L327.378 260.568C327.428 260.171 327.621 259.805 327.922 259.54C328.222 259.275 328.609 259.129 329.01 259.129H329.202" stroke="white" stroke-width="2" stroke-linecap="round" stroke-linejoin="round"/>
<path d="M25.2504 353.961L25.3464 354.337H25.7348H28.4536L26.1585 356.459L25.9399 356.661L26.0135 356.95L26.8297 360.147L24.8395 358.307L24.5 357.993L24.1605 358.307L22.1703 360.147L22.9865 356.95L23.0601 356.661L22.8415 356.459L20.5464 354.337H23.2652H23.6536L23.7496 353.961L24.5 351.021L25.2504 353.961Z" stroke="black"/>
<defs>
<filter id="filter0_d_29_9" x="30.4414" y="0" width="310.331" height="446.558" filterUnits="userSpaceOnUse" color-interpolation-filters="sRGB">
<feFlood flood-opacity="0" result="BackgroundImageFix"/>
<feColorMatrix in="SourceAlpha" type="matrix" values="0 0 0 0 0 0 0 0 0 0 0 0 0 0 0 0 0 0 127 0" result="hardAlpha"/>
<feOffset dy="4"/>
<feGaussianBlur stdDeviation="20"/>
<feComposite in2="hardAlpha" operator="out"/>
<feColorMatrix type="matrix" values="0 0 0 0 0 0 0 0 0 0 0 0 0 0 0 0 0 0 0.25 0"/>
<feBlend mode="normal" in2="BackgroundImageFix" result="effect1_dropShadow_29_9"/>
<feBlend mode="normal" in="SourceGraphic" in2="effect1_dropShadow_29_9" result="shape"/>
</filter>
<filter id="filter1_i_29_9" x="315" y="241" width="34" height="38" filterUnits="userSpaceOnUse" color-interpolation-filters="sRGB">
<feFlood flood-opacity="0" result="BackgroundImageFix"/>
<feBlend mode="normal" in="SourceGraphic" in2="BackgroundImageFix" result="shape"/>
<feColorMatrix in="SourceAlpha" type="matrix" values="0 0 0 0 0 0 0 0 0 0 0 0 0 0 0 0 0 0 127 0" result="hardAlpha"/>
<feOffset dy="4"/>
<feGaussianBlur stdDeviation="10"/>
<feComposite in2="hardAlpha" operator="arithmetic" k2="-1" k3="1"/>
<feColorMatrix type="matrix" values="0 0 0 0 0 0 0 0 0 0 0 0 0 0 0 0 0 0 0.25 0"/>
<feBlend mode="normal" in2="shape" result="effect1_innerShadow_29_9"/>
</filter>
<filter id="filter2_i_29_9" x="13" y="125" width="34" height="38" filterUnits="userSpaceOnUse" color-interpolation-filters="sRGB">
<feFlood flood-opacity="0" result="BackgroundImageFix"/>
<feBlend mode="normal" in="SourceGraphic" in2="BackgroundImageFix" result="shape"/>
<feColorMatrix in="SourceAlpha" type="matrix" values="0 0 0 0 0 0 0 0 0 0 0 0 0 0 0 0 0 0 127 0" result="hardAlpha"/>
<feOffset dy="4"/>
<feGaussianBlur stdDeviation="10"/>
<feComposite in2="hardAlpha" operator="arithmetic" k2="-1" k3="1"/>
<feColorMatrix type="matrix" values="0 0 0 0 0 0 0 0 0 0 0 0 0 0 0 0 0 0 0.25 0"/>
<feBlend mode="normal" in2="shape" result="effect1_innerShadow_29_9"/>
</filter>
<clipPath id="clip0_29_9">
<rect x="106.949" y="36" width="194.899" height="348.034" rx="20" transform="rotate(6.02125 106.949 36)" fill="white"/>
</clipPath>
<clipPath id="clip1_29_9">
<rect width="13" height="13" fill="white" transform="translate(257.258 63) rotate(6.02125)"/>
</clipPath>
<clipPath id="clip2_29_9">
<rect width="13" height="16" fill="white" transform="translate(276.152 64.9932) rotate(6.02125)"/>
</clipPath>
</defs>
</svg>
