<svg width="12" height="12" viewBox="0 0 12 12" fill="none" xmlns="http://www.w3.org/2000/svg">
<g clip-path="url(#clip0_7131_1633)">
<path d="M11.6727 8.80679L9.9981 7.13215C9.40001 6.53407 8.38327 6.77332 8.14404 7.55081C7.96461 8.08911 7.36653 8.38815 6.82825 8.26851C5.63208 7.96947 4.01725 6.41445 3.71821 5.15847C3.53879 4.62018 3.89764 4.02209 4.43591 3.84269C5.21342 3.60346 5.45266 2.58671 4.85457 1.98863L3.17994 0.313994C2.70147 -0.104665 1.98377 -0.104665 1.56511 0.313994L0.428749 1.45035C-0.707611 2.64652 0.548366 5.81637 3.35936 8.62736C6.17036 11.4384 9.34021 12.7542 10.5364 11.558L11.6727 10.4216C12.0914 9.94315 12.0914 9.22545 11.6727 8.80679Z" fill="white"/>
</g>
<defs>
<clipPath id="clip0_7131_1633">
<rect width="12" height="12" fill="white"/>
</clipPath>
</defs>
</svg>
