<svg width="12" height="12" viewBox="0 0 12 12" fill="none" xmlns="http://www.w3.org/2000/svg">
<path d="M10.2417 1.75831C7.8975 -0.585917 4.10288 -0.586291 1.75832 1.75831C-0.585931 4.10254 -0.586283 7.89712 1.75832 10.2417C4.1025 12.5859 7.89713 12.5863 10.2417 10.2417C12.5859 7.89747 12.5863 4.10289 10.2417 1.75831ZM9.99097 9.3866C9.7107 9.13597 9.4109 8.91418 9.09489 8.72304C9.30376 8.00154 9.4275 7.20759 9.45675 6.38228H11.2204C11.1406 7.49472 10.7132 8.53827 9.99097 9.3866ZM0.779619 6.38228H2.54324C2.57249 7.20759 2.69623 8.00154 2.9051 8.72304C2.58909 8.91418 2.28929 9.13597 2.00902 9.3866C1.28679 8.53827 0.859383 7.49472 0.779619 6.38228ZM2.00904 2.61341C2.28931 2.86404 2.58911 3.08583 2.90512 3.27697C2.69625 3.99847 2.57251 4.79242 2.54326 5.61773H0.779619C0.859383 4.50531 1.28679 3.46177 2.00904 2.61341ZM5.61775 3.35599C4.9943 3.3114 4.39317 3.15784 3.83589 2.90453C4.16 2.06992 4.75749 1.0689 5.61775 0.820827V3.35599ZM5.61775 4.12195V5.61776H3.30811C3.33457 4.91961 3.43349 4.24921 3.598 3.63581C4.23131 3.91266 4.91241 4.078 5.61775 4.12195ZM5.61775 6.38228V7.87808C4.91241 7.92203 4.23131 8.08737 3.598 8.36422C3.43349 7.75082 3.33457 7.08042 3.30811 6.38228H5.61775ZM5.61775 8.64405V11.1792C4.75754 10.9311 4.16004 9.93021 3.83589 9.09551C4.39317 8.84219 4.9943 8.68864 5.61775 8.64405ZM6.38226 8.64405C7.00571 8.68864 7.60684 8.84219 8.16412 9.09551C7.83999 9.93014 7.24252 10.9311 6.38226 11.1792V8.64405ZM6.38226 7.87808V6.38228H8.69191C8.66544 7.08042 8.56652 7.75082 8.40201 8.36422C7.7687 8.08737 7.0876 7.92203 6.38226 7.87808ZM6.38226 5.61776V4.12195C7.0876 4.078 7.7687 3.91266 8.40201 3.63581C8.56652 4.24921 8.66544 4.91961 8.69191 5.61776H6.38226ZM6.38226 3.35599V0.82085C7.24252 1.06892 7.84001 2.06994 8.16412 2.90455C7.60684 3.15784 7.00571 3.3114 6.38226 3.35599ZM8.0993 1.2025C8.58863 1.41678 9.04515 1.70733 9.45438 2.06783C9.25959 2.23958 9.05405 2.39532 8.83942 2.53459C8.64881 2.06266 8.40533 1.60403 8.0993 1.2025ZM3.16057 2.53459C2.94594 2.39532 2.74042 2.23958 2.5456 2.06783C2.95484 1.70733 3.41136 1.41678 3.90068 1.2025C3.59465 1.60408 3.35117 2.0627 3.16057 2.53459ZM3.16059 9.46545C3.35117 9.93735 3.5947 10.396 3.90071 10.7975C3.41138 10.5833 2.95486 10.2927 2.54563 9.9322C2.74042 9.76045 2.94596 9.60472 3.16059 9.46545ZM8.83942 9.46545C9.05405 9.60472 9.25959 9.76045 9.45438 9.93218C9.04515 10.2927 8.58863 10.5832 8.0993 10.7975C8.40531 10.396 8.64881 9.93738 8.83942 9.46545ZM9.45677 5.61776C9.42752 4.79245 9.30378 3.99847 9.09491 3.277C9.41092 3.08585 9.7107 2.86406 9.99099 2.61343C10.7132 3.46177 11.1406 4.50531 11.2204 5.61776H9.45677Z" fill="white"/>
</svg>
